# Blender 5.2.0 LTS
# www.blender.org
mtllib bridge_edge.mtl
o geometry_0
v -0.485000 -0.054457 -0.498502
v -0.485000 -0.054457 -0.334831
v -0.485000 -0.004457 -0.498502
v -0.485000 -0.004457 -0.334831
v 0.485000 -0.054457 -0.498502
v 0.485000 -0.054457 -0.334831
v 0.485000 -0.004457 -0.498502
v 0.485000 -0.004457 -0.334831
vn -1.0000 -0.0000 -0.0000
vn -0.0000 -1.0000 -0.0000
vn -0.0000 -0.0000 -1.0000
vn -0.0000 -0.0000 1.0000
vn -0.0000 1.0000 -0.0000
vn 1.0000 -0.0000 -0.0000
s 0
usemtl material_3
f 2//1 4//1 1//1
f 5//2 2//2 1//2
f 1//1 4//1 3//1
f 3//3 5//3 1//3
f 2//4 8//4 4//4
f 6//2 2//2 5//2
f 6//4 8//4 2//4
f 4//5 8//5 3//5
f 7//3 5//3 3//3
f 3//5 8//5 7//5
f 7//6 6//6 5//6
f 8//6 6//6 7//6
o geometry_1
v -0.485000 -0.048782 -0.333247
v -0.485000 -0.048782 -0.166753
v -0.485000 0.001218 -0.333247
v -0.485000 0.001218 -0.166753
v 0.485000 -0.048782 -0.333247
v 0.485000 -0.048782 -0.166753
v 0.485000 0.001218 -0.333247
v 0.485000 0.001218 -0.166753
vn -1.0000 -0.0000 -0.0000
vn -0.0000 -1.0000 -0.0000
vn -0.0000 -0.0000 -1.0000
vn -0.0000 -0.0000 1.0000
vn -0.0000 1.0000 -0.0000
vn 1.0000 -0.0000 -0.0000
s 0
usemtl material_2
f 10//7 12//7 9//7
f 13//8 10//8 9//8
f 9//7 12//7 11//7
f 11//9 13//9 9//9
f 10//10 16//10 12//10
f 14//8 10//8 13//8
f 14//10 16//10 10//10
f 12//11 16//11 11//11
f 15//9 13//9 11//9
f 11//11 16//11 15//11
f 15//12 14//12 13//12
f 16//12 14//12 15//12
o geometry_10
v -0.442427 0.000000 0.450000
v -0.472427 0.000000 0.450000
v -0.457427 0.000000 0.424019
v -0.442427 0.000000 0.450000
v -0.457427 0.000000 0.424019
v -0.442427 0.420000 0.450000
v -0.442427 0.420000 0.450000
v -0.457427 0.000000 0.424019
v -0.457427 0.420000 0.424019
v -0.442427 0.420000 0.450000
v -0.457427 0.420000 0.424019
v -0.472427 0.420000 0.450000
v -0.457427 0.000000 0.424019
v -0.472427 0.000000 0.450000
v -0.487427 0.000000 0.424019
v -0.457427 0.000000 0.424019
v -0.487427 0.000000 0.424019
v -0.457427 0.420000 0.424019
v -0.457427 0.420000 0.424019
v -0.487427 0.000000 0.424019
v -0.487427 0.420000 0.424019
v -0.457427 0.420000 0.424019
v -0.487427 0.420000 0.424019
v -0.472427 0.420000 0.450000
v -0.487427 0.000000 0.424019
v -0.472427 0.000000 0.450000
v -0.502427 0.000000 0.450000
v -0.487427 0.000000 0.424019
v -0.502427 0.000000 0.450000
v -0.487427 0.420000 0.424019
v -0.487427 0.420000 0.424019
v -0.502427 0.000000 0.450000
v -0.502427 0.420000 0.450000
v -0.487427 0.420000 0.424019
v -0.502427 0.420000 0.450000
v -0.472427 0.420000 0.450000
v -0.502427 0.000000 0.450000
v -0.472427 0.000000 0.450000
v -0.487427 0.000000 0.475981
v -0.502427 0.000000 0.450000
v -0.487427 0.000000 0.475981
v -0.502427 0.420000 0.450000
v -0.502427 0.420000 0.450000
v -0.487427 0.000000 0.475981
v -0.487427 0.420000 0.475981
v -0.502427 0.420000 0.450000
v -0.487427 0.420000 0.475981
v -0.472427 0.420000 0.450000
v -0.487427 0.000000 0.475981
v -0.472427 0.000000 0.450000
v -0.457427 0.000000 0.475981
v -0.487427 0.000000 0.475981
v -0.457427 0.000000 0.475981
v -0.487427 0.420000 0.475981
v -0.487427 0.420000 0.475981
v -0.457427 0.000000 0.475981
v -0.457427 0.420000 0.475981
v -0.487427 0.420000 0.475981
v -0.457427 0.420000 0.475981
v -0.472427 0.420000 0.450000
v -0.457427 0.000000 0.475981
v -0.472427 0.000000 0.450000
v -0.442427 0.000000 0.450000
v -0.457427 0.000000 0.475981
v -0.442427 0.000000 0.450000
v -0.457427 0.420000 0.475981
v -0.457427 0.420000 0.475981
v -0.442427 0.000000 0.450000
v -0.442427 0.420000 0.450000
v -0.457427 0.420000 0.475981
v -0.442427 0.420000 0.450000
v -0.472427 0.420000 0.450000
vn -0.0000 -1.0000 -0.0000
vn 0.8660 -0.0000 -0.5000
vn -0.0000 1.0000 -0.0000
vn -0.0000 -0.0000 -1.0000
vn -0.8660 -0.0000 -0.5000
vn -0.8660 -0.0000 0.5000
vn -0.0000 -0.0000 1.0000
vn 0.8660 -0.0000 0.5000
s 0
usemtl material_0
f 17//13 18//13 19//13
f 20//14 21//14 22//14
f 23//14 24//14 25//14
f 26//15 27//15 28//15
f 29//13 30//13 31//13
f 32//16 33//16 34//16
f 35//16 36//16 37//16
f 38//15 39//15 40//15
f 41//13 42//13 43//13
f 44//17 45//17 46//17
f 47//17 48//17 49//17
f 50//15 51//15 52//15
f 53//13 54//13 55//13
f 56//18 57//18 58//18
f 59//18 60//18 61//18
f 62//15 63//15 64//15
f 65//13 66//13 67//13
f 68//19 69//19 70//19
f 71//19 72//19 73//19
f 74//15 75//15 76//15
f 77//13 78//13 79//13
f 80//20 81//20 82//20
f 83//20 84//20 85//20
f 86//15 87//15 88//15
o geometry_11
v -0.446000 0.211000 -0.450000
v -0.460000 0.211000 -0.450000
v -0.453000 0.223124 -0.450000
v -0.446000 0.211000 -0.450000
v -0.453000 0.223124 -0.450000
v -0.446000 0.211000 -0.000000
v -0.446000 0.211000 -0.000000
v -0.453000 0.223124 -0.450000
v -0.453000 0.223124 -0.000000
v -0.446000 0.211000 -0.000000
v -0.453000 0.223124 -0.000000
v -0.460000 0.211000 -0.000000
v -0.453000 0.223124 -0.450000
v -0.460000 0.211000 -0.450000
v -0.467000 0.223124 -0.450000
v -0.453000 0.223124 -0.450000
v -0.467000 0.223124 -0.450000
v -0.453000 0.223124 -0.000000
v -0.453000 0.223124 -0.000000
v -0.467000 0.223124 -0.450000
v -0.467000 0.223124 -0.000000
v -0.453000 0.223124 -0.000000
v -0.467000 0.223124 -0.000000
v -0.460000 0.211000 -0.000000
v -0.467000 0.223124 -0.450000
v -0.460000 0.211000 -0.450000
v -0.474000 0.211000 -0.450000
v -0.467000 0.223124 -0.450000
v -0.474000 0.211000 -0.450000
v -0.467000 0.223124 -0.000000
v -0.467000 0.223124 -0.000000
v -0.474000 0.211000 -0.450000
v -0.474000 0.211000 -0.000000
v -0.467000 0.223124 -0.000000
v -0.474000 0.211000 -0.000000
v -0.460000 0.211000 -0.000000
v -0.474000 0.211000 -0.450000
v -0.460000 0.211000 -0.450000
v -0.467000 0.198876 -0.450000
v -0.474000 0.211000 -0.450000
v -0.467000 0.198876 -0.450000
v -0.474000 0.211000 -0.000000
v -0.474000 0.211000 -0.000000
v -0.467000 0.198876 -0.450000
v -0.467000 0.198876 -0.000000
v -0.474000 0.211000 -0.000000
v -0.467000 0.198876 -0.000000
v -0.460000 0.211000 -0.000000
v -0.467000 0.198876 -0.450000
v -0.460000 0.211000 -0.450000
v -0.453000 0.198876 -0.450000
v -0.467000 0.198876 -0.450000
v -0.453000 0.198876 -0.450000
v -0.467000 0.198876 -0.000000
v -0.467000 0.198876 -0.000000
v -0.453000 0.198876 -0.450000
v -0.453000 0.198876 -0.000000
v -0.467000 0.198876 -0.000000
v -0.453000 0.198876 -0.000000
v -0.460000 0.211000 -0.000000
v -0.453000 0.198876 -0.450000
v -0.460000 0.211000 -0.450000
v -0.446000 0.211000 -0.450000
v -0.453000 0.198876 -0.450000
v -0.446000 0.211000 -0.450000
v -0.453000 0.198876 -0.000000
v -0.453000 0.198876 -0.000000
v -0.446000 0.211000 -0.450000
v -0.446000 0.211000 -0.000000
v -0.453000 0.198876 -0.000000
v -0.446000 0.211000 -0.000000
v -0.460000 0.211000 -0.000000
vn -0.0000 -0.0000 -1.0000
vn 0.8660 0.5000 -0.0000
vn -0.0000 -0.0000 1.0000
vn -0.0000 1.0000 -0.0000
vn -0.8660 0.5000 -0.0000
vn -0.8660 -0.5000 -0.0000
vn -0.0000 -1.0000 -0.0000
vn 0.8660 -0.5000 -0.0000
s 0
usemtl material_1
f 89//21 90//21 91//21
f 92//22 93//22 94//22
f 95//22 96//22 97//22
f 98//23 99//23 100//23
f 101//21 102//21 103//21
f 104//24 105//24 106//24
f 107//24 108//24 109//24
f 110//23 111//23 112//23
f 113//21 114//21 115//21
f 116//25 117//25 118//25
f 119//25 120//25 121//25
f 122//23 123//23 124//23
f 125//21 126//21 127//21
f 128//26 129//26 130//26
f 131//26 132//26 133//26
f 134//23 135//23 136//23
f 137//21 138//21 139//21
f 140//27 141//27 142//27
f 143//27 144//27 145//27
f 146//23 147//23 148//23
f 149//21 150//21 151//21
f 152//28 153//28 154//28
f 155//28 156//28 157//28
f 158//23 159//23 160//23
o geometry_12
v -0.446000 0.211000 -0.000000
v -0.460000 0.211000 -0.000000
v -0.453000 0.223124 -0.000000
v -0.446000 0.211000 -0.000000
v -0.453000 0.223124 -0.000000
v -0.446000 0.211000 0.450000
v -0.446000 0.211000 0.450000
v -0.453000 0.223124 -0.000000
v -0.453000 0.223124 0.450000
v -0.446000 0.211000 0.450000
v -0.453000 0.223124 0.450000
v -0.460000 0.211000 0.450000
v -0.453000 0.223124 -0.000000
v -0.460000 0.211000 -0.000000
v -0.467000 0.223124 -0.000000
v -0.453000 0.223124 -0.000000
v -0.467000 0.223124 -0.000000
v -0.453000 0.223124 0.450000
v -0.453000 0.223124 0.450000
v -0.467000 0.223124 -0.000000
v -0.467000 0.223124 0.450000
v -0.453000 0.223124 0.450000
v -0.467000 0.223124 0.450000
v -0.460000 0.211000 0.450000
v -0.467000 0.223124 -0.000000
v -0.460000 0.211000 -0.000000
v -0.474000 0.211000 -0.000000
v -0.467000 0.223124 -0.000000
v -0.474000 0.211000 -0.000000
v -0.467000 0.223124 0.450000
v -0.467000 0.223124 0.450000
v -0.474000 0.211000 -0.000000
v -0.474000 0.211000 0.450000
v -0.467000 0.223124 0.450000
v -0.474000 0.211000 0.450000
v -0.460000 0.211000 0.450000
v -0.474000 0.211000 -0.000000
v -0.460000 0.211000 -0.000000
v -0.467000 0.198876 -0.000000
v -0.474000 0.211000 -0.000000
v -0.467000 0.198876 -0.000000
v -0.474000 0.211000 0.450000
v -0.474000 0.211000 0.450000
v -0.467000 0.198876 -0.000000
v -0.467000 0.198876 0.450000
v -0.474000 0.211000 0.450000
v -0.467000 0.198876 0.450000
v -0.460000 0.211000 0.450000
v -0.467000 0.198876 -0.000000
v -0.460000 0.211000 -0.000000
v -0.453000 0.198876 -0.000000
v -0.467000 0.198876 -0.000000
v -0.453000 0.198876 -0.000000
v -0.467000 0.198876 0.450000
v -0.467000 0.198876 0.450000
v -0.453000 0.198876 -0.000000
v -0.453000 0.198876 0.450000
v -0.467000 0.198876 0.450000
v -0.453000 0.198876 0.450000
v -0.460000 0.211000 0.450000
v -0.453000 0.198876 -0.000000
v -0.460000 0.211000 -0.000000
v -0.446000 0.211000 -0.000000
v -0.453000 0.198876 -0.000000
v -0.446000 0.211000 -0.000000
v -0.453000 0.198876 0.450000
v -0.453000 0.198876 0.450000
v -0.446000 0.211000 -0.000000
v -0.446000 0.211000 0.450000
v -0.453000 0.198876 0.450000
v -0.446000 0.211000 0.450000
v -0.460000 0.211000 0.450000
vn -0.0000 -0.0000 -1.0000
vn 0.8660 0.5000 -0.0000
vn -0.0000 -0.0000 1.0000
vn -0.0000 1.0000 -0.0000
vn -0.8660 0.5000 -0.0000
vn -0.8660 -0.5000 -0.0000
vn -0.0000 -1.0000 -0.0000
vn 0.8660 -0.5000 -0.0000
s 0
usemtl material_1
f 161//29 162//29 163//29
f 164//30 165//30 166//30
f 167//30 168//30 169//30
f 170//31 171//31 172//31
f 173//29 174//29 175//29
f 176//32 177//32 178//32
f 179//32 180//32 181//32
f 182//31 183//31 184//31
f 185//29 186//29 187//29
f 188//33 189//33 190//33
f 191//33 192//33 193//33
f 194//31 195//31 196//31
f 197//29 198//29 199//29
f 200//34 201//34 202//34
f 203//34 204//34 205//34
f 206//31 207//31 208//31
f 209//29 210//29 211//29
f 212//35 213//35 214//35
f 215//35 216//35 217//35
f 218//31 219//31 220//31
f 221//29 222//29 223//29
f 224//36 225//36 226//36
f 227//36 228//36 229//36
f 230//31 231//31 232//31
o geometry_13
v -0.446000 0.391600 -0.450000
v -0.460000 0.391600 -0.450000
v -0.453000 0.403724 -0.450000
v -0.446000 0.391600 -0.450000
v -0.453000 0.403724 -0.450000
v -0.446000 0.391600 -0.000000
v -0.446000 0.391600 -0.000000
v -0.453000 0.403724 -0.450000
v -0.453000 0.403724 -0.000000
v -0.446000 0.391600 -0.000000
v -0.453000 0.403724 -0.000000
v -0.460000 0.391600 -0.000000
v -0.453000 0.403724 -0.450000
v -0.460000 0.391600 -0.450000
v -0.467000 0.403724 -0.450000
v -0.453000 0.403724 -0.450000
v -0.467000 0.403724 -0.450000
v -0.453000 0.403724 -0.000000
v -0.453000 0.403724 -0.000000
v -0.467000 0.403724 -0.450000
v -0.467000 0.403724 -0.000000
v -0.453000 0.403724 -0.000000
v -0.467000 0.403724 -0.000000
v -0.460000 0.391600 -0.000000
v -0.467000 0.403724 -0.450000
v -0.460000 0.391600 -0.450000
v -0.474000 0.391600 -0.450000
v -0.467000 0.403724 -0.450000
v -0.474000 0.391600 -0.450000
v -0.467000 0.403724 -0.000000
v -0.467000 0.403724 -0.000000
v -0.474000 0.391600 -0.450000
v -0.474000 0.391600 -0.000000
v -0.467000 0.403724 -0.000000
v -0.474000 0.391600 -0.000000
v -0.460000 0.391600 -0.000000
v -0.474000 0.391600 -0.450000
v -0.460000 0.391600 -0.450000
v -0.467000 0.379476 -0.450000
v -0.474000 0.391600 -0.450000
v -0.467000 0.379476 -0.450000
v -0.474000 0.391600 -0.000000
v -0.474000 0.391600 -0.000000
v -0.467000 0.379476 -0.450000
v -0.467000 0.379476 -0.000000
v -0.474000 0.391600 -0.000000
v -0.467000 0.379476 -0.000000
v -0.460000 0.391600 -0.000000
v -0.467000 0.379476 -0.450000
v -0.460000 0.391600 -0.450000
v -0.453000 0.379476 -0.450000
v -0.467000 0.379476 -0.450000
v -0.453000 0.379476 -0.450000
v -0.467000 0.379476 -0.000000
v -0.467000 0.379476 -0.000000
v -0.453000 0.379476 -0.450000
v -0.453000 0.379476 -0.000000
v -0.467000 0.379476 -0.000000
v -0.453000 0.379476 -0.000000
v -0.460000 0.391600 -0.000000
v -0.453000 0.379476 -0.450000
v -0.460000 0.391600 -0.450000
v -0.446000 0.391600 -0.450000
v -0.453000 0.379476 -0.450000
v -0.446000 0.391600 -0.450000
v -0.453000 0.379476 -0.000000
v -0.453000 0.379476 -0.000000
v -0.446000 0.391600 -0.450000
v -0.446000 0.391600 -0.000000
v -0.453000 0.379476 -0.000000
v -0.446000 0.391600 -0.000000
v -0.460000 0.391600 -0.000000
vn -0.0000 -0.0000 -1.0000
vn 0.8660 0.5000 -0.0000
vn -0.0000 -0.0000 1.0000
vn -0.0000 1.0000 -0.0000
vn -0.8660 0.5000 -0.0000
vn -0.8660 -0.5000 -0.0000
vn -0.0000 -1.0000 -0.0000
vn 0.8660 -0.5000 -0.0000
s 0
usemtl material_1
f 233//37 234//37 235//37
f 236//38 237//38 238//38
f 239//38 240//38 241//38
f 242//39 243//39 244//39
f 245//37 246//37 247//37
f 248//40 249//40 250//40
f 251//40 252//40 253//40
f 254//39 255//39 256//39
f 257//37 258//37 259//37
f 260//41 261//41 262//41
f 263//41 264//41 265//41
f 266//39 267//39 268//39
f 269//37 270//37 271//37
f 272//42 273//42 274//42
f 275//42 276//42 277//42
f 278//39 279//39 280//39
f 281//37 282//37 283//37
f 284//43 285//43 286//43
f 287//43 288//43 289//43
f 290//39 291//39 292//39
f 293//37 294//37 295//37
f 296//44 297//44 298//44
f 299//44 300//44 301//44
f 302//39 303//39 304//39
o geometry_14
v -0.446000 0.391600 -0.000000
v -0.460000 0.391600 -0.000000
v -0.453000 0.403724 -0.000000
v -0.446000 0.391600 -0.000000
v -0.453000 0.403724 -0.000000
v -0.446000 0.391600 0.450000
v -0.446000 0.391600 0.450000
v -0.453000 0.403724 -0.000000
v -0.453000 0.403724 0.450000
v -0.446000 0.391600 0.450000
v -0.453000 0.403724 0.450000
v -0.460000 0.391600 0.450000
v -0.453000 0.403724 -0.000000
v -0.460000 0.391600 -0.000000
v -0.467000 0.403724 -0.000000
v -0.453000 0.403724 -0.000000
v -0.467000 0.403724 -0.000000
v -0.453000 0.403724 0.450000
v -0.453000 0.403724 0.450000
v -0.467000 0.403724 -0.000000
v -0.467000 0.403724 0.450000
v -0.453000 0.403724 0.450000
v -0.467000 0.403724 0.450000
v -0.460000 0.391600 0.450000
v -0.467000 0.403724 -0.000000
v -0.460000 0.391600 -0.000000
v -0.474000 0.391600 -0.000000
v -0.467000 0.403724 -0.000000
v -0.474000 0.391600 -0.000000
v -0.467000 0.403724 0.450000
v -0.467000 0.403724 0.450000
v -0.474000 0.391600 -0.000000
v -0.474000 0.391600 0.450000
v -0.467000 0.403724 0.450000
v -0.474000 0.391600 0.450000
v -0.460000 0.391600 0.450000
v -0.474000 0.391600 -0.000000
v -0.460000 0.391600 -0.000000
v -0.467000 0.379476 -0.000000
v -0.474000 0.391600 -0.000000
v -0.467000 0.379476 -0.000000
v -0.474000 0.391600 0.450000
v -0.474000 0.391600 0.450000
v -0.467000 0.379476 -0.000000
v -0.467000 0.379476 0.450000
v -0.474000 0.391600 0.450000
v -0.467000 0.379476 0.450000
v -0.460000 0.391600 0.450000
v -0.467000 0.379476 -0.000000
v -0.460000 0.391600 -0.000000
v -0.453000 0.379476 -0.000000
v -0.467000 0.379476 -0.000000
v -0.453000 0.379476 -0.000000
v -0.467000 0.379476 0.450000
v -0.467000 0.379476 0.450000
v -0.453000 0.379476 -0.000000
v -0.453000 0.379476 0.450000
v -0.467000 0.379476 0.450000
v -0.453000 0.379476 0.450000
v -0.460000 0.391600 0.450000
v -0.453000 0.379476 -0.000000
v -0.460000 0.391600 -0.000000
v -0.446000 0.391600 -0.000000
v -0.453000 0.379476 -0.000000
v -0.446000 0.391600 -0.000000
v -0.453000 0.379476 0.450000
v -0.453000 0.379476 0.450000
v -0.446000 0.391600 -0.000000
v -0.446000 0.391600 0.450000
v -0.453000 0.379476 0.450000
v -0.446000 0.391600 0.450000
v -0.460000 0.391600 0.450000
vn -0.0000 -0.0000 -1.0000
vn 0.8660 0.5000 -0.0000
vn -0.0000 -0.0000 1.0000
vn -0.0000 1.0000 -0.0000
vn -0.8660 0.5000 -0.0000
vn -0.8660 -0.5000 -0.0000
vn -0.0000 -1.0000 -0.0000
vn 0.8660 -0.5000 -0.0000
s 0
usemtl material_1
f 305//45 306//45 307//45
f 308//46 309//46 310//46
f 311//46 312//46 313//46
f 314//47 315//47 316//47
f 317//45 318//45 319//45
f 320//48 321//48 322//48
f 323//48 324//48 325//48
f 326//47 327//47 328//47
f 329//45 330//45 331//45
f 332//49 333//49 334//49
f 335//49 336//49 337//49
f 338//47 339//47 340//47
f 341//45 342//45 343//45
f 344//50 345//50 346//50
f 347//50 348//50 349//50
f 350//47 351//47 352//47
f 353//45 354//45 355//45
f 356//51 357//51 358//51
f 359//51 360//51 361//51
f 362//47 363//47 364//47
f 365//45 366//45 367//45
f 368//52 369//52 370//52
f 371//52 372//52 373//52
f 374//47 375//47 376//47
o geometry_15
v -0.446000 0.231000 -0.500000
v -0.460000 0.231000 -0.500000
v -0.453000 0.243124 -0.500000
v -0.446000 0.231000 -0.500000
v -0.453000 0.243124 -0.500000
v -0.446000 0.231000 -0.450000
v -0.446000 0.231000 -0.450000
v -0.453000 0.243124 -0.500000
v -0.453000 0.243124 -0.450000
v -0.446000 0.231000 -0.450000
v -0.453000 0.243124 -0.450000
v -0.460000 0.231000 -0.450000
v -0.453000 0.243124 -0.500000
v -0.460000 0.231000 -0.500000
v -0.467000 0.243124 -0.500000
v -0.453000 0.243124 -0.500000
v -0.467000 0.243124 -0.500000
v -0.453000 0.243124 -0.450000
v -0.453000 0.243124 -0.450000
v -0.467000 0.243124 -0.500000
v -0.467000 0.243124 -0.450000
v -0.453000 0.243124 -0.450000
v -0.467000 0.243124 -0.450000
v -0.460000 0.231000 -0.450000
v -0.467000 0.243124 -0.500000
v -0.460000 0.231000 -0.500000
v -0.474000 0.231000 -0.500000
v -0.467000 0.243124 -0.500000
v -0.474000 0.231000 -0.500000
v -0.467000 0.243124 -0.450000
v -0.467000 0.243124 -0.450000
v -0.474000 0.231000 -0.500000
v -0.474000 0.231000 -0.450000
v -0.467000 0.243124 -0.450000
v -0.474000 0.231000 -0.450000
v -0.460000 0.231000 -0.450000
v -0.474000 0.231000 -0.500000
v -0.460000 0.231000 -0.500000
v -0.467000 0.218876 -0.500000
v -0.474000 0.231000 -0.500000
v -0.467000 0.218876 -0.500000
v -0.474000 0.231000 -0.450000
v -0.474000 0.231000 -0.450000
v -0.467000 0.218876 -0.500000
v -0.467000 0.218876 -0.450000
v -0.474000 0.231000 -0.450000
v -0.467000 0.218876 -0.450000
v -0.460000 0.231000 -0.450000
v -0.467000 0.218876 -0.500000
v -0.460000 0.231000 -0.500000
v -0.453000 0.218876 -0.500000
v -0.467000 0.218876 -0.500000
v -0.453000 0.218876 -0.500000
v -0.467000 0.218876 -0.450000
v -0.467000 0.218876 -0.450000
v -0.453000 0.218876 -0.500000
v -0.453000 0.218876 -0.450000
v -0.467000 0.218876 -0.450000
v -0.453000 0.218876 -0.450000
v -0.460000 0.231000 -0.450000
v -0.453000 0.218876 -0.500000
v -0.460000 0.231000 -0.500000
v -0.446000 0.231000 -0.500000
v -0.453000 0.218876 -0.500000
v -0.446000 0.231000 -0.500000
v -0.453000 0.218876 -0.450000
v -0.453000 0.218876 -0.450000
v -0.446000 0.231000 -0.500000
v -0.446000 0.231000 -0.450000
v -0.453000 0.218876 -0.450000
v -0.446000 0.231000 -0.450000
v -0.460000 0.231000 -0.450000
vn -0.0000 -0.0000 -1.0000
vn 0.8660 0.5000 -0.0000
vn -0.0000 -0.0000 1.0000
vn -0.0000 1.0000 -0.0000
vn -0.8660 0.5000 -0.0000
vn -0.8660 -0.5000 -0.0000
vn -0.0000 -1.0000 -0.0000
vn 0.8660 -0.5000 -0.0000
s 0
usemtl material_1
f 377//53 378//53 379//53
f 380//54 381//54 382//54
f 383//54 384//54 385//54
f 386//55 387//55 388//55
f 389//53 390//53 391//53
f 392//56 393//56 394//56
f 395//56 396//56 397//56
f 398//55 399//55 400//55
f 401//53 402//53 403//53
f 404//57 405//57 406//57
f 407//57 408//57 409//57
f 410//55 411//55 412//55
f 413//53 414//53 415//53
f 416//58 417//58 418//58
f 419//58 420//58 421//58
f 422//55 423//55 424//55
f 425//53 426//53 427//53
f 428//59 429//59 430//59
f 431//59 432//59 433//59
f 434//55 435//55 436//55
f 437//53 438//53 439//53
f 440//60 441//60 442//60
f 443//60 444//60 445//60
f 446//55 447//55 448//55
o geometry_16
v -0.446000 0.231000 0.450000
v -0.460000 0.231000 0.450000
v -0.453000 0.243124 0.450000
v -0.446000 0.231000 0.450000
v -0.453000 0.243124 0.450000
v -0.446000 0.231000 0.500000
v -0.446000 0.231000 0.500000
v -0.453000 0.243124 0.450000
v -0.453000 0.243124 0.500000
v -0.446000 0.231000 0.500000
v -0.453000 0.243124 0.500000
v -0.460000 0.231000 0.500000
v -0.453000 0.243124 0.450000
v -0.460000 0.231000 0.450000
v -0.467000 0.243124 0.450000
v -0.453000 0.243124 0.450000
v -0.467000 0.243124 0.450000
v -0.453000 0.243124 0.500000
v -0.453000 0.243124 0.500000
v -0.467000 0.243124 0.450000
v -0.467000 0.243124 0.500000
v -0.453000 0.243124 0.500000
v -0.467000 0.243124 0.500000
v -0.460000 0.231000 0.500000
v -0.467000 0.243124 0.450000
v -0.460000 0.231000 0.450000
v -0.474000 0.231000 0.450000
v -0.467000 0.243124 0.450000
v -0.474000 0.231000 0.450000
v -0.467000 0.243124 0.500000
v -0.467000 0.243124 0.500000
v -0.474000 0.231000 0.450000
v -0.474000 0.231000 0.500000
v -0.467000 0.243124 0.500000
v -0.474000 0.231000 0.500000
v -0.460000 0.231000 0.500000
v -0.474000 0.231000 0.450000
v -0.460000 0.231000 0.450000
v -0.467000 0.218876 0.450000
v -0.474000 0.231000 0.450000
v -0.467000 0.218876 0.450000
v -0.474000 0.231000 0.500000
v -0.474000 0.231000 0.500000
v -0.467000 0.218876 0.450000
v -0.467000 0.218876 0.500000
v -0.474000 0.231000 0.500000
v -0.467000 0.218876 0.500000
v -0.460000 0.231000 0.500000
v -0.467000 0.218876 0.450000
v -0.460000 0.231000 0.450000
v -0.453000 0.218876 0.450000
v -0.467000 0.218876 0.450000
v -0.453000 0.218876 0.450000
v -0.467000 0.218876 0.500000
v -0.467000 0.218876 0.500000
v -0.453000 0.218876 0.450000
v -0.453000 0.218876 0.500000
v -0.467000 0.218876 0.500000
v -0.453000 0.218876 0.500000
v -0.460000 0.231000 0.500000
v -0.453000 0.218876 0.450000
v -0.460000 0.231000 0.450000
v -0.446000 0.231000 0.450000
v -0.453000 0.218876 0.450000
v -0.446000 0.231000 0.450000
v -0.453000 0.218876 0.500000
v -0.453000 0.218876 0.500000
v -0.446000 0.231000 0.450000
v -0.446000 0.231000 0.500000
v -0.453000 0.218876 0.500000
v -0.446000 0.231000 0.500000
v -0.460000 0.231000 0.500000
vn -0.0000 -0.0000 -1.0000
vn 0.8660 0.5000 -0.0000
vn -0.0000 -0.0000 1.0000
vn -0.0000 1.0000 -0.0000
vn -0.8660 0.5000 -0.0000
vn -0.8660 -0.5000 -0.0000
vn -0.0000 -1.0000 -0.0000
vn 0.8660 -0.5000 -0.0000
s 0
usemtl material_1
f 449//61 450//61 451//61
f 452//62 453//62 454//62
f 455//62 456//62 457//62
f 458//63 459//63 460//63
f 461//61 462//61 463//61
f 464//64 465//64 466//64
f 467//64 468//64 469//64
f 470//63 471//63 472//63
f 473//61 474//61 475//61
f 476//65 477//65 478//65
f 479//65 480//65 481//65
f 482//63 483//63 484//63
f 485//61 486//61 487//61
f 488//66 489//66 490//66
f 491//66 492//66 493//66
f 494//63 495//63 496//63
f 497//61 498//61 499//61
f 500//67 501//67 502//67
f 503//67 504//67 505//67
f 506//63 507//63 508//63
f 509//61 510//61 511//61
f 512//68 513//68 514//68
f 515//68 516//68 517//68
f 518//63 519//63 520//63
o geometry_17
v -0.446000 0.411600 -0.500000
v -0.460000 0.411600 -0.500000
v -0.453000 0.423724 -0.500000
v -0.446000 0.411600 -0.500000
v -0.453000 0.423724 -0.500000
v -0.446000 0.411600 -0.450000
v -0.446000 0.411600 -0.450000
v -0.453000 0.423724 -0.500000
v -0.453000 0.423724 -0.450000
v -0.446000 0.411600 -0.450000
v -0.453000 0.423724 -0.450000
v -0.460000 0.411600 -0.450000
v -0.453000 0.423724 -0.500000
v -0.460000 0.411600 -0.500000
v -0.467000 0.423724 -0.500000
v -0.453000 0.423724 -0.500000
v -0.467000 0.423724 -0.500000
v -0.453000 0.423724 -0.450000
v -0.453000 0.423724 -0.450000
v -0.467000 0.423724 -0.500000
v -0.467000 0.423724 -0.450000
v -0.453000 0.423724 -0.450000
v -0.467000 0.423724 -0.450000
v -0.460000 0.411600 -0.450000
v -0.467000 0.423724 -0.500000
v -0.460000 0.411600 -0.500000
v -0.474000 0.411600 -0.500000
v -0.467000 0.423724 -0.500000
v -0.474000 0.411600 -0.500000
v -0.467000 0.423724 -0.450000
v -0.467000 0.423724 -0.450000
v -0.474000 0.411600 -0.500000
v -0.474000 0.411600 -0.450000
v -0.467000 0.423724 -0.450000
v -0.474000 0.411600 -0.450000
v -0.460000 0.411600 -0.450000
v -0.474000 0.411600 -0.500000
v -0.460000 0.411600 -0.500000
v -0.467000 0.399476 -0.500000
v -0.474000 0.411600 -0.500000
v -0.467000 0.399476 -0.500000
v -0.474000 0.411600 -0.450000
v -0.474000 0.411600 -0.450000
v -0.467000 0.399476 -0.500000
v -0.467000 0.399476 -0.450000
v -0.474000 0.411600 -0.450000
v -0.467000 0.399476 -0.450000
v -0.460000 0.411600 -0.450000
v -0.467000 0.399476 -0.500000
v -0.460000 0.411600 -0.500000
v -0.453000 0.399476 -0.500000
v -0.467000 0.399476 -0.500000
v -0.453000 0.399476 -0.500000
v -0.467000 0.399476 -0.450000
v -0.467000 0.399476 -0.450000
v -0.453000 0.399476 -0.500000
v -0.453000 0.399476 -0.450000
v -0.467000 0.399476 -0.450000
v -0.453000 0.399476 -0.450000
v -0.460000 0.411600 -0.450000
v -0.453000 0.399476 -0.500000
v -0.460000 0.411600 -0.500000
v -0.446000 0.411600 -0.500000
v -0.453000 0.399476 -0.500000
v -0.446000 0.411600 -0.500000
v -0.453000 0.399476 -0.450000
v -0.453000 0.399476 -0.450000
v -0.446000 0.411600 -0.500000
v -0.446000 0.411600 -0.450000
v -0.453000 0.399476 -0.450000
v -0.446000 0.411600 -0.450000
v -0.460000 0.411600 -0.450000
vn -0.0000 -0.0000 -1.0000
vn 0.8660 0.5000 -0.0000
vn -0.0000 -0.0000 1.0000
vn -0.0000 1.0000 -0.0000
vn -0.8660 0.5000 -0.0000
vn -0.8660 -0.5000 -0.0000
vn -0.0000 -1.0000 -0.0000
vn 0.8660 -0.5000 -0.0000
s 0
usemtl material_1
f 521//69 522//69 523//69
f 524//70 525//70 526//70
f 527//70 528//70 529//70
f 530//71 531//71 532//71
f 533//69 534//69 535//69
f 536//72 537//72 538//72
f 539//72 540//72 541//72
f 542//71 543//71 544//71
f 545//69 546//69 547//69
f 548//73 549//73 550//73
f 551//73 552//73 553//73
f 554//71 555//71 556//71
f 557//69 558//69 559//69
f 560//74 561//74 562//74
f 563//74 564//74 565//74
f 566//71 567//71 568//71
f 569//69 570//69 571//69
f 572//75 573//75 574//75
f 575//75 576//75 577//75
f 578//71 579//71 580//71
f 581//69 582//69 583//69
f 584//76 585//76 586//76
f 587//76 588//76 589//76
f 590//71 591//71 592//71
o geometry_18
v -0.446000 0.411600 0.450000
v -0.460000 0.411600 0.450000
v -0.453000 0.423724 0.450000
v -0.446000 0.411600 0.450000
v -0.453000 0.423724 0.450000
v -0.446000 0.411600 0.500000
v -0.446000 0.411600 0.500000
v -0.453000 0.423724 0.450000
v -0.453000 0.423724 0.500000
v -0.446000 0.411600 0.500000
v -0.453000 0.423724 0.500000
v -0.460000 0.411600 0.500000
v -0.453000 0.423724 0.450000
v -0.460000 0.411600 0.450000
v -0.467000 0.423724 0.450000
v -0.453000 0.423724 0.450000
v -0.467000 0.423724 0.450000
v -0.453000 0.423724 0.500000
v -0.453000 0.423724 0.500000
v -0.467000 0.423724 0.450000
v -0.467000 0.423724 0.500000
v -0.453000 0.423724 0.500000
v -0.467000 0.423724 0.500000
v -0.460000 0.411600 0.500000
v -0.467000 0.423724 0.450000
v -0.460000 0.411600 0.450000
v -0.474000 0.411600 0.450000
v -0.467000 0.423724 0.450000
v -0.474000 0.411600 0.450000
v -0.467000 0.423724 0.500000
v -0.467000 0.423724 0.500000
v -0.474000 0.411600 0.450000
v -0.474000 0.411600 0.500000
v -0.467000 0.423724 0.500000
v -0.474000 0.411600 0.500000
v -0.460000 0.411600 0.500000
v -0.474000 0.411600 0.450000
v -0.460000 0.411600 0.450000
v -0.467000 0.399476 0.450000
v -0.474000 0.411600 0.450000
v -0.467000 0.399476 0.450000
v -0.474000 0.411600 0.500000
v -0.474000 0.411600 0.500000
v -0.467000 0.399476 0.450000
v -0.467000 0.399476 0.500000
v -0.474000 0.411600 0.500000
v -0.467000 0.399476 0.500000
v -0.460000 0.411600 0.500000
v -0.467000 0.399476 0.450000
v -0.460000 0.411600 0.450000
v -0.453000 0.399476 0.450000
v -0.467000 0.399476 0.450000
v -0.453000 0.399476 0.450000
v -0.467000 0.399476 0.500000
v -0.467000 0.399476 0.500000
v -0.453000 0.399476 0.450000
v -0.453000 0.399476 0.500000
v -0.467000 0.399476 0.500000
v -0.453000 0.399476 0.500000
v -0.460000 0.411600 0.500000
v -0.453000 0.399476 0.450000
v -0.460000 0.411600 0.450000
v -0.446000 0.411600 0.450000
v -0.453000 0.399476 0.450000
v -0.446000 0.411600 0.450000
v -0.453000 0.399476 0.500000
v -0.453000 0.399476 0.500000
v -0.446000 0.411600 0.450000
v -0.446000 0.411600 0.500000
v -0.453000 0.399476 0.500000
v -0.446000 0.411600 0.500000
v -0.460000 0.411600 0.500000
vn -0.0000 -0.0000 -1.0000
vn 0.8660 0.5000 -0.0000
vn -0.0000 -0.0000 1.0000
vn -0.0000 1.0000 -0.0000
vn -0.8660 0.5000 -0.0000
vn -0.8660 -0.5000 -0.0000
vn -0.0000 -1.0000 -0.0000
vn 0.8660 -0.5000 -0.0000
s 0
usemtl material_1
f 593//77 594//77 595//77
f 596//78 597//78 598//78
f 599//78 600//78 601//78
f 602//79 603//79 604//79
f 605//77 606//77 607//77
f 608//80 609//80 610//80
f 611//80 612//80 613//80
f 614//79 615//79 616//79
f 617//77 618//77 619//77
f 620//81 621//81 622//81
f 623//81 624//81 625//81
f 626//79 627//79 628//79
f 629//77 630//77 631//77
f 632//82 633//82 634//82
f 635//82 636//82 637//82
f 638//79 639//79 640//79
f 641//77 642//77 643//77
f 644//83 645//83 646//83
f 647//83 648//83 649//83
f 650//79 651//79 652//79
f 653//77 654//77 655//77
f 656//84 657//84 658//84
f 659//84 660//84 661//84
f 662//79 663//79 664//79
o geometry_19
v 0.477172 -0.000000 -0.450000
v 0.447172 -0.000000 -0.450000
v 0.462172 -0.000000 -0.475981
v 0.477172 -0.000000 -0.450000
v 0.462172 -0.000000 -0.475981
v 0.477172 0.420000 -0.450000
v 0.477172 0.420000 -0.450000
v 0.462172 -0.000000 -0.475981
v 0.462172 0.420000 -0.475981
v 0.477172 0.420000 -0.450000
v 0.462172 0.420000 -0.475981
v 0.447172 0.420000 -0.450000
v 0.462172 -0.000000 -0.475981
v 0.447172 -0.000000 -0.450000
v 0.432172 -0.000000 -0.475981
v 0.462172 -0.000000 -0.475981
v 0.432172 -0.000000 -0.475981
v 0.462172 0.420000 -0.475981
v 0.462172 0.420000 -0.475981
v 0.432172 -0.000000 -0.475981
v 0.432172 0.420000 -0.475981
v 0.462172 0.420000 -0.475981
v 0.432172 0.420000 -0.475981
v 0.447172 0.420000 -0.450000
v 0.432172 -0.000000 -0.475981
v 0.447172 -0.000000 -0.450000
v 0.417172 -0.000000 -0.450000
v 0.432172 -0.000000 -0.475981
v 0.417172 -0.000000 -0.450000
v 0.432172 0.420000 -0.475981
v 0.432172 0.420000 -0.475981
v 0.417172 -0.000000 -0.450000
v 0.417172 0.420000 -0.450000
v 0.432172 0.420000 -0.475981
v 0.417172 0.420000 -0.450000
v 0.447172 0.420000 -0.450000
v 0.417172 -0.000000 -0.450000
v 0.447172 -0.000000 -0.450000
v 0.432172 -0.000000 -0.424019
v 0.417172 -0.000000 -0.450000
v 0.432172 -0.000000 -0.424019
v 0.417172 0.420000 -0.450000
v 0.417172 0.420000 -0.450000
v 0.432172 -0.000000 -0.424019
v 0.432172 0.420000 -0.424019
v 0.417172 0.420000 -0.450000
v 0.432172 0.420000 -0.424019
v 0.447172 0.420000 -0.450000
v 0.432172 -0.000000 -0.424019
v 0.447172 -0.000000 -0.450000
v 0.462172 -0.000000 -0.424019
v 0.432172 -0.000000 -0.424019
v 0.462172 -0.000000 -0.424019
v 0.432172 0.420000 -0.424019
v 0.432172 0.420000 -0.424019
v 0.462172 -0.000000 -0.424019
v 0.462172 0.420000 -0.424019
v 0.432172 0.420000 -0.424019
v 0.462172 0.420000 -0.424019
v 0.447172 0.420000 -0.450000
v 0.462172 -0.000000 -0.424019
v 0.447172 -0.000000 -0.450000
v 0.477172 -0.000000 -0.450000
v 0.462172 -0.000000 -0.424019
v 0.477172 -0.000000 -0.450000
v 0.462172 0.420000 -0.424019
v 0.462172 0.420000 -0.424019
v 0.477172 -0.000000 -0.450000
v 0.477172 0.420000 -0.450000
v 0.462172 0.420000 -0.424019
v 0.477172 0.420000 -0.450000
v 0.447172 0.420000 -0.450000
vn -0.0000 -1.0000 -0.0000
vn 0.8660 -0.0000 -0.5000
vn -0.0000 1.0000 -0.0000
vn -0.0000 -0.0000 -1.0000
vn -0.8660 -0.0000 -0.5000
vn -0.8660 -0.0000 0.5000
vn -0.0000 -0.0000 1.0000
vn 0.8660 -0.0000 0.5000
s 0
usemtl material_0
f 665//85 666//85 667//85
f 668//86 669//86 670//86
f 671//86 672//86 673//86
f 674//87 675//87 676//87
f 677//85 678//85 679//85
f 680//88 681//88 682//88
f 683//88 684//88 685//88
f 686//87 687//87 688//87
f 689//85 690//85 691//85
f 692//89 693//89 694//89
f 695//89 696//89 697//89
f 698//87 699//87 700//87
f 701//85 702//85 703//85
f 704//90 705//90 706//90
f 707//90 708//90 709//90
f 710//87 711//87 712//87
f 713//85 714//85 715//85
f 716//91 717//91 718//91
f 719//91 720//91 721//91
f 722//87 723//87 724//87
f 725//85 726//85 727//85
f 728//92 729//92 730//92
f 731//92 732//92 733//92
f 734//87 735//87 736//87
o geometry_2
v -0.485000 -0.054225 -0.163882
v -0.485000 -0.054225 -0.002785
v -0.485000 -0.004225 -0.163882
v -0.485000 -0.004225 -0.002785
v 0.485000 -0.054225 -0.163882
v 0.485000 -0.054225 -0.002785
v 0.485000 -0.004225 -0.163882
v 0.485000 -0.004225 -0.002785
vn -1.0000 -0.0000 -0.0000
vn -0.0000 -1.0000 -0.0000
vn -0.0000 -0.0000 -1.0000
vn -0.0000 -0.0000 1.0000
vn -0.0000 1.0000 -0.0000
vn 1.0000 -0.0000 -0.0000
s 0
usemtl material_3
f 738//93 740//93 737//93
f 741//94 738//94 737//94
f 737//93 740//93 739//93
f 739//95 741//95 737//95
f 738//96 744//96 740//96
f 742//94 738//94 741//94
f 742//96 744//96 738//96
f 740//97 744//97 739//97
f 743//95 741//95 739//95
f 739//97 744//97 743//97
f 743//98 742//98 741//98
f 744//98 742//98 743//98
o geometry_20
v 0.483996 0.000000 0.000000
v 0.453996 0.000000 0.000000
v 0.468996 -0.000000 -0.025981
v 0.483996 0.000000 0.000000
v 0.468996 -0.000000 -0.025981
v 0.483996 0.420000 -0.000000
v 0.483996 0.420000 -0.000000
v 0.468996 -0.000000 -0.025981
v 0.468996 0.420000 -0.025981
v 0.483996 0.420000 -0.000000
v 0.468996 0.420000 -0.025981
v 0.453996 0.420000 -0.000000
v 0.468996 -0.000000 -0.025981
v 0.453996 0.000000 0.000000
v 0.438996 -0.000000 -0.025981
v 0.468996 -0.000000 -0.025981
v 0.438996 -0.000000 -0.025981
v 0.468996 0.420000 -0.025981
v 0.468996 0.420000 -0.025981
v 0.438996 -0.000000 -0.025981
v 0.438996 0.420000 -0.025981
v 0.468996 0.420000 -0.025981
v 0.438996 0.420000 -0.025981
v 0.453996 0.420000 -0.000000
v 0.438996 -0.000000 -0.025981
v 0.453996 0.000000 0.000000
v 0.423996 0.000000 0.000000
v 0.438996 -0.000000 -0.025981
v 0.423996 0.000000 0.000000
v 0.438996 0.420000 -0.025981
v 0.438996 0.420000 -0.025981
v 0.423996 0.000000 0.000000
v 0.423996 0.420000 -0.000000
v 0.438996 0.420000 -0.025981
v 0.423996 0.420000 -0.000000
v 0.453996 0.420000 -0.000000
v 0.423996 0.000000 0.000000
v 0.453996 0.000000 0.000000
v 0.438996 0.000000 0.025981
v 0.423996 0.000000 0.000000
v 0.438996 0.000000 0.025981
v 0.423996 0.420000 -0.000000
v 0.423996 0.420000 -0.000000
v 0.438996 0.000000 0.025981
v 0.438996 0.420000 0.025981
v 0.423996 0.420000 -0.000000
v 0.438996 0.420000 0.025981
v 0.453996 0.420000 -0.000000
v 0.438996 0.000000 0.025981
v 0.453996 0.000000 0.000000
v 0.468996 0.000000 0.025981
v 0.438996 0.000000 0.025981
v 0.468996 0.000000 0.025981
v 0.438996 0.420000 0.025981
v 0.438996 0.420000 0.025981
v 0.468996 0.000000 0.025981
v 0.468996 0.420000 0.025981
v 0.438996 0.420000 0.025981
v 0.468996 0.420000 0.025981
v 0.453996 0.420000 -0.000000
v 0.468996 0.000000 0.025981
v 0.453996 0.000000 0.000000
v 0.483996 0.000000 0.000000
v 0.468996 0.000000 0.025981
v 0.483996 0.000000 0.000000
v 0.468996 0.420000 0.025981
v 0.468996 0.420000 0.025981
v 0.483996 0.000000 0.000000
v 0.483996 0.420000 -0.000000
v 0.468996 0.420000 0.025981
v 0.483996 0.420000 -0.000000
v 0.453996 0.420000 -0.000000
vn -0.0000 -1.0000 -0.0000
vn 0.8660 -0.0000 -0.5000
vn -0.0000 1.0000 -0.0000
vn -0.0000 -0.0000 -1.0000
vn -0.8660 -0.0000 -0.5000
vn -0.8660 -0.0000 0.5000
vn -0.0000 -0.0000 1.0000
vn 0.8660 -0.0000 0.5000
s 0
usemtl material_0
f 745//99 746//99 747//99
f 748//100 749//100 750//100
f 751//100 752//100 753//100
f 754//101 755//101 756//101
f 757//99 758//99 759//99
f 760//102 761//102 762//102
f 763//102 764//102 765//102
f 766//101 767//101 768//101
f 769//99 770//99 771//99
f 772//103 773//103 774//103
f 775//103 776//103 777//103
f 778//101 779//101 780//101
f 781//99 782//99 783//99
f 784//104 785//104 786//104
f 787//104 788//104 789//104
f 790//101 791//101 792//101
f 793//99 794//99 795//99
f 796//105 797//105 798//105
f 799//105 800//105 801//105
f 802//101 803//101 804//101
f 805//99 806//99 807//99
f 808//106 809//106 810//106
f 811//106 812//106 813//106
f 814//101 815//101 816//101
o geometry_21
v 0.479222 0.000000 0.450000
v 0.449222 0.000000 0.450000
v 0.464222 0.000000 0.424019
v 0.479222 0.000000 0.450000
v 0.464222 0.000000 0.424019
v 0.479222 0.420000 0.450000
v 0.479222 0.420000 0.450000
v 0.464222 0.000000 0.424019
v 0.464222 0.420000 0.424019
v 0.479222 0.420000 0.450000
v 0.464222 0.420000 0.424019
v 0.449222 0.420000 0.450000
v 0.464222 0.000000 0.424019
v 0.449222 0.000000 0.450000
v 0.434222 0.000000 0.424019
v 0.464222 0.000000 0.424019
v 0.434222 0.000000 0.424019
v 0.464222 0.420000 0.424019
v 0.464222 0.420000 0.424019
v 0.434222 0.000000 0.424019
v 0.434222 0.420000 0.424019
v 0.464222 0.420000 0.424019
v 0.434222 0.420000 0.424019
v 0.449222 0.420000 0.450000
v 0.434222 0.000000 0.424019
v 0.449222 0.000000 0.450000
v 0.419222 0.000000 0.450000
v 0.434222 0.000000 0.424019
v 0.419222 0.000000 0.450000
v 0.434222 0.420000 0.424019
v 0.434222 0.420000 0.424019
v 0.419222 0.000000 0.450000
v 0.419222 0.420000 0.450000
v 0.434222 0.420000 0.424019
v 0.419222 0.420000 0.450000
v 0.449222 0.420000 0.450000
v 0.419222 0.000000 0.450000
v 0.449222 0.000000 0.450000
v 0.434222 0.000000 0.475981
v 0.419222 0.000000 0.450000
v 0.434222 0.000000 0.475981
v 0.419222 0.420000 0.450000
v 0.419222 0.420000 0.450000
v 0.434222 0.000000 0.475981
v 0.434222 0.420000 0.475981
v 0.419222 0.420000 0.450000
v 0.434222 0.420000 0.475981
v 0.449222 0.420000 0.450000
v 0.434222 0.000000 0.475981
v 0.449222 0.000000 0.450000
v 0.464222 0.000000 0.475981
v 0.434222 0.000000 0.475981
v 0.464222 0.000000 0.475981
v 0.434222 0.420000 0.475981
v 0.434222 0.420000 0.475981
v 0.464222 0.000000 0.475981
v 0.464222 0.420000 0.475981
v 0.434222 0.420000 0.475981
v 0.464222 0.420000 0.475981
v 0.449222 0.420000 0.450000
v 0.464222 0.000000 0.475981
v 0.449222 0.000000 0.450000
v 0.479222 0.000000 0.450000
v 0.464222 0.000000 0.475981
v 0.479222 0.000000 0.450000
v 0.464222 0.420000 0.475981
v 0.464222 0.420000 0.475981
v 0.479222 0.000000 0.450000
v 0.479222 0.420000 0.450000
v 0.464222 0.420000 0.475981
v 0.479222 0.420000 0.450000
v 0.449222 0.420000 0.450000
vn -0.0000 -1.0000 -0.0000
vn 0.8660 -0.0000 -0.5000
vn -0.0000 1.0000 -0.0000
vn -0.0000 -0.0000 -1.0000
vn -0.8660 -0.0000 -0.5000
vn -0.8660 -0.0000 0.5000
vn -0.0000 -0.0000 1.0000
vn 0.8660 -0.0000 0.5000
s 0
usemtl material_0
f 817//107 818//107 819//107
f 820//108 821//108 822//108
f 823//108 824//108 825//108
f 826//109 827//109 828//109
f 829//107 830//107 831//107
f 832//110 833//110 834//110
f 835//110 836//110 837//110
f 838//109 839//109 840//109
f 841//107 842//107 843//107
f 844//111 845//111 846//111
f 847//111 848//111 849//111
f 850//109 851//109 852//109
f 853//107 854//107 855//107
f 856//112 857//112 858//112
f 859//112 860//112 861//112
f 862//109 863//109 864//109
f 865//107 866//107 867//107
f 868//113 869//113 870//113
f 871//113 872//113 873//113
f 874//109 875//109 876//109
f 877//107 878//107 879//107
f 880//114 881//114 882//114
f 883//114 884//114 885//114
f 886//109 887//109 888//109
o geometry_22
v 0.474000 0.211000 -0.450000
v 0.460000 0.211000 -0.450000
v 0.467000 0.223124 -0.450000
v 0.474000 0.211000 -0.450000
v 0.467000 0.223124 -0.450000
v 0.474000 0.211000 -0.000000
v 0.474000 0.211000 -0.000000
v 0.467000 0.223124 -0.450000
v 0.467000 0.223124 -0.000000
v 0.474000 0.211000 -0.000000
v 0.467000 0.223124 -0.000000
v 0.460000 0.211000 -0.000000
v 0.467000 0.223124 -0.450000
v 0.460000 0.211000 -0.450000
v 0.453000 0.223124 -0.450000
v 0.467000 0.223124 -0.450000
v 0.453000 0.223124 -0.450000
v 0.467000 0.223124 -0.000000
v 0.467000 0.223124 -0.000000
v 0.453000 0.223124 -0.450000
v 0.453000 0.223124 -0.000000
v 0.467000 0.223124 -0.000000
v 0.453000 0.223124 -0.000000
v 0.460000 0.211000 -0.000000
v 0.453000 0.223124 -0.450000
v 0.460000 0.211000 -0.450000
v 0.446000 0.211000 -0.450000
v 0.453000 0.223124 -0.450000
v 0.446000 0.211000 -0.450000
v 0.453000 0.223124 -0.000000
v 0.453000 0.223124 -0.000000
v 0.446000 0.211000 -0.450000
v 0.446000 0.211000 -0.000000
v 0.453000 0.223124 -0.000000
v 0.446000 0.211000 -0.000000
v 0.460000 0.211000 -0.000000
v 0.446000 0.211000 -0.450000
v 0.460000 0.211000 -0.450000
v 0.453000 0.198876 -0.450000
v 0.446000 0.211000 -0.450000
v 0.453000 0.198876 -0.450000
v 0.446000 0.211000 -0.000000
v 0.446000 0.211000 -0.000000
v 0.453000 0.198876 -0.450000
v 0.453000 0.198876 -0.000000
v 0.446000 0.211000 -0.000000
v 0.453000 0.198876 -0.000000
v 0.460000 0.211000 -0.000000
v 0.453000 0.198876 -0.450000
v 0.460000 0.211000 -0.450000
v 0.467000 0.198876 -0.450000
v 0.453000 0.198876 -0.450000
v 0.467000 0.198876 -0.450000
v 0.453000 0.198876 -0.000000
v 0.453000 0.198876 -0.000000
v 0.467000 0.198876 -0.450000
v 0.467000 0.198876 -0.000000
v 0.453000 0.198876 -0.000000
v 0.467000 0.198876 -0.000000
v 0.460000 0.211000 -0.000000
v 0.467000 0.198876 -0.450000
v 0.460000 0.211000 -0.450000
v 0.474000 0.211000 -0.450000
v 0.467000 0.198876 -0.450000
v 0.474000 0.211000 -0.450000
v 0.467000 0.198876 -0.000000
v 0.467000 0.198876 -0.000000
v 0.474000 0.211000 -0.450000
v 0.474000 0.211000 -0.000000
v 0.467000 0.198876 -0.000000
v 0.474000 0.211000 -0.000000
v 0.460000 0.211000 -0.000000
vn -0.0000 -0.0000 -1.0000
vn 0.8660 0.5000 -0.0000
vn -0.0000 -0.0000 1.0000
vn -0.0000 1.0000 -0.0000
vn -0.8660 0.5000 -0.0000
vn -0.8660 -0.5000 -0.0000
vn -0.0000 -1.0000 -0.0000
vn 0.8660 -0.5000 -0.0000
s 0
usemtl material_1
f 889//115 890//115 891//115
f 892//116 893//116 894//116
f 895//116 896//116 897//116
f 898//117 899//117 900//117
f 901//115 902//115 903//115
f 904//118 905//118 906//118
f 907//118 908//118 909//118
f 910//117 911//117 912//117
f 913//115 914//115 915//115
f 916//119 917//119 918//119
f 919//119 920//119 921//119
f 922//117 923//117 924//117
f 925//115 926//115 927//115
f 928//120 929//120 930//120
f 931//120 932//120 933//120
f 934//117 935//117 936//117
f 937//115 938//115 939//115
f 940//121 941//121 942//121
f 943//121 944//121 945//121
f 946//117 947//117 948//117
f 949//115 950//115 951//115
f 952//122 953//122 954//122
f 955//122 956//122 957//122
f 958//117 959//117 960//117
o geometry_23
v 0.474000 0.211000 -0.000000
v 0.460000 0.211000 -0.000000
v 0.467000 0.223124 -0.000000
v 0.474000 0.211000 -0.000000
v 0.467000 0.223124 -0.000000
v 0.474000 0.211000 0.450000
v 0.474000 0.211000 0.450000
v 0.467000 0.223124 -0.000000
v 0.467000 0.223124 0.450000
v 0.474000 0.211000 0.450000
v 0.467000 0.223124 0.450000
v 0.460000 0.211000 0.450000
v 0.467000 0.223124 -0.000000
v 0.460000 0.211000 -0.000000
v 0.453000 0.223124 -0.000000
v 0.467000 0.223124 -0.000000
v 0.453000 0.223124 -0.000000
v 0.467000 0.223124 0.450000
v 0.467000 0.223124 0.450000
v 0.453000 0.223124 -0.000000
v 0.453000 0.223124 0.450000
v 0.467000 0.223124 0.450000
v 0.453000 0.223124 0.450000
v 0.460000 0.211000 0.450000
v 0.453000 0.223124 -0.000000
v 0.460000 0.211000 -0.000000
v 0.446000 0.211000 -0.000000
v 0.453000 0.223124 -0.000000
v 0.446000 0.211000 -0.000000
v 0.453000 0.223124 0.450000
v 0.453000 0.223124 0.450000
v 0.446000 0.211000 -0.000000
v 0.446000 0.211000 0.450000
v 0.453000 0.223124 0.450000
v 0.446000 0.211000 0.450000
v 0.460000 0.211000 0.450000
v 0.446000 0.211000 -0.000000
v 0.460000 0.211000 -0.000000
v 0.453000 0.198876 -0.000000
v 0.446000 0.211000 -0.000000
v 0.453000 0.198876 -0.000000
v 0.446000 0.211000 0.450000
v 0.446000 0.211000 0.450000
v 0.453000 0.198876 -0.000000
v 0.453000 0.198876 0.450000
v 0.446000 0.211000 0.450000
v 0.453000 0.198876 0.450000
v 0.460000 0.211000 0.450000
v 0.453000 0.198876 -0.000000
v 0.460000 0.211000 -0.000000
v 0.467000 0.198876 -0.000000
v 0.453000 0.198876 -0.000000
v 0.467000 0.198876 -0.000000
v 0.453000 0.198876 0.450000
v 0.453000 0.198876 0.450000
v 0.467000 0.198876 -0.000000
v 0.467000 0.198876 0.450000
v 0.453000 0.198876 0.450000
v 0.467000 0.198876 0.450000
v 0.460000 0.211000 0.450000
v 0.467000 0.198876 -0.000000
v 0.460000 0.211000 -0.000000
v 0.474000 0.211000 -0.000000
v 0.467000 0.198876 -0.000000
v 0.474000 0.211000 -0.000000
v 0.467000 0.198876 0.450000
v 0.467000 0.198876 0.450000
v 0.474000 0.211000 -0.000000
v 0.474000 0.211000 0.450000
v 0.467000 0.198876 0.450000
v 0.474000 0.211000 0.450000
v 0.460000 0.211000 0.450000
vn -0.0000 -0.0000 -1.0000
vn 0.8660 0.5000 -0.0000
vn -0.0000 -0.0000 1.0000
vn -0.0000 1.0000 -0.0000
vn -0.8660 0.5000 -0.0000
vn -0.8660 -0.5000 -0.0000
vn -0.0000 -1.0000 -0.0000
vn 0.8660 -0.5000 -0.0000
s 0
usemtl material_1
f 961//123 962//123 963//123
f 964//124 965//124 966//124
f 967//124 968//124 969//124
f 970//125 971//125 972//125
f 973//123 974//123 975//123
f 976//126 977//126 978//126
f 979//126 980//126 981//126
f 982//125 983//125 984//125
f 985//123 986//123 987//123
f 988//127 989//127 990//127
f 991//127 992//127 993//127
f 994//125 995//125 996//125
f 997//123 998//123 999//123
f 1000//128 1001//128 1002//128
f 1003//128 1004//128 1005//128
f 1006//125 1007//125 1008//125
f 1009//123 1010//123 1011//123
f 1012//129 1013//129 1014//129
f 1015//129 1016//129 1017//129
f 1018//125 1019//125 1020//125
f 1021//123 1022//123 1023//123
f 1024//130 1025//130 1026//130
f 1027//130 1028//130 1029//130
f 1030//125 1031//125 1032//125
o geometry_24
v 0.474000 0.391600 -0.450000
v 0.460000 0.391600 -0.450000
v 0.467000 0.403724 -0.450000
v 0.474000 0.391600 -0.450000
v 0.467000 0.403724 -0.450000
v 0.474000 0.391600 -0.000000
v 0.474000 0.391600 -0.000000
v 0.467000 0.403724 -0.450000
v 0.467000 0.403724 -0.000000
v 0.474000 0.391600 -0.000000
v 0.467000 0.403724 -0.000000
v 0.460000 0.391600 -0.000000
v 0.467000 0.403724 -0.450000
v 0.460000 0.391600 -0.450000
v 0.453000 0.403724 -0.450000
v 0.467000 0.403724 -0.450000
v 0.453000 0.403724 -0.450000
v 0.467000 0.403724 -0.000000
v 0.467000 0.403724 -0.000000
v 0.453000 0.403724 -0.450000
v 0.453000 0.403724 -0.000000
v 0.467000 0.403724 -0.000000
v 0.453000 0.403724 -0.000000
v 0.460000 0.391600 -0.000000
v 0.453000 0.403724 -0.450000
v 0.460000 0.391600 -0.450000
v 0.446000 0.391600 -0.450000
v 0.453000 0.403724 -0.450000
v 0.446000 0.391600 -0.450000
v 0.453000 0.403724 -0.000000
v 0.453000 0.403724 -0.000000
v 0.446000 0.391600 -0.450000
v 0.446000 0.391600 -0.000000
v 0.453000 0.403724 -0.000000
v 0.446000 0.391600 -0.000000
v 0.460000 0.391600 -0.000000
v 0.446000 0.391600 -0.450000
v 0.460000 0.391600 -0.450000
v 0.453000 0.379476 -0.450000
v 0.446000 0.391600 -0.450000
v 0.453000 0.379476 -0.450000
v 0.446000 0.391600 -0.000000
v 0.446000 0.391600 -0.000000
v 0.453000 0.379476 -0.450000
v 0.453000 0.379476 -0.000000
v 0.446000 0.391600 -0.000000
v 0.453000 0.379476 -0.000000
v 0.460000 0.391600 -0.000000
v 0.453000 0.379476 -0.450000
v 0.460000 0.391600 -0.450000
v 0.467000 0.379476 -0.450000
v 0.453000 0.379476 -0.450000
v 0.467000 0.379476 -0.450000
v 0.453000 0.379476 -0.000000
v 0.453000 0.379476 -0.000000
v 0.467000 0.379476 -0.450000
v 0.467000 0.379476 -0.000000
v 0.453000 0.379476 -0.000000
v 0.467000 0.379476 -0.000000
v 0.460000 0.391600 -0.000000
v 0.467000 0.379476 -0.450000
v 0.460000 0.391600 -0.450000
v 0.474000 0.391600 -0.450000
v 0.467000 0.379476 -0.450000
v 0.474000 0.391600 -0.450000
v 0.467000 0.379476 -0.000000
v 0.467000 0.379476 -0.000000
v 0.474000 0.391600 -0.450000
v 0.474000 0.391600 -0.000000
v 0.467000 0.379476 -0.000000
v 0.474000 0.391600 -0.000000
v 0.460000 0.391600 -0.000000
vn -0.0000 -0.0000 -1.0000
vn 0.8660 0.5000 -0.0000
vn -0.0000 -0.0000 1.0000
vn -0.0000 1.0000 -0.0000
vn -0.8660 0.5000 -0.0000
vn -0.8660 -0.5000 -0.0000
vn -0.0000 -1.0000 -0.0000
vn 0.8660 -0.5000 -0.0000
s 0
usemtl material_1
f 1033//131 1034//131 1035//131
f 1036//132 1037//132 1038//132
f 1039//132 1040//132 1041//132
f 1042//133 1043//133 1044//133
f 1045//131 1046//131 1047//131
f 1048//134 1049//134 1050//134
f 1051//134 1052//134 1053//134
f 1054//133 1055//133 1056//133
f 1057//131 1058//131 1059//131
f 1060//135 1061//135 1062//135
f 1063//135 1064//135 1065//135
f 1066//133 1067//133 1068//133
f 1069//131 1070//131 1071//131
f 1072//136 1073//136 1074//136
f 1075//136 1076//136 1077//136
f 1078//133 1079//133 1080//133
f 1081//131 1082//131 1083//131
f 1084//137 1085//137 1086//137
f 1087//137 1088//137 1089//137
f 1090//133 1091//133 1092//133
f 1093//131 1094//131 1095//131
f 1096//138 1097//138 1098//138
f 1099//138 1100//138 1101//138
f 1102//133 1103//133 1104//133
o geometry_25
v 0.474000 0.391600 -0.000000
v 0.460000 0.391600 -0.000000
v 0.467000 0.403724 -0.000000
v 0.474000 0.391600 -0.000000
v 0.467000 0.403724 -0.000000
v 0.474000 0.391600 0.450000
v 0.474000 0.391600 0.450000
v 0.467000 0.403724 -0.000000
v 0.467000 0.403724 0.450000
v 0.474000 0.391600 0.450000
v 0.467000 0.403724 0.450000
v 0.460000 0.391600 0.450000
v 0.467000 0.403724 -0.000000
v 0.460000 0.391600 -0.000000
v 0.453000 0.403724 -0.000000
v 0.467000 0.403724 -0.000000
v 0.453000 0.403724 -0.000000
v 0.467000 0.403724 0.450000
v 0.467000 0.403724 0.450000
v 0.453000 0.403724 -0.000000
v 0.453000 0.403724 0.450000
v 0.467000 0.403724 0.450000
v 0.453000 0.403724 0.450000
v 0.460000 0.391600 0.450000
v 0.453000 0.403724 -0.000000
v 0.460000 0.391600 -0.000000
v 0.446000 0.391600 -0.000000
v 0.453000 0.403724 -0.000000
v 0.446000 0.391600 -0.000000
v 0.453000 0.403724 0.450000
v 0.453000 0.403724 0.450000
v 0.446000 0.391600 -0.000000
v 0.446000 0.391600 0.450000
v 0.453000 0.403724 0.450000
v 0.446000 0.391600 0.450000
v 0.460000 0.391600 0.450000
v 0.446000 0.391600 -0.000000
v 0.460000 0.391600 -0.000000
v 0.453000 0.379476 -0.000000
v 0.446000 0.391600 -0.000000
v 0.453000 0.379476 -0.000000
v 0.446000 0.391600 0.450000
v 0.446000 0.391600 0.450000
v 0.453000 0.379476 -0.000000
v 0.453000 0.379476 0.450000
v 0.446000 0.391600 0.450000
v 0.453000 0.379476 0.450000
v 0.460000 0.391600 0.450000
v 0.453000 0.379476 -0.000000
v 0.460000 0.391600 -0.000000
v 0.467000 0.379476 -0.000000
v 0.453000 0.379476 -0.000000
v 0.467000 0.379476 -0.000000
v 0.453000 0.379476 0.450000
v 0.453000 0.379476 0.450000
v 0.467000 0.379476 -0.000000
v 0.467000 0.379476 0.450000
v 0.453000 0.379476 0.450000
v 0.467000 0.379476 0.450000
v 0.460000 0.391600 0.450000
v 0.467000 0.379476 -0.000000
v 0.460000 0.391600 -0.000000
v 0.474000 0.391600 -0.000000
v 0.467000 0.379476 -0.000000
v 0.474000 0.391600 -0.000000
v 0.467000 0.379476 0.450000
v 0.467000 0.379476 0.450000
v 0.474000 0.391600 -0.000000
v 0.474000 0.391600 0.450000
v 0.467000 0.379476 0.450000
v 0.474000 0.391600 0.450000
v 0.460000 0.391600 0.450000
vn -0.0000 -0.0000 -1.0000
vn 0.8660 0.5000 -0.0000
vn -0.0000 -0.0000 1.0000
vn -0.0000 1.0000 -0.0000
vn -0.8660 0.5000 -0.0000
vn -0.8660 -0.5000 -0.0000
vn -0.0000 -1.0000 -0.0000
vn 0.8660 -0.5000 -0.0000
s 0
usemtl material_1
f 1105//139 1106//139 1107//139
f 1108//140 1109//140 1110//140
f 1111//140 1112//140 1113//140
f 1114//141 1115//141 1116//141
f 1117//139 1118//139 1119//139
f 1120//142 1121//142 1122//142
f 1123//142 1124//142 1125//142
f 1126//141 1127//141 1128//141
f 1129//139 1130//139 1131//139
f 1132//143 1133//143 1134//143
f 1135//143 1136//143 1137//143
f 1138//141 1139//141 1140//141
f 1141//139 1142//139 1143//139
f 1144//144 1145//144 1146//144
f 1147//144 1148//144 1149//144
f 1150//141 1151//141 1152//141
f 1153//139 1154//139 1155//139
f 1156//145 1157//145 1158//145
f 1159//145 1160//145 1161//145
f 1162//141 1163//141 1164//141
f 1165//139 1166//139 1167//139
f 1168//146 1169//146 1170//146
f 1171//146 1172//146 1173//146
f 1174//141 1175//141 1176//141
o geometry_26
v 0.474000 0.231000 -0.500000
v 0.460000 0.231000 -0.500000
v 0.467000 0.243124 -0.500000
v 0.474000 0.231000 -0.500000
v 0.467000 0.243124 -0.500000
v 0.474000 0.231000 -0.450000
v 0.474000 0.231000 -0.450000
v 0.467000 0.243124 -0.500000
v 0.467000 0.243124 -0.450000
v 0.474000 0.231000 -0.450000
v 0.467000 0.243124 -0.450000
v 0.460000 0.231000 -0.450000
v 0.467000 0.243124 -0.500000
v 0.460000 0.231000 -0.500000
v 0.453000 0.243124 -0.500000
v 0.467000 0.243124 -0.500000
v 0.453000 0.243124 -0.500000
v 0.467000 0.243124 -0.450000
v 0.467000 0.243124 -0.450000
v 0.453000 0.243124 -0.500000
v 0.453000 0.243124 -0.450000
v 0.467000 0.243124 -0.450000
v 0.453000 0.243124 -0.450000
v 0.460000 0.231000 -0.450000
v 0.453000 0.243124 -0.500000
v 0.460000 0.231000 -0.500000
v 0.446000 0.231000 -0.500000
v 0.453000 0.243124 -0.500000
v 0.446000 0.231000 -0.500000
v 0.453000 0.243124 -0.450000
v 0.453000 0.243124 -0.450000
v 0.446000 0.231000 -0.500000
v 0.446000 0.231000 -0.450000
v 0.453000 0.243124 -0.450000
v 0.446000 0.231000 -0.450000
v 0.460000 0.231000 -0.450000
v 0.446000 0.231000 -0.500000
v 0.460000 0.231000 -0.500000
v 0.453000 0.218876 -0.500000
v 0.446000 0.231000 -0.500000
v 0.453000 0.218876 -0.500000
v 0.446000 0.231000 -0.450000
v 0.446000 0.231000 -0.450000
v 0.453000 0.218876 -0.500000
v 0.453000 0.218876 -0.450000
v 0.446000 0.231000 -0.450000
v 0.453000 0.218876 -0.450000
v 0.460000 0.231000 -0.450000
v 0.453000 0.218876 -0.500000
v 0.460000 0.231000 -0.500000
v 0.467000 0.218876 -0.500000
v 0.453000 0.218876 -0.500000
v 0.467000 0.218876 -0.500000
v 0.453000 0.218876 -0.450000
v 0.453000 0.218876 -0.450000
v 0.467000 0.218876 -0.500000
v 0.467000 0.218876 -0.450000
v 0.453000 0.218876 -0.450000
v 0.467000 0.218876 -0.450000
v 0.460000 0.231000 -0.450000
v 0.467000 0.218876 -0.500000
v 0.460000 0.231000 -0.500000
v 0.474000 0.231000 -0.500000
v 0.467000 0.218876 -0.500000
v 0.474000 0.231000 -0.500000
v 0.467000 0.218876 -0.450000
v 0.467000 0.218876 -0.450000
v 0.474000 0.231000 -0.500000
v 0.474000 0.231000 -0.450000
v 0.467000 0.218876 -0.450000
v 0.474000 0.231000 -0.450000
v 0.460000 0.231000 -0.450000
vn -0.0000 -0.0000 -1.0000
vn 0.8660 0.5000 -0.0000
vn -0.0000 -0.0000 1.0000
vn -0.0000 1.0000 -0.0000
vn -0.8660 0.5000 -0.0000
vn -0.8660 -0.5000 -0.0000
vn -0.0000 -1.0000 -0.0000
vn 0.8660 -0.5000 -0.0000
s 0
usemtl material_1
f 1177//147 1178//147 1179//147
f 1180//148 1181//148 1182//148
f 1183//148 1184//148 1185//148
f 1186//149 1187//149 1188//149
f 1189//147 1190//147 1191//147
f 1192//150 1193//150 1194//150
f 1195//150 1196//150 1197//150
f 1198//149 1199//149 1200//149
f 1201//147 1202//147 1203//147
f 1204//151 1205//151 1206//151
f 1207//151 1208//151 1209//151
f 1210//149 1211//149 1212//149
f 1213//147 1214//147 1215//147
f 1216//152 1217//152 1218//152
f 1219//152 1220//152 1221//152
f 1222//149 1223//149 1224//149
f 1225//147 1226//147 1227//147
f 1228//153 1229//153 1230//153
f 1231//153 1232//153 1233//153
f 1234//149 1235//149 1236//149
f 1237//147 1238//147 1239//147
f 1240//154 1241//154 1242//154
f 1243//154 1244//154 1245//154
f 1246//149 1247//149 1248//149
o geometry_27
v 0.474000 0.231000 0.450000
v 0.460000 0.231000 0.450000
v 0.467000 0.243124 0.450000
v 0.474000 0.231000 0.450000
v 0.467000 0.243124 0.450000
v 0.474000 0.231000 0.500000
v 0.474000 0.231000 0.500000
v 0.467000 0.243124 0.450000
v 0.467000 0.243124 0.500000
v 0.474000 0.231000 0.500000
v 0.467000 0.243124 0.500000
v 0.460000 0.231000 0.500000
v 0.467000 0.243124 0.450000
v 0.460000 0.231000 0.450000
v 0.453000 0.243124 0.450000
v 0.467000 0.243124 0.450000
v 0.453000 0.243124 0.450000
v 0.467000 0.243124 0.500000
v 0.467000 0.243124 0.500000
v 0.453000 0.243124 0.450000
v 0.453000 0.243124 0.500000
v 0.467000 0.243124 0.500000
v 0.453000 0.243124 0.500000
v 0.460000 0.231000 0.500000
v 0.453000 0.243124 0.450000
v 0.460000 0.231000 0.450000
v 0.446000 0.231000 0.450000
v 0.453000 0.243124 0.450000
v 0.446000 0.231000 0.450000
v 0.453000 0.243124 0.500000
v 0.453000 0.243124 0.500000
v 0.446000 0.231000 0.450000
v 0.446000 0.231000 0.500000
v 0.453000 0.243124 0.500000
v 0.446000 0.231000 0.500000
v 0.460000 0.231000 0.500000
v 0.446000 0.231000 0.450000
v 0.460000 0.231000 0.450000
v 0.453000 0.218876 0.450000
v 0.446000 0.231000 0.450000
v 0.453000 0.218876 0.450000
v 0.446000 0.231000 0.500000
v 0.446000 0.231000 0.500000
v 0.453000 0.218876 0.450000
v 0.453000 0.218876 0.500000
v 0.446000 0.231000 0.500000
v 0.453000 0.218876 0.500000
v 0.460000 0.231000 0.500000
v 0.453000 0.218876 0.450000
v 0.460000 0.231000 0.450000
v 0.467000 0.218876 0.450000
v 0.453000 0.218876 0.450000
v 0.467000 0.218876 0.450000
v 0.453000 0.218876 0.500000
v 0.453000 0.218876 0.500000
v 0.467000 0.218876 0.450000
v 0.467000 0.218876 0.500000
v 0.453000 0.218876 0.500000
v 0.467000 0.218876 0.500000
v 0.460000 0.231000 0.500000
v 0.467000 0.218876 0.450000
v 0.460000 0.231000 0.450000
v 0.474000 0.231000 0.450000
v 0.467000 0.218876 0.450000
v 0.474000 0.231000 0.450000
v 0.467000 0.218876 0.500000
v 0.467000 0.218876 0.500000
v 0.474000 0.231000 0.450000
v 0.474000 0.231000 0.500000
v 0.467000 0.218876 0.500000
v 0.474000 0.231000 0.500000
v 0.460000 0.231000 0.500000
vn -0.0000 -0.0000 -1.0000
vn 0.8660 0.5000 -0.0000
vn -0.0000 -0.0000 1.0000
vn -0.0000 1.0000 -0.0000
vn -0.8660 0.5000 -0.0000
vn -0.8660 -0.5000 -0.0000
vn -0.0000 -1.0000 -0.0000
vn 0.8660 -0.5000 -0.0000
s 0
usemtl material_1
f 1249//155 1250//155 1251//155
f 1252//156 1253//156 1254//156
f 1255//156 1256//156 1257//156
f 1258//157 1259//157 1260//157
f 1261//155 1262//155 1263//155
f 1264//158 1265//158 1266//158
f 1267//158 1268//158 1269//158
f 1270//157 1271//157 1272//157
f 1273//155 1274//155 1275//155
f 1276//159 1277//159 1278//159
f 1279//159 1280//159 1281//159
f 1282//157 1283//157 1284//157
f 1285//155 1286//155 1287//155
f 1288//160 1289//160 1290//160
f 1291//160 1292//160 1293//160
f 1294//157 1295//157 1296//157
f 1297//155 1298//155 1299//155
f 1300//161 1301//161 1302//161
f 1303//161 1304//161 1305//161
f 1306//157 1307//157 1308//157
f 1309//155 1310//155 1311//155
f 1312//162 1313//162 1314//162
f 1315//162 1316//162 1317//162
f 1318//157 1319//157 1320//157
o geometry_28
v 0.474000 0.411600 -0.500000
v 0.460000 0.411600 -0.500000
v 0.467000 0.423724 -0.500000
v 0.474000 0.411600 -0.500000
v 0.467000 0.423724 -0.500000
v 0.474000 0.411600 -0.450000
v 0.474000 0.411600 -0.450000
v 0.467000 0.423724 -0.500000
v 0.467000 0.423724 -0.450000
v 0.474000 0.411600 -0.450000
v 0.467000 0.423724 -0.450000
v 0.460000 0.411600 -0.450000
v 0.467000 0.423724 -0.500000
v 0.460000 0.411600 -0.500000
v 0.453000 0.423724 -0.500000
v 0.467000 0.423724 -0.500000
v 0.453000 0.423724 -0.500000
v 0.467000 0.423724 -0.450000
v 0.467000 0.423724 -0.450000
v 0.453000 0.423724 -0.500000
v 0.453000 0.423724 -0.450000
v 0.467000 0.423724 -0.450000
v 0.453000 0.423724 -0.450000
v 0.460000 0.411600 -0.450000
v 0.453000 0.423724 -0.500000
v 0.460000 0.411600 -0.500000
v 0.446000 0.411600 -0.500000
v 0.453000 0.423724 -0.500000
v 0.446000 0.411600 -0.500000
v 0.453000 0.423724 -0.450000
v 0.453000 0.423724 -0.450000
v 0.446000 0.411600 -0.500000
v 0.446000 0.411600 -0.450000
v 0.453000 0.423724 -0.450000
v 0.446000 0.411600 -0.450000
v 0.460000 0.411600 -0.450000
v 0.446000 0.411600 -0.500000
v 0.460000 0.411600 -0.500000
v 0.453000 0.399476 -0.500000
v 0.446000 0.411600 -0.500000
v 0.453000 0.399476 -0.500000
v 0.446000 0.411600 -0.450000
v 0.446000 0.411600 -0.450000
v 0.453000 0.399476 -0.500000
v 0.453000 0.399476 -0.450000
v 0.446000 0.411600 -0.450000
v 0.453000 0.399476 -0.450000
v 0.460000 0.411600 -0.450000
v 0.453000 0.399476 -0.500000
v 0.460000 0.411600 -0.500000
v 0.467000 0.399476 -0.500000
v 0.453000 0.399476 -0.500000
v 0.467000 0.399476 -0.500000
v 0.453000 0.399476 -0.450000
v 0.453000 0.399476 -0.450000
v 0.467000 0.399476 -0.500000
v 0.467000 0.399476 -0.450000
v 0.453000 0.399476 -0.450000
v 0.467000 0.399476 -0.450000
v 0.460000 0.411600 -0.450000
v 0.467000 0.399476 -0.500000
v 0.460000 0.411600 -0.500000
v 0.474000 0.411600 -0.500000
v 0.467000 0.399476 -0.500000
v 0.474000 0.411600 -0.500000
v 0.467000 0.399476 -0.450000
v 0.467000 0.399476 -0.450000
v 0.474000 0.411600 -0.500000
v 0.474000 0.411600 -0.450000
v 0.467000 0.399476 -0.450000
v 0.474000 0.411600 -0.450000
v 0.460000 0.411600 -0.450000
vn -0.0000 -0.0000 -1.0000
vn 0.8660 0.5000 -0.0000
vn -0.0000 -0.0000 1.0000
vn -0.0000 1.0000 -0.0000
vn -0.8660 0.5000 -0.0000
vn -0.8660 -0.5000 -0.0000
vn -0.0000 -1.0000 -0.0000
vn 0.8660 -0.5000 -0.0000
s 0
usemtl material_1
f 1321//163 1322//163 1323//163
f 1324//164 1325//164 1326//164
f 1327//164 1328//164 1329//164
f 1330//165 1331//165 1332//165
f 1333//163 1334//163 1335//163
f 1336//166 1337//166 1338//166
f 1339//166 1340//166 1341//166
f 1342//165 1343//165 1344//165
f 1345//163 1346//163 1347//163
f 1348//167 1349//167 1350//167
f 1351//167 1352//167 1353//167
f 1354//165 1355//165 1356//165
f 1357//163 1358//163 1359//163
f 1360//168 1361//168 1362//168
f 1363//168 1364//168 1365//168
f 1366//165 1367//165 1368//165
f 1369//163 1370//163 1371//163
f 1372//169 1373//169 1374//169
f 1375//169 1376//169 1377//169
f 1378//165 1379//165 1380//165
f 1381//163 1382//163 1383//163
f 1384//170 1385//170 1386//170
f 1387//170 1388//170 1389//170
f 1390//165 1391//165 1392//165
o geometry_29
v 0.474000 0.411600 0.450000
v 0.460000 0.411600 0.450000
v 0.467000 0.423724 0.450000
v 0.474000 0.411600 0.450000
v 0.467000 0.423724 0.450000
v 0.474000 0.411600 0.500000
v 0.474000 0.411600 0.500000
v 0.467000 0.423724 0.450000
v 0.467000 0.423724 0.500000
v 0.474000 0.411600 0.500000
v 0.467000 0.423724 0.500000
v 0.460000 0.411600 0.500000
v 0.467000 0.423724 0.450000
v 0.460000 0.411600 0.450000
v 0.453000 0.423724 0.450000
v 0.467000 0.423724 0.450000
v 0.453000 0.423724 0.450000
v 0.467000 0.423724 0.500000
v 0.467000 0.423724 0.500000
v 0.453000 0.423724 0.450000
v 0.453000 0.423724 0.500000
v 0.467000 0.423724 0.500000
v 0.453000 0.423724 0.500000
v 0.460000 0.411600 0.500000
v 0.453000 0.423724 0.450000
v 0.460000 0.411600 0.450000
v 0.446000 0.411600 0.450000
v 0.453000 0.423724 0.450000
v 0.446000 0.411600 0.450000
v 0.453000 0.423724 0.500000
v 0.453000 0.423724 0.500000
v 0.446000 0.411600 0.450000
v 0.446000 0.411600 0.500000
v 0.453000 0.423724 0.500000
v 0.446000 0.411600 0.500000
v 0.460000 0.411600 0.500000
v 0.446000 0.411600 0.450000
v 0.460000 0.411600 0.450000
v 0.453000 0.399476 0.450000
v 0.446000 0.411600 0.450000
v 0.453000 0.399476 0.450000
v 0.446000 0.411600 0.500000
v 0.446000 0.411600 0.500000
v 0.453000 0.399476 0.450000
v 0.453000 0.399476 0.500000
v 0.446000 0.411600 0.500000
v 0.453000 0.399476 0.500000
v 0.460000 0.411600 0.500000
v 0.453000 0.399476 0.450000
v 0.460000 0.411600 0.450000
v 0.467000 0.399476 0.450000
v 0.453000 0.399476 0.450000
v 0.467000 0.399476 0.450000
v 0.453000 0.399476 0.500000
v 0.453000 0.399476 0.500000
v 0.467000 0.399476 0.450000
v 0.467000 0.399476 0.500000
v 0.453000 0.399476 0.500000
v 0.467000 0.399476 0.500000
v 0.460000 0.411600 0.500000
v 0.467000 0.399476 0.450000
v 0.460000 0.411600 0.450000
v 0.474000 0.411600 0.450000
v 0.467000 0.399476 0.450000
v 0.474000 0.411600 0.450000
v 0.467000 0.399476 0.500000
v 0.467000 0.399476 0.500000
v 0.474000 0.411600 0.450000
v 0.474000 0.411600 0.500000
v 0.467000 0.399476 0.500000
v 0.474000 0.411600 0.500000
v 0.460000 0.411600 0.500000
vn -0.0000 -0.0000 -1.0000
vn 0.8660 0.5000 -0.0000
vn -0.0000 -0.0000 1.0000
vn -0.0000 1.0000 -0.0000
vn -0.8660 0.5000 -0.0000
vn -0.8660 -0.5000 -0.0000
vn -0.0000 -1.0000 -0.0000
vn 0.8660 -0.5000 -0.0000
s 0
usemtl material_1
f 1393//171 1394//171 1395//171
f 1396//172 1397//172 1398//172
f 1399//172 1400//172 1401//172
f 1402//173 1403//173 1404//173
f 1405//171 1406//171 1407//171
f 1408//174 1409//174 1410//174
f 1411//174 1412//174 1413//174
f 1414//173 1415//173 1416//173
f 1417//171 1418//171 1419//171
f 1420//175 1421//175 1422//175
f 1423//175 1424//175 1425//175
f 1426//173 1427//173 1428//173
f 1429//171 1430//171 1431//171
f 1432//176 1433//176 1434//176
f 1435//176 1436//176 1437//176
f 1438//173 1439//173 1440//173
f 1441//171 1442//171 1443//171
f 1444//177 1445//177 1446//177
f 1447//177 1448//177 1449//177
f 1450//173 1451//173 1452//173
f 1453//171 1454//171 1455//171
f 1456//178 1457//178 1458//178
f 1459//178 1460//178 1461//178
f 1462//173 1463//173 1464//173
o geometry_3
v -0.485000 -0.055155 0.000389
v -0.485000 -0.055155 0.166277
v -0.485000 -0.005155 0.000389
v -0.485000 -0.005155 0.166277
v 0.485000 -0.055155 0.000389
v 0.485000 -0.055155 0.166277
v 0.485000 -0.005155 0.000389
v 0.485000 -0.005155 0.166277
vn -1.0000 -0.0000 -0.0000
vn -0.0000 -1.0000 -0.0000
vn -0.0000 -0.0000 -1.0000
vn -0.0000 -0.0000 1.0000
vn -0.0000 1.0000 -0.0000
vn 1.0000 -0.0000 -0.0000
s 0
usemtl material_2
f 1466//179 1468//179 1465//179
f 1469//180 1466//180 1465//180
f 1465//179 1468//179 1467//179
f 1467//181 1469//181 1465//181
f 1466//182 1472//182 1468//182
f 1470//180 1466//180 1469//180
f 1470//182 1472//182 1466//182
f 1468//183 1472//183 1467//183
f 1471//181 1469//181 1467//181
f 1467//183 1472//183 1471//183
f 1471//184 1470//184 1469//184
f 1472//184 1470//184 1471//184
o geometry_30
v -0.550000 -0.055000 -0.610000
v -0.550000 -0.055000 -0.430000
v -0.550000 -0.015000 -0.610000
v -0.550000 -0.015000 -0.430000
v 0.550000 -0.055000 -0.610000
v 0.550000 -0.055000 -0.430000
v 0.550000 -0.015000 -0.610000
v 0.550000 -0.015000 -0.430000
vn -1.0000 -0.0000 -0.0000
vn -0.0000 -1.0000 -0.0000
vn -0.0000 -0.0000 -1.0000
vn -0.0000 -0.0000 1.0000
vn -0.0000 1.0000 -0.0000
vn 1.0000 -0.0000 -0.0000
s 0
usemtl material_0
f 1474//185 1476//185 1473//185
f 1477//186 1474//186 1473//186
f 1473//185 1476//185 1475//185
f 1475//187 1477//187 1473//187
f 1474//188 1480//188 1476//188
f 1478//186 1474//186 1477//186
f 1478//188 1480//188 1474//188
f 1476//189 1480//189 1475//189
f 1479//187 1477//187 1475//187
f 1475//189 1480//189 1479//189
f 1479//190 1478//190 1477//190
f 1480//190 1478//190 1479//190
o geometry_31
v -0.415000 -0.300000 -0.550000
v -0.450000 -0.300000 -0.550000
v -0.432500 -0.300000 -0.580311
v -0.415000 -0.300000 -0.550000
v -0.432500 -0.300000 -0.580311
v -0.415000 0.050000 -0.550000
v -0.415000 0.050000 -0.550000
v -0.432500 -0.300000 -0.580311
v -0.432500 0.050000 -0.580311
v -0.415000 0.050000 -0.550000
v -0.432500 0.050000 -0.580311
v -0.450000 0.050000 -0.550000
v -0.432500 -0.300000 -0.580311
v -0.450000 -0.300000 -0.550000
v -0.467500 -0.300000 -0.580311
v -0.432500 -0.300000 -0.580311
v -0.467500 -0.300000 -0.580311
v -0.432500 0.050000 -0.580311
v -0.432500 0.050000 -0.580311
v -0.467500 -0.300000 -0.580311
v -0.467500 0.050000 -0.580311
v -0.432500 0.050000 -0.580311
v -0.467500 0.050000 -0.580311
v -0.450000 0.050000 -0.550000
v -0.467500 -0.300000 -0.580311
v -0.450000 -0.300000 -0.550000
v -0.485000 -0.300000 -0.550000
v -0.467500 -0.300000 -0.580311
v -0.485000 -0.300000 -0.550000
v -0.467500 0.050000 -0.580311
v -0.467500 0.050000 -0.580311
v -0.485000 -0.300000 -0.550000
v -0.485000 0.050000 -0.550000
v -0.467500 0.050000 -0.580311
v -0.485000 0.050000 -0.550000
v -0.450000 0.050000 -0.550000
v -0.485000 -0.300000 -0.550000
v -0.450000 -0.300000 -0.550000
v -0.467500 -0.300000 -0.519689
v -0.485000 -0.300000 -0.550000
v -0.467500 -0.300000 -0.519689
v -0.485000 0.050000 -0.550000
v -0.485000 0.050000 -0.550000
v -0.467500 -0.300000 -0.519689
v -0.467500 0.050000 -0.519689
v -0.485000 0.050000 -0.550000
v -0.467500 0.050000 -0.519689
v -0.450000 0.050000 -0.550000
v -0.467500 -0.300000 -0.519689
v -0.450000 -0.300000 -0.550000
v -0.432500 -0.300000 -0.519689
v -0.467500 -0.300000 -0.519689
v -0.432500 -0.300000 -0.519689
v -0.467500 0.050000 -0.519689
v -0.467500 0.050000 -0.519689
v -0.432500 -0.300000 -0.519689
v -0.432500 0.050000 -0.519689
v -0.467500 0.050000 -0.519689
v -0.432500 0.050000 -0.519689
v -0.450000 0.050000 -0.550000
v -0.432500 -0.300000 -0.519689
v -0.450000 -0.300000 -0.550000
v -0.415000 -0.300000 -0.550000
v -0.432500 -0.300000 -0.519689
v -0.415000 -0.300000 -0.550000
v -0.432500 0.050000 -0.519689
v -0.432500 0.050000 -0.519689
v -0.415000 -0.300000 -0.550000
v -0.415000 0.050000 -0.550000
v -0.432500 0.050000 -0.519689
v -0.415000 0.050000 -0.550000
v -0.450000 0.050000 -0.550000
vn -0.0000 -1.0000 -0.0000
vn 0.8660 -0.0000 -0.5000
vn -0.0000 1.0000 -0.0000
vn -0.0000 -0.0000 -1.0000
vn -0.8660 -0.0000 -0.5000
vn -0.8660 -0.0000 0.5000
vn -0.0000 -0.0000 1.0000
vn 0.8660 -0.0000 0.5000
s 0
usemtl material_0
f 1481//191 1482//191 1483//191
f 1484//192 1485//192 1486//192
f 1487//192 1488//192 1489//192
f 1490//193 1491//193 1492//193
f 1493//191 1494//191 1495//191
f 1496//194 1497//194 1498//194
f 1499//194 1500//194 1501//194
f 1502//193 1503//193 1504//193
f 1505//191 1506//191 1507//191
f 1508//195 1509//195 1510//195
f 1511//195 1512//195 1513//195
f 1514//193 1515//193 1516//193
f 1517//191 1518//191 1519//191
f 1520//196 1521//196 1522//196
f 1523//196 1524//196 1525//196
f 1526//193 1527//193 1528//193
f 1529//191 1530//191 1531//191
f 1532//197 1533//197 1534//197
f 1535//197 1536//197 1537//197
f 1538//193 1539//193 1540//193
f 1541//191 1542//191 1543//191
f 1544//198 1545//198 1546//198
f 1547//198 1548//198 1549//198
f 1550//193 1551//193 1552//193
o geometry_32
v -0.433193 -0.287975 -0.564068
v -0.450000 -0.300000 -0.550000
v -0.457607 -0.283792 -0.567448
v -0.433193 -0.287975 -0.564068
v -0.457607 -0.283792 -0.567448
v -0.423193 -0.067975 -0.364068
v -0.423193 -0.067975 -0.364068
v -0.457607 -0.283792 -0.567448
v -0.447607 -0.063792 -0.367448
v -0.423193 -0.067975 -0.364068
v -0.447607 -0.063792 -0.367448
v -0.440000 -0.080000 -0.350000
v -0.457607 -0.283792 -0.567448
v -0.450000 -0.300000 -0.550000
v -0.474415 -0.295817 -0.553380
v -0.457607 -0.283792 -0.567448
v -0.474415 -0.295817 -0.553380
v -0.447607 -0.063792 -0.367448
v -0.447607 -0.063792 -0.367448
v -0.474415 -0.295817 -0.553380
v -0.464415 -0.075817 -0.353380
v -0.447607 -0.063792 -0.367448
v -0.464415 -0.075817 -0.353380
v -0.440000 -0.080000 -0.350000
v -0.474415 -0.295817 -0.553380
v -0.450000 -0.300000 -0.550000
v -0.466807 -0.312025 -0.535932
v -0.474415 -0.295817 -0.553380
v -0.466807 -0.312025 -0.535932
v -0.464415 -0.075817 -0.353380
v -0.464415 -0.075817 -0.353380
v -0.466807 -0.312025 -0.535932
v -0.456807 -0.092025 -0.335932
v -0.464415 -0.075817 -0.353380
v -0.456807 -0.092025 -0.335932
v -0.440000 -0.080000 -0.350000
v -0.466807 -0.312025 -0.535932
v -0.450000 -0.300000 -0.550000
v -0.442393 -0.316208 -0.532552
v -0.466807 -0.312025 -0.535932
v -0.442393 -0.316208 -0.532552
v -0.456807 -0.092025 -0.335932
v -0.456807 -0.092025 -0.335932
v -0.442393 -0.316208 -0.532552
v -0.432393 -0.096208 -0.332552
v -0.456807 -0.092025 -0.335932
v -0.432393 -0.096208 -0.332552
v -0.440000 -0.080000 -0.350000
v -0.442393 -0.316208 -0.532552
v -0.450000 -0.300000 -0.550000
v -0.425585 -0.304183 -0.546620
v -0.442393 -0.316208 -0.532552
v -0.425585 -0.304183 -0.546620
v -0.432393 -0.096208 -0.332552
v -0.432393 -0.096208 -0.332552
v -0.425585 -0.304183 -0.546620
v -0.415585 -0.084183 -0.346620
v -0.432393 -0.096208 -0.332552
v -0.415585 -0.084183 -0.346620
v -0.440000 -0.080000 -0.350000
v -0.425585 -0.304183 -0.546620
v -0.450000 -0.300000 -0.550000
v -0.433193 -0.287975 -0.564068
v -0.425585 -0.304183 -0.546620
v -0.433193 -0.287975 -0.564068
v -0.415585 -0.084183 -0.346620
v -0.415585 -0.084183 -0.346620
v -0.433193 -0.287975 -0.564068
v -0.423193 -0.067975 -0.364068
v -0.415585 -0.084183 -0.346620
v -0.423193 -0.067975 -0.364068
v -0.440000 -0.080000 -0.350000
vn -0.0336 -0.7395 -0.6723
vn 0.2125 0.6520 -0.7278
vn 0.0336 0.7395 0.6723
vn -0.7395 0.4709 -0.4810
vn -0.9520 -0.1811 0.2468
vn -0.2125 -0.6520 0.7278
vn 0.7395 -0.4709 0.4810
vn 0.9520 0.1811 -0.2468
s 0
usemtl material_0
f 1553//199 1554//199 1555//199
f 1556//200 1557//200 1558//200
f 1559//200 1560//200 1561//200
f 1562//201 1563//201 1564//201
f 1565//199 1566//199 1567//199
f 1568//202 1569//202 1570//202
f 1571//202 1572//202 1573//202
f 1574//201 1575//201 1576//201
f 1577//199 1578//199 1579//199
f 1580//203 1581//203 1582//203
f 1583//203 1584//203 1585//203
f 1586//201 1587//201 1588//201
f 1589//199 1590//199 1591//199
f 1592//204 1593//204 1594//204
f 1595//204 1596//204 1597//204
f 1598//201 1599//201 1600//201
f 1601//199 1602//199 1603//199
f 1604//205 1605//205 1606//205
f 1607//205 1608//205 1609//205
f 1610//201 1611//201 1612//201
f 1613//199 1614//199 1615//199
f 1616//206 1617//206 1618//206
f 1619//206 1620//206 1621//206
f 1622//201 1623//201 1624//201
o geometry_33
v 0.485000 -0.300000 -0.550000
v 0.450000 -0.300000 -0.550000
v 0.467500 -0.300000 -0.580311
v 0.485000 -0.300000 -0.550000
v 0.467500 -0.300000 -0.580311
v 0.485000 0.050000 -0.550000
v 0.485000 0.050000 -0.550000
v 0.467500 -0.300000 -0.580311
v 0.467500 0.050000 -0.580311
v 0.485000 0.050000 -0.550000
v 0.467500 0.050000 -0.580311
v 0.450000 0.050000 -0.550000
v 0.467500 -0.300000 -0.580311
v 0.450000 -0.300000 -0.550000
v 0.432500 -0.300000 -0.580311
v 0.467500 -0.300000 -0.580311
v 0.432500 -0.300000 -0.580311
v 0.467500 0.050000 -0.580311
v 0.467500 0.050000 -0.580311
v 0.432500 -0.300000 -0.580311
v 0.432500 0.050000 -0.580311
v 0.467500 0.050000 -0.580311
v 0.432500 0.050000 -0.580311
v 0.450000 0.050000 -0.550000
v 0.432500 -0.300000 -0.580311
v 0.450000 -0.300000 -0.550000
v 0.415000 -0.300000 -0.550000
v 0.432500 -0.300000 -0.580311
v 0.415000 -0.300000 -0.550000
v 0.432500 0.050000 -0.580311
v 0.432500 0.050000 -0.580311
v 0.415000 -0.300000 -0.550000
v 0.415000 0.050000 -0.550000
v 0.432500 0.050000 -0.580311
v 0.415000 0.050000 -0.550000
v 0.450000 0.050000 -0.550000
v 0.415000 -0.300000 -0.550000
v 0.450000 -0.300000 -0.550000
v 0.432500 -0.300000 -0.519689
v 0.415000 -0.300000 -0.550000
v 0.432500 -0.300000 -0.519689
v 0.415000 0.050000 -0.550000
v 0.415000 0.050000 -0.550000
v 0.432500 -0.300000 -0.519689
v 0.432500 0.050000 -0.519689
v 0.415000 0.050000 -0.550000
v 0.432500 0.050000 -0.519689
v 0.450000 0.050000 -0.550000
v 0.432500 -0.300000 -0.519689
v 0.450000 -0.300000 -0.550000
v 0.467500 -0.300000 -0.519689
v 0.432500 -0.300000 -0.519689
v 0.467500 -0.300000 -0.519689
v 0.432500 0.050000 -0.519689
v 0.432500 0.050000 -0.519689
v 0.467500 -0.300000 -0.519689
v 0.467500 0.050000 -0.519689
v 0.432500 0.050000 -0.519689
v 0.467500 0.050000 -0.519689
v 0.450000 0.050000 -0.550000
v 0.467500 -0.300000 -0.519689
v 0.450000 -0.300000 -0.550000
v 0.485000 -0.300000 -0.550000
v 0.467500 -0.300000 -0.519689
v 0.485000 -0.300000 -0.550000
v 0.467500 0.050000 -0.519689
v 0.467500 0.050000 -0.519689
v 0.485000 -0.300000 -0.550000
v 0.485000 0.050000 -0.550000
v 0.467500 0.050000 -0.519689
v 0.485000 0.050000 -0.550000
v 0.450000 0.050000 -0.550000
vn -0.0000 -1.0000 -0.0000
vn 0.8660 -0.0000 -0.5000
vn -0.0000 1.0000 -0.0000
vn -0.0000 -0.0000 -1.0000
vn -0.8660 -0.0000 -0.5000
vn -0.8660 -0.0000 0.5000
vn -0.0000 -0.0000 1.0000
vn 0.8660 -0.0000 0.5000
s 0
usemtl material_0
f 1625//207 1626//207 1627//207
f 1628//208 1629//208 1630//208
f 1631//208 1632//208 1633//208
f 1634//209 1635//209 1636//209
f 1637//207 1638//207 1639//207
f 1640//210 1641//210 1642//210
f 1643//210 1644//210 1645//210
f 1646//209 1647//209 1648//209
f 1649//207 1650//207 1651//207
f 1652//211 1653//211 1654//211
f 1655//211 1656//211 1657//211
f 1658//209 1659//209 1660//209
f 1661//207 1662//207 1663//207
f 1664//212 1665//212 1666//212
f 1667//212 1668//212 1669//212
f 1670//209 1671//209 1672//209
f 1673//207 1674//207 1675//207
f 1676//213 1677//213 1678//213
f 1679//213 1680//213 1681//213
f 1682//209 1683//209 1684//209
f 1685//207 1686//207 1687//207
f 1688//214 1689//214 1690//214
f 1691//214 1692//214 1693//214
f 1694//209 1695//209 1696//209
o geometry_34
v 0.466807 -0.312025 -0.535932
v 0.450000 -0.300000 -0.550000
v 0.474415 -0.295817 -0.553380
v 0.466807 -0.312025 -0.535932
v 0.474415 -0.295817 -0.553380
v 0.456807 -0.092025 -0.335932
v 0.456807 -0.092025 -0.335932
v 0.474415 -0.295817 -0.553380
v 0.464415 -0.075817 -0.353380
v 0.456807 -0.092025 -0.335932
v 0.464415 -0.075817 -0.353380
v 0.440000 -0.080000 -0.350000
v 0.474415 -0.295817 -0.553380
v 0.450000 -0.300000 -0.550000
v 0.457607 -0.283792 -0.567448
v 0.474415 -0.295817 -0.553380
v 0.457607 -0.283792 -0.567448
v 0.464415 -0.075817 -0.353380
v 0.464415 -0.075817 -0.353380
v 0.457607 -0.283792 -0.567448
v 0.447607 -0.063792 -0.367448
v 0.464415 -0.075817 -0.353380
v 0.447607 -0.063792 -0.367448
v 0.440000 -0.080000 -0.350000
v 0.457607 -0.283792 -0.567448
v 0.450000 -0.300000 -0.550000
v 0.433193 -0.287975 -0.564068
v 0.457607 -0.283792 -0.567448
v 0.433193 -0.287975 -0.564068
v 0.447607 -0.063792 -0.367448
v 0.447607 -0.063792 -0.367448
v 0.433193 -0.287975 -0.564068
v 0.423193 -0.067975 -0.364068
v 0.447607 -0.063792 -0.367448
v 0.423193 -0.067975 -0.364068
v 0.440000 -0.080000 -0.350000
v 0.433193 -0.287975 -0.564068
v 0.450000 -0.300000 -0.550000
v 0.425585 -0.304183 -0.546620
v 0.433193 -0.287975 -0.564068
v 0.425585 -0.304183 -0.546620
v 0.423193 -0.067975 -0.364068
v 0.423193 -0.067975 -0.364068
v 0.425585 -0.304183 -0.546620
v 0.415585 -0.084183 -0.346620
v 0.423193 -0.067975 -0.364068
v 0.415585 -0.084183 -0.346620
v 0.440000 -0.080000 -0.350000
v 0.425585 -0.304183 -0.546620
v 0.450000 -0.300000 -0.550000
v 0.442393 -0.316208 -0.532552
v 0.425585 -0.304183 -0.546620
v 0.442393 -0.316208 -0.532552
v 0.415585 -0.084183 -0.346620
v 0.415585 -0.084183 -0.346620
v 0.442393 -0.316208 -0.532552
v 0.432393 -0.096208 -0.332552
v 0.415585 -0.084183 -0.346620
v 0.432393 -0.096208 -0.332552
v 0.440000 -0.080000 -0.350000
v 0.442393 -0.316208 -0.532552
v 0.450000 -0.300000 -0.550000
v 0.466807 -0.312025 -0.535932
v 0.442393 -0.316208 -0.532552
v 0.466807 -0.312025 -0.535932
v 0.432393 -0.096208 -0.332552
v 0.432393 -0.096208 -0.332552
v 0.466807 -0.312025 -0.535932
v 0.456807 -0.092025 -0.335932
v 0.432393 -0.096208 -0.332552
v 0.456807 -0.092025 -0.335932
v 0.440000 -0.080000 -0.350000
vn 0.0336 -0.7395 -0.6723
vn 0.9520 -0.1811 0.2468
vn -0.0336 0.7395 0.6723
vn 0.7395 0.4709 -0.4810
vn -0.2125 0.6520 -0.7278
vn -0.9520 0.1811 -0.2468
vn -0.7395 -0.4709 0.4810
vn 0.2125 -0.6520 0.7278
s 0
usemtl material_0
f 1697//215 1698//215 1699//215
f 1700//216 1701//216 1702//216
f 1703//216 1704//216 1705//216
f 1706//217 1707//217 1708//217
f 1709//215 1710//215 1711//215
f 1712//218 1713//218 1714//218
f 1715//218 1716//218 1717//218
f 1718//217 1719//217 1720//217
f 1721//215 1722//215 1723//215
f 1724//219 1725//219 1726//219
f 1727//219 1728//219 1729//219
f 1730//217 1731//217 1732//217
f 1733//215 1734//215 1735//215
f 1736//220 1737//220 1738//220
f 1739//220 1740//220 1741//220
f 1742//217 1743//217 1744//217
f 1745//215 1746//215 1747//215
f 1748//221 1749//221 1750//221
f 1751//221 1752//221 1753//221
f 1754//217 1755//217 1756//217
f 1757//215 1758//215 1759//215
f 1760//222 1761//222 1762//222
f 1763//222 1764//222 1765//222
f 1766//217 1767//217 1768//217
o geometry_4
v -0.485000 -0.044620 0.168532
v -0.485000 -0.044620 0.331468
v -0.485000 0.005380 0.168532
v -0.485000 0.005380 0.331468
v 0.485000 -0.044620 0.168532
v 0.485000 -0.044620 0.331468
v 0.485000 0.005380 0.168532
v 0.485000 0.005380 0.331468
vn -1.0000 -0.0000 -0.0000
vn -0.0000 -1.0000 -0.0000
vn -0.0000 -0.0000 -1.0000
vn -0.0000 -0.0000 1.0000
vn -0.0000 1.0000 -0.0000
vn 1.0000 -0.0000 -0.0000
s 0
usemtl material_3
f 1770//223 1772//223 1769//223
f 1773//224 1770//224 1769//224
f 1769//223 1772//223 1771//223
f 1771//225 1773//225 1769//225
f 1770//226 1776//226 1772//226
f 1774//224 1770//224 1773//224
f 1774//226 1776//226 1770//226
f 1772//227 1776//227 1771//227
f 1775//225 1773//225 1771//225
f 1771//227 1776//227 1775//227
f 1775//228 1774//228 1773//228
f 1776//228 1774//228 1775//228
o geometry_5
v -0.485000 -0.051572 0.334868
v -0.485000 -0.051572 0.498466
v -0.485000 -0.001572 0.334868
v -0.485000 -0.001572 0.498466
v 0.485000 -0.051572 0.334868
v 0.485000 -0.051572 0.498466
v 0.485000 -0.001572 0.334868
v 0.485000 -0.001572 0.498466
vn -1.0000 -0.0000 -0.0000
vn -0.0000 -1.0000 -0.0000
vn -0.0000 -0.0000 -1.0000
vn -0.0000 -0.0000 1.0000
vn -0.0000 1.0000 -0.0000
vn 1.0000 -0.0000 -0.0000
s 0
usemtl material_2
f 1778//229 1780//229 1777//229
f 1781//230 1778//230 1777//230
f 1777//229 1780//229 1779//229
f 1779//231 1781//231 1777//231
f 1778//232 1784//232 1780//232
f 1782//230 1778//230 1781//230
f 1782//232 1784//232 1778//232
f 1780//233 1784//233 1779//233
f 1783//231 1781//231 1779//231
f 1779//233 1784//233 1783//233
f 1783//234 1782//234 1781//234
f 1784//234 1782//234 1783//234
o geometry_6
v -0.470000 -0.100000 -0.500000
v -0.470000 -0.100000 0.500000
v -0.470000 -0.050000 -0.500000
v -0.470000 -0.050000 0.500000
v -0.410000 -0.100000 -0.500000
v -0.410000 -0.100000 0.500000
v -0.410000 -0.050000 -0.500000
v -0.410000 -0.050000 0.500000
vn -1.0000 -0.0000 -0.0000
vn -0.0000 -1.0000 -0.0000
vn -0.0000 -0.0000 -1.0000
vn -0.0000 -0.0000 1.0000
vn -0.0000 1.0000 -0.0000
vn 1.0000 -0.0000 -0.0000
s 0
usemtl material_0
f 1786//235 1788//235 1785//235
f 1789//236 1786//236 1785//236
f 1785//235 1788//235 1787//235
f 1787//237 1789//237 1785//237
f 1786//238 1792//238 1788//238
f 1790//236 1786//236 1789//236
f 1790//238 1792//238 1786//238
f 1788//239 1792//239 1787//239
f 1791//237 1789//237 1787//237
f 1787//239 1792//239 1791//239
f 1791//240 1790//240 1789//240
f 1792//240 1790//240 1791//240
o geometry_7
v 0.410000 -0.100000 -0.500000
v 0.410000 -0.100000 0.500000
v 0.410000 -0.050000 -0.500000
v 0.410000 -0.050000 0.500000
v 0.470000 -0.100000 -0.500000
v 0.470000 -0.100000 0.500000
v 0.470000 -0.050000 -0.500000
v 0.470000 -0.050000 0.500000
vn -1.0000 -0.0000 -0.0000
vn -0.0000 -1.0000 -0.0000
vn -0.0000 -0.0000 -1.0000
vn -0.0000 -0.0000 1.0000
vn -0.0000 1.0000 -0.0000
vn 1.0000 -0.0000 -0.0000
s 0
usemtl material_0
f 1794//241 1796//241 1793//241
f 1797//242 1794//242 1793//242
f 1793//241 1796//241 1795//241
f 1795//243 1797//243 1793//243
f 1794//244 1800//244 1796//244
f 1798//242 1794//242 1797//242
f 1798//244 1800//244 1794//244
f 1796//245 1800//245 1795//245
f 1799//243 1797//243 1795//243
f 1795//245 1800//245 1799//245
f 1799//246 1798//246 1797//246
f 1800//246 1798//246 1799//246
o geometry_8
v -0.439967 -0.000000 -0.450000
v -0.469967 -0.000000 -0.450000
v -0.454967 -0.000000 -0.475981
v -0.439967 -0.000000 -0.450000
v -0.454967 -0.000000 -0.475981
v -0.439967 0.420000 -0.450000
v -0.439967 0.420000 -0.450000
v -0.454967 -0.000000 -0.475981
v -0.454967 0.420000 -0.475981
v -0.439967 0.420000 -0.450000
v -0.454967 0.420000 -0.475981
v -0.469967 0.420000 -0.450000
v -0.454967 -0.000000 -0.475981
v -0.469967 -0.000000 -0.450000
v -0.484967 -0.000000 -0.475981
v -0.454967 -0.000000 -0.475981
v -0.484967 -0.000000 -0.475981
v -0.454967 0.420000 -0.475981
v -0.454967 0.420000 -0.475981
v -0.484967 -0.000000 -0.475981
v -0.484967 0.420000 -0.475981
v -0.454967 0.420000 -0.475981
v -0.484967 0.420000 -0.475981
v -0.469967 0.420000 -0.450000
v -0.484967 -0.000000 -0.475981
v -0.469967 -0.000000 -0.450000
v -0.499967 -0.000000 -0.450000
v -0.484967 -0.000000 -0.475981
v -0.499967 -0.000000 -0.450000
v -0.484967 0.420000 -0.475981
v -0.484967 0.420000 -0.475981
v -0.499967 -0.000000 -0.450000
v -0.499967 0.420000 -0.450000
v -0.484967 0.420000 -0.475981
v -0.499967 0.420000 -0.450000
v -0.469967 0.420000 -0.450000
v -0.499967 -0.000000 -0.450000
v -0.469967 -0.000000 -0.450000
v -0.484967 -0.000000 -0.424019
v -0.499967 -0.000000 -0.450000
v -0.484967 -0.000000 -0.424019
v -0.499967 0.420000 -0.450000
v -0.499967 0.420000 -0.450000
v -0.484967 -0.000000 -0.424019
v -0.484967 0.420000 -0.424019
v -0.499967 0.420000 -0.450000
v -0.484967 0.420000 -0.424019
v -0.469967 0.420000 -0.450000
v -0.484967 -0.000000 -0.424019
v -0.469967 -0.000000 -0.450000
v -0.454967 -0.000000 -0.424019
v -0.484967 -0.000000 -0.424019
v -0.454967 -0.000000 -0.424019
v -0.484967 0.420000 -0.424019
v -0.484967 0.420000 -0.424019
v -0.454967 -0.000000 -0.424019
v -0.454967 0.420000 -0.424019
v -0.484967 0.420000 -0.424019
v -0.454967 0.420000 -0.424019
v -0.469967 0.420000 -0.450000
v -0.454967 -0.000000 -0.424019
v -0.469967 -0.000000 -0.450000
v -0.439967 -0.000000 -0.450000
v -0.454967 -0.000000 -0.424019
v -0.439967 -0.000000 -0.450000
v -0.454967 0.420000 -0.424019
v -0.454967 0.420000 -0.424019
v -0.439967 -0.000000 -0.450000
v -0.439967 0.420000 -0.450000
v -0.454967 0.420000 -0.424019
v -0.439967 0.420000 -0.450000
v -0.469967 0.420000 -0.450000
vn -0.0000 -1.0000 -0.0000
vn 0.8660 -0.0000 -0.5000
vn -0.0000 1.0000 -0.0000
vn -0.0000 -0.0000 -1.0000
vn -0.8660 -0.0000 -0.5000
vn -0.8660 -0.0000 0.5000
vn -0.0000 -0.0000 1.0000
vn 0.8660 -0.0000 0.5000
s 0
usemtl material_0
f 1801//247 1802//247 1803//247
f 1804//248 1805//248 1806//248
f 1807//248 1808//248 1809//248
f 1810//249 1811//249 1812//249
f 1813//247 1814//247 1815//247
f 1816//250 1817//250 1818//250
f 1819//250 1820//250 1821//250
f 1822//249 1823//249 1824//249
f 1825//247 1826//247 1827//247
f 1828//251 1829//251 1830//251
f 1831//251 1832//251 1833//251
f 1834//249 1835//249 1836//249
f 1837//247 1838//247 1839//247
f 1840//252 1841//252 1842//252
f 1843//252 1844//252 1845//252
f 1846//249 1847//249 1848//249
f 1849//247 1850//247 1851//247
f 1852//253 1853//253 1854//253
f 1855//253 1856//253 1857//253
f 1858//249 1859//249 1860//249
f 1861//247 1862//247 1863//247
f 1864//254 1865//254 1866//254
f 1867//254 1868//254 1869//254
f 1870//249 1871//249 1872//249
o geometry_9
v -0.412130 0.000000 0.000000
v -0.442130 0.000000 0.000000
v -0.427130 -0.000000 -0.025981
v -0.412130 0.000000 0.000000
v -0.427130 -0.000000 -0.025981
v -0.412130 0.420000 -0.000000
v -0.412130 0.420000 -0.000000
v -0.427130 -0.000000 -0.025981
v -0.427130 0.420000 -0.025981
v -0.412130 0.420000 -0.000000
v -0.427130 0.420000 -0.025981
v -0.442130 0.420000 -0.000000
v -0.427130 -0.000000 -0.025981
v -0.442130 0.000000 0.000000
v -0.457130 -0.000000 -0.025981
v -0.427130 -0.000000 -0.025981
v -0.457130 -0.000000 -0.025981
v -0.427130 0.420000 -0.025981
v -0.427130 0.420000 -0.025981
v -0.457130 -0.000000 -0.025981
v -0.457130 0.420000 -0.025981
v -0.427130 0.420000 -0.025981
v -0.457130 0.420000 -0.025981
v -0.442130 0.420000 -0.000000
v -0.457130 -0.000000 -0.025981
v -0.442130 0.000000 0.000000
v -0.472130 0.000000 0.000000
v -0.457130 -0.000000 -0.025981
v -0.472130 0.000000 0.000000
v -0.457130 0.420000 -0.025981
v -0.457130 0.420000 -0.025981
v -0.472130 0.000000 0.000000
v -0.472130 0.420000 -0.000000
v -0.457130 0.420000 -0.025981
v -0.472130 0.420000 -0.000000
v -0.442130 0.420000 -0.000000
v -0.472130 0.000000 0.000000
v -0.442130 0.000000 0.000000
v -0.457130 0.000000 0.025981
v -0.472130 0.000000 0.000000
v -0.457130 0.000000 0.025981
v -0.472130 0.420000 -0.000000
v -0.472130 0.420000 -0.000000
v -0.457130 0.000000 0.025981
v -0.457130 0.420000 0.025981
v -0.472130 0.420000 -0.000000
v -0.457130 0.420000 0.025981
v -0.442130 0.420000 -0.000000
v -0.457130 0.000000 0.025981
v -0.442130 0.000000 0.000000
v -0.427130 0.000000 0.025981
v -0.457130 0.000000 0.025981
v -0.427130 0.000000 0.025981
v -0.457130 0.420000 0.025981
v -0.457130 0.420000 0.025981
v -0.427130 0.000000 0.025981
v -0.427130 0.420000 0.025981
v -0.457130 0.420000 0.025981
v -0.427130 0.420000 0.025981
v -0.442130 0.420000 -0.000000
v -0.427130 0.000000 0.025981
v -0.442130 0.000000 0.000000
v -0.412130 0.000000 0.000000
v -0.427130 0.000000 0.025981
v -0.412130 0.000000 0.000000
v -0.427130 0.420000 0.025981
v -0.427130 0.420000 0.025981
v -0.412130 0.000000 0.000000
v -0.412130 0.420000 -0.000000
v -0.427130 0.420000 0.025981
v -0.412130 0.420000 -0.000000
v -0.442130 0.420000 -0.000000
vn -0.0000 -1.0000 -0.0000
vn 0.8660 -0.0000 -0.5000
vn -0.0000 1.0000 -0.0000
vn -0.0000 -0.0000 -1.0000
vn -0.8660 -0.0000 -0.5000
vn -0.8660 -0.0000 0.5000
vn -0.0000 -0.0000 1.0000
vn 0.8660 -0.0000 0.5000
s 0
usemtl material_0
f 1873//255 1874//255 1875//255
f 1876//256 1877//256 1878//256
f 1879//256 1880//256 1881//256
f 1882//257 1883//257 1884//257
f 1885//255 1886//255 1887//255
f 1888//258 1889//258 1890//258
f 1891//258 1892//258 1893//258
f 1894//257 1895//257 1896//257
f 1897//255 1898//255 1899//255
f 1900//259 1901//259 1902//259
f 1903//259 1904//259 1905//259
f 1906//257 1907//257 1908//257
f 1909//255 1910//255 1911//255
f 1912//260 1913//260 1914//260
f 1915//260 1916//260 1917//260
f 1918//257 1919//257 1920//257
f 1921//255 1922//255 1923//255
f 1924//261 1925//261 1926//261
f 1927//261 1928//261 1929//261
f 1930//257 1931//257 1932//257
f 1933//255 1934//255 1935//255
f 1936//262 1937//262 1938//262
f 1939//262 1940//262 1941//262
f 1942//257 1943//257 1944//257
