# https://github.com/mikedh/trimesh
mtllib jail_fence_half.mtl

o geometry_0
usemtl material_0
v -0.47500000 0.00000000 -0.02500000
v -0.47500000 0.00000000 0.02500000
v -0.47500000 1.00000000 -0.02500000
v -0.47500000 1.00000000 0.02500000
v -0.42500000 0.00000000 -0.02500000
v -0.42500000 0.00000000 0.02500000
v -0.42500000 1.00000000 -0.02500000
v -0.42500000 1.00000000 0.02500000
f 2 4 1
f 5 2 1
f 1 4 3
f 3 5 1
f 2 8 4
f 6 2 5
f 6 8 2
f 4 8 3
f 7 5 3
f 3 8 7
f 7 6 5
f 8 6 7

o geometry_1
usemtl material_0
v 0.42700000 0.00000000 -0.02500000
v 0.42700000 0.00000000 0.02500000
v 0.42700000 1.00000000 -0.02500000
v 0.42700000 1.00000000 0.02500000
v 0.47700000 0.00000000 -0.02500000
v 0.47700000 0.00000000 0.02500000
v 0.47700000 1.00000000 -0.02500000
v 0.47700000 1.00000000 0.02500000
f 10 12 9
f 13 10 9
f 9 12 11
f 11 13 9
f 10 16 12
f 14 10 13
f 14 16 10
f 12 16 11
f 15 13 11
f 11 16 15
f 15 14 13
f 16 14 15

o geometry_2
usemtl material_1
v -0.47000000 0.26262860 -0.01500000
v -0.47000000 0.26262860 0.01500000
v -0.47000000 0.30762860 -0.01500000
v -0.47000000 0.30762860 0.01500000
v 0.47000000 0.26262860 -0.01500000
v 0.47000000 0.26262860 0.01500000
v 0.47000000 0.30762860 -0.01500000
v 0.47000000 0.30762860 0.01500000
f 18 20 17
f 21 18 17
f 17 20 19
f 19 21 17
f 18 24 20
f 22 18 21
f 22 24 18
f 20 24 19
f 23 21 19
f 19 24 23
f 23 22 21
f 24 22 23

o geometry_3
usemtl material_2
v -0.47000000 0.59173101 -0.01500000
v -0.47000000 0.59173101 0.01500000
v -0.47000000 0.63673101 -0.01500000
v -0.47000000 0.63673101 0.01500000
v 0.47000000 0.59173101 -0.01500000
v 0.47000000 0.59173101 0.01500000
v 0.47000000 0.63673101 -0.01500000
v 0.47000000 0.63673101 0.01500000
f 26 28 25
f 29 26 25
f 25 28 27
f 27 29 25
f 26 32 28
f 30 26 29
f 30 32 26
f 28 32 27
f 31 29 27
f 27 32 31
f 31 30 29
f 32 30 31

o geometry_4
usemtl material_1
v -0.47000000 0.87473759 -0.01500000
v -0.47000000 0.87473759 0.01500000
v -0.47000000 0.91973759 -0.01500000
v -0.47000000 0.91973759 0.01500000
v 0.47000000 0.87473759 -0.01500000
v 0.47000000 0.87473759 0.01500000
v 0.47000000 0.91973759 -0.01500000
v 0.47000000 0.91973759 0.01500000
f 34 36 33
f 37 34 33
f 33 36 35
f 35 37 33
f 34 40 36
f 38 34 37
f 38 40 34
f 36 40 35
f 39 37 35
f 35 40 39
f 39 38 37
f 40 38 39

o geometry_5
usemtl material_0
v 0.23044274 0.00667286 -0.01500000
v 0.23044274 0.00667286 0.01500000
v -0.16289418 0.98021591 -0.01500000
v -0.16289418 0.98021591 0.01500000
v 0.26289418 0.01978409 -0.01500000
v 0.26289418 0.01978409 0.01500000
v -0.13044274 0.99332714 -0.01500000
v -0.13044274 0.99332714 0.01500000
f 42 44 41
f 45 42 41
f 41 44 43
f 43 45 41
f 42 48 44
f 46 42 45
f 46 48 42
f 44 48 43
f 47 45 43
f 43 48 47
f 47 46 45
f 48 46 47

