# https://github.com/mikedh/trimesh
mtllib inn_bar.mtl

o geometry_0
usemtl material_0
v -1.10000000 0.00000000 -0.25000000
v -1.10000000 0.00000000 0.25000000
v -1.10000000 0.55000000 -0.25000000
v -1.10000000 0.55000000 0.25000000
v 1.10000000 0.00000000 -0.25000000
v 1.10000000 0.00000000 0.25000000
v 1.10000000 0.55000000 -0.25000000
v 1.10000000 0.55000000 0.25000000
f 2 4 1
f 5 2 1
f 1 4 3
f 3 5 1
f 2 8 4
f 6 2 5
f 6 8 2
f 4 8 3
f 7 5 3
f 3 8 7
f 7 6 5
f 8 6 7

o geometry_1
usemtl material_1
v -1.13000000 0.55000000 -0.29000000
v -1.13000000 0.55000000 0.29000000
v -1.13000000 0.60000000 -0.29000000
v -1.13000000 0.60000000 0.29000000
v 1.13000000 0.55000000 -0.29000000
v 1.13000000 0.55000000 0.29000000
v 1.13000000 0.60000000 -0.29000000
v 1.13000000 0.60000000 0.29000000
f 10 12 9
f 13 10 9
f 9 12 11
f 11 13 9
f 10 16 12
f 14 10 13
f 14 16 10
f 12 16 11
f 15 13 11
f 11 16 15
f 15 14 13
f 16 14 15

o geometry_2
usemtl material_2
v -0.82800000 0.02000000 0.25000000
v -0.82800000 0.02000000 0.26000000
v -0.82800000 0.53000000 0.25000000
v -0.82800000 0.53000000 0.26000000
v -0.82200000 0.02000000 0.25000000
v -0.82200000 0.02000000 0.26000000
v -0.82200000 0.53000000 0.25000000
v -0.82200000 0.53000000 0.26000000
f 18 20 17
f 21 18 17
f 17 20 19
f 19 21 17
f 18 24 20
f 22 18 21
f 22 24 18
f 20 24 19
f 23 21 19
f 19 24 23
f 23 22 21
f 24 22 23

o geometry_3
usemtl material_2
v -0.55300000 0.02000000 0.25000000
v -0.55300000 0.02000000 0.26000000
v -0.55300000 0.53000000 0.25000000
v -0.55300000 0.53000000 0.26000000
v -0.54700000 0.02000000 0.25000000
v -0.54700000 0.02000000 0.26000000
v -0.54700000 0.53000000 0.25000000
v -0.54700000 0.53000000 0.26000000
f 26 28 25
f 29 26 25
f 25 28 27
f 27 29 25
f 26 32 28
f 30 26 29
f 30 32 26
f 28 32 27
f 31 29 27
f 27 32 31
f 31 30 29
f 32 30 31

o geometry_4
usemtl material_2
v -0.27800000 0.02000000 0.25000000
v -0.27800000 0.02000000 0.26000000
v -0.27800000 0.53000000 0.25000000
v -0.27800000 0.53000000 0.26000000
v -0.27200000 0.02000000 0.25000000
v -0.27200000 0.02000000 0.26000000
v -0.27200000 0.53000000 0.25000000
v -0.27200000 0.53000000 0.26000000
f 34 36 33
f 37 34 33
f 33 36 35
f 35 37 33
f 34 40 36
f 38 34 37
f 38 40 34
f 36 40 35
f 39 37 35
f 35 40 39
f 39 38 37
f 40 38 39

o geometry_5
usemtl material_2
v -0.00300000 0.02000000 0.25000000
v -0.00300000 0.02000000 0.26000000
v -0.00300000 0.53000000 0.25000000
v -0.00300000 0.53000000 0.26000000
v 0.00300000 0.02000000 0.25000000
v 0.00300000 0.02000000 0.26000000
v 0.00300000 0.53000000 0.25000000
v 0.00300000 0.53000000 0.26000000
f 42 44 41
f 45 42 41
f 41 44 43
f 43 45 41
f 42 48 44
f 46 42 45
f 46 48 42
f 44 48 43
f 47 45 43
f 43 48 47
f 47 46 45
f 48 46 47

o geometry_6
usemtl material_2
v 0.27200000 0.02000000 0.25000000
v 0.27200000 0.02000000 0.26000000
v 0.27200000 0.53000000 0.25000000
v 0.27200000 0.53000000 0.26000000
v 0.27800000 0.02000000 0.25000000
v 0.27800000 0.02000000 0.26000000
v 0.27800000 0.53000000 0.25000000
v 0.27800000 0.53000000 0.26000000
f 50 52 49
f 53 50 49
f 49 52 51
f 51 53 49
f 50 56 52
f 54 50 53
f 54 56 50
f 52 56 51
f 55 53 51
f 51 56 55
f 55 54 53
f 56 54 55

o geometry_7
usemtl material_2
v 0.54700000 0.02000000 0.25000000
v 0.54700000 0.02000000 0.26000000
v 0.54700000 0.53000000 0.25000000
v 0.54700000 0.53000000 0.26000000
v 0.55300000 0.02000000 0.25000000
v 0.55300000 0.02000000 0.26000000
v 0.55300000 0.53000000 0.25000000
v 0.55300000 0.53000000 0.26000000
f 58 60 57
f 61 58 57
f 57 60 59
f 59 61 57
f 58 64 60
f 62 58 61
f 62 64 58
f 60 64 59
f 63 61 59
f 59 64 63
f 63 62 61
f 64 62 63

o geometry_8
usemtl material_2
v 0.82200000 0.02000000 0.25000000
v 0.82200000 0.02000000 0.26000000
v 0.82200000 0.53000000 0.25000000
v 0.82200000 0.53000000 0.26000000
v 0.82800000 0.02000000 0.25000000
v 0.82800000 0.02000000 0.26000000
v 0.82800000 0.53000000 0.25000000
v 0.82800000 0.53000000 0.26000000
f 66 68 65
f 69 66 65
f 65 68 67
f 67 69 65
f 66 72 68
f 70 66 69
f 70 72 66
f 68 72 67
f 71 69 67
f 67 72 71
f 71 70 69
f 72 70 71

o geometry_9
usemtl material_2
v -1.10000000 0.00000000 -0.26000000
v -1.10000000 0.00000000 0.26000000
v -1.10000000 0.06000000 -0.26000000
v -1.10000000 0.06000000 0.26000000
v 1.10000000 0.00000000 -0.26000000
v 1.10000000 0.00000000 0.26000000
v 1.10000000 0.06000000 -0.26000000
v 1.10000000 0.06000000 0.26000000
f 74 76 73
f 77 74 73
f 73 76 75
f 75 77 73
f 74 80 76
f 78 74 77
f 78 80 74
f 76 80 75
f 79 77 75
f 75 80 79
f 79 78 77
f 80 78 79

o geometry_10
usemtl material_3
v -1.05000000 0.08500000 0.26500000
v -1.05000000 0.08500000 0.29500000
v -1.05000000 0.11500000 0.26500000
v -1.05000000 0.11500000 0.29500000
v 1.05000000 0.08500000 0.26500000
v 1.05000000 0.08500000 0.29500000
v 1.05000000 0.11500000 0.26500000
v 1.05000000 0.11500000 0.29500000
f 82 84 81
f 85 82 81
f 81 84 83
f 83 85 81
f 82 88 84
f 86 82 85
f 86 88 82
f 84 88 83
f 87 85 83
f 83 88 87
f 87 86 85
f 88 86 87

o geometry_11
usemtl material_4
v -0.93500000 0.43500000 -0.63000000
v -0.93500000 0.43500000 -0.47000000
v -0.93500000 0.46500000 -0.63000000
v -0.93500000 0.46500000 -0.47000000
v 0.93500000 0.43500000 -0.63000000
v 0.93500000 0.43500000 -0.47000000
v 0.93500000 0.46500000 -0.63000000
v 0.93500000 0.46500000 -0.47000000
f 90 92 89
f 93 90 89
f 89 92 91
f 91 93 89
f 90 96 92
f 94 90 93
f 94 96 90
f 92 96 91
f 95 93 91
f 91 96 95
f 95 94 93
f 96 94 95

o geometry_12
usemtl material_4
v -0.93500000 0.78500000 -0.63000000
v -0.93500000 0.78500000 -0.47000000
v -0.93500000 0.81500000 -0.63000000
v -0.93500000 0.81500000 -0.47000000
v 0.93500000 0.78500000 -0.63000000
v 0.93500000 0.78500000 -0.47000000
v 0.93500000 0.81500000 -0.63000000
v 0.93500000 0.81500000 -0.47000000
f 98 100 97
f 101 98 97
f 97 100 99
f 99 101 97
f 98 104 100
f 102 98 101
f 102 104 98
f 100 104 99
f 103 101 99
f 99 104 103
f 103 102 101
f 104 102 103

o geometry_13
usemtl material_4
v -0.93500000 1.08500000 -0.63000000
v -0.93500000 1.08500000 -0.47000000
v -0.93500000 1.11500000 -0.63000000
v -0.93500000 1.11500000 -0.47000000
v 0.93500000 1.08500000 -0.63000000
v 0.93500000 1.08500000 -0.47000000
v 0.93500000 1.11500000 -0.63000000
v 0.93500000 1.11500000 -0.47000000
f 106 108 105
f 109 106 105
f 105 108 107
f 107 109 105
f 106 112 108
f 110 106 109
f 110 112 106
f 108 112 107
f 111 109 107
f 107 112 111
f 111 110 109
f 112 110 111

o geometry_14
usemtl material_2
v -0.94900000 0.00000000 -0.57500000
v -0.94900000 0.00000000 -0.52500000
v -0.94900000 1.15000000 -0.57500000
v -0.94900000 1.15000000 -0.52500000
v -0.89900000 0.00000000 -0.57500000
v -0.89900000 0.00000000 -0.52500000
v -0.89900000 1.15000000 -0.57500000
v -0.89900000 1.15000000 -0.52500000
f 114 116 113
f 117 114 113
f 113 116 115
f 115 117 113
f 114 120 116
f 118 114 117
f 118 120 114
f 116 120 115
f 119 117 115
f 115 120 119
f 119 118 117
f 120 118 119

o geometry_15
usemtl material_2
v 0.89900000 0.00000000 -0.57500000
v 0.89900000 0.00000000 -0.52500000
v 0.89900000 1.15000000 -0.57500000
v 0.89900000 1.15000000 -0.52500000
v 0.94900000 0.00000000 -0.57500000
v 0.94900000 0.00000000 -0.52500000
v 0.94900000 1.15000000 -0.57500000
v 0.94900000 1.15000000 -0.52500000
f 122 124 121
f 125 122 121
f 121 124 123
f 123 125 121
f 122 128 124
f 126 122 125
f 126 128 122
f 124 128 123
f 127 125 123
f 123 128 127
f 127 126 125
f 128 126 127

o geometry_16
usemtl material_5
v -0.77798308 0.46500000 -0.55000000
v -0.74998308 0.46500000 -0.55000000
v -0.74998308 0.64720029 -0.55000000
v -0.77798308 0.64720029 -0.55000000
v -0.75818409 0.46500000 -0.56979899
v -0.75818409 0.64720029 -0.56979899
v -0.77798308 0.46500000 -0.57800000
v -0.77798308 0.64720029 -0.57800000
v -0.79778207 0.46500000 -0.56979899
v -0.79778207 0.64720029 -0.56979899
v -0.80598308 0.46500000 -0.55000000
v -0.80598308 0.64720029 -0.55000000
v -0.79778207 0.46500000 -0.53020101
v -0.79778207 0.64720029 -0.53020101
v -0.77798308 0.46500000 -0.52200000
v -0.77798308 0.64720029 -0.52200000
v -0.75818409 0.46500000 -0.53020101
v -0.75818409 0.64720029 -0.53020101
f 130 129 133
f 130 133 131
f 131 133 134
f 131 134 132
f 133 129 135
f 133 135 134
f 134 135 136
f 134 136 132
f 135 129 137
f 135 137 136
f 136 137 138
f 136 138 132
f 137 129 139
f 137 139 138
f 138 139 140
f 138 140 132
f 139 129 141
f 139 141 140
f 140 141 142
f 140 142 132
f 141 129 143
f 141 143 142
f 142 143 144
f 142 144 132
f 143 129 145
f 143 145 144
f 144 145 146
f 144 146 132
f 145 129 130
f 145 130 146
f 146 130 131
f 146 131 132

o geometry_17
usemtl material_5
v -0.77798308 0.64720029 -0.55000000
v -0.76698308 0.64720029 -0.55000000
v -0.76698308 0.69720029 -0.55000000
v -0.77798308 0.69720029 -0.55000000
v -0.77020491 0.64720029 -0.55777817
v -0.77020491 0.69720029 -0.55777817
v -0.77798308 0.64720029 -0.56100000
v -0.77798308 0.69720029 -0.56100000
v -0.78576126 0.64720029 -0.55777817
v -0.78576126 0.69720029 -0.55777817
v -0.78898308 0.64720029 -0.55000000
v -0.78898308 0.69720029 -0.55000000
v -0.78576126 0.64720029 -0.54222183
v -0.78576126 0.69720029 -0.54222183
v -0.77798308 0.64720029 -0.53900000
v -0.77798308 0.69720029 -0.53900000
v -0.77020491 0.64720029 -0.54222183
v -0.77020491 0.69720029 -0.54222183
f 148 147 151
f 148 151 149
f 149 151 152
f 149 152 150
f 151 147 153
f 151 153 152
f 152 153 154
f 152 154 150
f 153 147 155
f 153 155 154
f 154 155 156
f 154 156 150
f 155 147 157
f 155 157 156
f 156 157 158
f 156 158 150
f 157 147 159
f 157 159 158
f 158 159 160
f 158 160 150
f 159 147 161
f 159 161 160
f 160 161 162
f 160 162 150
f 161 147 163
f 161 163 162
f 162 163 164
f 162 164 150
f 163 147 148
f 163 148 164
f 164 148 149
f 164 149 150

o geometry_18
usemtl material_6
v -0.79298308 0.51288011 -0.52200000
v -0.79298308 0.51288011 -0.52000000
v -0.79298308 0.56288011 -0.52200000
v -0.79298308 0.56288011 -0.52000000
v -0.76298308 0.51288011 -0.52200000
v -0.76298308 0.51288011 -0.52000000
v -0.76298308 0.56288011 -0.52200000
v -0.76298308 0.56288011 -0.52000000
f 166 168 165
f 169 166 165
f 165 168 167
f 167 169 165
f 166 172 168
f 170 166 169
f 170 172 166
f 168 172 167
f 171 169 167
f 167 172 171
f 171 170 169
f 172 170 171

o geometry_19
usemtl material_7
v -0.54730299 0.46500000 -0.55000000
v -0.51930299 0.46500000 -0.55000000
v -0.51930299 0.66495325 -0.55000000
v -0.54730299 0.66495325 -0.55000000
v -0.52750400 0.46500000 -0.56979899
v -0.52750400 0.66495325 -0.56979899
v -0.54730299 0.46500000 -0.57800000
v -0.54730299 0.66495325 -0.57800000
v -0.56710198 0.46500000 -0.56979899
v -0.56710198 0.66495325 -0.56979899
v -0.57530299 0.46500000 -0.55000000
v -0.57530299 0.66495325 -0.55000000
v -0.56710198 0.46500000 -0.53020101
v -0.56710198 0.66495325 -0.53020101
v -0.54730299 0.46500000 -0.52200000
v -0.54730299 0.66495325 -0.52200000
v -0.52750400 0.46500000 -0.53020101
v -0.52750400 0.66495325 -0.53020101
f 174 173 177
f 174 177 175
f 175 177 178
f 175 178 176
f 177 173 179
f 177 179 178
f 178 179 180
f 178 180 176
f 179 173 181
f 179 181 180
f 180 181 182
f 180 182 176
f 181 173 183
f 181 183 182
f 182 183 184
f 182 184 176
f 183 173 185
f 183 185 184
f 184 185 186
f 184 186 176
f 185 173 187
f 185 187 186
f 186 187 188
f 186 188 176
f 187 173 189
f 187 189 188
f 188 189 190
f 188 190 176
f 189 173 174
f 189 174 190
f 190 174 175
f 190 175 176

o geometry_20
usemtl material_7
v -0.54730299 0.66495325 -0.55000000
v -0.53630299 0.66495325 -0.55000000
v -0.53630299 0.71495325 -0.55000000
v -0.54730299 0.71495325 -0.55000000
v -0.53952481 0.66495325 -0.55777817
v -0.53952481 0.71495325 -0.55777817
v -0.54730299 0.66495325 -0.56100000
v -0.54730299 0.71495325 -0.56100000
v -0.55508116 0.66495325 -0.55777817
v -0.55508116 0.71495325 -0.55777817
v -0.55830299 0.66495325 -0.55000000
v -0.55830299 0.71495325 -0.55000000
v -0.55508116 0.66495325 -0.54222183
v -0.55508116 0.71495325 -0.54222183
v -0.54730299 0.66495325 -0.53900000
v -0.54730299 0.71495325 -0.53900000
v -0.53952481 0.66495325 -0.54222183
v -0.53952481 0.71495325 -0.54222183
f 192 191 195
f 192 195 193
f 193 195 196
f 193 196 194
f 195 191 197
f 195 197 196
f 196 197 198
f 196 198 194
f 197 191 199
f 197 199 198
f 198 199 200
f 198 200 194
f 199 191 201
f 199 201 200
f 200 201 202
f 200 202 194
f 201 191 203
f 201 203 202
f 202 203 204
f 202 204 194
f 203 191 205
f 203 205 204
f 204 205 206
f 204 206 194
f 205 191 207
f 205 207 206
f 206 207 208
f 206 208 194
f 207 191 192
f 207 192 208
f 208 192 193
f 208 193 194

o geometry_21
usemtl material_8
v -0.25282824 0.46500000 -0.55000000
v -0.22482824 0.46500000 -0.55000000
v -0.22482824 0.63560680 -0.55000000
v -0.25282824 0.63560680 -0.55000000
v -0.23302925 0.46500000 -0.56979899
v -0.23302925 0.63560680 -0.56979899
v -0.25282824 0.46500000 -0.57800000
v -0.25282824 0.63560680 -0.57800000
v -0.27262723 0.46500000 -0.56979899
v -0.27262723 0.63560680 -0.56979899
v -0.28082824 0.46500000 -0.55000000
v -0.28082824 0.63560680 -0.55000000
v -0.27262723 0.46500000 -0.53020101
v -0.27262723 0.63560680 -0.53020101
v -0.25282824 0.46500000 -0.52200000
v -0.25282824 0.63560680 -0.52200000
v -0.23302925 0.46500000 -0.53020101
v -0.23302925 0.63560680 -0.53020101
f 210 209 213
f 210 213 211
f 211 213 214
f 211 214 212
f 213 209 215
f 213 215 214
f 214 215 216
f 214 216 212
f 215 209 217
f 215 217 216
f 216 217 218
f 216 218 212
f 217 209 219
f 217 219 218
f 218 219 220
f 218 220 212
f 219 209 221
f 219 221 220
f 220 221 222
f 220 222 212
f 221 209 223
f 221 223 222
f 222 223 224
f 222 224 212
f 223 209 225
f 223 225 224
f 224 225 226
f 224 226 212
f 225 209 210
f 225 210 226
f 226 210 211
f 226 211 212

o geometry_22
usemtl material_8
v -0.25282824 0.63560680 -0.55000000
v -0.24182824 0.63560680 -0.55000000
v -0.24182824 0.68560680 -0.55000000
v -0.25282824 0.68560680 -0.55000000
v -0.24505007 0.63560680 -0.55777817
v -0.24505007 0.68560680 -0.55777817
v -0.25282824 0.63560680 -0.56100000
v -0.25282824 0.68560680 -0.56100000
v -0.26060642 0.63560680 -0.55777817
v -0.26060642 0.68560680 -0.55777817
v -0.26382824 0.63560680 -0.55000000
v -0.26382824 0.68560680 -0.55000000
v -0.26060642 0.63560680 -0.54222183
v -0.26060642 0.68560680 -0.54222183
v -0.25282824 0.63560680 -0.53900000
v -0.25282824 0.68560680 -0.53900000
v -0.24505007 0.63560680 -0.54222183
v -0.24505007 0.68560680 -0.54222183
f 228 227 231
f 228 231 229
f 229 231 232
f 229 232 230
f 231 227 233
f 231 233 232
f 232 233 234
f 232 234 230
f 233 227 235
f 233 235 234
f 234 235 236
f 234 236 230
f 235 227 237
f 235 237 236
f 236 237 238
f 236 238 230
f 237 227 239
f 237 239 238
f 238 239 240
f 238 240 230
f 239 227 241
f 239 241 240
f 240 241 242
f 240 242 230
f 241 227 243
f 241 243 242
f 242 243 244
f 242 244 230
f 243 227 228
f 243 228 244
f 244 228 229
f 244 229 230

o geometry_23
usemtl material_6
v -0.26782824 0.50824272 -0.52200000
v -0.26782824 0.50824272 -0.52000000
v -0.26782824 0.55824272 -0.52200000
v -0.26782824 0.55824272 -0.52000000
v -0.23782824 0.50824272 -0.52200000
v -0.23782824 0.50824272 -0.52000000
v -0.23782824 0.55824272 -0.52200000
v -0.23782824 0.55824272 -0.52000000
f 246 248 245
f 249 246 245
f 245 248 247
f 247 249 245
f 246 252 248
f 250 246 249
f 250 252 246
f 248 252 247
f 251 249 247
f 247 252 251
f 251 250 249
f 252 250 251

o geometry_24
usemtl material_5
v -0.01686821 0.46500000 -0.55000000
v 0.01113179 0.46500000 -0.55000000
v 0.01113179 0.62465832 -0.55000000
v -0.01686821 0.62465832 -0.55000000
v 0.00293078 0.46500000 -0.56979899
v 0.00293078 0.62465832 -0.56979899
v -0.01686821 0.46500000 -0.57800000
v -0.01686821 0.62465832 -0.57800000
v -0.03666720 0.46500000 -0.56979899
v -0.03666720 0.62465832 -0.56979899
v -0.04486821 0.46500000 -0.55000000
v -0.04486821 0.62465832 -0.55000000
v -0.03666720 0.46500000 -0.53020101
v -0.03666720 0.62465832 -0.53020101
v -0.01686821 0.46500000 -0.52200000
v -0.01686821 0.62465832 -0.52200000
v 0.00293078 0.46500000 -0.53020101
v 0.00293078 0.62465832 -0.53020101
f 254 253 257
f 254 257 255
f 255 257 258
f 255 258 256
f 257 253 259
f 257 259 258
f 258 259 260
f 258 260 256
f 259 253 261
f 259 261 260
f 260 261 262
f 260 262 256
f 261 253 263
f 261 263 262
f 262 263 264
f 262 264 256
f 263 253 265
f 263 265 264
f 264 265 266
f 264 266 256
f 265 253 267
f 265 267 266
f 266 267 268
f 266 268 256
f 267 253 269
f 267 269 268
f 268 269 270
f 268 270 256
f 269 253 254
f 269 254 270
f 270 254 255
f 270 255 256

o geometry_25
usemtl material_5
v -0.01686821 0.62465832 -0.55000000
v -0.00586821 0.62465832 -0.55000000
v -0.00586821 0.67465832 -0.55000000
v -0.01686821 0.67465832 -0.55000000
v -0.00909004 0.62465832 -0.55777817
v -0.00909004 0.67465832 -0.55777817
v -0.01686821 0.62465832 -0.56100000
v -0.01686821 0.67465832 -0.56100000
v -0.02464639 0.62465832 -0.55777817
v -0.02464639 0.67465832 -0.55777817
v -0.02786821 0.62465832 -0.55000000
v -0.02786821 0.67465832 -0.55000000
v -0.02464639 0.62465832 -0.54222183
v -0.02464639 0.67465832 -0.54222183
v -0.01686821 0.62465832 -0.53900000
v -0.01686821 0.67465832 -0.53900000
v -0.00909004 0.62465832 -0.54222183
v -0.00909004 0.67465832 -0.54222183
f 272 271 275
f 272 275 273
f 273 275 276
f 273 276 274
f 275 271 277
f 275 277 276
f 276 277 278
f 276 278 274
f 277 271 279
f 277 279 278
f 278 279 280
f 278 280 274
f 279 271 281
f 279 281 280
f 280 281 282
f 280 282 274
f 281 271 283
f 281 283 282
f 282 283 284
f 282 284 274
f 283 271 285
f 283 285 284
f 284 285 286
f 284 286 274
f 285 271 287
f 285 287 286
f 286 287 288
f 286 288 274
f 287 271 272
f 287 272 288
f 288 272 273
f 288 273 274

o geometry_26
usemtl material_7
v 0.27623761 0.46500000 -0.55000000
v 0.30423761 0.46500000 -0.55000000
v 0.30423761 0.64557833 -0.55000000
v 0.27623761 0.64557833 -0.55000000
v 0.29603660 0.46500000 -0.56979899
v 0.29603660 0.64557833 -0.56979899
v 0.27623761 0.46500000 -0.57800000
v 0.27623761 0.64557833 -0.57800000
v 0.25643862 0.46500000 -0.56979899
v 0.25643862 0.64557833 -0.56979899
v 0.24823761 0.46500000 -0.55000000
v 0.24823761 0.64557833 -0.55000000
v 0.25643862 0.46500000 -0.53020101
v 0.25643862 0.64557833 -0.53020101
v 0.27623761 0.46500000 -0.52200000
v 0.27623761 0.64557833 -0.52200000
v 0.29603660 0.46500000 -0.53020101
v 0.29603660 0.64557833 -0.53020101
f 290 289 293
f 290 293 291
f 291 293 294
f 291 294 292
f 293 289 295
f 293 295 294
f 294 295 296
f 294 296 292
f 295 289 297
f 295 297 296
f 296 297 298
f 296 298 292
f 297 289 299
f 297 299 298
f 298 299 300
f 298 300 292
f 299 289 301
f 299 301 300
f 300 301 302
f 300 302 292
f 301 289 303
f 301 303 302
f 302 303 304
f 302 304 292
f 303 289 305
f 303 305 304
f 304 305 306
f 304 306 292
f 305 289 290
f 305 290 306
f 306 290 291
f 306 291 292

o geometry_27
usemtl material_7
v 0.27623761 0.64557833 -0.55000000
v 0.28723761 0.64557833 -0.55000000
v 0.28723761 0.69557833 -0.55000000
v 0.27623761 0.69557833 -0.55000000
v 0.28401579 0.64557833 -0.55777817
v 0.28401579 0.69557833 -0.55777817
v 0.27623761 0.64557833 -0.56100000
v 0.27623761 0.69557833 -0.56100000
v 0.26845944 0.64557833 -0.55777817
v 0.26845944 0.69557833 -0.55777817
v 0.26523761 0.64557833 -0.55000000
v 0.26523761 0.69557833 -0.55000000
v 0.26845944 0.64557833 -0.54222183
v 0.26845944 0.69557833 -0.54222183
v 0.27623761 0.64557833 -0.53900000
v 0.27623761 0.69557833 -0.53900000
v 0.28401579 0.64557833 -0.54222183
v 0.28401579 0.69557833 -0.54222183
f 308 307 311
f 308 311 309
f 309 311 312
f 309 312 310
f 311 307 313
f 311 313 312
f 312 313 314
f 312 314 310
f 313 307 315
f 313 315 314
f 314 315 316
f 314 316 310
f 315 307 317
f 315 317 316
f 316 317 318
f 316 318 310
f 317 307 319
f 317 319 318
f 318 319 320
f 318 320 310
f 319 307 321
f 319 321 320
f 320 321 322
f 320 322 310
f 321 307 323
f 321 323 322
f 322 323 324
f 322 324 310
f 323 307 308
f 323 308 324
f 324 308 309
f 324 309 310

o geometry_28
usemtl material_6
v 0.26123761 0.51223133 -0.52200000
v 0.26123761 0.51223133 -0.52000000
v 0.26123761 0.56223133 -0.52200000
v 0.26123761 0.56223133 -0.52000000
v 0.29123761 0.51223133 -0.52200000
v 0.29123761 0.51223133 -0.52000000
v 0.29123761 0.56223133 -0.52200000
v 0.29123761 0.56223133 -0.52000000
f 326 328 325
f 329 326 325
f 325 328 327
f 327 329 325
f 326 332 328
f 330 326 329
f 330 332 326
f 328 332 327
f 331 329 327
f 327 332 331
f 331 330 329
f 332 330 331

o geometry_29
usemtl material_8
v 0.54010539 0.46500000 -0.55000000
v 0.56810539 0.46500000 -0.55000000
v 0.56810539 0.66348638 -0.55000000
v 0.54010539 0.66348638 -0.55000000
v 0.55990438 0.46500000 -0.56979899
v 0.55990438 0.66348638 -0.56979899
v 0.54010539 0.46500000 -0.57800000
v 0.54010539 0.66348638 -0.57800000
v 0.52030640 0.46500000 -0.56979899
v 0.52030640 0.66348638 -0.56979899
v 0.51210539 0.46500000 -0.55000000
v 0.51210539 0.66348638 -0.55000000
v 0.52030640 0.46500000 -0.53020101
v 0.52030640 0.66348638 -0.53020101
v 0.54010539 0.46500000 -0.52200000
v 0.54010539 0.66348638 -0.52200000
v 0.55990438 0.46500000 -0.53020101
v 0.55990438 0.66348638 -0.53020101
f 334 333 337
f 334 337 335
f 335 337 338
f 335 338 336
f 337 333 339
f 337 339 338
f 338 339 340
f 338 340 336
f 339 333 341
f 339 341 340
f 340 341 342
f 340 342 336
f 341 333 343
f 341 343 342
f 342 343 344
f 342 344 336
f 343 333 345
f 343 345 344
f 344 345 346
f 344 346 336
f 345 333 347
f 345 347 346
f 346 347 348
f 346 348 336
f 347 333 349
f 347 349 348
f 348 349 350
f 348 350 336
f 349 333 334
f 349 334 350
f 350 334 335
f 350 335 336

o geometry_30
usemtl material_8
v 0.54010539 0.66348638 -0.55000000
v 0.55110539 0.66348638 -0.55000000
v 0.55110539 0.71348638 -0.55000000
v 0.54010539 0.71348638 -0.55000000
v 0.54788357 0.66348638 -0.55777817
v 0.54788357 0.71348638 -0.55777817
v 0.54010539 0.66348638 -0.56100000
v 0.54010539 0.71348638 -0.56100000
v 0.53232722 0.66348638 -0.55777817
v 0.53232722 0.71348638 -0.55777817
v 0.52910539 0.66348638 -0.55000000
v 0.52910539 0.71348638 -0.55000000
v 0.53232722 0.66348638 -0.54222183
v 0.53232722 0.71348638 -0.54222183
v 0.54010539 0.66348638 -0.53900000
v 0.54010539 0.71348638 -0.53900000
v 0.54788357 0.66348638 -0.54222183
v 0.54788357 0.71348638 -0.54222183
f 352 351 355
f 352 355 353
f 353 355 356
f 353 356 354
f 355 351 357
f 355 357 356
f 356 357 358
f 356 358 354
f 357 351 359
f 357 359 358
f 358 359 360
f 358 360 354
f 359 351 361
f 359 361 360
f 360 361 362
f 360 362 354
f 361 351 363
f 361 363 362
f 362 363 364
f 362 364 354
f 363 351 365
f 363 365 364
f 364 365 366
f 364 366 354
f 365 351 367
f 365 367 366
f 366 367 368
f 366 368 354
f 367 351 352
f 367 352 368
f 368 352 353
f 368 353 354

o geometry_31
usemtl material_5
v 0.79497927 0.46500000 -0.55000000
v 0.82297927 0.46500000 -0.55000000
v 0.82297927 0.61895098 -0.55000000
v 0.79497927 0.61895098 -0.55000000
v 0.81477826 0.46500000 -0.56979899
v 0.81477826 0.61895098 -0.56979899
v 0.79497927 0.46500000 -0.57800000
v 0.79497927 0.61895098 -0.57800000
v 0.77518028 0.46500000 -0.56979899
v 0.77518028 0.61895098 -0.56979899
v 0.76697927 0.46500000 -0.55000000
v 0.76697927 0.61895098 -0.55000000
v 0.77518028 0.46500000 -0.53020101
v 0.77518028 0.61895098 -0.53020101
v 0.79497927 0.46500000 -0.52200000
v 0.79497927 0.61895098 -0.52200000
v 0.81477826 0.46500000 -0.53020101
v 0.81477826 0.61895098 -0.53020101
f 370 369 373
f 370 373 371
f 371 373 374
f 371 374 372
f 373 369 375
f 373 375 374
f 374 375 376
f 374 376 372
f 375 369 377
f 375 377 376
f 376 377 378
f 376 378 372
f 377 369 379
f 377 379 378
f 378 379 380
f 378 380 372
f 379 369 381
f 379 381 380
f 380 381 382
f 380 382 372
f 381 369 383
f 381 383 382
f 382 383 384
f 382 384 372
f 383 369 385
f 383 385 384
f 384 385 386
f 384 386 372
f 385 369 370
f 385 370 386
f 386 370 371
f 386 371 372

o geometry_32
usemtl material_5
v 0.79497927 0.61895098 -0.55000000
v 0.80597927 0.61895098 -0.55000000
v 0.80597927 0.66895098 -0.55000000
v 0.79497927 0.66895098 -0.55000000
v 0.80275745 0.61895098 -0.55777817
v 0.80275745 0.66895098 -0.55777817
v 0.79497927 0.61895098 -0.56100000
v 0.79497927 0.66895098 -0.56100000
v 0.78720110 0.61895098 -0.55777817
v 0.78720110 0.66895098 -0.55777817
v 0.78397927 0.61895098 -0.55000000
v 0.78397927 0.66895098 -0.55000000
v 0.78720110 0.61895098 -0.54222183
v 0.78720110 0.66895098 -0.54222183
v 0.79497927 0.61895098 -0.53900000
v 0.79497927 0.66895098 -0.53900000
v 0.80275745 0.61895098 -0.54222183
v 0.80275745 0.66895098 -0.54222183
f 388 387 391
f 388 391 389
f 389 391 392
f 389 392 390
f 391 387 393
f 391 393 392
f 392 393 394
f 392 394 390
f 393 387 395
f 393 395 394
f 394 395 396
f 394 396 390
f 395 387 397
f 395 397 396
f 396 397 398
f 396 398 390
f 397 387 399
f 397 399 398
f 398 399 400
f 398 400 390
f 399 387 401
f 399 401 400
f 400 401 402
f 400 402 390
f 401 387 403
f 401 403 402
f 402 403 404
f 402 404 390
f 403 387 388
f 403 388 404
f 404 388 389
f 404 389 390

o geometry_33
usemtl material_6
v 0.77997927 0.50158039 -0.52200000
v 0.77997927 0.50158039 -0.52000000
v 0.77997927 0.55158039 -0.52200000
v 0.77997927 0.55158039 -0.52000000
v 0.80997927 0.50158039 -0.52200000
v 0.80997927 0.50158039 -0.52000000
v 0.80997927 0.55158039 -0.52200000
v 0.80997927 0.55158039 -0.52000000
f 406 408 405
f 409 406 405
f 405 408 407
f 407 409 405
f 406 412 408
f 410 406 409
f 410 412 406
f 408 412 407
f 411 409 407
f 407 412 411
f 411 410 409
f 412 410 411

o geometry_34
usemtl material_7
v -0.80017753 0.81500000 -0.55000000
v -0.77217753 0.81500000 -0.55000000
v -0.77217753 1.00581215 -0.55000000
v -0.80017753 1.00581215 -0.55000000
v -0.78037854 0.81500000 -0.56979899
v -0.78037854 1.00581215 -0.56979899
v -0.80017753 0.81500000 -0.57800000
v -0.80017753 1.00581215 -0.57800000
v -0.81997652 0.81500000 -0.56979899
v -0.81997652 1.00581215 -0.56979899
v -0.82817753 0.81500000 -0.55000000
v -0.82817753 1.00581215 -0.55000000
v -0.81997652 0.81500000 -0.53020101
v -0.81997652 1.00581215 -0.53020101
v -0.80017753 0.81500000 -0.52200000
v -0.80017753 1.00581215 -0.52200000
v -0.78037854 0.81500000 -0.53020101
v -0.78037854 1.00581215 -0.53020101
f 414 413 417
f 414 417 415
f 415 417 418
f 415 418 416
f 417 413 419
f 417 419 418
f 418 419 420
f 418 420 416
f 419 413 421
f 419 421 420
f 420 421 422
f 420 422 416
f 421 413 423
f 421 423 422
f 422 423 424
f 422 424 416
f 423 413 425
f 423 425 424
f 424 425 426
f 424 426 416
f 425 413 427
f 425 427 426
f 426 427 428
f 426 428 416
f 427 413 429
f 427 429 428
f 428 429 430
f 428 430 416
f 429 413 414
f 429 414 430
f 430 414 415
f 430 415 416

o geometry_35
usemtl material_7
v -0.80017753 1.00581215 -0.55000000
v -0.78917753 1.00581215 -0.55000000
v -0.78917753 1.05581215 -0.55000000
v -0.80017753 1.05581215 -0.55000000
v -0.79239935 1.00581215 -0.55777817
v -0.79239935 1.05581215 -0.55777817
v -0.80017753 1.00581215 -0.56100000
v -0.80017753 1.05581215 -0.56100000
v -0.80795570 1.00581215 -0.55777817
v -0.80795570 1.05581215 -0.55777817
v -0.81117753 1.00581215 -0.55000000
v -0.81117753 1.05581215 -0.55000000
v -0.80795570 1.00581215 -0.54222183
v -0.80795570 1.05581215 -0.54222183
v -0.80017753 1.00581215 -0.53900000
v -0.80017753 1.05581215 -0.53900000
v -0.79239935 1.00581215 -0.54222183
v -0.79239935 1.05581215 -0.54222183
f 432 431 435
f 432 435 433
f 433 435 436
f 433 436 434
f 435 431 437
f 435 437 436
f 436 437 438
f 436 438 434
f 437 431 439
f 437 439 438
f 438 439 440
f 438 440 434
f 439 431 441
f 439 441 440
f 440 441 442
f 440 442 434
f 441 431 443
f 441 443 442
f 442 443 444
f 442 444 434
f 443 431 445
f 443 445 444
f 444 445 446
f 444 446 434
f 445 431 447
f 445 447 446
f 446 447 448
f 446 448 434
f 447 431 432
f 447 432 448
f 448 432 433
f 448 433 434

o geometry_36
usemtl material_6
v -0.81517753 0.86632486 -0.52200000
v -0.81517753 0.86632486 -0.52000000
v -0.81517753 0.91632486 -0.52200000
v -0.81517753 0.91632486 -0.52000000
v -0.78517753 0.86632486 -0.52200000
v -0.78517753 0.86632486 -0.52000000
v -0.78517753 0.91632486 -0.52200000
v -0.78517753 0.91632486 -0.52000000
f 450 452 449
f 453 450 449
f 449 452 451
f 451 453 449
f 450 456 452
f 454 450 453
f 454 456 450
f 452 456 451
f 455 453 451
f 451 456 455
f 455 454 453
f 456 454 455

o geometry_37
usemtl material_8
v -0.52756695 0.81500000 -0.55000000
v -0.49956695 0.81500000 -0.55000000
v -0.49956695 0.99424453 -0.55000000
v -0.52756695 0.99424453 -0.55000000
v -0.50776796 0.81500000 -0.56979899
v -0.50776796 0.99424453 -0.56979899
v -0.52756695 0.81500000 -0.57800000
v -0.52756695 0.99424453 -0.57800000
v -0.54736594 0.81500000 -0.56979899
v -0.54736594 0.99424453 -0.56979899
v -0.55556695 0.81500000 -0.55000000
v -0.55556695 0.99424453 -0.55000000
v -0.54736594 0.81500000 -0.53020101
v -0.54736594 0.99424453 -0.53020101
v -0.52756695 0.81500000 -0.52200000
v -0.52756695 0.99424453 -0.52200000
v -0.50776796 0.81500000 -0.53020101
v -0.50776796 0.99424453 -0.53020101
f 458 457 461
f 458 461 459
f 459 461 462
f 459 462 460
f 461 457 463
f 461 463 462
f 462 463 464
f 462 464 460
f 463 457 465
f 463 465 464
f 464 465 466
f 464 466 460
f 465 457 467
f 465 467 466
f 466 467 468
f 466 468 460
f 467 457 469
f 467 469 468
f 468 469 470
f 468 470 460
f 469 457 471
f 469 471 470
f 470 471 472
f 470 472 460
f 471 457 473
f 471 473 472
f 472 473 474
f 472 474 460
f 473 457 458
f 473 458 474
f 474 458 459
f 474 459 460

o geometry_38
usemtl material_8
v -0.52756695 0.99424453 -0.55000000
v -0.51656695 0.99424453 -0.55000000
v -0.51656695 1.04424453 -0.55000000
v -0.52756695 1.04424453 -0.55000000
v -0.51978878 0.99424453 -0.55777817
v -0.51978878 1.04424453 -0.55777817
v -0.52756695 0.99424453 -0.56100000
v -0.52756695 1.04424453 -0.56100000
v -0.53534513 0.99424453 -0.55777817
v -0.53534513 1.04424453 -0.55777817
v -0.53856695 0.99424453 -0.55000000
v -0.53856695 1.04424453 -0.55000000
v -0.53534513 0.99424453 -0.54222183
v -0.53534513 1.04424453 -0.54222183
v -0.52756695 0.99424453 -0.53900000
v -0.52756695 1.04424453 -0.53900000
v -0.51978878 0.99424453 -0.54222183
v -0.51978878 1.04424453 -0.54222183
f 476 475 479
f 476 479 477
f 477 479 480
f 477 480 478
f 479 475 481
f 479 481 480
f 480 481 482
f 480 482 478
f 481 475 483
f 481 483 482
f 482 483 484
f 482 484 478
f 483 475 485
f 483 485 484
f 484 485 486
f 484 486 478
f 485 475 487
f 485 487 486
f 486 487 488
f 486 488 478
f 487 475 489
f 487 489 488
f 488 489 490
f 488 490 478
f 489 475 491
f 489 491 490
f 490 491 492
f 490 492 478
f 491 475 476
f 491 476 492
f 492 476 477
f 492 477 478

o geometry_39
usemtl material_5
v -0.26923892 0.81500000 -0.55000000
v -0.24123892 0.81500000 -0.55000000
v -0.24123892 1.00387214 -0.55000000
v -0.26923892 1.00387214 -0.55000000
v -0.24943993 0.81500000 -0.56979899
v -0.24943993 1.00387214 -0.56979899
v -0.26923892 0.81500000 -0.57800000
v -0.26923892 1.00387214 -0.57800000
v -0.28903791 0.81500000 -0.56979899
v -0.28903791 1.00387214 -0.56979899
v -0.29723892 0.81500000 -0.55000000
v -0.29723892 1.00387214 -0.55000000
v -0.28903791 0.81500000 -0.53020101
v -0.28903791 1.00387214 -0.53020101
v -0.26923892 0.81500000 -0.52200000
v -0.26923892 1.00387214 -0.52200000
v -0.24943993 0.81500000 -0.53020101
v -0.24943993 1.00387214 -0.53020101
f 494 493 497
f 494 497 495
f 495 497 498
f 495 498 496
f 497 493 499
f 497 499 498
f 498 499 500
f 498 500 496
f 499 493 501
f 499 501 500
f 500 501 502
f 500 502 496
f 501 493 503
f 501 503 502
f 502 503 504
f 502 504 496
f 503 493 505
f 503 505 504
f 504 505 506
f 504 506 496
f 505 493 507
f 505 507 506
f 506 507 508
f 506 508 496
f 507 493 509
f 507 509 508
f 508 509 510
f 508 510 496
f 509 493 494
f 509 494 510
f 510 494 495
f 510 495 496

o geometry_40
usemtl material_5
v -0.26923892 1.00387214 -0.55000000
v -0.25823892 1.00387214 -0.55000000
v -0.25823892 1.05387214 -0.55000000
v -0.26923892 1.05387214 -0.55000000
v -0.26146075 1.00387214 -0.55777817
v -0.26146075 1.05387214 -0.55777817
v -0.26923892 1.00387214 -0.56100000
v -0.26923892 1.05387214 -0.56100000
v -0.27701709 1.00387214 -0.55777817
v -0.27701709 1.05387214 -0.55777817
v -0.28023892 1.00387214 -0.55000000
v -0.28023892 1.05387214 -0.55000000
v -0.27701709 1.00387214 -0.54222183
v -0.27701709 1.05387214 -0.54222183
v -0.26923892 1.00387214 -0.53900000
v -0.26923892 1.05387214 -0.53900000
v -0.26146075 1.00387214 -0.54222183
v -0.26146075 1.05387214 -0.54222183
f 512 511 515
f 512 515 513
f 513 515 516
f 513 516 514
f 515 511 517
f 515 517 516
f 516 517 518
f 516 518 514
f 517 511 519
f 517 519 518
f 518 519 520
f 518 520 514
f 519 511 521
f 519 521 520
f 520 521 522
f 520 522 514
f 521 511 523
f 521 523 522
f 522 523 524
f 522 524 514
f 523 511 525
f 523 525 524
f 524 525 526
f 524 526 514
f 525 511 527
f 525 527 526
f 526 527 528
f 526 528 514
f 527 511 512
f 527 512 528
f 528 512 513
f 528 513 514

o geometry_41
usemtl material_6
v -0.28423892 0.86554886 -0.52200000
v -0.28423892 0.86554886 -0.52000000
v -0.28423892 0.91554886 -0.52200000
v -0.28423892 0.91554886 -0.52000000
v -0.25423892 0.86554886 -0.52200000
v -0.25423892 0.86554886 -0.52000000
v -0.25423892 0.91554886 -0.52200000
v -0.25423892 0.91554886 -0.52000000
f 530 532 529
f 533 530 529
f 529 532 531
f 531 533 529
f 530 536 532
f 534 530 533
f 534 536 530
f 532 536 531
f 535 533 531
f 531 536 535
f 535 534 533
f 536 534 535

o geometry_42
usemtl material_7
v -0.00167884 0.81500000 -0.55000000
v 0.02632116 0.81500000 -0.55000000
v 0.02632116 0.98000177 -0.55000000
v -0.00167884 0.98000177 -0.55000000
v 0.01812015 0.81500000 -0.56979899
v 0.01812015 0.98000177 -0.56979899
v -0.00167884 0.81500000 -0.57800000
v -0.00167884 0.98000177 -0.57800000
v -0.02147783 0.81500000 -0.56979899
v -0.02147783 0.98000177 -0.56979899
v -0.02967884 0.81500000 -0.55000000
v -0.02967884 0.98000177 -0.55000000
v -0.02147783 0.81500000 -0.53020101
v -0.02147783 0.98000177 -0.53020101
v -0.00167884 0.81500000 -0.52200000
v -0.00167884 0.98000177 -0.52200000
v 0.01812015 0.81500000 -0.53020101
v 0.01812015 0.98000177 -0.53020101
f 538 537 541
f 538 541 539
f 539 541 542
f 539 542 540
f 541 537 543
f 541 543 542
f 542 543 544
f 542 544 540
f 543 537 545
f 543 545 544
f 544 545 546
f 544 546 540
f 545 537 547
f 545 547 546
f 546 547 548
f 546 548 540
f 547 537 549
f 547 549 548
f 548 549 550
f 548 550 540
f 549 537 551
f 549 551 550
f 550 551 552
f 550 552 540
f 551 537 553
f 551 553 552
f 552 553 554
f 552 554 540
f 553 537 538
f 553 538 554
f 554 538 539
f 554 539 540

o geometry_43
usemtl material_7
v -0.00167884 0.98000177 -0.55000000
v 0.00932116 0.98000177 -0.55000000
v 0.00932116 1.03000177 -0.55000000
v -0.00167884 1.03000177 -0.55000000
v 0.00609933 0.98000177 -0.55777817
v 0.00609933 1.03000177 -0.55777817
v -0.00167884 0.98000177 -0.56100000
v -0.00167884 1.03000177 -0.56100000
v -0.00945701 0.98000177 -0.55777817
v -0.00945701 1.03000177 -0.55777817
v -0.01267884 0.98000177 -0.55000000
v -0.01267884 1.03000177 -0.55000000
v -0.00945701 0.98000177 -0.54222183
v -0.00945701 1.03000177 -0.54222183
v -0.00167884 0.98000177 -0.53900000
v -0.00167884 1.03000177 -0.53900000
v 0.00609933 0.98000177 -0.54222183
v 0.00609933 1.03000177 -0.54222183
f 556 555 559
f 556 559 557
f 557 559 560
f 557 560 558
f 559 555 561
f 559 561 560
f 560 561 562
f 560 562 558
f 561 555 563
f 561 563 562
f 562 563 564
f 562 564 558
f 563 555 565
f 563 565 564
f 564 565 566
f 564 566 558
f 565 555 567
f 565 567 566
f 566 567 568
f 566 568 558
f 567 555 569
f 567 569 568
f 568 569 570
f 568 570 558
f 569 555 571
f 569 571 570
f 570 571 572
f 570 572 558
f 571 555 556
f 571 556 572
f 572 556 557
f 572 557 558

o geometry_44
usemtl material_8
v 0.28301872 0.81500000 -0.55000000
v 0.31101872 0.81500000 -0.55000000
v 0.31101872 0.98437796 -0.55000000
v 0.28301872 0.98437796 -0.55000000
v 0.30281771 0.81500000 -0.56979899
v 0.30281771 0.98437796 -0.56979899
v 0.28301872 0.81500000 -0.57800000
v 0.28301872 0.98437796 -0.57800000
v 0.26321973 0.81500000 -0.56979899
v 0.26321973 0.98437796 -0.56979899
v 0.25501872 0.81500000 -0.55000000
v 0.25501872 0.98437796 -0.55000000
v 0.26321973 0.81500000 -0.53020101
v 0.26321973 0.98437796 -0.53020101
v 0.28301872 0.81500000 -0.52200000
v 0.28301872 0.98437796 -0.52200000
v 0.30281771 0.81500000 -0.53020101
v 0.30281771 0.98437796 -0.53020101
f 574 573 577
f 574 577 575
f 575 577 578
f 575 578 576
f 577 573 579
f 577 579 578
f 578 579 580
f 578 580 576
f 579 573 581
f 579 581 580
f 580 581 582
f 580 582 576
f 581 573 583
f 581 583 582
f 582 583 584
f 582 584 576
f 583 573 585
f 583 585 584
f 584 585 586
f 584 586 576
f 585 573 587
f 585 587 586
f 586 587 588
f 586 588 576
f 587 573 589
f 587 589 588
f 588 589 590
f 588 590 576
f 589 573 574
f 589 574 590
f 590 574 575
f 590 575 576

o geometry_45
usemtl material_8
v 0.28301872 0.98437796 -0.55000000
v 0.29401872 0.98437796 -0.55000000
v 0.29401872 1.03437796 -0.55000000
v 0.28301872 1.03437796 -0.55000000
v 0.29079689 0.98437796 -0.55777817
v 0.29079689 1.03437796 -0.55777817
v 0.28301872 0.98437796 -0.56100000
v 0.28301872 1.03437796 -0.56100000
v 0.27524054 0.98437796 -0.55777817
v 0.27524054 1.03437796 -0.55777817
v 0.27201872 0.98437796 -0.55000000
v 0.27201872 1.03437796 -0.55000000
v 0.27524054 0.98437796 -0.54222183
v 0.27524054 1.03437796 -0.54222183
v 0.28301872 0.98437796 -0.53900000
v 0.28301872 1.03437796 -0.53900000
v 0.29079689 0.98437796 -0.54222183
v 0.29079689 1.03437796 -0.54222183
f 592 591 595
f 592 595 593
f 593 595 596
f 593 596 594
f 595 591 597
f 595 597 596
f 596 597 598
f 596 598 594
f 597 591 599
f 597 599 598
f 598 599 600
f 598 600 594
f 599 591 601
f 599 601 600
f 600 601 602
f 600 602 594
f 601 591 603
f 601 603 602
f 602 603 604
f 602 604 594
f 603 591 605
f 603 605 604
f 604 605 606
f 604 606 594
f 605 591 607
f 605 607 606
f 606 607 608
f 606 608 594
f 607 591 592
f 607 592 608
f 608 592 593
f 608 593 594

o geometry_46
usemtl material_6
v 0.26801872 0.85775118 -0.52200000
v 0.26801872 0.85775118 -0.52000000
v 0.26801872 0.90775118 -0.52200000
v 0.26801872 0.90775118 -0.52000000
v 0.29801872 0.85775118 -0.52200000
v 0.29801872 0.85775118 -0.52000000
v 0.29801872 0.90775118 -0.52200000
v 0.29801872 0.90775118 -0.52000000
f 610 612 609
f 613 610 609
f 609 612 611
f 611 613 609
f 610 616 612
f 614 610 613
f 614 616 610
f 612 616 611
f 615 613 611
f 611 616 615
f 615 614 613
f 616 614 615

o geometry_47
usemtl material_5
v 0.52424926 0.81500000 -0.55000000
v 0.55224926 0.81500000 -0.55000000
v 0.55224926 1.00410271 -0.55000000
v 0.52424926 1.00410271 -0.55000000
v 0.54404825 0.81500000 -0.56979899
v 0.54404825 1.00410271 -0.56979899
v 0.52424926 0.81500000 -0.57800000
v 0.52424926 1.00410271 -0.57800000
v 0.50445027 0.81500000 -0.56979899
v 0.50445027 1.00410271 -0.56979899
v 0.49624926 0.81500000 -0.55000000
v 0.49624926 1.00410271 -0.55000000
v 0.50445027 0.81500000 -0.53020101
v 0.50445027 1.00410271 -0.53020101
v 0.52424926 0.81500000 -0.52200000
v 0.52424926 1.00410271 -0.52200000
v 0.54404825 0.81500000 -0.53020101
v 0.54404825 1.00410271 -0.53020101
f 618 617 621
f 618 621 619
f 619 621 622
f 619 622 620
f 621 617 623
f 621 623 622
f 622 623 624
f 622 624 620
f 623 617 625
f 623 625 624
f 624 625 626
f 624 626 620
f 625 617 627
f 625 627 626
f 626 627 628
f 626 628 620
f 627 617 629
f 627 629 628
f 628 629 630
f 628 630 620
f 629 617 631
f 629 631 630
f 630 631 632
f 630 632 620
f 631 617 633
f 631 633 632
f 632 633 634
f 632 634 620
f 633 617 618
f 633 618 634
f 634 618 619
f 634 619 620

o geometry_48
usemtl material_5
v 0.52424926 1.00410271 -0.55000000
v 0.53524926 1.00410271 -0.55000000
v 0.53524926 1.05410271 -0.55000000
v 0.52424926 1.05410271 -0.55000000
v 0.53202744 1.00410271 -0.55777817
v 0.53202744 1.05410271 -0.55777817
v 0.52424926 1.00410271 -0.56100000
v 0.52424926 1.05410271 -0.56100000
v 0.51647109 1.00410271 -0.55777817
v 0.51647109 1.05410271 -0.55777817
v 0.51324926 1.00410271 -0.55000000
v 0.51324926 1.05410271 -0.55000000
v 0.51647109 1.00410271 -0.54222183
v 0.51647109 1.05410271 -0.54222183
v 0.52424926 1.00410271 -0.53900000
v 0.52424926 1.05410271 -0.53900000
v 0.53202744 1.00410271 -0.54222183
v 0.53202744 1.05410271 -0.54222183
f 636 635 639
f 636 639 637
f 637 639 640
f 637 640 638
f 639 635 641
f 639 641 640
f 640 641 642
f 640 642 638
f 641 635 643
f 641 643 642
f 642 643 644
f 642 644 638
f 643 635 645
f 643 645 644
f 644 645 646
f 644 646 638
f 645 635 647
f 645 647 646
f 646 647 648
f 646 648 638
f 647 635 649
f 647 649 648
f 648 649 650
f 648 650 638
f 649 635 651
f 649 651 650
f 650 651 652
f 650 652 638
f 651 635 636
f 651 636 652
f 652 636 637
f 652 637 638

o geometry_49
usemtl material_7
v 0.79275860 0.81500000 -0.55000000
v 0.82075860 0.81500000 -0.55000000
v 0.82075860 1.01200717 -0.55000000
v 0.79275860 1.01200717 -0.55000000
v 0.81255759 0.81500000 -0.56979899
v 0.81255759 1.01200717 -0.56979899
v 0.79275860 0.81500000 -0.57800000
v 0.79275860 1.01200717 -0.57800000
v 0.77295961 0.81500000 -0.56979899
v 0.77295961 1.01200717 -0.56979899
v 0.76475860 0.81500000 -0.55000000
v 0.76475860 1.01200717 -0.55000000
v 0.77295961 0.81500000 -0.53020101
v 0.77295961 1.01200717 -0.53020101
v 0.79275860 0.81500000 -0.52200000
v 0.79275860 1.01200717 -0.52200000
v 0.81255759 0.81500000 -0.53020101
v 0.81255759 1.01200717 -0.53020101
f 654 653 657
f 654 657 655
f 655 657 658
f 655 658 656
f 657 653 659
f 657 659 658
f 658 659 660
f 658 660 656
f 659 653 661
f 659 661 660
f 660 661 662
f 660 662 656
f 661 653 663
f 661 663 662
f 662 663 664
f 662 664 656
f 663 653 665
f 663 665 664
f 664 665 666
f 664 666 656
f 665 653 667
f 665 667 666
f 666 667 668
f 666 668 656
f 667 653 669
f 667 669 668
f 668 669 670
f 668 670 656
f 669 653 654
f 669 654 670
f 670 654 655
f 670 655 656

o geometry_50
usemtl material_7
v 0.79275860 1.01200717 -0.55000000
v 0.80375860 1.01200717 -0.55000000
v 0.80375860 1.06200717 -0.55000000
v 0.79275860 1.06200717 -0.55000000
v 0.80053677 1.01200717 -0.55777817
v 0.80053677 1.06200717 -0.55777817
v 0.79275860 1.01200717 -0.56100000
v 0.79275860 1.06200717 -0.56100000
v 0.78498042 1.01200717 -0.55777817
v 0.78498042 1.06200717 -0.55777817
v 0.78175860 1.01200717 -0.55000000
v 0.78175860 1.06200717 -0.55000000
v 0.78498042 1.01200717 -0.54222183
v 0.78498042 1.06200717 -0.54222183
v 0.79275860 1.01200717 -0.53900000
v 0.79275860 1.06200717 -0.53900000
v 0.80053677 1.01200717 -0.54222183
v 0.80053677 1.06200717 -0.54222183
f 672 671 675
f 672 675 673
f 673 675 676
f 673 676 674
f 675 671 677
f 675 677 676
f 676 677 678
f 676 678 674
f 677 671 679
f 677 679 678
f 678 679 680
f 678 680 674
f 679 671 681
f 679 681 680
f 680 681 682
f 680 682 674
f 681 671 683
f 681 683 682
f 682 683 684
f 682 684 674
f 683 671 685
f 683 685 684
f 684 685 686
f 684 686 674
f 685 671 687
f 685 687 686
f 686 687 688
f 686 688 674
f 687 671 672
f 687 672 688
f 688 672 673
f 688 673 674

o geometry_51
usemtl material_6
v 0.77775860 0.86880287 -0.52200000
v 0.77775860 0.86880287 -0.52000000
v 0.77775860 0.91880287 -0.52200000
v 0.77775860 0.91880287 -0.52000000
v 0.80775860 0.86880287 -0.52200000
v 0.80775860 0.86880287 -0.52000000
v 0.80775860 0.91880287 -0.52200000
v 0.80775860 0.91880287 -0.52000000
f 690 692 689
f 693 690 689
f 689 692 691
f 691 693 689
f 690 696 692
f 694 690 693
f 694 696 690
f 692 696 691
f 695 693 691
f 691 696 695
f 695 694 693
f 696 694 695

o geometry_52
usemtl material_8
v -0.77484536 1.11500000 -0.55000000
v -0.74684536 1.11500000 -0.55000000
v -0.74684536 1.26024870 -0.55000000
v -0.77484536 1.26024870 -0.55000000
v -0.75504637 1.11500000 -0.56979899
v -0.75504637 1.26024870 -0.56979899
v -0.77484536 1.11500000 -0.57800000
v -0.77484536 1.26024870 -0.57800000
v -0.79464435 1.11500000 -0.56979899
v -0.79464435 1.26024870 -0.56979899
v -0.80284536 1.11500000 -0.55000000
v -0.80284536 1.26024870 -0.55000000
v -0.79464435 1.11500000 -0.53020101
v -0.79464435 1.26024870 -0.53020101
v -0.77484536 1.11500000 -0.52200000
v -0.77484536 1.26024870 -0.52200000
v -0.75504637 1.11500000 -0.53020101
v -0.75504637 1.26024870 -0.53020101
f 698 697 701
f 698 701 699
f 699 701 702
f 699 702 700
f 701 697 703
f 701 703 702
f 702 703 704
f 702 704 700
f 703 697 705
f 703 705 704
f 704 705 706
f 704 706 700
f 705 697 707
f 705 707 706
f 706 707 708
f 706 708 700
f 707 697 709
f 707 709 708
f 708 709 710
f 708 710 700
f 709 697 711
f 709 711 710
f 710 711 712
f 710 712 700
f 711 697 713
f 711 713 712
f 712 713 714
f 712 714 700
f 713 697 698
f 713 698 714
f 714 698 699
f 714 699 700

o geometry_53
usemtl material_8
v -0.77484536 1.26024870 -0.55000000
v -0.76384536 1.26024870 -0.55000000
v -0.76384536 1.31024870 -0.55000000
v -0.77484536 1.31024870 -0.55000000
v -0.76706719 1.26024870 -0.55777817
v -0.76706719 1.31024870 -0.55777817
v -0.77484536 1.26024870 -0.56100000
v -0.77484536 1.31024870 -0.56100000
v -0.78262354 1.26024870 -0.55777817
v -0.78262354 1.31024870 -0.55777817
v -0.78584536 1.26024870 -0.55000000
v -0.78584536 1.31024870 -0.55000000
v -0.78262354 1.26024870 -0.54222183
v -0.78262354 1.31024870 -0.54222183
v -0.77484536 1.26024870 -0.53900000
v -0.77484536 1.31024870 -0.53900000
v -0.76706719 1.26024870 -0.54222183
v -0.76706719 1.31024870 -0.54222183
f 716 715 719
f 716 719 717
f 717 719 720
f 717 720 718
f 719 715 721
f 719 721 720
f 720 721 722
f 720 722 718
f 721 715 723
f 721 723 722
f 722 723 724
f 722 724 718
f 723 715 725
f 723 725 724
f 724 725 726
f 724 726 718
f 725 715 727
f 725 727 726
f 726 727 728
f 726 728 718
f 727 715 729
f 727 729 728
f 728 729 730
f 728 730 718
f 729 715 731
f 729 731 730
f 730 731 732
f 730 732 718
f 731 715 716
f 731 716 732
f 732 716 717
f 732 717 718

o geometry_54
usemtl material_6
v -0.78984536 1.14809948 -0.52200000
v -0.78984536 1.14809948 -0.52000000
v -0.78984536 1.19809948 -0.52200000
v -0.78984536 1.19809948 -0.52000000
v -0.75984536 1.14809948 -0.52200000
v -0.75984536 1.14809948 -0.52000000
v -0.75984536 1.19809948 -0.52200000
v -0.75984536 1.19809948 -0.52000000
f 734 736 733
f 737 734 733
f 733 736 735
f 735 737 733
f 734 740 736
f 738 734 737
f 738 740 734
f 736 740 735
f 739 737 735
f 735 740 739
f 739 738 737
f 740 738 739

o geometry_55
usemtl material_5
v -0.51679090 1.11500000 -0.55000000
v -0.48879090 1.11500000 -0.55000000
v -0.48879090 1.30932297 -0.55000000
v -0.51679090 1.30932297 -0.55000000
v -0.49699191 1.11500000 -0.56979899
v -0.49699191 1.30932297 -0.56979899
v -0.51679090 1.11500000 -0.57800000
v -0.51679090 1.30932297 -0.57800000
v -0.53658989 1.11500000 -0.56979899
v -0.53658989 1.30932297 -0.56979899
v -0.54479090 1.11500000 -0.55000000
v -0.54479090 1.30932297 -0.55000000
v -0.53658989 1.11500000 -0.53020101
v -0.53658989 1.30932297 -0.53020101
v -0.51679090 1.11500000 -0.52200000
v -0.51679090 1.30932297 -0.52200000
v -0.49699191 1.11500000 -0.53020101
v -0.49699191 1.30932297 -0.53020101
f 742 741 745
f 742 745 743
f 743 745 746
f 743 746 744
f 745 741 747
f 745 747 746
f 746 747 748
f 746 748 744
f 747 741 749
f 747 749 748
f 748 749 750
f 748 750 744
f 749 741 751
f 749 751 750
f 750 751 752
f 750 752 744
f 751 741 753
f 751 753 752
f 752 753 754
f 752 754 744
f 753 741 755
f 753 755 754
f 754 755 756
f 754 756 744
f 755 741 757
f 755 757 756
f 756 757 758
f 756 758 744
f 757 741 742
f 757 742 758
f 758 742 743
f 758 743 744

o geometry_56
usemtl material_5
v -0.51679090 1.30932297 -0.55000000
v -0.50579090 1.30932297 -0.55000000
v -0.50579090 1.35932297 -0.55000000
v -0.51679090 1.35932297 -0.55000000
v -0.50901273 1.30932297 -0.55777817
v -0.50901273 1.35932297 -0.55777817
v -0.51679090 1.30932297 -0.56100000
v -0.51679090 1.35932297 -0.56100000
v -0.52456908 1.30932297 -0.55777817
v -0.52456908 1.35932297 -0.55777817
v -0.52779090 1.30932297 -0.55000000
v -0.52779090 1.35932297 -0.55000000
v -0.52456908 1.30932297 -0.54222183
v -0.52456908 1.35932297 -0.54222183
v -0.51679090 1.30932297 -0.53900000
v -0.51679090 1.35932297 -0.53900000
v -0.50901273 1.30932297 -0.54222183
v -0.50901273 1.35932297 -0.54222183
f 760 759 763
f 760 763 761
f 761 763 764
f 761 764 762
f 763 759 765
f 763 765 764
f 764 765 766
f 764 766 762
f 765 759 767
f 765 767 766
f 766 767 768
f 766 768 762
f 767 759 769
f 767 769 768
f 768 769 770
f 768 770 762
f 769 759 771
f 769 771 770
f 770 771 772
f 770 772 762
f 771 759 773
f 771 773 772
f 772 773 774
f 772 774 762
f 773 759 775
f 773 775 774
f 774 775 776
f 774 776 762
f 775 759 760
f 775 760 776
f 776 760 761
f 776 761 762

o geometry_57
usemtl material_7
v -0.26673912 1.11500000 -0.55000000
v -0.23873912 1.11500000 -0.55000000
v -0.23873912 1.29982094 -0.55000000
v -0.26673912 1.29982094 -0.55000000
v -0.24694013 1.11500000 -0.56979899
v -0.24694013 1.29982094 -0.56979899
v -0.26673912 1.11500000 -0.57800000
v -0.26673912 1.29982094 -0.57800000
v -0.28653810 1.11500000 -0.56979899
v -0.28653810 1.29982094 -0.56979899
v -0.29473912 1.11500000 -0.55000000
v -0.29473912 1.29982094 -0.55000000
v -0.28653810 1.11500000 -0.53020101
v -0.28653810 1.29982094 -0.53020101
v -0.26673912 1.11500000 -0.52200000
v -0.26673912 1.29982094 -0.52200000
v -0.24694013 1.11500000 -0.53020101
v -0.24694013 1.29982094 -0.53020101
f 778 777 781
f 778 781 779
f 779 781 782
f 779 782 780
f 781 777 783
f 781 783 782
f 782 783 784
f 782 784 780
f 783 777 785
f 783 785 784
f 784 785 786
f 784 786 780
f 785 777 787
f 785 787 786
f 786 787 788
f 786 788 780
f 787 777 789
f 787 789 788
f 788 789 790
f 788 790 780
f 789 777 791
f 789 791 790
f 790 791 792
f 790 792 780
f 791 777 793
f 791 793 792
f 792 793 794
f 792 794 780
f 793 777 778
f 793 778 794
f 794 778 779
f 794 779 780

o geometry_58
usemtl material_7
v -0.26673912 1.29982094 -0.55000000
v -0.25573912 1.29982094 -0.55000000
v -0.25573912 1.34982094 -0.55000000
v -0.26673912 1.34982094 -0.55000000
v -0.25896094 1.29982094 -0.55777817
v -0.25896094 1.34982094 -0.55777817
v -0.26673912 1.29982094 -0.56100000
v -0.26673912 1.34982094 -0.56100000
v -0.27451729 1.29982094 -0.55777817
v -0.27451729 1.34982094 -0.55777817
v -0.27773912 1.29982094 -0.55000000
v -0.27773912 1.34982094 -0.55000000
v -0.27451729 1.29982094 -0.54222183
v -0.27451729 1.34982094 -0.54222183
v -0.26673912 1.29982094 -0.53900000
v -0.26673912 1.34982094 -0.53900000
v -0.25896094 1.29982094 -0.54222183
v -0.25896094 1.34982094 -0.54222183
f 796 795 799
f 796 799 797
f 797 799 800
f 797 800 798
f 799 795 801
f 799 801 800
f 800 801 802
f 800 802 798
f 801 795 803
f 801 803 802
f 802 803 804
f 802 804 798
f 803 795 805
f 803 805 804
f 804 805 806
f 804 806 798
f 805 795 807
f 805 807 806
f 806 807 808
f 806 808 798
f 807 795 809
f 807 809 808
f 808 809 810
f 808 810 798
f 809 795 811
f 809 811 810
f 810 811 812
f 810 812 798
f 811 795 796
f 811 796 812
f 812 796 797
f 812 797 798

o geometry_59
usemtl material_6
v -0.28173912 1.16392838 -0.52200000
v -0.28173912 1.16392838 -0.52000000
v -0.28173912 1.21392838 -0.52200000
v -0.28173912 1.21392838 -0.52000000
v -0.25173912 1.16392838 -0.52200000
v -0.25173912 1.16392838 -0.52000000
v -0.25173912 1.21392838 -0.52200000
v -0.25173912 1.21392838 -0.52000000
f 814 816 813
f 817 814 813
f 813 816 815
f 815 817 813
f 814 820 816
f 818 814 817
f 818 820 814
f 816 820 815
f 819 817 815
f 815 820 819
f 819 818 817
f 820 818 819

o geometry_60
usemtl material_8
v 0.00718832 1.11500000 -0.55000000
v 0.03518832 1.11500000 -0.55000000
v 0.03518832 1.29903384 -0.55000000
v 0.00718832 1.29903384 -0.55000000
v 0.02698731 1.11500000 -0.56979899
v 0.02698731 1.29903384 -0.56979899
v 0.00718832 1.11500000 -0.57800000
v 0.00718832 1.29903384 -0.57800000
v -0.01261067 1.11500000 -0.56979899
v -0.01261067 1.29903384 -0.56979899
v -0.02081168 1.11500000 -0.55000000
v -0.02081168 1.29903384 -0.55000000
v -0.01261067 1.11500000 -0.53020101
v -0.01261067 1.29903384 -0.53020101
v 0.00718832 1.11500000 -0.52200000
v 0.00718832 1.29903384 -0.52200000
v 0.02698731 1.11500000 -0.53020101
v 0.02698731 1.29903384 -0.53020101
f 822 821 825
f 822 825 823
f 823 825 826
f 823 826 824
f 825 821 827
f 825 827 826
f 826 827 828
f 826 828 824
f 827 821 829
f 827 829 828
f 828 829 830
f 828 830 824
f 829 821 831
f 829 831 830
f 830 831 832
f 830 832 824
f 831 821 833
f 831 833 832
f 832 833 834
f 832 834 824
f 833 821 835
f 833 835 834
f 834 835 836
f 834 836 824
f 835 821 837
f 835 837 836
f 836 837 838
f 836 838 824
f 837 821 822
f 837 822 838
f 838 822 823
f 838 823 824

o geometry_61
usemtl material_8
v 0.00718832 1.29903384 -0.55000000
v 0.01818832 1.29903384 -0.55000000
v 0.01818832 1.34903384 -0.55000000
v 0.00718832 1.34903384 -0.55000000
v 0.01496649 1.29903384 -0.55777817
v 0.01496649 1.34903384 -0.55777817
v 0.00718832 1.29903384 -0.56100000
v 0.00718832 1.34903384 -0.56100000
v -0.00058985 1.29903384 -0.55777817
v -0.00058985 1.34903384 -0.55777817
v -0.00381168 1.29903384 -0.55000000
v -0.00381168 1.34903384 -0.55000000
v -0.00058985 1.29903384 -0.54222183
v -0.00058985 1.34903384 -0.54222183
v 0.00718832 1.29903384 -0.53900000
v 0.00718832 1.34903384 -0.53900000
v 0.01496649 1.29903384 -0.54222183
v 0.01496649 1.34903384 -0.54222183
f 840 839 843
f 840 843 841
f 841 843 844
f 841 844 842
f 843 839 845
f 843 845 844
f 844 845 846
f 844 846 842
f 845 839 847
f 845 847 846
f 846 847 848
f 846 848 842
f 847 839 849
f 847 849 848
f 848 849 850
f 848 850 842
f 849 839 851
f 849 851 850
f 850 851 852
f 850 852 842
f 851 839 853
f 851 853 852
f 852 853 854
f 852 854 842
f 853 839 855
f 853 855 854
f 854 855 856
f 854 856 842
f 855 839 840
f 855 840 856
f 856 840 841
f 856 841 842

o geometry_62
usemtl material_5
v 0.25781675 1.11500000 -0.55000000
v 0.28581675 1.11500000 -0.55000000
v 0.28581675 1.28754519 -0.55000000
v 0.25781675 1.28754519 -0.55000000
v 0.27761574 1.11500000 -0.56979899
v 0.27761574 1.28754519 -0.56979899
v 0.25781675 1.11500000 -0.57800000
v 0.25781675 1.28754519 -0.57800000
v 0.23801776 1.11500000 -0.56979899
v 0.23801776 1.28754519 -0.56979899
v 0.22981675 1.11500000 -0.55000000
v 0.22981675 1.28754519 -0.55000000
v 0.23801776 1.11500000 -0.53020101
v 0.23801776 1.28754519 -0.53020101
v 0.25781675 1.11500000 -0.52200000
v 0.25781675 1.28754519 -0.52200000
v 0.27761574 1.11500000 -0.53020101
v 0.27761574 1.28754519 -0.53020101
f 858 857 861
f 858 861 859
f 859 861 862
f 859 862 860
f 861 857 863
f 861 863 862
f 862 863 864
f 862 864 860
f 863 857 865
f 863 865 864
f 864 865 866
f 864 866 860
f 865 857 867
f 865 867 866
f 866 867 868
f 866 868 860
f 867 857 869
f 867 869 868
f 868 869 870
f 868 870 860
f 869 857 871
f 869 871 870
f 870 871 872
f 870 872 860
f 871 857 873
f 871 873 872
f 872 873 874
f 872 874 860
f 873 857 858
f 873 858 874
f 874 858 859
f 874 859 860

o geometry_63
usemtl material_5
v 0.25781675 1.28754519 -0.55000000
v 0.26881675 1.28754519 -0.55000000
v 0.26881675 1.33754519 -0.55000000
v 0.25781675 1.33754519 -0.55000000
v 0.26559492 1.28754519 -0.55777817
v 0.26559492 1.33754519 -0.55777817
v 0.25781675 1.28754519 -0.56100000
v 0.25781675 1.33754519 -0.56100000
v 0.25003857 1.28754519 -0.55777817
v 0.25003857 1.33754519 -0.55777817
v 0.24681675 1.28754519 -0.55000000
v 0.24681675 1.33754519 -0.55000000
v 0.25003857 1.28754519 -0.54222183
v 0.25003857 1.33754519 -0.54222183
v 0.25781675 1.28754519 -0.53900000
v 0.25781675 1.33754519 -0.53900000
v 0.26559492 1.28754519 -0.54222183
v 0.26559492 1.33754519 -0.54222183
f 876 875 879
f 876 879 877
f 877 879 880
f 877 880 878
f 879 875 881
f 879 881 880
f 880 881 882
f 880 882 878
f 881 875 883
f 881 883 882
f 882 883 884
f 882 884 878
f 883 875 885
f 883 885 884
f 884 885 886
f 884 886 878
f 885 875 887
f 885 887 886
f 886 887 888
f 886 888 878
f 887 875 889
f 887 889 888
f 888 889 890
f 888 890 878
f 889 875 891
f 889 891 890
f 890 891 892
f 890 892 878
f 891 875 876
f 891 876 892
f 892 876 877
f 892 877 878

o geometry_64
usemtl material_6
v 0.24281675 1.15901807 -0.52200000
v 0.24281675 1.15901807 -0.52000000
v 0.24281675 1.20901807 -0.52200000
v 0.24281675 1.20901807 -0.52000000
v 0.27281675 1.15901807 -0.52200000
v 0.27281675 1.15901807 -0.52000000
v 0.27281675 1.20901807 -0.52200000
v 0.27281675 1.20901807 -0.52000000
f 894 896 893
f 897 894 893
f 893 896 895
f 895 897 893
f 894 900 896
f 898 894 897
f 898 900 894
f 896 900 895
f 899 897 895
f 895 900 899
f 899 898 897
f 900 898 899

o geometry_65
usemtl material_7
v 0.53774329 1.11500000 -0.55000000
v 0.56574329 1.11500000 -0.55000000
v 0.56574329 1.28083878 -0.55000000
v 0.53774329 1.28083878 -0.55000000
v 0.55754228 1.11500000 -0.56979899
v 0.55754228 1.28083878 -0.56979899
v 0.53774329 1.11500000 -0.57800000
v 0.53774329 1.28083878 -0.57800000
v 0.51794430 1.11500000 -0.56979899
v 0.51794430 1.28083878 -0.56979899
v 0.50974329 1.11500000 -0.55000000
v 0.50974329 1.28083878 -0.55000000
v 0.51794430 1.11500000 -0.53020101
v 0.51794430 1.28083878 -0.53020101
v 0.53774329 1.11500000 -0.52200000
v 0.53774329 1.28083878 -0.52200000
v 0.55754228 1.11500000 -0.53020101
v 0.55754228 1.28083878 -0.53020101
f 902 901 905
f 902 905 903
f 903 905 906
f 903 906 904
f 905 901 907
f 905 907 906
f 906 907 908
f 906 908 904
f 907 901 909
f 907 909 908
f 908 909 910
f 908 910 904
f 909 901 911
f 909 911 910
f 910 911 912
f 910 912 904
f 911 901 913
f 911 913 912
f 912 913 914
f 912 914 904
f 913 901 915
f 913 915 914
f 914 915 916
f 914 916 904
f 915 901 917
f 915 917 916
f 916 917 918
f 916 918 904
f 917 901 902
f 917 902 918
f 918 902 903
f 918 903 904

o geometry_66
usemtl material_7
v 0.53774329 1.28083878 -0.55000000
v 0.54874329 1.28083878 -0.55000000
v 0.54874329 1.33083878 -0.55000000
v 0.53774329 1.33083878 -0.55000000
v 0.54552147 1.28083878 -0.55777817
v 0.54552147 1.33083878 -0.55777817
v 0.53774329 1.28083878 -0.56100000
v 0.53774329 1.33083878 -0.56100000
v 0.52996512 1.28083878 -0.55777817
v 0.52996512 1.33083878 -0.55777817
v 0.52674329 1.28083878 -0.55000000
v 0.52674329 1.33083878 -0.55000000
v 0.52996512 1.28083878 -0.54222183
v 0.52996512 1.33083878 -0.54222183
v 0.53774329 1.28083878 -0.53900000
v 0.53774329 1.33083878 -0.53900000
v 0.54552147 1.28083878 -0.54222183
v 0.54552147 1.33083878 -0.54222183
f 920 919 923
f 920 923 921
f 921 923 924
f 921 924 922
f 923 919 925
f 923 925 924
f 924 925 926
f 924 926 922
f 925 919 927
f 925 927 926
f 926 927 928
f 926 928 922
f 927 919 929
f 927 929 928
f 928 929 930
f 928 930 922
f 929 919 931
f 929 931 930
f 930 931 932
f 930 932 922
f 931 919 933
f 931 933 932
f 932 933 934
f 932 934 922
f 933 919 935
f 933 935 934
f 934 935 936
f 934 936 922
f 935 919 920
f 935 920 936
f 936 920 921
f 936 921 922

o geometry_67
usemtl material_8
v 0.77425896 1.11500000 -0.55000000
v 0.80225896 1.11500000 -0.55000000
v 0.80225896 1.26030989 -0.55000000
v 0.77425896 1.26030989 -0.55000000
v 0.79405795 1.11500000 -0.56979899
v 0.79405795 1.26030989 -0.56979899
v 0.77425896 1.11500000 -0.57800000
v 0.77425896 1.26030989 -0.57800000
v 0.75445997 1.11500000 -0.56979899
v 0.75445997 1.26030989 -0.56979899
v 0.74625896 1.11500000 -0.55000000
v 0.74625896 1.26030989 -0.55000000
v 0.75445997 1.11500000 -0.53020101
v 0.75445997 1.26030989 -0.53020101
v 0.77425896 1.11500000 -0.52200000
v 0.77425896 1.26030989 -0.52200000
v 0.79405795 1.11500000 -0.53020101
v 0.79405795 1.26030989 -0.53020101
f 938 937 941
f 938 941 939
f 939 941 942
f 939 942 940
f 941 937 943
f 941 943 942
f 942 943 944
f 942 944 940
f 943 937 945
f 943 945 944
f 944 945 946
f 944 946 940
f 945 937 947
f 945 947 946
f 946 947 948
f 946 948 940
f 947 937 949
f 947 949 948
f 948 949 950
f 948 950 940
f 949 937 951
f 949 951 950
f 950 951 952
f 950 952 940
f 951 937 953
f 951 953 952
f 952 953 954
f 952 954 940
f 953 937 938
f 953 938 954
f 954 938 939
f 954 939 940

o geometry_68
usemtl material_8
v 0.77425896 1.26030989 -0.55000000
v 0.78525896 1.26030989 -0.55000000
v 0.78525896 1.31030989 -0.55000000
v 0.77425896 1.31030989 -0.55000000
v 0.78203714 1.26030989 -0.55777817
v 0.78203714 1.31030989 -0.55777817
v 0.77425896 1.26030989 -0.56100000
v 0.77425896 1.31030989 -0.56100000
v 0.76648079 1.26030989 -0.55777817
v 0.76648079 1.31030989 -0.55777817
v 0.76325896 1.26030989 -0.55000000
v 0.76325896 1.31030989 -0.55000000
v 0.76648079 1.26030989 -0.54222183
v 0.76648079 1.31030989 -0.54222183
v 0.77425896 1.26030989 -0.53900000
v 0.77425896 1.31030989 -0.53900000
v 0.78203714 1.26030989 -0.54222183
v 0.78203714 1.31030989 -0.54222183
f 956 955 959
f 956 959 957
f 957 959 960
f 957 960 958
f 959 955 961
f 959 961 960
f 960 961 962
f 960 962 958
f 961 955 963
f 961 963 962
f 962 963 964
f 962 964 958
f 963 955 965
f 963 965 964
f 964 965 966
f 964 966 958
f 965 955 967
f 965 967 966
f 966 967 968
f 966 968 958
f 967 955 969
f 967 969 968
f 968 969 970
f 968 970 958
f 969 955 971
f 969 971 970
f 970 971 972
f 970 972 958
f 971 955 956
f 971 956 972
f 972 956 957
f 972 957 958

o geometry_69
usemtl material_6
v 0.75925896 1.14812396 -0.52200000
v 0.75925896 1.14812396 -0.52000000
v 0.75925896 1.19812396 -0.52200000
v 0.75925896 1.19812396 -0.52000000
v 0.78925896 1.14812396 -0.52200000
v 0.78925896 1.14812396 -0.52000000
v 0.78925896 1.19812396 -0.52200000
v 0.78925896 1.19812396 -0.52000000
f 974 976 973
f 977 974 973
f 973 976 975
f 975 977 973
f 974 980 976
f 978 974 977
f 978 980 974
f 976 980 975
f 979 977 975
f 975 980 979
f 979 978 977
f 980 978 979

o geometry_70
usemtl material_9
v 0.61600000 0.60000000 -0.02000000
v 0.72600000 0.60000000 -0.02000000
v 0.72600000 0.78000000 -0.02000000
v 0.61600000 0.78000000 -0.02000000
v 0.71126279 0.60000000 -0.07500000
v 0.71126279 0.78000000 -0.07500000
v 0.67100000 0.60000000 -0.11526279
v 0.67100000 0.78000000 -0.11526279
v 0.61600000 0.60000000 -0.13000000
v 0.61600000 0.78000000 -0.13000000
v 0.56100000 0.60000000 -0.11526279
v 0.56100000 0.78000000 -0.11526279
v 0.52073721 0.60000000 -0.07500000
v 0.52073721 0.78000000 -0.07500000
v 0.50600000 0.60000000 -0.02000000
v 0.50600000 0.78000000 -0.02000000
v 0.52073721 0.60000000 0.03500000
v 0.52073721 0.78000000 0.03500000
v 0.56100000 0.60000000 0.07526279
v 0.56100000 0.78000000 0.07526279
v 0.61600000 0.60000000 0.09000000
v 0.61600000 0.78000000 0.09000000
v 0.67100000 0.60000000 0.07526279
v 0.67100000 0.78000000 0.07526279
v 0.71126279 0.60000000 0.03500000
v 0.71126279 0.78000000 0.03500000
f 982 981 985
f 982 985 983
f 983 985 986
f 983 986 984
f 985 981 987
f 985 987 986
f 986 987 988
f 986 988 984
f 987 981 989
f 987 989 988
f 988 989 990
f 988 990 984
f 989 981 991
f 989 991 990
f 990 991 992
f 990 992 984
f 991 981 993
f 991 993 992
f 992 993 994
f 992 994 984
f 993 981 995
f 993 995 994
f 994 995 996
f 994 996 984
f 995 981 997
f 995 997 996
f 996 997 998
f 996 998 984
f 997 981 999
f 997 999 998
f 998 999 1000
f 998 1000 984
f 999 981 1001
f 999 1001 1000
f 1000 1001 1002
f 1000 1002 984
f 1001 981 1003
f 1001 1003 1002
f 1002 1003 1004
f 1002 1004 984
f 1003 981 1005
f 1003 1005 1004
f 1004 1005 1006
f 1004 1006 984
f 1005 981 982
f 1005 982 1006
f 1006 982 983
f 1006 983 984

o geometry_71
usemtl material_10
v 0.61600000 0.63000000 -0.02000000
v 0.72900000 0.63000000 -0.02000000
v 0.72900000 0.65500000 -0.02000000
v 0.61600000 0.65500000 -0.02000000
v 0.71386087 0.63000000 -0.07650000
v 0.71386087 0.65500000 -0.07650000
v 0.67250000 0.63000000 -0.11786087
v 0.67250000 0.65500000 -0.11786087
v 0.61600000 0.63000000 -0.13300000
v 0.61600000 0.65500000 -0.13300000
v 0.55950000 0.63000000 -0.11786087
v 0.55950000 0.65500000 -0.11786087
v 0.51813913 0.63000000 -0.07650000
v 0.51813913 0.65500000 -0.07650000
v 0.50300000 0.63000000 -0.02000000
v 0.50300000 0.65500000 -0.02000000
v 0.51813913 0.63000000 0.03650000
v 0.51813913 0.65500000 0.03650000
v 0.55950000 0.63000000 0.07786087
v 0.55950000 0.65500000 0.07786087
v 0.61600000 0.63000000 0.09300000
v 0.61600000 0.65500000 0.09300000
v 0.67250000 0.63000000 0.07786087
v 0.67250000 0.65500000 0.07786087
v 0.71386087 0.63000000 0.03650000
v 0.71386087 0.65500000 0.03650000
f 1008 1007 1011
f 1008 1011 1009
f 1009 1011 1012
f 1009 1012 1010
f 1011 1007 1013
f 1011 1013 1012
f 1012 1013 1014
f 1012 1014 1010
f 1013 1007 1015
f 1013 1015 1014
f 1014 1015 1016
f 1014 1016 1010
f 1015 1007 1017
f 1015 1017 1016
f 1016 1017 1018
f 1016 1018 1010
f 1017 1007 1019
f 1017 1019 1018
f 1018 1019 1020
f 1018 1020 1010
f 1019 1007 1021
f 1019 1021 1020
f 1020 1021 1022
f 1020 1022 1010
f 1021 1007 1023
f 1021 1023 1022
f 1022 1023 1024
f 1022 1024 1010
f 1023 1007 1025
f 1023 1025 1024
f 1024 1025 1026
f 1024 1026 1010
f 1025 1007 1027
f 1025 1027 1026
f 1026 1027 1028
f 1026 1028 1010
f 1027 1007 1029
f 1027 1029 1028
f 1028 1029 1030
f 1028 1030 1010
f 1029 1007 1031
f 1029 1031 1030
f 1030 1031 1032
f 1030 1032 1010
f 1031 1007 1008
f 1031 1008 1032
f 1032 1008 1009
f 1032 1009 1010

o geometry_72
usemtl material_10
v 0.61600000 0.74000000 -0.02000000
v 0.72900000 0.74000000 -0.02000000
v 0.72900000 0.76500000 -0.02000000
v 0.61600000 0.76500000 -0.02000000
v 0.71386087 0.74000000 -0.07650000
v 0.71386087 0.76500000 -0.07650000
v 0.67250000 0.74000000 -0.11786087
v 0.67250000 0.76500000 -0.11786087
v 0.61600000 0.74000000 -0.13300000
v 0.61600000 0.76500000 -0.13300000
v 0.55950000 0.74000000 -0.11786087
v 0.55950000 0.76500000 -0.11786087
v 0.51813913 0.74000000 -0.07650000
v 0.51813913 0.76500000 -0.07650000
v 0.50300000 0.74000000 -0.02000000
v 0.50300000 0.76500000 -0.02000000
v 0.51813913 0.74000000 0.03650000
v 0.51813913 0.76500000 0.03650000
v 0.55950000 0.74000000 0.07786087
v 0.55950000 0.76500000 0.07786087
v 0.61600000 0.74000000 0.09300000
v 0.61600000 0.76500000 0.09300000
v 0.67250000 0.74000000 0.07786087
v 0.67250000 0.76500000 0.07786087
v 0.71386087 0.74000000 0.03650000
v 0.71386087 0.76500000 0.03650000
f 1034 1033 1037
f 1034 1037 1035
f 1035 1037 1038
f 1035 1038 1036
f 1037 1033 1039
f 1037 1039 1038
f 1038 1039 1040
f 1038 1040 1036
f 1039 1033 1041
f 1039 1041 1040
f 1040 1041 1042
f 1040 1042 1036
f 1041 1033 1043
f 1041 1043 1042
f 1042 1043 1044
f 1042 1044 1036
f 1043 1033 1045
f 1043 1045 1044
f 1044 1045 1046
f 1044 1046 1036
f 1045 1033 1047
f 1045 1047 1046
f 1046 1047 1048
f 1046 1048 1036
f 1047 1033 1049
f 1047 1049 1048
f 1048 1049 1050
f 1048 1050 1036
f 1049 1033 1051
f 1049 1051 1050
f 1050 1051 1052
f 1050 1052 1036
f 1051 1033 1053
f 1051 1053 1052
f 1052 1053 1054
f 1052 1054 1036
f 1053 1033 1055
f 1053 1055 1054
f 1054 1055 1056
f 1054 1056 1036
f 1055 1033 1057
f 1055 1057 1056
f 1056 1057 1058
f 1056 1058 1036
f 1057 1033 1034
f 1057 1034 1058
f 1058 1034 1035
f 1058 1035 1036

o geometry_73
usemtl material_9
v 1.38000000 0.00000000 0.05000000
v 1.56000000 0.00000000 0.05000000
v 1.56000000 0.42000000 0.05000000
v 1.38000000 0.42000000 0.05000000
v 1.54217440 0.00000000 -0.02809907
v 1.54217440 0.42000000 -0.02809907
v 1.49222816 0.00000000 -0.09072967
v 1.49222816 0.42000000 -0.09072967
v 1.42005377 0.00000000 -0.12548702
v 1.42005377 0.42000000 -0.12548702
v 1.33994623 0.00000000 -0.12548702
v 1.33994623 0.42000000 -0.12548702
v 1.26777184 0.00000000 -0.09072967
v 1.26777184 0.42000000 -0.09072967
v 1.21782560 0.00000000 -0.02809907
v 1.21782560 0.42000000 -0.02809907
v 1.20000000 0.00000000 0.05000000
v 1.20000000 0.42000000 0.05000000
v 1.21782560 0.00000000 0.12809907
v 1.21782560 0.42000000 0.12809907
v 1.26777184 0.00000000 0.19072967
v 1.26777184 0.42000000 0.19072967
v 1.33994623 0.00000000 0.22548702
v 1.33994623 0.42000000 0.22548702
v 1.42005377 0.00000000 0.22548702
v 1.42005377 0.42000000 0.22548702
v 1.49222816 0.00000000 0.19072967
v 1.49222816 0.42000000 0.19072967
v 1.54217440 0.00000000 0.12809907
v 1.54217440 0.42000000 0.12809907
f 1060 1059 1063
f 1060 1063 1061
f 1061 1063 1064
f 1061 1064 1062
f 1063 1059 1065
f 1063 1065 1064
f 1064 1065 1066
f 1064 1066 1062
f 1065 1059 1067
f 1065 1067 1066
f 1066 1067 1068
f 1066 1068 1062
f 1067 1059 1069
f 1067 1069 1068
f 1068 1069 1070
f 1068 1070 1062
f 1069 1059 1071
f 1069 1071 1070
f 1070 1071 1072
f 1070 1072 1062
f 1071 1059 1073
f 1071 1073 1072
f 1072 1073 1074
f 1072 1074 1062
f 1073 1059 1075
f 1073 1075 1074
f 1074 1075 1076
f 1074 1076 1062
f 1075 1059 1077
f 1075 1077 1076
f 1076 1077 1078
f 1076 1078 1062
f 1077 1059 1079
f 1077 1079 1078
f 1078 1079 1080
f 1078 1080 1062
f 1079 1059 1081
f 1079 1081 1080
f 1080 1081 1082
f 1080 1082 1062
f 1081 1059 1083
f 1081 1083 1082
f 1082 1083 1084
f 1082 1084 1062
f 1083 1059 1085
f 1083 1085 1084
f 1084 1085 1086
f 1084 1086 1062
f 1085 1059 1087
f 1085 1087 1086
f 1086 1087 1088
f 1086 1088 1062
f 1087 1059 1060
f 1087 1060 1088
f 1088 1060 1061
f 1088 1061 1062

o geometry_74
usemtl material_10
v 1.38000000 0.05000000 0.05000000
v 1.56400000 0.05000000 0.05000000
v 1.56400000 0.08000000 0.05000000
v 1.38000000 0.08000000 0.05000000
v 1.54577827 0.05000000 -0.02983461
v 1.54577827 0.08000000 -0.02983461
v 1.49472212 0.05000000 -0.09385699
v 1.49472212 0.08000000 -0.09385699
v 1.42094385 0.05000000 -0.12938674
v 1.42094385 0.08000000 -0.12938674
v 1.33905615 0.05000000 -0.12938674
v 1.33905615 0.08000000 -0.12938674
v 1.26527788 0.05000000 -0.09385699
v 1.26527788 0.08000000 -0.09385699
v 1.21422173 0.05000000 -0.02983461
v 1.21422173 0.08000000 -0.02983461
v 1.19600000 0.05000000 0.05000000
v 1.19600000 0.08000000 0.05000000
v 1.21422173 0.05000000 0.12983461
v 1.21422173 0.08000000 0.12983461
v 1.26527788 0.05000000 0.19385699
v 1.26527788 0.08000000 0.19385699
v 1.33905615 0.05000000 0.22938674
v 1.33905615 0.08000000 0.22938674
v 1.42094385 0.05000000 0.22938674
v 1.42094385 0.08000000 0.22938674
v 1.49472212 0.05000000 0.19385699
v 1.49472212 0.08000000 0.19385699
v 1.54577827 0.05000000 0.12983461
v 1.54577827 0.08000000 0.12983461
f 1090 1089 1093
f 1090 1093 1091
f 1091 1093 1094
f 1091 1094 1092
f 1093 1089 1095
f 1093 1095 1094
f 1094 1095 1096
f 1094 1096 1092
f 1095 1089 1097
f 1095 1097 1096
f 1096 1097 1098
f 1096 1098 1092
f 1097 1089 1099
f 1097 1099 1098
f 1098 1099 1100
f 1098 1100 1092
f 1099 1089 1101
f 1099 1101 1100
f 1100 1101 1102
f 1100 1102 1092
f 1101 1089 1103
f 1101 1103 1102
f 1102 1103 1104
f 1102 1104 1092
f 1103 1089 1105
f 1103 1105 1104
f 1104 1105 1106
f 1104 1106 1092
f 1105 1089 1107
f 1105 1107 1106
f 1106 1107 1108
f 1106 1108 1092
f 1107 1089 1109
f 1107 1109 1108
f 1108 1109 1110
f 1108 1110 1092
f 1109 1089 1111
f 1109 1111 1110
f 1110 1111 1112
f 1110 1112 1092
f 1111 1089 1113
f 1111 1113 1112
f 1112 1113 1114
f 1112 1114 1092
f 1113 1089 1115
f 1113 1115 1114
f 1114 1115 1116
f 1114 1116 1092
f 1115 1089 1117
f 1115 1117 1116
f 1116 1117 1118
f 1116 1118 1092
f 1117 1089 1090
f 1117 1090 1118
f 1118 1090 1091
f 1118 1091 1092

o geometry_75
usemtl material_10
v 1.38000000 0.20000000 0.05000000
v 1.56400000 0.20000000 0.05000000
v 1.56400000 0.23000000 0.05000000
v 1.38000000 0.23000000 0.05000000
v 1.54577827 0.20000000 -0.02983461
v 1.54577827 0.23000000 -0.02983461
v 1.49472212 0.20000000 -0.09385699
v 1.49472212 0.23000000 -0.09385699
v 1.42094385 0.20000000 -0.12938674
v 1.42094385 0.23000000 -0.12938674
v 1.33905615 0.20000000 -0.12938674
v 1.33905615 0.23000000 -0.12938674
v 1.26527788 0.20000000 -0.09385699
v 1.26527788 0.23000000 -0.09385699
v 1.21422173 0.20000000 -0.02983461
v 1.21422173 0.23000000 -0.02983461
v 1.19600000 0.20000000 0.05000000
v 1.19600000 0.23000000 0.05000000
v 1.21422173 0.20000000 0.12983461
v 1.21422173 0.23000000 0.12983461
v 1.26527788 0.20000000 0.19385699
v 1.26527788 0.23000000 0.19385699
v 1.33905615 0.20000000 0.22938674
v 1.33905615 0.23000000 0.22938674
v 1.42094385 0.20000000 0.22938674
v 1.42094385 0.23000000 0.22938674
v 1.49472212 0.20000000 0.19385699
v 1.49472212 0.23000000 0.19385699
v 1.54577827 0.20000000 0.12983461
v 1.54577827 0.23000000 0.12983461
f 1120 1119 1123
f 1120 1123 1121
f 1121 1123 1124
f 1121 1124 1122
f 1123 1119 1125
f 1123 1125 1124
f 1124 1125 1126
f 1124 1126 1122
f 1125 1119 1127
f 1125 1127 1126
f 1126 1127 1128
f 1126 1128 1122
f 1127 1119 1129
f 1127 1129 1128
f 1128 1129 1130
f 1128 1130 1122
f 1129 1119 1131
f 1129 1131 1130
f 1130 1131 1132
f 1130 1132 1122
f 1131 1119 1133
f 1131 1133 1132
f 1132 1133 1134
f 1132 1134 1122
f 1133 1119 1135
f 1133 1135 1134
f 1134 1135 1136
f 1134 1136 1122
f 1135 1119 1137
f 1135 1137 1136
f 1136 1137 1138
f 1136 1138 1122
f 1137 1119 1139
f 1137 1139 1138
f 1138 1139 1140
f 1138 1140 1122
f 1139 1119 1141
f 1139 1141 1140
f 1140 1141 1142
f 1140 1142 1122
f 1141 1119 1143
f 1141 1143 1142
f 1142 1143 1144
f 1142 1144 1122
f 1143 1119 1145
f 1143 1145 1144
f 1144 1145 1146
f 1144 1146 1122
f 1145 1119 1147
f 1145 1147 1146
f 1146 1147 1148
f 1146 1148 1122
f 1147 1119 1120
f 1147 1120 1148
f 1148 1120 1121
f 1148 1121 1122

o geometry_76
usemtl material_10
v 1.38000000 0.35000000 0.05000000
v 1.56400000 0.35000000 0.05000000
v 1.56400000 0.38000000 0.05000000
v 1.38000000 0.38000000 0.05000000
v 1.54577827 0.35000000 -0.02983461
v 1.54577827 0.38000000 -0.02983461
v 1.49472212 0.35000000 -0.09385699
v 1.49472212 0.38000000 -0.09385699
v 1.42094385 0.35000000 -0.12938674
v 1.42094385 0.38000000 -0.12938674
v 1.33905615 0.35000000 -0.12938674
v 1.33905615 0.38000000 -0.12938674
v 1.26527788 0.35000000 -0.09385699
v 1.26527788 0.38000000 -0.09385699
v 1.21422173 0.35000000 -0.02983461
v 1.21422173 0.38000000 -0.02983461
v 1.19600000 0.35000000 0.05000000
v 1.19600000 0.38000000 0.05000000
v 1.21422173 0.35000000 0.12983461
v 1.21422173 0.38000000 0.12983461
v 1.26527788 0.35000000 0.19385699
v 1.26527788 0.38000000 0.19385699
v 1.33905615 0.35000000 0.22938674
v 1.33905615 0.38000000 0.22938674
v 1.42094385 0.35000000 0.22938674
v 1.42094385 0.38000000 0.22938674
v 1.49472212 0.35000000 0.19385699
v 1.49472212 0.38000000 0.19385699
v 1.54577827 0.35000000 0.12983461
v 1.54577827 0.38000000 0.12983461
f 1150 1149 1153
f 1150 1153 1151
f 1151 1153 1154
f 1151 1154 1152
f 1153 1149 1155
f 1153 1155 1154
f 1154 1155 1156
f 1154 1156 1152
f 1155 1149 1157
f 1155 1157 1156
f 1156 1157 1158
f 1156 1158 1152
f 1157 1149 1159
f 1157 1159 1158
f 1158 1159 1160
f 1158 1160 1152
f 1159 1149 1161
f 1159 1161 1160
f 1160 1161 1162
f 1160 1162 1152
f 1161 1149 1163
f 1161 1163 1162
f 1162 1163 1164
f 1162 1164 1152
f 1163 1149 1165
f 1163 1165 1164
f 1164 1165 1166
f 1164 1166 1152
f 1165 1149 1167
f 1165 1167 1166
f 1166 1167 1168
f 1166 1168 1152
f 1167 1149 1169
f 1167 1169 1168
f 1168 1169 1170
f 1168 1170 1152
f 1169 1149 1171
f 1169 1171 1170
f 1170 1171 1172
f 1170 1172 1152
f 1171 1149 1173
f 1171 1173 1172
f 1172 1173 1174
f 1172 1174 1152
f 1173 1149 1175
f 1173 1175 1174
f 1174 1175 1176
f 1174 1176 1152
f 1175 1149 1177
f 1175 1177 1176
f 1176 1177 1178
f 1176 1178 1152
f 1177 1149 1150
f 1177 1150 1178
f 1178 1150 1151
f 1178 1151 1152

o geometry_77
usemtl material_11
v -0.55000000 0.60000000 0.08000000
v -0.51500000 0.60000000 0.08000000
v -0.51500000 0.66000000 0.08000000
v -0.55000000 0.66000000 0.08000000
v -0.52168441 0.60000000 0.05942752
v -0.52168441 0.66000000 0.05942752
v -0.53918441 0.60000000 0.04671302
v -0.53918441 0.66000000 0.04671302
v -0.56081559 0.60000000 0.04671302
v -0.56081559 0.66000000 0.04671302
v -0.57831559 0.60000000 0.05942752
v -0.57831559 0.66000000 0.05942752
v -0.58500000 0.60000000 0.08000000
v -0.58500000 0.66000000 0.08000000
v -0.57831559 0.60000000 0.10057248
v -0.57831559 0.66000000 0.10057248
v -0.56081559 0.60000000 0.11328698
v -0.56081559 0.66000000 0.11328698
v -0.53918441 0.60000000 0.11328698
v -0.53918441 0.66000000 0.11328698
v -0.52168441 0.60000000 0.10057248
v -0.52168441 0.66000000 0.10057248
f 1180 1179 1183
f 1180 1183 1181
f 1181 1183 1184
f 1181 1184 1182
f 1183 1179 1185
f 1183 1185 1184
f 1184 1185 1186
f 1184 1186 1182
f 1185 1179 1187
f 1185 1187 1186
f 1186 1187 1188
f 1186 1188 1182
f 1187 1179 1189
f 1187 1189 1188
f 1188 1189 1190
f 1188 1190 1182
f 1189 1179 1191
f 1189 1191 1190
f 1190 1191 1192
f 1190 1192 1182
f 1191 1179 1193
f 1191 1193 1192
f 1192 1193 1194
f 1192 1194 1182
f 1193 1179 1195
f 1193 1195 1194
f 1194 1195 1196
f 1194 1196 1182
f 1195 1179 1197
f 1195 1197 1196
f 1196 1197 1198
f 1196 1198 1182
f 1197 1179 1199
f 1197 1199 1198
f 1198 1199 1200
f 1198 1200 1182
f 1199 1179 1180
f 1199 1180 1200
f 1200 1180 1181
f 1200 1181 1182

o geometry_78
usemtl material_12
v -0.55000000 0.66000000 0.08000000
v -0.51500000 0.66000000 0.08000000
v -0.51500000 0.67500000 0.08000000
v -0.55000000 0.67500000 0.08000000
v -0.52168441 0.66000000 0.05942752
v -0.52168441 0.67500000 0.05942752
v -0.53918441 0.66000000 0.04671302
v -0.53918441 0.67500000 0.04671302
v -0.56081559 0.66000000 0.04671302
v -0.56081559 0.67500000 0.04671302
v -0.57831559 0.66000000 0.05942752
v -0.57831559 0.67500000 0.05942752
v -0.58500000 0.66000000 0.08000000
v -0.58500000 0.67500000 0.08000000
v -0.57831559 0.66000000 0.10057248
v -0.57831559 0.67500000 0.10057248
v -0.56081559 0.66000000 0.11328698
v -0.56081559 0.67500000 0.11328698
v -0.53918441 0.66000000 0.11328698
v -0.53918441 0.67500000 0.11328698
v -0.52168441 0.66000000 0.10057248
v -0.52168441 0.67500000 0.10057248
f 1202 1201 1205
f 1202 1205 1203
f 1203 1205 1206
f 1203 1206 1204
f 1205 1201 1207
f 1205 1207 1206
f 1206 1207 1208
f 1206 1208 1204
f 1207 1201 1209
f 1207 1209 1208
f 1208 1209 1210
f 1208 1210 1204
f 1209 1201 1211
f 1209 1211 1210
f 1210 1211 1212
f 1210 1212 1204
f 1211 1201 1213
f 1211 1213 1212
f 1212 1213 1214
f 1212 1214 1204
f 1213 1201 1215
f 1213 1215 1214
f 1214 1215 1216
f 1214 1216 1204
f 1215 1201 1217
f 1215 1217 1216
f 1216 1217 1218
f 1216 1218 1204
f 1217 1201 1219
f 1217 1219 1218
f 1218 1219 1220
f 1218 1220 1204
f 1219 1201 1221
f 1219 1221 1220
f 1220 1221 1222
f 1220 1222 1204
f 1221 1201 1202
f 1221 1202 1222
f 1222 1202 1203
f 1222 1203 1204

o geometry_79
usemtl material_11
v -0.35000000 0.60000000 0.08000000
v -0.31500000 0.60000000 0.08000000
v -0.31500000 0.66000000 0.08000000
v -0.35000000 0.66000000 0.08000000
v -0.32168441 0.60000000 0.05942752
v -0.32168441 0.66000000 0.05942752
v -0.33918441 0.60000000 0.04671302
v -0.33918441 0.66000000 0.04671302
v -0.36081559 0.60000000 0.04671302
v -0.36081559 0.66000000 0.04671302
v -0.37831559 0.60000000 0.05942752
v -0.37831559 0.66000000 0.05942752
v -0.38500000 0.60000000 0.08000000
v -0.38500000 0.66000000 0.08000000
v -0.37831559 0.60000000 0.10057248
v -0.37831559 0.66000000 0.10057248
v -0.36081559 0.60000000 0.11328698
v -0.36081559 0.66000000 0.11328698
v -0.33918441 0.60000000 0.11328698
v -0.33918441 0.66000000 0.11328698
v -0.32168441 0.60000000 0.10057248
v -0.32168441 0.66000000 0.10057248
f 1224 1223 1227
f 1224 1227 1225
f 1225 1227 1228
f 1225 1228 1226
f 1227 1223 1229
f 1227 1229 1228
f 1228 1229 1230
f 1228 1230 1226
f 1229 1223 1231
f 1229 1231 1230
f 1230 1231 1232
f 1230 1232 1226
f 1231 1223 1233
f 1231 1233 1232
f 1232 1233 1234
f 1232 1234 1226
f 1233 1223 1235
f 1233 1235 1234
f 1234 1235 1236
f 1234 1236 1226
f 1235 1223 1237
f 1235 1237 1236
f 1236 1237 1238
f 1236 1238 1226
f 1237 1223 1239
f 1237 1239 1238
f 1238 1239 1240
f 1238 1240 1226
f 1239 1223 1241
f 1239 1241 1240
f 1240 1241 1242
f 1240 1242 1226
f 1241 1223 1243
f 1241 1243 1242
f 1242 1243 1244
f 1242 1244 1226
f 1243 1223 1224
f 1243 1224 1244
f 1244 1224 1225
f 1244 1225 1226

o geometry_80
usemtl material_12
v -0.35000000 0.66000000 0.08000000
v -0.31500000 0.66000000 0.08000000
v -0.31500000 0.67500000 0.08000000
v -0.35000000 0.67500000 0.08000000
v -0.32168441 0.66000000 0.05942752
v -0.32168441 0.67500000 0.05942752
v -0.33918441 0.66000000 0.04671302
v -0.33918441 0.67500000 0.04671302
v -0.36081559 0.66000000 0.04671302
v -0.36081559 0.67500000 0.04671302
v -0.37831559 0.66000000 0.05942752
v -0.37831559 0.67500000 0.05942752
v -0.38500000 0.66000000 0.08000000
v -0.38500000 0.67500000 0.08000000
v -0.37831559 0.66000000 0.10057248
v -0.37831559 0.67500000 0.10057248
v -0.36081559 0.66000000 0.11328698
v -0.36081559 0.67500000 0.11328698
v -0.33918441 0.66000000 0.11328698
v -0.33918441 0.67500000 0.11328698
v -0.32168441 0.66000000 0.10057248
v -0.32168441 0.67500000 0.10057248
f 1246 1245 1249
f 1246 1249 1247
f 1247 1249 1250
f 1247 1250 1248
f 1249 1245 1251
f 1249 1251 1250
f 1250 1251 1252
f 1250 1252 1248
f 1251 1245 1253
f 1251 1253 1252
f 1252 1253 1254
f 1252 1254 1248
f 1253 1245 1255
f 1253 1255 1254
f 1254 1255 1256
f 1254 1256 1248
f 1255 1245 1257
f 1255 1257 1256
f 1256 1257 1258
f 1256 1258 1248
f 1257 1245 1259
f 1257 1259 1258
f 1258 1259 1260
f 1258 1260 1248
f 1259 1245 1261
f 1259 1261 1260
f 1260 1261 1262
f 1260 1262 1248
f 1261 1245 1263
f 1261 1263 1262
f 1262 1263 1264
f 1262 1264 1248
f 1263 1245 1265
f 1263 1265 1264
f 1264 1265 1266
f 1264 1266 1248
f 1265 1245 1246
f 1265 1246 1266
f 1266 1246 1247
f 1266 1247 1248

