# Blender 5.2.0 LTS
# www.blender.org
mtllib bridge_tjunction.mtl
o geometry_0
v -0.485000 -0.049858 -0.497149
v -0.485000 -0.049858 -0.336185
v -0.485000 0.000142 -0.497149
v -0.485000 0.000142 -0.336185
v 0.485000 -0.049858 -0.497149
v 0.485000 -0.049858 -0.336185
v 0.485000 0.000142 -0.497149
v 0.485000 0.000142 -0.336185
vn -1.0000 -0.0000 -0.0000
vn -0.0000 -1.0000 -0.0000
vn -0.0000 -0.0000 -1.0000
vn -0.0000 -0.0000 1.0000
vn -0.0000 1.0000 -0.0000
vn 1.0000 -0.0000 -0.0000
s 1
usemtl material_3
f 2//1 4//1 1//1
f 5//2 2//2 1//2
f 1//1 4//1 3//1
f 3//3 5//3 1//3
f 2//4 8//4 4//4
f 6//2 2//2 5//2
f 6//4 8//4 2//4
f 4//5 8//5 3//5
f 7//3 5//3 3//3
f 3//5 8//5 7//5
f 7//6 6//6 5//6
f 8//6 6//6 7//6
o geometry_1
v -0.485000 -0.054270 -0.330487
v -0.485000 -0.054270 -0.169513
v -0.485000 -0.004270 -0.330487
v -0.485000 -0.004270 -0.169513
v 0.485000 -0.054270 -0.330487
v 0.485000 -0.054270 -0.169513
v 0.485000 -0.004270 -0.330487
v 0.485000 -0.004270 -0.169513
vn -1.0000 -0.0000 -0.0000
vn -0.0000 -1.0000 -0.0000
vn -0.0000 -0.0000 -1.0000
vn -0.0000 -0.0000 1.0000
vn -0.0000 1.0000 -0.0000
vn 1.0000 -0.0000 -0.0000
s 1
usemtl material_2
f 10//7 12//7 9//7
f 13//8 10//8 9//8
f 9//7 12//7 11//7
f 11//9 13//9 9//9
f 10//10 16//10 12//10
f 14//8 10//8 13//8
f 14//10 16//10 10//10
f 12//11 16//11 11//11
f 15//9 13//9 11//9
f 11//11 16//11 15//11
f 15//12 14//12 13//12
f 16//12 14//12 15//12
o geometry_10
v -0.417431 0.000000 0.450000
v -0.447431 0.000000 0.450000
v -0.432431 0.000000 0.424019
v -0.417431 0.000000 0.450000
v -0.432431 0.000000 0.424019
v -0.417431 0.420000 0.450000
v -0.417431 0.420000 0.450000
v -0.432431 0.000000 0.424019
v -0.432431 0.420000 0.424019
v -0.417431 0.420000 0.450000
v -0.432431 0.420000 0.424019
v -0.447431 0.420000 0.450000
v -0.432431 0.000000 0.424019
v -0.447431 0.000000 0.450000
v -0.462431 0.000000 0.424019
v -0.432431 0.000000 0.424019
v -0.462431 0.000000 0.424019
v -0.432431 0.420000 0.424019
v -0.432431 0.420000 0.424019
v -0.462431 0.000000 0.424019
v -0.462431 0.420000 0.424019
v -0.432431 0.420000 0.424019
v -0.462431 0.420000 0.424019
v -0.447431 0.420000 0.450000
v -0.462431 0.000000 0.424019
v -0.447431 0.000000 0.450000
v -0.477431 0.000000 0.450000
v -0.462431 0.000000 0.424019
v -0.477431 0.000000 0.450000
v -0.462431 0.420000 0.424019
v -0.462431 0.420000 0.424019
v -0.477431 0.000000 0.450000
v -0.477431 0.420000 0.450000
v -0.462431 0.420000 0.424019
v -0.477431 0.420000 0.450000
v -0.447431 0.420000 0.450000
v -0.477431 0.000000 0.450000
v -0.447431 0.000000 0.450000
v -0.462431 0.000000 0.475981
v -0.477431 0.000000 0.450000
v -0.462431 0.000000 0.475981
v -0.477431 0.420000 0.450000
v -0.477431 0.420000 0.450000
v -0.462431 0.000000 0.475981
v -0.462431 0.420000 0.475981
v -0.477431 0.420000 0.450000
v -0.462431 0.420000 0.475981
v -0.447431 0.420000 0.450000
v -0.462431 0.000000 0.475981
v -0.447431 0.000000 0.450000
v -0.432431 0.000000 0.475981
v -0.462431 0.000000 0.475981
v -0.432431 0.000000 0.475981
v -0.462431 0.420000 0.475981
v -0.462431 0.420000 0.475981
v -0.432431 0.000000 0.475981
v -0.432431 0.420000 0.475981
v -0.462431 0.420000 0.475981
v -0.432431 0.420000 0.475981
v -0.447431 0.420000 0.450000
v -0.432431 0.000000 0.475981
v -0.447431 0.000000 0.450000
v -0.417431 0.000000 0.450000
v -0.432431 0.000000 0.475981
v -0.417431 0.000000 0.450000
v -0.432431 0.420000 0.475981
v -0.432431 0.420000 0.475981
v -0.417431 0.000000 0.450000
v -0.417431 0.420000 0.450000
v -0.432431 0.420000 0.475981
v -0.417431 0.420000 0.450000
v -0.447431 0.420000 0.450000
vn -0.0000 -1.0000 -0.0000
vn 0.8660 -0.0000 -0.5000
vn -0.0000 1.0000 -0.0000
vn -0.0000 -0.0000 -1.0000
vn -0.8660 -0.0000 -0.5000
vn -0.8660 -0.0000 0.5000
vn -0.0000 -0.0000 1.0000
vn 0.8660 -0.0000 0.5000
s 1
usemtl material_0
f 17//13 18//13 19//13
f 20//14 21//14 22//14
f 23//14 24//14 25//14
f 26//15 27//15 28//15
f 29//13 30//13 31//13
f 32//16 33//16 34//16
f 35//16 36//16 37//16
f 38//15 39//15 40//15
f 41//13 42//13 43//13
f 44//17 45//17 46//17
f 47//17 48//17 49//17
f 50//15 51//15 52//15
f 53//13 54//13 55//13
f 56//18 57//18 58//18
f 59//18 60//18 61//18
f 62//15 63//15 64//15
f 65//13 66//13 67//13
f 68//19 69//19 70//19
f 71//19 72//19 73//19
f 74//15 75//15 76//15
f 77//13 78//13 79//13
f 80//20 81//20 82//20
f 83//20 84//20 85//20
f 86//15 87//15 88//15
o geometry_11
v -0.446000 0.211000 -0.450000
v -0.460000 0.211000 -0.450000
v -0.453000 0.223124 -0.450000
v -0.446000 0.211000 -0.450000
v -0.453000 0.223124 -0.450000
v -0.446000 0.211000 -0.000000
v -0.446000 0.211000 -0.000000
v -0.453000 0.223124 -0.450000
v -0.453000 0.223124 -0.000000
v -0.446000 0.211000 -0.000000
v -0.453000 0.223124 -0.000000
v -0.460000 0.211000 -0.000000
v -0.453000 0.223124 -0.450000
v -0.460000 0.211000 -0.450000
v -0.467000 0.223124 -0.450000
v -0.453000 0.223124 -0.450000
v -0.467000 0.223124 -0.450000
v -0.453000 0.223124 -0.000000
v -0.453000 0.223124 -0.000000
v -0.467000 0.223124 -0.450000
v -0.467000 0.223124 -0.000000
v -0.453000 0.223124 -0.000000
v -0.467000 0.223124 -0.000000
v -0.460000 0.211000 -0.000000
v -0.467000 0.223124 -0.450000
v -0.460000 0.211000 -0.450000
v -0.474000 0.211000 -0.450000
v -0.467000 0.223124 -0.450000
v -0.474000 0.211000 -0.450000
v -0.467000 0.223124 -0.000000
v -0.467000 0.223124 -0.000000
v -0.474000 0.211000 -0.450000
v -0.474000 0.211000 -0.000000
v -0.467000 0.223124 -0.000000
v -0.474000 0.211000 -0.000000
v -0.460000 0.211000 -0.000000
v -0.474000 0.211000 -0.450000
v -0.460000 0.211000 -0.450000
v -0.467000 0.198876 -0.450000
v -0.474000 0.211000 -0.450000
v -0.467000 0.198876 -0.450000
v -0.474000 0.211000 -0.000000
v -0.474000 0.211000 -0.000000
v -0.467000 0.198876 -0.450000
v -0.467000 0.198876 -0.000000
v -0.474000 0.211000 -0.000000
v -0.467000 0.198876 -0.000000
v -0.460000 0.211000 -0.000000
v -0.467000 0.198876 -0.450000
v -0.460000 0.211000 -0.450000
v -0.453000 0.198876 -0.450000
v -0.467000 0.198876 -0.450000
v -0.453000 0.198876 -0.450000
v -0.467000 0.198876 -0.000000
v -0.467000 0.198876 -0.000000
v -0.453000 0.198876 -0.450000
v -0.453000 0.198876 -0.000000
v -0.467000 0.198876 -0.000000
v -0.453000 0.198876 -0.000000
v -0.460000 0.211000 -0.000000
v -0.453000 0.198876 -0.450000
v -0.460000 0.211000 -0.450000
v -0.446000 0.211000 -0.450000
v -0.453000 0.198876 -0.450000
v -0.446000 0.211000 -0.450000
v -0.453000 0.198876 -0.000000
v -0.453000 0.198876 -0.000000
v -0.446000 0.211000 -0.450000
v -0.446000 0.211000 -0.000000
v -0.453000 0.198876 -0.000000
v -0.446000 0.211000 -0.000000
v -0.460000 0.211000 -0.000000
vn -0.0000 -0.0000 -1.0000
vn 0.8660 0.5000 -0.0000
vn -0.0000 -0.0000 1.0000
vn -0.0000 1.0000 -0.0000
vn -0.8660 0.5000 -0.0000
vn -0.8660 -0.5000 -0.0000
vn -0.0000 -1.0000 -0.0000
vn 0.8660 -0.5000 -0.0000
s 1
usemtl material_1
f 89//21 90//21 91//21
f 92//22 93//22 94//22
f 95//22 96//22 97//22
f 98//23 99//23 100//23
f 101//21 102//21 103//21
f 104//24 105//24 106//24
f 107//24 108//24 109//24
f 110//23 111//23 112//23
f 113//21 114//21 115//21
f 116//25 117//25 118//25
f 119//25 120//25 121//25
f 122//23 123//23 124//23
f 125//21 126//21 127//21
f 128//26 129//26 130//26
f 131//26 132//26 133//26
f 134//23 135//23 136//23
f 137//21 138//21 139//21
f 140//27 141//27 142//27
f 143//27 144//27 145//27
f 146//23 147//23 148//23
f 149//21 150//21 151//21
f 152//28 153//28 154//28
f 155//28 156//28 157//28
f 158//23 159//23 160//23
o geometry_12
v -0.446000 0.211000 -0.000000
v -0.460000 0.211000 -0.000000
v -0.453000 0.223124 -0.000000
v -0.446000 0.211000 -0.000000
v -0.453000 0.223124 -0.000000
v -0.446000 0.211000 0.450000
v -0.446000 0.211000 0.450000
v -0.453000 0.223124 -0.000000
v -0.453000 0.223124 0.450000
v -0.446000 0.211000 0.450000
v -0.453000 0.223124 0.450000
v -0.460000 0.211000 0.450000
v -0.453000 0.223124 -0.000000
v -0.460000 0.211000 -0.000000
v -0.467000 0.223124 -0.000000
v -0.453000 0.223124 -0.000000
v -0.467000 0.223124 -0.000000
v -0.453000 0.223124 0.450000
v -0.453000 0.223124 0.450000
v -0.467000 0.223124 -0.000000
v -0.467000 0.223124 0.450000
v -0.453000 0.223124 0.450000
v -0.467000 0.223124 0.450000
v -0.460000 0.211000 0.450000
v -0.467000 0.223124 -0.000000
v -0.460000 0.211000 -0.000000
v -0.474000 0.211000 -0.000000
v -0.467000 0.223124 -0.000000
v -0.474000 0.211000 -0.000000
v -0.467000 0.223124 0.450000
v -0.467000 0.223124 0.450000
v -0.474000 0.211000 -0.000000
v -0.474000 0.211000 0.450000
v -0.467000 0.223124 0.450000
v -0.474000 0.211000 0.450000
v -0.460000 0.211000 0.450000
v -0.474000 0.211000 -0.000000
v -0.460000 0.211000 -0.000000
v -0.467000 0.198876 -0.000000
v -0.474000 0.211000 -0.000000
v -0.467000 0.198876 -0.000000
v -0.474000 0.211000 0.450000
v -0.474000 0.211000 0.450000
v -0.467000 0.198876 -0.000000
v -0.467000 0.198876 0.450000
v -0.474000 0.211000 0.450000
v -0.467000 0.198876 0.450000
v -0.460000 0.211000 0.450000
v -0.467000 0.198876 -0.000000
v -0.460000 0.211000 -0.000000
v -0.453000 0.198876 -0.000000
v -0.467000 0.198876 -0.000000
v -0.453000 0.198876 -0.000000
v -0.467000 0.198876 0.450000
v -0.467000 0.198876 0.450000
v -0.453000 0.198876 -0.000000
v -0.453000 0.198876 0.450000
v -0.467000 0.198876 0.450000
v -0.453000 0.198876 0.450000
v -0.460000 0.211000 0.450000
v -0.453000 0.198876 -0.000000
v -0.460000 0.211000 -0.000000
v -0.446000 0.211000 -0.000000
v -0.453000 0.198876 -0.000000
v -0.446000 0.211000 -0.000000
v -0.453000 0.198876 0.450000
v -0.453000 0.198876 0.450000
v -0.446000 0.211000 -0.000000
v -0.446000 0.211000 0.450000
v -0.453000 0.198876 0.450000
v -0.446000 0.211000 0.450000
v -0.460000 0.211000 0.450000
vn -0.0000 -0.0000 -1.0000
vn 0.8660 0.5000 -0.0000
vn -0.0000 -0.0000 1.0000
vn -0.0000 1.0000 -0.0000
vn -0.8660 0.5000 -0.0000
vn -0.8660 -0.5000 -0.0000
vn -0.0000 -1.0000 -0.0000
vn 0.8660 -0.5000 -0.0000
s 1
usemtl material_1
f 161//29 162//29 163//29
f 164//30 165//30 166//30
f 167//30 168//30 169//30
f 170//31 171//31 172//31
f 173//29 174//29 175//29
f 176//32 177//32 178//32
f 179//32 180//32 181//32
f 182//31 183//31 184//31
f 185//29 186//29 187//29
f 188//33 189//33 190//33
f 191//33 192//33 193//33
f 194//31 195//31 196//31
f 197//29 198//29 199//29
f 200//34 201//34 202//34
f 203//34 204//34 205//34
f 206//31 207//31 208//31
f 209//29 210//29 211//29
f 212//35 213//35 214//35
f 215//35 216//35 217//35
f 218//31 219//31 220//31
f 221//29 222//29 223//29
f 224//36 225//36 226//36
f 227//36 228//36 229//36
f 230//31 231//31 232//31
o geometry_13
v -0.446000 0.391600 -0.450000
v -0.460000 0.391600 -0.450000
v -0.453000 0.403724 -0.450000
v -0.446000 0.391600 -0.450000
v -0.453000 0.403724 -0.450000
v -0.446000 0.391600 -0.000000
v -0.446000 0.391600 -0.000000
v -0.453000 0.403724 -0.450000
v -0.453000 0.403724 -0.000000
v -0.446000 0.391600 -0.000000
v -0.453000 0.403724 -0.000000
v -0.460000 0.391600 -0.000000
v -0.453000 0.403724 -0.450000
v -0.460000 0.391600 -0.450000
v -0.467000 0.403724 -0.450000
v -0.453000 0.403724 -0.450000
v -0.467000 0.403724 -0.450000
v -0.453000 0.403724 -0.000000
v -0.453000 0.403724 -0.000000
v -0.467000 0.403724 -0.450000
v -0.467000 0.403724 -0.000000
v -0.453000 0.403724 -0.000000
v -0.467000 0.403724 -0.000000
v -0.460000 0.391600 -0.000000
v -0.467000 0.403724 -0.450000
v -0.460000 0.391600 -0.450000
v -0.474000 0.391600 -0.450000
v -0.467000 0.403724 -0.450000
v -0.474000 0.391600 -0.450000
v -0.467000 0.403724 -0.000000
v -0.467000 0.403724 -0.000000
v -0.474000 0.391600 -0.450000
v -0.474000 0.391600 -0.000000
v -0.467000 0.403724 -0.000000
v -0.474000 0.391600 -0.000000
v -0.460000 0.391600 -0.000000
v -0.474000 0.391600 -0.450000
v -0.460000 0.391600 -0.450000
v -0.467000 0.379476 -0.450000
v -0.474000 0.391600 -0.450000
v -0.467000 0.379476 -0.450000
v -0.474000 0.391600 -0.000000
v -0.474000 0.391600 -0.000000
v -0.467000 0.379476 -0.450000
v -0.467000 0.379476 -0.000000
v -0.474000 0.391600 -0.000000
v -0.467000 0.379476 -0.000000
v -0.460000 0.391600 -0.000000
v -0.467000 0.379476 -0.450000
v -0.460000 0.391600 -0.450000
v -0.453000 0.379476 -0.450000
v -0.467000 0.379476 -0.450000
v -0.453000 0.379476 -0.450000
v -0.467000 0.379476 -0.000000
v -0.467000 0.379476 -0.000000
v -0.453000 0.379476 -0.450000
v -0.453000 0.379476 -0.000000
v -0.467000 0.379476 -0.000000
v -0.453000 0.379476 -0.000000
v -0.460000 0.391600 -0.000000
v -0.453000 0.379476 -0.450000
v -0.460000 0.391600 -0.450000
v -0.446000 0.391600 -0.450000
v -0.453000 0.379476 -0.450000
v -0.446000 0.391600 -0.450000
v -0.453000 0.379476 -0.000000
v -0.453000 0.379476 -0.000000
v -0.446000 0.391600 -0.450000
v -0.446000 0.391600 -0.000000
v -0.453000 0.379476 -0.000000
v -0.446000 0.391600 -0.000000
v -0.460000 0.391600 -0.000000
vn -0.0000 -0.0000 -1.0000
vn 0.8660 0.5000 -0.0000
vn -0.0000 -0.0000 1.0000
vn -0.0000 1.0000 -0.0000
vn -0.8660 0.5000 -0.0000
vn -0.8660 -0.5000 -0.0000
vn -0.0000 -1.0000 -0.0000
vn 0.8660 -0.5000 -0.0000
s 1
usemtl material_1
f 233//37 234//37 235//37
f 236//38 237//38 238//38
f 239//38 240//38 241//38
f 242//39 243//39 244//39
f 245//37 246//37 247//37
f 248//40 249//40 250//40
f 251//40 252//40 253//40
f 254//39 255//39 256//39
f 257//37 258//37 259//37
f 260//41 261//41 262//41
f 263//41 264//41 265//41
f 266//39 267//39 268//39
f 269//37 270//37 271//37
f 272//42 273//42 274//42
f 275//42 276//42 277//42
f 278//39 279//39 280//39
f 281//37 282//37 283//37
f 284//43 285//43 286//43
f 287//43 288//43 289//43
f 290//39 291//39 292//39
f 293//37 294//37 295//37
f 296//44 297//44 298//44
f 299//44 300//44 301//44
f 302//39 303//39 304//39
o geometry_14
v -0.446000 0.391600 -0.000000
v -0.460000 0.391600 -0.000000
v -0.453000 0.403724 -0.000000
v -0.446000 0.391600 -0.000000
v -0.453000 0.403724 -0.000000
v -0.446000 0.391600 0.450000
v -0.446000 0.391600 0.450000
v -0.453000 0.403724 -0.000000
v -0.453000 0.403724 0.450000
v -0.446000 0.391600 0.450000
v -0.453000 0.403724 0.450000
v -0.460000 0.391600 0.450000
v -0.453000 0.403724 -0.000000
v -0.460000 0.391600 -0.000000
v -0.467000 0.403724 -0.000000
v -0.453000 0.403724 -0.000000
v -0.467000 0.403724 -0.000000
v -0.453000 0.403724 0.450000
v -0.453000 0.403724 0.450000
v -0.467000 0.403724 -0.000000
v -0.467000 0.403724 0.450000
v -0.453000 0.403724 0.450000
v -0.467000 0.403724 0.450000
v -0.460000 0.391600 0.450000
v -0.467000 0.403724 -0.000000
v -0.460000 0.391600 -0.000000
v -0.474000 0.391600 -0.000000
v -0.467000 0.403724 -0.000000
v -0.474000 0.391600 -0.000000
v -0.467000 0.403724 0.450000
v -0.467000 0.403724 0.450000
v -0.474000 0.391600 -0.000000
v -0.474000 0.391600 0.450000
v -0.467000 0.403724 0.450000
v -0.474000 0.391600 0.450000
v -0.460000 0.391600 0.450000
v -0.474000 0.391600 -0.000000
v -0.460000 0.391600 -0.000000
v -0.467000 0.379476 -0.000000
v -0.474000 0.391600 -0.000000
v -0.467000 0.379476 -0.000000
v -0.474000 0.391600 0.450000
v -0.474000 0.391600 0.450000
v -0.467000 0.379476 -0.000000
v -0.467000 0.379476 0.450000
v -0.474000 0.391600 0.450000
v -0.467000 0.379476 0.450000
v -0.460000 0.391600 0.450000
v -0.467000 0.379476 -0.000000
v -0.460000 0.391600 -0.000000
v -0.453000 0.379476 -0.000000
v -0.467000 0.379476 -0.000000
v -0.453000 0.379476 -0.000000
v -0.467000 0.379476 0.450000
v -0.467000 0.379476 0.450000
v -0.453000 0.379476 -0.000000
v -0.453000 0.379476 0.450000
v -0.467000 0.379476 0.450000
v -0.453000 0.379476 0.450000
v -0.460000 0.391600 0.450000
v -0.453000 0.379476 -0.000000
v -0.460000 0.391600 -0.000000
v -0.446000 0.391600 -0.000000
v -0.453000 0.379476 -0.000000
v -0.446000 0.391600 -0.000000
v -0.453000 0.379476 0.450000
v -0.453000 0.379476 0.450000
v -0.446000 0.391600 -0.000000
v -0.446000 0.391600 0.450000
v -0.453000 0.379476 0.450000
v -0.446000 0.391600 0.450000
v -0.460000 0.391600 0.450000
vn -0.0000 -0.0000 -1.0000
vn 0.8660 0.5000 -0.0000
vn -0.0000 -0.0000 1.0000
vn -0.0000 1.0000 -0.0000
vn -0.8660 0.5000 -0.0000
vn -0.8660 -0.5000 -0.0000
vn -0.0000 -1.0000 -0.0000
vn 0.8660 -0.5000 -0.0000
s 1
usemtl material_1
f 305//45 306//45 307//45
f 308//46 309//46 310//46
f 311//46 312//46 313//46
f 314//47 315//47 316//47
f 317//45 318//45 319//45
f 320//48 321//48 322//48
f 323//48 324//48 325//48
f 326//47 327//47 328//47
f 329//45 330//45 331//45
f 332//49 333//49 334//49
f 335//49 336//49 337//49
f 338//47 339//47 340//47
f 341//45 342//45 343//45
f 344//50 345//50 346//50
f 347//50 348//50 349//50
f 350//47 351//47 352//47
f 353//45 354//45 355//45
f 356//51 357//51 358//51
f 359//51 360//51 361//51
f 362//47 363//47 364//47
f 365//45 366//45 367//45
f 368//52 369//52 370//52
f 371//52 372//52 373//52
f 374//47 375//47 376//47
o geometry_15
v -0.446000 0.231000 -0.500000
v -0.460000 0.231000 -0.500000
v -0.453000 0.243124 -0.500000
v -0.446000 0.231000 -0.500000
v -0.453000 0.243124 -0.500000
v -0.446000 0.231000 -0.450000
v -0.446000 0.231000 -0.450000
v -0.453000 0.243124 -0.500000
v -0.453000 0.243124 -0.450000
v -0.446000 0.231000 -0.450000
v -0.453000 0.243124 -0.450000
v -0.460000 0.231000 -0.450000
v -0.453000 0.243124 -0.500000
v -0.460000 0.231000 -0.500000
v -0.467000 0.243124 -0.500000
v -0.453000 0.243124 -0.500000
v -0.467000 0.243124 -0.500000
v -0.453000 0.243124 -0.450000
v -0.453000 0.243124 -0.450000
v -0.467000 0.243124 -0.500000
v -0.467000 0.243124 -0.450000
v -0.453000 0.243124 -0.450000
v -0.467000 0.243124 -0.450000
v -0.460000 0.231000 -0.450000
v -0.467000 0.243124 -0.500000
v -0.460000 0.231000 -0.500000
v -0.474000 0.231000 -0.500000
v -0.467000 0.243124 -0.500000
v -0.474000 0.231000 -0.500000
v -0.467000 0.243124 -0.450000
v -0.467000 0.243124 -0.450000
v -0.474000 0.231000 -0.500000
v -0.474000 0.231000 -0.450000
v -0.467000 0.243124 -0.450000
v -0.474000 0.231000 -0.450000
v -0.460000 0.231000 -0.450000
v -0.474000 0.231000 -0.500000
v -0.460000 0.231000 -0.500000
v -0.467000 0.218876 -0.500000
v -0.474000 0.231000 -0.500000
v -0.467000 0.218876 -0.500000
v -0.474000 0.231000 -0.450000
v -0.474000 0.231000 -0.450000
v -0.467000 0.218876 -0.500000
v -0.467000 0.218876 -0.450000
v -0.474000 0.231000 -0.450000
v -0.467000 0.218876 -0.450000
v -0.460000 0.231000 -0.450000
v -0.467000 0.218876 -0.500000
v -0.460000 0.231000 -0.500000
v -0.453000 0.218876 -0.500000
v -0.467000 0.218876 -0.500000
v -0.453000 0.218876 -0.500000
v -0.467000 0.218876 -0.450000
v -0.467000 0.218876 -0.450000
v -0.453000 0.218876 -0.500000
v -0.453000 0.218876 -0.450000
v -0.467000 0.218876 -0.450000
v -0.453000 0.218876 -0.450000
v -0.460000 0.231000 -0.450000
v -0.453000 0.218876 -0.500000
v -0.460000 0.231000 -0.500000
v -0.446000 0.231000 -0.500000
v -0.453000 0.218876 -0.500000
v -0.446000 0.231000 -0.500000
v -0.453000 0.218876 -0.450000
v -0.453000 0.218876 -0.450000
v -0.446000 0.231000 -0.500000
v -0.446000 0.231000 -0.450000
v -0.453000 0.218876 -0.450000
v -0.446000 0.231000 -0.450000
v -0.460000 0.231000 -0.450000
vn -0.0000 -0.0000 -1.0000
vn 0.8660 0.5000 -0.0000
vn -0.0000 -0.0000 1.0000
vn -0.0000 1.0000 -0.0000
vn -0.8660 0.5000 -0.0000
vn -0.8660 -0.5000 -0.0000
vn -0.0000 -1.0000 -0.0000
vn 0.8660 -0.5000 -0.0000
s 1
usemtl material_1
f 377//53 378//53 379//53
f 380//54 381//54 382//54
f 383//54 384//54 385//54
f 386//55 387//55 388//55
f 389//53 390//53 391//53
f 392//56 393//56 394//56
f 395//56 396//56 397//56
f 398//55 399//55 400//55
f 401//53 402//53 403//53
f 404//57 405//57 406//57
f 407//57 408//57 409//57
f 410//55 411//55 412//55
f 413//53 414//53 415//53
f 416//58 417//58 418//58
f 419//58 420//58 421//58
f 422//55 423//55 424//55
f 425//53 426//53 427//53
f 428//59 429//59 430//59
f 431//59 432//59 433//59
f 434//55 435//55 436//55
f 437//53 438//53 439//53
f 440//60 441//60 442//60
f 443//60 444//60 445//60
f 446//55 447//55 448//55
o geometry_16
v -0.446000 0.231000 0.450000
v -0.460000 0.231000 0.450000
v -0.453000 0.243124 0.450000
v -0.446000 0.231000 0.450000
v -0.453000 0.243124 0.450000
v -0.446000 0.231000 0.500000
v -0.446000 0.231000 0.500000
v -0.453000 0.243124 0.450000
v -0.453000 0.243124 0.500000
v -0.446000 0.231000 0.500000
v -0.453000 0.243124 0.500000
v -0.460000 0.231000 0.500000
v -0.453000 0.243124 0.450000
v -0.460000 0.231000 0.450000
v -0.467000 0.243124 0.450000
v -0.453000 0.243124 0.450000
v -0.467000 0.243124 0.450000
v -0.453000 0.243124 0.500000
v -0.453000 0.243124 0.500000
v -0.467000 0.243124 0.450000
v -0.467000 0.243124 0.500000
v -0.453000 0.243124 0.500000
v -0.467000 0.243124 0.500000
v -0.460000 0.231000 0.500000
v -0.467000 0.243124 0.450000
v -0.460000 0.231000 0.450000
v -0.474000 0.231000 0.450000
v -0.467000 0.243124 0.450000
v -0.474000 0.231000 0.450000
v -0.467000 0.243124 0.500000
v -0.467000 0.243124 0.500000
v -0.474000 0.231000 0.450000
v -0.474000 0.231000 0.500000
v -0.467000 0.243124 0.500000
v -0.474000 0.231000 0.500000
v -0.460000 0.231000 0.500000
v -0.474000 0.231000 0.450000
v -0.460000 0.231000 0.450000
v -0.467000 0.218876 0.450000
v -0.474000 0.231000 0.450000
v -0.467000 0.218876 0.450000
v -0.474000 0.231000 0.500000
v -0.474000 0.231000 0.500000
v -0.467000 0.218876 0.450000
v -0.467000 0.218876 0.500000
v -0.474000 0.231000 0.500000
v -0.467000 0.218876 0.500000
v -0.460000 0.231000 0.500000
v -0.467000 0.218876 0.450000
v -0.460000 0.231000 0.450000
v -0.453000 0.218876 0.450000
v -0.467000 0.218876 0.450000
v -0.453000 0.218876 0.450000
v -0.467000 0.218876 0.500000
v -0.467000 0.218876 0.500000
v -0.453000 0.218876 0.450000
v -0.453000 0.218876 0.500000
v -0.467000 0.218876 0.500000
v -0.453000 0.218876 0.500000
v -0.460000 0.231000 0.500000
v -0.453000 0.218876 0.450000
v -0.460000 0.231000 0.450000
v -0.446000 0.231000 0.450000
v -0.453000 0.218876 0.450000
v -0.446000 0.231000 0.450000
v -0.453000 0.218876 0.500000
v -0.453000 0.218876 0.500000
v -0.446000 0.231000 0.450000
v -0.446000 0.231000 0.500000
v -0.453000 0.218876 0.500000
v -0.446000 0.231000 0.500000
v -0.460000 0.231000 0.500000
vn -0.0000 -0.0000 -1.0000
vn 0.8660 0.5000 -0.0000
vn -0.0000 -0.0000 1.0000
vn -0.0000 1.0000 -0.0000
vn -0.8660 0.5000 -0.0000
vn -0.8660 -0.5000 -0.0000
vn -0.0000 -1.0000 -0.0000
vn 0.8660 -0.5000 -0.0000
s 1
usemtl material_1
f 449//61 450//61 451//61
f 452//62 453//62 454//62
f 455//62 456//62 457//62
f 458//63 459//63 460//63
f 461//61 462//61 463//61
f 464//64 465//64 466//64
f 467//64 468//64 469//64
f 470//63 471//63 472//63
f 473//61 474//61 475//61
f 476//65 477//65 478//65
f 479//65 480//65 481//65
f 482//63 483//63 484//63
f 485//61 486//61 487//61
f 488//66 489//66 490//66
f 491//66 492//66 493//66
f 494//63 495//63 496//63
f 497//61 498//61 499//61
f 500//67 501//67 502//67
f 503//67 504//67 505//67
f 506//63 507//63 508//63
f 509//61 510//61 511//61
f 512//68 513//68 514//68
f 515//68 516//68 517//68
f 518//63 519//63 520//63
o geometry_17
v -0.446000 0.411600 -0.500000
v -0.460000 0.411600 -0.500000
v -0.453000 0.423724 -0.500000
v -0.446000 0.411600 -0.500000
v -0.453000 0.423724 -0.500000
v -0.446000 0.411600 -0.450000
v -0.446000 0.411600 -0.450000
v -0.453000 0.423724 -0.500000
v -0.453000 0.423724 -0.450000
v -0.446000 0.411600 -0.450000
v -0.453000 0.423724 -0.450000
v -0.460000 0.411600 -0.450000
v -0.453000 0.423724 -0.500000
v -0.460000 0.411600 -0.500000
v -0.467000 0.423724 -0.500000
v -0.453000 0.423724 -0.500000
v -0.467000 0.423724 -0.500000
v -0.453000 0.423724 -0.450000
v -0.453000 0.423724 -0.450000
v -0.467000 0.423724 -0.500000
v -0.467000 0.423724 -0.450000
v -0.453000 0.423724 -0.450000
v -0.467000 0.423724 -0.450000
v -0.460000 0.411600 -0.450000
v -0.467000 0.423724 -0.500000
v -0.460000 0.411600 -0.500000
v -0.474000 0.411600 -0.500000
v -0.467000 0.423724 -0.500000
v -0.474000 0.411600 -0.500000
v -0.467000 0.423724 -0.450000
v -0.467000 0.423724 -0.450000
v -0.474000 0.411600 -0.500000
v -0.474000 0.411600 -0.450000
v -0.467000 0.423724 -0.450000
v -0.474000 0.411600 -0.450000
v -0.460000 0.411600 -0.450000
v -0.474000 0.411600 -0.500000
v -0.460000 0.411600 -0.500000
v -0.467000 0.399476 -0.500000
v -0.474000 0.411600 -0.500000
v -0.467000 0.399476 -0.500000
v -0.474000 0.411600 -0.450000
v -0.474000 0.411600 -0.450000
v -0.467000 0.399476 -0.500000
v -0.467000 0.399476 -0.450000
v -0.474000 0.411600 -0.450000
v -0.467000 0.399476 -0.450000
v -0.460000 0.411600 -0.450000
v -0.467000 0.399476 -0.500000
v -0.460000 0.411600 -0.500000
v -0.453000 0.399476 -0.500000
v -0.467000 0.399476 -0.500000
v -0.453000 0.399476 -0.500000
v -0.467000 0.399476 -0.450000
v -0.467000 0.399476 -0.450000
v -0.453000 0.399476 -0.500000
v -0.453000 0.399476 -0.450000
v -0.467000 0.399476 -0.450000
v -0.453000 0.399476 -0.450000
v -0.460000 0.411600 -0.450000
v -0.453000 0.399476 -0.500000
v -0.460000 0.411600 -0.500000
v -0.446000 0.411600 -0.500000
v -0.453000 0.399476 -0.500000
v -0.446000 0.411600 -0.500000
v -0.453000 0.399476 -0.450000
v -0.453000 0.399476 -0.450000
v -0.446000 0.411600 -0.500000
v -0.446000 0.411600 -0.450000
v -0.453000 0.399476 -0.450000
v -0.446000 0.411600 -0.450000
v -0.460000 0.411600 -0.450000
vn -0.0000 -0.0000 -1.0000
vn 0.8660 0.5000 -0.0000
vn -0.0000 -0.0000 1.0000
vn -0.0000 1.0000 -0.0000
vn -0.8660 0.5000 -0.0000
vn -0.8660 -0.5000 -0.0000
vn -0.0000 -1.0000 -0.0000
vn 0.8660 -0.5000 -0.0000
s 1
usemtl material_1
f 521//69 522//69 523//69
f 524//70 525//70 526//70
f 527//70 528//70 529//70
f 530//71 531//71 532//71
f 533//69 534//69 535//69
f 536//72 537//72 538//72
f 539//72 540//72 541//72
f 542//71 543//71 544//71
f 545//69 546//69 547//69
f 548//73 549//73 550//73
f 551//73 552//73 553//73
f 554//71 555//71 556//71
f 557//69 558//69 559//69
f 560//74 561//74 562//74
f 563//74 564//74 565//74
f 566//71 567//71 568//71
f 569//69 570//69 571//69
f 572//75 573//75 574//75
f 575//75 576//75 577//75
f 578//71 579//71 580//71
f 581//69 582//69 583//69
f 584//76 585//76 586//76
f 587//76 588//76 589//76
f 590//71 591//71 592//71
o geometry_18
v -0.446000 0.411600 0.450000
v -0.460000 0.411600 0.450000
v -0.453000 0.423724 0.450000
v -0.446000 0.411600 0.450000
v -0.453000 0.423724 0.450000
v -0.446000 0.411600 0.500000
v -0.446000 0.411600 0.500000
v -0.453000 0.423724 0.450000
v -0.453000 0.423724 0.500000
v -0.446000 0.411600 0.500000
v -0.453000 0.423724 0.500000
v -0.460000 0.411600 0.500000
v -0.453000 0.423724 0.450000
v -0.460000 0.411600 0.450000
v -0.467000 0.423724 0.450000
v -0.453000 0.423724 0.450000
v -0.467000 0.423724 0.450000
v -0.453000 0.423724 0.500000
v -0.453000 0.423724 0.500000
v -0.467000 0.423724 0.450000
v -0.467000 0.423724 0.500000
v -0.453000 0.423724 0.500000
v -0.467000 0.423724 0.500000
v -0.460000 0.411600 0.500000
v -0.467000 0.423724 0.450000
v -0.460000 0.411600 0.450000
v -0.474000 0.411600 0.450000
v -0.467000 0.423724 0.450000
v -0.474000 0.411600 0.450000
v -0.467000 0.423724 0.500000
v -0.467000 0.423724 0.500000
v -0.474000 0.411600 0.450000
v -0.474000 0.411600 0.500000
v -0.467000 0.423724 0.500000
v -0.474000 0.411600 0.500000
v -0.460000 0.411600 0.500000
v -0.474000 0.411600 0.450000
v -0.460000 0.411600 0.450000
v -0.467000 0.399476 0.450000
v -0.474000 0.411600 0.450000
v -0.467000 0.399476 0.450000
v -0.474000 0.411600 0.500000
v -0.474000 0.411600 0.500000
v -0.467000 0.399476 0.450000
v -0.467000 0.399476 0.500000
v -0.474000 0.411600 0.500000
v -0.467000 0.399476 0.500000
v -0.460000 0.411600 0.500000
v -0.467000 0.399476 0.450000
v -0.460000 0.411600 0.450000
v -0.453000 0.399476 0.450000
v -0.467000 0.399476 0.450000
v -0.453000 0.399476 0.450000
v -0.467000 0.399476 0.500000
v -0.467000 0.399476 0.500000
v -0.453000 0.399476 0.450000
v -0.453000 0.399476 0.500000
v -0.467000 0.399476 0.500000
v -0.453000 0.399476 0.500000
v -0.460000 0.411600 0.500000
v -0.453000 0.399476 0.450000
v -0.460000 0.411600 0.450000
v -0.446000 0.411600 0.450000
v -0.453000 0.399476 0.450000
v -0.446000 0.411600 0.450000
v -0.453000 0.399476 0.500000
v -0.453000 0.399476 0.500000
v -0.446000 0.411600 0.450000
v -0.446000 0.411600 0.500000
v -0.453000 0.399476 0.500000
v -0.446000 0.411600 0.500000
v -0.460000 0.411600 0.500000
vn -0.0000 -0.0000 -1.0000
vn 0.8660 0.5000 -0.0000
vn -0.0000 -0.0000 1.0000
vn -0.0000 1.0000 -0.0000
vn -0.8660 0.5000 -0.0000
vn -0.8660 -0.5000 -0.0000
vn -0.0000 -1.0000 -0.0000
vn 0.8660 -0.5000 -0.0000
s 1
usemtl material_1
f 593//77 594//77 595//77
f 596//78 597//78 598//78
f 599//78 600//78 601//78
f 602//79 603//79 604//79
f 605//77 606//77 607//77
f 608//80 609//80 610//80
f 611//80 612//80 613//80
f 614//79 615//79 616//79
f 617//77 618//77 619//77
f 620//81 621//81 622//81
f 623//81 624//81 625//81
f 626//79 627//79 628//79
f 629//77 630//77 631//77
f 632//82 633//82 634//82
f 635//82 636//82 637//82
f 638//79 639//79 640//79
f 641//77 642//77 643//77
f 644//83 645//83 646//83
f 647//83 648//83 649//83
f 650//79 651//79 652//79
f 653//77 654//77 655//77
f 656//84 657//84 658//84
f 659//84 660//84 661//84
f 662//79 663//79 664//79
o geometry_19
v 0.473677 -0.000000 -0.450000
v 0.443677 -0.000000 -0.450000
v 0.458677 -0.000000 -0.475981
v 0.473677 -0.000000 -0.450000
v 0.458677 -0.000000 -0.475981
v 0.473677 0.420000 -0.450000
v 0.473677 0.420000 -0.450000
v 0.458677 -0.000000 -0.475981
v 0.458677 0.420000 -0.475981
v 0.473677 0.420000 -0.450000
v 0.458677 0.420000 -0.475981
v 0.443677 0.420000 -0.450000
v 0.458677 -0.000000 -0.475981
v 0.443677 -0.000000 -0.450000
v 0.428677 -0.000000 -0.475981
v 0.458677 -0.000000 -0.475981
v 0.428677 -0.000000 -0.475981
v 0.458677 0.420000 -0.475981
v 0.458677 0.420000 -0.475981
v 0.428677 -0.000000 -0.475981
v 0.428677 0.420000 -0.475981
v 0.458677 0.420000 -0.475981
v 0.428677 0.420000 -0.475981
v 0.443677 0.420000 -0.450000
v 0.428677 -0.000000 -0.475981
v 0.443677 -0.000000 -0.450000
v 0.413677 -0.000000 -0.450000
v 0.428677 -0.000000 -0.475981
v 0.413677 -0.000000 -0.450000
v 0.428677 0.420000 -0.475981
v 0.428677 0.420000 -0.475981
v 0.413677 -0.000000 -0.450000
v 0.413677 0.420000 -0.450000
v 0.428677 0.420000 -0.475981
v 0.413677 0.420000 -0.450000
v 0.443677 0.420000 -0.450000
v 0.413677 -0.000000 -0.450000
v 0.443677 -0.000000 -0.450000
v 0.428677 -0.000000 -0.424019
v 0.413677 -0.000000 -0.450000
v 0.428677 -0.000000 -0.424019
v 0.413677 0.420000 -0.450000
v 0.413677 0.420000 -0.450000
v 0.428677 -0.000000 -0.424019
v 0.428677 0.420000 -0.424019
v 0.413677 0.420000 -0.450000
v 0.428677 0.420000 -0.424019
v 0.443677 0.420000 -0.450000
v 0.428677 -0.000000 -0.424019
v 0.443677 -0.000000 -0.450000
v 0.458677 -0.000000 -0.424019
v 0.428677 -0.000000 -0.424019
v 0.458677 -0.000000 -0.424019
v 0.428677 0.420000 -0.424019
v 0.428677 0.420000 -0.424019
v 0.458677 -0.000000 -0.424019
v 0.458677 0.420000 -0.424019
v 0.428677 0.420000 -0.424019
v 0.458677 0.420000 -0.424019
v 0.443677 0.420000 -0.450000
v 0.458677 -0.000000 -0.424019
v 0.443677 -0.000000 -0.450000
v 0.473677 -0.000000 -0.450000
v 0.458677 -0.000000 -0.424019
v 0.473677 -0.000000 -0.450000
v 0.458677 0.420000 -0.424019
v 0.458677 0.420000 -0.424019
v 0.473677 -0.000000 -0.450000
v 0.473677 0.420000 -0.450000
v 0.458677 0.420000 -0.424019
v 0.473677 0.420000 -0.450000
v 0.443677 0.420000 -0.450000
vn -0.0000 -1.0000 -0.0000
vn 0.8660 -0.0000 -0.5000
vn -0.0000 1.0000 -0.0000
vn -0.0000 -0.0000 -1.0000
vn -0.8660 -0.0000 -0.5000
vn -0.8660 -0.0000 0.5000
vn -0.0000 -0.0000 1.0000
vn 0.8660 -0.0000 0.5000
s 1
usemtl material_0
f 665//85 666//85 667//85
f 668//86 669//86 670//86
f 671//86 672//86 673//86
f 674//87 675//87 676//87
f 677//85 678//85 679//85
f 680//88 681//88 682//88
f 683//88 684//88 685//88
f 686//87 687//87 688//87
f 689//85 690//85 691//85
f 692//89 693//89 694//89
f 695//89 696//89 697//89
f 698//87 699//87 700//87
f 701//85 702//85 703//85
f 704//90 705//90 706//90
f 707//90 708//90 709//90
f 710//87 711//87 712//87
f 713//85 714//85 715//85
f 716//91 717//91 718//91
f 719//91 720//91 721//91
f 722//87 723//87 724//87
f 725//85 726//85 727//85
f 728//92 729//92 730//92
f 731//92 732//92 733//92
f 734//87 735//87 736//87
o geometry_2
v -0.485000 -0.052258 -0.165397
v -0.485000 -0.052258 -0.001270
v -0.485000 -0.002258 -0.165397
v -0.485000 -0.002258 -0.001270
v 0.485000 -0.052258 -0.165397
v 0.485000 -0.052258 -0.001270
v 0.485000 -0.002258 -0.165397
v 0.485000 -0.002258 -0.001270
vn -1.0000 -0.0000 -0.0000
vn -0.0000 -1.0000 -0.0000
vn -0.0000 -0.0000 -1.0000
vn -0.0000 -0.0000 1.0000
vn -0.0000 1.0000 -0.0000
vn 1.0000 -0.0000 -0.0000
s 1
usemtl material_3
f 738//93 740//93 737//93
f 741//94 738//94 737//94
f 737//93 740//93 739//93
f 739//95 741//95 737//95
f 738//96 744//96 740//96
f 742//94 738//94 741//94
f 742//96 744//96 738//96
f 740//97 744//97 739//97
f 743//95 741//95 739//95
f 739//97 744//97 743//97
f 743//98 742//98 741//98
f 744//98 742//98 743//98
o geometry_21
v 0.499142 0.000000 0.450000
v 0.469142 0.000000 0.450000
v 0.484142 0.000000 0.424019
v 0.499142 0.000000 0.450000
v 0.484142 0.000000 0.424019
v 0.499142 0.420000 0.450000
v 0.499142 0.420000 0.450000
v 0.484142 0.000000 0.424019
v 0.484142 0.420000 0.424019
v 0.499142 0.420000 0.450000
v 0.484142 0.420000 0.424019
v 0.469142 0.420000 0.450000
v 0.484142 0.000000 0.424019
v 0.469142 0.000000 0.450000
v 0.454142 0.000000 0.424019
v 0.484142 0.000000 0.424019
v 0.454142 0.000000 0.424019
v 0.484142 0.420000 0.424019
v 0.484142 0.420000 0.424019
v 0.454142 0.000000 0.424019
v 0.454142 0.420000 0.424019
v 0.484142 0.420000 0.424019
v 0.454142 0.420000 0.424019
v 0.469142 0.420000 0.450000
v 0.454142 0.000000 0.424019
v 0.469142 0.000000 0.450000
v 0.439142 0.000000 0.450000
v 0.454142 0.000000 0.424019
v 0.439142 0.000000 0.450000
v 0.454142 0.420000 0.424019
v 0.454142 0.420000 0.424019
v 0.439142 0.000000 0.450000
v 0.439142 0.420000 0.450000
v 0.454142 0.420000 0.424019
v 0.439142 0.420000 0.450000
v 0.469142 0.420000 0.450000
v 0.439142 0.000000 0.450000
v 0.469142 0.000000 0.450000
v 0.454142 0.000000 0.475981
v 0.439142 0.000000 0.450000
v 0.454142 0.000000 0.475981
v 0.439142 0.420000 0.450000
v 0.439142 0.420000 0.450000
v 0.454142 0.000000 0.475981
v 0.454142 0.420000 0.475981
v 0.439142 0.420000 0.450000
v 0.454142 0.420000 0.475981
v 0.469142 0.420000 0.450000
v 0.454142 0.000000 0.475981
v 0.469142 0.000000 0.450000
v 0.484142 0.000000 0.475981
v 0.454142 0.000000 0.475981
v 0.484142 0.000000 0.475981
v 0.454142 0.420000 0.475981
v 0.454142 0.420000 0.475981
v 0.484142 0.000000 0.475981
v 0.484142 0.420000 0.475981
v 0.454142 0.420000 0.475981
v 0.484142 0.420000 0.475981
v 0.469142 0.420000 0.450000
v 0.484142 0.000000 0.475981
v 0.469142 0.000000 0.450000
v 0.499142 0.000000 0.450000
v 0.484142 0.000000 0.475981
v 0.499142 0.000000 0.450000
v 0.484142 0.420000 0.475981
v 0.484142 0.420000 0.475981
v 0.499142 0.000000 0.450000
v 0.499142 0.420000 0.450000
v 0.484142 0.420000 0.475981
v 0.499142 0.420000 0.450000
v 0.469142 0.420000 0.450000
vn -0.0000 -1.0000 -0.0000
vn 0.8660 -0.0000 -0.5000
vn -0.0000 1.0000 -0.0000
vn -0.0000 -0.0000 -1.0000
vn -0.8660 -0.0000 -0.5000
vn -0.8660 -0.0000 0.5000
vn -0.0000 -0.0000 1.0000
vn 0.8660 -0.0000 0.5000
s 1
usemtl material_0
f 745//99 746//99 747//99
f 748//100 749//100 750//100
f 751//100 752//100 753//100
f 754//101 755//101 756//101
f 757//99 758//99 759//99
f 760//102 761//102 762//102
f 763//102 764//102 765//102
f 766//101 767//101 768//101
f 769//99 770//99 771//99
f 772//103 773//103 774//103
f 775//103 776//103 777//103
f 778//101 779//101 780//101
f 781//99 782//99 783//99
f 784//104 785//104 786//104
f 787//104 788//104 789//104
f 790//101 791//101 792//101
f 793//99 794//99 795//99
f 796//105 797//105 798//105
f 799//105 800//105 801//105
f 802//101 803//101 804//101
f 805//99 806//99 807//99
f 808//106 809//106 810//106
f 811//106 812//106 813//106
f 814//101 815//101 816//101
o geometry_3
v -0.485000 -0.046068 0.001228
v -0.485000 -0.046068 0.165439
v -0.485000 0.003932 0.001228
v -0.485000 0.003932 0.165439
v 0.485000 -0.046068 0.001228
v 0.485000 -0.046068 0.165439
v 0.485000 0.003932 0.001228
v 0.485000 0.003932 0.165439
vn -1.0000 -0.0000 -0.0000
vn -0.0000 -1.0000 -0.0000
vn -0.0000 -0.0000 -1.0000
vn -0.0000 -0.0000 1.0000
vn -0.0000 1.0000 -0.0000
vn 1.0000 -0.0000 -0.0000
s 1
usemtl material_2
f 818//107 820//107 817//107
f 821//108 818//108 817//108
f 817//107 820//107 819//107
f 819//109 821//109 817//109
f 818//110 824//110 820//110
f 822//108 818//108 821//108
f 822//110 824//110 818//110
f 820//111 824//111 819//111
f 823//109 821//109 819//109
f 819//111 824//111 823//111
f 823//112 822//112 821//112
f 824//112 822//112 823//112
o geometry_4
v -0.485000 -0.049405 0.166749
v -0.485000 -0.049405 0.333251
v -0.485000 0.000595 0.166749
v -0.485000 0.000595 0.333251
v 0.485000 -0.049405 0.166749
v 0.485000 -0.049405 0.333251
v 0.485000 0.000595 0.166749
v 0.485000 0.000595 0.333251
vn -1.0000 -0.0000 -0.0000
vn -0.0000 -1.0000 -0.0000
vn -0.0000 -0.0000 -1.0000
vn -0.0000 -0.0000 1.0000
vn -0.0000 1.0000 -0.0000
vn 1.0000 -0.0000 -0.0000
s 1
usemtl material_3
f 826//113 828//113 825//113
f 829//114 826//114 825//114
f 825//113 828//113 827//113
f 827//115 829//115 825//115
f 826//116 832//116 828//116
f 830//114 826//114 829//114
f 830//116 832//116 826//116
f 828//117 832//117 827//117
f 831//115 829//115 827//115
f 827//117 832//117 831//117
f 831//118 830//118 829//118
f 832//118 830//118 831//118
o geometry_5
v -0.485000 -0.046958 0.334948
v -0.485000 -0.046958 0.498386
v -0.485000 0.003042 0.334948
v -0.485000 0.003042 0.498386
v 0.485000 -0.046958 0.334948
v 0.485000 -0.046958 0.498386
v 0.485000 0.003042 0.334948
v 0.485000 0.003042 0.498386
vn -1.0000 -0.0000 -0.0000
vn -0.0000 -1.0000 -0.0000
vn -0.0000 -0.0000 -1.0000
vn -0.0000 -0.0000 1.0000
vn -0.0000 1.0000 -0.0000
vn 1.0000 -0.0000 -0.0000
s 1
usemtl material_2
f 834//119 836//119 833//119
f 837//120 834//120 833//120
f 833//119 836//119 835//119
f 835//121 837//121 833//121
f 834//122 840//122 836//122
f 838//120 834//120 837//120
f 838//122 840//122 834//122
f 836//123 840//123 835//123
f 839//121 837//121 835//121
f 835//123 840//123 839//123
f 839//124 838//124 837//124
f 840//124 838//124 839//124
o geometry_6
v -0.470000 -0.100000 -0.500000
v -0.470000 -0.100000 0.500000
v -0.470000 -0.050000 -0.500000
v -0.470000 -0.050000 0.500000
v -0.410000 -0.100000 -0.500000
v -0.410000 -0.100000 0.500000
v -0.410000 -0.050000 -0.500000
v -0.410000 -0.050000 0.500000
vn -1.0000 -0.0000 -0.0000
vn -0.0000 -1.0000 -0.0000
vn -0.0000 -0.0000 -1.0000
vn -0.0000 -0.0000 1.0000
vn -0.0000 1.0000 -0.0000
vn 1.0000 -0.0000 -0.0000
s 1
usemtl material_0
f 842//125 844//125 841//125
f 845//126 842//126 841//126
f 841//125 844//125 843//125
f 843//127 845//127 841//127
f 842//128 848//128 844//128
f 846//126 842//126 845//126
f 846//128 848//128 842//128
f 844//129 848//129 843//129
f 847//127 845//127 843//127
f 843//129 848//129 847//129
f 847//130 846//130 845//130
f 848//130 846//130 847//130
o geometry_7
v 0.410000 -0.100000 -0.500000
v 0.410000 -0.100000 0.500000
v 0.410000 -0.050000 -0.500000
v 0.410000 -0.050000 0.500000
v 0.470000 -0.100000 -0.500000
v 0.470000 -0.100000 0.500000
v 0.470000 -0.050000 -0.500000
v 0.470000 -0.050000 0.500000
vn -1.0000 -0.0000 -0.0000
vn -0.0000 -1.0000 -0.0000
vn -0.0000 -0.0000 -1.0000
vn -0.0000 -0.0000 1.0000
vn -0.0000 1.0000 -0.0000
vn 1.0000 -0.0000 -0.0000
s 1
usemtl material_0
f 850//131 852//131 849//131
f 853//132 850//132 849//132
f 849//131 852//131 851//131
f 851//133 853//133 849//133
f 850//134 856//134 852//134
f 854//132 850//132 853//132
f 854//134 856//134 850//134
f 852//135 856//135 851//135
f 855//133 853//133 851//133
f 851//135 856//135 855//135
f 855//136 854//136 853//136
f 856//136 854//136 855//136
o geometry_8
v -0.439536 -0.000000 -0.450000
v -0.469535 -0.000000 -0.450000
v -0.454536 -0.000000 -0.475981
v -0.439536 -0.000000 -0.450000
v -0.454536 -0.000000 -0.475981
v -0.439536 0.420000 -0.450000
v -0.439536 0.420000 -0.450000
v -0.454536 -0.000000 -0.475981
v -0.454536 0.420000 -0.475981
v -0.439536 0.420000 -0.450000
v -0.454536 0.420000 -0.475981
v -0.469535 0.420000 -0.450000
v -0.454536 -0.000000 -0.475981
v -0.469535 -0.000000 -0.450000
v -0.484536 -0.000000 -0.475981
v -0.454536 -0.000000 -0.475981
v -0.484536 -0.000000 -0.475981
v -0.454536 0.420000 -0.475981
v -0.454536 0.420000 -0.475981
v -0.484536 -0.000000 -0.475981
v -0.484536 0.420000 -0.475981
v -0.454536 0.420000 -0.475981
v -0.484536 0.420000 -0.475981
v -0.469535 0.420000 -0.450000
v -0.484536 -0.000000 -0.475981
v -0.469535 -0.000000 -0.450000
v -0.499536 -0.000000 -0.450000
v -0.484536 -0.000000 -0.475981
v -0.499536 -0.000000 -0.450000
v -0.484536 0.420000 -0.475981
v -0.484536 0.420000 -0.475981
v -0.499536 -0.000000 -0.450000
v -0.499536 0.420000 -0.450000
v -0.484536 0.420000 -0.475981
v -0.499536 0.420000 -0.450000
v -0.469535 0.420000 -0.450000
v -0.499536 -0.000000 -0.450000
v -0.469535 -0.000000 -0.450000
v -0.484536 -0.000000 -0.424019
v -0.499536 -0.000000 -0.450000
v -0.484536 -0.000000 -0.424019
v -0.499536 0.420000 -0.450000
v -0.499536 0.420000 -0.450000
v -0.484536 -0.000000 -0.424019
v -0.484536 0.420000 -0.424019
v -0.499536 0.420000 -0.450000
v -0.484536 0.420000 -0.424019
v -0.469535 0.420000 -0.450000
v -0.484536 -0.000000 -0.424019
v -0.469535 -0.000000 -0.450000
v -0.454536 -0.000000 -0.424019
v -0.484536 -0.000000 -0.424019
v -0.454536 -0.000000 -0.424019
v -0.484536 0.420000 -0.424019
v -0.484536 0.420000 -0.424019
v -0.454536 -0.000000 -0.424019
v -0.454536 0.420000 -0.424019
v -0.484536 0.420000 -0.424019
v -0.454536 0.420000 -0.424019
v -0.469535 0.420000 -0.450000
v -0.454536 -0.000000 -0.424019
v -0.469535 -0.000000 -0.450000
v -0.439536 -0.000000 -0.450000
v -0.454536 -0.000000 -0.424019
v -0.439536 -0.000000 -0.450000
v -0.454536 0.420000 -0.424019
v -0.454536 0.420000 -0.424019
v -0.439536 -0.000000 -0.450000
v -0.439536 0.420000 -0.450000
v -0.454536 0.420000 -0.424019
v -0.439536 0.420000 -0.450000
v -0.469535 0.420000 -0.450000
vn -0.0000 -1.0000 -0.0000
vn 0.8660 -0.0000 -0.5000
vn -0.0000 1.0000 -0.0000
vn -0.0000 -0.0000 -1.0000
vn -0.8660 -0.0000 -0.5000
vn -0.8660 -0.0000 0.5000
vn -0.0000 -0.0000 1.0000
vn 0.8660 -0.0000 0.5000
s 1
usemtl material_0
f 857//137 858//137 859//137
f 860//138 861//138 862//138
f 863//138 864//138 865//138
f 866//139 867//139 868//139
f 869//137 870//137 871//137
f 872//140 873//140 874//140
f 875//140 876//140 877//140
f 878//139 879//139 880//139
f 881//137 882//137 883//137
f 884//141 885//141 886//141
f 887//141 888//141 889//141
f 890//139 891//139 892//139
f 893//137 894//137 895//137
f 896//142 897//142 898//142
f 899//142 900//142 901//142
f 902//139 903//139 904//139
f 905//137 906//137 907//137
f 908//143 909//143 910//143
f 911//143 912//143 913//143
f 914//139 915//139 916//139
f 917//137 918//137 919//137
f 920//144 921//144 922//144
f 923//144 924//144 925//144
f 926//139 927//139 928//139
o geometry_9
v -0.438060 0.000000 0.000000
v -0.468060 0.000000 0.000000
v -0.453060 -0.000000 -0.025981
v -0.438060 0.000000 0.000000
v -0.453060 -0.000000 -0.025981
v -0.438060 0.420000 -0.000000
v -0.438060 0.420000 -0.000000
v -0.453060 -0.000000 -0.025981
v -0.453060 0.420000 -0.025981
v -0.438060 0.420000 -0.000000
v -0.453060 0.420000 -0.025981
v -0.468060 0.420000 -0.000000
v -0.453060 -0.000000 -0.025981
v -0.468060 0.000000 0.000000
v -0.483060 -0.000000 -0.025981
v -0.453060 -0.000000 -0.025981
v -0.483060 -0.000000 -0.025981
v -0.453060 0.420000 -0.025981
v -0.453060 0.420000 -0.025981
v -0.483060 -0.000000 -0.025981
v -0.483060 0.420000 -0.025981
v -0.453060 0.420000 -0.025981
v -0.483060 0.420000 -0.025981
v -0.468060 0.420000 -0.000000
v -0.483060 -0.000000 -0.025981
v -0.468060 0.000000 0.000000
v -0.498060 0.000000 0.000000
v -0.483060 -0.000000 -0.025981
v -0.498060 0.000000 0.000000
v -0.483060 0.420000 -0.025981
v -0.483060 0.420000 -0.025981
v -0.498060 0.000000 0.000000
v -0.498060 0.420000 -0.000000
v -0.483060 0.420000 -0.025981
v -0.498060 0.420000 -0.000000
v -0.468060 0.420000 -0.000000
v -0.498060 0.000000 0.000000
v -0.468060 0.000000 0.000000
v -0.483060 0.000000 0.025981
v -0.498060 0.000000 0.000000
v -0.483060 0.000000 0.025981
v -0.498060 0.420000 -0.000000
v -0.498060 0.420000 -0.000000
v -0.483060 0.000000 0.025981
v -0.483060 0.420000 0.025981
v -0.498060 0.420000 -0.000000
v -0.483060 0.420000 0.025981
v -0.468060 0.420000 -0.000000
v -0.483060 0.000000 0.025981
v -0.468060 0.000000 0.000000
v -0.453060 0.000000 0.025981
v -0.483060 0.000000 0.025981
v -0.453060 0.000000 0.025981
v -0.483060 0.420000 0.025981
v -0.483060 0.420000 0.025981
v -0.453060 0.000000 0.025981
v -0.453060 0.420000 0.025981
v -0.483060 0.420000 0.025981
v -0.453060 0.420000 0.025981
v -0.468060 0.420000 -0.000000
v -0.453060 0.000000 0.025981
v -0.468060 0.000000 0.000000
v -0.438060 0.000000 0.000000
v -0.453060 0.000000 0.025981
v -0.438060 0.000000 0.000000
v -0.453060 0.420000 0.025981
v -0.453060 0.420000 0.025981
v -0.438060 0.000000 0.000000
v -0.438060 0.420000 -0.000000
v -0.453060 0.420000 0.025981
v -0.438060 0.420000 -0.000000
v -0.468060 0.420000 -0.000000
vn -0.0000 -1.0000 -0.0000
vn 0.8660 -0.0000 -0.5000
vn -0.0000 1.0000 -0.0000
vn -0.0000 -0.0000 -1.0000
vn -0.8660 -0.0000 -0.5000
vn -0.8660 -0.0000 0.5000
vn -0.0000 -0.0000 1.0000
vn 0.8660 -0.0000 0.5000
s 1
usemtl material_0
f 929//145 930//145 931//145
f 932//146 933//146 934//146
f 935//146 936//146 937//146
f 938//147 939//147 940//147
f 941//145 942//145 943//145
f 944//148 945//148 946//148
f 947//148 948//148 949//148
f 950//147 951//147 952//147
f 953//145 954//145 955//145
f 956//149 957//149 958//149
f 959//149 960//149 961//149
f 962//147 963//147 964//147
f 965//145 966//145 967//145
f 968//150 969//150 970//150
f 971//150 972//150 973//150
f 974//147 975//147 976//147
f 977//145 978//145 979//145
f 980//151 981//151 982//151
f 983//151 984//151 985//151
f 986//147 987//147 988//147
f 989//145 990//145 991//145
f 992//152 993//152 994//152
f 995//152 996//152 997//152
f 998//147 999//147 1000//147
