# Blender 5.2.0 LTS
# www.blender.org
mtllib chicken_coop.mtl
o geometry_0
v -0.360000 -0.000000 -0.270000
v -0.360000 -0.000000 -0.210000
v -0.360000 0.260000 -0.270000
v -0.360000 0.260000 -0.210000
v -0.300000 -0.000000 -0.270000
v -0.300000 -0.000000 -0.210000
v -0.300000 0.260000 -0.270000
v -0.300000 0.260000 -0.210000
vn -1.0000 -0.0000 -0.0000
vn -0.0000 -1.0000 -0.0000
vn -0.0000 -0.0000 -1.0000
vn -0.0000 -0.0000 1.0000
vn -0.0000 1.0000 -0.0000
vn 1.0000 -0.0000 -0.0000
s 0
usemtl material_0
f 2//1 4//1 1//1
f 5//2 2//2 1//2
f 1//1 4//1 3//1
f 3//3 5//3 1//3
f 2//4 8//4 4//4
f 6//2 2//2 5//2
f 6//4 8//4 2//4
f 4//5 8//5 3//5
f 7//3 5//3 3//3
f 3//5 8//5 7//5
f 7//6 6//6 5//6
f 8//6 6//6 7//6
o geometry_1
v -0.360000 0.000000 0.210000
v -0.360000 0.000000 0.270000
v -0.360000 0.260000 0.210000
v -0.360000 0.260000 0.270000
v -0.300000 0.000000 0.210000
v -0.300000 0.000000 0.270000
v -0.300000 0.260000 0.210000
v -0.300000 0.260000 0.270000
vn -1.0000 -0.0000 -0.0000
vn -0.0000 -1.0000 -0.0000
vn -0.0000 -0.0000 -1.0000
vn -0.0000 -0.0000 1.0000
vn -0.0000 1.0000 -0.0000
vn 1.0000 -0.0000 -0.0000
s 0
usemtl material_0
f 10//7 12//7 9//7
f 13//8 10//8 9//8
f 9//7 12//7 11//7
f 11//9 13//9 9//9
f 10//10 16//10 12//10
f 14//8 10//8 13//8
f 14//10 16//10 10//10
f 12//11 16//11 11//11
f 15//9 13//9 11//9
f 11//11 16//11 15//11
f 15//12 14//12 13//12
f 16//12 14//12 15//12
o geometry_10
v 0.086000 0.300000 0.300000
v 0.086000 0.300000 0.320000
v 0.086000 0.640000 0.300000
v 0.086000 0.640000 0.320000
v 0.094000 0.300000 0.300000
v 0.094000 0.300000 0.320000
v 0.094000 0.640000 0.300000
v 0.094000 0.640000 0.320000
vn -1.0000 -0.0000 -0.0000
vn -0.0000 -1.0000 -0.0000
vn -0.0000 -0.0000 -1.0000
vn -0.0000 -0.0000 1.0000
vn -0.0000 1.0000 -0.0000
vn 1.0000 -0.0000 -0.0000
s 0
usemtl material_4
f 18//13 20//13 17//13
f 21//14 18//14 17//14
f 17//13 20//13 19//13
f 19//15 21//15 17//15
f 18//16 24//16 20//16
f 22//14 18//14 21//14
f 22//16 24//16 18//16
f 20//17 24//17 19//17
f 23//15 21//15 19//15
f 19//17 24//17 23//17
f 23//18 22//18 21//18
f 24//18 22//18 23//18
o geometry_11
v 0.161000 0.300000 0.300000
v 0.161000 0.300000 0.320000
v 0.161000 0.640000 0.300000
v 0.161000 0.640000 0.320000
v 0.169000 0.300000 0.300000
v 0.169000 0.300000 0.320000
v 0.169000 0.640000 0.300000
v 0.169000 0.640000 0.320000
vn -1.0000 -0.0000 -0.0000
vn -0.0000 -1.0000 -0.0000
vn -0.0000 -0.0000 -1.0000
vn -0.0000 -0.0000 1.0000
vn -0.0000 1.0000 -0.0000
vn 1.0000 -0.0000 -0.0000
s 0
usemtl material_4
f 26//19 28//19 25//19
f 29//20 26//20 25//20
f 25//19 28//19 27//19
f 27//21 29//21 25//21
f 26//22 32//22 28//22
f 30//20 26//20 29//20
f 30//22 32//22 26//22
f 28//23 32//23 27//23
f 31//21 29//21 27//21
f 27//23 32//23 31//23
f 31//24 30//24 29//24
f 32//24 30//24 31//24
o geometry_12
v 0.236000 0.300000 0.300000
v 0.236000 0.300000 0.320000
v 0.236000 0.640000 0.300000
v 0.236000 0.640000 0.320000
v 0.244000 0.300000 0.300000
v 0.244000 0.300000 0.320000
v 0.244000 0.640000 0.300000
v 0.244000 0.640000 0.320000
vn -1.0000 -0.0000 -0.0000
vn -0.0000 -1.0000 -0.0000
vn -0.0000 -0.0000 -1.0000
vn -0.0000 -0.0000 1.0000
vn -0.0000 1.0000 -0.0000
vn 1.0000 -0.0000 -0.0000
s 0
usemtl material_4
f 34//25 36//25 33//25
f 37//26 34//26 33//26
f 33//25 36//25 35//25
f 35//27 37//27 33//27
f 34//28 40//28 36//28
f 38//26 34//26 37//26
f 38//28 40//28 34//28
f 36//29 40//29 35//29
f 39//27 37//27 35//27
f 35//29 40//29 39//29
f 39//30 38//30 37//30
f 40//30 38//30 39//30
o geometry_13
v 0.311000 0.300000 0.300000
v 0.311000 0.300000 0.320000
v 0.311000 0.640000 0.300000
v 0.311000 0.640000 0.320000
v 0.319000 0.300000 0.300000
v 0.319000 0.300000 0.320000
v 0.319000 0.640000 0.300000
v 0.319000 0.640000 0.320000
vn -1.0000 -0.0000 -0.0000
vn -0.0000 -1.0000 -0.0000
vn -0.0000 -0.0000 -1.0000
vn -0.0000 -0.0000 1.0000
vn -0.0000 1.0000 -0.0000
vn 1.0000 -0.0000 -0.0000
s 0
usemtl material_4
f 42//31 44//31 41//31
f 45//32 42//32 41//32
f 41//31 44//31 43//31
f 43//33 45//33 41//33
f 42//34 48//34 44//34
f 46//32 42//32 45//32
f 46//34 48//34 42//34
f 44//35 48//35 43//35
f 47//33 45//33 43//33
f 43//35 48//35 47//35
f 47//36 46//36 45//36
f 48//36 46//36 47//36
o geometry_14
v 0.386000 0.300000 0.300000
v 0.386000 0.300000 0.320000
v 0.386000 0.640000 0.300000
v 0.386000 0.640000 0.320000
v 0.394000 0.300000 0.300000
v 0.394000 0.300000 0.320000
v 0.394000 0.640000 0.300000
v 0.394000 0.640000 0.320000
vn -1.0000 -0.0000 -0.0000
vn -0.0000 -1.0000 -0.0000
vn -0.0000 -0.0000 -1.0000
vn -0.0000 -0.0000 1.0000
vn -0.0000 1.0000 -0.0000
vn 1.0000 -0.0000 -0.0000
s 0
usemtl material_4
f 50//37 52//37 49//37
f 53//38 50//38 49//38
f 49//37 52//37 51//37
f 51//39 53//39 49//39
f 50//40 56//40 52//40
f 54//38 50//38 53//38
f 54//40 56//40 50//40
f 52//41 56//41 51//41
f 55//39 53//39 51//39
f 51//41 56//41 55//41
f 55//42 54//42 53//42
f 56//42 54//42 55//42
o geometry_15
v 0.070000 0.316000 0.300000
v 0.070000 0.316000 0.320000
v 0.070000 0.324000 0.300000
v 0.070000 0.324000 0.320000
v 0.370000 0.316000 0.300000
v 0.370000 0.316000 0.320000
v 0.370000 0.324000 0.300000
v 0.370000 0.324000 0.320000
vn -1.0000 -0.0000 -0.0000
vn -0.0000 -1.0000 -0.0000
vn -0.0000 -0.0000 -1.0000
vn -0.0000 -0.0000 1.0000
vn -0.0000 1.0000 -0.0000
vn 1.0000 -0.0000 -0.0000
s 0
usemtl material_4
f 58//43 60//43 57//43
f 61//44 58//44 57//44
f 57//43 60//43 59//43
f 59//45 61//45 57//45
f 58//46 64//46 60//46
f 62//44 58//44 61//44
f 62//46 64//46 58//46
f 60//47 64//47 59//47
f 63//45 61//45 59//45
f 59//47 64//47 63//47
f 63//48 62//48 61//48
f 64//48 62//48 63//48
o geometry_16
v 0.070000 0.416000 0.300000
v 0.070000 0.416000 0.320000
v 0.070000 0.424000 0.300000
v 0.070000 0.424000 0.320000
v 0.370000 0.416000 0.300000
v 0.370000 0.416000 0.320000
v 0.370000 0.424000 0.300000
v 0.370000 0.424000 0.320000
vn -1.0000 -0.0000 -0.0000
vn -0.0000 -1.0000 -0.0000
vn -0.0000 -0.0000 -1.0000
vn -0.0000 -0.0000 1.0000
vn -0.0000 1.0000 -0.0000
vn 1.0000 -0.0000 -0.0000
s 0
usemtl material_4
f 66//49 68//49 65//49
f 69//50 66//50 65//50
f 65//49 68//49 67//49
f 67//51 69//51 65//51
f 66//52 72//52 68//52
f 70//50 66//50 69//50
f 70//52 72//52 66//52
f 68//53 72//53 67//53
f 71//51 69//51 67//51
f 67//53 72//53 71//53
f 71//54 70//54 69//54
f 72//54 70//54 71//54
o geometry_17
v 0.070000 0.516000 0.300000
v 0.070000 0.516000 0.320000
v 0.070000 0.524000 0.300000
v 0.070000 0.524000 0.320000
v 0.370000 0.516000 0.300000
v 0.370000 0.516000 0.320000
v 0.370000 0.524000 0.300000
v 0.370000 0.524000 0.320000
vn -1.0000 -0.0000 -0.0000
vn -0.0000 -1.0000 -0.0000
vn -0.0000 -0.0000 -1.0000
vn -0.0000 -0.0000 1.0000
vn -0.0000 1.0000 -0.0000
vn 1.0000 -0.0000 -0.0000
s 0
usemtl material_4
f 74//55 76//55 73//55
f 77//56 74//56 73//56
f 73//55 76//55 75//55
f 75//57 77//57 73//57
f 74//58 80//58 76//58
f 78//56 74//56 77//56
f 78//58 80//58 74//58
f 76//59 80//59 75//59
f 79//57 77//57 75//57
f 75//59 80//59 79//59
f 79//60 78//60 77//60
f 80//60 78//60 79//60
o geometry_18
v 0.070000 0.616000 0.300000
v 0.070000 0.616000 0.320000
v 0.070000 0.624000 0.300000
v 0.070000 0.624000 0.320000
v 0.370000 0.616000 0.300000
v 0.370000 0.616000 0.320000
v 0.370000 0.624000 0.300000
v 0.370000 0.624000 0.320000
vn -1.0000 -0.0000 -0.0000
vn -0.0000 -1.0000 -0.0000
vn -0.0000 -0.0000 -1.0000
vn -0.0000 -0.0000 1.0000
vn -0.0000 1.0000 -0.0000
vn 1.0000 -0.0000 -0.0000
s 0
usemtl material_4
f 82//61 84//61 81//61
f 85//62 82//62 81//62
f 81//61 84//61 83//61
f 83//63 85//63 81//63
f 82//64 88//64 84//64
f 86//62 82//62 85//62
f 86//64 88//64 82//64
f 84//65 88//65 83//65
f 87//63 85//63 83//63
f 83//65 88//65 87//65
f 87//66 86//66 85//66
f 88//66 86//66 87//66
o geometry_19
v -0.310000 0.270000 0.301000
v -0.310000 0.270000 0.313000
v -0.310000 0.470000 0.301000
v -0.310000 0.470000 0.313000
v -0.150000 0.270000 0.301000
v -0.150000 0.270000 0.313000
v -0.150000 0.470000 0.301000
v -0.150000 0.470000 0.313000
vn -1.0000 -0.0000 -0.0000
vn -0.0000 -1.0000 -0.0000
vn -0.0000 -0.0000 -1.0000
vn -0.0000 -0.0000 1.0000
vn -0.0000 1.0000 -0.0000
vn 1.0000 -0.0000 -0.0000
s 0
usemtl material_2
f 90//67 92//67 89//67
f 93//68 90//68 89//68
f 89//67 92//67 91//67
f 91//69 93//69 89//69
f 90//70 96//70 92//70
f 94//68 90//68 93//68
f 94//70 96//70 90//70
f 92//71 96//71 91//71
f 95//69 93//69 91//69
f 91//71 96//71 95//71
f 95//72 94//72 93//72
f 96//72 94//72 95//72
o geometry_2
v 0.300000 -0.000000 -0.270000
v 0.300000 -0.000000 -0.210000
v 0.300000 0.260000 -0.270000
v 0.300000 0.260000 -0.210000
v 0.360000 -0.000000 -0.270000
v 0.360000 -0.000000 -0.210000
v 0.360000 0.260000 -0.270000
v 0.360000 0.260000 -0.210000
vn -1.0000 -0.0000 -0.0000
vn -0.0000 -1.0000 -0.0000
vn -0.0000 -0.0000 -1.0000
vn -0.0000 -0.0000 1.0000
vn -0.0000 1.0000 -0.0000
vn 1.0000 -0.0000 -0.0000
s 0
usemtl material_0
f 98//73 100//73 97//73
f 101//74 98//74 97//74
f 97//73 100//73 99//73
f 99//75 101//75 97//75
f 98//76 104//76 100//76
f 102//74 98//74 101//74
f 102//76 104//76 98//76
f 100//77 104//77 99//77
f 103//75 101//75 99//75
f 99//77 104//77 103//77
f 103//78 102//78 101//78
f 104//78 102//78 103//78
o geometry_20
v -0.325000 0.260000 0.300000
v -0.325000 0.260000 0.308000
v -0.325000 0.490000 0.300000
v -0.325000 0.490000 0.308000
v -0.135000 0.260000 0.300000
v -0.135000 0.260000 0.308000
v -0.135000 0.490000 0.300000
v -0.135000 0.490000 0.308000
vn -1.0000 -0.0000 -0.0000
vn -0.0000 -1.0000 -0.0000
vn -0.0000 -0.0000 -1.0000
vn -0.0000 -0.0000 1.0000
vn -0.0000 1.0000 -0.0000
vn 1.0000 -0.0000 -0.0000
s 0
usemtl material_0
f 106//79 108//79 105//79
f 109//80 106//80 105//80
f 105//79 108//79 107//79
f 107//81 109//81 105//81
f 106//82 112//82 108//82
f 110//80 106//80 109//80
f 110//82 112//82 106//82
f 108//83 112//83 107//83
f 111//81 109//81 107//81
f 107//83 112//83 111//83
f 111//84 110//84 109//84
f 112//84 110//84 111//84
o geometry_21
v -0.310000 0.243739 0.302383
v -0.310000 -0.001945 0.643029
v -0.310000 0.259960 0.314082
v -0.310000 0.014276 0.654728
v -0.150000 0.243739 0.302383
v -0.150000 -0.001945 0.643029
v -0.150000 0.259960 0.314082
v -0.150000 0.014276 0.654728
vn -1.0000 -0.0000 -0.0000
vn -0.0000 -0.8111 -0.5850
vn -0.0000 0.5850 -0.8111
vn -0.0000 -0.5850 0.8111
vn -0.0000 0.8111 0.5850
vn 1.0000 -0.0000 -0.0000
s 0
usemtl material_1
f 114//85 116//85 113//85
f 117//86 114//86 113//86
f 113//85 116//85 115//85
f 115//87 117//87 113//87
f 114//88 120//88 116//88
f 118//86 114//86 117//86
f 118//88 120//88 114//88
f 116//89 120//89 115//89
f 119//87 117//87 115//87
f 115//89 120//89 119//89
f 119//90 118//90 117//90
f 120//90 118//90 119//90
o geometry_22
v -0.305000 0.217000 0.363922
v -0.305000 0.217000 0.378922
v -0.305000 0.229000 0.363922
v -0.305000 0.229000 0.378922
v -0.155000 0.217000 0.363922
v -0.155000 0.217000 0.378922
v -0.155000 0.229000 0.363922
v -0.155000 0.229000 0.378922
vn -1.0000 -0.0000 -0.0000
vn -0.0000 -1.0000 -0.0000
vn -0.0000 -0.0000 -1.0000
vn -0.0000 -0.0000 1.0000
vn -0.0000 1.0000 -0.0000
vn 1.0000 -0.0000 -0.0000
s 0
usemtl material_0
f 122//91 124//91 121//91
f 125//92 122//92 121//92
f 121//91 124//91 123//91
f 123//93 125//93 121//93
f 122//94 128//94 124//94
f 126//92 122//92 125//92
f 126//94 128//94 122//94
f 124//95 128//95 123//95
f 127//93 125//93 123//93
f 123//95 128//95 127//95
f 127//96 126//96 125//96
f 128//96 126//96 127//96
o geometry_23
v -0.305000 0.165000 0.435345
v -0.305000 0.165000 0.450345
v -0.305000 0.177000 0.435345
v -0.305000 0.177000 0.450345
v -0.155000 0.165000 0.435345
v -0.155000 0.165000 0.450345
v -0.155000 0.177000 0.435345
v -0.155000 0.177000 0.450345
vn -1.0000 -0.0000 -0.0000
vn -0.0000 -1.0000 -0.0000
vn -0.0000 -0.0000 -1.0000
vn -0.0000 -0.0000 1.0000
vn -0.0000 1.0000 -0.0000
vn 1.0000 -0.0000 -0.0000
s 0
usemtl material_0
f 130//97 132//97 129//97
f 133//98 130//98 129//98
f 129//97 132//97 131//97
f 131//99 133//99 129//99
f 130//100 136//100 132//100
f 134//98 130//98 133//98
f 134//100 136//100 130//100
f 132//101 136//101 131//101
f 135//99 133//99 131//99
f 131//101 136//101 135//101
f 135//102 134//102 133//102
f 136//102 134//102 135//102
o geometry_24
v -0.305000 0.113000 0.506767
v -0.305000 0.113000 0.521767
v -0.305000 0.125000 0.506767
v -0.305000 0.125000 0.521767
v -0.155000 0.113000 0.506767
v -0.155000 0.113000 0.521767
v -0.155000 0.125000 0.506767
v -0.155000 0.125000 0.521767
vn -1.0000 -0.0000 -0.0000
vn -0.0000 -1.0000 -0.0000
vn -0.0000 -0.0000 -1.0000
vn -0.0000 -0.0000 1.0000
vn -0.0000 1.0000 -0.0000
vn 1.0000 -0.0000 -0.0000
s 0
usemtl material_0
f 138//103 140//103 137//103
f 141//104 138//104 137//104
f 137//103 140//103 139//103
f 139//105 141//105 137//105
f 138//106 144//106 140//106
f 142//104 138//104 141//104
f 142//106 144//106 138//106
f 140//107 144//107 139//107
f 143//105 141//105 139//105
f 139//107 144//107 143//107
f 143//108 142//108 141//108
f 144//108 142//108 143//108
o geometry_25
v -0.305000 0.061000 0.578189
v -0.305000 0.061000 0.593189
v -0.305000 0.073000 0.578189
v -0.305000 0.073000 0.593189
v -0.155000 0.061000 0.578189
v -0.155000 0.061000 0.593189
v -0.155000 0.073000 0.578189
v -0.155000 0.073000 0.593189
vn -1.0000 -0.0000 -0.0000
vn -0.0000 -1.0000 -0.0000
vn -0.0000 -0.0000 -1.0000
vn -0.0000 -0.0000 1.0000
vn -0.0000 1.0000 -0.0000
vn 1.0000 -0.0000 -0.0000
s 0
usemtl material_0
f 146//109 148//109 145//109
f 149//110 146//110 145//110
f 145//109 148//109 147//109
f 147//111 149//111 145//111
f 146//112 152//112 148//112
f 150//110 146//110 149//110
f 150//112 152//112 146//112
f 148//113 152//113 147//113
f 151//111 149//111 147//111
f 147//113 152//113 151//113
f 151//114 150//114 149//114
f 152//114 150//114 151//114
o geometry_26
v -0.435787 0.638503 -0.317094
v -0.423591 1.030359 -0.011971
v -0.435465 0.653855 -0.336822
v -0.423270 1.045711 -0.031699
v 0.471864 0.613734 -0.321563
v 0.484060 1.005591 -0.016440
v 0.472186 0.629086 -0.341291
v 0.484382 1.020943 -0.036169
vn -0.9996 0.0273 0.0049
vn -0.0129 -0.6141 0.7891
vn -0.0245 -0.7888 -0.6142
vn 0.0246 0.7888 0.6142
vn 0.0245 0.7888 0.6142
vn 0.0129 0.6141 -0.7891
vn -0.0246 -0.7888 -0.6142
vn 0.9996 -0.0273 -0.0049
s 0
usemtl material_5
f 154//115 156//115 153//115
f 157//116 154//116 153//116
f 153//115 156//115 155//115
f 155//117 157//117 153//117
f 154//118 160//118 156//118
f 158//116 154//116 157//116
f 158//119 160//119 154//119
f 156//120 160//120 155//120
f 159//121 157//121 155//121
f 155//120 160//120 159//120
f 159//122 158//122 157//122
f 160//122 158//122 159//122
o geometry_27
v 0.469095 0.624489 0.336077
v 0.479811 0.995540 0.005916
v 0.470286 0.641069 0.354750
v 0.481002 1.012120 0.024589
v -0.437662 0.667880 0.355411
v -0.426946 1.038931 0.025250
v -0.436470 0.684460 0.374084
v -0.425754 1.055511 0.043923
vn 0.9986 -0.0478 -0.0213
vn -0.0477 -0.6632 -0.7469
vn -0.0216 -0.7469 0.6646
vn 0.0216 0.7469 -0.6646
vn 0.0477 0.6632 0.7469
vn -0.9986 0.0478 0.0213
s 0
usemtl material_6
f 162//123 164//123 161//123
f 165//124 162//124 161//124
f 161//123 164//123 163//123
f 163//125 165//125 161//125
f 162//126 168//126 164//126
f 166//124 162//124 165//124
f 166//126 168//126 162//126
f 164//127 168//127 163//127
f 167//125 165//125 163//125
f 163//127 168//127 167//127
f 167//128 166//128 165//128
f 168//128 166//128 167//128
o geometry_28
v -0.418648 0.994990 -0.025000
v -0.418648 0.994990 0.025000
v -0.416853 1.039954 -0.025000
v -0.416853 1.039954 0.025000
v 0.496623 0.958455 -0.025000
v 0.496623 0.958455 0.025000
v 0.498418 1.003419 -0.025000
v 0.498418 1.003419 0.025000
vn -0.9992 0.0399 -0.0000
vn -0.0399 -0.9992 -0.0000
vn -0.0000 -0.0000 -1.0000
vn -0.0000 -0.0000 1.0000
vn 0.0399 0.9992 -0.0000
vn 0.9992 -0.0399 -0.0000
s 0
usemtl material_0
f 170//129 172//129 169//129
f 173//130 170//130 169//130
f 169//129 172//129 171//129
f 171//131 173//131 169//131
f 170//132 176//132 172//132
f 174//130 170//130 173//130
f 174//132 176//132 170//132
f 172//133 176//133 171//133
f 175//131 173//131 171//131
f 171//133 176//133 175//133
f 175//134 174//134 173//134
f 176//134 174//134 175//134
o geometry_29
v 0.400000 0.260000 -0.160000
v 0.400000 0.260000 0.060000
v 0.400000 0.460000 -0.160000
v 0.400000 0.460000 0.060000
v 0.620000 0.260000 -0.160000
v 0.620000 0.260000 0.060000
v 0.620000 0.460000 -0.160000
v 0.620000 0.460000 0.060000
vn -1.0000 -0.0000 -0.0000
vn -0.0000 -1.0000 -0.0000
vn -0.0000 -0.0000 -1.0000
vn -0.0000 -0.0000 1.0000
vn -0.0000 1.0000 -0.0000
vn 1.0000 -0.0000 -0.0000
s 0
usemtl material_7
f 178//135 180//135 177//135
f 181//136 178//136 177//136
f 177//135 180//135 179//135
f 179//137 181//137 177//137
f 178//138 184//138 180//138
f 182//136 178//136 181//136
f 182//138 184//138 178//138
f 180//139 184//139 179//139
f 183//137 181//137 179//137
f 179//139 184//139 183//139
f 183//140 182//140 181//140
f 184//140 182//140 183//140
o geometry_3
v 0.300000 0.000000 0.210000
v 0.300000 0.000000 0.270000
v 0.300000 0.260000 0.210000
v 0.300000 0.260000 0.270000
v 0.360000 0.000000 0.210000
v 0.360000 0.000000 0.270000
v 0.360000 0.260000 0.210000
v 0.360000 0.260000 0.270000
vn -1.0000 -0.0000 -0.0000
vn -0.0000 -1.0000 -0.0000
vn -0.0000 -0.0000 -1.0000
vn -0.0000 -0.0000 1.0000
vn -0.0000 1.0000 -0.0000
vn 1.0000 -0.0000 -0.0000
s 0
usemtl material_0
f 186//141 188//141 185//141
f 189//142 186//142 185//142
f 185//141 188//141 187//141
f 187//143 189//143 185//143
f 186//144 192//144 188//144
f 190//142 186//142 189//142
f 190//144 192//144 186//144
f 188//145 192//145 187//145
f 191//143 189//143 187//143
f 187//145 192//145 191//145
f 191//146 190//146 189//146
f 192//146 190//146 191//146
o geometry_30
v 0.380000 0.455000 -0.180000
v 0.380000 0.455000 0.080000
v 0.380000 0.475000 -0.180000
v 0.380000 0.475000 0.080000
v 0.640000 0.455000 -0.180000
v 0.640000 0.455000 0.080000
v 0.640000 0.475000 -0.180000
v 0.640000 0.475000 0.080000
vn -1.0000 -0.0000 -0.0000
vn -0.0000 -1.0000 -0.0000
vn -0.0000 -0.0000 -1.0000
vn -0.0000 -0.0000 1.0000
vn -0.0000 1.0000 -0.0000
vn 1.0000 -0.0000 -0.0000
s 0
usemtl material_5
f 194//147 196//147 193//147
f 197//148 194//148 193//148
f 193//147 196//147 195//147
f 195//149 197//149 193//149
f 194//150 200//150 196//150
f 198//148 194//148 197//148
f 198//150 200//150 194//150
f 196//151 200//151 195//151
f 199//149 197//149 195//149
f 195//151 200//151 199//151
f 199//152 198//152 197//152
f 200//152 198//152 199//152
o geometry_31
v 0.468993 0.340623 0.080000
v 0.551007 0.340623 0.080000
v 0.468993 0.279377 0.080000
v 0.551007 0.279377 0.080000
v 0.510000 0.291074 0.131039
v 0.510000 0.328926 0.131039
v 0.510000 0.291074 0.028961
v 0.510000 0.328926 0.028961
v 0.576351 0.310000 0.048456
v 0.576351 0.310000 0.111544
v 0.443649 0.310000 0.048456
v 0.443649 0.310000 0.111544
v 0.510000 0.346000 0.080000
v 0.510000 0.274000 0.080000
v 0.485897 0.280875 0.110000
v 0.534103 0.280875 0.110000
v 0.485897 0.339125 0.110000
v 0.534103 0.339125 0.110000
v 0.510000 0.310000 0.140000
v 0.485897 0.280875 0.050000
v 0.534103 0.280875 0.050000
v 0.485897 0.339125 0.050000
v 0.534103 0.339125 0.050000
v 0.510000 0.310000 0.020000
v 0.573103 0.328000 0.061459
v 0.573103 0.292000 0.061459
v 0.549000 0.298875 0.031459
v 0.549000 0.321125 0.031459
v 0.573103 0.328000 0.098541
v 0.573103 0.292000 0.098541
v 0.549000 0.298875 0.128541
v 0.549000 0.321125 0.128541
v 0.588000 0.310000 0.080000
v 0.446897 0.328000 0.061459
v 0.446897 0.292000 0.061459
v 0.471000 0.298875 0.031459
v 0.471000 0.321125 0.031459
v 0.446897 0.328000 0.098541
v 0.446897 0.292000 0.098541
v 0.471000 0.298875 0.128541
v 0.471000 0.321125 0.128541
v 0.432000 0.310000 0.080000
vn -0.3291 0.9156 0.2312
vn -0.5917 0.5395 0.5990
vn -0.1938 0.7771 0.5987
vn -0.3680 0.7973 0.4784
vn -0.1290 0.9841 0.1219
vn -0.0000 0.8999 0.4362
vn 0.1290 0.9841 0.1219
vn -0.0000 0.9747 0.2234
vn -0.1290 0.9841 -0.1219
vn 0.1290 0.9841 -0.1219
vn -0.0000 0.8999 -0.4362
vn -0.0000 0.9747 -0.2234
vn -0.3291 0.9156 -0.2312
vn -0.1938 0.7771 -0.5987
vn -0.5917 0.5395 -0.5990
vn -0.3680 0.7973 -0.4784
vn -0.4961 0.8683 -0.0000
vn -0.8650 0.3868 -0.3195
vn -0.8650 0.3868 0.3195
vn -0.7704 0.6376 -0.0000
vn 0.3291 0.9156 0.2312
vn 0.1938 0.7771 0.5987
vn 0.5917 0.5395 0.5990
vn 0.3680 0.7973 0.4784
vn -0.1420 0.4236 0.8947
vn -0.5278 -0.0000 0.8494
vn -0.1420 -0.4236 0.8947
vn -0.2819 -0.0000 0.9594
vn -0.8650 -0.3868 0.3195
vn -0.8650 -0.3868 -0.3195
vn -0.4961 -0.8683 -0.0000
vn -0.7704 -0.6376 -0.0000
vn -0.5278 -0.0000 -0.8494
vn -0.1420 0.4236 -0.8947
vn -0.1420 -0.4236 -0.8947
vn -0.2819 -0.0000 -0.9594
vn 0.1938 0.7771 -0.5987
vn 0.3291 0.9156 -0.2312
vn 0.5917 0.5395 -0.5990
vn 0.3680 0.7973 -0.4784
vn 0.3291 -0.9156 0.2312
vn 0.5917 -0.5395 0.5990
vn 0.1938 -0.7771 0.5987
vn 0.3680 -0.7973 0.4784
vn 0.1290 -0.9841 0.1219
vn -0.0000 -0.8999 0.4362
vn -0.1290 -0.9841 0.1219
vn -0.0000 -0.9747 0.2234
vn 0.1290 -0.9841 -0.1219
vn -0.1290 -0.9841 -0.1219
vn -0.0000 -0.8999 -0.4362
vn -0.0000 -0.9747 -0.2234
vn 0.3291 -0.9156 -0.2312
vn 0.1938 -0.7771 -0.5987
vn 0.5917 -0.5395 -0.5990
vn 0.3680 -0.7973 -0.4784
vn 0.4961 -0.8683 -0.0000
vn 0.8650 -0.3868 -0.3195
vn 0.8650 -0.3868 0.3195
vn 0.7704 -0.6376 -0.0000
vn 0.1420 -0.4236 0.8947
vn 0.5278 -0.0000 0.8494
vn 0.1420 0.4236 0.8947
vn 0.2819 -0.0000 0.9594
vn -0.3291 -0.9156 0.2312
vn -0.1938 -0.7771 0.5987
vn -0.5917 -0.5395 0.5990
vn -0.3680 -0.7973 0.4784
vn -0.1938 -0.7771 -0.5987
vn -0.3291 -0.9156 -0.2312
vn -0.5917 -0.5395 -0.5990
vn -0.3680 -0.7973 -0.4784
vn 0.5278 -0.0000 -0.8494
vn 0.1420 -0.4236 -0.8947
vn 0.1420 0.4236 -0.8947
vn 0.2819 -0.0000 -0.9594
vn 0.8650 0.3868 0.3195
vn 0.8650 0.3868 -0.3195
vn 0.4961 0.8683 -0.0000
vn 0.7704 0.6376 -0.0000
s 0
usemtl material_8
f 201//153 238//153 217//153
f 238//154 212//154 241//154
f 217//155 241//155 206//155
f 238//156 241//156 217//156
f 201//157 217//157 213//157
f 217//158 206//158 218//158
f 213//159 218//159 202//159
f 217//160 218//160 213//160
f 201//161 213//161 222//161
f 213//162 202//162 223//162
f 222//163 223//163 208//163
f 213//164 223//164 222//164
f 201//165 222//165 234//165
f 222//166 208//166 237//166
f 234//167 237//167 211//167
f 222//168 237//168 234//168
f 201//169 234//169 238//169
f 234//170 211//170 242//170
f 238//171 242//171 212//171
f 234//172 242//172 238//172
f 202//173 218//173 229//173
f 218//174 206//174 232//174
f 229//175 232//175 210//175
f 218//176 232//176 229//176
f 206//177 241//177 219//177
f 241//178 212//178 240//178
f 219//179 240//179 205//179
f 241//180 240//180 219//180
f 212//181 242//181 239//181
f 242//182 211//182 235//182
f 239//183 235//183 203//183
f 242//184 235//184 239//184
f 211//185 237//185 236//185
f 237//186 208//186 224//186
f 236//187 224//187 207//187
f 237//188 224//188 236//188
f 208//189 223//189 228//189
f 223//190 202//190 225//190
f 228//191 225//191 209//191
f 223//192 225//192 228//192
f 204//193 230//193 216//193
f 230//194 210//194 231//194
f 216//195 231//195 205//195
f 230//196 231//196 216//196
f 204//197 216//197 214//197
f 216//198 205//198 215//198
f 214//199 215//199 203//199
f 216//200 215//200 214//200
f 204//201 214//201 221//201
f 214//202 203//202 220//202
f 221//203 220//203 207//203
f 214//204 220//204 221//204
f 204//205 221//205 226//205
f 221//206 207//206 227//206
f 226//207 227//207 209//207
f 221//208 227//208 226//208
f 204//209 226//209 230//209
f 226//210 209//210 233//210
f 230//211 233//211 210//211
f 226//212 233//212 230//212
f 205//213 231//213 219//213
f 231//214 210//214 232//214
f 219//215 232//215 206//215
f 231//216 232//216 219//216
f 203//217 215//217 239//217
f 215//218 205//218 240//218
f 239//219 240//219 212//219
f 215//220 240//220 239//220
f 207//221 220//221 236//221
f 220//222 203//222 235//222
f 236//223 235//223 211//223
f 220//224 235//224 236//224
f 209//225 227//225 228//225
f 227//226 207//226 224//226
f 228//227 224//227 208//227
f 227//228 224//228 228//228
f 210//229 233//229 229//229
f 233//230 209//230 225//230
f 229//231 225//231 202//231
f 233//232 225//232 229//232
o geometry_4
v -0.390000 0.260000 -0.300000
v -0.390000 0.260000 0.300000
v -0.390000 0.680000 -0.300000
v -0.390000 0.680000 0.300000
v 0.390000 0.260000 -0.300000
v 0.390000 0.260000 0.300000
v 0.390000 0.680000 -0.300000
v 0.390000 0.680000 0.300000
vn -1.0000 -0.0000 -0.0000
vn -0.0000 -1.0000 -0.0000
vn -0.0000 -0.0000 -1.0000
vn -0.0000 -0.0000 1.0000
vn -0.0000 1.0000 -0.0000
vn 1.0000 -0.0000 -0.0000
s 0
usemtl material_1
f 244//233 246//233 243//233
f 247//234 244//234 243//234
f 243//233 246//233 245//233
f 245//235 247//235 243//235
f 244//236 250//236 246//236
f 248//234 244//234 247//234
f 248//236 250//236 244//236
f 246//237 250//237 245//237
f 249//235 247//235 245//235
f 245//237 250//237 249//237
f 249//238 248//238 247//238
f 250//238 248//238 249//238
o geometry_5
v -0.237000 0.260000 -0.301000
v -0.237000 0.260000 0.301000
v -0.237000 0.680000 -0.301000
v -0.237000 0.680000 0.301000
v -0.231000 0.260000 -0.301000
v -0.231000 0.260000 0.301000
v -0.231000 0.680000 -0.301000
v -0.231000 0.680000 0.301000
vn -1.0000 -0.0000 -0.0000
vn -0.0000 -1.0000 -0.0000
vn -0.0000 -0.0000 -1.0000
vn -0.0000 -0.0000 1.0000
vn -0.0000 1.0000 -0.0000
vn 1.0000 -0.0000 -0.0000
s 0
usemtl material_2
f 252//239 254//239 251//239
f 255//240 252//240 251//240
f 251//239 254//239 253//239
f 253//241 255//241 251//241
f 252//242 258//242 254//242
f 256//240 252//240 255//240
f 256//242 258//242 252//242
f 254//243 258//243 253//243
f 257//241 255//241 253//241
f 253//243 258//243 257//243
f 257//244 256//244 255//244
f 258//244 256//244 257//244
o geometry_6
v -0.081000 0.260000 -0.301000
v -0.081000 0.260000 0.301000
v -0.081000 0.680000 -0.301000
v -0.081000 0.680000 0.301000
v -0.075000 0.260000 -0.301000
v -0.075000 0.260000 0.301000
v -0.075000 0.680000 -0.301000
v -0.075000 0.680000 0.301000
vn -1.0000 -0.0000 -0.0000
vn -0.0000 -1.0000 -0.0000
vn -0.0000 -0.0000 -1.0000
vn -0.0000 -0.0000 1.0000
vn -0.0000 1.0000 -0.0000
vn 1.0000 -0.0000 -0.0000
s 0
usemtl material_2
f 260//245 262//245 259//245
f 263//246 260//246 259//246
f 259//245 262//245 261//245
f 261//247 263//247 259//247
f 260//248 266//248 262//248
f 264//246 260//246 263//246
f 264//248 266//248 260//248
f 262//249 266//249 261//249
f 265//247 263//247 261//247
f 261//249 266//249 265//249
f 265//250 264//250 263//250
f 266//250 264//250 265//250
o geometry_7
v 0.075000 0.260000 -0.301000
v 0.075000 0.260000 0.301000
v 0.075000 0.680000 -0.301000
v 0.075000 0.680000 0.301000
v 0.081000 0.260000 -0.301000
v 0.081000 0.260000 0.301000
v 0.081000 0.680000 -0.301000
v 0.081000 0.680000 0.301000
vn -1.0000 -0.0000 -0.0000
vn -0.0000 -1.0000 -0.0000
vn -0.0000 -0.0000 -1.0000
vn -0.0000 -0.0000 1.0000
vn -0.0000 1.0000 -0.0000
vn 1.0000 -0.0000 -0.0000
s 0
usemtl material_2
f 268//251 270//251 267//251
f 271//252 268//252 267//252
f 267//251 270//251 269//251
f 269//253 271//253 267//253
f 268//254 274//254 270//254
f 272//252 268//252 271//252
f 272//254 274//254 268//254
f 270//255 274//255 269//255
f 273//253 271//253 269//253
f 269//255 274//255 273//255
f 273//256 272//256 271//256
f 274//256 272//256 273//256
o geometry_8
v 0.231000 0.260000 -0.301000
v 0.231000 0.260000 0.301000
v 0.231000 0.680000 -0.301000
v 0.231000 0.680000 0.301000
v 0.237000 0.260000 -0.301000
v 0.237000 0.260000 0.301000
v 0.237000 0.680000 -0.301000
v 0.237000 0.680000 0.301000
vn -1.0000 -0.0000 -0.0000
vn -0.0000 -1.0000 -0.0000
vn -0.0000 -0.0000 -1.0000
vn -0.0000 -0.0000 1.0000
vn -0.0000 1.0000 -0.0000
vn 1.0000 -0.0000 -0.0000
s 0
usemtl material_2
f 276//257 278//257 275//257
f 279//258 276//258 275//258
f 275//257 278//257 277//257
f 277//259 279//259 275//259
f 276//260 282//260 278//260
f 280//258 276//258 279//258
f 280//260 282//260 276//260
f 278//261 282//261 277//261
f 281//259 279//259 277//259
f 277//261 282//261 281//261
f 281//262 280//262 279//262
f 282//262 280//262 281//262
o geometry_9
v 0.070000 0.300000 0.301000
v 0.070000 0.300000 0.313000
v 0.070000 0.640000 0.301000
v 0.070000 0.640000 0.313000
v 0.370000 0.300000 0.301000
v 0.370000 0.300000 0.313000
v 0.370000 0.640000 0.301000
v 0.370000 0.640000 0.313000
vn -1.0000 -0.0000 -0.0000
vn -0.0000 -1.0000 -0.0000
vn -0.0000 -0.0000 -1.0000
vn -0.0000 -0.0000 1.0000
vn -0.0000 1.0000 -0.0000
vn 1.0000 -0.0000 -0.0000
s 0
usemtl material_3
f 284//263 286//263 283//263
f 287//264 284//264 283//264
f 283//263 286//263 285//263
f 285//265 287//265 283//265
f 284//266 290//266 286//266
f 288//264 284//264 287//264
f 288//266 290//266 284//266
f 286//267 290//267 285//267
f 289//265 287//265 285//265
f 285//267 290//267 289//267
f 289//268 288//268 287//268
f 290//268 288//268 289//268
