# Blender 5.2.0 LTS
# www.blender.org
mtllib jail_stairs_wood.mtl
o geometry_0
v -0.461372 -0.015726 -0.005000
v -0.461372 -0.015726 0.233571
v -0.461372 0.029274 -0.005000
v -0.461372 0.029274 0.233571
v 0.465488 -0.015726 -0.005000
v 0.465488 -0.015726 0.233571
v 0.465488 0.029274 -0.005000
v 0.465488 0.029274 0.233571
vn -1.0000 -0.0000 -0.0000
vn -0.0000 -1.0000 -0.0000
vn -0.0000 -0.0000 -1.0000
vn -0.0000 -0.0000 1.0000
vn -0.0000 1.0000 -0.0000
vn 1.0000 -0.0000 -0.0000
s 0
usemtl material_0
f 2//1 4//1 1//1
f 5//2 2//2 1//2
f 1//1 4//1 3//1
f 3//3 5//3 1//3
f 2//4 8//4 4//4
f 6//2 2//2 5//2
f 6//4 8//4 2//4
f 4//5 8//5 3//5
f 7//3 5//3 3//3
f 3//5 8//5 7//5
f 7//6 6//6 5//6
f 8//6 6//6 7//6
o geometry_1
v -0.450000 -0.285714 0.000000
v -0.450000 -0.285714 0.030000
v -0.450000 0.000000 0.000000
v -0.450000 0.000000 0.030000
v 0.450000 -0.285714 0.000000
v 0.450000 -0.285714 0.030000
v 0.450000 0.000000 0.000000
v 0.450000 0.000000 0.030000
vn -1.0000 -0.0000 -0.0000
vn -0.0000 -1.0000 -0.0000
vn -0.0000 -0.0000 -1.0000
vn -0.0000 -0.0000 1.0000
vn -0.0000 1.0000 -0.0000
vn 1.0000 -0.0000 -0.0000
s 0
usemtl material_1
f 10//7 12//7 9//7
f 13//8 10//8 9//8
f 9//7 12//7 11//7
f 11//9 13//9 9//9
f 10//10 16//10 12//10
f 14//8 10//8 13//8
f 14//10 16//10 10//10
f 12//11 16//11 11//11
f 15//9 13//9 11//9
f 11//11 16//11 15//11
f 15//12 14//12 13//12
f 16//12 14//12 15//12
o geometry_10
v -0.450000 -1.714286 1.142857
v -0.450000 -1.714286 1.172857
v -0.450000 -1.428571 1.142857
v -0.450000 -1.428571 1.172857
v 0.450000 -1.714286 1.142857
v 0.450000 -1.714286 1.172857
v 0.450000 -1.428571 1.142857
v 0.450000 -1.428571 1.172857
vn -1.0000 -0.0000 -0.0000
vn -0.0000 -1.0000 -0.0000
vn -0.0000 -0.0000 -1.0000
vn -0.0000 -0.0000 1.0000
vn -0.0000 1.0000 -0.0000
vn 1.0000 -0.0000 -0.0000
s 0
usemtl material_1
f 18//13 20//13 17//13
f 21//14 18//14 17//14
f 17//13 20//13 19//13
f 19//15 21//15 17//15
f 18//16 24//16 20//16
f 22//14 18//14 21//14
f 22//16 24//16 18//16
f 20//17 24//17 19//17
f 23//15 21//15 19//15
f 19//17 24//17 23//17
f 23//18 22//18 21//18
f 24//18 22//18 23//18
o geometry_11
v -0.463275 -1.745839 1.366429
v -0.463275 -1.745839 1.605000
v -0.463275 -1.700840 1.366429
v -0.463275 -1.700840 1.605000
v 0.473099 -1.745839 1.366429
v 0.473099 -1.745839 1.605000
v 0.473099 -1.700840 1.366429
v 0.473099 -1.700840 1.605000
vn -1.0000 -0.0000 -0.0000
vn -0.0000 -1.0000 -0.0000
vn -0.0000 -0.0000 -1.0000
vn -0.0000 -0.0000 1.0000
vn -0.0000 1.0000 -0.0000
vn 1.0000 -0.0000 -0.0000
s 0
usemtl material_0
f 26//19 28//19 25//19
f 29//20 26//20 25//20
f 25//19 28//19 27//19
f 27//21 29//21 25//21
f 26//22 32//22 28//22
f 30//20 26//20 29//20
f 30//22 32//22 26//22
f 28//23 32//23 27//23
f 31//21 29//21 27//21
f 27//23 32//23 31//23
f 31//24 30//24 29//24
f 32//24 30//24 31//24
o geometry_12
v -0.450000 -2.000000 1.371429
v -0.450000 -2.000000 1.401429
v -0.450000 -1.714286 1.371429
v -0.450000 -1.714286 1.401429
v 0.450000 -2.000000 1.371429
v 0.450000 -2.000000 1.401429
v 0.450000 -1.714286 1.371429
v 0.450000 -1.714286 1.401429
vn -1.0000 -0.0000 -0.0000
vn -0.0000 -1.0000 -0.0000
vn -0.0000 -0.0000 -1.0000
vn -0.0000 -0.0000 1.0000
vn -0.0000 1.0000 -0.0000
vn 1.0000 -0.0000 -0.0000
s 0
usemtl material_1
f 34//25 36//25 33//25
f 37//26 34//26 33//26
f 33//25 36//25 35//25
f 35//27 37//27 33//27
f 34//28 40//28 36//28
f 38//26 34//26 37//26
f 38//28 40//28 34//28
f 36//29 40//29 35//29
f 39//27 37//27 35//27
f 35//29 40//29 39//29
f 39//30 38//30 37//30
f 40//30 38//30 39//30
o geometry_13
v -0.495000 0.164447 -0.017114
v -0.495000 -1.984536 1.376397
v -0.495000 0.251499 0.117132
v -0.495000 -1.897484 1.510643
v -0.445000 0.164447 -0.017114
v -0.445000 -1.984536 1.376397
v -0.445000 0.251499 0.117132
v -0.445000 -1.897484 1.510643
vn -1.0000 -0.0000 -0.0000
vn -0.0000 -0.5441 -0.8390
vn -0.0000 0.8390 -0.5441
vn -0.0000 -0.8390 0.5441
vn -0.0000 0.5441 0.8390
vn 1.0000 -0.0000 -0.0000
s 0
usemtl material_1
f 42//31 44//31 41//31
f 45//32 42//32 41//32
f 41//31 44//31 43//31
f 43//33 45//33 41//33
f 42//34 48//34 44//34
f 46//32 42//32 45//32
f 46//34 48//34 42//34
f 44//35 48//35 43//35
f 47//33 45//33 43//33
f 43//35 48//35 47//35
f 47//36 46//36 45//36
f 48//36 46//36 47//36
o geometry_14
v 0.445000 0.164447 -0.017114
v 0.445000 -1.984536 1.376397
v 0.445000 0.251499 0.117132
v 0.445000 -1.897484 1.510643
v 0.495000 0.164447 -0.017114
v 0.495000 -1.984536 1.376397
v 0.495000 0.251499 0.117132
v 0.495000 -1.897484 1.510643
vn -1.0000 -0.0000 -0.0000
vn -0.0000 -0.5441 -0.8390
vn -0.0000 0.8390 -0.5441
vn -0.0000 -0.8390 0.5441
vn -0.0000 0.5441 0.8390
vn 1.0000 -0.0000 -0.0000
s 0
usemtl material_1
f 50//37 52//37 49//37
f 53//38 50//38 49//38
f 49//37 52//37 51//37
f 51//39 53//39 49//39
f 50//40 56//40 52//40
f 54//38 50//38 53//38
f 54//40 56//40 50//40
f 52//41 56//41 51//41
f 55//39 53//39 51//39
f 51//41 56//41 55//41
f 55//42 54//42 53//42
f 56//42 54//42 55//42
o geometry_15
v -0.494560 -0.187500 0.137800
v -0.494560 -0.187500 0.174200
v -0.494560 0.312500 0.137800
v -0.494560 0.312500 0.174200
v -0.459560 -0.187500 0.137800
v -0.459560 -0.187500 0.174200
v -0.459560 0.312500 0.137800
v -0.459560 0.312500 0.174200
vn -1.0000 -0.0000 -0.0000
vn -0.0000 -1.0000 -0.0000
vn -0.0000 -0.0000 -1.0000
vn -0.0000 -0.0000 1.0000
vn -0.0000 1.0000 -0.0000
vn 1.0000 -0.0000 -0.0000
s 0
usemtl material_1
f 58//43 60//43 57//43
f 61//44 58//44 57//44
f 57//43 60//43 59//43
f 59//45 61//45 57//45
f 58//46 64//46 60//46
f 62//44 58//44 61//44
f 62//46 64//46 58//46
f 60//47 64//47 59//47
f 63//45 61//45 59//45
f 59//47 64//47 63//47
f 63//48 62//48 61//48
f 64//48 62//48 63//48
o geometry_16
v -0.493613 -0.761068 0.582500
v -0.493613 -0.761068 0.617500
v -0.493613 -0.261068 0.582500
v -0.493613 -0.261068 0.617500
v -0.458613 -0.761068 0.582500
v -0.458613 -0.761068 0.617500
v -0.458613 -0.261068 0.582500
v -0.458613 -0.261068 0.617500
vn -1.0000 -0.0000 -0.0000
vn -0.0000 -1.0000 -0.0000
vn -0.0000 -0.0000 -1.0000
vn -0.0000 -0.0000 1.0000
vn -0.0000 1.0000 -0.0000
vn 1.0000 -0.0000 -0.0000
s 0
usemtl material_1
f 66//49 68//49 65//49
f 69//50 66//50 65//50
f 65//49 68//49 67//49
f 67//51 69//51 65//51
f 66//52 72//52 68//52
f 70//50 66//50 69//50
f 70//52 72//52 66//52
f 68//53 72//53 67//53
f 71//51 69//51 67//51
f 67//53 72//53 71//53
f 71//54 70//54 69//54
f 72//54 70//54 71//54
o geometry_17
v -0.485247 -1.370206 1.032500
v -0.485247 -1.370206 1.067500
v -0.485247 -0.870206 1.032500
v -0.485247 -0.870206 1.067500
v -0.450247 -1.370206 1.032500
v -0.450247 -1.370206 1.067500
v -0.450247 -0.870206 1.032500
v -0.450247 -0.870206 1.067500
vn -1.0000 -0.0000 -0.0000
vn -0.0000 -1.0000 -0.0000
vn -0.0000 -0.0000 -1.0000
vn -0.0000 -0.0000 1.0000
vn -0.0000 1.0000 -0.0000
vn 1.0000 -0.0000 -0.0000
s 0
usemtl material_1
f 74//55 76//55 73//55
f 77//56 74//56 73//56
f 73//55 76//55 75//55
f 75//57 77//57 73//57
f 74//58 80//58 76//58
f 78//56 74//56 77//56
f 78//58 80//58 74//58
f 76//59 80//59 75//59
f 79//57 77//57 75//57
f 75//59 80//59 79//59
f 79//60 78//60 77//60
f 80//60 78//60 79//60
o geometry_18
v -0.495889 -1.918373 1.450775
v -0.495889 -1.918373 1.485775
v -0.495889 -1.418373 1.450775
v -0.495889 -1.418373 1.485775
v -0.460889 -1.918373 1.450775
v -0.460889 -1.918373 1.485775
v -0.460889 -1.418373 1.450775
v -0.460889 -1.418373 1.485775
vn -1.0000 -0.0000 -0.0000
vn -0.0000 -1.0000 -0.0000
vn -0.0000 -0.0000 -1.0000
vn -0.0000 -0.0000 1.0000
vn -0.0000 1.0000 -0.0000
vn 1.0000 -0.0000 -0.0000
s 0
usemtl material_1
f 82//61 84//61 81//61
f 85//62 82//62 81//62
f 81//61 84//61 83//61
f 83//63 85//63 81//63
f 82//64 88//64 84//64
f 86//62 82//62 85//62
f 86//64 88//64 82//64
f 84//65 88//65 83//65
f 87//63 85//63 83//63
f 83//65 88//65 87//65
f 87//66 86//66 85//66
f 88//66 86//66 87//66
o geometry_19
v -0.480360 0.331270 0.125027
v -0.485183 -1.552777 1.548349
v -0.481520 0.352358 0.152937
v -0.486343 -1.531689 1.576259
v -0.445379 0.331912 0.125995
v -0.450203 -1.552135 1.549317
v -0.446539 0.353000 0.153905
v -0.451363 -1.531047 1.577227
vn -0.9994 -0.0184 -0.0277
vn 0.0331 -0.6025 -0.7974
vn 0.0020 0.7979 -0.6028
vn -0.0020 -0.7979 0.6028
vn -0.0331 0.6025 0.7974
vn 0.9994 0.0184 0.0277
s 0
usemtl material_0
f 90//67 92//67 89//67
f 93//68 90//68 89//68
f 89//67 92//67 91//67
f 91//69 93//69 89//69
f 90//70 96//70 92//70
f 94//68 90//68 93//68
f 94//70 96//70 90//70
f 92//71 96//71 91//71
f 95//69 93//69 91//69
f 91//71 96//71 95//71
f 95//72 94//72 93//72
f 96//72 94//72 95//72
o geometry_2
v -0.458773 -0.315907 0.223571
v -0.458773 -0.315907 0.462143
v -0.458773 -0.270907 0.223571
v -0.458773 -0.270907 0.462143
v 0.455092 -0.315907 0.223571
v 0.455092 -0.315907 0.462143
v 0.455092 -0.270907 0.223571
v 0.455092 -0.270907 0.462143
vn -1.0000 -0.0000 -0.0000
vn -0.0000 -1.0000 -0.0000
vn -0.0000 -0.0000 -1.0000
vn -0.0000 -0.0000 1.0000
vn -0.0000 1.0000 -0.0000
vn 1.0000 -0.0000 -0.0000
s 0
usemtl material_2
f 98//73 100//73 97//73
f 101//74 98//74 97//74
f 97//73 100//73 99//73
f 99//75 101//75 97//75
f 98//76 104//76 100//76
f 102//74 98//74 101//74
f 102//76 104//76 98//76
f 100//77 104//77 99//77
f 103//75 101//75 99//75
f 99//77 104//77 103//77
f 103//78 102//78 101//78
f 104//78 102//78 103//78
o geometry_3
v -0.457912 -0.598454 0.452143
v -0.457912 -0.598454 0.690714
v -0.457912 -0.553454 0.452143
v -0.457912 -0.553454 0.690714
v 0.451648 -0.598454 0.452143
v 0.451648 -0.598454 0.690714
v 0.451648 -0.553454 0.452143
v 0.451648 -0.553454 0.690714
vn -1.0000 -0.0000 -0.0000
vn -0.0000 -1.0000 -0.0000
vn -0.0000 -0.0000 -1.0000
vn -0.0000 -0.0000 1.0000
vn -0.0000 1.0000 -0.0000
vn 1.0000 -0.0000 -0.0000
s 0
usemtl material_0
f 106//79 108//79 105//79
f 109//80 106//80 105//80
f 105//79 108//79 107//79
f 107//81 109//81 105//81
f 106//82 112//82 108//82
f 110//80 106//80 109//80
f 110//82 112//82 106//82
f 108//83 112//83 107//83
f 111//81 109//81 107//81
f 107//83 112//83 111//83
f 111//84 110//84 109//84
f 112//84 110//84 111//84
o geometry_4
v -0.450000 -0.857143 0.457143
v -0.450000 -0.857143 0.487143
v -0.450000 -0.571429 0.457143
v -0.450000 -0.571429 0.487143
v 0.450000 -0.857143 0.457143
v 0.450000 -0.857143 0.487143
v 0.450000 -0.571429 0.457143
v 0.450000 -0.571429 0.487143
vn -1.0000 -0.0000 -0.0000
vn -0.0000 -1.0000 -0.0000
vn -0.0000 -0.0000 -1.0000
vn -0.0000 -0.0000 1.0000
vn -0.0000 1.0000 -0.0000
vn 1.0000 -0.0000 -0.0000
s 0
usemtl material_1
f 114//85 116//85 113//85
f 117//86 114//86 113//86
f 113//85 116//85 115//85
f 115//87 117//87 113//87
f 114//88 120//88 116//88
f 118//86 114//86 117//86
f 118//88 120//88 114//88
f 116//89 120//89 115//89
f 119//87 117//87 115//87
f 115//89 120//89 119//89
f 119//90 118//90 117//90
f 120//90 118//90 119//90
o geometry_5
v -0.459554 -0.869618 0.680714
v -0.459554 -0.869618 0.919286
v -0.459554 -0.824618 0.680714
v -0.459554 -0.824618 0.919286
v 0.458216 -0.869618 0.680714
v 0.458216 -0.869618 0.919286
v 0.458216 -0.824618 0.680714
v 0.458216 -0.824618 0.919286
vn -1.0000 -0.0000 -0.0000
vn -0.0000 -1.0000 -0.0000
vn -0.0000 -0.0000 -1.0000
vn -0.0000 -0.0000 1.0000
vn -0.0000 1.0000 -0.0000
vn 1.0000 -0.0000 -0.0000
s 0
usemtl material_2
f 122//91 124//91 121//91
f 125//92 122//92 121//92
f 121//91 124//91 123//91
f 123//93 125//93 121//93
f 122//94 128//94 124//94
f 126//92 122//92 125//92
f 126//94 128//94 122//94
f 124//95 128//95 123//95
f 127//93 125//93 123//93
f 123//95 128//95 127//95
f 127//96 126//96 125//96
f 128//96 126//96 127//96
o geometry_6
v -0.450000 -1.142857 0.685714
v -0.450000 -1.142857 0.715714
v -0.450000 -0.857143 0.685714
v -0.450000 -0.857143 0.715714
v 0.450000 -1.142857 0.685714
v 0.450000 -1.142857 0.715714
v 0.450000 -0.857143 0.685714
v 0.450000 -0.857143 0.715714
vn -1.0000 -0.0000 -0.0000
vn -0.0000 -1.0000 -0.0000
vn -0.0000 -0.0000 -1.0000
vn -0.0000 -0.0000 1.0000
vn -0.0000 1.0000 -0.0000
vn 1.0000 -0.0000 -0.0000
s 0
usemtl material_1
f 130//97 132//97 129//97
f 133//98 130//98 129//98
f 129//97 132//97 131//97
f 131//99 133//99 129//99
f 130//100 136//100 132//100
f 134//98 130//98 133//98
f 134//100 136//100 130//100
f 132//101 136//101 131//101
f 135//99 133//99 131//99
f 131//101 136//101 135//101
f 135//102 134//102 133//102
f 136//102 134//102 135//102
o geometry_7
v -0.460095 -1.163550 0.909286
v -0.460095 -1.163550 1.147857
v -0.460095 -1.118550 0.909286
v -0.460095 -1.118550 1.147857
v 0.460380 -1.163550 0.909286
v 0.460380 -1.163550 1.147857
v 0.460380 -1.118550 0.909286
v 0.460380 -1.118550 1.147857
vn -1.0000 -0.0000 -0.0000
vn -0.0000 -1.0000 -0.0000
vn -0.0000 -0.0000 -1.0000
vn -0.0000 -0.0000 1.0000
vn -0.0000 1.0000 -0.0000
vn 1.0000 -0.0000 -0.0000
s 0
usemtl material_0
f 138//103 140//103 137//103
f 141//104 138//104 137//104
f 137//103 140//103 139//103
f 139//105 141//105 137//105
f 138//106 144//106 140//106
f 142//104 138//104 141//104
f 142//106 144//106 138//106
f 140//107 144//107 139//107
f 143//105 141//105 139//105
f 139//107 144//107 143//107
f 143//108 142//108 141//108
f 144//108 142//108 143//108
o geometry_8
v -0.450000 -1.428571 0.914286
v -0.450000 -1.428571 0.944286
v -0.450000 -1.142857 0.914286
v -0.450000 -1.142857 0.944286
v 0.450000 -1.428571 0.914286
v 0.450000 -1.428571 0.944286
v 0.450000 -1.142857 0.914286
v 0.450000 -1.142857 0.944286
vn -1.0000 -0.0000 -0.0000
vn -0.0000 -1.0000 -0.0000
vn -0.0000 -0.0000 -1.0000
vn -0.0000 -0.0000 1.0000
vn -0.0000 1.0000 -0.0000
vn 1.0000 -0.0000 -0.0000
s 0
usemtl material_1
f 146//109 148//109 145//109
f 149//110 146//110 145//110
f 145//109 148//109 147//109
f 147//111 149//111 145//111
f 146//112 152//112 148//112
f 150//110 146//110 149//110
f 150//112 152//112 146//112
f 148//113 152//113 147//113
f 151//111 149//111 147//111
f 147//113 152//113 151//113
f 151//114 150//114 149//114
f 152//114 150//114 151//114
o geometry_9
v -0.463322 -1.440350 1.137857
v -0.463322 -1.440350 1.376429
v -0.463322 -1.395350 1.137857
v -0.463322 -1.395350 1.376429
v 0.473290 -1.440350 1.137857
v 0.473290 -1.440350 1.376429
v 0.473290 -1.395350 1.137857
v 0.473290 -1.395350 1.376429
vn -1.0000 -0.0000 -0.0000
vn -0.0000 -1.0000 -0.0000
vn -0.0000 -0.0000 -1.0000
vn -0.0000 -0.0000 1.0000
vn -0.0000 1.0000 -0.0000
vn 1.0000 -0.0000 -0.0000
s 0
usemtl material_2
f 154//115 156//115 153//115
f 157//116 154//116 153//116
f 153//115 156//115 155//115
f 155//117 157//117 153//117
f 154//118 160//118 156//118
f 158//116 154//116 157//116
f 158//118 160//118 154//118
f 156//119 160//119 155//119
f 159//117 157//117 155//117
f 155//119 160//119 159//119
f 159//120 158//120 157//120
f 160//120 158//120 159//120
