# https://github.com/mikedh/trimesh
mtllib treasury_gold_1.mtl

o geometry_13
usemtl material_0
v -0.00368594 -0.00159493 0.04924884
v 0.02772536 -0.00053848 0.07230417
v -0.01125215 -0.00075808 0.07210461
v -0.00368594 -0.00159493 0.04924884
v -0.01125215 -0.00075808 0.07210461
v -0.00375114 0.01039604 0.04878822
v -0.00375114 0.01039604 0.04878822
v -0.01125215 -0.00075808 0.07210461
v -0.01131735 0.01123290 0.07164399
v -0.00375114 0.01039604 0.04878822
v -0.01131735 0.01123290 0.07164399
v 0.02766016 0.01145250 0.07184354
v -0.01125215 -0.00075808 0.07210461
v 0.02772536 -0.00053848 0.07230417
v -0.00393027 0.00016265 0.09503660
v -0.01125215 -0.00075808 0.07210461
v -0.00393027 0.00016265 0.09503660
v -0.01131735 0.01123290 0.07164399
v -0.01131735 0.01123290 0.07164399
v -0.00393027 0.00016265 0.09503660
v -0.00399547 0.01215363 0.09457597
v -0.01131735 0.01123290 0.07164399
v -0.00399547 0.01215363 0.09457597
v 0.02766016 0.01145250 0.07184354
v -0.00393027 0.00016265 0.09503660
v 0.02772536 -0.00053848 0.07230417
v 0.01548298 0.00081558 0.10928558
v -0.00393027 0.00016265 0.09503660
v 0.01548298 0.00081558 0.10928558
v -0.00399547 0.01215363 0.09457597
v -0.00399547 0.01215363 0.09457597
v 0.01548298 0.00081558 0.10928558
v 0.01541778 0.01280655 0.10882495
v -0.00399547 0.01215363 0.09457597
v 0.01541778 0.01280655 0.10882495
v 0.02766016 0.01145250 0.07184354
v 0.01548298 0.00081558 0.10928558
v 0.02772536 -0.00053848 0.07230417
v 0.03957240 0.00095130 0.10940891
v 0.01548298 0.00081558 0.10928558
v 0.03957240 0.00095130 0.10940891
v 0.01541778 0.01280655 0.10882495
v 0.01541778 0.01280655 0.10882495
v 0.03957240 0.00095130 0.10940891
v 0.03950720 0.01294228 0.10894828
v 0.01541778 0.01280655 0.10882495
v 0.03950720 0.01294228 0.10894828
v 0.02766016 0.01145250 0.07184354
v 0.03957240 0.00095130 0.10940891
v 0.02772536 -0.00053848 0.07230417
v 0.05913665 0.00051797 0.09535950
v 0.03957240 0.00095130 0.10940891
v 0.05913665 0.00051797 0.09535950
v 0.03950720 0.01294228 0.10894828
v 0.03950720 0.01294228 0.10894828
v 0.05913665 0.00051797 0.09535950
v 0.05907145 0.01250895 0.09489886
v 0.03950720 0.01294228 0.10894828
v 0.05907145 0.01250895 0.09489886
v 0.02766016 0.01145250 0.07184354
v 0.05913665 0.00051797 0.09535950
v 0.02772536 -0.00053848 0.07230417
v 0.06670286 -0.00031888 0.07250373
v 0.05913665 0.00051797 0.09535950
v 0.06670286 -0.00031888 0.07250373
v 0.05907145 0.01250895 0.09489886
v 0.05907145 0.01250895 0.09489886
v 0.06670286 -0.00031888 0.07250373
v 0.06663766 0.01167210 0.07204310
v 0.05907145 0.01250895 0.09489886
v 0.06663766 0.01167210 0.07204310
v 0.02766016 0.01145250 0.07184354
v 0.06670286 -0.00031888 0.07250373
v 0.02772536 -0.00053848 0.07230417
v 0.05938098 -0.00123961 0.04957174
v 0.06670286 -0.00031888 0.07250373
v 0.05938098 -0.00123961 0.04957174
v 0.06663766 0.01167210 0.07204310
v 0.06663766 0.01167210 0.07204310
v 0.05938098 -0.00123961 0.04957174
v 0.05931578 0.01075137 0.04911111
v 0.06663766 0.01167210 0.07204310
v 0.05931578 0.01075137 0.04911111
v 0.02766016 0.01145250 0.07184354
v 0.05938098 -0.00123961 0.04957174
v 0.02772536 -0.00053848 0.07230417
v 0.03996773 -0.00189254 0.03532276
v 0.05938098 -0.00123961 0.04957174
v 0.03996773 -0.00189254 0.03532276
v 0.05931578 0.01075137 0.04911111
v 0.05931578 0.01075137 0.04911111
v 0.03996773 -0.00189254 0.03532276
v 0.03990253 0.01009844 0.03486213
v 0.05931578 0.01075137 0.04911111
v 0.03990253 0.01009844 0.03486213
v 0.02766016 0.01145250 0.07184354
v 0.03996773 -0.00189254 0.03532276
v 0.02772536 -0.00053848 0.07230417
v 0.01587831 -0.00202826 0.03519943
v 0.03996773 -0.00189254 0.03532276
v 0.01587831 -0.00202826 0.03519943
v 0.03990253 0.01009844 0.03486213
v 0.03990253 0.01009844 0.03486213
v 0.01587831 -0.00202826 0.03519943
v 0.01581311 0.00996272 0.03473880
v 0.03990253 0.01009844 0.03486213
v 0.01581311 0.00996272 0.03473880
v 0.02766016 0.01145250 0.07184354
v 0.01587831 -0.00202826 0.03519943
v 0.02772536 -0.00053848 0.07230417
v -0.00368594 -0.00159493 0.04924884
v 0.01587831 -0.00202826 0.03519943
v -0.00368594 -0.00159493 0.04924884
v 0.01581311 0.00996272 0.03473880
v 0.01581311 0.00996272 0.03473880
v -0.00368594 -0.00159493 0.04924884
v -0.00375114 0.01039604 0.04878822
v 0.01581311 0.00996272 0.03473880
v -0.00375114 0.01039604 0.04878822
v 0.02766016 0.01145250 0.07184354
f 1 2 3
f 4 5 6
f 7 8 9
f 10 11 12
f 13 14 15
f 16 17 18
f 19 20 21
f 22 23 24
f 25 26 27
f 28 29 30
f 31 32 33
f 34 35 36
f 37 38 39
f 40 41 42
f 43 44 45
f 46 47 48
f 49 50 51
f 52 53 54
f 55 56 57
f 58 59 60
f 61 62 63
f 64 65 66
f 67 68 69
f 70 71 72
f 73 74 75
f 76 77 78
f 79 80 81
f 82 83 84
f 85 86 87
f 88 89 90
f 91 92 93
f 94 95 96
f 97 98 99
f 100 101 102
f 103 104 105
f 106 107 108
f 109 110 111
f 112 113 114
f 115 116 117
f 118 119 120

o geometry_12
usemtl material_1
v 0.08271158 -0.00610742 0.16506851
v 0.09109768 0.00098161 0.11891157
v 0.11027095 0.00349915 0.16223697
v 0.08271158 -0.00610742 0.16506851
v 0.11027095 0.00349915 0.16223697
v 0.07887217 0.00521401 0.16610974
v 0.07887217 0.00521401 0.16610974
v 0.11027095 0.00349915 0.16223697
v 0.10643153 0.01482058 0.16327822
v 0.07887217 0.00521401 0.16610974
v 0.10643153 0.01482058 0.16327822
v 0.08725826 0.01230304 0.11995281
v 0.11027095 0.00349915 0.16223697
v 0.09109768 0.00098161 0.11891157
v 0.13050677 0.01214410 0.14285663
v 0.11027095 0.00349915 0.16223697
v 0.13050677 0.01214410 0.14285663
v 0.10643153 0.01482058 0.16327822
v 0.10643153 0.01482058 0.16327822
v 0.13050677 0.01214410 0.14285663
v 0.12666735 0.02346553 0.14389786
v 0.10643153 0.01482058 0.16327822
v 0.12666735 0.02346553 0.14389786
v 0.08725826 0.01230304 0.11995281
v 0.13050677 0.01214410 0.14285663
v 0.09109768 0.00098161 0.11891157
v 0.13568966 0.01652537 0.11433007
v 0.13050677 0.01214410 0.14285663
v 0.13568966 0.01652537 0.11433007
v 0.12666735 0.02346553 0.14389786
v 0.12666735 0.02346553 0.14389786
v 0.13568966 0.01652537 0.11433007
v 0.13185024 0.02784679 0.11537130
v 0.12666735 0.02346553 0.14389786
v 0.13185024 0.02784679 0.11537130
v 0.08725826 0.01230304 0.11995281
v 0.13568966 0.01652537 0.11433007
v 0.09109768 0.00098161 0.11891157
v 0.12383993 0.01496944 0.08755349
v 0.13568966 0.01652537 0.11433007
v 0.12383993 0.01496944 0.08755349
v 0.13185024 0.02784679 0.11537130
v 0.13185024 0.02784679 0.11537130
v 0.12383993 0.01496944 0.08755349
v 0.12000051 0.02629087 0.08859473
v 0.13185024 0.02784679 0.11537130
v 0.12000051 0.02629087 0.08859473
v 0.08725826 0.01230304 0.11995281
v 0.12383993 0.01496944 0.08755349
v 0.09109768 0.00098161 0.11891157
v 0.09948377 0.00807064 0.07275464
v 0.12383993 0.01496944 0.08755349
v 0.09948377 0.00807064 0.07275464
v 0.12000051 0.02629087 0.08859473
v 0.12000051 0.02629087 0.08859473
v 0.09948377 0.00807064 0.07275464
v 0.09564435 0.01939207 0.07379587
v 0.12000051 0.02629087 0.08859473
v 0.09564435 0.01939207 0.07379587
v 0.08725826 0.01230304 0.11995281
v 0.09948377 0.00807064 0.07275464
v 0.09109768 0.00098161 0.11891157
v 0.07192440 -0.00153593 0.07558616
v 0.09948377 0.00807064 0.07275464
v 0.07192440 -0.00153593 0.07558616
v 0.09564435 0.01939207 0.07379587
v 0.09564435 0.01939207 0.07379587
v 0.07192440 -0.00153593 0.07558616
v 0.06808499 0.00978550 0.07662740
v 0.09564435 0.01939207 0.07379587
v 0.06808499 0.00978550 0.07662740
v 0.08725826 0.01230304 0.11995281
v 0.07192440 -0.00153593 0.07558616
v 0.09109768 0.00098161 0.11891157
v 0.05168858 -0.01018089 0.09496652
v 0.07192440 -0.00153593 0.07558616
v 0.05168858 -0.01018089 0.09496652
v 0.06808499 0.00978550 0.07662740
v 0.06808499 0.00978550 0.07662740
v 0.05168858 -0.01018089 0.09496652
v 0.04784917 0.00114054 0.09600775
v 0.06808499 0.00978550 0.07662740
v 0.04784917 0.00114054 0.09600775
v 0.08725826 0.01230304 0.11995281
v 0.05168858 -0.01018089 0.09496652
v 0.09109768 0.00098161 0.11891157
v 0.04650569 -0.01456215 0.12349307
v 0.05168858 -0.01018089 0.09496652
v 0.04650569 -0.01456215 0.12349307
v 0.04784917 0.00114054 0.09600775
v 0.04784917 0.00114054 0.09600775
v 0.04650569 -0.01456215 0.12349307
v 0.04266628 -0.00324072 0.12453431
v 0.04784917 0.00114054 0.09600775
v 0.04266628 -0.00324072 0.12453431
v 0.08725826 0.01230304 0.11995281
v 0.04650569 -0.01456215 0.12349307
v 0.09109768 0.00098161 0.11891157
v 0.05835542 -0.01300622 0.15026964
v 0.04650569 -0.01456215 0.12349307
v 0.05835542 -0.01300622 0.15026964
v 0.04266628 -0.00324072 0.12453431
v 0.04266628 -0.00324072 0.12453431
v 0.05835542 -0.01300622 0.15026964
v 0.05451601 -0.00168480 0.15131088
v 0.04266628 -0.00324072 0.12453431
v 0.05451601 -0.00168480 0.15131088
v 0.08725826 0.01230304 0.11995281
v 0.05835542 -0.01300622 0.15026964
v 0.09109768 0.00098161 0.11891157
v 0.08271158 -0.00610742 0.16506851
v 0.05835542 -0.01300622 0.15026964
v 0.08271158 -0.00610742 0.16506851
v 0.05451601 -0.00168480 0.15131088
v 0.05451601 -0.00168480 0.15131088
v 0.08271158 -0.00610742 0.16506851
v 0.07887217 0.00521401 0.16610974
v 0.05451601 -0.00168480 0.15131088
v 0.07887217 0.00521401 0.16610974
v 0.08725826 0.01230304 0.11995281
f 121 122 123
f 124 125 126
f 127 128 129
f 130 131 132
f 133 134 135
f 136 137 138
f 139 140 141
f 142 143 144
f 145 146 147
f 148 149 150
f 151 152 153
f 154 155 156
f 157 158 159
f 160 161 162
f 163 164 165
f 166 167 168
f 169 170 171
f 172 173 174
f 175 176 177
f 178 179 180
f 181 182 183
f 184 185 186
f 187 188 189
f 190 191 192
f 193 194 195
f 196 197 198
f 199 200 201
f 202 203 204
f 205 206 207
f 208 209 210
f 211 212 213
f 214 215 216
f 217 218 219
f 220 221 222
f 223 224 225
f 226 227 228
f 229 230 231
f 232 233 234
f 235 236 237
f 238 239 240

o geometry_11
usemtl material_0
v -0.00320664 0.00794828 -0.05659997
v 0.04174617 0.00073988 -0.06841955
v 0.01162254 0.00199141 -0.03231664
v -0.00320664 0.00794828 -0.05659997
v 0.01162254 0.00199141 -0.03231664
v -0.00094168 0.01963870 -0.05511538
v -0.00094168 0.01963870 -0.05511538
v 0.01162254 0.00199141 -0.03231664
v 0.01388751 0.01368183 -0.03083205
v -0.00094168 0.01963870 -0.05511538
v 0.01388751 0.01368183 -0.03083205
v 0.04401113 0.01243030 -0.06693497
v 0.01162254 0.00199141 -0.03231664
v 0.04174617 0.00073988 -0.06841955
v 0.03795793 -0.00444350 -0.02182340
v 0.01162254 0.00199141 -0.03231664
v 0.03795793 -0.00444350 -0.02182340
v 0.01388751 0.01368183 -0.03083205
v 0.01388751 0.01368183 -0.03083205
v 0.03795793 -0.00444350 -0.02182340
v 0.04022289 0.00724692 -0.02033881
v 0.01388751 0.01368183 -0.03083205
v 0.04022289 0.00724692 -0.02033881
v 0.04401113 0.01243030 -0.06693497
v 0.03795793 -0.00444350 -0.02182340
v 0.04174617 0.00073988 -0.06841955
v 0.06574030 -0.00889853 -0.02912830
v 0.03795793 -0.00444350 -0.02182340
v 0.06574030 -0.00889853 -0.02912830
v 0.04022289 0.00724692 -0.02033881
v 0.04022289 0.00724692 -0.02033881
v 0.06574030 -0.00889853 -0.02912830
v 0.06800526 0.00279189 -0.02764371
v 0.04022289 0.00724692 -0.02033881
v 0.06800526 0.00279189 -0.02764371
v 0.04401113 0.01243030 -0.06693497
v 0.06574030 -0.00889853 -0.02912830
v 0.04174617 0.00073988 -0.06841955
v 0.08435773 -0.00967202 -0.05144113
v 0.06574030 -0.00889853 -0.02912830
v 0.08435773 -0.00967202 -0.05144113
v 0.06800526 0.00279189 -0.02764371
v 0.06800526 0.00279189 -0.02764371
v 0.08435773 -0.00967202 -0.05144113
v 0.08662269 0.00201840 -0.04995654
v 0.06800526 0.00279189 -0.02764371
v 0.08662269 0.00201840 -0.04995654
v 0.04401113 0.01243030 -0.06693497
v 0.08435773 -0.00967202 -0.05144113
v 0.04174617 0.00073988 -0.06841955
v 0.08669899 -0.00646852 -0.08023913
v 0.08435773 -0.00967202 -0.05144113
v 0.08669899 -0.00646852 -0.08023913
v 0.08662269 0.00201840 -0.04995654
v 0.08662269 0.00201840 -0.04995654
v 0.08669899 -0.00646852 -0.08023913
v 0.08896396 0.00522190 -0.07875454
v 0.08662269 0.00201840 -0.04995654
v 0.08896396 0.00522190 -0.07875454
v 0.04401113 0.01243030 -0.06693497
v 0.08669899 -0.00646852 -0.08023913
v 0.04174617 0.00073988 -0.06841955
v 0.07186981 -0.00051165 -0.10452246
v 0.08669899 -0.00646852 -0.08023913
v 0.07186981 -0.00051165 -0.10452246
v 0.08896396 0.00522190 -0.07875454
v 0.08896396 0.00522190 -0.07875454
v 0.07186981 -0.00051165 -0.10452246
v 0.07413477 0.01117877 -0.10303787
v 0.08896396 0.00522190 -0.07875454
v 0.07413477 0.01117877 -0.10303787
v 0.04401113 0.01243030 -0.06693497
v 0.07186981 -0.00051165 -0.10452246
v 0.04174617 0.00073988 -0.06841955
v 0.04553441 0.00592326 -0.11501570
v 0.07186981 -0.00051165 -0.10452246
v 0.04553441 0.00592326 -0.11501570
v 0.07413477 0.01117877 -0.10303787
v 0.07413477 0.01117877 -0.10303787
v 0.04553441 0.00592326 -0.11501570
v 0.04779937 0.01761368 -0.11353111
v 0.07413477 0.01117877 -0.10303787
v 0.04779937 0.01761368 -0.11353111
v 0.04401113 0.01243030 -0.06693497
v 0.04553441 0.00592326 -0.11501570
v 0.04174617 0.00073988 -0.06841955
v 0.01775204 0.01037829 -0.10771080
v 0.04553441 0.00592326 -0.11501570
v 0.01775204 0.01037829 -0.10771080
v 0.04779937 0.01761368 -0.11353111
v 0.04779937 0.01761368 -0.11353111
v 0.01775204 0.01037829 -0.10771080
v 0.02001701 0.02206872 -0.10622621
v 0.04779937 0.01761368 -0.11353111
v 0.02001701 0.02206872 -0.10622621
v 0.04401113 0.01243030 -0.06693497
v 0.01775204 0.01037829 -0.10771080
v 0.04174617 0.00073988 -0.06841955
v -0.00086538 0.01115178 -0.08539797
v 0.01775204 0.01037829 -0.10771080
v -0.00086538 0.01115178 -0.08539797
v 0.02001701 0.02206872 -0.10622621
v 0.02001701 0.02206872 -0.10622621
v -0.00086538 0.01115178 -0.08539797
v 0.00139958 0.02284221 -0.08391339
v 0.02001701 0.02206872 -0.10622621
v 0.00139958 0.02284221 -0.08391339
v 0.04401113 0.01243030 -0.06693497
v -0.00086538 0.01115178 -0.08539797
v 0.04174617 0.00073988 -0.06841955
v -0.00320664 0.00794828 -0.05659997
v -0.00086538 0.01115178 -0.08539797
v -0.00320664 0.00794828 -0.05659997
v 0.00139958 0.02284221 -0.08391339
v 0.00139958 0.02284221 -0.08391339
v -0.00320664 0.00794828 -0.05659997
v -0.00094168 0.01963870 -0.05511538
v 0.00139958 0.02284221 -0.08391339
v -0.00094168 0.01963870 -0.05511538
v 0.04401113 0.01243030 -0.06693497
f 241 242 243
f 244 245 246
f 247 248 249
f 250 251 252
f 253 254 255
f 256 257 258
f 259 260 261
f 262 263 264
f 265 266 267
f 268 269 270
f 271 272 273
f 274 275 276
f 277 278 279
f 280 281 282
f 283 284 285
f 286 287 288
f 289 290 291
f 292 293 294
f 295 296 297
f 298 299 300
f 301 302 303
f 304 305 306
f 307 308 309
f 310 311 312
f 313 314 315
f 316 317 318
f 319 320 321
f 322 323 324
f 325 326 327
f 328 329 330
f 331 332 333
f 334 335 336
f 337 338 339
f 340 341 342
f 343 344 345
f 346 347 348
f 349 350 351
f 352 353 354
f 355 356 357
f 358 359 360

o geometry_10
usemtl material_0
v -0.05310005 -0.00980774 -0.10591084
v -0.09225775 0.00008050 -0.11364697
v -0.05473744 -0.00267296 -0.13024804
v -0.05310005 -0.00980774 -0.10591084
v -0.05473744 -0.00267296 -0.13024804
v -0.05086095 0.00154519 -0.10273321
v -0.05086095 0.00154519 -0.10273321
v -0.05473744 -0.00267296 -0.13024804
v -0.05249834 0.00867998 -0.12707041
v -0.05086095 0.00154519 -0.10273321
v -0.05249834 0.00867998 -0.12707041
v -0.09001865 0.01143343 -0.11046934
v -0.05473744 -0.00267296 -0.13024804
v -0.09225775 0.00008050 -0.11364697
v -0.07070632 0.00551356 -0.14824419
v -0.05473744 -0.00267296 -0.13024804
v -0.07070632 0.00551356 -0.14824419
v -0.05249834 0.00867998 -0.12707041
v -0.05249834 0.00867998 -0.12707041
v -0.07070632 0.00551356 -0.14824419
v -0.06846721 0.01686649 -0.14506657
v -0.05249834 0.00867998 -0.12707041
v -0.06846721 0.01686649 -0.14506657
v -0.09001865 0.01143343 -0.11046934
v -0.07070632 0.00551356 -0.14824419
v -0.09225775 0.00008050 -0.11364697
v -0.09490710 0.01162482 -0.15302539
v -0.07070632 0.00551356 -0.14824419
v -0.09490710 0.01162482 -0.15302539
v -0.06846721 0.01686649 -0.14506657
v -0.06846721 0.01686649 -0.14506657
v -0.09490710 0.01162482 -0.15302539
v -0.09266800 0.02297776 -0.14984776
v -0.06846721 0.01686649 -0.14506657
v -0.09266800 0.02297776 -0.14984776
v -0.09001865 0.01143343 -0.11046934
v -0.09490710 0.01162482 -0.15302539
v -0.09225775 0.00008050 -0.11364697
v -0.11809593 0.01332655 -0.14276536
v -0.09490710 0.01162482 -0.15302539
v -0.11809593 0.01332655 -0.14276536
v -0.09266800 0.02297776 -0.14984776
v -0.09266800 0.02297776 -0.14984776
v -0.11809593 0.01332655 -0.14276536
v -0.11585683 0.02467949 -0.13958775
v -0.09266800 0.02297776 -0.14984776
v -0.11585683 0.02467949 -0.13958775
v -0.09001865 0.01143343 -0.11046934
v -0.11809593 0.01332655 -0.14276536
v -0.09225775 0.00008050 -0.11364697
v -0.13141546 0.00996874 -0.12138310
v -0.11809593 0.01332655 -0.14276536
v -0.13141546 0.00996874 -0.12138310
v -0.11585683 0.02467949 -0.13958775
v -0.11585683 0.02467949 -0.13958775
v -0.13141546 0.00996874 -0.12138310
v -0.12917635 0.02132167 -0.11820548
v -0.11585683 0.02467949 -0.13958775
v -0.12917635 0.02132167 -0.11820548
v -0.09001865 0.01143343 -0.11046934
v -0.13141546 0.00996874 -0.12138310
v -0.09225775 0.00008050 -0.11364697
v -0.12977806 0.00283395 -0.09704590
v -0.13141546 0.00996874 -0.12138310
v -0.12977806 0.00283395 -0.09704590
v -0.12917635 0.02132167 -0.11820548
v -0.12917635 0.02132167 -0.11820548
v -0.12977806 0.00283395 -0.09704590
v -0.12753896 0.01418688 -0.09386828
v -0.12917635 0.02132167 -0.11820548
v -0.12753896 0.01418688 -0.09386828
v -0.09001865 0.01143343 -0.11046934
v -0.12977806 0.00283395 -0.09704590
v -0.09225775 0.00008050 -0.11364697
v -0.11380919 -0.00535256 -0.07904974
v -0.12977806 0.00283395 -0.09704590
v -0.11380919 -0.00535256 -0.07904974
v -0.12753896 0.01418688 -0.09386828
v -0.12753896 0.01418688 -0.09386828
v -0.11380919 -0.00535256 -0.07904974
v -0.11157009 0.00600037 -0.07587212
v -0.12753896 0.01418688 -0.09386828
v -0.11157009 0.00600037 -0.07587212
v -0.09001865 0.01143343 -0.11046934
v -0.11380919 -0.00535256 -0.07904974
v -0.09225775 0.00008050 -0.11364697
v -0.08960839 -0.01146383 -0.07426855
v -0.11380919 -0.00535256 -0.07904974
v -0.08960839 -0.01146383 -0.07426855
v -0.11157009 0.00600037 -0.07587212
v -0.11157009 0.00600037 -0.07587212
v -0.08960839 -0.01146383 -0.07426855
v -0.08736930 -0.00011090 -0.07109092
v -0.11157009 0.00600037 -0.07587212
v -0.08736930 -0.00011090 -0.07109092
v -0.09001865 0.01143343 -0.11046934
v -0.08960839 -0.01146383 -0.07426855
v -0.09225775 0.00008050 -0.11364697
v -0.06641957 -0.01316556 -0.08452857
v -0.08960839 -0.01146383 -0.07426855
v -0.06641957 -0.01316556 -0.08452857
v -0.08736930 -0.00011090 -0.07109092
v -0.08736930 -0.00011090 -0.07109092
v -0.06641957 -0.01316556 -0.08452857
v -0.06418047 -0.00181262 -0.08135094
v -0.08736930 -0.00011090 -0.07109092
v -0.06418047 -0.00181262 -0.08135094
v -0.09001865 0.01143343 -0.11046934
v -0.06641957 -0.01316556 -0.08452857
v -0.09225775 0.00008050 -0.11364697
v -0.05310005 -0.00980774 -0.10591084
v -0.06641957 -0.01316556 -0.08452857
v -0.05310005 -0.00980774 -0.10591084
v -0.06418047 -0.00181262 -0.08135094
v -0.06418047 -0.00181262 -0.08135094
v -0.05310005 -0.00980774 -0.10591084
v -0.05086095 0.00154519 -0.10273321
v -0.06418047 -0.00181262 -0.08135094
v -0.05086095 0.00154519 -0.10273321
v -0.09001865 0.01143343 -0.11046934
f 361 362 363
f 364 365 366
f 367 368 369
f 370 371 372
f 373 374 375
f 376 377 378
f 379 380 381
f 382 383 384
f 385 386 387
f 388 389 390
f 391 392 393
f 394 395 396
f 397 398 399
f 400 401 402
f 403 404 405
f 406 407 408
f 409 410 411
f 412 413 414
f 415 416 417
f 418 419 420
f 421 422 423
f 424 425 426
f 427 428 429
f 430 431 432
f 433 434 435
f 436 437 438
f 439 440 441
f 442 443 444
f 445 446 447
f 448 449 450
f 451 452 453
f 454 455 456
f 457 458 459
f 460 461 462
f 463 464 465
f 466 467 468
f 469 470 471
f 472 473 474
f 475 476 477
f 478 479 480

o geometry_9
usemtl material_1
v 0.08884783 0.00325386 0.05651931
v 0.07767145 -0.00043314 0.01960161
v 0.10797007 0.00697512 0.04259147
v 0.08884783 0.00325386 0.05651931
v 0.10797007 0.00697512 0.04259147
v 0.08628154 0.01496964 0.05612617
v 0.08628154 0.01496964 0.05612617
v 0.10797007 0.00697512 0.04259147
v 0.10540377 0.01869090 0.04219832
v 0.08628154 0.01496964 0.05612617
v 0.10540377 0.01869090 0.04219832
v 0.07510515 0.01128264 0.01920846
v 0.10797007 0.00697512 0.04259147
v 0.07767145 -0.00043314 0.01960161
v 0.11551926 0.00786667 0.01988229
v 0.10797007 0.00697512 0.04259147
v 0.11551926 0.00786667 0.01988229
v 0.10540377 0.01869090 0.04219832
v 0.10540377 0.01869090 0.04219832
v 0.11551926 0.00786667 0.01988229
v 0.11295297 0.01958245 0.01948914
v 0.10540377 0.01869090 0.04219832
v 0.11295297 0.01958245 0.01948914
v 0.07510515 0.01128264 0.01920846
v 0.11551926 0.00786667 0.01988229
v 0.07767145 -0.00043314 0.01960161
v 0.10861187 0.00558798 -0.00293411
v 0.11551926 0.00786667 0.01988229
v 0.10861187 0.00558798 -0.00293411
v 0.11295297 0.01958245 0.01948914
v 0.11295297 0.01958245 0.01948914
v 0.10861187 0.00558798 -0.00293411
v 0.10604558 0.01730376 -0.00332726
v 0.11295297 0.01958245 0.01948914
v 0.10604558 0.01730376 -0.00332726
v 0.07510515 0.01128264 0.01920846
v 0.10861187 0.00558798 -0.00293411
v 0.07767145 -0.00043314 0.01960161
v 0.08988630 0.00100942 -0.01714263
v 0.10861187 0.00558798 -0.00293411
v 0.08988630 0.00100942 -0.01714263
v 0.10604558 0.01730376 -0.00332726
v 0.10604558 0.01730376 -0.00332726
v 0.08988630 0.00100942 -0.01714263
v 0.08732001 0.01272521 -0.01753578
v 0.10604558 0.01730376 -0.00332726
v 0.08732001 0.01272521 -0.01753578
v 0.07510515 0.01128264 0.01920846
v 0.08988630 0.00100942 -0.01714263
v 0.07767145 -0.00043314 0.01960161
v 0.06649506 -0.00412015 -0.01731610
v 0.08988630 0.00100942 -0.01714263
v 0.06649506 -0.00412015 -0.01731610
v 0.08732001 0.01272521 -0.01753578
v 0.08732001 0.01272521 -0.01753578
v 0.06649506 -0.00412015 -0.01731610
v 0.06392878 0.00759564 -0.01770925
v 0.08732001 0.01272521 -0.01753578
v 0.06392878 0.00759564 -0.01770925
v 0.07510515 0.01128264 0.01920846
v 0.06649506 -0.00412015 -0.01731610
v 0.07767145 -0.00043314 0.01960161
v 0.04737283 -0.00784140 -0.00338826
v 0.06649506 -0.00412015 -0.01731610
v 0.04737283 -0.00784140 -0.00338826
v 0.06392878 0.00759564 -0.01770925
v 0.06392878 0.00759564 -0.01770925
v 0.04737283 -0.00784140 -0.00338826
v 0.04480654 0.00387438 -0.00378141
v 0.06392878 0.00759564 -0.01770925
v 0.04480654 0.00387438 -0.00378141
v 0.07510515 0.01128264 0.01920846
v 0.04737283 -0.00784140 -0.00338826
v 0.07767145 -0.00043314 0.01960161
v 0.03982363 -0.00873296 0.01932093
v 0.04737283 -0.00784140 -0.00338826
v 0.03982363 -0.00873296 0.01932093
v 0.04480654 0.00387438 -0.00378141
v 0.04480654 0.00387438 -0.00378141
v 0.03982363 -0.00873296 0.01932093
v 0.03725734 0.00298282 0.01892778
v 0.04480654 0.00387438 -0.00378141
v 0.03725734 0.00298282 0.01892778
v 0.07510515 0.01128264 0.01920846
v 0.03982363 -0.00873296 0.01932093
v 0.07767145 -0.00043314 0.01960161
v 0.04673102 -0.00645427 0.04213733
v 0.03982363 -0.00873296 0.01932093
v 0.04673102 -0.00645427 0.04213733
v 0.03725734 0.00298282 0.01892778
v 0.03725734 0.00298282 0.01892778
v 0.04673102 -0.00645427 0.04213733
v 0.04416473 0.00526152 0.04174418
v 0.03725734 0.00298282 0.01892778
v 0.04416473 0.00526152 0.04174418
v 0.07510515 0.01128264 0.01920846
v 0.04673102 -0.00645427 0.04213733
v 0.07767145 -0.00043314 0.01960161
v 0.06545659 -0.00187571 0.05634585
v 0.04673102 -0.00645427 0.04213733
v 0.06545659 -0.00187571 0.05634585
v 0.04416473 0.00526152 0.04174418
v 0.04416473 0.00526152 0.04174418
v 0.06545659 -0.00187571 0.05634585
v 0.06289031 0.00984007 0.05595269
v 0.04416473 0.00526152 0.04174418
v 0.06289031 0.00984007 0.05595269
v 0.07510515 0.01128264 0.01920846
v 0.06545659 -0.00187571 0.05634585
v 0.07767145 -0.00043314 0.01960161
v 0.08884783 0.00325386 0.05651931
v 0.06545659 -0.00187571 0.05634585
v 0.08884783 0.00325386 0.05651931
v 0.06289031 0.00984007 0.05595269
v 0.06289031 0.00984007 0.05595269
v 0.08884783 0.00325386 0.05651931
v 0.08628154 0.01496964 0.05612617
v 0.06289031 0.00984007 0.05595269
v 0.08628154 0.01496964 0.05612617
v 0.07510515 0.01128264 0.01920846
f 481 482 483
f 484 485 486
f 487 488 489
f 490 491 492
f 493 494 495
f 496 497 498
f 499 500 501
f 502 503 504
f 505 506 507
f 508 509 510
f 511 512 513
f 514 515 516
f 517 518 519
f 520 521 522
f 523 524 525
f 526 527 528
f 529 530 531
f 532 533 534
f 535 536 537
f 538 539 540
f 541 542 543
f 544 545 546
f 547 548 549
f 550 551 552
f 553 554 555
f 556 557 558
f 559 560 561
f 562 563 564
f 565 566 567
f 568 569 570
f 571 572 573
f 574 575 576
f 577 578 579
f 580 581 582
f 583 584 585
f 586 587 588
f 589 590 591
f 592 593 594
f 595 596 597
f 598 599 600

o geometry_8
usemtl material_0
v -0.05168125 0.00094488 -0.11568254
v -0.09558238 0.00086525 -0.09390120
v -0.07286103 0.00200454 -0.13730840
v -0.05168125 0.00094488 -0.11568254
v -0.07286103 0.00200454 -0.13730840
v -0.05149969 0.01293651 -0.11527277
v -0.05149969 0.01293651 -0.11527277
v -0.07286103 0.00200454 -0.13730840
v -0.07267947 0.01399617 -0.13689862
v -0.05149969 0.01293651 -0.11527277
v -0.07267947 0.01399617 -0.13689862
v -0.09540083 0.01285687 -0.09349143
v -0.07286103 0.00200454 -0.13730840
v -0.09558238 0.00086525 -0.09390120
v -0.10271960 0.00262902 -0.14235419
v -0.07286103 0.00200454 -0.13730840
v -0.10271960 0.00262902 -0.14235419
v -0.07267947 0.01399617 -0.13689862
v -0.07267947 0.01399617 -0.13689862
v -0.10271960 0.00262902 -0.14235419
v -0.10253804 0.01462065 -0.14194441
v -0.07267947 0.01399617 -0.13689862
v -0.10253804 0.01462065 -0.14194441
v -0.09540083 0.01285687 -0.09349143
v -0.10271960 0.00262902 -0.14235419
v -0.09558238 0.00086525 -0.09390120
v -0.12985198 0.00257981 -0.12889257
v -0.10271960 0.00262902 -0.14235419
v -0.12985198 0.00257981 -0.12889257
v -0.10253804 0.01462065 -0.14194441
v -0.10253804 0.01462065 -0.14194441
v -0.12985198 0.00257981 -0.12889257
v -0.12967043 0.01457143 -0.12848280
v -0.10253804 0.01462065 -0.14194441
v -0.12967043 0.01457143 -0.12848280
v -0.09540083 0.01285687 -0.09349143
v -0.12985198 0.00257981 -0.12889257
v -0.09558238 0.00086525 -0.09390120
v -0.14389455 0.00187569 -0.10206545
v -0.12985198 0.00257981 -0.12889257
v -0.14389455 0.00187569 -0.10206545
v -0.12967043 0.01457143 -0.12848280
v -0.12967043 0.01457143 -0.12848280
v -0.14389455 0.00187569 -0.10206545
v -0.14371300 0.01386731 -0.10165568
v -0.12967043 0.01457143 -0.12848280
v -0.14371300 0.01386731 -0.10165568
v -0.09540083 0.01285687 -0.09349143
v -0.14389455 0.00187569 -0.10206545
v -0.09558238 0.00086525 -0.09390120
v -0.13948351 0.00078561 -0.07211987
v -0.14389455 0.00187569 -0.10206545
v -0.13948351 0.00078561 -0.07211987
v -0.14371300 0.01386731 -0.10165568
v -0.14371300 0.01386731 -0.10165568
v -0.13948351 0.00078561 -0.07211987
v -0.13930196 0.01277724 -0.07171009
v -0.14371300 0.01386731 -0.10165568
v -0.13930196 0.01277724 -0.07171009
v -0.09540083 0.01285687 -0.09349143
v -0.13948351 0.00078561 -0.07211987
v -0.09558238 0.00086525 -0.09390120
v -0.11830372 -0.00027405 -0.05049401
v -0.13948351 0.00078561 -0.07211987
v -0.11830372 -0.00027405 -0.05049401
v -0.13930196 0.01277724 -0.07171009
v -0.13930196 0.01277724 -0.07171009
v -0.11830372 -0.00027405 -0.05049401
v -0.11812217 0.01171758 -0.05008423
v -0.13930196 0.01277724 -0.07171009
v -0.11812217 0.01171758 -0.05008423
v -0.09540083 0.01285687 -0.09349143
v -0.11830372 -0.00027405 -0.05049401
v -0.09558238 0.00086525 -0.09390120
v -0.08844516 -0.00089853 -0.04544822
v -0.11830372 -0.00027405 -0.05049401
v -0.08844516 -0.00089853 -0.04544822
v -0.11812217 0.01171758 -0.05008423
v -0.11812217 0.01171758 -0.05008423
v -0.08844516 -0.00089853 -0.04544822
v -0.08826360 0.01109309 -0.04503845
v -0.11812217 0.01171758 -0.05008423
v -0.08826360 0.01109309 -0.04503845
v -0.09540083 0.01285687 -0.09349143
v -0.08844516 -0.00089853 -0.04544822
v -0.09558238 0.00086525 -0.09390120
v -0.06131277 -0.00084931 -0.05890983
v -0.08844516 -0.00089853 -0.04544822
v -0.06131277 -0.00084931 -0.05890983
v -0.08826360 0.01109309 -0.04503845
v -0.08826360 0.01109309 -0.04503845
v -0.06131277 -0.00084931 -0.05890983
v -0.06113121 0.01114231 -0.05850006
v -0.08826360 0.01109309 -0.04503845
v -0.06113121 0.01114231 -0.05850006
v -0.09540083 0.01285687 -0.09349143
v -0.06131277 -0.00084931 -0.05890983
v -0.09558238 0.00086525 -0.09390120
v -0.04727020 -0.00014519 -0.08573695
v -0.06131277 -0.00084931 -0.05890983
v -0.04727020 -0.00014519 -0.08573695
v -0.06113121 0.01114231 -0.05850006
v -0.06113121 0.01114231 -0.05850006
v -0.04727020 -0.00014519 -0.08573695
v -0.04708865 0.01184643 -0.08532718
v -0.06113121 0.01114231 -0.05850006
v -0.04708865 0.01184643 -0.08532718
v -0.09540083 0.01285687 -0.09349143
v -0.04727020 -0.00014519 -0.08573695
v -0.09558238 0.00086525 -0.09390120
v -0.05168125 0.00094488 -0.11568254
v -0.04727020 -0.00014519 -0.08573695
v -0.05168125 0.00094488 -0.11568254
v -0.04708865 0.01184643 -0.08532718
v -0.04708865 0.01184643 -0.08532718
v -0.05168125 0.00094488 -0.11568254
v -0.05149969 0.01293651 -0.11527277
v -0.04708865 0.01184643 -0.08532718
v -0.05149969 0.01293651 -0.11527277
v -0.09540083 0.01285687 -0.09349143
f 601 602 603
f 604 605 606
f 607 608 609
f 610 611 612
f 613 614 615
f 616 617 618
f 619 620 621
f 622 623 624
f 625 626 627
f 628 629 630
f 631 632 633
f 634 635 636
f 637 638 639
f 640 641 642
f 643 644 645
f 646 647 648
f 649 650 651
f 652 653 654
f 655 656 657
f 658 659 660
f 661 662 663
f 664 665 666
f 667 668 669
f 670 671 672
f 673 674 675
f 676 677 678
f 679 680 681
f 682 683 684
f 685 686 687
f 688 689 690
f 691 692 693
f 694 695 696
f 697 698 699
f 700 701 702
f 703 704 705
f 706 707 708
f 709 710 711
f 712 713 714
f 715 716 717
f 718 719 720

o geometry_7
usemtl material_0
v 0.07899243 0.00205885 0.16937114
v 0.08191255 -0.00046364 0.13017021
v 0.10260921 0.00287033 0.16351891
v 0.07899243 0.00205885 0.16937114
v 0.10260921 0.00287033 0.16351891
v 0.07837963 0.01401545 0.16855611
v 0.07837963 0.01401545 0.16855611
v 0.10260921 0.00287033 0.16351891
v 0.10199641 0.01482693 0.16270389
v 0.07837963 0.01401545 0.16855611
v 0.10199641 0.01482693 0.16270389
v 0.08129975 0.01149295 0.12935519
v 0.10260921 0.00287033 0.16351891
v 0.08191255 -0.00046364 0.13017021
v 0.11832057 0.00240835 0.14492862
v 0.10260921 0.00287033 0.16351891
v 0.11832057 0.00240835 0.14492862
v 0.10199641 0.01482693 0.16270389
v 0.10199641 0.01482693 0.16270389
v 0.11832057 0.00240835 0.14492862
v 0.11770777 0.01436495 0.14411359
v 0.10199641 0.01482693 0.16270389
v 0.11770777 0.01436495 0.14411359
v 0.08129975 0.01149295 0.12935519
v 0.11832057 0.00240835 0.14492862
v 0.08191255 -0.00046364 0.13017021
v 0.12012530 0.00084937 0.12070111
v 0.11832057 0.00240835 0.14492862
v 0.12012530 0.00084937 0.12070111
v 0.11770777 0.01436495 0.14411359
v 0.11770777 0.01436495 0.14411359
v 0.12012530 0.00084937 0.12070111
v 0.11951251 0.01280596 0.11988608
v 0.11770777 0.01436495 0.14411359
v 0.11951251 0.01280596 0.11988608
v 0.08129975 0.01149295 0.12935519
v 0.12012530 0.00084937 0.12070111
v 0.08191255 -0.00046364 0.13017021
v 0.10733406 -0.00121115 0.10009048
v 0.12012530 0.00084937 0.12070111
v 0.10733406 -0.00121115 0.10009048
v 0.11951251 0.01280596 0.11988608
v 0.11951251 0.01280596 0.11988608
v 0.10733406 -0.00121115 0.10009048
v 0.10672127 0.01074545 0.09927545
v 0.11951251 0.01280596 0.11988608
v 0.10672127 0.01074545 0.09927545
v 0.08129975 0.01149295 0.12935519
v 0.10733406 -0.00121115 0.10009048
v 0.08191255 -0.00046364 0.13017021
v 0.08483267 -0.00298614 0.09096929
v 0.10733406 -0.00121115 0.10009048
v 0.08483267 -0.00298614 0.09096929
v 0.10672127 0.01074545 0.09927545
v 0.10672127 0.01074545 0.09927545
v 0.08483267 -0.00298614 0.09096929
v 0.08421987 0.00897046 0.09015426
v 0.10672127 0.01074545 0.09927545
v 0.08421987 0.00897046 0.09015426
v 0.08129975 0.01149295 0.12935519
v 0.08483267 -0.00298614 0.09096929
v 0.08191255 -0.00046364 0.13017021
v 0.06121589 -0.00379762 0.09682152
v 0.08483267 -0.00298614 0.09096929
v 0.06121589 -0.00379762 0.09682152
v 0.08421987 0.00897046 0.09015426
v 0.08421987 0.00897046 0.09015426
v 0.06121589 -0.00379762 0.09682152
v 0.06060309 0.00815897 0.09600649
v 0.08421987 0.00897046 0.09015426
v 0.06060309 0.00815897 0.09600649
v 0.08129975 0.01149295 0.12935519
v 0.06121589 -0.00379762 0.09682152
v 0.08191255 -0.00046364 0.13017021
v 0.04550453 -0.00333564 0.11541182
v 0.06121589 -0.00379762 0.09682152
v 0.04550453 -0.00333564 0.11541182
v 0.06060309 0.00815897 0.09600649
v 0.06060309 0.00815897 0.09600649
v 0.04550453 -0.00333564 0.11541182
v 0.04489173 0.00862096 0.11459679
v 0.06060309 0.00815897 0.09600649
v 0.04489173 0.00862096 0.11459679
v 0.08129975 0.01149295 0.12935519
v 0.04550453 -0.00333564 0.11541182
v 0.08191255 -0.00046364 0.13017021
v 0.04369979 -0.00177666 0.13963932
v 0.04550453 -0.00333564 0.11541182
v 0.04369979 -0.00177666 0.13963932
v 0.04489173 0.00862096 0.11459679
v 0.04489173 0.00862096 0.11459679
v 0.04369979 -0.00177666 0.13963932
v 0.04308699 0.01017994 0.13882430
v 0.04489173 0.00862096 0.11459679
v 0.04308699 0.01017994 0.13882430
v 0.08129975 0.01149295 0.12935519
v 0.04369979 -0.00177666 0.13963932
v 0.08191255 -0.00046364 0.13017021
v 0.05649103 0.00028386 0.16024995
v 0.04369979 -0.00177666 0.13963932
v 0.05649103 0.00028386 0.16024995
v 0.04308699 0.01017994 0.13882430
v 0.04308699 0.01017994 0.13882430
v 0.05649103 0.00028386 0.16024995
v 0.05587823 0.01224045 0.15943491
v 0.04308699 0.01017994 0.13882430
v 0.05587823 0.01224045 0.15943491
v 0.08129975 0.01149295 0.12935519
v 0.05649103 0.00028386 0.16024995
v 0.08191255 -0.00046364 0.13017021
v 0.07899243 0.00205885 0.16937114
v 0.05649103 0.00028386 0.16024995
v 0.07899243 0.00205885 0.16937114
v 0.05587823 0.01224045 0.15943491
v 0.05587823 0.01224045 0.15943491
v 0.07899243 0.00205885 0.16937114
v 0.07837963 0.01401545 0.16855611
v 0.05587823 0.01224045 0.15943491
v 0.07837963 0.01401545 0.16855611
v 0.08129975 0.01149295 0.12935519
f 721 722 723
f 724 725 726
f 727 728 729
f 730 731 732
f 733 734 735
f 736 737 738
f 739 740 741
f 742 743 744
f 745 746 747
f 748 749 750
f 751 752 753
f 754 755 756
f 757 758 759
f 760 761 762
f 763 764 765
f 766 767 768
f 769 770 771
f 772 773 774
f 775 776 777
f 778 779 780
f 781 782 783
f 784 785 786
f 787 788 789
f 790 791 792
f 793 794 795
f 796 797 798
f 799 800 801
f 802 803 804
f 805 806 807
f 808 809 810
f 811 812 813
f 814 815 816
f 817 818 819
f 820 821 822
f 823 824 825
f 826 827 828
f 829 830 831
f 832 833 834
f 835 836 837
f 838 839 840

o geometry_6
usemtl material_1
v 0.15456663 0.00540111 -0.01843784
v 0.11498933 -0.00003015 -0.02900683
v 0.15248729 0.00942008 -0.04357260
v 0.15456663 0.00540111 -0.01843784
v 0.15248729 0.00942008 -0.04357260
v 0.15242665 0.01703177 -0.01640110
v 0.15242665 0.01703177 -0.01640110
v 0.15248729 0.00942008 -0.04357260
v 0.15034729 0.02105073 -0.04153586
v 0.15242665 0.01703177 -0.01640110
v 0.15034729 0.02105073 -0.04153586
v 0.11284933 0.01160050 -0.02697009
v 0.15248729 0.00942008 -0.04357260
v 0.11498933 -0.00003015 -0.02900683
v 0.13608500 0.00982937 -0.06314373
v 0.15248729 0.00942008 -0.04357260
v 0.13608500 0.00982937 -0.06314373
v 0.15034729 0.02105073 -0.04153586
v 0.15034729 0.02105073 -0.04153586
v 0.13608500 0.00982937 -0.06314373
v 0.13394500 0.02146003 -0.06110699
v 0.15034729 0.02105073 -0.04153586
v 0.13394500 0.02146003 -0.06110699
v 0.11284933 0.01160050 -0.02697009
v 0.13608500 0.00982937 -0.06314373
v 0.11498933 -0.00003015 -0.02900683
v 0.11162488 0.00647267 -0.06967573
v 0.13608500 0.00982937 -0.06314373
v 0.11162488 0.00647267 -0.06967573
v 0.13394500 0.02146003 -0.06110699
v 0.13394500 0.02146003 -0.06110699
v 0.11162488 0.00647267 -0.06967573
v 0.10948488 0.01810332 -0.06763899
v 0.13394500 0.02146003 -0.06110699
v 0.10948488 0.01810332 -0.06763899
v 0.11284933 0.01160050 -0.02697009
v 0.11162488 0.00647267 -0.06967573
v 0.11498933 -0.00003015 -0.02900683
v 0.08844987 0.00063211 -0.06067359
v 0.11162488 0.00647267 -0.06967573
v 0.08844987 0.00063211 -0.06067359
v 0.10948488 0.01810332 -0.06763899
v 0.10948488 0.01810332 -0.06763899
v 0.08844987 0.00063211 -0.06067359
v 0.08630987 0.01226276 -0.05863684
v 0.10948488 0.01810332 -0.06763899
v 0.08630987 0.01226276 -0.05863684
v 0.11284933 0.01160050 -0.02697009
v 0.08844987 0.00063211 -0.06067359
v 0.11498933 -0.00003015 -0.02900683
v 0.07541203 -0.00546141 -0.03957582
v 0.08844987 0.00063211 -0.06067359
v 0.07541203 -0.00546141 -0.03957582
v 0.08630987 0.01226276 -0.05863684
v 0.08630987 0.01226276 -0.05863684
v 0.07541203 -0.00546141 -0.03957582
v 0.07327203 0.00616924 -0.03753908
v 0.08630987 0.01226276 -0.05863684
v 0.07327203 0.00616924 -0.03753908
v 0.11284933 0.01160050 -0.02697009
v 0.07541203 -0.00546141 -0.03957582
v 0.11498933 -0.00003015 -0.02900683
v 0.07749138 -0.00948037 -0.01444106
v 0.07541203 -0.00546141 -0.03957582
v 0.07749138 -0.00948037 -0.01444106
v 0.07327203 0.00616924 -0.03753908
v 0.07327203 0.00616924 -0.03753908
v 0.07749138 -0.00948037 -0.01444106
v 0.07535138 0.00215028 -0.01240432
v 0.07327203 0.00616924 -0.03753908
v 0.07535138 0.00215028 -0.01240432
v 0.11284933 0.01160050 -0.02697009
v 0.07749138 -0.00948037 -0.01444106
v 0.11498933 -0.00003015 -0.02900683
v 0.09389367 -0.00988967 0.00513007
v 0.07749138 -0.00948037 -0.01444106
v 0.09389367 -0.00988967 0.00513007
v 0.07535138 0.00215028 -0.01240432
v 0.07535138 0.00215028 -0.01240432
v 0.09389367 -0.00988967 0.00513007
v 0.09175367 0.00174098 0.00716681
v 0.07535138 0.00215028 -0.01240432
v 0.09175367 0.00174098 0.00716681
v 0.11284933 0.01160050 -0.02697009
v 0.09389367 -0.00988967 0.00513007
v 0.11498933 -0.00003015 -0.02900683
v 0.11835379 -0.00653297 0.01166206
v 0.09389367 -0.00988967 0.00513007
v 0.11835379 -0.00653297 0.01166206
v 0.09175367 0.00174098 0.00716681
v 0.09175367 0.00174098 0.00716681
v 0.11835379 -0.00653297 0.01166206
v 0.11621379 0.00509769 0.01369880
v 0.09175367 0.00174098 0.00716681
v 0.11621379 0.00509769 0.01369880
v 0.11284933 0.01160050 -0.02697009
v 0.11835379 -0.00653297 0.01166206
v 0.11498933 -0.00003015 -0.02900683
v 0.14152880 -0.00069241 0.00265992
v 0.11835379 -0.00653297 0.01166206
v 0.14152880 -0.00069241 0.00265992
v 0.11621379 0.00509769 0.01369880
v 0.11621379 0.00509769 0.01369880
v 0.14152880 -0.00069241 0.00265992
v 0.13938880 0.01093825 0.00469666
v 0.11621379 0.00509769 0.01369880
v 0.13938880 0.01093825 0.00469666
v 0.11284933 0.01160050 -0.02697009
v 0.14152880 -0.00069241 0.00265992
v 0.11498933 -0.00003015 -0.02900683
v 0.15456663 0.00540111 -0.01843784
v 0.14152880 -0.00069241 0.00265992
v 0.15456663 0.00540111 -0.01843784
v 0.13938880 0.01093825 0.00469666
v 0.13938880 0.01093825 0.00469666
v 0.15456663 0.00540111 -0.01843784
v 0.15242665 0.01703177 -0.01640110
v 0.13938880 0.01093825 0.00469666
v 0.15242665 0.01703177 -0.01640110
v 0.11284933 0.01160050 -0.02697009
f 841 842 843
f 844 845 846
f 847 848 849
f 850 851 852
f 853 854 855
f 856 857 858
f 859 860 861
f 862 863 864
f 865 866 867
f 868 869 870
f 871 872 873
f 874 875 876
f 877 878 879
f 880 881 882
f 883 884 885
f 886 887 888
f 889 890 891
f 892 893 894
f 895 896 897
f 898 899 900
f 901 902 903
f 904 905 906
f 907 908 909
f 910 911 912
f 913 914 915
f 916 917 918
f 919 920 921
f 922 923 924
f 925 926 927
f 928 929 930
f 931 932 933
f 934 935 936
f 937 938 939
f 940 941 942
f 943 944 945
f 946 947 948
f 949 950 951
f 952 953 954
f 955 956 957
f 958 959 960

o geometry_5
usemtl material_0
v 0.04965259 0.01341835 -0.03900626
v 0.00143723 0.00132294 -0.04143904
v 0.04360409 0.00419417 -0.06771926
v 0.04965259 0.01341835 -0.03900626
v 0.04360409 0.00419417 -0.06771926
v 0.04697504 0.02470774 -0.04206899
v 0.04697504 0.02470774 -0.04206899
v 0.04360409 0.00419417 -0.06771926
v 0.04092655 0.01548356 -0.07078199
v 0.04697504 0.02470774 -0.04206899
v 0.04092655 0.01548356 -0.07078199
v -0.00124031 0.01261234 -0.04450177
v 0.04360409 0.00419417 -0.06771926
v 0.00143723 0.00132294 -0.04143904
v 0.02144929 -0.00612672 -0.08639411
v 0.04360409 0.00419417 -0.06771926
v 0.02144929 -0.00612672 -0.08639411
v 0.04092655 0.01548356 -0.07078199
v 0.04092655 0.01548356 -0.07078199
v 0.02144929 -0.00612672 -0.08639411
v 0.01877174 0.00516267 -0.08945684
v 0.04092655 0.01548356 -0.07078199
v 0.01877174 0.00516267 -0.08945684
v -0.00124031 0.01261234 -0.04450177
v 0.02144929 -0.00612672 -0.08639411
v 0.00143723 0.00132294 -0.04143904
v -0.00834944 -0.01360209 -0.08789765
v 0.02144929 -0.00612672 -0.08639411
v -0.00834944 -0.01360209 -0.08789765
v 0.01877174 0.00516267 -0.08945684
v 0.01877174 0.00516267 -0.08945684
v -0.00834944 -0.01360209 -0.08789765
v -0.01102699 -0.00231270 -0.09096038
v 0.01877174 0.00516267 -0.08945684
v -0.01102699 -0.00231270 -0.09096038
v -0.00124031 0.01261234 -0.04450177
v -0.00834944 -0.01360209 -0.08789765
v 0.00143723 0.00132294 -0.04143904
v -0.03440999 -0.01537661 -0.07165558
v -0.00834944 -0.01360209 -0.08789765
v -0.03440999 -0.01537661 -0.07165558
v -0.01102699 -0.00231270 -0.09096038
v -0.01102699 -0.00231270 -0.09096038
v -0.03440999 -0.01537661 -0.07165558
v -0.03708754 -0.00408722 -0.07471832
v -0.01102699 -0.00231270 -0.09096038
v -0.03708754 -0.00408722 -0.07471832
v -0.00124031 0.01261234 -0.04450177
v -0.03440999 -0.01537661 -0.07165558
v 0.00143723 0.00132294 -0.04143904
v -0.04677813 -0.01077247 -0.04387182
v -0.03440999 -0.01537661 -0.07165558
v -0.04677813 -0.01077247 -0.04387182
v -0.03708754 -0.00408722 -0.07471832
v -0.03708754 -0.00408722 -0.07471832
v -0.04677813 -0.01077247 -0.04387182
v -0.04945567 0.00051693 -0.04693456
v -0.03708754 -0.00408722 -0.07471832
v -0.04945567 0.00051693 -0.04693456
v -0.00124031 0.01261234 -0.04450177
v -0.04677813 -0.01077247 -0.04387182
v 0.00143723 0.00132294 -0.04143904
v -0.04072963 -0.00154829 -0.01515882
v -0.04677813 -0.01077247 -0.04387182
v -0.04072963 -0.00154829 -0.01515882
v -0.04945567 0.00051693 -0.04693456
v -0.04945567 0.00051693 -0.04693456
v -0.04072963 -0.00154829 -0.01515882
v -0.04340718 0.00974111 -0.01822156
v -0.04945567 0.00051693 -0.04693456
v -0.04340718 0.00974111 -0.01822156
v -0.00124031 0.01261234 -0.04450177
v -0.04072963 -0.00154829 -0.01515882
v 0.00143723 0.00132294 -0.04143904
v -0.01857483 0.00877260 0.00351603
v -0.04072963 -0.00154829 -0.01515882
v -0.01857483 0.00877260 0.00351603
v -0.04340718 0.00974111 -0.01822156
v -0.04340718 0.00974111 -0.01822156
v -0.01857483 0.00877260 0.00351603
v -0.02125237 0.02006200 0.00045329
v -0.04340718 0.00974111 -0.01822156
v -0.02125237 0.02006200 0.00045329
v -0.00124031 0.01261234 -0.04450177
v -0.01857483 0.00877260 0.00351603
v 0.00143723 0.00132294 -0.04143904
v 0.01122390 0.01624798 0.00501957
v -0.01857483 0.00877260 0.00351603
v 0.01122390 0.01624798 0.00501957
v -0.02125237 0.02006200 0.00045329
v -0.02125237 0.02006200 0.00045329
v 0.01122390 0.01624798 0.00501957
v 0.00854636 0.02753737 0.00195684
v -0.02125237 0.02006200 0.00045329
v 0.00854636 0.02753737 0.00195684
v -0.00124031 0.01261234 -0.04450177
v 0.01122390 0.01624798 0.00501957
v 0.00143723 0.00132294 -0.04143904
v 0.03728446 0.01802249 -0.01122250
v 0.01122390 0.01624798 0.00501957
v 0.03728446 0.01802249 -0.01122250
v 0.00854636 0.02753737 0.00195684
v 0.00854636 0.02753737 0.00195684
v 0.03728446 0.01802249 -0.01122250
v 0.03460691 0.02931189 -0.01428523
v 0.00854636 0.02753737 0.00195684
v 0.03460691 0.02931189 -0.01428523
v -0.00124031 0.01261234 -0.04450177
v 0.03728446 0.01802249 -0.01122250
v 0.00143723 0.00132294 -0.04143904
v 0.04965259 0.01341835 -0.03900626
v 0.03728446 0.01802249 -0.01122250
v 0.04965259 0.01341835 -0.03900626
v 0.03460691 0.02931189 -0.01428523
v 0.03460691 0.02931189 -0.01428523
v 0.04965259 0.01341835 -0.03900626
v 0.04697504 0.02470774 -0.04206899
v 0.03460691 0.02931189 -0.01428523
v 0.04697504 0.02470774 -0.04206899
v -0.00124031 0.01261234 -0.04450177
f 961 962 963
f 964 965 966
f 967 968 969
f 970 971 972
f 973 974 975
f 976 977 978
f 979 980 981
f 982 983 984
f 985 986 987
f 988 989 990
f 991 992 993
f 994 995 996
f 997 998 999
f 1000 1001 1002
f 1003 1004 1005
f 1006 1007 1008
f 1009 1010 1011
f 1012 1013 1014
f 1015 1016 1017
f 1018 1019 1020
f 1021 1022 1023
f 1024 1025 1026
f 1027 1028 1029
f 1030 1031 1032
f 1033 1034 1035
f 1036 1037 1038
f 1039 1040 1041
f 1042 1043 1044
f 1045 1046 1047
f 1048 1049 1050
f 1051 1052 1053
f 1054 1055 1056
f 1057 1058 1059
f 1060 1061 1062
f 1063 1064 1065
f 1066 1067 1068
f 1069 1070 1071
f 1072 1073 1074
f 1075 1076 1077
f 1078 1079 1080

o geometry_4
usemtl material_0
v -0.00700720 0.00193756 0.00570536
v 0.02691983 -0.00015636 0.02889394
v -0.01416453 -0.00227655 0.02974148
v -0.00700720 0.00193756 0.00570536
v -0.01416453 -0.00227655 0.02974148
v -0.00757862 0.01377165 0.00761001
v -0.00757862 0.01377165 0.00761001
v -0.01416453 -0.00227655 0.02974148
v -0.01473594 0.00955754 0.03164613
v -0.00757862 0.01377165 0.00761001
v -0.01473594 0.00955754 0.03164613
v 0.02634842 0.01167773 0.03079859
v -0.01416453 -0.00227655 0.02974148
v 0.02691983 -0.00015636 0.02889394
v -0.00562903 -0.00568082 0.05345387
v -0.01416453 -0.00227655 0.02974148
v -0.00562903 -0.00568082 0.05345387
v -0.01473594 0.00955754 0.03164613
v -0.01473594 0.00955754 0.03164613
v -0.00562903 -0.00568082 0.05345387
v -0.00620044 0.00615327 0.05535853
v -0.01473594 0.00955754 0.03164613
v -0.00620044 0.00615327 0.05535853
v 0.02634842 0.01167773 0.03079859
v -0.00562903 -0.00568082 0.05345387
v 0.02691983 -0.00015636 0.02889394
v 0.01533903 -0.00697494 0.06778520
v -0.00562903 -0.00568082 0.05345387
v 0.01533903 -0.00697494 0.06778520
v -0.00620044 0.00615327 0.05535853
v -0.00620044 0.00615327 0.05535853
v 0.01533903 -0.00697494 0.06778520
v 0.01476761 0.00485916 0.06968985
v -0.00620044 0.00615327 0.05535853
v 0.01476761 0.00485916 0.06968985
v 0.02634842 0.01167773 0.03079859
v 0.01533903 -0.00697494 0.06778520
v 0.02691983 -0.00015636 0.02889394
v 0.04073056 -0.00566458 0.06726140
v 0.01533903 -0.00697494 0.06778520
v 0.04073056 -0.00566458 0.06726140
v 0.01476761 0.00485916 0.06968985
v 0.01476761 0.00485916 0.06968985
v 0.04073056 -0.00566458 0.06726140
v 0.04015914 0.00616951 0.06916604
v 0.01476761 0.00485916 0.06968985
v 0.04015914 0.00616951 0.06916604
v 0.02634842 0.01167773 0.03079859
v 0.04073056 -0.00566458 0.06726140
v 0.02691983 -0.00015636 0.02889394
v 0.06084686 -0.00225028 0.05208252
v 0.04073056 -0.00566458 0.06726140
v 0.06084686 -0.00225028 0.05208252
v 0.04015914 0.00616951 0.06916604
v 0.04015914 0.00616951 0.06916604
v 0.06084686 -0.00225028 0.05208252
v 0.06027545 0.00958382 0.05398717
v 0.04015914 0.00616951 0.06916604
v 0.06027545 0.00958382 0.05398717
v 0.02634842 0.01167773 0.03079859
v 0.06084686 -0.00225028 0.05208252
v 0.02691983 -0.00015636 0.02889394
v 0.06800419 0.00196383 0.02804640
v 0.06084686 -0.00225028 0.05208252
v 0.06800419 0.00196383 0.02804640
v 0.06027545 0.00958382 0.05398717
v 0.06027545 0.00958382 0.05398717
v 0.06800419 0.00196383 0.02804640
v 0.06743278 0.01379793 0.02995105
v 0.06027545 0.00958382 0.05398717
v 0.06743278 0.01379793 0.02995105
v 0.02634842 0.01167773 0.03079859
v 0.06800419 0.00196383 0.02804640
v 0.02691983 -0.00015636 0.02889394
v 0.05946869 0.00536810 0.00433401
v 0.06800419 0.00196383 0.02804640
v 0.05946869 0.00536810 0.00433401
v 0.06743278 0.01379793 0.02995105
v 0.06743278 0.01379793 0.02995105
v 0.05946869 0.00536810 0.00433401
v 0.05889728 0.01720220 0.00623866
v 0.06743278 0.01379793 0.02995105
v 0.05889728 0.01720220 0.00623866
v 0.02634842 0.01167773 0.03079859
v 0.05946869 0.00536810 0.00433401
v 0.02691983 -0.00015636 0.02889394
v 0.03850063 0.00666221 -0.00999732
v 0.05946869 0.00536810 0.00433401
v 0.03850063 0.00666221 -0.00999732
v 0.05889728 0.01720220 0.00623866
v 0.05889728 0.01720220 0.00623866
v 0.03850063 0.00666221 -0.00999732
v 0.03792921 0.01849631 -0.00809267
v 0.05889728 0.01720220 0.00623866
v 0.03792921 0.01849631 -0.00809267
v 0.02634842 0.01167773 0.03079859
v 0.03850063 0.00666221 -0.00999732
v 0.02691983 -0.00015636 0.02889394
v 0.01310910 0.00535186 -0.00947351
v 0.03850063 0.00666221 -0.00999732
v 0.01310910 0.00535186 -0.00947351
v 0.03792921 0.01849631 -0.00809267
v 0.03792921 0.01849631 -0.00809267
v 0.01310910 0.00535186 -0.00947351
v 0.01253769 0.01718596 -0.00756886
v 0.03792921 0.01849631 -0.00809267
v 0.01253769 0.01718596 -0.00756886
v 0.02634842 0.01167773 0.03079859
v 0.01310910 0.00535186 -0.00947351
v 0.02691983 -0.00015636 0.02889394
v -0.00700720 0.00193756 0.00570536
v 0.01310910 0.00535186 -0.00947351
v -0.00700720 0.00193756 0.00570536
v 0.01253769 0.01718596 -0.00756886
v 0.01253769 0.01718596 -0.00756886
v -0.00700720 0.00193756 0.00570536
v -0.00757862 0.01377165 0.00761001
v 0.01253769 0.01718596 -0.00756886
v -0.00757862 0.01377165 0.00761001
v 0.02634842 0.01167773 0.03079859
f 1081 1082 1083
f 1084 1085 1086
f 1087 1088 1089
f 1090 1091 1092
f 1093 1094 1095
f 1096 1097 1098
f 1099 1100 1101
f 1102 1103 1104
f 1105 1106 1107
f 1108 1109 1110
f 1111 1112 1113
f 1114 1115 1116
f 1117 1118 1119
f 1120 1121 1122
f 1123 1124 1125
f 1126 1127 1128
f 1129 1130 1131
f 1132 1133 1134
f 1135 1136 1137
f 1138 1139 1140
f 1141 1142 1143
f 1144 1145 1146
f 1147 1148 1149
f 1150 1151 1152
f 1153 1154 1155
f 1156 1157 1158
f 1159 1160 1161
f 1162 1163 1164
f 1165 1166 1167
f 1168 1169 1170
f 1171 1172 1173
f 1174 1175 1176
f 1177 1178 1179
f 1180 1181 1182
f 1183 1184 1185
f 1186 1187 1188
f 1189 1190 1191
f 1192 1193 1194
f 1195 1196 1197
f 1198 1199 1200

o geometry_3
usemtl material_1
v -0.08394587 0.01144006 0.10486293
v -0.04772785 0.00037988 0.08357602
v -0.06535152 0.00475655 0.12304064
v -0.08394587 0.01144006 0.10486293
v -0.06535152 0.00475655 0.12304064
v -0.08023186 0.02284406 0.10525677
v -0.08023186 0.02284406 0.10525677
v -0.06535152 0.00475655 0.12304064
v -0.06163751 0.01616054 0.12343448
v -0.08023186 0.02284406 0.10525677
v -0.06163751 0.01616054 0.12343448
v -0.04401384 0.01178387 0.08396987
v -0.06535152 0.00475655 0.12304064
v -0.04772785 0.00037988 0.08357602
v -0.04002553 -0.00359870 0.12614422
v -0.06535152 0.00475655 0.12304064
v -0.04002553 -0.00359870 0.12614422
v -0.06163751 0.01616054 0.12343448
v -0.06163751 0.01616054 0.12343448
v -0.04002553 -0.00359870 0.12614422
v -0.03631152 0.00780529 0.12653805
v -0.06163751 0.01616054 0.12343448
v -0.03631152 0.00780529 0.12653805
v -0.04401384 0.01178387 0.08396987
v -0.04002553 -0.00359870 0.12614422
v -0.04772785 0.00037988 0.08357602
v -0.01764156 -0.01043427 0.11298817
v -0.04002553 -0.00359870 0.12614422
v -0.01764156 -0.01043427 0.11298817
v -0.03631152 0.00780529 0.12653805
v -0.03631152 0.00780529 0.12653805
v -0.01764156 -0.01043427 0.11298817
v -0.01392755 0.00096972 0.11338202
v -0.03631152 0.00780529 0.12653805
v -0.01392755 0.00096972 0.11338202
v -0.04401384 0.01178387 0.08396987
v -0.01764156 -0.01043427 0.11298817
v -0.04772785 0.00037988 0.08357602
v -0.00674953 -0.01313920 0.08859770
v -0.01764156 -0.01043427 0.11298817
v -0.00674953 -0.01313920 0.08859770
v -0.01392755 0.00096972 0.11338202
v -0.01392755 0.00096972 0.11338202
v -0.00674953 -0.01313920 0.08859770
v -0.00303552 -0.00173521 0.08899155
v -0.01392755 0.00096972 0.11338202
v -0.00303552 -0.00173521 0.08899155
v -0.04401384 0.01178387 0.08396987
v -0.00674953 -0.01313920 0.08859770
v -0.04772785 0.00037988 0.08357602
v -0.01150983 -0.01068030 0.06228912
v -0.00674953 -0.01313920 0.08859770
v -0.01150983 -0.01068030 0.06228912
v -0.00303552 -0.00173521 0.08899155
v -0.00303552 -0.00173521 0.08899155
v -0.01150983 -0.01068030 0.06228912
v -0.00779582 0.00072369 0.06268296
v -0.00303552 -0.00173521 0.08899155
v -0.00779582 0.00072369 0.06268296
v -0.04401384 0.01178387 0.08396987
v -0.01150983 -0.01068030 0.06228912
v -0.04772785 0.00037988 0.08357602
v -0.03010417 -0.00399679 0.04411140
v -0.01150983 -0.01068030 0.06228912
v -0.03010417 -0.00399679 0.04411140
v -0.00779582 0.00072369 0.06268296
v -0.00779582 0.00072369 0.06268296
v -0.03010417 -0.00399679 0.04411140
v -0.02639017 0.00740720 0.04450525
v -0.00779582 0.00072369 0.06268296
v -0.02639017 0.00740720 0.04450525
v -0.04401384 0.01178387 0.08396987
v -0.03010417 -0.00399679 0.04411140
v -0.04772785 0.00037988 0.08357602
v -0.05543017 0.00435846 0.04100784
v -0.03010417 -0.00399679 0.04411140
v -0.05543017 0.00435846 0.04100784
v -0.02639017 0.00740720 0.04450525
v -0.02639017 0.00740720 0.04450525
v -0.05543017 0.00435846 0.04100784
v -0.05171616 0.01576245 0.04140168
v -0.02639017 0.00740720 0.04450525
v -0.05171616 0.01576245 0.04140168
v -0.04401384 0.01178387 0.08396987
v -0.05543017 0.00435846 0.04100784
v -0.04772785 0.00037988 0.08357602
v -0.07781413 0.01119403 0.05416387
v -0.05543017 0.00435846 0.04100784
v -0.07781413 0.01119403 0.05416387
v -0.05171616 0.01576245 0.04140168
v -0.05171616 0.01576245 0.04140168
v -0.07781413 0.01119403 0.05416387
v -0.07410013 0.02259802 0.05455771
v -0.05171616 0.01576245 0.04140168
v -0.07410013 0.02259802 0.05455771
v -0.04401384 0.01178387 0.08396987
v -0.07781413 0.01119403 0.05416387
v -0.04772785 0.00037988 0.08357602
v -0.08870617 0.01389896 0.07855435
v -0.07781413 0.01119403 0.05416387
v -0.08870617 0.01389896 0.07855435
v -0.07410013 0.02259802 0.05455771
v -0.07410013 0.02259802 0.05455771
v -0.08870617 0.01389896 0.07855435
v -0.08499216 0.02530295 0.07894819
v -0.07410013 0.02259802 0.05455771
v -0.08499216 0.02530295 0.07894819
v -0.04401384 0.01178387 0.08396987
v -0.08870617 0.01389896 0.07855435
v -0.04772785 0.00037988 0.08357602
v -0.08394587 0.01144006 0.10486293
v -0.08870617 0.01389896 0.07855435
v -0.08394587 0.01144006 0.10486293
v -0.08499216 0.02530295 0.07894819
v -0.08499216 0.02530295 0.07894819
v -0.08394587 0.01144006 0.10486293
v -0.08023186 0.02284406 0.10525677
v -0.08499216 0.02530295 0.07894819
v -0.08023186 0.02284406 0.10525677
v -0.04401384 0.01178387 0.08396987
f 1201 1202 1203
f 1204 1205 1206
f 1207 1208 1209
f 1210 1211 1212
f 1213 1214 1215
f 1216 1217 1218
f 1219 1220 1221
f 1222 1223 1224
f 1225 1226 1227
f 1228 1229 1230
f 1231 1232 1233
f 1234 1235 1236
f 1237 1238 1239
f 1240 1241 1242
f 1243 1244 1245
f 1246 1247 1248
f 1249 1250 1251
f 1252 1253 1254
f 1255 1256 1257
f 1258 1259 1260
f 1261 1262 1263
f 1264 1265 1266
f 1267 1268 1269
f 1270 1271 1272
f 1273 1274 1275
f 1276 1277 1278
f 1279 1280 1281
f 1282 1283 1284
f 1285 1286 1287
f 1288 1289 1290
f 1291 1292 1293
f 1294 1295 1296
f 1297 1298 1299
f 1300 1301 1302
f 1303 1304 1305
f 1306 1307 1308
f 1309 1310 1311
f 1312 1313 1314
f 1315 1316 1317
f 1318 1319 1320

o geometry_2
usemtl material_0
v -0.01782507 0.00755732 0.04135704
v -0.00545453 0.00030696 -0.00072491
v 0.00956215 0.00541510 0.04080694
v -0.01782507 0.00755732 0.04135704
v 0.00956215 0.00541510 0.04080694
v -0.01693510 0.01939155 0.03957972
v -0.01693510 0.01939155 0.03957972
v 0.00956215 0.00541510 0.04080694
v 0.01045212 0.01724934 0.03902962
v -0.01693510 0.01939155 0.03957972
v 0.01045212 0.01724934 0.03902962
v -0.00456456 0.01214120 -0.00250223
v 0.00956215 0.00541510 0.04080694
v -0.00545453 0.00030696 -0.00072491
v 0.03121351 0.00132175 0.02439309
v 0.00956215 0.00541510 0.04080694
v 0.03121351 0.00132175 0.02439309
v 0.01045212 0.01724934 0.03902962
v 0.01045212 0.01724934 0.03902962
v 0.03121351 0.00132175 0.02439309
v 0.03210348 0.01315598 0.02261577
v 0.01045212 0.01724934 0.03902962
v 0.03210348 0.01315598 0.02261577
v -0.00456456 0.01214120 -0.00250223
v 0.03121351 0.00132175 0.02439309
v -0.00545453 0.00030696 -0.00072491
v 0.03885892 -0.00315921 -0.00161499
v 0.03121351 0.00132175 0.02439309
v 0.03885892 -0.00315921 -0.00161499
v 0.03210348 0.01315598 0.02261577
v 0.03210348 0.01315598 0.02261577
v 0.03885892 -0.00315921 -0.00161499
v 0.03974889 0.00867502 -0.00339231
v 0.03210348 0.01315598 0.02261577
v 0.03974889 0.00867502 -0.00339231
v -0.00456456 0.01214120 -0.00250223
v 0.03885892 -0.00315921 -0.00161499
v -0.00545453 0.00030696 -0.00072491
v 0.02957810 -0.00631622 -0.02728309
v 0.03885892 -0.00315921 -0.00161499
v 0.02957810 -0.00631622 -0.02728309
v 0.03974889 0.00867502 -0.00339231
v 0.03974889 0.00867502 -0.00339231
v 0.02957810 -0.00631622 -0.02728309
v 0.03046807 0.00551802 -0.02906041
v 0.03974889 0.00867502 -0.00339231
v 0.03046807 0.00551802 -0.02906041
v -0.00456456 0.01214120 -0.00250223
v 0.02957810 -0.00631622 -0.02728309
v -0.00545453 0.00030696 -0.00072491
v 0.00691601 -0.00694339 -0.04280687
v 0.02957810 -0.00631622 -0.02728309
v 0.00691601 -0.00694339 -0.04280687
v 0.03046807 0.00551802 -0.02906041
v 0.03046807 0.00551802 -0.02906041
v 0.00691601 -0.00694339 -0.04280687
v 0.00780598 0.00489084 -0.04458418
v 0.03046807 0.00551802 -0.02906041
v 0.00780598 0.00489084 -0.04458418
v -0.00456456 0.01214120 -0.00250223
v 0.00691601 -0.00694339 -0.04280687
v -0.00545453 0.00030696 -0.00072491
v -0.02047121 -0.00480117 -0.04225677
v 0.00691601 -0.00694339 -0.04280687
v -0.02047121 -0.00480117 -0.04225677
v 0.00780598 0.00489084 -0.04458418
v 0.00780598 0.00489084 -0.04458418
v -0.02047121 -0.00480117 -0.04225677
v -0.01958124 0.00703306 -0.04403409
v 0.00780598 0.00489084 -0.04458418
v -0.01958124 0.00703306 -0.04403409
v -0.00456456 0.01214120 -0.00250223
v -0.02047121 -0.00480117 -0.04225677
v -0.00545453 0.00030696 -0.00072491
v -0.04212257 -0.00070782 -0.02584291
v -0.02047121 -0.00480117 -0.04225677
v -0.04212257 -0.00070782 -0.02584291
v -0.01958124 0.00703306 -0.04403409
v -0.01958124 0.00703306 -0.04403409
v -0.04212257 -0.00070782 -0.02584291
v -0.04123260 0.01112641 -0.02762023
v -0.01958124 0.00703306 -0.04403409
v -0.04123260 0.01112641 -0.02762023
v -0.00456456 0.01214120 -0.00250223
v -0.04212257 -0.00070782 -0.02584291
v -0.00545453 0.00030696 -0.00072491
v -0.04976799 0.00377314 0.00016517
v -0.04212257 -0.00070782 -0.02584291
v -0.04976799 0.00377314 0.00016517
v -0.04123260 0.01112641 -0.02762023
v -0.04123260 0.01112641 -0.02762023
v -0.04976799 0.00377314 0.00016517
v -0.04887801 0.01560738 -0.00161215
v -0.04123260 0.01112641 -0.02762023
v -0.04887801 0.01560738 -0.00161215
v -0.00456456 0.01214120 -0.00250223
v -0.04976799 0.00377314 0.00016517
v -0.00545453 0.00030696 -0.00072491
v -0.04048716 0.00693015 0.02583326
v -0.04976799 0.00377314 0.00016517
v -0.04048716 0.00693015 0.02583326
v -0.04887801 0.01560738 -0.00161215
v -0.04887801 0.01560738 -0.00161215
v -0.04048716 0.00693015 0.02583326
v -0.03959719 0.01876438 0.02405595
v -0.04887801 0.01560738 -0.00161215
v -0.03959719 0.01876438 0.02405595
v -0.00456456 0.01214120 -0.00250223
v -0.04048716 0.00693015 0.02583326
v -0.00545453 0.00030696 -0.00072491
v -0.01782507 0.00755732 0.04135704
v -0.04048716 0.00693015 0.02583326
v -0.01782507 0.00755732 0.04135704
v -0.03959719 0.01876438 0.02405595
v -0.03959719 0.01876438 0.02405595
v -0.01782507 0.00755732 0.04135704
v -0.01693510 0.01939155 0.03957972
v -0.03959719 0.01876438 0.02405595
v -0.01693510 0.01939155 0.03957972
v -0.00456456 0.01214120 -0.00250223
f 1321 1322 1323
f 1324 1325 1326
f 1327 1328 1329
f 1330 1331 1332
f 1333 1334 1335
f 1336 1337 1338
f 1339 1340 1341
f 1342 1343 1344
f 1345 1346 1347
f 1348 1349 1350
f 1351 1352 1353
f 1354 1355 1356
f 1357 1358 1359
f 1360 1361 1362
f 1363 1364 1365
f 1366 1367 1368
f 1369 1370 1371
f 1372 1373 1374
f 1375 1376 1377
f 1378 1379 1380
f 1381 1382 1383
f 1384 1385 1386
f 1387 1388 1389
f 1390 1391 1392
f 1393 1394 1395
f 1396 1397 1398
f 1399 1400 1401
f 1402 1403 1404
f 1405 1406 1407
f 1408 1409 1410
f 1411 1412 1413
f 1414 1415 1416
f 1417 1418 1419
f 1420 1421 1422
f 1423 1424 1425
f 1426 1427 1428
f 1429 1430 1431
f 1432 1433 1434
f 1435 1436 1437
f 1438 1439 1440

o geometry_1
usemtl material_0
v -0.03715182 0.00200026 0.12126028
v -0.03323609 0.00011890 0.07857037
v -0.01174900 -0.00306961 0.11557630
v -0.03715182 0.00200026 0.12126028
v -0.01174900 -0.00306961 0.11557630
v -0.03487067 0.01377738 0.12095050
v -0.03487067 0.01377738 0.12095050
v -0.01174900 -0.00306961 0.11557630
v -0.00946785 0.00870751 0.11526652
v -0.03487067 0.01377738 0.12095050
v -0.00946785 0.00870751 0.11526652
v -0.03095494 0.01189601 0.07826058
v -0.01174900 -0.00306961 0.11557630
v -0.03323609 0.00011890 0.07857037
v 0.00544649 -0.00692158 0.09575732
v -0.01174900 -0.00306961 0.11557630
v 0.00544649 -0.00692158 0.09575732
v -0.00946785 0.00870751 0.11526652
v -0.00946785 0.00870751 0.11526652
v 0.00544649 -0.00692158 0.09575732
v 0.00772764 0.00485554 0.09544754
v -0.00946785 0.00870751 0.11526652
v 0.00772764 0.00485554 0.09544754
v -0.03095494 0.01189601 0.07826058
v 0.00544649 -0.00692158 0.09575732
v -0.03323609 0.00011890 0.07857037
v 0.00786655 -0.00808433 0.06937350
v 0.00544649 -0.00692158 0.09575732
v 0.00786655 -0.00808433 0.06937350
v 0.00772764 0.00485554 0.09544754
v 0.00772764 0.00485554 0.09544754
v 0.00786655 -0.00808433 0.06937350
v 0.01014770 0.00369279 0.06906372
v 0.00772764 0.00485554 0.09544754
v 0.01014770 0.00369279 0.06906372
v -0.03095494 0.01189601 0.07826058
v 0.00786655 -0.00808433 0.06937350
v -0.03323609 0.00011890 0.07857037
v -0.00541321 -0.00611372 0.04650257
v 0.00786655 -0.00808433 0.06937350
v -0.00541321 -0.00611372 0.04650257
v 0.01014770 0.00369279 0.06906372
v 0.01014770 0.00369279 0.06906372
v -0.00541321 -0.00611372 0.04650257
v -0.00313206 0.00566339 0.04619279
v 0.01014770 0.00369279 0.06906372
v -0.00313206 0.00566339 0.04619279
v -0.03095494 0.01189601 0.07826058
v -0.00541321 -0.00611372 0.04650257
v -0.03323609 0.00011890 0.07857037
v -0.02932035 -0.00176247 0.03588045
v -0.00541321 -0.00611372 0.04650257
v -0.02932035 -0.00176247 0.03588045
v -0.00313206 0.00566339 0.04619279
v -0.00313206 0.00566339 0.04619279
v -0.02932035 -0.00176247 0.03588045
v -0.02703920 0.01001465 0.03557066
v -0.00313206 0.00566339 0.04619279
v -0.02703920 0.01001465 0.03557066
v -0.03095494 0.01189601 0.07826058
v -0.02932035 -0.00176247 0.03588045
v -0.03323609 0.00011890 0.07857037
v -0.05472318 0.00330740 0.04156442
v -0.02932035 -0.00176247 0.03588045
v -0.05472318 0.00330740 0.04156442
v -0.02703920 0.01001465 0.03557066
v -0.02703920 0.01001465 0.03557066
v -0.05472318 0.00330740 0.04156442
v -0.05244203 0.01508452 0.04125464
v -0.02703920 0.01001465 0.03557066
v -0.05244203 0.01508452 0.04125464
v -0.03095494 0.01189601 0.07826058
v -0.05472318 0.00330740 0.04156442
v -0.03323609 0.00011890 0.07857037
v -0.07191867 0.00715937 0.06138340
v -0.05472318 0.00330740 0.04156442
v -0.07191867 0.00715937 0.06138340
v -0.05244203 0.01508452 0.04125464
v -0.05244203 0.01508452 0.04125464
v -0.07191867 0.00715937 0.06138340
v -0.06963751 0.01893649 0.06107362
v -0.05244203 0.01508452 0.04125464
v -0.06963751 0.01893649 0.06107362
v -0.03095494 0.01189601 0.07826058
v -0.07191867 0.00715937 0.06138340
v -0.03323609 0.00011890 0.07857037
v -0.07433872 0.00832212 0.08776722
v -0.07191867 0.00715937 0.06138340
v -0.07433872 0.00832212 0.08776722
v -0.06963751 0.01893649 0.06107362
v -0.06963751 0.01893649 0.06107362
v -0.07433872 0.00832212 0.08776722
v -0.07205757 0.02009923 0.08745744
v -0.06963751 0.01893649 0.06107362
v -0.07205757 0.02009923 0.08745744
v -0.03095494 0.01189601 0.07826058
v -0.07433872 0.00832212 0.08776722
v -0.03323609 0.00011890 0.07857037
v -0.06105897 0.00635152 0.11063816
v -0.07433872 0.00832212 0.08776722
v -0.06105897 0.00635152 0.11063816
v -0.07205757 0.02009923 0.08745744
v -0.07205757 0.02009923 0.08745744
v -0.06105897 0.00635152 0.11063816
v -0.05877782 0.01812863 0.11032837
v -0.07205757 0.02009923 0.08745744
v -0.05877782 0.01812863 0.11032837
v -0.03095494 0.01189601 0.07826058
v -0.06105897 0.00635152 0.11063816
v -0.03323609 0.00011890 0.07857037
v -0.03715182 0.00200026 0.12126028
v -0.06105897 0.00635152 0.11063816
v -0.03715182 0.00200026 0.12126028
v -0.05877782 0.01812863 0.11032837
v -0.05877782 0.01812863 0.11032837
v -0.03715182 0.00200026 0.12126028
v -0.03487067 0.01377738 0.12095050
v -0.05877782 0.01812863 0.11032837
v -0.03487067 0.01377738 0.12095050
v -0.03095494 0.01189601 0.07826058
f 1441 1442 1443
f 1444 1445 1446
f 1447 1448 1449
f 1450 1451 1452
f 1453 1454 1455
f 1456 1457 1458
f 1459 1460 1461
f 1462 1463 1464
f 1465 1466 1467
f 1468 1469 1470
f 1471 1472 1473
f 1474 1475 1476
f 1477 1478 1479
f 1480 1481 1482
f 1483 1484 1485
f 1486 1487 1488
f 1489 1490 1491
f 1492 1493 1494
f 1495 1496 1497
f 1498 1499 1500
f 1501 1502 1503
f 1504 1505 1506
f 1507 1508 1509
f 1510 1511 1512
f 1513 1514 1515
f 1516 1517 1518
f 1519 1520 1521
f 1522 1523 1524
f 1525 1526 1527
f 1528 1529 1530
f 1531 1532 1533
f 1534 1535 1536
f 1537 1538 1539
f 1540 1541 1542
f 1543 1544 1545
f 1546 1547 1548
f 1549 1550 1551
f 1552 1553 1554
f 1555 1556 1557
f 1558 1559 1560

o geometry_0
usemtl material_1
v -0.03237573 -0.00312722 -0.01945226
v -0.07976911 0.00095060 -0.00618583
v -0.04905944 -0.00020879 -0.04484241
v -0.03237573 -0.00312722 -0.01945226
v -0.04905944 -0.00020879 -0.04484241
v -0.03118489 0.00879904 -0.01886391
v -0.03118489 0.00879904 -0.01886391
v -0.04905944 -0.00020879 -0.04484241
v -0.04786859 0.01171747 -0.04425406
v -0.03118489 0.00879904 -0.01886391
v -0.04786859 0.01171747 -0.04425406
v -0.07857826 0.01287686 -0.00559749
v -0.04905944 -0.00020879 -0.04484241
v -0.07976911 0.00095060 -0.00618583
v -0.07747320 0.00315248 -0.05546706
v -0.04905944 -0.00020879 -0.04484241
v -0.07747320 0.00315248 -0.05546706
v -0.04786859 0.01171747 -0.04425406
v -0.04786859 0.01171747 -0.04425406
v -0.07747320 0.00315248 -0.05546706
v -0.07628234 0.01507875 -0.05487872
v -0.04786859 0.01171747 -0.04425406
v -0.07628234 0.01507875 -0.05487872
v -0.07857826 0.01287686 -0.00559749
v -0.07747320 0.00315248 -0.05546706
v -0.07976911 0.00095060 -0.00618583
v -0.10676391 0.00567272 -0.04726796
v -0.07747320 0.00315248 -0.05546706
v -0.10676391 0.00567272 -0.04726796
v -0.07628234 0.01507875 -0.05487872
v -0.07628234 0.01507875 -0.05487872
v -0.10676391 0.00567272 -0.04726796
v -0.10557307 0.01759898 -0.04667962
v -0.07628234 0.01507875 -0.05487872
v -0.10557307 0.01759898 -0.04667962
v -0.07857826 0.01287686 -0.00559749
v -0.10676391 0.00567272 -0.04726796
v -0.07976911 0.00095060 -0.00618583
v -0.12574354 0.00638926 -0.02337688
v -0.10676391 0.00567272 -0.04726796
v -0.12574354 0.00638926 -0.02337688
v -0.10557307 0.01759898 -0.04667962
v -0.10557307 0.01759898 -0.04667962
v -0.12574354 0.00638926 -0.02337688
v -0.12455269 0.01831552 -0.02278854
v -0.10557307 0.01759898 -0.04667962
v -0.12455269 0.01831552 -0.02278854
v -0.07857826 0.01287686 -0.00559749
v -0.12574354 0.00638926 -0.02337688
v -0.07976911 0.00095060 -0.00618583
v -0.12716249 0.00502842 0.00708059
v -0.12574354 0.00638926 -0.02337688
v -0.12716249 0.00502842 0.00708059
v -0.12455269 0.01831552 -0.02278854
v -0.12455269 0.01831552 -0.02278854
v -0.12716249 0.00502842 0.00708059
v -0.12597165 0.01695468 0.00766894
v -0.12455269 0.01831552 -0.02278854
v -0.12597165 0.01695468 0.00766894
v -0.07857826 0.01287686 -0.00559749
v -0.12716249 0.00502842 0.00708059
v -0.07976911 0.00095060 -0.00618583
v -0.11047879 0.00210999 0.03247074
v -0.12716249 0.00502842 0.00708059
v -0.11047879 0.00210999 0.03247074
v -0.12597165 0.01695468 0.00766894
v -0.12597165 0.01695468 0.00766894
v -0.11047879 0.00210999 0.03247074
v -0.10928794 0.01403625 0.03305909
v -0.12597165 0.01695468 0.00766894
v -0.10928794 0.01403625 0.03305909
v -0.07857826 0.01287686 -0.00559749
v -0.11047879 0.00210999 0.03247074
v -0.07976911 0.00095060 -0.00618583
v -0.08206503 -0.00125128 0.04309540
v -0.11047879 0.00210999 0.03247074
v -0.08206503 -0.00125128 0.04309540
v -0.10928794 0.01403625 0.03305909
v -0.10928794 0.01403625 0.03305909
v -0.08206503 -0.00125128 0.04309540
v -0.08087418 0.01067498 0.04368374
v -0.10928794 0.01403625 0.03305909
v -0.08087418 0.01067498 0.04368374
v -0.07857826 0.01287686 -0.00559749
v -0.08206503 -0.00125128 0.04309540
v -0.07976911 0.00095060 -0.00618583
v -0.05277431 -0.00377152 0.03489630
v -0.08206503 -0.00125128 0.04309540
v -0.05277431 -0.00377152 0.03489630
v -0.08087418 0.01067498 0.04368374
v -0.08087418 0.01067498 0.04368374
v -0.05277431 -0.00377152 0.03489630
v -0.05158346 0.00815475 0.03548464
v -0.08087418 0.01067498 0.04368374
v -0.05158346 0.00815475 0.03548464
v -0.07857826 0.01287686 -0.00559749
v -0.05277431 -0.00377152 0.03489630
v -0.07976911 0.00095060 -0.00618583
v -0.03379469 -0.00448806 0.01100522
v -0.05277431 -0.00377152 0.03489630
v -0.03379469 -0.00448806 0.01100522
v -0.05158346 0.00815475 0.03548464
v -0.05158346 0.00815475 0.03548464
v -0.03379469 -0.00448806 0.01100522
v -0.03260384 0.00743820 0.01159356
v -0.05158346 0.00815475 0.03548464
v -0.03260384 0.00743820 0.01159356
v -0.07857826 0.01287686 -0.00559749
v -0.03379469 -0.00448806 0.01100522
v -0.07976911 0.00095060 -0.00618583
v -0.03237573 -0.00312722 -0.01945226
v -0.03379469 -0.00448806 0.01100522
v -0.03237573 -0.00312722 -0.01945226
v -0.03260384 0.00743820 0.01159356
v -0.03260384 0.00743820 0.01159356
v -0.03237573 -0.00312722 -0.01945226
v -0.03118489 0.00879904 -0.01886391
v -0.03260384 0.00743820 0.01159356
v -0.03118489 0.00879904 -0.01886391
v -0.07857826 0.01287686 -0.00559749
f 1561 1562 1563
f 1564 1565 1566
f 1567 1568 1569
f 1570 1571 1572
f 1573 1574 1575
f 1576 1577 1578
f 1579 1580 1581
f 1582 1583 1584
f 1585 1586 1587
f 1588 1589 1590
f 1591 1592 1593
f 1594 1595 1596
f 1597 1598 1599
f 1600 1601 1602
f 1603 1604 1605
f 1606 1607 1608
f 1609 1610 1611
f 1612 1613 1614
f 1615 1616 1617
f 1618 1619 1620
f 1621 1622 1623
f 1624 1625 1626
f 1627 1628 1629
f 1630 1631 1632
f 1633 1634 1635
f 1636 1637 1638
f 1639 1640 1641
f 1642 1643 1644
f 1645 1646 1647
f 1648 1649 1650
f 1651 1652 1653
f 1654 1655 1656
f 1657 1658 1659
f 1660 1661 1662
f 1663 1664 1665
f 1666 1667 1668
f 1669 1670 1671
f 1672 1673 1674
f 1675 1676 1677
f 1678 1679 1680

