# https://github.com/mikedh/trimesh
mtllib nest_bed.mtl

o geometry_0
usemtl material_0
v 0.36841376 0.00000000 0.00000000
v 0.37904143 0.00000000 -0.06003426
v 0.33814395 0.00000000 -0.10986963
v 0.34188164 0.00000000 -0.17419739
v 0.29239015 0.00000000 -0.21243388
v 0.25831772 0.00000000 -0.25831772
v 0.22304663 0.00000000 -0.30699735
v 0.16562571 0.00000000 -0.32505876
v 0.11425464 0.00000000 -0.35163962
v 0.05498117 0.00000000 -0.34713746
v 0.00000000 0.00000000 -0.37687296
v -0.05777673 0.00000000 -0.36478789
v -0.11187670 0.00000000 -0.34432108
v -0.17165154 0.00000000 -0.33688512
v -0.21225620 0.00000000 -0.29214560
v -0.25906443 0.00000000 -0.25906443
v -0.28735593 0.00000000 -0.20877630
v -0.32486896 0.00000000 -0.16552900
v -0.34011772 0.00000000 -0.11051095
v -0.35525270 0.00000000 -0.05626650
v -0.37676276 0.00000000 -0.00000000
v -0.35587824 -0.00000000 0.05636558
v -0.34949585 -0.00000000 0.11355809
v -0.34288230 -0.00000000 0.17470726
v -0.31079035 -0.00000000 0.22580241
v -0.26577856 -0.00000000 0.26577856
v -0.21715311 -0.00000000 0.29888562
v -0.16352338 -0.00000000 0.32093270
v -0.11004800 -0.00000000 0.33869293
v -0.06014082 -0.00000000 0.37971420
v -0.00000000 -0.00000000 0.36856240
v 0.05546467 -0.00000000 0.35019013
v 0.11505387 -0.00000000 0.35409940
v 0.17146491 -0.00000000 0.33651883
v 0.21862973 -0.00000000 0.30091801
v 0.27054289 -0.00000000 0.27054289
v 0.28468155 -0.00000000 0.20683325
v 0.32878196 -0.00000000 0.16752278
v 0.34863521 -0.00000000 0.11327845
v 0.34834013 -0.00000000 0.05517166
v 0.24311512 -0.00000000 0.03850565
v 0.24619386 -0.00000000 0.07999323
v 0.22346738 -0.00000000 0.11386232
v 0.20103858 -0.00000000 0.14606308
v 0.17337995 -0.00000000 0.17337995
v 0.14831767 -0.00000000 0.20414176
v 0.11734614 -0.00000000 0.23030477
v 0.07830316 -0.00000000 0.24099234
v 0.04059998 -0.00000000 0.25633820
v -0.00000000 -0.00000000 0.23905722
v -0.03693986 -0.00000000 0.23322908
v -0.07299483 -0.00000000 0.22465497
v -0.11522858 -0.00000000 0.22614883
v -0.14525778 -0.00000000 0.19993018
v -0.18436148 -0.00000000 0.18436148
v -0.19622254 -0.00000000 0.14256402
v -0.22833550 -0.00000000 0.11634275
v -0.24702388 -0.00000000 0.08026293
v -0.24527460 -0.00000000 0.03884768
v -0.24337882 0.00000000 -0.00000000
v -0.23567980 0.00000000 -0.03732801
v -0.23276989 0.00000000 -0.07563152
v -0.22586298 0.00000000 -0.11508293
v -0.21198112 0.00000000 -0.15401330
v -0.17818775 0.00000000 -0.17818775
v -0.14440916 0.00000000 -0.19876216
v -0.11489542 0.00000000 -0.22549497
v -0.07601167 0.00000000 -0.23393986
v -0.03715348 0.00000000 -0.23457783
v 0.00000000 0.00000000 -0.24986797
v 0.03953459 0.00000000 -0.24961155
v 0.07455007 0.00000000 -0.22944151
v 0.10653087 0.00000000 -0.20907860
v 0.14026733 0.00000000 -0.19306141
v 0.18021098 0.00000000 -0.18021098
v 0.20306571 0.00000000 -0.14753587
v 0.21006145 0.00000000 -0.10703166
v 0.24482741 0.00000000 -0.07954925
v 0.23897587 0.00000000 -0.03785006
v 0.24084836 0.00000000 0.00000000
v 0.36841376 0.13000000 0.00000000
v 0.37904143 0.13000000 -0.06003426
v 0.33814395 0.13000000 -0.10986963
v 0.34188164 0.13000000 -0.17419739
v 0.29239015 0.13000000 -0.21243388
v 0.25831772 0.13000000 -0.25831772
v 0.22304663 0.13000000 -0.30699735
v 0.16562571 0.13000000 -0.32505876
v 0.11425464 0.13000000 -0.35163962
v 0.05498117 0.13000000 -0.34713746
v 0.00000000 0.13000000 -0.37687296
v -0.05777673 0.13000000 -0.36478789
v -0.11187670 0.13000000 -0.34432108
v -0.17165154 0.13000000 -0.33688512
v -0.21225620 0.13000000 -0.29214560
v -0.25906443 0.13000000 -0.25906443
v -0.28735593 0.13000000 -0.20877630
v -0.32486896 0.13000000 -0.16552900
v -0.34011772 0.13000000 -0.11051095
v -0.35525270 0.13000000 -0.05626650
v -0.37676276 0.13000000 -0.00000000
v -0.35587824 0.13000000 0.05636558
v -0.34949585 0.13000000 0.11355809
v -0.34288230 0.13000000 0.17470726
v -0.31079035 0.13000000 0.22580241
v -0.26577856 0.13000000 0.26577856
v -0.21715311 0.13000000 0.29888562
v -0.16352338 0.13000000 0.32093270
v -0.11004800 0.13000000 0.33869293
v -0.06014082 0.13000000 0.37971420
v -0.00000000 0.13000000 0.36856240
v 0.05546467 0.13000000 0.35019013
v 0.11505387 0.13000000 0.35409940
v 0.17146491 0.13000000 0.33651883
v 0.21862973 0.13000000 0.30091801
v 0.27054289 0.13000000 0.27054289
v 0.28468155 0.13000000 0.20683325
v 0.32878196 0.13000000 0.16752278
v 0.34863521 0.13000000 0.11327845
v 0.34834013 0.13000000 0.05517166
v 0.24311512 0.13000000 0.03850565
v 0.24619386 0.13000000 0.07999323
v 0.22346738 0.13000000 0.11386232
v 0.20103858 0.13000000 0.14606308
v 0.17337995 0.13000000 0.17337995
v 0.14831767 0.13000000 0.20414176
v 0.11734614 0.13000000 0.23030477
v 0.07830316 0.13000000 0.24099234
v 0.04059998 0.13000000 0.25633820
v -0.00000000 0.13000000 0.23905722
v -0.03693986 0.13000000 0.23322908
v -0.07299483 0.13000000 0.22465497
v -0.11522858 0.13000000 0.22614883
v -0.14525778 0.13000000 0.19993018
v -0.18436148 0.13000000 0.18436148
v -0.19622254 0.13000000 0.14256402
v -0.22833550 0.13000000 0.11634275
v -0.24702388 0.13000000 0.08026293
v -0.24527460 0.13000000 0.03884768
v -0.24337882 0.13000000 -0.00000000
v -0.23567980 0.13000000 -0.03732801
v -0.23276989 0.13000000 -0.07563152
v -0.22586298 0.13000000 -0.11508293
v -0.21198112 0.13000000 -0.15401330
v -0.17818775 0.13000000 -0.17818775
v -0.14440916 0.13000000 -0.19876216
v -0.11489542 0.13000000 -0.22549497
v -0.07601167 0.13000000 -0.23393986
v -0.03715348 0.13000000 -0.23457783
v 0.00000000 0.13000000 -0.24986797
v 0.03953459 0.13000000 -0.24961155
v 0.07455007 0.13000000 -0.22944151
v 0.10653087 0.13000000 -0.20907860
v 0.14026733 0.13000000 -0.19306141
v 0.18021098 0.13000000 -0.18021098
v 0.20306571 0.13000000 -0.14753587
v 0.21006145 0.13000000 -0.10703166
v 0.24482741 0.13000000 -0.07954925
v 0.23897587 0.13000000 -0.03785006
v 0.24084836 0.13000000 0.00000000
f 59 58 22
f 62 61 60
f 67 66 65
f 70 69 68
f 74 73 72
f 78 77 76
f 80 79 78
f 42 41 80
f 46 45 44
f 49 48 47
f 51 50 49
f 53 52 51
f 55 54 53
f 57 56 55
f 22 58 57
f 25 24 23
f 27 26 25
f 29 28 27
f 31 30 29
f 34 33 32
f 37 36 35
f 39 38 37
f 2 1 40
f 5 4 3
f 8 7 6
f 10 9 8
f 12 11 10
f 15 14 13
f 17 16 15
f 19 18 17
f 22 21 20
f 60 59 22
f 67 65 64
f 74 72 71
f 42 80 78
f 53 51 49
f 22 57 55
f 25 23 22
f 29 27 25
f 32 31 29
f 35 34 32
f 39 37 35
f 3 2 40
f 6 5 3
f 10 8 6
f 13 12 10
f 17 15 13
f 20 19 17
f 60 22 20
f 75 74 71
f 25 22 55
f 32 29 25
f 39 35 32
f 3 40 39
f 10 6 3
f 17 13 10
f 60 20 17
f 25 55 53
f 62 60 17
f 25 53 49
f 63 62 17
f 32 25 49
f 64 63 17
f 32 49 47
f 67 64 17
f 32 47 46
f 67 17 10
f 32 46 44
f 68 67 10
f 39 32 44
f 70 68 10
f 39 44 43
f 71 70 10
f 39 43 42
f 71 10 3
f 39 42 78
f 75 71 3
f 3 39 78
f 76 75 3
f 3 78 76
f 102 138 139
f 140 141 142
f 145 146 147
f 148 149 150
f 152 153 154
f 156 157 158
f 158 159 160
f 160 121 122
f 124 125 126
f 127 128 129
f 129 130 131
f 131 132 133
f 133 134 135
f 135 136 137
f 137 138 102
f 103 104 105
f 105 106 107
f 107 108 109
f 109 110 111
f 112 113 114
f 115 116 117
f 117 118 119
f 120 81 82
f 83 84 85
f 86 87 88
f 88 89 90
f 90 91 92
f 93 94 95
f 95 96 97
f 97 98 99
f 100 101 102
f 102 139 140
f 144 145 147
f 151 152 154
f 158 160 122
f 129 131 133
f 135 137 102
f 102 103 105
f 105 107 109
f 109 111 112
f 112 114 115
f 115 117 119
f 120 82 83
f 83 85 86
f 86 88 90
f 90 92 93
f 93 95 97
f 97 99 100
f 100 102 140
f 151 154 155
f 135 102 105
f 105 109 112
f 112 115 119
f 119 120 83
f 83 86 90
f 90 93 97
f 97 100 140
f 133 135 105
f 97 140 142
f 129 133 105
f 97 142 143
f 129 105 112
f 97 143 144
f 127 129 112
f 97 144 147
f 126 127 112
f 90 97 147
f 124 126 112
f 90 147 148
f 124 112 119
f 90 148 150
f 123 124 119
f 90 150 151
f 122 123 119
f 83 90 151
f 158 122 119
f 83 151 155
f 158 119 83
f 83 155 156
f 156 158 83
f 82 81 2
f 2 81 1
f 83 82 3
f 3 82 2
f 84 83 4
f 4 83 3
f 85 84 5
f 5 84 4
f 86 85 6
f 6 85 5
f 87 86 7
f 7 86 6
f 88 87 8
f 8 87 7
f 89 88 9
f 9 88 8
f 90 89 10
f 10 89 9
f 91 90 11
f 11 90 10
f 92 91 12
f 12 91 11
f 93 92 13
f 13 92 12
f 94 93 14
f 14 93 13
f 95 94 15
f 15 94 14
f 96 95 16
f 16 95 15
f 97 96 17
f 17 96 16
f 98 97 18
f 18 97 17
f 99 98 19
f 19 98 18
f 100 99 20
f 20 99 19
f 101 100 21
f 21 100 20
f 102 101 22
f 22 101 21
f 103 102 23
f 23 102 22
f 104 103 24
f 24 103 23
f 105 104 25
f 25 104 24
f 106 105 26
f 26 105 25
f 107 106 27
f 27 106 26
f 108 107 28
f 28 107 27
f 109 108 29
f 29 108 28
f 110 109 30
f 30 109 29
f 111 110 31
f 31 110 30
f 112 111 32
f 32 111 31
f 113 112 33
f 33 112 32
f 114 113 34
f 34 113 33
f 115 114 35
f 35 114 34
f 116 115 36
f 36 115 35
f 117 116 37
f 37 116 36
f 118 117 38
f 38 117 37
f 119 118 39
f 39 118 38
f 81 120 1
f 1 120 40
f 120 119 40
f 40 119 39
f 122 121 42
f 42 121 41
f 123 122 43
f 43 122 42
f 124 123 44
f 44 123 43
f 125 124 45
f 45 124 44
f 126 125 46
f 46 125 45
f 127 126 47
f 47 126 46
f 128 127 48
f 48 127 47
f 129 128 49
f 49 128 48
f 130 129 50
f 50 129 49
f 131 130 51
f 51 130 50
f 132 131 52
f 52 131 51
f 133 132 53
f 53 132 52
f 134 133 54
f 54 133 53
f 135 134 55
f 55 134 54
f 136 135 56
f 56 135 55
f 137 136 57
f 57 136 56
f 138 137 58
f 58 137 57
f 139 138 59
f 59 138 58
f 140 139 60
f 60 139 59
f 141 140 61
f 61 140 60
f 142 141 62
f 62 141 61
f 143 142 63
f 63 142 62
f 144 143 64
f 64 143 63
f 145 144 65
f 65 144 64
f 146 145 66
f 66 145 65
f 147 146 67
f 67 146 66
f 148 147 68
f 68 147 67
f 149 148 69
f 69 148 68
f 150 149 70
f 70 149 69
f 151 150 71
f 71 150 70
f 152 151 72
f 72 151 71
f 153 152 73
f 73 152 72
f 154 153 74
f 74 153 73
f 155 154 75
f 75 154 74
f 156 155 76
f 76 155 75
f 157 156 77
f 77 156 76
f 158 157 78
f 78 157 77
f 159 158 79
f 79 158 78
f 121 160 41
f 41 160 80
f 160 159 80
f 80 159 79

o geometry_1
usemtl material_1
v 0.37168005 0.01500000 0.00000000
v 0.34493085 0.01500000 -0.05463168
v 0.34984932 0.01500000 -0.11367294
v 0.30960558 0.01500000 -0.15775192
v 0.28993886 0.01500000 -0.21065291
v 0.24542092 0.01500000 -0.24542092
v 0.21376051 0.01500000 -0.29421610
v 0.16718311 0.01500000 -0.32811532
v 0.10993751 0.01500000 -0.33835288
v 0.05814791 0.01500000 -0.36713144
v 0.00000000 0.01500000 -0.36775999
v -0.05524428 0.01500000 -0.34879864
v -0.11133042 0.01500000 -0.34263981
v -0.16597850 0.01500000 -0.32575114
v -0.21619513 0.01500000 -0.29756706
v -0.26233885 0.01500000 -0.26233885
v -0.28101192 0.01500000 -0.20416711
v -0.32554474 0.01500000 -0.16587333
v -0.33018832 0.01500000 -0.10728469
v -0.36563814 0.01500000 -0.05791139
v -0.34978343 0.01500000 -0.00000000
v -0.36405915 0.01500000 0.05766130
v -0.33495215 0.01500000 0.10883255
v -0.33153899 0.01500000 0.16892755
v -0.29006093 0.01500000 0.21074160
v -0.24937834 0.01500000 0.24937834
v -0.20659065 0.01500000 0.28434763
v -0.16397045 0.01500000 0.32181013
v -0.10908700 0.01500000 0.33573525
v -0.05684194 0.01500000 0.35888591
v -0.00000000 0.01500000 0.34763275
v 0.05482923 0.01500000 0.34617811
v 0.11405719 0.01500000 0.35103194
v 0.16389558 0.01500000 0.32166319
v 0.20623003 0.01500000 0.28385129
v 0.24570719 0.01500000 0.24570719
v 0.28081277 0.01500000 0.20402242
v 0.31226894 0.01500000 0.15910897
v 0.33713502 0.01500000 0.10954181
v 0.35800974 0.01500000 0.05670317
v 0.31275272 0.01500000 0.04953516
v 0.31304772 0.01500000 0.10171537
v 0.28056094 0.01500000 0.14295294
v 0.26685195 0.01500000 0.19387929
v 0.23199987 0.01500000 0.23199987
v 0.19271354 0.01500000 0.26524743
v 0.14795788 0.01500000 0.29038370
v 0.09795239 0.01500000 0.30146646
v 0.05005344 0.01500000 0.31602498
v -0.00000000 0.01500000 0.31411908
v -0.04889922 0.01500000 0.30873754
v -0.10304476 0.01500000 0.31713916
v -0.14433637 0.01500000 0.28327608
v -0.18937596 0.01500000 0.26065365
v -0.23039253 0.01500000 0.23039253
v -0.26540698 0.01500000 0.19282946
v -0.27964378 0.01500000 0.14248562
v -0.30840499 0.01500000 0.10020686
v -0.32192935 0.01500000 0.05098860
v -0.32219867 0.01500000 -0.00000000
v -0.30887698 0.01500000 -0.04892131
v -0.30315058 0.01500000 -0.09849959
v -0.27676827 0.01500000 -0.14102048
v -0.26764922 0.01500000 -0.19445854
v -0.23383093 0.01500000 -0.23383093
v -0.18328005 0.01500000 -0.25226334
v -0.14179647 0.01500000 -0.27829123
v -0.09828188 0.01500000 -0.30248053
v -0.04963075 0.01500000 -0.31335620
v 0.00000000 0.01500000 -0.32650442
v 0.05032766 0.01500000 -0.31775634
v 0.10131175 0.01500000 -0.31180549
v 0.15215819 0.01500000 -0.29862726
v 0.18396160 0.01500000 -0.25320142
v 0.22082308 0.01500000 -0.22082308
v 0.25947538 0.01500000 -0.18851990
v 0.28829871 0.01500000 -0.14689553
v 0.29819711 0.01500000 -0.09689011
v 0.31806396 0.01500000 -0.05037638
v 0.31750190 0.01500000 0.00000000
v 0.37168005 0.05000000 0.00000000
v 0.34493085 0.05000000 -0.05463168
v 0.34984932 0.05000000 -0.11367294
v 0.30960558 0.05000000 -0.15775192
v 0.28993886 0.05000000 -0.21065291
v 0.24542092 0.05000000 -0.24542092
v 0.21376051 0.05000000 -0.29421610
v 0.16718311 0.05000000 -0.32811532
v 0.10993751 0.05000000 -0.33835288
v 0.05814791 0.05000000 -0.36713144
v 0.00000000 0.05000000 -0.36775999
v -0.05524428 0.05000000 -0.34879864
v -0.11133042 0.05000000 -0.34263981
v -0.16597850 0.05000000 -0.32575114
v -0.21619513 0.05000000 -0.29756706
v -0.26233885 0.05000000 -0.26233885
v -0.28101192 0.05000000 -0.20416711
v -0.32554474 0.05000000 -0.16587333
v -0.33018832 0.05000000 -0.10728469
v -0.36563814 0.05000000 -0.05791139
v -0.34978343 0.05000000 -0.00000000
v -0.36405915 0.05000000 0.05766130
v -0.33495215 0.05000000 0.10883255
v -0.33153899 0.05000000 0.16892755
v -0.29006093 0.05000000 0.21074160
v -0.24937834 0.05000000 0.24937834
v -0.20659065 0.05000000 0.28434763
v -0.16397045 0.05000000 0.32181013
v -0.10908700 0.05000000 0.33573525
v -0.05684194 0.05000000 0.35888591
v -0.00000000 0.05000000 0.34763275
v 0.05482923 0.05000000 0.34617811
v 0.11405719 0.05000000 0.35103194
v 0.16389558 0.05000000 0.32166319
v 0.20623003 0.05000000 0.28385129
v 0.24570719 0.05000000 0.24570719
v 0.28081277 0.05000000 0.20402242
v 0.31226894 0.05000000 0.15910897
v 0.33713502 0.05000000 0.10954181
v 0.35800974 0.05000000 0.05670317
v 0.31275272 0.05000000 0.04953516
v 0.31304772 0.05000000 0.10171537
v 0.28056094 0.05000000 0.14295294
v 0.26685195 0.05000000 0.19387929
v 0.23199987 0.05000000 0.23199987
v 0.19271354 0.05000000 0.26524743
v 0.14795788 0.05000000 0.29038370
v 0.09795239 0.05000000 0.30146646
v 0.05005344 0.05000000 0.31602498
v -0.00000000 0.05000000 0.31411908
v -0.04889922 0.05000000 0.30873754
v -0.10304476 0.05000000 0.31713916
v -0.14433637 0.05000000 0.28327608
v -0.18937596 0.05000000 0.26065365
v -0.23039253 0.05000000 0.23039253
v -0.26540698 0.05000000 0.19282946
v -0.27964378 0.05000000 0.14248562
v -0.30840499 0.05000000 0.10020686
v -0.32192935 0.05000000 0.05098860
v -0.32219867 0.05000000 -0.00000000
v -0.30887698 0.05000000 -0.04892131
v -0.30315058 0.05000000 -0.09849959
v -0.27676827 0.05000000 -0.14102048
v -0.26764922 0.05000000 -0.19445854
v -0.23383093 0.05000000 -0.23383093
v -0.18328005 0.05000000 -0.25226334
v -0.14179647 0.05000000 -0.27829123
v -0.09828188 0.05000000 -0.30248053
v -0.04963075 0.05000000 -0.31335620
v 0.00000000 0.05000000 -0.32650442
v 0.05032766 0.05000000 -0.31775634
v 0.10131175 0.05000000 -0.31180549
v 0.15215819 0.05000000 -0.29862726
v 0.18396160 0.05000000 -0.25320142
v 0.22082308 0.05000000 -0.22082308
v 0.25947538 0.05000000 -0.18851990
v 0.28829871 0.05000000 -0.14689553
v 0.29819711 0.05000000 -0.09689011
v 0.31806396 0.05000000 -0.05037638
v 0.31750190 0.05000000 0.00000000
f 221 220 182
f 224 223 222
f 227 226 225
f 230 229 228
f 232 231 230
f 235 234 233
f 239 238 237
f 202 201 240
f 204 203 202
f 209 208 207
f 212 211 210
f 214 213 212
f 218 217 216
f 182 220 219
f 185 184 183
f 187 186 185
f 189 188 187
f 191 190 189
f 194 193 192
f 196 195 194
f 198 197 196
f 200 199 198
f 162 161 200
f 164 163 162
f 166 165 164
f 168 167 166
f 171 170 169
f 174 173 172
f 176 175 174
f 179 178 177
f 181 180 179
f 221 182 181
f 228 227 225
f 236 235 233
f 212 210 209
f 182 219 218
f 187 185 183
f 192 191 189
f 196 194 192
f 200 198 196
f 164 162 200
f 168 166 164
f 172 171 169
f 176 174 172
f 181 179 177
f 222 221 181
f 182 218 216
f 187 183 182
f 169 168 164
f 177 176 172
f 222 181 177
f 187 182 216
f 224 222 177
f 187 216 215
f 225 224 177
f 187 215 214
f 225 177 172
f 187 214 212
f 228 225 172
f 189 187 212
f 230 228 172
f 189 212 209
f 230 172 169
f 192 189 209
f 232 230 169
f 192 209 207
f 233 232 169
f 192 207 206
f 233 169 164
f 196 192 206
f 236 233 164
f 196 206 205
f 237 236 164
f 196 205 204
f 237 164 200
f 196 204 202
f 239 237 200
f 200 196 202
f 240 239 200
f 200 202 240
f 262 300 301
f 302 303 304
f 305 306 307
f 308 309 310
f 310 311 312
f 313 314 315
f 317 318 319
f 320 281 282
f 282 283 284
f 287 288 289
f 290 291 292
f 292 293 294
f 296 297 298
f 299 300 262
f 263 264 265
f 265 266 267
f 267 268 269
f 269 270 271
f 272 273 274
f 274 275 276
f 276 277 278
f 278 279 280
f 280 241 242
f 242 243 244
f 244 245 246
f 246 247 248
f 249 250 251
f 252 253 254
f 254 255 256
f 257 258 259
f 259 260 261
f 261 262 301
f 305 307 308
f 313 315 316
f 289 290 292
f 298 299 262
f 263 265 267
f 269 271 272
f 272 274 276
f 276 278 280
f 280 242 244
f 244 246 248
f 249 251 252
f 252 254 256
f 257 259 261
f 261 301 302
f 296 298 262
f 262 263 267
f 244 248 249
f 252 256 257
f 257 261 302
f 296 262 267
f 257 302 304
f 295 296 267
f 257 304 305
f 294 295 267
f 252 257 305
f 292 294 267
f 252 305 308
f 292 267 269
f 252 308 310
f 289 292 269
f 249 252 310
f 289 269 272
f 249 310 312
f 287 289 272
f 249 312 313
f 286 287 272
f 244 249 313
f 286 272 276
f 244 313 316
f 285 286 276
f 244 316 317
f 284 285 276
f 280 244 317
f 282 284 276
f 280 317 319
f 282 276 280
f 280 319 320
f 320 282 280
f 242 241 162
f 162 241 161
f 243 242 163
f 163 242 162
f 244 243 164
f 164 243 163
f 245 244 165
f 165 244 164
f 246 245 166
f 166 245 165
f 247 246 167
f 167 246 166
f 248 247 168
f 168 247 167
f 249 248 169
f 169 248 168
f 250 249 170
f 170 249 169
f 251 250 171
f 171 250 170
f 252 251 172
f 172 251 171
f 253 252 173
f 173 252 172
f 254 253 174
f 174 253 173
f 255 254 175
f 175 254 174
f 256 255 176
f 176 255 175
f 257 256 177
f 177 256 176
f 258 257 178
f 178 257 177
f 259 258 179
f 179 258 178
f 260 259 180
f 180 259 179
f 261 260 181
f 181 260 180
f 262 261 182
f 182 261 181
f 263 262 183
f 183 262 182
f 264 263 184
f 184 263 183
f 265 264 185
f 185 264 184
f 266 265 186
f 186 265 185
f 267 266 187
f 187 266 186
f 268 267 188
f 188 267 187
f 269 268 189
f 189 268 188
f 270 269 190
f 190 269 189
f 271 270 191
f 191 270 190
f 272 271 192
f 192 271 191
f 273 272 193
f 193 272 192
f 274 273 194
f 194 273 193
f 275 274 195
f 195 274 194
f 276 275 196
f 196 275 195
f 277 276 197
f 197 276 196
f 278 277 198
f 198 277 197
f 279 278 199
f 199 278 198
f 241 280 161
f 161 280 200
f 280 279 200
f 200 279 199
f 282 281 202
f 202 281 201
f 283 282 203
f 203 282 202
f 284 283 204
f 204 283 203
f 285 284 205
f 205 284 204
f 286 285 206
f 206 285 205
f 287 286 207
f 207 286 206
f 288 287 208
f 208 287 207
f 289 288 209
f 209 288 208
f 290 289 210
f 210 289 209
f 291 290 211
f 211 290 210
f 292 291 212
f 212 291 211
f 293 292 213
f 213 292 212
f 294 293 214
f 214 293 213
f 295 294 215
f 215 294 214
f 296 295 216
f 216 295 215
f 297 296 217
f 217 296 216
f 298 297 218
f 218 297 217
f 299 298 219
f 219 298 218
f 300 299 220
f 220 299 219
f 301 300 221
f 221 300 220
f 302 301 222
f 222 301 221
f 303 302 223
f 223 302 222
f 304 303 224
f 224 303 223
f 305 304 225
f 225 304 224
f 306 305 226
f 226 305 225
f 307 306 227
f 227 306 226
f 308 307 228
f 228 307 227
f 309 308 229
f 229 308 228
f 310 309 230
f 230 309 229
f 311 310 231
f 231 310 230
f 312 311 232
f 232 311 231
f 313 312 233
f 233 312 232
f 314 313 234
f 234 313 233
f 315 314 235
f 235 314 234
f 316 315 236
f 236 315 235
f 317 316 237
f 237 316 236
f 318 317 238
f 238 317 237
f 319 318 239
f 239 318 238
f 281 320 201
f 201 320 240
f 320 319 240
f 240 319 239

o geometry_2
usemtl material_0
v 0.34685711 0.05500000 0.00000000
v 0.35357103 0.05500000 -0.05600015
v 0.34337415 0.05500000 -0.11156903
v 0.30638210 0.05500000 -0.15610948
v 0.28108307 0.05500000 -0.20421880
v 0.26222796 0.05500000 -0.26222796
v 0.20285211 0.05500000 -0.27920197
v 0.15748623 0.05500000 -0.30908412
v 0.11478432 0.05500000 -0.35326980
v 0.05657554 0.05500000 -0.35720392
v 0.00000000 0.05500000 -0.35406979
v -0.05605699 0.05500000 -0.35392992
v -0.11213772 0.05500000 -0.34512442
v -0.15946837 0.05500000 -0.31297430
v -0.20404321 0.05500000 -0.28084138
v -0.25925447 0.05500000 -0.25925447
v -0.29376282 0.05500000 -0.21343118
v -0.31931132 0.05500000 -0.16269724
v -0.34951526 0.05500000 -0.11356439
v -0.35504656 0.05500000 -0.05623385
v -0.37242741 0.05500000 -0.00000000
v -0.34483685 0.05500000 0.05461679
v -0.34201125 0.05500000 0.11112619
v -0.31854262 0.05500000 0.16230557
v -0.28606699 0.05500000 0.20783983
v -0.25508726 0.05500000 0.25508726
v -0.20575954 0.05500000 0.28320371
v -0.16664451 0.05500000 0.32705827
v -0.11403345 0.05500000 0.35095888
v -0.05426130 0.05500000 0.34259233
v -0.00000000 0.05500000 0.35701220
v 0.05495767 0.05500000 0.34698908
v 0.10676337 0.05500000 0.32858385
v 0.16792125 0.05500000 0.32956400
v 0.20919187 0.05500000 0.28792790
v 0.24567063 0.05500000 0.24567063
v 0.29383568 0.05500000 0.21348412
v 0.31102051 0.05500000 0.15847287
v 0.35193174 0.05500000 0.11434955
v 0.34521134 0.05500000 0.05467611
v 0.31349564 0.05500000 0.04965283
v 0.31055533 0.05500000 0.10090554
v 0.28043878 0.05500000 0.14289070
v 0.25530536 0.05500000 0.18549020
v 0.22634470 0.05500000 0.22634470
v 0.19062181 0.05500000 0.26236841
v 0.14660952 0.05500000 0.28773737
v 0.10154128 0.05500000 0.31251192
v 0.04930472 0.05500000 0.31129772
v -0.00000000 0.05500000 0.33011639
v -0.04931999 0.05500000 0.31139414
v -0.09927322 0.05500000 0.30553154
v -0.14784639 0.05500000 0.29016488
v -0.19369388 0.05500000 0.26659675
v -0.22790468 0.05500000 0.22790468
v -0.25646356 0.05500000 0.18633168
v -0.27666342 0.05500000 0.14096705
v -0.30577185 0.05500000 0.09935130
v -0.32287748 0.05500000 0.05113877
v -0.32153486 0.05500000 -0.00000000
v -0.31508338 0.05500000 -0.04990431
v -0.31798948 0.05500000 -0.10332105
v -0.28077335 0.05500000 -0.14306117
v -0.25568325 0.05500000 -0.18576475
v -0.23191177 0.05500000 -0.23191177
v -0.19505448 0.05500000 -0.26846945
v -0.14334166 0.05500000 -0.28132385
v -0.10361913 0.05500000 -0.31890688
v -0.05120123 0.05500000 -0.32327186
v 0.00000000 0.05500000 -0.31542982
v 0.05121657 0.05500000 -0.32336872
v 0.10335279 0.05500000 -0.31808719
v 0.14223980 0.05500000 -0.27916132
v 0.18872910 0.05500000 -0.25976333
v 0.23689510 0.05500000 -0.23689510
v 0.26395624 0.05500000 -0.19177544
v 0.27864220 0.05500000 -0.14197529
v 0.31217957 0.05500000 -0.10143329
v 0.32163693 0.05500000 -0.05094229
v 0.33002794 0.05500000 0.00000000
v 0.34685711 0.09000000 0.00000000
v 0.35357103 0.09000000 -0.05600015
v 0.34337415 0.09000000 -0.11156903
v 0.30638210 0.09000000 -0.15610948
v 0.28108307 0.09000000 -0.20421880
v 0.26222796 0.09000000 -0.26222796
v 0.20285211 0.09000000 -0.27920197
v 0.15748623 0.09000000 -0.30908412
v 0.11478432 0.09000000 -0.35326980
v 0.05657554 0.09000000 -0.35720392
v 0.00000000 0.09000000 -0.35406979
v -0.05605699 0.09000000 -0.35392992
v -0.11213772 0.09000000 -0.34512442
v -0.15946837 0.09000000 -0.31297430
v -0.20404321 0.09000000 -0.28084138
v -0.25925447 0.09000000 -0.25925447
v -0.29376282 0.09000000 -0.21343118
v -0.31931132 0.09000000 -0.16269724
v -0.34951526 0.09000000 -0.11356439
v -0.35504656 0.09000000 -0.05623385
v -0.37242741 0.09000000 -0.00000000
v -0.34483685 0.09000000 0.05461679
v -0.34201125 0.09000000 0.11112619
v -0.31854262 0.09000000 0.16230557
v -0.28606699 0.09000000 0.20783983
v -0.25508726 0.09000000 0.25508726
v -0.20575954 0.09000000 0.28320371
v -0.16664451 0.09000000 0.32705827
v -0.11403345 0.09000000 0.35095888
v -0.05426130 0.09000000 0.34259233
v -0.00000000 0.09000000 0.35701220
v 0.05495767 0.09000000 0.34698908
v 0.10676337 0.09000000 0.32858385
v 0.16792125 0.09000000 0.32956400
v 0.20919187 0.09000000 0.28792790
v 0.24567063 0.09000000 0.24567063
v 0.29383568 0.09000000 0.21348412
v 0.31102051 0.09000000 0.15847287
v 0.35193174 0.09000000 0.11434955
v 0.34521134 0.09000000 0.05467611
v 0.31349564 0.09000000 0.04965283
v 0.31055533 0.09000000 0.10090554
v 0.28043878 0.09000000 0.14289070
v 0.25530536 0.09000000 0.18549020
v 0.22634470 0.09000000 0.22634470
v 0.19062181 0.09000000 0.26236841
v 0.14660952 0.09000000 0.28773737
v 0.10154128 0.09000000 0.31251192
v 0.04930472 0.09000000 0.31129772
v -0.00000000 0.09000000 0.33011639
v -0.04931999 0.09000000 0.31139414
v -0.09927322 0.09000000 0.30553154
v -0.14784639 0.09000000 0.29016488
v -0.19369388 0.09000000 0.26659675
v -0.22790468 0.09000000 0.22790468
v -0.25646356 0.09000000 0.18633168
v -0.27666342 0.09000000 0.14096705
v -0.30577185 0.09000000 0.09935130
v -0.32287748 0.09000000 0.05113877
v -0.32153486 0.09000000 -0.00000000
v -0.31508338 0.09000000 -0.04990431
v -0.31798948 0.09000000 -0.10332105
v -0.28077335 0.09000000 -0.14306117
v -0.25568325 0.09000000 -0.18576475
v -0.23191177 0.09000000 -0.23191177
v -0.19505448 0.09000000 -0.26846945
v -0.14334166 0.09000000 -0.28132385
v -0.10361913 0.09000000 -0.31890688
v -0.05120123 0.09000000 -0.32327186
v 0.00000000 0.09000000 -0.31542982
v 0.05121657 0.09000000 -0.32336872
v 0.10335279 0.09000000 -0.31808719
v 0.14223980 0.09000000 -0.27916132
v 0.18872910 0.09000000 -0.25976333
v 0.23689510 0.09000000 -0.23689510
v 0.26395624 0.09000000 -0.19177544
v 0.27864220 0.09000000 -0.14197529
v 0.31217957 0.09000000 -0.10143329
v 0.32163693 0.09000000 -0.05094229
v 0.33002794 0.09000000 0.00000000
f 380 379 341
f 382 381 380
f 384 383 382
f 388 387 386
f 391 390 389
f 394 393 392
f 398 397 396
f 362 361 400
f 364 363 362
f 370 369 368
f 372 371 370
f 378 377 376
f 341 379 378
f 344 343 342
f 347 346 345
f 349 348 347
f 352 351 350
f 355 354 353
f 358 357 356
f 360 359 358
f 323 322 321
f 327 326 325
f 330 329 328
f 333 332 331
f 335 334 333
f 337 336 335
f 340 339 338
f 380 341 340
f 385 384 382
f 395 394 392
f 341 378 376
f 345 344 342
f 349 347 345
f 353 352 350
f 356 355 353
f 360 358 356
f 323 321 360
f 327 325 324
f 330 328 327
f 333 331 330
f 337 335 333
f 340 338 337
f 382 380 340
f 342 341 376
f 324 323 360
f 382 340 337
f 345 342 376
f 385 382 337
f 345 376 375
f 386 385 337
f 345 375 374
f 386 337 333
f 349 345 374
f 388 386 333
f 349 374 373
f 388 333 330
f 349 373 372
f 389 388 330
f 349 372 370
f 391 389 330
f 349 370 368
f 392 391 330
f 350 349 368
f 392 330 327
f 353 350 368
f 395 392 327
f 353 368 367
f 395 327 324
f 353 367 366
f 396 395 324
f 356 353 366
f 398 396 324
f 356 366 365
f 398 324 360
f 356 365 364
f 399 398 360
f 356 364 362
f 400 399 360
f 360 356 362
f 362 400 360
f 421 459 460
f 460 461 462
f 462 463 464
f 466 467 468
f 469 470 471
f 472 473 474
f 476 477 478
f 480 441 442
f 442 443 444
f 448 449 450
f 450 451 452
f 456 457 458
f 458 459 421
f 422 423 424
f 425 426 427
f 427 428 429
f 430 431 432
f 433 434 435
f 436 437 438
f 438 439 440
f 401 402 403
f 405 406 407
f 408 409 410
f 411 412 413
f 413 414 415
f 415 416 417
f 418 419 420
f 420 421 460
f 462 464 465
f 472 474 475
f 456 458 421
f 422 424 425
f 425 427 429
f 430 432 433
f 433 435 436
f 436 438 440
f 440 401 403
f 404 405 407
f 407 408 410
f 410 411 413
f 413 415 417
f 417 418 420
f 420 460 462
f 456 421 422
f 440 403 404
f 417 420 462
f 456 422 425
f 417 462 465
f 455 456 425
f 417 465 466
f 454 455 425
f 413 417 466
f 454 425 429
f 413 466 468
f 453 454 429
f 410 413 468
f 452 453 429
f 410 468 469
f 450 452 429
f 410 469 471
f 448 450 429
f 410 471 472
f 448 429 430
f 407 410 472
f 448 430 433
f 407 472 475
f 447 448 433
f 404 407 475
f 446 447 433
f 404 475 476
f 446 433 436
f 404 476 478
f 445 446 436
f 440 404 478
f 444 445 436
f 440 478 479
f 442 444 436
f 440 479 480
f 442 436 440
f 440 480 442
f 402 401 322
f 322 401 321
f 403 402 323
f 323 402 322
f 404 403 324
f 324 403 323
f 405 404 325
f 325 404 324
f 406 405 326
f 326 405 325
f 407 406 327
f 327 406 326
f 408 407 328
f 328 407 327
f 409 408 329
f 329 408 328
f 410 409 330
f 330 409 329
f 411 410 331
f 331 410 330
f 412 411 332
f 332 411 331
f 413 412 333
f 333 412 332
f 414 413 334
f 334 413 333
f 415 414 335
f 335 414 334
f 416 415 336
f 336 415 335
f 417 416 337
f 337 416 336
f 418 417 338
f 338 417 337
f 419 418 339
f 339 418 338
f 420 419 340
f 340 419 339
f 421 420 341
f 341 420 340
f 422 421 342
f 342 421 341
f 423 422 343
f 343 422 342
f 424 423 344
f 344 423 343
f 425 424 345
f 345 424 344
f 426 425 346
f 346 425 345
f 427 426 347
f 347 426 346
f 428 427 348
f 348 427 347
f 429 428 349
f 349 428 348
f 430 429 350
f 350 429 349
f 431 430 351
f 351 430 350
f 432 431 352
f 352 431 351
f 433 432 353
f 353 432 352
f 434 433 354
f 354 433 353
f 435 434 355
f 355 434 354
f 436 435 356
f 356 435 355
f 437 436 357
f 357 436 356
f 438 437 358
f 358 437 357
f 439 438 359
f 359 438 358
f 401 440 321
f 321 440 360
f 440 439 360
f 360 439 359
f 442 441 362
f 362 441 361
f 443 442 363
f 363 442 362
f 444 443 364
f 364 443 363
f 445 444 365
f 365 444 364
f 446 445 366
f 366 445 365
f 447 446 367
f 367 446 366
f 448 447 368
f 368 447 367
f 449 448 369
f 369 448 368
f 450 449 370
f 370 449 369
f 451 450 371
f 371 450 370
f 452 451 372
f 372 451 371
f 453 452 373
f 373 452 372
f 454 453 374
f 374 453 373
f 455 454 375
f 375 454 374
f 456 455 376
f 376 455 375
f 457 456 377
f 377 456 376
f 458 457 378
f 378 457 377
f 459 458 379
f 379 458 378
f 460 459 380
f 380 459 379
f 461 460 381
f 381 460 380
f 462 461 382
f 382 461 381
f 463 462 383
f 383 462 382
f 464 463 384
f 384 463 383
f 465 464 385
f 385 464 384
f 466 465 386
f 386 465 385
f 467 466 387
f 387 466 386
f 468 467 388
f 388 467 387
f 469 468 389
f 389 468 388
f 470 469 390
f 390 469 389
f 471 470 391
f 391 470 390
f 472 471 392
f 392 471 391
f 473 472 393
f 393 472 392
f 474 473 394
f 394 473 393
f 475 474 395
f 395 474 394
f 476 475 396
f 396 475 395
f 477 476 397
f 397 476 396
f 478 477 398
f 398 477 397
f 479 478 399
f 399 478 398
f 441 480 361
f 361 480 400
f 480 479 400
f 400 479 399

o geometry_3
usemtl material_1
v 0.35052473 0.09500000 0.00000000
v 0.36683001 0.09500000 -0.05810017
v 0.33161402 0.09500000 -0.10774793
v 0.31040773 0.09500000 -0.15816064
v 0.28598482 0.09500000 -0.20778013
v 0.24742814 0.09500000 -0.24742814
v 0.21343269 0.09500000 -0.29376489
v 0.15728609 0.09500000 -0.30869133
v 0.11430207 0.09500000 -0.35178561
v 0.05768426 0.09500000 -0.36420407
v 0.00000000 0.09500000 -0.34308481
v -0.05619814 0.09500000 -0.35482110
v -0.10698339 0.09500000 -0.32926103
v -0.15923201 0.09500000 -0.31251042
v -0.20896170 0.09500000 -0.28761111
v -0.25216028 0.09500000 -0.25216028
v -0.28885499 0.09500000 -0.20986543
v -0.33040794 0.09500000 -0.16835125
v -0.33359556 0.09500000 -0.10839177
v -0.34434441 0.09500000 -0.05453880
v -0.36311531 0.09500000 -0.00000000
v -0.36682603 0.09500000 0.05809954
v -0.35254174 0.09500000 0.11454776
v -0.32914449 0.09500000 0.16770750
v -0.27905477 0.09500000 0.20274516
v -0.26240795 0.09500000 0.26240795
v -0.21305876 0.09500000 0.29325022
v -0.16758908 0.09500000 0.32891210
v -0.10977611 0.09500000 0.33785613
v -0.05468663 0.09500000 0.34527777
v -0.00000000 0.09500000 0.36678910
v 0.05676209 0.09500000 0.35838176
v 0.11321307 0.09500000 0.34843401
v 0.15846100 0.09500000 0.31099722
v 0.20397944 0.09500000 0.28075361
v 0.25873656 0.09500000 0.25873656
v 0.27798379 0.09500000 0.20196705
v 0.33089133 0.09500000 0.16859755
v 0.33006667 0.09500000 0.10724516
v 0.35655876 0.09500000 0.05647336
v 0.32028917 0.09500000 0.05072882
v 0.29972045 0.09500000 0.09738508
v 0.27859786 0.09500000 0.14195270
v 0.25968568 0.09500000 0.18867269
v 0.23237346 0.09500000 0.23237346
v 0.19512110 0.09500000 0.26856115
v 0.14896098 0.09500000 0.29235239
v 0.09679741 0.09500000 0.29791180
v 0.05018612 0.09500000 0.31686268
v -0.00000000 0.09500000 0.32526997
v -0.05078313 0.09500000 0.32063209
v -0.10211030 0.09500000 0.31426318
v -0.14691688 0.09500000 0.28834061
v -0.19497306 0.09500000 0.26835740
v -0.22685417 0.09500000 0.22685417
v -0.26470138 0.09500000 0.19231681
v -0.28806623 0.09500000 0.14677708
v -0.29688979 0.09500000 0.09646534
v -0.31130297 0.09500000 0.04930555
v -0.32023993 0.09500000 -0.00000000
v -0.32926676 0.09500000 -0.05215073
v -0.30407822 0.09500000 -0.09880100
v -0.27895595 0.09500000 -0.14213515
v -0.25971264 0.09500000 -0.18869227
v -0.23364605 0.09500000 -0.23364605
v -0.18568850 0.09500000 -0.25557829
v -0.14470452 0.09500000 -0.28399861
v -0.09963734 0.09500000 -0.30665219
v -0.04876900 0.09500000 -0.30791533
v 0.00000000 0.09500000 -0.32568661
v 0.05074478 0.09500000 -0.32038993
v 0.09634716 0.09500000 -0.29652608
v 0.15046336 0.09500000 -0.29530098
v 0.19502080 0.09500000 -0.26842310
v 0.23701646 0.09500000 -0.23701646
v 0.26049006 0.09500000 -0.18925711
v 0.29120748 0.09500000 -0.14837762
v 0.29740865 0.09500000 -0.09663393
v 0.31159827 0.09500000 -0.04935232
v 0.31965867 0.09500000 0.00000000
v 0.35052473 0.13000000 0.00000000
v 0.36683001 0.13000000 -0.05810017
v 0.33161402 0.13000000 -0.10774793
v 0.31040773 0.13000000 -0.15816064
v 0.28598482 0.13000000 -0.20778013
v 0.24742814 0.13000000 -0.24742814
v 0.21343269 0.13000000 -0.29376489
v 0.15728609 0.13000000 -0.30869133
v 0.11430207 0.13000000 -0.35178561
v 0.05768426 0.13000000 -0.36420407
v 0.00000000 0.13000000 -0.34308481
v -0.05619814 0.13000000 -0.35482110
v -0.10698339 0.13000000 -0.32926103
v -0.15923201 0.13000000 -0.31251042
v -0.20896170 0.13000000 -0.28761111
v -0.25216028 0.13000000 -0.25216028
v -0.28885499 0.13000000 -0.20986543
v -0.33040794 0.13000000 -0.16835125
v -0.33359556 0.13000000 -0.10839177
v -0.34434441 0.13000000 -0.05453880
v -0.36311531 0.13000000 -0.00000000
v -0.36682603 0.13000000 0.05809954
v -0.35254174 0.13000000 0.11454776
v -0.32914449 0.13000000 0.16770750
v -0.27905477 0.13000000 0.20274516
v -0.26240795 0.13000000 0.26240795
v -0.21305876 0.13000000 0.29325022
v -0.16758908 0.13000000 0.32891210
v -0.10977611 0.13000000 0.33785613
v -0.05468663 0.13000000 0.34527777
v -0.00000000 0.13000000 0.36678910
v 0.05676209 0.13000000 0.35838176
v 0.11321307 0.13000000 0.34843401
v 0.15846100 0.13000000 0.31099722
v 0.20397944 0.13000000 0.28075361
v 0.25873656 0.13000000 0.25873656
v 0.27798379 0.13000000 0.20196705
v 0.33089133 0.13000000 0.16859755
v 0.33006667 0.13000000 0.10724516
v 0.35655876 0.13000000 0.05647336
v 0.32028917 0.13000000 0.05072882
v 0.29972045 0.13000000 0.09738508
v 0.27859786 0.13000000 0.14195270
v 0.25968568 0.13000000 0.18867269
v 0.23237346 0.13000000 0.23237346
v 0.19512110 0.13000000 0.26856115
v 0.14896098 0.13000000 0.29235239
v 0.09679741 0.13000000 0.29791180
v 0.05018612 0.13000000 0.31686268
v -0.00000000 0.13000000 0.32526997
v -0.05078313 0.13000000 0.32063209
v -0.10211030 0.13000000 0.31426318
v -0.14691688 0.13000000 0.28834061
v -0.19497306 0.13000000 0.26835740
v -0.22685417 0.13000000 0.22685417
v -0.26470138 0.13000000 0.19231681
v -0.28806623 0.13000000 0.14677708
v -0.29688979 0.13000000 0.09646534
v -0.31130297 0.13000000 0.04930555
v -0.32023993 0.13000000 -0.00000000
v -0.32926676 0.13000000 -0.05215073
v -0.30407822 0.13000000 -0.09880100
v -0.27895595 0.13000000 -0.14213515
v -0.25971264 0.13000000 -0.18869227
v -0.23364605 0.13000000 -0.23364605
v -0.18568850 0.13000000 -0.25557829
v -0.14470452 0.13000000 -0.28399861
v -0.09963734 0.13000000 -0.30665219
v -0.04876900 0.13000000 -0.30791533
v 0.00000000 0.13000000 -0.32568661
v 0.05074478 0.13000000 -0.32038993
v 0.09634716 0.13000000 -0.29652608
v 0.15046336 0.13000000 -0.29530098
v 0.19502080 0.13000000 -0.26842310
v 0.23701646 0.13000000 -0.23701646
v 0.26049006 0.13000000 -0.18925711
v 0.29120748 0.13000000 -0.14837762
v 0.29740865 0.13000000 -0.09663393
v 0.31159827 0.13000000 -0.04935232
v 0.31965867 0.13000000 0.00000000
f 542 541 501
f 544 543 542
f 547 546 545
f 550 549 548
f 553 552 551
f 557 556 555
f 559 558 557
f 524 523 522
f 529 528 527
f 534 533 532
f 536 535 534
f 539 538 537
f 501 541 540
f 503 502 501
f 505 504 503
f 507 506 505
f 509 508 507
f 512 511 510
f 514 513 512
f 517 516 515
f 519 518 517
f 481 520 519
f 483 482 481
f 485 484 483
f 488 487 486
f 490 489 488
f 493 492 491
f 495 494 493
f 497 496 495
f 499 498 497
f 542 501 500
f 524 522 521
f 501 540 539
f 505 503 501
f 509 507 505
f 512 510 509
f 515 514 512
f 519 517 515
f 483 481 519
f 486 485 483
f 490 488 486
f 495 493 491
f 499 497 495
f 542 500 499
f 501 539 537
f 544 542 499
f 505 501 537
f 544 499 495
f 505 537 536
f 545 544 495
f 505 536 534
f 547 545 495
f 509 505 534
f 548 547 495
f 509 534 532
f 548 495 491
f 509 532 531
f 550 548 491
f 509 531 530
f 550 491 490
f 512 509 530
f 551 550 490
f 512 530 529
f 553 551 490
f 512 529 527
f 553 490 486
f 512 527 526
f 554 553 486
f 515 512 526
f 555 554 486
f 515 526 525
f 555 486 483
f 515 525 524
f 557 555 483
f 519 515 524
f 559 557 483
f 519 524 521
f 560 559 483
f 519 521 560
f 560 483 519
f 581 621 622
f 622 623 624
f 625 626 627
f 628 629 630
f 631 632 633
f 635 636 637
f 637 638 639
f 602 603 604
f 607 608 609
f 612 613 614
f 614 615 616
f 617 618 619
f 620 621 581
f 581 582 583
f 583 584 585
f 585 586 587
f 587 588 589
f 590 591 592
f 592 593 594
f 595 596 597
f 597 598 599
f 599 600 561
f 561 562 563
f 563 564 565
f 566 567 568
f 568 569 570
f 571 572 573
f 573 574 575
f 575 576 577
f 577 578 579
f 580 581 622
f 601 602 604
f 619 620 581
f 581 583 585
f 585 587 589
f 589 590 592
f 592 594 595
f 595 597 599
f 599 561 563
f 563 565 566
f 566 568 570
f 571 573 575
f 575 577 579
f 579 580 622
f 617 619 581
f 579 622 624
f 617 581 585
f 575 579 624
f 616 617 585
f 575 624 625
f 614 616 585
f 575 625 627
f 614 585 589
f 575 627 628
f 612 614 589
f 571 575 628
f 611 612 589
f 571 628 630
f 610 611 589
f 570 571 630
f 610 589 592
f 570 630 631
f 609 610 592
f 570 631 633
f 607 609 592
f 566 570 633
f 606 607 592
f 566 633 634
f 606 592 595
f 566 634 635
f 605 606 595
f 563 566 635
f 604 605 595
f 563 635 637
f 604 595 599
f 563 637 639
f 601 604 599
f 563 639 640
f 640 601 599
f 599 563 640
f 562 561 482
f 482 561 481
f 563 562 483
f 483 562 482
f 564 563 484
f 484 563 483
f 565 564 485
f 485 564 484
f 566 565 486
f 486 565 485
f 567 566 487
f 487 566 486
f 568 567 488
f 488 567 487
f 569 568 489
f 489 568 488
f 570 569 490
f 490 569 489
f 571 570 491
f 491 570 490
f 572 571 492
f 492 571 491
f 573 572 493
f 493 572 492
f 574 573 494
f 494 573 493
f 575 574 495
f 495 574 494
f 576 575 496
f 496 575 495
f 577 576 497
f 497 576 496
f 578 577 498
f 498 577 497
f 579 578 499
f 499 578 498
f 580 579 500
f 500 579 499
f 581 580 501
f 501 580 500
f 582 581 502
f 502 581 501
f 583 582 503
f 503 582 502
f 584 583 504
f 504 583 503
f 585 584 505
f 505 584 504
f 586 585 506
f 506 585 505
f 587 586 507
f 507 586 506
f 588 587 508
f 508 587 507
f 589 588 509
f 509 588 508
f 590 589 510
f 510 589 509
f 591 590 511
f 511 590 510
f 592 591 512
f 512 591 511
f 593 592 513
f 513 592 512
f 594 593 514
f 514 593 513
f 595 594 515
f 515 594 514
f 596 595 516
f 516 595 515
f 597 596 517
f 517 596 516
f 598 597 518
f 518 597 517
f 599 598 519
f 519 598 518
f 561 600 481
f 481 600 520
f 600 599 520
f 520 599 519
f 602 601 522
f 522 601 521
f 603 602 523
f 523 602 522
f 604 603 524
f 524 603 523
f 605 604 525
f 525 604 524
f 606 605 526
f 526 605 525
f 607 606 527
f 527 606 526
f 608 607 528
f 528 607 527
f 609 608 529
f 529 608 528
f 610 609 530
f 530 609 529
f 611 610 531
f 531 610 530
f 612 611 532
f 532 611 531
f 613 612 533
f 533 612 532
f 614 613 534
f 534 613 533
f 615 614 535
f 535 614 534
f 616 615 536
f 536 615 535
f 617 616 537
f 537 616 536
f 618 617 538
f 538 617 537
f 619 618 539
f 539 618 538
f 620 619 540
f 540 619 539
f 621 620 541
f 541 620 540
f 622 621 542
f 542 621 541
f 623 622 543
f 543 622 542
f 624 623 544
f 544 623 543
f 625 624 545
f 545 624 544
f 626 625 546
f 546 625 545
f 627 626 547
f 547 626 546
f 628 627 548
f 548 627 547
f 629 628 549
f 549 628 548
f 630 629 550
f 550 629 549
f 631 630 551
f 551 630 550
f 632 631 552
f 552 631 551
f 633 632 553
f 553 632 552
f 634 633 554
f 554 633 553
f 635 634 555
f 555 634 554
f 636 635 556
f 556 635 555
f 637 636 557
f 557 636 556
f 638 637 558
f 558 637 557
f 639 638 559
f 559 638 558
f 601 640 521
f 521 640 560
f 640 639 560
f 560 639 559

o geometry_4
usemtl material_2
v -0.14615325 0.12702580 0.00000000
v 0.14615325 0.12702580 0.00000000
v -0.14615325 0.02297420 0.00000000
v 0.14615325 0.02297420 0.00000000
v 0.00000000 0.04284629 0.23648092
v 0.00000000 0.10715371 0.23648092
v 0.00000000 0.04284629 -0.23648092
v 0.00000000 0.10715371 -0.23648092
v 0.23648092 0.07500000 -0.14615325
v 0.23648092 0.07500000 0.14615325
v -0.23648092 0.07500000 -0.14615325
v -0.23648092 0.07500000 0.14615325
v 0.00000000 0.13616000 0.00000000
v 0.00000000 0.01384000 0.00000000
v -0.08590672 0.02552052 0.13900000
v 0.08590672 0.02552052 0.13900000
v -0.08590672 0.12447948 0.13900000
v 0.08590672 0.12447948 0.13900000
v 0.00000000 0.07500000 0.27800000
v -0.08590672 0.02552052 -0.13900000
v 0.08590672 0.02552052 -0.13900000
v -0.08590672 0.12447948 -0.13900000
v 0.08590672 0.12447948 -0.13900000
v 0.00000000 0.07500000 -0.27800000
v 0.22490672 0.10558000 -0.08590672
v 0.22490672 0.04442000 -0.08590672
v 0.13900000 0.05610052 -0.22490672
v 0.13900000 0.09389948 -0.22490672
v 0.22490672 0.10558000 0.08590672
v 0.22490672 0.04442000 0.08590672
v 0.13900000 0.05610052 0.22490672
v 0.13900000 0.09389948 0.22490672
v 0.27800000 0.07500000 0.00000000
v -0.22490672 0.10558000 -0.08590672
v -0.22490672 0.04442000 -0.08590672
v -0.13900000 0.05610052 -0.22490672
v -0.13900000 0.09389948 -0.22490672
v -0.22490672 0.10558000 0.08590672
v -0.22490672 0.04442000 0.08590672
v -0.13900000 0.05610052 0.22490672
v -0.13900000 0.09389948 0.22490672
v -0.27800000 0.07500000 0.00000000
v -0.07596810 0.13383215 0.00000000
v 0.07596810 0.13383215 0.00000000
v -0.07596810 0.01616785 0.00000000
v 0.07596810 0.01616785 0.00000000
v -0.12062102 0.02223920 0.07224995
v -0.04465293 0.03256839 0.19516891
v -0.04516384 0.01683338 0.07307662
v 0.12062102 0.02223920 0.07224995
v 0.04465293 0.03256839 0.19516891
v 0.04516384 0.01683338 0.07307662
v 0.00000000 0.02297420 0.14615325
v -0.12062102 0.12776080 0.07224995
v -0.04465293 0.11743161 0.19516891
v -0.04516384 0.13316662 0.07307662
v 0.12062102 0.12776080 0.07224995
v 0.04465293 0.11743161 0.19516891
v 0.04516384 0.13316662 0.07307662
v 0.00000000 0.12702580 0.14615325
v 0.00000000 0.05828702 0.26741886
v 0.00000000 0.09171298 0.26741886
v -0.12062102 0.02223920 -0.07224995
v -0.04465293 0.03256839 -0.19516891
v -0.04516384 0.01683338 -0.07307662
v 0.12062102 0.02223920 -0.07224995
v 0.04465293 0.03256839 -0.19516891
v 0.04516384 0.01683338 -0.07307662
v 0.00000000 0.02297420 -0.14615325
v -0.12062102 0.12776080 -0.07224995
v -0.04465293 0.11743161 -0.19516891
v -0.04516384 0.13316662 -0.07307662
v 0.12062102 0.12776080 -0.07224995
v 0.04465293 0.11743161 -0.19516891
v 0.04516384 0.13316662 -0.07307662
v 0.00000000 0.12702580 -0.14615325
v 0.00000000 0.05828702 -0.26741886
v 0.00000000 0.09171298 -0.26741886
v 0.19287097 0.11793716 -0.04465293
v 0.23982184 0.09089499 -0.12062102
v 0.16340430 0.11708976 -0.11824046
v 0.19287097 0.03206284 -0.04465293
v 0.23982184 0.05910501 -0.12062102
v 0.16340430 0.03291024 -0.11824046
v 0.07224995 0.04846338 -0.23982184
v 0.19516891 0.06517636 -0.19287097
v 0.11824046 0.03905105 -0.19131709
v 0.07307662 0.06506396 -0.26439371
v 0.19131709 0.04898710 -0.16340430
v 0.07224995 0.10153662 -0.23982184
v 0.19516891 0.08482364 -0.19287097
v 0.11824046 0.11094895 -0.19131709
v 0.07307662 0.08493604 -0.26439371
v 0.19131709 0.10101290 -0.16340430
v 0.14615325 0.07500000 -0.23648092
v 0.19287097 0.11793716 0.04465293
v 0.23982184 0.09089499 0.12062102
v 0.16340430 0.11708976 0.11824046
v 0.23648092 0.10715371 0.00000000
v 0.19287097 0.03206284 0.04465293
v 0.23982184 0.05910501 0.12062102
v 0.16340430 0.03291024 0.11824046
v 0.23648092 0.04284629 0.00000000
v 0.07224995 0.04846338 0.23982184
v 0.19516891 0.06517636 0.19287097
v 0.11824046 0.03905105 0.19131709
v 0.07307662 0.06506396 0.26439371
v 0.19131709 0.04898710 0.16340430
v 0.07224995 0.10153662 0.23982184
v 0.19516891 0.08482364 0.19287097
v 0.11824046 0.11094895 0.19131709
v 0.07307662 0.08493604 0.26439371
v 0.19131709 0.10101290 0.16340430
v 0.14615325 0.07500000 0.23648092
v 0.26741886 0.07500000 -0.07596810
v 0.26741886 0.07500000 0.07596810
v 0.26439371 0.09107686 -0.04516384
v 0.26439371 0.05892314 -0.04516384
v 0.26439371 0.09107686 0.04516384
v 0.26439371 0.05892314 0.04516384
v -0.19287097 0.11793716 -0.04465293
v -0.23982184 0.09089499 -0.12062102
v -0.16340430 0.11708976 -0.11824046
v -0.19287097 0.03206284 -0.04465293
v -0.23982184 0.05910501 -0.12062102
v -0.16340430 0.03291024 -0.11824046
v -0.07224995 0.04846338 -0.23982184
v -0.19516891 0.06517636 -0.19287097
v -0.11824046 0.03905105 -0.19131709
v -0.07307662 0.06506396 -0.26439371
v -0.19131709 0.04898710 -0.16340430
v -0.07224995 0.10153662 -0.23982184
v -0.19516891 0.08482364 -0.19287097
v -0.11824046 0.11094895 -0.19131709
v -0.07307662 0.08493604 -0.26439371
v -0.19131709 0.10101290 -0.16340430
v -0.14615325 0.07500000 -0.23648092
v -0.19287097 0.11793716 0.04465293
v -0.23982184 0.09089499 0.12062102
v -0.16340430 0.11708976 0.11824046
v -0.23648092 0.10715371 0.00000000
v -0.19287097 0.03206284 0.04465293
v -0.23982184 0.05910501 0.12062102
v -0.16340430 0.03291024 0.11824046
v -0.23648092 0.04284629 0.00000000
v -0.07224995 0.04846338 0.23982184
v -0.19516891 0.06517636 0.19287097
v -0.11824046 0.03905105 0.19131709
v -0.07307662 0.06506396 0.26439371
v -0.19131709 0.04898710 0.16340430
v -0.07224995 0.10153662 0.23982184
v -0.19516891 0.08482364 0.19287097
v -0.11824046 0.11094895 0.19131709
v -0.07307662 0.08493604 0.26439371
v -0.19131709 0.10101290 0.16340430
v -0.14615325 0.07500000 0.23648092
v -0.26741886 0.07500000 -0.07596810
v -0.26741886 0.07500000 0.07596810
v -0.26439371 0.09107686 -0.04516384
v -0.26439371 0.05892314 -0.04516384
v -0.26439371 0.09107686 0.04516384
v -0.26439371 0.05892314 0.04516384
v -0.11213279 0.13096406 0.00000000
v -0.03835072 0.13557524 0.00000000
v 0.11213279 0.13096406 0.00000000
v 0.03835072 0.13557524 0.00000000
v -0.11213279 0.01903594 0.00000000
v -0.03835072 0.01442476 0.00000000
v 0.11213279 0.01903594 0.00000000
v 0.03835072 0.01442476 0.00000000
v -0.13467478 0.02210092 0.03647371
v -0.10426072 0.02338637 0.10664462
v -0.09958760 0.01846953 0.03660019
v -0.02254199 0.03734733 0.21790837
v -0.06591000 0.02860083 0.16869739
v -0.02286341 0.01459298 0.03699377
v -0.06635219 0.02050604 0.10736009
v -0.06119253 0.01589543 0.03691631
v -0.08374997 0.01896251 0.07341500
v 0.13467478 0.02210092 0.03647371
v 0.10426072 0.02338637 0.10664462
v 0.09958760 0.01846953 0.03660019
v 0.02254199 0.03734733 0.21790837
v 0.06591000 0.02860083 0.16869739
v 0.00000000 0.03201021 0.19773632
v 0.02286341 0.01459298 0.03699377
v 0.06635219 0.02050604 0.10736009
v 0.06119253 0.01589543 0.03691631
v 0.00000000 0.01605025 0.07406051
v 0.08374997 0.01896251 0.07341500
v -0.04348878 0.02361472 0.14435386
v 0.04348878 0.02361472 0.14435386
v -0.02255743 0.02728270 0.17242660
v -0.02288596 0.01916199 0.11109076
v 0.02255743 0.02728270 0.17242660
v 0.02288596 0.01916199 0.11109076
v -0.13467478 0.12789908 0.03647371
v -0.10426072 0.12661363 0.10664462
v -0.09958760 0.13153047 0.03660019
v -0.02254199 0.11265267 0.21790837
v -0.06591000 0.12139917 0.16869739
v -0.02286341 0.13540702 0.03699377
v -0.06635219 0.12949396 0.10736009
v -0.06119253 0.13410457 0.03691631
v -0.08374997 0.13103749 0.07341500
v 0.13467478 0.12789908 0.03647371
v 0.10426072 0.12661363 0.10664462
v 0.09958760 0.13153047 0.03660019
v 0.02254199 0.11265267 0.21790837
v 0.06591000 0.12139917 0.16869739
v 0.00000000 0.11798979 0.19773632
v 0.02286341 0.13540702 0.03699377
v 0.06635219 0.12949396 0.10736009
v 0.06119253 0.13410457 0.03691631
v 0.00000000 0.13394975 0.07406051
v 0.08374997 0.13103749 0.07341500
v -0.04348878 0.12638528 0.14435386
v 0.04348878 0.12638528 0.14435386
v -0.02255743 0.12271730 0.17242660
v -0.02288596 0.13083801 0.11109076
v 0.02255743 0.12271730 0.17242660
v 0.02288596 0.13083801 0.11109076
v 0.00000000 0.05033079 0.25438207
v 0.00000000 0.06656284 0.27534201
v 0.00000000 0.09966921 0.25438207
v 0.00000000 0.08343716 0.27534201
v -0.13467478 0.02210092 -0.03647371
v -0.10426072 0.02338637 -0.10664462
v -0.09958760 0.01846953 -0.03660019
v -0.02254199 0.03734733 -0.21790837
v -0.06591000 0.02860083 -0.16869739
v -0.02286341 0.01459298 -0.03699377
v -0.06635219 0.02050604 -0.10736009
v -0.06119253 0.01589543 -0.03691631
v -0.08374997 0.01896251 -0.07341500
v 0.13467478 0.02210092 -0.03647371
v 0.10426072 0.02338637 -0.10664462
v 0.09958760 0.01846953 -0.03660019
v 0.02254199 0.03734733 -0.21790837
v 0.06591000 0.02860083 -0.16869739
v 0.00000000 0.03201021 -0.19773632
v 0.02286341 0.01459298 -0.03699377
v 0.06635219 0.02050604 -0.10736009
v 0.06119253 0.01589543 -0.03691631
v 0.00000000 0.01605025 -0.07406051
v 0.08374997 0.01896251 -0.07341500
v -0.04348878 0.02361472 -0.14435386
v 0.04348878 0.02361472 -0.14435386
v -0.02255743 0.02728270 -0.17242660
v -0.02288596 0.01916199 -0.11109076
v 0.02255743 0.02728270 -0.17242660
v 0.02288596 0.01916199 -0.11109076
v -0.13467478 0.12789908 -0.03647371
v -0.10426072 0.12661363 -0.10664462
v -0.09958760 0.13153047 -0.03660019
v -0.02254199 0.11265267 -0.21790837
v -0.06591000 0.12139917 -0.16869739
v -0.02286341 0.13540702 -0.03699377
v -0.06635219 0.12949396 -0.10736009
v -0.06119253 0.13410457 -0.03691631
v -0.08374997 0.13103749 -0.07341500
v 0.13467478 0.12789908 -0.03647371
v 0.10426072 0.12661363 -0.10664462
v 0.09958760 0.13153047 -0.03660019
v 0.02254199 0.11265267 -0.21790837
v 0.06591000 0.12139917 -0.16869739
v 0.00000000 0.11798979 -0.19773632
v 0.02286341 0.13540702 -0.03699377
v 0.06635219 0.12949396 -0.10736009
v 0.06119253 0.13410457 -0.03691631
v 0.00000000 0.13394975 -0.07406051
v 0.08374997 0.13103749 -0.07341500
v -0.04348878 0.12638528 -0.14435386
v 0.04348878 0.12638528 -0.14435386
v -0.02255743 0.12271730 -0.17242660
v -0.02288596 0.13083801 -0.11109076
v 0.02255743 0.12271730 -0.17242660
v 0.02288596 0.13083801 -0.11109076
v 0.00000000 0.05033079 -0.25438207
v 0.00000000 0.06656284 -0.27534201
v 0.00000000 0.09966921 -0.25438207
v 0.00000000 0.08343716 -0.27534201
v 0.17114848 0.12293984 -0.02254199
v 0.21090534 0.11211343 -0.06591000
v 0.15880796 0.12347843 -0.05922036
v 0.24045036 0.08302422 -0.13467478
v 0.23460739 0.09846182 -0.10426072
v 0.12620936 0.12135533 -0.13022350
v 0.19657569 0.11178780 -0.10334595
v 0.14348181 0.12291591 -0.09623054
v 0.17998051 0.11795327 -0.08228928
v 0.17114848 0.02706016 -0.02254199
v 0.21090534 0.03788657 -0.06591000
v 0.15880796 0.02652157 -0.05922036
v 0.24045036 0.06697578 -0.13467478
v 0.23460739 0.05153818 -0.10426072
v 0.12620936 0.02864467 -0.13022350
v 0.19657569 0.03821220 -0.10334595
v 0.14348181 0.02708409 -0.09623054
v 0.17998051 0.03204673 -0.08228928
v 0.03647371 0.04537155 -0.24045036
v 0.10664462 0.05206264 -0.23460739
v 0.05922036 0.04006225 -0.22035649
v 0.03660019 0.05309073 -0.25695668
v 0.21790837 0.07004076 -0.17114848
v 0.16869739 0.06049980 -0.21090534
v 0.22035649 0.06197152 -0.15880796
v 0.10334595 0.03175335 -0.16721727
v 0.13022350 0.04723394 -0.21070605
v 0.08228928 0.03540429 -0.19524214
v 0.14271837 0.03545530 -0.15686267
v 0.09623054 0.04343400 -0.21779957
v 0.03699377 0.06997005 -0.27457736
v 0.10736009 0.06040252 -0.24769981
v 0.03691631 0.06153764 -0.26865714
v 0.07341500 0.05657501 -0.25471588
v 0.21070605 0.04635083 -0.12620936
v 0.16721727 0.05226389 -0.19657569
v 0.21779957 0.05382928 -0.14348181
v 0.17974863 0.04049021 -0.14271837
v 0.19524214 0.05689636 -0.17998051
v 0.15686267 0.04360196 -0.17974863
v 0.03647371 0.10462845 -0.24045036
v 0.10664462 0.09793736 -0.23460739
v 0.05922036 0.10993775 -0.22035649
v 0.03660019 0.09690927 -0.25695668
v 0.21790837 0.07995924 -0.17114848
v 0.16869739 0.08950020 -0.21090534
v 0.22035649 0.08802848 -0.15880796
v 0.19773632 0.07500000 -0.19540815
v 0.10334595 0.11824665 -0.16721727
v 0.13022350 0.10276606 -0.21070605
v 0.08228928 0.11459571 -0.19524214
v 0.14271837 0.11454470 -0.15686267
v 0.09623054 0.10656600 -0.21779957
v 0.03699377 0.08002995 -0.27457736
v 0.10736009 0.08959748 -0.24769981
v 0.03691631 0.08846236 -0.26865714
v 0.07406051 0.07500000 -0.26795343
v 0.07341500 0.09342499 -0.25471588
v 0.21070605 0.10364917 -0.12620936
v 0.16721727 0.09773611 -0.19657569
v 0.21779957 0.09617072 -0.14348181
v 0.17974863 0.10950979 -0.14271837
v 0.19524214 0.09310364 -0.17998051
v 0.15686267 0.10639804 -0.17974863
v 0.14435386 0.06543247 -0.23356945
v 0.14435386 0.08456753 -0.23356945
v 0.17242660 0.07003736 -0.21689682
v 0.11109076 0.06996509 -0.25380913
v 0.17242660 0.07996264 -0.21689682
v 0.11109076 0.08003491 -0.25380913
v 0.17114848 0.12293984 0.02254199
v 0.21090534 0.11211343 0.06591000
v 0.15880796 0.12347843 0.05922036
v 0.19540815 0.11850199 0.00000000
v 0.24045036 0.08302422 0.13467478
v 0.23460739 0.09846182 0.10426072
v 0.12620936 0.12135533 0.13022350
v 0.19657569 0.11178780 0.10334595
v 0.14348181 0.12291591 0.09623054
v 0.17998051 0.11795327 0.08228928
v 0.23356945 0.10675785 -0.04348878
v 0.23356945 0.10675785 0.04348878
v 0.21689682 0.11293385 -0.02255743
v 0.21689682 0.11293385 0.02255743
v 0.17114848 0.02706016 0.02254199
v 0.21090534 0.03788657 0.06591000
v 0.15880796 0.02652157 0.05922036
v 0.19540815 0.03149801 0.00000000
v 0.24045036 0.06697578 0.13467478
v 0.23460739 0.05153818 0.10426072
v 0.12620936 0.02864467 0.13022350
v 0.19657569 0.03821220 0.10334595
v 0.14348181 0.02708409 0.09623054
v 0.17998051 0.03204673 0.08228928
v 0.23356945 0.04324215 -0.04348878
v 0.23356945 0.04324215 0.04348878
v 0.21689682 0.03706615 -0.02255743
v 0.21689682 0.03706615 0.02255743
v 0.03647371 0.04537155 0.24045036
v 0.10664462 0.05206264 0.23460739
v 0.05922036 0.04006225 0.22035649
v 0.03660019 0.05309073 0.25695668
v 0.21790837 0.07004076 0.17114848
v 0.16869739 0.06049980 0.21090534
v 0.22035649 0.06197152 0.15880796
v 0.10334595 0.03175335 0.16721727
v 0.13022350 0.04723394 0.21070605
v 0.08228928 0.03540429 0.19524214
v 0.14271837 0.03545530 0.15686267
v 0.09623054 0.04343400 0.21779957
v 0.03699377 0.06997005 0.27457736
v 0.10736009 0.06040252 0.24769981
v 0.03691631 0.06153764 0.26865714
v 0.07341500 0.05657501 0.25471588
v 0.21070605 0.04635083 0.12620936
v 0.16721727 0.05226389 0.19657569
v 0.21779957 0.05382928 0.14348181
v 0.17974863 0.04049021 0.14271837
v 0.19524214 0.05689636 0.17998051
v 0.15686267 0.04360196 0.17974863
v 0.03647371 0.10462845 0.24045036
v 0.10664462 0.09793736 0.23460739
v 0.05922036 0.10993775 0.22035649
v 0.03660019 0.09690927 0.25695668
v 0.21790837 0.07995924 0.17114848
v 0.16869739 0.08950020 0.21090534
v 0.22035649 0.08802848 0.15880796
v 0.19773632 0.07500000 0.19540815
v 0.10334595 0.11824665 0.16721727
v 0.13022350 0.10276606 0.21070605
v 0.08228928 0.11459571 0.19524214
v 0.14271837 0.11454470 0.15686267
v 0.09623054 0.10656600 0.21779957
v 0.03699377 0.08002995 0.27457736
v 0.10736009 0.08959748 0.24769981
v 0.03691631 0.08846236 0.26865714
v 0.07406051 0.07500000 0.26795343
v 0.07341500 0.09342499 0.25471588
v 0.21070605 0.10364917 0.12620936
v 0.16721727 0.09773611 0.19657569
v 0.21779957 0.09617072 0.14348181
v 0.17974863 0.10950979 0.14271837
v 0.19524214 0.09310364 0.17998051
v 0.15686267 0.10639804 0.17974863
v 0.14435386 0.06543247 0.23356945
v 0.14435386 0.08456753 0.23356945
v 0.17242660 0.07003736 0.21689682
v 0.11109076 0.06996509 0.25380913
v 0.17242660 0.07996264 0.21689682
v 0.11109076 0.08003491 0.25380913
v 0.25438207 0.07500000 -0.11213279
v 0.27534201 0.07500000 -0.03835072
v 0.25695668 0.08305204 -0.09958760
v 0.25695668 0.06694796 -0.09958760
v 0.25438207 0.07500000 0.11213279
v 0.27534201 0.07500000 0.03835072
v 0.25695668 0.08305204 0.09958760
v 0.25695668 0.06694796 0.09958760
v 0.24769981 0.09861922 -0.06635219
v 0.27457736 0.08313863 -0.02286341
v 0.25471588 0.09115130 -0.08374997
v 0.25380913 0.09943997 -0.02288596
v 0.26865714 0.08312159 -0.06119253
v 0.24769981 0.05138078 -0.06635219
v 0.27457736 0.06686137 -0.02286341
v 0.25471588 0.05884870 -0.08374997
v 0.25380913 0.05056003 -0.02288596
v 0.26865714 0.06687841 -0.06119253
v 0.24769981 0.09861922 0.06635219
v 0.27457736 0.08313863 0.02286341
v 0.25471588 0.09115130 0.08374997
v 0.25380913 0.09943997 0.02288596
v 0.26865714 0.08312159 0.06119253
v 0.26795343 0.09129331 0.00000000
v 0.24769981 0.05138078 0.06635219
v 0.27457736 0.06686137 0.02286341
v 0.25471588 0.05884870 0.08374997
v 0.25380913 0.05056003 0.02288596
v 0.26865714 0.06687841 0.06119253
v 0.26795343 0.05870669 0.00000000
v -0.17114848 0.12293984 -0.02254199
v -0.21090534 0.11211343 -0.06591000
v -0.15880796 0.12347843 -0.05922036
v -0.24045036 0.08302422 -0.13467478
v -0.23460739 0.09846182 -0.10426072
v -0.12620936 0.12135533 -0.13022350
v -0.19657569 0.11178780 -0.10334595
v -0.14348181 0.12291591 -0.09623054
v -0.17998051 0.11795327 -0.08228928
v -0.17114848 0.02706016 -0.02254199
v -0.21090534 0.03788657 -0.06591000
v -0.15880796 0.02652157 -0.05922036
v -0.24045036 0.06697578 -0.13467478
v -0.23460739 0.05153818 -0.10426072
v -0.12620936 0.02864467 -0.13022350
v -0.19657569 0.03821220 -0.10334595
v -0.14348181 0.02708409 -0.09623054
v -0.17998051 0.03204673 -0.08228928
v -0.03647371 0.04537155 -0.24045036
v -0.10664462 0.05206264 -0.23460739
v -0.05922036 0.04006225 -0.22035649
v -0.03660019 0.05309073 -0.25695668
v -0.21790837 0.07004076 -0.17114848
v -0.16869739 0.06049980 -0.21090534
v -0.22035649 0.06197152 -0.15880796
v -0.10334595 0.03175335 -0.16721727
v -0.13022350 0.04723394 -0.21070605
v -0.08228928 0.03540429 -0.19524214
v -0.14271837 0.03545530 -0.15686267
v -0.09623054 0.04343400 -0.21779957
v -0.03699377 0.06997005 -0.27457736
v -0.10736009 0.06040252 -0.24769981
v -0.03691631 0.06153764 -0.26865714
v -0.07341500 0.05657501 -0.25471588
v -0.21070605 0.04635083 -0.12620936
v -0.16721727 0.05226389 -0.19657569
v -0.21779957 0.05382928 -0.14348181
v -0.17974863 0.04049021 -0.14271837
v -0.19524214 0.05689636 -0.17998051
v -0.15686267 0.04360196 -0.17974863
v -0.03647371 0.10462845 -0.24045036
v -0.10664462 0.09793736 -0.23460739
v -0.05922036 0.10993775 -0.22035649
v -0.03660019 0.09690927 -0.25695668
v -0.21790837 0.07995924 -0.17114848
v -0.16869739 0.08950020 -0.21090534
v -0.22035649 0.08802848 -0.15880796
v -0.19773632 0.07500000 -0.19540815
v -0.10334595 0.11824665 -0.16721727
v -0.13022350 0.10276606 -0.21070605
v -0.08228928 0.11459571 -0.19524214
v -0.14271837 0.11454470 -0.15686267
v -0.09623054 0.10656600 -0.21779957
v -0.03699377 0.08002995 -0.27457736
v -0.10736009 0.08959748 -0.24769981
v -0.03691631 0.08846236 -0.26865714
v -0.07406051 0.07500000 -0.26795343
v -0.07341500 0.09342499 -0.25471588
v -0.21070605 0.10364917 -0.12620936
v -0.16721727 0.09773611 -0.19657569
v -0.21779957 0.09617072 -0.14348181
v -0.17974863 0.10950979 -0.14271837
v -0.19524214 0.09310364 -0.17998051
v -0.15686267 0.10639804 -0.17974863
v -0.14435386 0.06543247 -0.23356945
v -0.14435386 0.08456753 -0.23356945
v -0.17242660 0.07003736 -0.21689682
v -0.11109076 0.06996509 -0.25380913
v -0.17242660 0.07996264 -0.21689682
v -0.11109076 0.08003491 -0.25380913
v -0.17114848 0.12293984 0.02254199
v -0.21090534 0.11211343 0.06591000
v -0.15880796 0.12347843 0.05922036
v -0.19540815 0.11850199 0.00000000
v -0.24045036 0.08302422 0.13467478
v -0.23460739 0.09846182 0.10426072
v -0.12620936 0.12135533 0.13022350
v -0.19657569 0.11178780 0.10334595
v -0.14348181 0.12291591 0.09623054
v -0.17998051 0.11795327 0.08228928
v -0.23356945 0.10675785 -0.04348878
v -0.23356945 0.10675785 0.04348878
v -0.21689682 0.11293385 -0.02255743
v -0.21689682 0.11293385 0.02255743
v -0.17114848 0.02706016 0.02254199
v -0.21090534 0.03788657 0.06591000
v -0.15880796 0.02652157 0.05922036
v -0.19540815 0.03149801 0.00000000
v -0.24045036 0.06697578 0.13467478
v -0.23460739 0.05153818 0.10426072
v -0.12620936 0.02864467 0.13022350
v -0.19657569 0.03821220 0.10334595
v -0.14348181 0.02708409 0.09623054
v -0.17998051 0.03204673 0.08228928
v -0.23356945 0.04324215 -0.04348878
v -0.23356945 0.04324215 0.04348878
v -0.21689682 0.03706615 -0.02255743
v -0.21689682 0.03706615 0.02255743
v -0.03647371 0.04537155 0.24045036
v -0.10664462 0.05206264 0.23460739
v -0.05922036 0.04006225 0.22035649
v -0.03660019 0.05309073 0.25695668
v -0.21790837 0.07004076 0.17114848
v -0.16869739 0.06049980 0.21090534
v -0.22035649 0.06197152 0.15880796
v -0.10334595 0.03175335 0.16721727
v -0.13022350 0.04723394 0.21070605
v -0.08228928 0.03540429 0.19524214
v -0.14271837 0.03545530 0.15686267
v -0.09623054 0.04343400 0.21779957
v -0.03699377 0.06997005 0.27457736
v -0.10736009 0.06040252 0.24769981
v -0.03691631 0.06153764 0.26865714
v -0.07341500 0.05657501 0.25471588
v -0.21070605 0.04635083 0.12620936
v -0.16721727 0.05226389 0.19657569
v -0.21779957 0.05382928 0.14348181
v -0.17974863 0.04049021 0.14271837
v -0.19524214 0.05689636 0.17998051
v -0.15686267 0.04360196 0.17974863
v -0.03647371 0.10462845 0.24045036
v -0.10664462 0.09793736 0.23460739
v -0.05922036 0.10993775 0.22035649
v -0.03660019 0.09690927 0.25695668
v -0.21790837 0.07995924 0.17114848
v -0.16869739 0.08950020 0.21090534
v -0.22035649 0.08802848 0.15880796
v -0.19773632 0.07500000 0.19540815
v -0.10334595 0.11824665 0.16721727
v -0.13022350 0.10276606 0.21070605
v -0.08228928 0.11459571 0.19524214
v -0.14271837 0.11454470 0.15686267
v -0.09623054 0.10656600 0.21779957
v -0.03699377 0.08002995 0.27457736
v -0.10736009 0.08959748 0.24769981
v -0.03691631 0.08846236 0.26865714
v -0.07406051 0.07500000 0.26795343
v -0.07341500 0.09342499 0.25471588
v -0.21070605 0.10364917 0.12620936
v -0.16721727 0.09773611 0.19657569
v -0.21779957 0.09617072 0.14348181
v -0.17974863 0.10950979 0.14271837
v -0.19524214 0.09310364 0.17998051
v -0.15686267 0.10639804 0.17974863
v -0.14435386 0.06543247 0.23356945
v -0.14435386 0.08456753 0.23356945
v -0.17242660 0.07003736 0.21689682
v -0.11109076 0.06996509 0.25380913
v -0.17242660 0.07996264 0.21689682
v -0.11109076 0.08003491 0.25380913
v -0.25438207 0.07500000 -0.11213279
v -0.27534201 0.07500000 -0.03835072
v -0.25695668 0.08305204 -0.09958760
v -0.25695668 0.06694796 -0.09958760
v -0.25438207 0.07500000 0.11213279
v -0.27534201 0.07500000 0.03835072
v -0.25695668 0.08305204 0.09958760
v -0.25695668 0.06694796 0.09958760
v -0.24769981 0.09861922 -0.06635219
v -0.27457736 0.08313863 -0.02286341
v -0.25471588 0.09115130 -0.08374997
v -0.25380913 0.09943997 -0.02288596
v -0.26865714 0.08312159 -0.06119253
v -0.24769981 0.05138078 -0.06635219
v -0.27457736 0.06686137 -0.02286341
v -0.25471588 0.05884870 -0.08374997
v -0.25380913 0.05056003 -0.02288596
v -0.26865714 0.06687841 -0.06119253
v -0.24769981 0.09861922 0.06635219
v -0.27457736 0.08313863 0.02286341
v -0.25471588 0.09115130 0.08374997
v -0.25380913 0.09943997 0.02288596
v -0.26865714 0.08312159 0.06119253
v -0.26795343 0.09129331 0.00000000
v -0.24769981 0.05138078 0.06635219
v -0.27457736 0.06686137 0.02286341
v -0.25471588 0.05884870 0.08374997
v -0.25380913 0.05056003 0.02288596
v -0.26865714 0.06687841 0.06119253
v -0.26795343 0.05870669 0.00000000
f 641 1173 837
f 1173 778 1175
f 837 1175 694
f 1173 1175 837
f 778 1174 1182
f 1174 678 1180
f 1182 1180 780
f 1174 1180 1182
f 694 1181 838
f 1181 780 1179
f 838 1179 657
f 1181 1179 838
f 778 1182 1175
f 1182 780 1181
f 1175 1181 694
f 1182 1181 1175
f 678 1178 1241
f 1178 779 1243
f 1241 1243 795
f 1178 1243 1241
f 779 1177 1229
f 1177 652 1227
f 1229 1227 792
f 1177 1227 1229
f 795 1245 1242
f 1245 792 1228
f 1242 1228 681
f 1245 1228 1242
f 779 1229 1243
f 1229 792 1245
f 1243 1245 795
f 1229 1245 1243
f 657 1231 841
f 1231 793 1233
f 841 1233 695
f 1231 1233 841
f 793 1232 1235
f 1232 681 1224
f 1235 1224 791
f 1232 1224 1235
f 695 1225 840
f 1225 791 1223
f 840 1223 646
f 1225 1223 840
f 793 1235 1233
f 1235 791 1225
f 1233 1225 695
f 1235 1225 1233
f 678 1241 1180
f 1241 795 1244
f 1180 1244 780
f 1241 1244 1180
f 795 1242 1246
f 1242 681 1232
f 1246 1232 793
f 1242 1232 1246
f 780 1234 1179
f 1234 793 1231
f 1179 1231 657
f 1234 1231 1179
f 795 1246 1244
f 1246 793 1234
f 1244 1234 780
f 1246 1234 1244
f 641 837 803
f 837 694 839
f 803 839 683
f 837 839 803
f 694 838 845
f 838 657 843
f 845 843 696
f 838 843 845
f 683 844 804
f 844 696 842
f 804 842 653
f 844 842 804
f 694 845 839
f 845 696 844
f 839 844 683
f 845 844 839
f 657 841 857
f 841 695 859
f 857 859 700
f 841 859 857
f 695 840 851
f 840 646 849
f 851 849 698
f 840 849 851
f 700 861 858
f 861 698 850
f 858 850 658
f 861 850 858
f 695 851 859
f 851 698 861
f 859 861 700
f 851 861 859
f 653 852 806
f 852 699 854
f 806 854 684
f 852 854 806
f 699 853 856
f 853 658 847
f 856 847 697
f 853 847 856
f 684 848 805
f 848 697 846
f 805 846 642
f 848 846 805
f 699 856 854
f 856 697 848
f 854 848 684
f 856 848 854
f 657 857 843
f 857 700 860
f 843 860 696
f 857 860 843
f 700 858 862
f 858 658 853
f 862 853 699
f 858 853 862
f 696 855 842
f 855 699 852
f 842 852 653
f 855 852 842
f 700 862 860
f 862 699 855
f 860 855 696
f 862 855 860
f 641 803 893
f 803 683 895
f 893 895 710
f 803 895 893
f 683 804 900
f 804 653 898
f 900 898 712
f 804 898 900
f 710 901 894
f 901 712 899
f 894 899 662
f 901 899 894
f 683 900 895
f 900 712 901
f 895 901 710
f 900 901 895
f 653 806 908
f 806 684 910
f 908 910 715
f 806 910 908
f 684 805 904
f 805 642 902
f 904 902 713
f 805 902 904
f 715 912 909
f 912 713 903
f 909 903 663
f 912 903 909
f 684 904 910
f 904 713 912
f 910 912 715
f 904 912 910
f 662 913 897
f 913 716 915
f 897 915 711
f 913 915 897
f 716 914 917
f 914 663 906
f 917 906 714
f 914 906 917
f 711 907 896
f 907 714 905
f 896 905 648
f 907 905 896
f 716 917 915
f 917 714 907
f 915 907 711
f 917 907 915
f 653 908 898
f 908 715 911
f 898 911 712
f 908 911 898
f 715 909 918
f 909 663 914
f 918 914 716
f 909 914 918
f 712 916 899
f 916 716 913
f 899 913 662
f 916 913 899
f 715 918 911
f 918 716 916
f 911 916 712
f 918 916 911
f 641 893 1103
f 893 710 1105
f 1103 1105 761
f 893 1105 1103
f 710 894 1110
f 894 662 1108
f 1110 1108 763
f 894 1108 1110
f 761 1111 1104
f 1111 763 1109
f 1104 1109 674
f 1111 1109 1104
f 710 1110 1105
f 1110 763 1111
f 1105 1111 761
f 1110 1111 1105
f 662 897 1151
f 897 711 1153
f 1151 1153 774
f 897 1153 1151
f 711 896 1145
f 896 648 1143
f 1145 1143 772
f 896 1143 1145
f 774 1155 1152
f 1155 772 1144
f 1152 1144 677
f 1155 1144 1152
f 711 1145 1153
f 1145 772 1155
f 1153 1155 774
f 1145 1155 1153
f 674 1161 1107
f 1161 776 1163
f 1107 1163 762
f 1161 1163 1107
f 776 1162 1165
f 1162 677 1148
f 1165 1148 773
f 1162 1148 1165
f 762 1149 1106
f 1149 773 1147
f 1106 1147 651
f 1149 1147 1106
f 776 1165 1163
f 1165 773 1149
f 1163 1149 762
f 1165 1149 1163
f 662 1151 1108
f 1151 774 1154
f 1108 1154 763
f 1151 1154 1108
f 774 1152 1166
f 1152 677 1162
f 1166 1162 776
f 1152 1162 1166
f 763 1164 1109
f 1164 776 1161
f 1109 1161 674
f 1164 1161 1109
f 774 1166 1154
f 1166 776 1164
f 1154 1164 763
f 1166 1164 1154
f 641 1103 1173
f 1103 761 1176
f 1173 1176 778
f 1103 1176 1173
f 761 1104 1185
f 1104 674 1183
f 1185 1183 781
f 1104 1183 1185
f 778 1186 1174
f 1186 781 1184
f 1174 1184 678
f 1186 1184 1174
f 761 1185 1176
f 1185 781 1186
f 1176 1186 778
f 1185 1186 1176
f 674 1107 1261
f 1107 762 1263
f 1261 1263 799
f 1107 1263 1261
f 762 1106 1255
f 1106 651 1253
f 1255 1253 797
f 1106 1253 1255
f 799 1265 1262
f 1265 797 1254
f 1262 1254 682
f 1265 1254 1262
f 762 1255 1263
f 1255 797 1265
f 1263 1265 799
f 1255 1265 1263
f 678 1271 1178
f 1271 801 1273
f 1178 1273 779
f 1271 1273 1178
f 801 1272 1275
f 1272 682 1258
f 1275 1258 798
f 1272 1258 1275
f 779 1259 1177
f 1259 798 1257
f 1177 1257 652
f 1259 1257 1177
f 801 1275 1273
f 1275 798 1259
f 1273 1259 779
f 1275 1259 1273
f 674 1261 1183
f 1261 799 1264
f 1183 1264 781
f 1261 1264 1183
f 799 1262 1276
f 1262 682 1272
f 1276 1272 801
f 1262 1272 1276
f 781 1274 1184
f 1274 801 1271
f 1184 1271 678
f 1274 1271 1184
f 799 1276 1264
f 1276 801 1274
f 1264 1274 781
f 1276 1274 1264
f 642 846 993
f 846 697 995
f 993 995 736
f 846 995 993
f 697 847 1001
f 847 658 999
f 1001 999 738
f 847 999 1001
f 736 1002 994
f 1002 738 1000
f 994 1000 669
f 1002 1000 994
f 697 1001 995
f 1001 738 1002
f 995 1002 736
f 1001 1002 995
f 658 850 1051
f 850 698 1053
f 1051 1053 751
f 850 1053 1051
f 698 849 1045
f 849 646 1043
f 1045 1043 749
f 849 1043 1045
f 751 1055 1052
f 1055 749 1044
f 1052 1044 672
f 1055 1044 1052
f 698 1045 1053
f 1045 749 1055
f 1053 1055 751
f 1045 1055 1053
f 669 1061 998
f 1061 753 1063
f 998 1063 737
f 1061 1063 998
f 753 1062 1065
f 1062 672 1048
f 1065 1048 750
f 1062 1048 1065
f 737 1049 997
f 1049 750 1047
f 997 1047 650
f 1049 1047 997
f 753 1065 1063
f 1065 750 1049
f 1063 1049 737
f 1065 1049 1063
f 658 1051 999
f 1051 751 1054
f 999 1054 738
f 1051 1054 999
f 751 1052 1066
f 1052 672 1062
f 1066 1062 753
f 1052 1062 1066
f 738 1064 1000
f 1064 753 1061
f 1000 1061 669
f 1064 1061 1000
f 751 1066 1054
f 1066 753 1064
f 1054 1064 738
f 1066 1064 1054
f 646 1223 865
f 1223 791 1226
f 865 1226 702
f 1223 1226 865
f 791 1224 1240
f 1224 681 1237
f 1240 1237 794
f 1224 1237 1240
f 702 1238 866
f 1238 794 1236
f 866 1236 659
f 1238 1236 866
f 791 1240 1226
f 1240 794 1238
f 1226 1238 702
f 1240 1238 1226
f 681 1228 1248
f 1228 792 1251
f 1248 1251 796
f 1228 1251 1248
f 792 1227 1230
f 1227 652 1205
f 1230 1205 787
f 1227 1205 1230
f 796 1249 1247
f 1249 787 1206
f 1247 1206 680
f 1249 1206 1247
f 792 1230 1251
f 1230 787 1249
f 1251 1249 796
f 1230 1249 1251
f 659 1213 864
f 1213 789 1215
f 864 1215 701
f 1213 1215 864
f 789 1214 1216
f 1214 680 1202
f 1216 1202 786
f 1214 1202 1216
f 701 1204 863
f 1204 786 1201
f 863 1201 645
f 1204 1201 863
f 789 1216 1215
f 1216 786 1204
f 1215 1204 701
f 1216 1204 1215
f 681 1248 1237
f 1248 796 1252
f 1237 1252 794
f 1248 1252 1237
f 796 1247 1250
f 1247 680 1214
f 1250 1214 789
f 1247 1214 1250
f 794 1239 1236
f 1239 789 1213
f 1236 1213 659
f 1239 1213 1236
f 796 1250 1252
f 1250 789 1239
f 1252 1239 794
f 1250 1239 1252
f 652 1257 1191
f 1257 798 1260
f 1191 1260 783
f 1257 1260 1191
f 798 1258 1281
f 1258 682 1278
f 1281 1278 802
f 1258 1278 1281
f 783 1279 1192
f 1279 802 1277
f 1192 1277 679
f 1279 1277 1192
f 798 1281 1260
f 1281 802 1279
f 1260 1279 783
f 1281 1279 1260
f 682 1254 1267
f 1254 797 1270
f 1267 1270 800
f 1254 1270 1267
f 797 1253 1256
f 1253 651 1115
f 1256 1115 765
f 1253 1115 1256
f 800 1268 1266
f 1268 765 1116
f 1266 1116 675
f 1268 1116 1266
f 797 1256 1270
f 1256 765 1268
f 1270 1268 800
f 1256 1268 1270
f 679 1198 1188
f 1198 785 1200
f 1188 1200 782
f 1198 1200 1188
f 785 1197 1199
f 1197 675 1113
f 1199 1113 764
f 1197 1113 1199
f 782 1190 1187
f 1190 764 1112
f 1187 1112 643
f 1190 1112 1187
f 785 1199 1200
f 1199 764 1190
f 1200 1190 782
f 1199 1190 1200
f 682 1267 1278
f 1267 800 1282
f 1278 1282 802
f 1267 1282 1278
f 800 1266 1269
f 1266 675 1197
f 1269 1197 785
f 1266 1197 1269
f 802 1280 1277
f 1280 785 1198
f 1277 1198 679
f 1280 1198 1277
f 800 1269 1282
f 1269 785 1280
f 1282 1280 802
f 1269 1280 1282
f 651 1147 1125
f 1147 773 1150
f 1125 1150 768
f 1147 1150 1125
f 773 1148 1171
f 1148 677 1168
f 1171 1168 777
f 1148 1168 1171
f 768 1169 1126
f 1169 777 1167
f 1126 1167 676
f 1169 1167 1126
f 773 1171 1150
f 1171 777 1169
f 1150 1169 768
f 1171 1169 1150
f 677 1144 1157
f 1144 772 1160
f 1157 1160 775
f 1144 1160 1157
f 772 1143 1146
f 1143 648 921
f 1146 921 718
f 1143 921 1146
f 775 1158 1156
f 1158 718 922
f 1156 922 664
f 1158 922 1156
f 772 1146 1160
f 1146 718 1158
f 1160 1158 775
f 1146 1158 1160
f 676 1134 1122
f 1134 770 1136
f 1122 1136 767
f 1134 1136 1122
f 770 1133 1135
f 1133 664 920
f 1135 920 717
f 1133 920 1135
f 767 1124 1121
f 1124 717 919
f 1121 919 647
f 1124 919 1121
f 770 1135 1136
f 1135 717 1124
f 1136 1124 767
f 1135 1124 1136
f 677 1157 1168
f 1157 775 1172
f 1168 1172 777
f 1157 1172 1168
f 775 1156 1159
f 1156 664 1133
f 1159 1133 770
f 1156 1133 1159
f 777 1170 1167
f 1170 770 1134
f 1167 1134 676
f 1170 1134 1167
f 775 1159 1172
f 1159 770 1170
f 1172 1170 777
f 1159 1170 1172
f 648 905 963
f 905 714 965
f 963 965 730
f 905 965 963
f 714 906 973
f 906 663 971
f 973 971 732
f 906 971 973
f 730 975 964
f 975 732 972
f 964 972 668
f 975 972 964
f 714 973 965
f 973 732 975
f 965 975 730
f 973 975 965
f 663 903 928
f 903 713 930
f 928 930 721
f 903 930 928
f 713 902 925
f 902 642 923
f 925 923 719
f 902 923 925
f 721 931 929
f 931 719 924
f 929 924 665
f 931 924 929
f 713 925 930
f 925 719 931
f 930 931 721
f 925 931 930
f 668 982 968
f 982 734 985
f 968 985 731
f 982 985 968
f 734 981 983
f 981 665 927
f 983 927 720
f 981 927 983
f 731 969 967
f 969 720 926
f 967 926 649
f 969 926 967
f 734 983 985
f 983 720 969
f 985 969 731
f 983 969 985
f 663 928 971
f 928 721 974
f 971 974 732
f 928 974 971
f 721 929 984
f 929 665 981
f 984 981 734
f 929 981 984
f 732 986 972
f 986 734 982
f 972 982 668
f 986 982 972
f 721 984 974
f 984 734 986
f 974 986 732
f 984 986 974
f 644 1007 820
f 1007 740 1009
f 820 1009 690
f 1007 1009 820
f 740 1008 1016
f 1008 670 1014
f 1016 1014 742
f 1008 1014 1016
f 690 1015 821
f 1015 742 1013
f 821 1013 656
f 1015 1013 821
f 740 1016 1009
f 1016 742 1015
f 1009 1015 690
f 1016 1015 1009
f 670 1012 1037
f 1012 741 1039
f 1037 1039 748
f 1012 1039 1037
f 741 1011 1027
f 1011 650 1025
f 1027 1025 745
f 1011 1025 1027
f 748 1041 1038
f 1041 745 1026
f 1038 1026 671
f 1041 1026 1038
f 741 1027 1039
f 1027 745 1041
f 1039 1041 748
f 1027 1041 1039
f 656 1028 824
f 1028 746 1030
f 824 1030 691
f 1028 1030 824
f 746 1029 1032
f 1029 671 1022
f 1032 1022 744
f 1029 1022 1032
f 691 1023 823
f 1023 744 1021
f 823 1021 645
f 1023 1021 823
f 746 1032 1030
f 1032 744 1023
f 1030 1023 691
f 1032 1023 1030
f 670 1037 1014
f 1037 748 1040
f 1014 1040 742
f 1037 1040 1014
f 748 1038 1042
f 1038 671 1029
f 1042 1029 746
f 1038 1029 1042
f 742 1031 1013
f 1031 746 1028
f 1013 1028 656
f 1031 1028 1013
f 748 1042 1040
f 1042 746 1031
f 1040 1031 742
f 1042 1031 1040
f 644 820 809
f 820 690 822
f 809 822 686
f 820 822 809
f 690 821 830
f 821 656 827
f 830 827 692
f 821 827 830
f 686 828 810
f 828 692 826
f 810 826 654
f 828 826 810
f 690 830 822
f 830 692 828
f 822 828 686
f 830 828 822
f 656 824 832
f 824 691 835
f 832 835 693
f 824 835 832
f 691 823 825
f 823 645 814
f 825 814 688
f 823 814 825
f 693 833 831
f 833 688 815
f 831 815 655
f 833 815 831
f 691 825 835
f 825 688 833
f 835 833 693
f 825 833 835
f 654 816 808
f 816 689 818
f 808 818 685
f 816 818 808
f 689 817 819
f 817 655 812
f 819 812 687
f 817 812 819
f 685 813 807
f 813 687 811
f 807 811 643
f 813 811 807
f 689 819 818
f 819 687 813
f 818 813 685
f 819 813 818
f 656 832 827
f 832 693 836
f 827 836 692
f 832 836 827
f 693 831 834
f 831 655 817
f 834 817 689
f 831 817 834
f 692 829 826
f 829 689 816
f 826 816 654
f 829 816 826
f 693 834 836
f 834 689 829
f 836 829 692
f 834 829 836
f 644 809 876
f 809 686 878
f 876 878 706
f 809 878 876
f 686 810 884
f 810 654 882
f 884 882 708
f 810 882 884
f 706 886 877
f 886 708 883
f 877 883 661
f 886 883 877
f 686 884 878
f 884 708 886
f 878 886 706
f 884 886 878
f 654 808 872
f 808 685 874
f 872 874 705
f 808 874 872
f 685 807 869
f 807 643 867
f 869 867 703
f 807 867 869
f 705 875 873
f 875 703 868
f 873 868 660
f 875 868 873
f 685 869 874
f 869 703 875
f 874 875 705
f 869 875 874
f 661 888 880
f 888 709 891
f 880 891 707
f 888 891 880
f 709 887 889
f 887 660 871
f 889 871 704
f 887 871 889
f 707 881 879
f 881 704 870
f 879 870 647
f 881 870 879
f 709 889 891
f 889 704 881
f 891 881 707
f 889 881 891
f 654 872 882
f 872 705 885
f 882 885 708
f 872 885 882
f 705 873 890
f 873 660 887
f 890 887 709
f 873 887 890
f 708 892 883
f 892 709 888
f 883 888 661
f 892 888 883
f 705 890 885
f 890 709 892
f 885 892 708
f 890 892 885
f 644 876 932
f 876 706 934
f 932 934 722
f 876 934 932
f 706 877 939
f 877 661 937
f 939 937 724
f 877 937 939
f 722 940 933
f 940 724 938
f 933 938 666
f 940 938 933
f 706 939 934
f 939 724 940
f 934 940 722
f 939 940 934
f 661 880 948
f 880 707 950
f 948 950 727
f 880 950 948
f 707 879 943
f 879 647 941
f 943 941 725
f 879 941 943
f 727 952 949
f 952 725 942
f 949 942 667
f 952 942 949
f 707 943 950
f 943 725 952
f 950 952 727
f 943 952 950
f 666 957 936
f 957 729 959
f 936 959 723
f 957 959 936
f 729 958 961
f 958 667 946
f 961 946 726
f 958 946 961
f 723 947 935
f 947 726 945
f 935 945 649
f 947 945 935
f 729 961 959
f 961 726 947
f 959 947 723
f 961 947 959
f 661 948 937
f 948 727 951
f 937 951 724
f 948 951 937
f 727 949 962
f 949 667 958
f 962 958 729
f 949 958 962
f 724 960 938
f 960 729 957
f 938 957 666
f 960 957 938
f 727 962 951
f 962 729 960
f 951 960 724
f 962 960 951
f 644 932 1007
f 932 722 1010
f 1007 1010 740
f 932 1010 1007
f 722 933 1019
f 933 666 1017
f 1019 1017 743
f 933 1017 1019
f 740 1020 1008
f 1020 743 1018
f 1008 1018 670
f 1020 1018 1008
f 722 1019 1010
f 1019 743 1020
f 1010 1020 740
f 1019 1020 1010
f 666 936 1086
f 936 723 1088
f 1086 1088 758
f 936 1088 1086
f 723 935 1076
f 935 649 1073
f 1076 1073 755
f 935 1073 1076
f 758 1090 1087
f 1090 755 1074
f 1087 1074 673
f 1090 1074 1087
f 723 1076 1088
f 1076 755 1090
f 1088 1090 758
f 1076 1090 1088
f 670 1097 1012
f 1097 760 1099
f 1012 1099 741
f 1097 1099 1012
f 760 1098 1101
f 1098 673 1078
f 1101 1078 756
f 1098 1078 1101
f 741 1080 1011
f 1080 756 1077
f 1011 1077 650
f 1080 1077 1011
f 760 1101 1099
f 1101 756 1080
f 1099 1080 741
f 1101 1080 1099
f 666 1086 1017
f 1086 758 1089
f 1017 1089 743
f 1086 1089 1017
f 758 1087 1102
f 1087 673 1098
f 1102 1098 760
f 1087 1098 1102
f 743 1100 1018
f 1100 760 1097
f 1018 1097 670
f 1100 1097 1018
f 758 1102 1089
f 1102 760 1100
f 1089 1100 743
f 1102 1100 1089
f 645 1021 863
f 1021 744 1024
f 863 1024 701
f 1021 1024 863
f 744 1022 1036
f 1022 671 1034
f 1036 1034 747
f 1022 1034 1036
f 701 1035 864
f 1035 747 1033
f 864 1033 659
f 1035 1033 864
f 744 1036 1024
f 1036 747 1035
f 1024 1035 701
f 1036 1035 1024
f 671 1026 1067
f 1026 745 1069
f 1067 1069 754
f 1026 1069 1067
f 745 1025 1050
f 1025 650 1047
f 1050 1047 750
f 1025 1047 1050
f 754 1071 1068
f 1071 750 1048
f 1068 1048 672
f 1071 1048 1068
f 745 1050 1069
f 1050 750 1071
f 1069 1071 754
f 1050 1071 1069
f 659 1056 866
f 1056 752 1058
f 866 1058 702
f 1056 1058 866
f 752 1057 1060
f 1057 672 1044
f 1060 1044 749
f 1057 1044 1060
f 702 1046 865
f 1046 749 1043
f 865 1043 646
f 1046 1043 865
f 752 1060 1058
f 1060 749 1046
f 1058 1046 702
f 1060 1046 1058
f 671 1067 1034
f 1067 754 1070
f 1034 1070 747
f 1067 1070 1034
f 754 1068 1072
f 1068 672 1057
f 1072 1057 752
f 1068 1057 1072
f 747 1059 1033
f 1059 752 1056
f 1033 1056 659
f 1059 1056 1033
f 754 1072 1070
f 1072 752 1059
f 1070 1059 747
f 1072 1059 1070
f 643 811 1187
f 811 687 1189
f 1187 1189 782
f 811 1189 1187
f 687 812 1195
f 812 655 1193
f 1195 1193 784
f 812 1193 1195
f 782 1196 1188
f 1196 784 1194
f 1188 1194 679
f 1196 1194 1188
f 687 1195 1189
f 1195 784 1196
f 1189 1196 782
f 1195 1196 1189
f 655 815 1208
f 815 688 1210
f 1208 1210 788
f 815 1210 1208
f 688 814 1203
f 814 645 1201
f 1203 1201 786
f 814 1201 1203
f 788 1212 1209
f 1212 786 1202
f 1209 1202 680
f 1212 1202 1209
f 688 1203 1210
f 1203 786 1212
f 1210 1212 788
f 1203 1212 1210
f 679 1217 1192
f 1217 790 1219
f 1192 1219 783
f 1217 1219 1192
f 790 1218 1221
f 1218 680 1206
f 1221 1206 787
f 1218 1206 1221
f 783 1207 1191
f 1207 787 1205
f 1191 1205 652
f 1207 1205 1191
f 790 1221 1219
f 1221 787 1207
f 1219 1207 783
f 1221 1207 1219
f 655 1208 1193
f 1208 788 1211
f 1193 1211 784
f 1208 1211 1193
f 788 1209 1222
f 1209 680 1218
f 1222 1218 790
f 1209 1218 1222
f 784 1220 1194
f 1220 790 1217
f 1194 1217 679
f 1220 1217 1194
f 788 1222 1211
f 1222 790 1220
f 1211 1220 784
f 1222 1220 1211
f 647 870 1121
f 870 704 1123
f 1121 1123 767
f 870 1123 1121
f 704 871 1130
f 871 660 1128
f 1130 1128 769
f 871 1128 1130
f 767 1132 1122
f 1132 769 1129
f 1122 1129 676
f 1132 1129 1122
f 704 1130 1123
f 1130 769 1132
f 1123 1132 767
f 1130 1132 1123
f 660 868 1117
f 868 703 1119
f 1117 1119 766
f 868 1119 1117
f 703 867 1114
f 867 643 1112
f 1114 1112 764
f 867 1112 1114
f 766 1120 1118
f 1120 764 1113
f 1118 1113 675
f 1120 1113 1118
f 703 1114 1119
f 1114 764 1120
f 1119 1120 766
f 1114 1120 1119
f 676 1138 1126
f 1138 771 1141
f 1126 1141 768
f 1138 1141 1126
f 771 1137 1139
f 1137 675 1116
f 1139 1116 765
f 1137 1116 1139
f 768 1127 1125
f 1127 765 1115
f 1125 1115 651
f 1127 1115 1125
f 771 1139 1141
f 1139 765 1127
f 1141 1127 768
f 1139 1127 1141
f 660 1117 1128
f 1117 766 1131
f 1128 1131 769
f 1117 1131 1128
f 766 1118 1140
f 1118 675 1137
f 1140 1137 771
f 1118 1137 1140
f 769 1142 1129
f 1142 771 1138
f 1129 1138 676
f 1142 1138 1129
f 766 1140 1131
f 1140 771 1142
f 1131 1142 769
f 1140 1142 1131
f 649 945 967
f 945 726 970
f 967 970 731
f 945 970 967
f 726 946 989
f 946 667 987
f 989 987 735
f 946 987 989
f 731 991 968
f 991 735 988
f 968 988 668
f 991 988 968
f 726 989 970
f 989 735 991
f 970 991 731
f 989 991 970
f 667 942 954
f 942 725 956
f 954 956 728
f 942 956 954
f 725 941 944
f 941 647 919
f 944 919 717
f 941 919 944
f 728 955 953
f 955 717 920
f 953 920 664
f 955 920 953
f 725 944 956
f 944 717 955
f 956 955 728
f 944 955 956
f 668 977 964
f 977 733 980
f 964 980 730
f 977 980 964
f 733 976 978
f 976 664 922
f 978 922 718
f 976 922 978
f 730 966 963
f 966 718 921
f 963 921 648
f 966 921 963
f 733 978 980
f 978 718 966
f 980 966 730
f 978 966 980
f 667 954 987
f 954 728 990
f 987 990 735
f 954 990 987
f 728 953 979
f 953 664 976
f 979 976 733
f 953 976 979
f 735 992 988
f 992 733 977
f 988 977 668
f 992 977 988
f 728 979 990
f 979 733 992
f 990 992 735
f 979 992 990
f 650 1077 997
f 1077 756 1079
f 997 1079 737
f 1077 1079 997
f 756 1078 1095
f 1078 673 1092
f 1095 1092 759
f 1078 1092 1095
f 737 1093 998
f 1093 759 1091
f 998 1091 669
f 1093 1091 998
f 756 1095 1079
f 1095 759 1093
f 1079 1093 737
f 1095 1093 1079
f 673 1074 1082
f 1074 755 1085
f 1082 1085 757
f 1074 1085 1082
f 755 1073 1075
f 1073 649 926
f 1075 926 720
f 1073 926 1075
f 757 1083 1081
f 1083 720 927
f 1081 927 665
f 1083 927 1081
f 755 1075 1085
f 1075 720 1083
f 1085 1083 757
f 1075 1083 1085
f 669 1004 994
f 1004 739 1006
f 994 1006 736
f 1004 1006 994
f 739 1003 1005
f 1003 665 924
f 1005 924 719
f 1003 924 1005
f 736 996 993
f 996 719 923
f 993 923 642
f 996 923 993
f 739 1005 1006
f 1005 719 996
f 1006 996 736
f 1005 996 1006
f 673 1082 1092
f 1082 757 1096
f 1092 1096 759
f 1082 1096 1092
f 757 1081 1084
f 1081 665 1003
f 1084 1003 739
f 1081 1003 1084
f 759 1094 1091
f 1094 739 1004
f 1091 1004 669
f 1094 1004 1091
f 757 1084 1096
f 1084 739 1094
f 1096 1094 759
f 1084 1094 1096

o geometry_5
usemtl material_3
v -0.10409476 0.12184289 0.00000000
v 0.10409476 0.12184289 0.00000000
v -0.10409476 0.08815711 0.00000000
v 0.10409476 0.08815711 0.00000000
v 0.00000000 0.09459052 0.16842886
v 0.00000000 0.11540948 0.16842886
v 0.00000000 0.09459052 -0.16842886
v 0.00000000 0.11540948 -0.16842886
v 0.16842886 0.10500000 -0.10409476
v 0.16842886 0.10500000 0.10409476
v -0.16842886 0.10500000 -0.10409476
v -0.16842886 0.10500000 0.10409476
v 0.00000000 0.12480000 0.00000000
v 0.00000000 0.08520000 0.00000000
v -0.06118536 0.08898146 0.09900000
v 0.06118536 0.08898146 0.09900000
v -0.06118536 0.12101854 0.09900000
v 0.06118536 0.12101854 0.09900000
v 0.00000000 0.10500000 0.19800000
v -0.06118536 0.08898146 -0.09900000
v 0.06118536 0.08898146 -0.09900000
v -0.06118536 0.12101854 -0.09900000
v 0.06118536 0.12101854 -0.09900000
v 0.00000000 0.10500000 -0.19800000
v 0.16018536 0.11490000 -0.06118536
v 0.16018536 0.09510000 -0.06118536
v 0.09900000 0.09888146 -0.16018536
v 0.09900000 0.11111854 -0.16018536
v 0.16018536 0.11490000 0.06118536
v 0.16018536 0.09510000 0.06118536
v 0.09900000 0.09888146 0.16018536
v 0.09900000 0.11111854 0.16018536
v 0.19800000 0.10500000 0.00000000
v -0.16018536 0.11490000 -0.06118536
v -0.16018536 0.09510000 -0.06118536
v -0.09900000 0.09888146 -0.16018536
v -0.09900000 0.11111854 -0.16018536
v -0.16018536 0.11490000 0.06118536
v -0.16018536 0.09510000 0.06118536
v -0.09900000 0.09888146 0.16018536
v -0.09900000 0.11111854 0.16018536
v -0.19800000 0.10500000 0.00000000
v -0.05410677 0.12404638 0.00000000
v 0.05410677 0.12404638 0.00000000
v -0.05410677 0.08595362 0.00000000
v 0.05410677 0.08595362 0.00000000
v -0.08590994 0.08791916 0.05145860
v -0.03180316 0.09126315 0.13900520
v -0.03216705 0.08616908 0.05204738
v 0.08590994 0.08791916 0.05145860
v 0.03180316 0.09126315 0.13900520
v 0.03216705 0.08616908 0.05204738
v 0.00000000 0.08815711 0.10409476
v -0.08590994 0.12208084 0.05145860
v -0.03180316 0.11873685 0.13900520
v -0.03216705 0.12383092 0.05204738
v 0.08590994 0.12208084 0.05145860
v 0.03180316 0.11873685 0.13900520
v 0.03216705 0.12383092 0.05204738
v 0.00000000 0.12184289 0.10409476
v 0.00000000 0.09958932 0.19046379
v 0.00000000 0.11041068 0.19046379
v -0.08590994 0.08791916 -0.05145860
v -0.03180316 0.09126315 -0.13900520
v -0.03216705 0.08616908 -0.05204738
v 0.08590994 0.08791916 -0.05145860
v 0.03180316 0.09126315 -0.13900520
v 0.03216705 0.08616908 -0.05204738
v 0.00000000 0.08815711 -0.10409476
v -0.08590994 0.12208084 -0.05145860
v -0.03180316 0.11873685 -0.13900520
v -0.03216705 0.12383092 -0.05204738
v 0.08590994 0.12208084 -0.05145860
v 0.03180316 0.11873685 -0.13900520
v 0.03216705 0.12383092 -0.05204738
v 0.00000000 0.12184289 -0.10409476
v 0.00000000 0.09958932 -0.19046379
v 0.00000000 0.11041068 -0.19046379
v 0.13736853 0.11890052 -0.03180316
v 0.17080836 0.11014586 -0.08590994
v 0.11638148 0.11862618 -0.08421443
v 0.13736853 0.09109948 -0.03180316
v 0.17080836 0.09985414 -0.08590994
v 0.11638148 0.09137382 -0.08421443
v 0.05145860 0.09640901 -0.17080836
v 0.13900520 0.10181968 -0.13736853
v 0.08421443 0.09336185 -0.13626181
v 0.05204738 0.10178330 -0.18830919
v 0.13626181 0.09657856 -0.11638148
v 0.05145860 0.11359099 -0.17080836
v 0.13900520 0.10818032 -0.13736853
v 0.08421443 0.11663815 -0.13626181
v 0.05204738 0.10821670 -0.18830919
v 0.13626181 0.11342144 -0.11638148
v 0.10409476 0.10500000 -0.16842886
v 0.13736853 0.11890052 0.03180316
v 0.17080836 0.11014586 0.08590994
v 0.11638148 0.11862618 0.08421443
v 0.16842886 0.11540948 0.00000000
v 0.13736853 0.09109948 0.03180316
v 0.17080836 0.09985414 0.08590994
v 0.11638148 0.09137382 0.08421443
v 0.16842886 0.09459052 0.00000000
v 0.05145860 0.09640901 0.17080836
v 0.13900520 0.10181968 0.13736853
v 0.08421443 0.09336185 0.13626181
v 0.05204738 0.10178330 0.18830919
v 0.13626181 0.09657856 0.11638148
v 0.05145860 0.11359099 0.17080836
v 0.13900520 0.10818032 0.13736853
v 0.08421443 0.11663815 0.13626181
v 0.05204738 0.10821670 0.18830919
v 0.13626181 0.11342144 0.11638148
v 0.10409476 0.10500000 0.16842886
v 0.19046379 0.10500000 -0.05410677
v 0.19046379 0.10500000 0.05410677
v 0.18830919 0.11020474 -0.03216705
v 0.18830919 0.09979526 -0.03216705
v 0.18830919 0.11020474 0.03216705
v 0.18830919 0.09979526 0.03216705
v -0.13736853 0.11890052 -0.03180316
v -0.17080836 0.11014586 -0.08590994
v -0.11638148 0.11862618 -0.08421443
v -0.13736853 0.09109948 -0.03180316
v -0.17080836 0.09985414 -0.08590994
v -0.11638148 0.09137382 -0.08421443
v -0.05145860 0.09640901 -0.17080836
v -0.13900520 0.10181968 -0.13736853
v -0.08421443 0.09336185 -0.13626181
v -0.05204738 0.10178330 -0.18830919
v -0.13626181 0.09657856 -0.11638148
v -0.05145860 0.11359099 -0.17080836
v -0.13900520 0.10818032 -0.13736853
v -0.08421443 0.11663815 -0.13626181
v -0.05204738 0.10821670 -0.18830919
v -0.13626181 0.11342144 -0.11638148
v -0.10409476 0.10500000 -0.16842886
v -0.13736853 0.11890052 0.03180316
v -0.17080836 0.11014586 0.08590994
v -0.11638148 0.11862618 0.08421443
v -0.16842886 0.11540948 0.00000000
v -0.13736853 0.09109948 0.03180316
v -0.17080836 0.09985414 0.08590994
v -0.11638148 0.09137382 0.08421443
v -0.16842886 0.09459052 0.00000000
v -0.05145860 0.09640901 0.17080836
v -0.13900520 0.10181968 0.13736853
v -0.08421443 0.09336185 0.13626181
v -0.05204738 0.10178330 0.18830919
v -0.13626181 0.09657856 0.11638148
v -0.05145860 0.11359099 0.17080836
v -0.13900520 0.10818032 0.13736853
v -0.08421443 0.11663815 0.13626181
v -0.05204738 0.10821670 0.18830919
v -0.13626181 0.11342144 0.11638148
v -0.10409476 0.10500000 0.16842886
v -0.19046379 0.10500000 -0.05410677
v -0.19046379 0.10500000 0.05410677
v -0.18830919 0.11020474 -0.03216705
v -0.18830919 0.09979526 -0.03216705
v -0.18830919 0.11020474 0.03216705
v -0.18830919 0.09979526 0.03216705
f 1283 1420 1336
f 1420 1320 1422
f 1336 1422 1299
f 1420 1422 1336
f 1320 1421 1437
f 1421 1294 1434
f 1437 1434 1323
f 1421 1434 1437
f 1299 1435 1337
f 1435 1323 1433
f 1337 1433 1288
f 1435 1433 1337
f 1320 1437 1422
f 1437 1323 1435
f 1422 1435 1299
f 1437 1435 1422
f 1283 1336 1325
f 1336 1299 1338
f 1325 1338 1295
f 1336 1338 1325
f 1299 1337 1342
f 1337 1288 1340
f 1342 1340 1300
f 1337 1340 1342
f 1295 1341 1326
f 1341 1300 1339
f 1326 1339 1284
f 1341 1339 1326
f 1299 1342 1338
f 1342 1300 1341
f 1338 1341 1295
f 1342 1341 1338
f 1283 1325 1352
f 1325 1295 1354
f 1352 1354 1304
f 1325 1354 1352
f 1295 1326 1357
f 1326 1284 1355
f 1357 1355 1305
f 1326 1355 1357
f 1304 1358 1353
f 1358 1305 1356
f 1353 1356 1290
f 1358 1356 1353
f 1295 1357 1354
f 1357 1305 1358
f 1354 1358 1304
f 1357 1358 1354
f 1283 1352 1403
f 1352 1304 1405
f 1403 1405 1316
f 1352 1405 1403
f 1304 1353 1416
f 1353 1290 1414
f 1416 1414 1319
f 1353 1414 1416
f 1316 1418 1404
f 1418 1319 1415
f 1404 1415 1293
f 1418 1415 1404
f 1304 1416 1405
f 1416 1319 1418
f 1405 1418 1316
f 1416 1418 1405
f 1283 1403 1420
f 1403 1316 1423
f 1420 1423 1320
f 1403 1423 1420
f 1316 1404 1441
f 1404 1293 1439
f 1441 1439 1324
f 1404 1439 1441
f 1320 1443 1421
f 1443 1324 1440
f 1421 1440 1294
f 1443 1440 1421
f 1316 1441 1423
f 1441 1324 1443
f 1423 1443 1320
f 1441 1443 1423
f 1284 1339 1378
f 1339 1300 1380
f 1378 1380 1311
f 1339 1380 1378
f 1300 1340 1393
f 1340 1288 1391
f 1393 1391 1314
f 1340 1391 1393
f 1311 1395 1379
f 1395 1314 1392
f 1379 1392 1292
f 1395 1392 1379
f 1300 1393 1380
f 1393 1314 1395
f 1380 1395 1311
f 1393 1395 1380
f 1288 1433 1344
f 1433 1323 1436
f 1344 1436 1301
f 1433 1436 1344
f 1323 1434 1438
f 1434 1294 1429
f 1438 1429 1322
f 1434 1429 1438
f 1301 1431 1343
f 1431 1322 1428
f 1343 1428 1287
f 1431 1428 1343
f 1323 1438 1436
f 1438 1322 1431
f 1436 1431 1301
f 1438 1431 1436
f 1294 1440 1425
f 1440 1324 1444
f 1425 1444 1321
f 1440 1444 1425
f 1324 1439 1442
f 1439 1293 1407
f 1442 1407 1317
f 1439 1407 1442
f 1321 1427 1424
f 1427 1317 1406
f 1424 1406 1285
f 1427 1406 1424
f 1324 1442 1444
f 1442 1317 1427
f 1444 1427 1321
f 1442 1427 1444
f 1293 1415 1410
f 1415 1319 1419
f 1410 1419 1318
f 1415 1419 1410
f 1319 1414 1417
f 1414 1290 1360
f 1417 1360 1306
f 1414 1360 1417
f 1318 1412 1409
f 1412 1306 1359
f 1409 1359 1289
f 1412 1359 1409
f 1319 1417 1419
f 1417 1306 1412
f 1419 1412 1318
f 1417 1412 1419
f 1290 1356 1372
f 1356 1305 1374
f 1372 1374 1310
f 1356 1374 1372
f 1305 1355 1363
f 1355 1284 1361
f 1363 1361 1307
f 1355 1361 1363
f 1310 1376 1373
f 1376 1307 1362
f 1373 1362 1291
f 1376 1362 1373
f 1305 1363 1374
f 1363 1307 1376
f 1374 1376 1310
f 1363 1376 1374
f 1286 1382 1332
f 1382 1312 1384
f 1332 1384 1298
f 1382 1384 1332
f 1312 1383 1390
f 1383 1292 1387
f 1390 1387 1313
f 1383 1387 1390
f 1298 1388 1333
f 1388 1313 1386
f 1333 1386 1287
f 1388 1386 1333
f 1312 1390 1384
f 1390 1313 1388
f 1384 1388 1298
f 1390 1388 1384
f 1286 1332 1328
f 1332 1298 1334
f 1328 1334 1296
f 1332 1334 1328
f 1298 1333 1335
f 1333 1287 1330
f 1335 1330 1297
f 1333 1330 1335
f 1296 1331 1327
f 1331 1297 1329
f 1327 1329 1285
f 1331 1329 1327
f 1298 1335 1334
f 1335 1297 1331
f 1334 1331 1296
f 1335 1331 1334
f 1286 1328 1348
f 1328 1296 1350
f 1348 1350 1303
f 1328 1350 1348
f 1296 1327 1347
f 1327 1285 1345
f 1347 1345 1302
f 1327 1345 1347
f 1303 1351 1349
f 1351 1302 1346
f 1349 1346 1289
f 1351 1346 1349
f 1296 1347 1350
f 1347 1302 1351
f 1350 1351 1303
f 1347 1351 1350
f 1286 1348 1364
f 1348 1303 1366
f 1364 1366 1308
f 1348 1366 1364
f 1303 1349 1369
f 1349 1289 1367
f 1369 1367 1309
f 1349 1367 1369
f 1308 1371 1365
f 1371 1309 1368
f 1365 1368 1291
f 1371 1368 1365
f 1303 1369 1366
f 1369 1309 1371
f 1366 1371 1308
f 1369 1371 1366
f 1286 1364 1382
f 1364 1308 1385
f 1382 1385 1312
f 1364 1385 1382
f 1308 1365 1400
f 1365 1291 1397
f 1400 1397 1315
f 1365 1397 1400
f 1312 1402 1383
f 1402 1315 1398
f 1383 1398 1292
f 1402 1398 1383
f 1308 1400 1385
f 1400 1315 1402
f 1385 1402 1312
f 1400 1402 1385
f 1287 1386 1343
f 1386 1313 1389
f 1343 1389 1301
f 1386 1389 1343
f 1313 1387 1396
f 1387 1292 1392
f 1396 1392 1314
f 1387 1392 1396
f 1301 1394 1344
f 1394 1314 1391
f 1344 1391 1288
f 1394 1391 1344
f 1313 1396 1389
f 1396 1314 1394
f 1389 1394 1301
f 1396 1394 1389
f 1285 1329 1424
f 1329 1297 1426
f 1424 1426 1321
f 1329 1426 1424
f 1297 1330 1430
f 1330 1287 1428
f 1430 1428 1322
f 1330 1428 1430
f 1321 1432 1425
f 1432 1322 1429
f 1425 1429 1294
f 1432 1429 1425
f 1297 1430 1426
f 1430 1322 1432
f 1426 1432 1321
f 1430 1432 1426
f 1289 1346 1409
f 1346 1302 1411
f 1409 1411 1318
f 1346 1411 1409
f 1302 1345 1408
f 1345 1285 1406
f 1408 1406 1317
f 1345 1406 1408
f 1318 1413 1410
f 1413 1317 1407
f 1410 1407 1293
f 1413 1407 1410
f 1302 1408 1411
f 1408 1317 1413
f 1411 1413 1318
f 1408 1413 1411
f 1291 1368 1373
f 1368 1309 1377
f 1373 1377 1310
f 1368 1377 1373
f 1309 1367 1370
f 1367 1289 1359
f 1370 1359 1306
f 1367 1359 1370
f 1310 1375 1372
f 1375 1306 1360
f 1372 1360 1290
f 1375 1360 1372
f 1309 1370 1377
f 1370 1306 1375
f 1377 1375 1310
f 1370 1375 1377
f 1292 1398 1379
f 1398 1315 1401
f 1379 1401 1311
f 1398 1401 1379
f 1315 1397 1399
f 1397 1291 1362
f 1399 1362 1307
f 1397 1362 1399
f 1311 1381 1378
f 1381 1307 1361
f 1378 1361 1284
f 1381 1361 1378
f 1315 1399 1401
f 1399 1307 1381
f 1401 1381 1311
f 1399 1381 1401

