# https://github.com/mikedh/trimesh
mtllib jail_gate.mtl

o geometry_0
usemtl material_0
v -0.49000000 0.00000000 -0.03000000
v -0.49000000 0.00000000 0.03000000
v -0.49000000 2.00000000 -0.03000000
v -0.49000000 2.00000000 0.03000000
v -0.43000000 0.00000000 -0.03000000
v -0.43000000 0.00000000 0.03000000
v -0.43000000 2.00000000 -0.03000000
v -0.43000000 2.00000000 0.03000000
f 2 4 1
f 5 2 1
f 1 4 3
f 3 5 1
f 2 8 4
f 6 2 5
f 6 8 2
f 4 8 3
f 7 5 3
f 3 8 7
f 7 6 5
f 8 6 7

o geometry_1
usemtl material_0
v 0.43000000 0.00000000 -0.03000000
v 0.43000000 0.00000000 0.03000000
v 0.43000000 2.00000000 -0.03000000
v 0.43000000 2.00000000 0.03000000
v 0.49000000 0.00000000 -0.03000000
v 0.49000000 0.00000000 0.03000000
v 0.49000000 2.00000000 -0.03000000
v 0.49000000 2.00000000 0.03000000
f 10 12 9
f 13 10 9
f 9 12 11
f 11 13 9
f 10 16 12
f 14 10 13
f 14 16 10
f 12 16 11
f 15 13 11
f 11 16 15
f 15 14 13
f 16 14 15

o geometry_2
usemtl material_0
v -0.50000000 1.92500000 -0.03500000
v -0.50000000 1.92500000 0.03500000
v -0.50000000 1.99500000 -0.03500000
v -0.50000000 1.99500000 0.03500000
v 0.50000000 1.92500000 -0.03500000
v 0.50000000 1.92500000 0.03500000
v 0.50000000 1.99500000 -0.03500000
v 0.50000000 1.99500000 0.03500000
f 18 20 17
f 21 18 17
f 17 20 19
f 19 21 17
f 18 24 20
f 22 18 21
f 22 24 18
f 20 24 19
f 23 21 19
f 19 24 23
f 23 22 21
f 24 22 23

o geometry_3
usemtl material_0
v -0.50000000 0.00500000 -0.03500000
v -0.50000000 0.00500000 0.03500000
v -0.50000000 0.07500000 -0.03500000
v -0.50000000 0.07500000 0.03500000
v 0.50000000 0.00500000 -0.03500000
v 0.50000000 0.00500000 0.03500000
v 0.50000000 0.07500000 -0.03500000
v 0.50000000 0.07500000 0.03500000
f 26 28 25
f 29 26 25
f 25 28 27
f 27 29 25
f 26 32 28
f 30 26 29
f 30 32 26
f 28 32 27
f 31 29 27
f 27 32 31
f 31 30 29
f 32 30 31

o geometry_4
usemtl material_1
v -0.50000000 1.07500000 -0.03000000
v -0.50000000 1.07500000 0.03000000
v -0.50000000 1.12500000 -0.03000000
v -0.50000000 1.12500000 0.03000000
v 0.50000000 1.07500000 -0.03000000
v 0.50000000 1.07500000 0.03000000
v 0.50000000 1.12500000 -0.03000000
v 0.50000000 1.12500000 0.03000000
f 34 36 33
f 37 34 33
f 33 36 35
f 35 37 33
f 34 40 36
f 38 34 37
f 38 40 34
f 36 40 35
f 39 37 35
f 35 40 39
f 39 38 37
f 40 38 39

o geometry_5
usemtl material_1
v -0.38000000 0.07000000 -0.00000000
v -0.36200000 0.07000000 -0.00000000
v -0.36200000 1.93000000 0.00000000
v -0.38000000 1.93000000 0.00000000
v -0.36727208 0.07000000 -0.01272792
v -0.36727208 1.93000000 -0.01272792
v -0.38000000 0.07000000 -0.01800000
v -0.38000000 1.93000000 -0.01800000
v -0.39272792 0.07000000 -0.01272792
v -0.39272792 1.93000000 -0.01272792
v -0.39800000 0.07000000 -0.00000000
v -0.39800000 1.93000000 0.00000000
v -0.39272792 0.07000000 0.01272792
v -0.39272792 1.93000000 0.01272792
v -0.38000000 0.07000000 0.01800000
v -0.38000000 1.93000000 0.01800000
v -0.36727208 0.07000000 0.01272792
v -0.36727208 1.93000000 0.01272792
f 42 41 45
f 42 45 43
f 43 45 46
f 43 46 44
f 45 41 47
f 45 47 46
f 46 47 48
f 46 48 44
f 47 41 49
f 47 49 48
f 48 49 50
f 48 50 44
f 49 41 51
f 49 51 50
f 50 51 52
f 50 52 44
f 51 41 53
f 51 53 52
f 52 53 54
f 52 54 44
f 53 41 55
f 53 55 54
f 54 55 56
f 54 56 44
f 55 41 57
f 55 57 56
f 56 57 58
f 56 58 44
f 57 41 42
f 57 42 58
f 58 42 43
f 58 43 44

o geometry_6
usemtl material_2
v -0.25333333 0.07000000 -0.00000000
v -0.23533333 0.07000000 -0.00000000
v -0.23533333 1.93000000 0.00000000
v -0.25333333 1.93000000 0.00000000
v -0.24060541 0.07000000 -0.01272792
v -0.24060541 1.93000000 -0.01272792
v -0.25333333 0.07000000 -0.01800000
v -0.25333333 1.93000000 -0.01800000
v -0.26606126 0.07000000 -0.01272792
v -0.26606126 1.93000000 -0.01272792
v -0.27133333 0.07000000 -0.00000000
v -0.27133333 1.93000000 0.00000000
v -0.26606126 0.07000000 0.01272792
v -0.26606126 1.93000000 0.01272792
v -0.25333333 0.07000000 0.01800000
v -0.25333333 1.93000000 0.01800000
v -0.24060541 0.07000000 0.01272792
v -0.24060541 1.93000000 0.01272792
f 60 59 63
f 60 63 61
f 61 63 64
f 61 64 62
f 63 59 65
f 63 65 64
f 64 65 66
f 64 66 62
f 65 59 67
f 65 67 66
f 66 67 68
f 66 68 62
f 67 59 69
f 67 69 68
f 68 69 70
f 68 70 62
f 69 59 71
f 69 71 70
f 70 71 72
f 70 72 62
f 71 59 73
f 71 73 72
f 72 73 74
f 72 74 62
f 73 59 75
f 73 75 74
f 74 75 76
f 74 76 62
f 75 59 60
f 75 60 76
f 76 60 61
f 76 61 62

o geometry_7
usemtl material_1
v -0.12666667 0.07000000 -0.00000000
v -0.10866667 0.07000000 -0.00000000
v -0.10866667 1.93000000 0.00000000
v -0.12666667 1.93000000 0.00000000
v -0.11393874 0.07000000 -0.01272792
v -0.11393874 1.93000000 -0.01272792
v -0.12666667 0.07000000 -0.01800000
v -0.12666667 1.93000000 -0.01800000
v -0.13939459 0.07000000 -0.01272792
v -0.13939459 1.93000000 -0.01272792
v -0.14466667 0.07000000 -0.00000000
v -0.14466667 1.93000000 0.00000000
v -0.13939459 0.07000000 0.01272792
v -0.13939459 1.93000000 0.01272792
v -0.12666667 0.07000000 0.01800000
v -0.12666667 1.93000000 0.01800000
v -0.11393874 0.07000000 0.01272792
v -0.11393874 1.93000000 0.01272792
f 78 77 81
f 78 81 79
f 79 81 82
f 79 82 80
f 81 77 83
f 81 83 82
f 82 83 84
f 82 84 80
f 83 77 85
f 83 85 84
f 84 85 86
f 84 86 80
f 85 77 87
f 85 87 86
f 86 87 88
f 86 88 80
f 87 77 89
f 87 89 88
f 88 89 90
f 88 90 80
f 89 77 91
f 89 91 90
f 90 91 92
f 90 92 80
f 91 77 93
f 91 93 92
f 92 93 94
f 92 94 80
f 93 77 78
f 93 78 94
f 94 78 79
f 94 79 80

o geometry_8
usemtl material_2
v 0.00000000 0.07000000 -0.00000000
v 0.01800000 0.07000000 -0.00000000
v 0.01800000 1.93000000 0.00000000
v 0.00000000 1.93000000 0.00000000
v 0.01272792 0.07000000 -0.01272792
v 0.01272792 1.93000000 -0.01272792
v 0.00000000 0.07000000 -0.01800000
v 0.00000000 1.93000000 -0.01800000
v -0.01272792 0.07000000 -0.01272792
v -0.01272792 1.93000000 -0.01272792
v -0.01800000 0.07000000 -0.00000000
v -0.01800000 1.93000000 0.00000000
v -0.01272792 0.07000000 0.01272792
v -0.01272792 1.93000000 0.01272792
v 0.00000000 0.07000000 0.01800000
v 0.00000000 1.93000000 0.01800000
v 0.01272792 0.07000000 0.01272792
v 0.01272792 1.93000000 0.01272792
f 96 95 99
f 96 99 97
f 97 99 100
f 97 100 98
f 99 95 101
f 99 101 100
f 100 101 102
f 100 102 98
f 101 95 103
f 101 103 102
f 102 103 104
f 102 104 98
f 103 95 105
f 103 105 104
f 104 105 106
f 104 106 98
f 105 95 107
f 105 107 106
f 106 107 108
f 106 108 98
f 107 95 109
f 107 109 108
f 108 109 110
f 108 110 98
f 109 95 111
f 109 111 110
f 110 111 112
f 110 112 98
f 111 95 96
f 111 96 112
f 112 96 97
f 112 97 98

o geometry_9
usemtl material_1
v 0.12666667 0.07000000 -0.00000000
v 0.14466667 0.07000000 -0.00000000
v 0.14466667 1.93000000 0.00000000
v 0.12666667 1.93000000 0.00000000
v 0.13939459 0.07000000 -0.01272792
v 0.13939459 1.93000000 -0.01272792
v 0.12666667 0.07000000 -0.01800000
v 0.12666667 1.93000000 -0.01800000
v 0.11393874 0.07000000 -0.01272792
v 0.11393874 1.93000000 -0.01272792
v 0.10866667 0.07000000 -0.00000000
v 0.10866667 1.93000000 0.00000000
v 0.11393874 0.07000000 0.01272792
v 0.11393874 1.93000000 0.01272792
v 0.12666667 0.07000000 0.01800000
v 0.12666667 1.93000000 0.01800000
v 0.13939459 0.07000000 0.01272792
v 0.13939459 1.93000000 0.01272792
f 114 113 117
f 114 117 115
f 115 117 118
f 115 118 116
f 117 113 119
f 117 119 118
f 118 119 120
f 118 120 116
f 119 113 121
f 119 121 120
f 120 121 122
f 120 122 116
f 121 113 123
f 121 123 122
f 122 123 124
f 122 124 116
f 123 113 125
f 123 125 124
f 124 125 126
f 124 126 116
f 125 113 127
f 125 127 126
f 126 127 128
f 126 128 116
f 127 113 129
f 127 129 128
f 128 129 130
f 128 130 116
f 129 113 114
f 129 114 130
f 130 114 115
f 130 115 116

o geometry_10
usemtl material_2
v 0.25333333 0.07000000 -0.00000000
v 0.27133333 0.07000000 -0.00000000
v 0.27133333 1.93000000 0.00000000
v 0.25333333 1.93000000 0.00000000
v 0.26606126 0.07000000 -0.01272792
v 0.26606126 1.93000000 -0.01272792
v 0.25333333 0.07000000 -0.01800000
v 0.25333333 1.93000000 -0.01800000
v 0.24060541 0.07000000 -0.01272792
v 0.24060541 1.93000000 -0.01272792
v 0.23533333 0.07000000 -0.00000000
v 0.23533333 1.93000000 0.00000000
v 0.24060541 0.07000000 0.01272792
v 0.24060541 1.93000000 0.01272792
v 0.25333333 0.07000000 0.01800000
v 0.25333333 1.93000000 0.01800000
v 0.26606126 0.07000000 0.01272792
v 0.26606126 1.93000000 0.01272792
f 132 131 135
f 132 135 133
f 133 135 136
f 133 136 134
f 135 131 137
f 135 137 136
f 136 137 138
f 136 138 134
f 137 131 139
f 137 139 138
f 138 139 140
f 138 140 134
f 139 131 141
f 139 141 140
f 140 141 142
f 140 142 134
f 141 131 143
f 141 143 142
f 142 143 144
f 142 144 134
f 143 131 145
f 143 145 144
f 144 145 146
f 144 146 134
f 145 131 147
f 145 147 146
f 146 147 148
f 146 148 134
f 147 131 132
f 147 132 148
f 148 132 133
f 148 133 134

o geometry_11
usemtl material_1
v 0.38000000 0.07000000 -0.00000000
v 0.39800000 0.07000000 -0.00000000
v 0.39800000 1.93000000 0.00000000
v 0.38000000 1.93000000 0.00000000
v 0.39272792 0.07000000 -0.01272792
v 0.39272792 1.93000000 -0.01272792
v 0.38000000 0.07000000 -0.01800000
v 0.38000000 1.93000000 -0.01800000
v 0.36727208 0.07000000 -0.01272792
v 0.36727208 1.93000000 -0.01272792
v 0.36200000 0.07000000 -0.00000000
v 0.36200000 1.93000000 0.00000000
v 0.36727208 0.07000000 0.01272792
v 0.36727208 1.93000000 0.01272792
v 0.38000000 0.07000000 0.01800000
v 0.38000000 1.93000000 0.01800000
v 0.39272792 0.07000000 0.01272792
v 0.39272792 1.93000000 0.01272792
f 150 149 153
f 150 153 151
f 151 153 154
f 151 154 152
f 153 149 155
f 153 155 154
f 154 155 156
f 154 156 152
f 155 149 157
f 155 157 156
f 156 157 158
f 156 158 152
f 157 149 159
f 157 159 158
f 158 159 160
f 158 160 152
f 159 149 161
f 159 161 160
f 160 161 162
f 160 162 152
f 161 149 163
f 161 163 162
f 162 163 164
f 162 164 152
f 163 149 165
f 163 165 164
f 164 165 166
f 164 166 152
f 165 149 150
f 165 150 166
f 166 150 151
f 166 151 152

o geometry_12
usemtl material_3
v -0.17500000 1.26000000 0.02000000
v -0.17500000 1.26000000 0.05000000
v -0.17500000 1.34000000 0.02000000
v -0.17500000 1.34000000 0.05000000
v -0.12500000 1.26000000 0.02000000
v -0.12500000 1.26000000 0.05000000
v -0.12500000 1.34000000 0.02000000
v -0.12500000 1.34000000 0.05000000
f 168 170 167
f 171 168 167
f 167 170 169
f 169 171 167
f 168 174 170
f 172 168 171
f 172 174 168
f 170 174 169
f 173 171 169
f 169 174 173
f 173 172 171
f 174 172 173

o geometry_13
usemtl material_3
v 0.17500000 0.46000000 0.02000000
v 0.17500000 0.46000000 0.05000000
v 0.17500000 0.54000000 0.02000000
v 0.17500000 0.54000000 0.05000000
v 0.22500000 0.46000000 0.02000000
v 0.22500000 0.46000000 0.05000000
v 0.22500000 0.54000000 0.02000000
v 0.22500000 0.54000000 0.05000000
f 176 178 175
f 179 176 175
f 175 178 177
f 177 179 175
f 176 182 178
f 180 176 179
f 180 182 176
f 178 182 177
f 181 179 177
f 177 182 181
f 181 180 179
f 182 180 181

o geometry_14
usemtl material_2
v 0.41300000 1.00000000 0.05000000
v 0.41065685 0.99434315 0.05000000
v 0.40500000 0.99200000 0.05000000
v 0.39934315 0.99434315 0.05000000
v 0.39700000 1.00000000 0.05000000
v 0.39934315 1.00565685 0.05000000
v 0.40500000 1.00800000 0.05000000
v 0.41065685 1.00565685 0.05000000
v 0.40896562 1.00000000 0.07028222
v 0.40680083 0.99434315 0.06938554
v 0.40157458 0.99200000 0.06722075
v 0.39634833 0.99434315 0.06505597
v 0.39418354 1.00000000 0.06415929
v 0.39634833 1.00565685 0.06505597
v 0.40157458 1.00800000 0.06722075
v 0.40680083 1.00565685 0.06938554
v 0.39747666 1.00000000 0.08747666
v 0.39581981 0.99434315 0.08581981
v 0.39181981 0.99200000 0.08181981
v 0.38781981 0.99434315 0.07781981
v 0.38616295 1.00000000 0.07616295
v 0.38781981 1.00565685 0.07781981
v 0.39181981 1.00800000 0.08181981
v 0.39581981 1.00565685 0.08581981
v 0.38028222 1.00000000 0.09896562
v 0.37938554 0.99434315 0.09680083
v 0.37722075 0.99200000 0.09157458
v 0.37505597 0.99434315 0.08634833
v 0.37415929 1.00000000 0.08418354
v 0.37505597 1.00565685 0.08634833
v 0.37722075 1.00800000 0.09157458
v 0.37938554 1.00565685 0.09680083
v 0.36000000 1.00000000 0.10300000
v 0.36000000 0.99434315 0.10065685
v 0.36000000 0.99200000 0.09500000
v 0.36000000 0.99434315 0.08934315
v 0.36000000 1.00000000 0.08700000
v 0.36000000 1.00565685 0.08934315
v 0.36000000 1.00800000 0.09500000
v 0.36000000 1.00565685 0.10065685
v 0.33971778 1.00000000 0.09896562
v 0.34061446 0.99434315 0.09680083
v 0.34277925 0.99200000 0.09157458
v 0.34494403 0.99434315 0.08634833
v 0.34584071 1.00000000 0.08418354
v 0.34494403 1.00565685 0.08634833
v 0.34277925 1.00800000 0.09157458
v 0.34061446 1.00565685 0.09680083
v 0.32252334 1.00000000 0.08747666
v 0.32418019 0.99434315 0.08581981
v 0.32818019 0.99200000 0.08181981
v 0.33218019 0.99434315 0.07781981
v 0.33383705 1.00000000 0.07616295
v 0.33218019 1.00565685 0.07781981
v 0.32818019 1.00800000 0.08181981
v 0.32418019 1.00565685 0.08581981
v 0.31103438 1.00000000 0.07028222
v 0.31319917 0.99434315 0.06938554
v 0.31842542 0.99200000 0.06722075
v 0.32365167 0.99434315 0.06505597
v 0.32581646 1.00000000 0.06415929
v 0.32365167 1.00565685 0.06505597
v 0.31842542 1.00800000 0.06722075
v 0.31319917 1.00565685 0.06938554
v 0.30700000 1.00000000 0.05000000
v 0.30934315 0.99434315 0.05000000
v 0.31500000 0.99200000 0.05000000
v 0.32065685 0.99434315 0.05000000
v 0.32300000 1.00000000 0.05000000
v 0.32065685 1.00565685 0.05000000
v 0.31500000 1.00800000 0.05000000
v 0.30934315 1.00565685 0.05000000
v 0.31103438 1.00000000 0.02971778
v 0.31319917 0.99434315 0.03061446
v 0.31842542 0.99200000 0.03277925
v 0.32365167 0.99434315 0.03494403
v 0.32581646 1.00000000 0.03584071
v 0.32365167 1.00565685 0.03494403
v 0.31842542 1.00800000 0.03277925
v 0.31319917 1.00565685 0.03061446
v 0.32252334 1.00000000 0.01252334
v 0.32418019 0.99434315 0.01418019
v 0.32818019 0.99200000 0.01818019
v 0.33218019 0.99434315 0.02218019
v 0.33383705 1.00000000 0.02383705
v 0.33218019 1.00565685 0.02218019
v 0.32818019 1.00800000 0.01818019
v 0.32418019 1.00565685 0.01418019
v 0.33971778 1.00000000 0.00103438
v 0.34061446 0.99434315 0.00319917
v 0.34277925 0.99200000 0.00842542
v 0.34494403 0.99434315 0.01365167
v 0.34584071 1.00000000 0.01581646
v 0.34494403 1.00565685 0.01365167
v 0.34277925 1.00800000 0.00842542
v 0.34061446 1.00565685 0.00319917
v 0.36000000 1.00000000 -0.00300000
v 0.36000000 0.99434315 -0.00065685
v 0.36000000 0.99200000 0.00500000
v 0.36000000 0.99434315 0.01065685
v 0.36000000 1.00000000 0.01300000
v 0.36000000 1.00565685 0.01065685
v 0.36000000 1.00800000 0.00500000
v 0.36000000 1.00565685 -0.00065685
v 0.38028222 1.00000000 0.00103438
v 0.37938554 0.99434315 0.00319917
v 0.37722075 0.99200000 0.00842542
v 0.37505597 0.99434315 0.01365167
v 0.37415929 1.00000000 0.01581646
v 0.37505597 1.00565685 0.01365167
v 0.37722075 1.00800000 0.00842542
v 0.37938554 1.00565685 0.00319917
v 0.39747666 1.00000000 0.01252334
v 0.39581981 0.99434315 0.01418019
v 0.39181981 0.99200000 0.01818019
v 0.38781981 0.99434315 0.02218019
v 0.38616295 1.00000000 0.02383705
v 0.38781981 1.00565685 0.02218019
v 0.39181981 1.00800000 0.01818019
v 0.39581981 1.00565685 0.01418019
v 0.40896562 1.00000000 0.02971778
v 0.40680083 0.99434315 0.03061446
v 0.40157458 0.99200000 0.03277925
v 0.39634833 0.99434315 0.03494403
v 0.39418354 1.00000000 0.03584071
v 0.39634833 1.00565685 0.03494403
v 0.40157458 1.00800000 0.03277925
v 0.40680083 1.00565685 0.03061446
f 183 191 184
f 184 191 192
f 184 192 185
f 185 192 193
f 185 193 186
f 186 193 194
f 186 194 187
f 187 194 195
f 187 195 188
f 188 195 196
f 188 196 189
f 189 196 197
f 189 197 190
f 190 197 198
f 190 198 183
f 183 198 191
f 191 199 192
f 192 199 200
f 192 200 193
f 193 200 201
f 193 201 194
f 194 201 202
f 194 202 195
f 195 202 203
f 195 203 196
f 196 203 204
f 196 204 197
f 197 204 205
f 197 205 198
f 198 205 206
f 198 206 191
f 191 206 199
f 199 207 200
f 200 207 208
f 200 208 201
f 201 208 209
f 201 209 202
f 202 209 210
f 202 210 203
f 203 210 211
f 203 211 204
f 204 211 212
f 204 212 205
f 205 212 213
f 205 213 206
f 206 213 214
f 206 214 199
f 199 214 207
f 207 215 208
f 208 215 216
f 208 216 209
f 209 216 217
f 209 217 210
f 210 217 218
f 210 218 211
f 211 218 219
f 211 219 212
f 212 219 220
f 212 220 213
f 213 220 221
f 213 221 214
f 214 221 222
f 214 222 207
f 207 222 215
f 215 223 216
f 216 223 224
f 216 224 217
f 217 224 225
f 217 225 218
f 218 225 226
f 218 226 219
f 219 226 227
f 219 227 220
f 220 227 228
f 220 228 221
f 221 228 229
f 221 229 222
f 222 229 230
f 222 230 215
f 215 230 223
f 223 231 224
f 224 231 232
f 224 232 225
f 225 232 233
f 225 233 226
f 226 233 234
f 226 234 227
f 227 234 235
f 227 235 228
f 228 235 236
f 228 236 229
f 229 236 237
f 229 237 230
f 230 237 238
f 230 238 223
f 223 238 231
f 231 239 232
f 232 239 240
f 232 240 233
f 233 240 241
f 233 241 234
f 234 241 242
f 234 242 235
f 235 242 243
f 235 243 236
f 236 243 244
f 236 244 237
f 237 244 245
f 237 245 238
f 238 245 246
f 238 246 231
f 231 246 239
f 239 247 240
f 240 247 248
f 240 248 241
f 241 248 249
f 241 249 242
f 242 249 250
f 242 250 243
f 243 250 251
f 243 251 244
f 244 251 252
f 244 252 245
f 245 252 253
f 245 253 246
f 246 253 254
f 246 254 239
f 239 254 247
f 247 255 248
f 248 255 256
f 248 256 249
f 249 256 257
f 249 257 250
f 250 257 258
f 250 258 251
f 251 258 259
f 251 259 252
f 252 259 260
f 252 260 253
f 253 260 261
f 253 261 254
f 254 261 262
f 254 262 247
f 247 262 255
f 255 263 256
f 256 263 264
f 256 264 257
f 257 264 265
f 257 265 258
f 258 265 266
f 258 266 259
f 259 266 267
f 259 267 260
f 260 267 268
f 260 268 261
f 261 268 269
f 261 269 262
f 262 269 270
f 262 270 255
f 255 270 263
f 263 271 264
f 264 271 272
f 264 272 265
f 265 272 273
f 265 273 266
f 266 273 274
f 266 274 267
f 267 274 275
f 267 275 268
f 268 275 276
f 268 276 269
f 269 276 277
f 269 277 270
f 270 277 278
f 270 278 263
f 263 278 271
f 271 279 272
f 272 279 280
f 272 280 273
f 273 280 281
f 273 281 274
f 274 281 282
f 274 282 275
f 275 282 283
f 275 283 276
f 276 283 284
f 276 284 277
f 277 284 285
f 277 285 278
f 278 285 286
f 278 286 271
f 271 286 279
f 279 287 280
f 280 287 288
f 280 288 281
f 281 288 289
f 281 289 282
f 282 289 290
f 282 290 283
f 283 290 291
f 283 291 284
f 284 291 292
f 284 292 285
f 285 292 293
f 285 293 286
f 286 293 294
f 286 294 279
f 279 294 287
f 287 295 288
f 288 295 296
f 288 296 289
f 289 296 297
f 289 297 290
f 290 297 298
f 290 298 291
f 291 298 299
f 291 299 292
f 292 299 300
f 292 300 293
f 293 300 301
f 293 301 294
f 294 301 302
f 294 302 287
f 287 302 295
f 295 303 296
f 296 303 304
f 296 304 297
f 297 304 305
f 297 305 298
f 298 305 306
f 298 306 299
f 299 306 307
f 299 307 300
f 300 307 308
f 300 308 301
f 301 308 309
f 301 309 302
f 302 309 310
f 302 310 295
f 295 310 303
f 303 183 304
f 304 183 184
f 304 184 305
f 305 184 185
f 305 185 306
f 306 185 186
f 306 186 307
f 307 186 187
f 307 187 308
f 308 187 188
f 308 188 309
f 309 188 189
f 309 189 310
f 310 189 190
f 310 190 303
f 303 190 183

