# Blender 5.2.0 LTS
# www.blender.org
mtllib bridge_fourway.mtl
o geometry_0
v -0.485000 -0.049858 -0.497149
v -0.485000 -0.049858 -0.336185
v -0.485000 0.000142 -0.497149
v -0.485000 0.000142 -0.336185
v 0.485000 -0.049858 -0.497149
v 0.485000 -0.049858 -0.336185
v 0.485000 0.000142 -0.497149
v 0.485000 0.000142 -0.336185
vn -1.0000 -0.0000 -0.0000
vn -0.0000 -1.0000 -0.0000
vn -0.0000 -0.0000 -1.0000
vn -0.0000 -0.0000 1.0000
vn -0.0000 1.0000 -0.0000
vn 1.0000 -0.0000 -0.0000
s 1
usemtl material_3
f 2//1 4//1 1//1
f 5//2 2//2 1//2
f 1//1 4//1 3//1
f 3//3 5//3 1//3
f 2//4 8//4 4//4
f 6//2 2//2 5//2
f 6//4 8//4 2//4
f 4//5 8//5 3//5
f 7//3 5//3 3//3
f 3//5 8//5 7//5
f 7//6 6//6 5//6
f 8//6 6//6 7//6
o geometry_1
v -0.485000 -0.054270 -0.330487
v -0.485000 -0.054270 -0.169513
v -0.485000 -0.004270 -0.330487
v -0.485000 -0.004270 -0.169513
v 0.485000 -0.054270 -0.330487
v 0.485000 -0.054270 -0.169513
v 0.485000 -0.004270 -0.330487
v 0.485000 -0.004270 -0.169513
vn -1.0000 -0.0000 -0.0000
vn -0.0000 -1.0000 -0.0000
vn -0.0000 -0.0000 -1.0000
vn -0.0000 -0.0000 1.0000
vn -0.0000 1.0000 -0.0000
vn 1.0000 -0.0000 -0.0000
s 1
usemtl material_2
f 10//7 12//7 9//7
f 13//8 10//8 9//8
f 9//7 12//7 11//7
f 11//9 13//9 9//9
f 10//10 16//10 12//10
f 14//8 10//8 13//8
f 14//10 16//10 10//10
f 12//11 16//11 11//11
f 15//9 13//9 11//9
f 11//11 16//11 15//11
f 15//12 14//12 13//12
f 16//12 14//12 15//12
o geometry_2
v -0.485000 -0.052258 -0.165397
v -0.485000 -0.052258 -0.001270
v -0.485000 -0.002258 -0.165397
v -0.485000 -0.002258 -0.001270
v 0.485000 -0.052258 -0.165397
v 0.485000 -0.052258 -0.001270
v 0.485000 -0.002258 -0.165397
v 0.485000 -0.002258 -0.001270
vn -1.0000 -0.0000 -0.0000
vn -0.0000 -1.0000 -0.0000
vn -0.0000 -0.0000 -1.0000
vn -0.0000 -0.0000 1.0000
vn -0.0000 1.0000 -0.0000
vn 1.0000 -0.0000 -0.0000
s 1
usemtl material_3
f 18//13 20//13 17//13
f 21//14 18//14 17//14
f 17//13 20//13 19//13
f 19//15 21//15 17//15
f 18//16 24//16 20//16
f 22//14 18//14 21//14
f 22//16 24//16 18//16
f 20//17 24//17 19//17
f 23//15 21//15 19//15
f 19//17 24//17 23//17
f 23//18 22//18 21//18
f 24//18 22//18 23//18
o geometry_3
v -0.485000 -0.046068 0.001228
v -0.485000 -0.046068 0.165439
v -0.485000 0.003932 0.001228
v -0.485000 0.003932 0.165439
v 0.485000 -0.046068 0.001228
v 0.485000 -0.046068 0.165439
v 0.485000 0.003932 0.001228
v 0.485000 0.003932 0.165439
vn -1.0000 -0.0000 -0.0000
vn -0.0000 -1.0000 -0.0000
vn -0.0000 -0.0000 -1.0000
vn -0.0000 -0.0000 1.0000
vn -0.0000 1.0000 -0.0000
vn 1.0000 -0.0000 -0.0000
s 1
usemtl material_2
f 26//19 28//19 25//19
f 29//20 26//20 25//20
f 25//19 28//19 27//19
f 27//21 29//21 25//21
f 26//22 32//22 28//22
f 30//20 26//20 29//20
f 30//22 32//22 26//22
f 28//23 32//23 27//23
f 31//21 29//21 27//21
f 27//23 32//23 31//23
f 31//24 30//24 29//24
f 32//24 30//24 31//24
o geometry_4
v -0.485000 -0.049405 0.166749
v -0.485000 -0.049405 0.333251
v -0.485000 0.000595 0.166749
v -0.485000 0.000595 0.333251
v 0.485000 -0.049405 0.166749
v 0.485000 -0.049405 0.333251
v 0.485000 0.000595 0.166749
v 0.485000 0.000595 0.333251
vn -1.0000 -0.0000 -0.0000
vn -0.0000 -1.0000 -0.0000
vn -0.0000 -0.0000 -1.0000
vn -0.0000 -0.0000 1.0000
vn -0.0000 1.0000 -0.0000
vn 1.0000 -0.0000 -0.0000
s 1
usemtl material_3
f 34//25 36//25 33//25
f 37//26 34//26 33//26
f 33//25 36//25 35//25
f 35//27 37//27 33//27
f 34//28 40//28 36//28
f 38//26 34//26 37//26
f 38//28 40//28 34//28
f 36//29 40//29 35//29
f 39//27 37//27 35//27
f 35//29 40//29 39//29
f 39//30 38//30 37//30
f 40//30 38//30 39//30
o geometry_5
v -0.485000 -0.046958 0.334948
v -0.485000 -0.046958 0.498386
v -0.485000 0.003042 0.334948
v -0.485000 0.003042 0.498386
v 0.485000 -0.046958 0.334948
v 0.485000 -0.046958 0.498386
v 0.485000 0.003042 0.334948
v 0.485000 0.003042 0.498386
vn -1.0000 -0.0000 -0.0000
vn -0.0000 -1.0000 -0.0000
vn -0.0000 -0.0000 -1.0000
vn -0.0000 -0.0000 1.0000
vn -0.0000 1.0000 -0.0000
vn 1.0000 -0.0000 -0.0000
s 1
usemtl material_2
f 42//31 44//31 41//31
f 45//32 42//32 41//32
f 41//31 44//31 43//31
f 43//33 45//33 41//33
f 42//34 48//34 44//34
f 46//32 42//32 45//32
f 46//34 48//34 42//34
f 44//35 48//35 43//35
f 47//33 45//33 43//33
f 43//35 48//35 47//35
f 47//36 46//36 45//36
f 48//36 46//36 47//36
o geometry_6
v -0.470000 -0.100000 -0.500000
v -0.470000 -0.100000 0.500000
v -0.470000 -0.050000 -0.500000
v -0.470000 -0.050000 0.500000
v -0.410000 -0.100000 -0.500000
v -0.410000 -0.100000 0.500000
v -0.410000 -0.050000 -0.500000
v -0.410000 -0.050000 0.500000
vn -1.0000 -0.0000 -0.0000
vn -0.0000 -1.0000 -0.0000
vn -0.0000 -0.0000 -1.0000
vn -0.0000 -0.0000 1.0000
vn -0.0000 1.0000 -0.0000
vn 1.0000 -0.0000 -0.0000
s 1
usemtl material_0
f 50//37 52//37 49//37
f 53//38 50//38 49//38
f 49//37 52//37 51//37
f 51//39 53//39 49//39
f 50//40 56//40 52//40
f 54//38 50//38 53//38
f 54//40 56//40 50//40
f 52//41 56//41 51//41
f 55//39 53//39 51//39
f 51//41 56//41 55//41
f 55//42 54//42 53//42
f 56//42 54//42 55//42
o geometry_7
v 0.410000 -0.100000 -0.500000
v 0.410000 -0.100000 0.500000
v 0.410000 -0.050000 -0.500000
v 0.410000 -0.050000 0.500000
v 0.470000 -0.100000 -0.500000
v 0.470000 -0.100000 0.500000
v 0.470000 -0.050000 -0.500000
v 0.470000 -0.050000 0.500000
vn -1.0000 -0.0000 -0.0000
vn -0.0000 -1.0000 -0.0000
vn -0.0000 -0.0000 -1.0000
vn -0.0000 -0.0000 1.0000
vn -0.0000 1.0000 -0.0000
vn 1.0000 -0.0000 -0.0000
s 1
usemtl material_0
f 58//43 60//43 57//43
f 61//44 58//44 57//44
f 57//43 60//43 59//43
f 59//45 61//45 57//45
f 58//46 64//46 60//46
f 62//44 58//44 61//44
f 62//46 64//46 58//46
f 60//47 64//47 59//47
f 63//45 61//45 59//45
f 59//47 64//47 63//47
f 63//48 62//48 61//48
f 64//48 62//48 63//48
