# Blender 5.2.0 LTS
# www.blender.org
mtllib bridge_corner.mtl
o geometry_0
v -0.485000 -0.049858 -0.497149
v -0.485000 -0.049858 -0.336185
v -0.485000 0.000142 -0.497149
v -0.485000 0.000142 -0.336185
v 0.485000 -0.049858 -0.497149
v 0.485000 -0.049858 -0.336185
v 0.485000 0.000142 -0.497149
v 0.485000 0.000142 -0.336185
vn -1.0000 -0.0000 -0.0000
vn -0.0000 -1.0000 -0.0000
vn -0.0000 -0.0000 -1.0000
vn -0.0000 -0.0000 1.0000
vn -0.0000 1.0000 -0.0000
vn 1.0000 -0.0000 -0.0000
s 1
usemtl material_3
f 2//1 4//1 1//1
f 5//2 2//2 1//2
f 1//1 4//1 3//1
f 3//3 5//3 1//3
f 2//4 8//4 4//4
f 6//2 2//2 5//2
f 6//4 8//4 2//4
f 4//5 8//5 3//5
f 7//3 5//3 3//3
f 3//5 8//5 7//5
f 7//6 6//6 5//6
f 8//6 6//6 7//6
o geometry_1
v -0.485000 -0.054270 -0.330487
v -0.485000 -0.054270 -0.169513
v -0.485000 -0.004270 -0.330487
v -0.485000 -0.004270 -0.169513
v 0.485000 -0.054270 -0.330487
v 0.485000 -0.054270 -0.169513
v 0.485000 -0.004270 -0.330487
v 0.485000 -0.004270 -0.169513
vn -1.0000 -0.0000 -0.0000
vn -0.0000 -1.0000 -0.0000
vn -0.0000 -0.0000 -1.0000
vn -0.0000 -0.0000 1.0000
vn -0.0000 1.0000 -0.0000
vn 1.0000 -0.0000 -0.0000
s 1
usemtl material_2
f 10//7 12//7 9//7
f 13//8 10//8 9//8
f 9//7 12//7 11//7
f 11//9 13//9 9//9
f 10//10 16//10 12//10
f 14//8 10//8 13//8
f 14//10 16//10 10//10
f 12//11 16//11 11//11
f 15//9 13//9 11//9
f 11//11 16//11 15//11
f 15//12 14//12 13//12
f 16//12 14//12 15//12
o geometry_10
v -0.445657 0.000000 -0.422065
v -0.445347 0.000000 -0.452063
v -0.419522 0.000000 -0.436795
v -0.445657 0.000000 -0.422065
v -0.419522 0.000000 -0.436795
v -0.445657 0.420000 -0.422065
v -0.445657 0.420000 -0.422065
v -0.419522 0.000000 -0.436795
v -0.419522 0.420000 -0.436795
v -0.445657 0.420000 -0.422065
v -0.419522 0.420000 -0.436795
v -0.445346 0.420000 -0.452063
v -0.419522 0.000000 -0.436795
v -0.445347 0.000000 -0.452063
v -0.419212 0.000000 -0.466793
v -0.419522 0.000000 -0.436795
v -0.419212 0.000000 -0.466793
v -0.419522 0.420000 -0.436795
v -0.419522 0.420000 -0.436795
v -0.419212 0.000000 -0.466793
v -0.419212 0.420000 -0.466793
v -0.419522 0.420000 -0.436795
v -0.419212 0.420000 -0.466793
v -0.445346 0.420000 -0.452063
v -0.419212 0.000000 -0.466793
v -0.445347 0.000000 -0.452063
v -0.445036 0.000000 -0.482061
v -0.419212 0.000000 -0.466793
v -0.445036 0.000000 -0.482061
v -0.419212 0.420000 -0.466793
v -0.419212 0.420000 -0.466793
v -0.445036 0.000000 -0.482061
v -0.445036 0.420000 -0.482061
v -0.419212 0.420000 -0.466793
v -0.445036 0.420000 -0.482061
v -0.445346 0.420000 -0.452063
v -0.445036 0.000000 -0.482061
v -0.445347 0.000000 -0.452063
v -0.471171 0.000000 -0.467331
v -0.445036 0.000000 -0.482061
v -0.471171 0.000000 -0.467331
v -0.445036 0.420000 -0.482061
v -0.445036 0.420000 -0.482061
v -0.471171 0.000000 -0.467331
v -0.471171 0.420000 -0.467331
v -0.445036 0.420000 -0.482061
v -0.471171 0.420000 -0.467331
v -0.445346 0.420000 -0.452063
v -0.471171 0.000000 -0.467331
v -0.445347 0.000000 -0.452063
v -0.471481 0.000000 -0.437333
v -0.471171 0.000000 -0.467331
v -0.471481 0.000000 -0.437333
v -0.471171 0.420000 -0.467331
v -0.471171 0.420000 -0.467331
v -0.471481 0.000000 -0.437333
v -0.471481 0.420000 -0.437333
v -0.471171 0.420000 -0.467331
v -0.471481 0.420000 -0.437333
v -0.445346 0.420000 -0.452063
v -0.471481 0.000000 -0.437333
v -0.445347 0.000000 -0.452063
v -0.445657 0.000000 -0.422065
v -0.471481 0.000000 -0.437333
v -0.445657 0.000000 -0.422065
v -0.471481 0.420000 -0.437333
v -0.471481 0.420000 -0.437333
v -0.445657 0.000000 -0.422065
v -0.445657 0.420000 -0.422065
v -0.471481 0.420000 -0.437333
v -0.445657 0.420000 -0.422065
v -0.445346 0.420000 -0.452063
vn -0.0000 -1.0000 -0.0000
vn 0.4910 -0.0000 0.8712
vn -0.0000 1.0000 -0.0000
vn 0.9999 -0.0000 0.0103
vn 0.5089 -0.0000 -0.8608
vn -0.4910 -0.0000 -0.8712
vn -0.9999 -0.0000 -0.0103
vn -0.5089 -0.0000 0.8608
s 1
usemtl material_0
f 17//13 18//13 19//13
f 20//14 21//14 22//14
f 23//14 24//14 25//14
f 26//15 27//15 28//15
f 29//13 30//13 31//13
f 32//16 33//16 34//16
f 35//16 36//16 37//16
f 38//15 39//15 40//15
f 41//13 42//13 43//13
f 44//17 45//17 46//17
f 47//17 48//17 49//17
f 50//15 51//15 52//15
f 53//13 54//13 55//13
f 56//18 57//18 58//18
f 59//18 60//18 61//18
f 62//15 63//15 64//15
f 65//13 66//13 67//13
f 68//19 69//19 70//19
f 71//19 72//19 73//19
f 74//15 75//15 76//15
f 77//13 78//13 79//13
f 80//20 81//20 82//20
f 83//20 84//20 85//20
f 86//15 87//15 88//15
o geometry_11
v 0.454591 0.211000 -0.441320
v 0.454735 0.211000 -0.455319
v 0.454663 0.223124 -0.448320
v 0.454591 0.211000 -0.441320
v 0.454663 0.223124 -0.448320
v 0.004615 0.211000 -0.445976
v 0.004615 0.211000 -0.445976
v 0.454663 0.223124 -0.448320
v 0.004687 0.223124 -0.452976
v 0.004615 0.211000 -0.445976
v 0.004687 0.223124 -0.452976
v 0.004759 0.211000 -0.459975
v 0.454663 0.223124 -0.448320
v 0.454735 0.211000 -0.455319
v 0.454808 0.223124 -0.462319
v 0.454663 0.223124 -0.448320
v 0.454808 0.223124 -0.462319
v 0.004687 0.223124 -0.452976
v 0.004687 0.223124 -0.452976
v 0.454808 0.223124 -0.462319
v 0.004832 0.223124 -0.466975
v 0.004687 0.223124 -0.452976
v 0.004832 0.223124 -0.466975
v 0.004759 0.211000 -0.459975
v 0.454808 0.223124 -0.462319
v 0.454735 0.211000 -0.455319
v 0.454880 0.211000 -0.469319
v 0.454808 0.223124 -0.462319
v 0.454880 0.211000 -0.469319
v 0.004832 0.223124 -0.466975
v 0.004832 0.223124 -0.466975
v 0.454880 0.211000 -0.469319
v 0.004904 0.211000 -0.473975
v 0.004832 0.223124 -0.466975
v 0.004904 0.211000 -0.473975
v 0.004759 0.211000 -0.459975
v 0.454880 0.211000 -0.469319
v 0.454735 0.211000 -0.455319
v 0.454808 0.198876 -0.462319
v 0.454880 0.211000 -0.469319
v 0.454808 0.198876 -0.462319
v 0.004904 0.211000 -0.473975
v 0.004904 0.211000 -0.473975
v 0.454808 0.198876 -0.462319
v 0.004832 0.198876 -0.466975
v 0.004904 0.211000 -0.473975
v 0.004832 0.198876 -0.466975
v 0.004759 0.211000 -0.459975
v 0.454808 0.198876 -0.462319
v 0.454735 0.211000 -0.455319
v 0.454663 0.198876 -0.448320
v 0.454808 0.198876 -0.462319
v 0.454663 0.198876 -0.448320
v 0.004832 0.198876 -0.466975
v 0.004832 0.198876 -0.466975
v 0.454663 0.198876 -0.448320
v 0.004687 0.198876 -0.452976
v 0.004832 0.198876 -0.466975
v 0.004687 0.198876 -0.452976
v 0.004759 0.211000 -0.459975
v 0.454663 0.198876 -0.448320
v 0.454735 0.211000 -0.455319
v 0.454591 0.211000 -0.441320
v 0.454663 0.198876 -0.448320
v 0.454591 0.211000 -0.441320
v 0.004687 0.198876 -0.452976
v 0.004687 0.198876 -0.452976
v 0.454591 0.211000 -0.441320
v 0.004615 0.211000 -0.445976
v 0.004687 0.198876 -0.452976
v 0.004615 0.211000 -0.445976
v 0.004759 0.211000 -0.459975
vn 0.9999 -0.0000 0.0103
vn -0.0090 0.5000 0.8660
vn -0.9999 -0.0000 -0.0103
vn -0.0000 1.0000 -0.0000
vn 0.0090 0.5000 -0.8660
vn 0.0090 -0.5000 -0.8660
vn -0.0000 -1.0000 -0.0000
vn -0.0090 -0.5000 0.8660
s 1
usemtl material_1
f 89//21 90//21 91//21
f 92//22 93//22 94//22
f 95//22 96//22 97//22
f 98//23 99//23 100//23
f 101//21 102//21 103//21
f 104//24 105//24 106//24
f 107//24 108//24 109//24
f 110//23 111//23 112//23
f 113//21 114//21 115//21
f 116//25 117//25 118//25
f 119//25 120//25 121//25
f 122//23 123//23 124//23
f 125//21 126//21 127//21
f 128//26 129//26 130//26
f 131//26 132//26 133//26
f 134//23 135//23 136//23
f 137//21 138//21 139//21
f 140//27 141//27 142//27
f 143//27 144//27 145//27
f 146//23 147//23 148//23
f 149//21 150//21 151//21
f 152//28 153//28 154//28
f 155//28 156//28 157//28
f 158//23 159//23 160//23
o geometry_12
v 0.004615 0.211000 -0.445976
v 0.004759 0.211000 -0.459975
v 0.004687 0.223124 -0.452976
v 0.004615 0.211000 -0.445976
v 0.004687 0.223124 -0.452976
v -0.445361 0.211000 -0.450632
v -0.445361 0.211000 -0.450632
v 0.004687 0.223124 -0.452976
v -0.445289 0.223124 -0.457632
v -0.445361 0.211000 -0.450632
v -0.445289 0.223124 -0.457632
v -0.445216 0.211000 -0.464631
v 0.004687 0.223124 -0.452976
v 0.004759 0.211000 -0.459975
v 0.004832 0.223124 -0.466975
v 0.004687 0.223124 -0.452976
v 0.004832 0.223124 -0.466975
v -0.445289 0.223124 -0.457632
v -0.445289 0.223124 -0.457632
v 0.004832 0.223124 -0.466975
v -0.445144 0.223124 -0.471631
v -0.445289 0.223124 -0.457632
v -0.445144 0.223124 -0.471631
v -0.445216 0.211000 -0.464631
v 0.004832 0.223124 -0.466975
v 0.004759 0.211000 -0.459975
v 0.004904 0.211000 -0.473975
v 0.004832 0.223124 -0.466975
v 0.004904 0.211000 -0.473975
v -0.445144 0.223124 -0.471631
v -0.445144 0.223124 -0.471631
v 0.004904 0.211000 -0.473975
v -0.445072 0.211000 -0.478631
v -0.445144 0.223124 -0.471631
v -0.445072 0.211000 -0.478631
v -0.445216 0.211000 -0.464631
v 0.004904 0.211000 -0.473975
v 0.004759 0.211000 -0.459975
v 0.004832 0.198876 -0.466975
v 0.004904 0.211000 -0.473975
v 0.004832 0.198876 -0.466975
v -0.445072 0.211000 -0.478631
v -0.445072 0.211000 -0.478631
v 0.004832 0.198876 -0.466975
v -0.445144 0.198876 -0.471631
v -0.445072 0.211000 -0.478631
v -0.445144 0.198876 -0.471631
v -0.445216 0.211000 -0.464631
v 0.004832 0.198876 -0.466975
v 0.004759 0.211000 -0.459975
v 0.004687 0.198876 -0.452976
v 0.004832 0.198876 -0.466975
v 0.004687 0.198876 -0.452976
v -0.445144 0.198876 -0.471631
v -0.445144 0.198876 -0.471631
v 0.004687 0.198876 -0.452976
v -0.445289 0.198876 -0.457632
v -0.445144 0.198876 -0.471631
v -0.445289 0.198876 -0.457632
v -0.445216 0.211000 -0.464631
v 0.004687 0.198876 -0.452976
v 0.004759 0.211000 -0.459975
v 0.004615 0.211000 -0.445976
v 0.004687 0.198876 -0.452976
v 0.004615 0.211000 -0.445976
v -0.445289 0.198876 -0.457632
v -0.445289 0.198876 -0.457632
v 0.004615 0.211000 -0.445976
v -0.445361 0.211000 -0.450632
v -0.445289 0.198876 -0.457632
v -0.445361 0.211000 -0.450632
v -0.445216 0.211000 -0.464631
vn 0.9999 -0.0000 0.0103
vn -0.0090 0.5000 0.8660
vn -0.9999 -0.0000 -0.0103
vn -0.0000 1.0000 -0.0000
vn 0.0090 0.5000 -0.8660
vn 0.0090 -0.5000 -0.8660
vn -0.0000 -1.0000 -0.0000
vn -0.0090 -0.5000 0.8660
s 1
usemtl material_1
f 161//29 162//29 163//29
f 164//30 165//30 166//30
f 167//30 168//30 169//30
f 170//31 171//31 172//31
f 173//29 174//29 175//29
f 176//32 177//32 178//32
f 179//32 180//32 181//32
f 182//31 183//31 184//31
f 185//29 186//29 187//29
f 188//33 189//33 190//33
f 191//33 192//33 193//33
f 194//31 195//31 196//31
f 197//29 198//29 199//29
f 200//34 201//34 202//34
f 203//34 204//34 205//34
f 206//31 207//31 208//31
f 209//29 210//29 211//29
f 212//35 213//35 214//35
f 215//35 216//35 217//35
f 218//31 219//31 220//31
f 221//29 222//29 223//29
f 224//36 225//36 226//36
f 227//36 228//36 229//36
f 230//31 231//31 232//31
o geometry_13
v 0.454591 0.391600 -0.441320
v 0.454735 0.391600 -0.455319
v 0.454663 0.403724 -0.448320
v 0.454591 0.391600 -0.441320
v 0.454663 0.403724 -0.448320
v 0.004615 0.391600 -0.445976
v 0.004615 0.391600 -0.445976
v 0.454663 0.403724 -0.448320
v 0.004687 0.403724 -0.452976
v 0.004615 0.391600 -0.445976
v 0.004687 0.403724 -0.452976
v 0.004759 0.391600 -0.459975
v 0.454663 0.403724 -0.448320
v 0.454735 0.391600 -0.455319
v 0.454808 0.403724 -0.462319
v 0.454663 0.403724 -0.448320
v 0.454808 0.403724 -0.462319
v 0.004687 0.403724 -0.452976
v 0.004687 0.403724 -0.452976
v 0.454808 0.403724 -0.462319
v 0.004832 0.403724 -0.466975
v 0.004687 0.403724 -0.452976
v 0.004832 0.403724 -0.466975
v 0.004759 0.391600 -0.459975
v 0.454808 0.403724 -0.462319
v 0.454735 0.391600 -0.455319
v 0.454880 0.391600 -0.469319
v 0.454808 0.403724 -0.462319
v 0.454880 0.391600 -0.469319
v 0.004832 0.403724 -0.466975
v 0.004832 0.403724 -0.466975
v 0.454880 0.391600 -0.469319
v 0.004904 0.391600 -0.473975
v 0.004832 0.403724 -0.466975
v 0.004904 0.391600 -0.473975
v 0.004759 0.391600 -0.459975
v 0.454880 0.391600 -0.469319
v 0.454735 0.391600 -0.455319
v 0.454808 0.379476 -0.462319
v 0.454880 0.391600 -0.469319
v 0.454808 0.379476 -0.462319
v 0.004904 0.391600 -0.473975
v 0.004904 0.391600 -0.473975
v 0.454808 0.379476 -0.462319
v 0.004832 0.379476 -0.466975
v 0.004904 0.391600 -0.473975
v 0.004832 0.379476 -0.466975
v 0.004759 0.391600 -0.459975
v 0.454808 0.379476 -0.462319
v 0.454735 0.391600 -0.455319
v 0.454663 0.379476 -0.448320
v 0.454808 0.379476 -0.462319
v 0.454663 0.379476 -0.448320
v 0.004832 0.379476 -0.466975
v 0.004832 0.379476 -0.466975
v 0.454663 0.379476 -0.448320
v 0.004687 0.379476 -0.452976
v 0.004832 0.379476 -0.466975
v 0.004687 0.379476 -0.452976
v 0.004759 0.391600 -0.459975
v 0.454663 0.379476 -0.448320
v 0.454735 0.391600 -0.455319
v 0.454591 0.391600 -0.441320
v 0.454663 0.379476 -0.448320
v 0.454591 0.391600 -0.441320
v 0.004687 0.379476 -0.452976
v 0.004687 0.379476 -0.452976
v 0.454591 0.391600 -0.441320
v 0.004615 0.391600 -0.445976
v 0.004687 0.379476 -0.452976
v 0.004615 0.391600 -0.445976
v 0.004759 0.391600 -0.459975
vn 0.9999 -0.0000 0.0103
vn -0.0090 0.5000 0.8660
vn -0.9999 -0.0000 -0.0103
vn -0.0000 1.0000 -0.0000
vn 0.0090 0.5000 -0.8660
vn 0.0090 -0.5000 -0.8660
vn -0.0000 -1.0000 -0.0000
vn -0.0090 -0.5000 0.8660
s 1
usemtl material_1
f 233//37 234//37 235//37
f 236//38 237//38 238//38
f 239//38 240//38 241//38
f 242//39 243//39 244//39
f 245//37 246//37 247//37
f 248//40 249//40 250//40
f 251//40 252//40 253//40
f 254//39 255//39 256//39
f 257//37 258//37 259//37
f 260//41 261//41 262//41
f 263//41 264//41 265//41
f 266//39 267//39 268//39
f 269//37 270//37 271//37
f 272//42 273//42 274//42
f 275//42 276//42 277//42
f 278//39 279//39 280//39
f 281//37 282//37 283//37
f 284//43 285//43 286//43
f 287//43 288//43 289//43
f 290//39 291//39 292//39
f 293//37 294//37 295//37
f 296//44 297//44 298//44
f 299//44 300//44 301//44
f 302//39 303//39 304//39
o geometry_14
v 0.004615 0.391600 -0.445976
v 0.004759 0.391600 -0.459975
v 0.004687 0.403724 -0.452976
v 0.004615 0.391600 -0.445976
v 0.004687 0.403724 -0.452976
v -0.445361 0.391600 -0.450632
v -0.445361 0.391600 -0.450632
v 0.004687 0.403724 -0.452976
v -0.445289 0.403724 -0.457632
v -0.445361 0.391600 -0.450632
v -0.445289 0.403724 -0.457632
v -0.445216 0.391600 -0.464631
v 0.004687 0.403724 -0.452976
v 0.004759 0.391600 -0.459975
v 0.004832 0.403724 -0.466975
v 0.004687 0.403724 -0.452976
v 0.004832 0.403724 -0.466975
v -0.445289 0.403724 -0.457632
v -0.445289 0.403724 -0.457632
v 0.004832 0.403724 -0.466975
v -0.445144 0.403724 -0.471631
v -0.445289 0.403724 -0.457632
v -0.445144 0.403724 -0.471631
v -0.445216 0.391600 -0.464631
v 0.004832 0.403724 -0.466975
v 0.004759 0.391600 -0.459975
v 0.004904 0.391600 -0.473975
v 0.004832 0.403724 -0.466975
v 0.004904 0.391600 -0.473975
v -0.445144 0.403724 -0.471631
v -0.445144 0.403724 -0.471631
v 0.004904 0.391600 -0.473975
v -0.445072 0.391600 -0.478631
v -0.445144 0.403724 -0.471631
v -0.445072 0.391600 -0.478631
v -0.445216 0.391600 -0.464631
v 0.004904 0.391600 -0.473975
v 0.004759 0.391600 -0.459975
v 0.004832 0.379476 -0.466975
v 0.004904 0.391600 -0.473975
v 0.004832 0.379476 -0.466975
v -0.445072 0.391600 -0.478631
v -0.445072 0.391600 -0.478631
v 0.004832 0.379476 -0.466975
v -0.445144 0.379476 -0.471631
v -0.445072 0.391600 -0.478631
v -0.445144 0.379476 -0.471631
v -0.445216 0.391600 -0.464631
v 0.004832 0.379476 -0.466975
v 0.004759 0.391600 -0.459975
v 0.004687 0.379476 -0.452976
v 0.004832 0.379476 -0.466975
v 0.004687 0.379476 -0.452976
v -0.445144 0.379476 -0.471631
v -0.445144 0.379476 -0.471631
v 0.004687 0.379476 -0.452976
v -0.445289 0.379476 -0.457632
v -0.445144 0.379476 -0.471631
v -0.445289 0.379476 -0.457632
v -0.445216 0.391600 -0.464631
v 0.004687 0.379476 -0.452976
v 0.004759 0.391600 -0.459975
v 0.004615 0.391600 -0.445976
v 0.004687 0.379476 -0.452976
v 0.004615 0.391600 -0.445976
v -0.445289 0.379476 -0.457632
v -0.445289 0.379476 -0.457632
v 0.004615 0.391600 -0.445976
v -0.445361 0.391600 -0.450632
v -0.445289 0.379476 -0.457632
v -0.445361 0.391600 -0.450632
v -0.445216 0.391600 -0.464631
vn 0.9999 -0.0000 0.0103
vn -0.0090 0.5000 0.8660
vn -0.9999 -0.0000 -0.0103
vn -0.0000 1.0000 -0.0000
vn 0.0090 0.5000 -0.8660
vn 0.0090 -0.5000 -0.8660
vn -0.0000 -1.0000 -0.0000
vn -0.0090 -0.5000 0.8660
s 1
usemtl material_1
f 305//45 306//45 307//45
f 308//46 309//46 310//46
f 311//46 312//46 313//46
f 314//47 315//47 316//47
f 317//45 318//45 319//45
f 320//48 321//48 322//48
f 323//48 324//48 325//48
f 326//47 327//47 328//47
f 329//45 330//45 331//45
f 332//49 333//49 334//49
f 335//49 336//49 337//49
f 338//47 339//47 340//47
f 341//45 342//45 343//45
f 344//50 345//50 346//50
f 347//50 348//50 349//50
f 350//47 351//47 352//47
f 353//45 354//45 355//45
f 356//51 357//51 358//51
f 359//51 360//51 361//51
f 362//47 363//47 364//47
f 365//45 366//45 367//45
f 368//52 369//52 370//52
f 371//52 372//52 373//52
f 374//47 375//47 376//47
o geometry_16
v -0.445361 0.231000 -0.450632
v -0.445216 0.231000 -0.464631
v -0.445289 0.243124 -0.457632
v -0.445361 0.231000 -0.450632
v -0.445289 0.243124 -0.457632
v -0.495359 0.231000 -0.451149
v -0.495359 0.231000 -0.451149
v -0.445289 0.243124 -0.457632
v -0.495286 0.243124 -0.458149
v -0.495359 0.231000 -0.451149
v -0.495286 0.243124 -0.458149
v -0.495214 0.231000 -0.465149
v -0.445289 0.243124 -0.457632
v -0.445216 0.231000 -0.464631
v -0.445144 0.243124 -0.471631
v -0.445289 0.243124 -0.457632
v -0.445144 0.243124 -0.471631
v -0.495286 0.243124 -0.458149
v -0.495286 0.243124 -0.458149
v -0.445144 0.243124 -0.471631
v -0.495141 0.243124 -0.472148
v -0.495286 0.243124 -0.458149
v -0.495141 0.243124 -0.472148
v -0.495214 0.231000 -0.465149
v -0.445144 0.243124 -0.471631
v -0.445216 0.231000 -0.464631
v -0.445072 0.231000 -0.478631
v -0.445144 0.243124 -0.471631
v -0.445072 0.231000 -0.478631
v -0.495141 0.243124 -0.472148
v -0.495141 0.243124 -0.472148
v -0.445072 0.231000 -0.478631
v -0.495069 0.231000 -0.479148
v -0.495141 0.243124 -0.472148
v -0.495069 0.231000 -0.479148
v -0.495214 0.231000 -0.465149
v -0.445072 0.231000 -0.478631
v -0.445216 0.231000 -0.464631
v -0.445144 0.218876 -0.471631
v -0.445072 0.231000 -0.478631
v -0.445144 0.218876 -0.471631
v -0.495069 0.231000 -0.479148
v -0.495069 0.231000 -0.479148
v -0.445144 0.218876 -0.471631
v -0.495141 0.218876 -0.472148
v -0.495069 0.231000 -0.479148
v -0.495141 0.218876 -0.472148
v -0.495214 0.231000 -0.465149
v -0.445144 0.218876 -0.471631
v -0.445216 0.231000 -0.464631
v -0.445289 0.218876 -0.457632
v -0.445144 0.218876 -0.471631
v -0.445289 0.218876 -0.457632
v -0.495141 0.218876 -0.472148
v -0.495141 0.218876 -0.472148
v -0.445289 0.218876 -0.457632
v -0.495286 0.218876 -0.458149
v -0.495141 0.218876 -0.472148
v -0.495286 0.218876 -0.458149
v -0.495214 0.231000 -0.465149
v -0.445289 0.218876 -0.457632
v -0.445216 0.231000 -0.464631
v -0.445361 0.231000 -0.450632
v -0.445289 0.218876 -0.457632
v -0.445361 0.231000 -0.450632
v -0.495286 0.218876 -0.458149
v -0.495286 0.218876 -0.458149
v -0.445361 0.231000 -0.450632
v -0.495359 0.231000 -0.451149
v -0.495286 0.218876 -0.458149
v -0.495359 0.231000 -0.451149
v -0.495214 0.231000 -0.465149
vn 0.9999 -0.0000 0.0103
vn -0.0090 0.5000 0.8660
vn -0.9999 -0.0000 -0.0103
vn -0.0000 1.0000 -0.0000
vn 0.0090 0.5000 -0.8660
vn 0.0090 -0.5000 -0.8660
vn -0.0000 -1.0000 -0.0000
vn -0.0090 -0.5000 0.8660
s 1
usemtl material_1
f 377//53 378//53 379//53
f 380//54 381//54 382//54
f 383//54 384//54 385//54
f 386//55 387//55 388//55
f 389//53 390//53 391//53
f 392//56 393//56 394//56
f 395//56 396//56 397//56
f 398//55 399//55 400//55
f 401//53 402//53 403//53
f 404//57 405//57 406//57
f 407//57 408//57 409//57
f 410//55 411//55 412//55
f 413//53 414//53 415//53
f 416//58 417//58 418//58
f 419//58 420//58 421//58
f 422//55 423//55 424//55
f 425//53 426//53 427//53
f 428//59 429//59 430//59
f 431//59 432//59 433//59
f 434//55 435//55 436//55
f 437//53 438//53 439//53
f 440//60 441//60 442//60
f 443//60 444//60 445//60
f 446//55 447//55 448//55
o geometry_18
v -0.445361 0.411600 -0.450632
v -0.445216 0.411600 -0.464631
v -0.445289 0.423724 -0.457632
v -0.445361 0.411600 -0.450632
v -0.445289 0.423724 -0.457632
v -0.495359 0.411600 -0.451149
v -0.495359 0.411600 -0.451149
v -0.445289 0.423724 -0.457632
v -0.495286 0.423724 -0.458149
v -0.495359 0.411600 -0.451149
v -0.495286 0.423724 -0.458149
v -0.495214 0.411600 -0.465149
v -0.445289 0.423724 -0.457632
v -0.445216 0.411600 -0.464631
v -0.445144 0.423724 -0.471631
v -0.445289 0.423724 -0.457632
v -0.445144 0.423724 -0.471631
v -0.495286 0.423724 -0.458149
v -0.495286 0.423724 -0.458149
v -0.445144 0.423724 -0.471631
v -0.495141 0.423724 -0.472148
v -0.495286 0.423724 -0.458149
v -0.495141 0.423724 -0.472148
v -0.495214 0.411600 -0.465149
v -0.445144 0.423724 -0.471631
v -0.445216 0.411600 -0.464631
v -0.445072 0.411600 -0.478631
v -0.445144 0.423724 -0.471631
v -0.445072 0.411600 -0.478631
v -0.495141 0.423724 -0.472148
v -0.495141 0.423724 -0.472148
v -0.445072 0.411600 -0.478631
v -0.495069 0.411600 -0.479148
v -0.495141 0.423724 -0.472148
v -0.495069 0.411600 -0.479148
v -0.495214 0.411600 -0.465149
v -0.445072 0.411600 -0.478631
v -0.445216 0.411600 -0.464631
v -0.445144 0.399476 -0.471631
v -0.445072 0.411600 -0.478631
v -0.445144 0.399476 -0.471631
v -0.495069 0.411600 -0.479148
v -0.495069 0.411600 -0.479148
v -0.445144 0.399476 -0.471631
v -0.495141 0.399476 -0.472148
v -0.495069 0.411600 -0.479148
v -0.495141 0.399476 -0.472148
v -0.495214 0.411600 -0.465149
v -0.445144 0.399476 -0.471631
v -0.445216 0.411600 -0.464631
v -0.445289 0.399476 -0.457632
v -0.445144 0.399476 -0.471631
v -0.445289 0.399476 -0.457632
v -0.495141 0.399476 -0.472148
v -0.495141 0.399476 -0.472148
v -0.445289 0.399476 -0.457632
v -0.495286 0.399476 -0.458149
v -0.495141 0.399476 -0.472148
v -0.495286 0.399476 -0.458149
v -0.495214 0.411600 -0.465149
v -0.445289 0.399476 -0.457632
v -0.445216 0.411600 -0.464631
v -0.445361 0.411600 -0.450632
v -0.445289 0.399476 -0.457632
v -0.445361 0.411600 -0.450632
v -0.495286 0.399476 -0.458149
v -0.495286 0.399476 -0.458149
v -0.445361 0.411600 -0.450632
v -0.495359 0.411600 -0.451149
v -0.495286 0.399476 -0.458149
v -0.495359 0.411600 -0.451149
v -0.495214 0.411600 -0.465149
vn 0.9999 -0.0000 0.0103
vn -0.0090 0.5000 0.8660
vn -0.9999 -0.0000 -0.0103
vn -0.0000 1.0000 -0.0000
vn 0.0090 0.5000 -0.8660
vn 0.0090 -0.5000 -0.8660
vn -0.0000 -1.0000 -0.0000
vn -0.0090 -0.5000 0.8660
s 1
usemtl material_1
f 449//61 450//61 451//61
f 452//62 453//62 454//62
f 455//62 456//62 457//62
f 458//63 459//63 460//63
f 461//61 462//61 463//61
f 464//64 465//64 466//64
f 467//64 468//64 469//64
f 470//63 471//63 472//63
f 473//61 474//61 475//61
f 476//65 477//65 478//65
f 479//65 480//65 481//65
f 482//63 483//63 484//63
f 485//61 486//61 487//61
f 488//66 489//66 490//66
f 491//66 492//66 493//66
f 494//63 495//63 496//63
f 497//61 498//61 499//61
f 500//67 501//67 502//67
f 503//67 504//67 505//67
f 506//63 507//63 508//63
f 509//61 510//61 511//61
f 512//68 513//68 514//68
f 515//68 516//68 517//68
f 518//63 519//63 520//63
o geometry_19
v 0.473677 -0.000000 -0.450000
v 0.443677 -0.000000 -0.450000
v 0.458677 -0.000000 -0.475981
v 0.473677 -0.000000 -0.450000
v 0.458677 -0.000000 -0.475981
v 0.473677 0.420000 -0.450000
v 0.473677 0.420000 -0.450000
v 0.458677 -0.000000 -0.475981
v 0.458677 0.420000 -0.475981
v 0.473677 0.420000 -0.450000
v 0.458677 0.420000 -0.475981
v 0.443677 0.420000 -0.450000
v 0.458677 -0.000000 -0.475981
v 0.443677 -0.000000 -0.450000
v 0.428677 -0.000000 -0.475981
v 0.458677 -0.000000 -0.475981
v 0.428677 -0.000000 -0.475981
v 0.458677 0.420000 -0.475981
v 0.458677 0.420000 -0.475981
v 0.428677 -0.000000 -0.475981
v 0.428677 0.420000 -0.475981
v 0.458677 0.420000 -0.475981
v 0.428677 0.420000 -0.475981
v 0.443677 0.420000 -0.450000
v 0.428677 -0.000000 -0.475981
v 0.443677 -0.000000 -0.450000
v 0.413677 -0.000000 -0.450000
v 0.428677 -0.000000 -0.475981
v 0.413677 -0.000000 -0.450000
v 0.428677 0.420000 -0.475981
v 0.428677 0.420000 -0.475981
v 0.413677 -0.000000 -0.450000
v 0.413677 0.420000 -0.450000
v 0.428677 0.420000 -0.475981
v 0.413677 0.420000 -0.450000
v 0.443677 0.420000 -0.450000
v 0.413677 -0.000000 -0.450000
v 0.443677 -0.000000 -0.450000
v 0.428677 -0.000000 -0.424019
v 0.413677 -0.000000 -0.450000
v 0.428677 -0.000000 -0.424019
v 0.413677 0.420000 -0.450000
v 0.413677 0.420000 -0.450000
v 0.428677 -0.000000 -0.424019
v 0.428677 0.420000 -0.424019
v 0.413677 0.420000 -0.450000
v 0.428677 0.420000 -0.424019
v 0.443677 0.420000 -0.450000
v 0.428677 -0.000000 -0.424019
v 0.443677 -0.000000 -0.450000
v 0.458677 -0.000000 -0.424019
v 0.428677 -0.000000 -0.424019
v 0.458677 -0.000000 -0.424019
v 0.428677 0.420000 -0.424019
v 0.428677 0.420000 -0.424019
v 0.458677 -0.000000 -0.424019
v 0.458677 0.420000 -0.424019
v 0.428677 0.420000 -0.424019
v 0.458677 0.420000 -0.424019
v 0.443677 0.420000 -0.450000
v 0.458677 -0.000000 -0.424019
v 0.443677 -0.000000 -0.450000
v 0.473677 -0.000000 -0.450000
v 0.458677 -0.000000 -0.424019
v 0.473677 -0.000000 -0.450000
v 0.458677 0.420000 -0.424019
v 0.458677 0.420000 -0.424019
v 0.473677 -0.000000 -0.450000
v 0.473677 0.420000 -0.450000
v 0.458677 0.420000 -0.424019
v 0.473677 0.420000 -0.450000
v 0.443677 0.420000 -0.450000
vn -0.0000 -1.0000 -0.0000
vn 0.8660 -0.0000 -0.5000
vn -0.0000 1.0000 -0.0000
vn -0.0000 -0.0000 -1.0000
vn -0.8660 -0.0000 -0.5000
vn -0.8660 -0.0000 0.5000
vn -0.0000 -0.0000 1.0000
vn 0.8660 -0.0000 0.5000
s 1
usemtl material_0
f 521//69 522//69 523//69
f 524//70 525//70 526//70
f 527//70 528//70 529//70
f 530//71 531//71 532//71
f 533//69 534//69 535//69
f 536//72 537//72 538//72
f 539//72 540//72 541//72
f 542//71 543//71 544//71
f 545//69 546//69 547//69
f 548//73 549//73 550//73
f 551//73 552//73 553//73
f 554//71 555//71 556//71
f 557//69 558//69 559//69
f 560//74 561//74 562//74
f 563//74 564//74 565//74
f 566//71 567//71 568//71
f 569//69 570//69 571//69
f 572//75 573//75 574//75
f 575//75 576//75 577//75
f 578//71 579//71 580//71
f 581//69 582//69 583//69
f 584//76 585//76 586//76
f 587//76 588//76 589//76
f 590//71 591//71 592//71
o geometry_2
v -0.485000 -0.052258 -0.165397
v -0.485000 -0.052258 -0.001270
v -0.485000 -0.002258 -0.165397
v -0.485000 -0.002258 -0.001270
v 0.485000 -0.052258 -0.165397
v 0.485000 -0.052258 -0.001270
v 0.485000 -0.002258 -0.165397
v 0.485000 -0.002258 -0.001270
vn -1.0000 -0.0000 -0.0000
vn -0.0000 -1.0000 -0.0000
vn -0.0000 -0.0000 -1.0000
vn -0.0000 -0.0000 1.0000
vn -0.0000 1.0000 -0.0000
vn 1.0000 -0.0000 -0.0000
s 1
usemtl material_3
f 594//77 596//77 593//77
f 597//78 594//78 593//78
f 593//77 596//77 595//77
f 595//79 597//79 593//79
f 594//80 600//80 596//80
f 598//78 594//78 597//78
f 598//80 600//80 594//80
f 596//81 600//81 595//81
f 599//79 597//79 595//79
f 595//81 600//81 599//81
f 599//82 598//82 597//82
f 600//82 598//82 599//82
o geometry_20
v 0.494004 0.000000 0.000000
v 0.464004 0.000000 0.000000
v 0.479004 -0.000000 -0.025981
v 0.494004 0.000000 0.000000
v 0.479004 -0.000000 -0.025981
v 0.494004 0.420000 -0.000000
v 0.494004 0.420000 -0.000000
v 0.479004 -0.000000 -0.025981
v 0.479004 0.420000 -0.025981
v 0.494004 0.420000 -0.000000
v 0.479004 0.420000 -0.025981
v 0.464004 0.420000 -0.000000
v 0.479004 -0.000000 -0.025981
v 0.464004 0.000000 0.000000
v 0.449004 -0.000000 -0.025981
v 0.479004 -0.000000 -0.025981
v 0.449004 -0.000000 -0.025981
v 0.479004 0.420000 -0.025981
v 0.479004 0.420000 -0.025981
v 0.449004 -0.000000 -0.025981
v 0.449004 0.420000 -0.025981
v 0.479004 0.420000 -0.025981
v 0.449004 0.420000 -0.025981
v 0.464004 0.420000 -0.000000
v 0.449004 -0.000000 -0.025981
v 0.464004 0.000000 0.000000
v 0.434004 0.000000 0.000000
v 0.449004 -0.000000 -0.025981
v 0.434004 0.000000 0.000000
v 0.449004 0.420000 -0.025981
v 0.449004 0.420000 -0.025981
v 0.434004 0.000000 0.000000
v 0.434004 0.420000 -0.000000
v 0.449004 0.420000 -0.025981
v 0.434004 0.420000 -0.000000
v 0.464004 0.420000 -0.000000
v 0.434004 0.000000 0.000000
v 0.464004 0.000000 0.000000
v 0.449004 0.000000 0.025981
v 0.434004 0.000000 0.000000
v 0.449004 0.000000 0.025981
v 0.434004 0.420000 -0.000000
v 0.434004 0.420000 -0.000000
v 0.449004 0.000000 0.025981
v 0.449004 0.420000 0.025981
v 0.434004 0.420000 -0.000000
v 0.449004 0.420000 0.025981
v 0.464004 0.420000 -0.000000
v 0.449004 0.000000 0.025981
v 0.464004 0.000000 0.000000
v 0.479004 0.000000 0.025981
v 0.449004 0.000000 0.025981
v 0.479004 0.000000 0.025981
v 0.449004 0.420000 0.025981
v 0.449004 0.420000 0.025981
v 0.479004 0.000000 0.025981
v 0.479004 0.420000 0.025981
v 0.449004 0.420000 0.025981
v 0.479004 0.420000 0.025981
v 0.464004 0.420000 -0.000000
v 0.479004 0.000000 0.025981
v 0.464004 0.000000 0.000000
v 0.494004 0.000000 0.000000
v 0.479004 0.000000 0.025981
v 0.494004 0.000000 0.000000
v 0.479004 0.420000 0.025981
v 0.479004 0.420000 0.025981
v 0.494004 0.000000 0.000000
v 0.494004 0.420000 -0.000000
v 0.479004 0.420000 0.025981
v 0.494004 0.420000 -0.000000
v 0.464004 0.420000 -0.000000
vn -0.0000 -1.0000 -0.0000
vn 0.8660 -0.0000 -0.5000
vn -0.0000 1.0000 -0.0000
vn -0.0000 -0.0000 -1.0000
vn -0.8660 -0.0000 -0.5000
vn -0.8660 -0.0000 0.5000
vn -0.0000 -0.0000 1.0000
vn 0.8660 -0.0000 0.5000
s 1
usemtl material_0
f 601//83 602//83 603//83
f 604//84 605//84 606//84
f 607//84 608//84 609//84
f 610//85 611//85 612//85
f 613//83 614//83 615//83
f 616//86 617//86 618//86
f 619//86 620//86 621//86
f 622//85 623//85 624//85
f 625//83 626//83 627//83
f 628//87 629//87 630//87
f 631//87 632//87 633//87
f 634//85 635//85 636//85
f 637//83 638//83 639//83
f 640//88 641//88 642//88
f 643//88 644//88 645//88
f 646//85 647//85 648//85
f 649//83 650//83 651//83
f 652//89 653//89 654//89
f 655//89 656//89 657//89
f 658//85 659//85 660//85
f 661//83 662//83 663//83
f 664//90 665//90 666//90
f 667//90 668//90 669//90
f 670//85 671//85 672//85
o geometry_21
v 0.499142 0.000000 0.450000
v 0.469142 0.000000 0.450000
v 0.484142 0.000000 0.424019
v 0.499142 0.000000 0.450000
v 0.484142 0.000000 0.424019
v 0.499142 0.420000 0.450000
v 0.499142 0.420000 0.450000
v 0.484142 0.000000 0.424019
v 0.484142 0.420000 0.424019
v 0.499142 0.420000 0.450000
v 0.484142 0.420000 0.424019
v 0.469142 0.420000 0.450000
v 0.484142 0.000000 0.424019
v 0.469142 0.000000 0.450000
v 0.454142 0.000000 0.424019
v 0.484142 0.000000 0.424019
v 0.454142 0.000000 0.424019
v 0.484142 0.420000 0.424019
v 0.484142 0.420000 0.424019
v 0.454142 0.000000 0.424019
v 0.454142 0.420000 0.424019
v 0.484142 0.420000 0.424019
v 0.454142 0.420000 0.424019
v 0.469142 0.420000 0.450000
v 0.454142 0.000000 0.424019
v 0.469142 0.000000 0.450000
v 0.439142 0.000000 0.450000
v 0.454142 0.000000 0.424019
v 0.439142 0.000000 0.450000
v 0.454142 0.420000 0.424019
v 0.454142 0.420000 0.424019
v 0.439142 0.000000 0.450000
v 0.439142 0.420000 0.450000
v 0.454142 0.420000 0.424019
v 0.439142 0.420000 0.450000
v 0.469142 0.420000 0.450000
v 0.439142 0.000000 0.450000
v 0.469142 0.000000 0.450000
v 0.454142 0.000000 0.475981
v 0.439142 0.000000 0.450000
v 0.454142 0.000000 0.475981
v 0.439142 0.420000 0.450000
v 0.439142 0.420000 0.450000
v 0.454142 0.000000 0.475981
v 0.454142 0.420000 0.475981
v 0.439142 0.420000 0.450000
v 0.454142 0.420000 0.475981
v 0.469142 0.420000 0.450000
v 0.454142 0.000000 0.475981
v 0.469142 0.000000 0.450000
v 0.484142 0.000000 0.475981
v 0.454142 0.000000 0.475981
v 0.484142 0.000000 0.475981
v 0.454142 0.420000 0.475981
v 0.454142 0.420000 0.475981
v 0.484142 0.000000 0.475981
v 0.484142 0.420000 0.475981
v 0.454142 0.420000 0.475981
v 0.484142 0.420000 0.475981
v 0.469142 0.420000 0.450000
v 0.484142 0.000000 0.475981
v 0.469142 0.000000 0.450000
v 0.499142 0.000000 0.450000
v 0.484142 0.000000 0.475981
v 0.499142 0.000000 0.450000
v 0.484142 0.420000 0.475981
v 0.484142 0.420000 0.475981
v 0.499142 0.000000 0.450000
v 0.499142 0.420000 0.450000
v 0.484142 0.420000 0.475981
v 0.499142 0.420000 0.450000
v 0.469142 0.420000 0.450000
vn -0.0000 -1.0000 -0.0000
vn 0.8660 -0.0000 -0.5000
vn -0.0000 1.0000 -0.0000
vn -0.0000 -0.0000 -1.0000
vn -0.8660 -0.0000 -0.5000
vn -0.8660 -0.0000 0.5000
vn -0.0000 -0.0000 1.0000
vn 0.8660 -0.0000 0.5000
s 1
usemtl material_0
f 673//91 674//91 675//91
f 676//92 677//92 678//92
f 679//92 680//92 681//92
f 682//93 683//93 684//93
f 685//91 686//91 687//91
f 688//94 689//94 690//94
f 691//94 692//94 693//94
f 694//93 695//93 696//93
f 697//91 698//91 699//91
f 700//95 701//95 702//95
f 703//95 704//95 705//95
f 706//93 707//93 708//93
f 709//91 710//91 711//91
f 712//96 713//96 714//96
f 715//96 716//96 717//96
f 718//93 719//93 720//93
f 721//91 722//91 723//91
f 724//97 725//97 726//97
f 727//97 728//97 729//97
f 730//93 731//93 732//93
f 733//91 734//91 735//91
f 736//98 737//98 738//98
f 739//98 740//98 741//98
f 742//93 743//93 744//93
o geometry_22
v 0.474000 0.211000 -0.450000
v 0.460000 0.211000 -0.450000
v 0.467000 0.223124 -0.450000
v 0.474000 0.211000 -0.450000
v 0.467000 0.223124 -0.450000
v 0.474000 0.211000 -0.000000
v 0.474000 0.211000 -0.000000
v 0.467000 0.223124 -0.450000
v 0.467000 0.223124 -0.000000
v 0.474000 0.211000 -0.000000
v 0.467000 0.223124 -0.000000
v 0.460000 0.211000 -0.000000
v 0.467000 0.223124 -0.450000
v 0.460000 0.211000 -0.450000
v 0.453000 0.223124 -0.450000
v 0.467000 0.223124 -0.450000
v 0.453000 0.223124 -0.450000
v 0.467000 0.223124 -0.000000
v 0.467000 0.223124 -0.000000
v 0.453000 0.223124 -0.450000
v 0.453000 0.223124 -0.000000
v 0.467000 0.223124 -0.000000
v 0.453000 0.223124 -0.000000
v 0.460000 0.211000 -0.000000
v 0.453000 0.223124 -0.450000
v 0.460000 0.211000 -0.450000
v 0.446000 0.211000 -0.450000
v 0.453000 0.223124 -0.450000
v 0.446000 0.211000 -0.450000
v 0.453000 0.223124 -0.000000
v 0.453000 0.223124 -0.000000
v 0.446000 0.211000 -0.450000
v 0.446000 0.211000 -0.000000
v 0.453000 0.223124 -0.000000
v 0.446000 0.211000 -0.000000
v 0.460000 0.211000 -0.000000
v 0.446000 0.211000 -0.450000
v 0.460000 0.211000 -0.450000
v 0.453000 0.198876 -0.450000
v 0.446000 0.211000 -0.450000
v 0.453000 0.198876 -0.450000
v 0.446000 0.211000 -0.000000
v 0.446000 0.211000 -0.000000
v 0.453000 0.198876 -0.450000
v 0.453000 0.198876 -0.000000
v 0.446000 0.211000 -0.000000
v 0.453000 0.198876 -0.000000
v 0.460000 0.211000 -0.000000
v 0.453000 0.198876 -0.450000
v 0.460000 0.211000 -0.450000
v 0.467000 0.198876 -0.450000
v 0.453000 0.198876 -0.450000
v 0.467000 0.198876 -0.450000
v 0.453000 0.198876 -0.000000
v 0.453000 0.198876 -0.000000
v 0.467000 0.198876 -0.450000
v 0.467000 0.198876 -0.000000
v 0.453000 0.198876 -0.000000
v 0.467000 0.198876 -0.000000
v 0.460000 0.211000 -0.000000
v 0.467000 0.198876 -0.450000
v 0.460000 0.211000 -0.450000
v 0.474000 0.211000 -0.450000
v 0.467000 0.198876 -0.450000
v 0.474000 0.211000 -0.450000
v 0.467000 0.198876 -0.000000
v 0.467000 0.198876 -0.000000
v 0.474000 0.211000 -0.450000
v 0.474000 0.211000 -0.000000
v 0.467000 0.198876 -0.000000
v 0.474000 0.211000 -0.000000
v 0.460000 0.211000 -0.000000
vn -0.0000 -0.0000 -1.0000
vn 0.8660 0.5000 -0.0000
vn -0.0000 -0.0000 1.0000
vn -0.0000 1.0000 -0.0000
vn -0.8660 0.5000 -0.0000
vn -0.8660 -0.5000 -0.0000
vn -0.0000 -1.0000 -0.0000
vn 0.8660 -0.5000 -0.0000
s 1
usemtl material_1
f 745//99 746//99 747//99
f 748//100 749//100 750//100
f 751//100 752//100 753//100
f 754//101 755//101 756//101
f 757//99 758//99 759//99
f 760//102 761//102 762//102
f 763//102 764//102 765//102
f 766//101 767//101 768//101
f 769//99 770//99 771//99
f 772//103 773//103 774//103
f 775//103 776//103 777//103
f 778//101 779//101 780//101
f 781//99 782//99 783//99
f 784//104 785//104 786//104
f 787//104 788//104 789//104
f 790//101 791//101 792//101
f 793//99 794//99 795//99
f 796//105 797//105 798//105
f 799//105 800//105 801//105
f 802//101 803//101 804//101
f 805//99 806//99 807//99
f 808//106 809//106 810//106
f 811//106 812//106 813//106
f 814//101 815//101 816//101
o geometry_23
v 0.474000 0.211000 -0.000000
v 0.460000 0.211000 -0.000000
v 0.467000 0.223124 -0.000000
v 0.474000 0.211000 -0.000000
v 0.467000 0.223124 -0.000000
v 0.474000 0.211000 0.450000
v 0.474000 0.211000 0.450000
v 0.467000 0.223124 -0.000000
v 0.467000 0.223124 0.450000
v 0.474000 0.211000 0.450000
v 0.467000 0.223124 0.450000
v 0.460000 0.211000 0.450000
v 0.467000 0.223124 -0.000000
v 0.460000 0.211000 -0.000000
v 0.453000 0.223124 -0.000000
v 0.467000 0.223124 -0.000000
v 0.453000 0.223124 -0.000000
v 0.467000 0.223124 0.450000
v 0.467000 0.223124 0.450000
v 0.453000 0.223124 -0.000000
v 0.453000 0.223124 0.450000
v 0.467000 0.223124 0.450000
v 0.453000 0.223124 0.450000
v 0.460000 0.211000 0.450000
v 0.453000 0.223124 -0.000000
v 0.460000 0.211000 -0.000000
v 0.446000 0.211000 -0.000000
v 0.453000 0.223124 -0.000000
v 0.446000 0.211000 -0.000000
v 0.453000 0.223124 0.450000
v 0.453000 0.223124 0.450000
v 0.446000 0.211000 -0.000000
v 0.446000 0.211000 0.450000
v 0.453000 0.223124 0.450000
v 0.446000 0.211000 0.450000
v 0.460000 0.211000 0.450000
v 0.446000 0.211000 -0.000000
v 0.460000 0.211000 -0.000000
v 0.453000 0.198876 -0.000000
v 0.446000 0.211000 -0.000000
v 0.453000 0.198876 -0.000000
v 0.446000 0.211000 0.450000
v 0.446000 0.211000 0.450000
v 0.453000 0.198876 -0.000000
v 0.453000 0.198876 0.450000
v 0.446000 0.211000 0.450000
v 0.453000 0.198876 0.450000
v 0.460000 0.211000 0.450000
v 0.453000 0.198876 -0.000000
v 0.460000 0.211000 -0.000000
v 0.467000 0.198876 -0.000000
v 0.453000 0.198876 -0.000000
v 0.467000 0.198876 -0.000000
v 0.453000 0.198876 0.450000
v 0.453000 0.198876 0.450000
v 0.467000 0.198876 -0.000000
v 0.467000 0.198876 0.450000
v 0.453000 0.198876 0.450000
v 0.467000 0.198876 0.450000
v 0.460000 0.211000 0.450000
v 0.467000 0.198876 -0.000000
v 0.460000 0.211000 -0.000000
v 0.474000 0.211000 -0.000000
v 0.467000 0.198876 -0.000000
v 0.474000 0.211000 -0.000000
v 0.467000 0.198876 0.450000
v 0.467000 0.198876 0.450000
v 0.474000 0.211000 -0.000000
v 0.474000 0.211000 0.450000
v 0.467000 0.198876 0.450000
v 0.474000 0.211000 0.450000
v 0.460000 0.211000 0.450000
vn -0.0000 -0.0000 -1.0000
vn 0.8660 0.5000 -0.0000
vn -0.0000 -0.0000 1.0000
vn -0.0000 1.0000 -0.0000
vn -0.8660 0.5000 -0.0000
vn -0.8660 -0.5000 -0.0000
vn -0.0000 -1.0000 -0.0000
vn 0.8660 -0.5000 -0.0000
s 1
usemtl material_1
f 817//107 818//107 819//107
f 820//108 821//108 822//108
f 823//108 824//108 825//108
f 826//109 827//109 828//109
f 829//107 830//107 831//107
f 832//110 833//110 834//110
f 835//110 836//110 837//110
f 838//109 839//109 840//109
f 841//107 842//107 843//107
f 844//111 845//111 846//111
f 847//111 848//111 849//111
f 850//109 851//109 852//109
f 853//107 854//107 855//107
f 856//112 857//112 858//112
f 859//112 860//112 861//112
f 862//109 863//109 864//109
f 865//107 866//107 867//107
f 868//113 869//113 870//113
f 871//113 872//113 873//113
f 874//109 875//109 876//109
f 877//107 878//107 879//107
f 880//114 881//114 882//114
f 883//114 884//114 885//114
f 886//109 887//109 888//109
o geometry_24
v 0.474000 0.391600 -0.450000
v 0.460000 0.391600 -0.450000
v 0.467000 0.403724 -0.450000
v 0.474000 0.391600 -0.450000
v 0.467000 0.403724 -0.450000
v 0.474000 0.391600 -0.000000
v 0.474000 0.391600 -0.000000
v 0.467000 0.403724 -0.450000
v 0.467000 0.403724 -0.000000
v 0.474000 0.391600 -0.000000
v 0.467000 0.403724 -0.000000
v 0.460000 0.391600 -0.000000
v 0.467000 0.403724 -0.450000
v 0.460000 0.391600 -0.450000
v 0.453000 0.403724 -0.450000
v 0.467000 0.403724 -0.450000
v 0.453000 0.403724 -0.450000
v 0.467000 0.403724 -0.000000
v 0.467000 0.403724 -0.000000
v 0.453000 0.403724 -0.450000
v 0.453000 0.403724 -0.000000
v 0.467000 0.403724 -0.000000
v 0.453000 0.403724 -0.000000
v 0.460000 0.391600 -0.000000
v 0.453000 0.403724 -0.450000
v 0.460000 0.391600 -0.450000
v 0.446000 0.391600 -0.450000
v 0.453000 0.403724 -0.450000
v 0.446000 0.391600 -0.450000
v 0.453000 0.403724 -0.000000
v 0.453000 0.403724 -0.000000
v 0.446000 0.391600 -0.450000
v 0.446000 0.391600 -0.000000
v 0.453000 0.403724 -0.000000
v 0.446000 0.391600 -0.000000
v 0.460000 0.391600 -0.000000
v 0.446000 0.391600 -0.450000
v 0.460000 0.391600 -0.450000
v 0.453000 0.379476 -0.450000
v 0.446000 0.391600 -0.450000
v 0.453000 0.379476 -0.450000
v 0.446000 0.391600 -0.000000
v 0.446000 0.391600 -0.000000
v 0.453000 0.379476 -0.450000
v 0.453000 0.379476 -0.000000
v 0.446000 0.391600 -0.000000
v 0.453000 0.379476 -0.000000
v 0.460000 0.391600 -0.000000
v 0.453000 0.379476 -0.450000
v 0.460000 0.391600 -0.450000
v 0.467000 0.379476 -0.450000
v 0.453000 0.379476 -0.450000
v 0.467000 0.379476 -0.450000
v 0.453000 0.379476 -0.000000
v 0.453000 0.379476 -0.000000
v 0.467000 0.379476 -0.450000
v 0.467000 0.379476 -0.000000
v 0.453000 0.379476 -0.000000
v 0.467000 0.379476 -0.000000
v 0.460000 0.391600 -0.000000
v 0.467000 0.379476 -0.450000
v 0.460000 0.391600 -0.450000
v 0.474000 0.391600 -0.450000
v 0.467000 0.379476 -0.450000
v 0.474000 0.391600 -0.450000
v 0.467000 0.379476 -0.000000
v 0.467000 0.379476 -0.000000
v 0.474000 0.391600 -0.450000
v 0.474000 0.391600 -0.000000
v 0.467000 0.379476 -0.000000
v 0.474000 0.391600 -0.000000
v 0.460000 0.391600 -0.000000
vn -0.0000 -0.0000 -1.0000
vn 0.8660 0.5000 -0.0000
vn -0.0000 -0.0000 1.0000
vn -0.0000 1.0000 -0.0000
vn -0.8660 0.5000 -0.0000
vn -0.8660 -0.5000 -0.0000
vn -0.0000 -1.0000 -0.0000
vn 0.8660 -0.5000 -0.0000
s 1
usemtl material_1
f 889//115 890//115 891//115
f 892//116 893//116 894//116
f 895//116 896//116 897//116
f 898//117 899//117 900//117
f 901//115 902//115 903//115
f 904//118 905//118 906//118
f 907//118 908//118 909//118
f 910//117 911//117 912//117
f 913//115 914//115 915//115
f 916//119 917//119 918//119
f 919//119 920//119 921//119
f 922//117 923//117 924//117
f 925//115 926//115 927//115
f 928//120 929//120 930//120
f 931//120 932//120 933//120
f 934//117 935//117 936//117
f 937//115 938//115 939//115
f 940//121 941//121 942//121
f 943//121 944//121 945//121
f 946//117 947//117 948//117
f 949//115 950//115 951//115
f 952//122 953//122 954//122
f 955//122 956//122 957//122
f 958//117 959//117 960//117
o geometry_25
v 0.474000 0.391600 -0.000000
v 0.460000 0.391600 -0.000000
v 0.467000 0.403724 -0.000000
v 0.474000 0.391600 -0.000000
v 0.467000 0.403724 -0.000000
v 0.474000 0.391600 0.450000
v 0.474000 0.391600 0.450000
v 0.467000 0.403724 -0.000000
v 0.467000 0.403724 0.450000
v 0.474000 0.391600 0.450000
v 0.467000 0.403724 0.450000
v 0.460000 0.391600 0.450000
v 0.467000 0.403724 -0.000000
v 0.460000 0.391600 -0.000000
v 0.453000 0.403724 -0.000000
v 0.467000 0.403724 -0.000000
v 0.453000 0.403724 -0.000000
v 0.467000 0.403724 0.450000
v 0.467000 0.403724 0.450000
v 0.453000 0.403724 -0.000000
v 0.453000 0.403724 0.450000
v 0.467000 0.403724 0.450000
v 0.453000 0.403724 0.450000
v 0.460000 0.391600 0.450000
v 0.453000 0.403724 -0.000000
v 0.460000 0.391600 -0.000000
v 0.446000 0.391600 -0.000000
v 0.453000 0.403724 -0.000000
v 0.446000 0.391600 -0.000000
v 0.453000 0.403724 0.450000
v 0.453000 0.403724 0.450000
v 0.446000 0.391600 -0.000000
v 0.446000 0.391600 0.450000
v 0.453000 0.403724 0.450000
v 0.446000 0.391600 0.450000
v 0.460000 0.391600 0.450000
v 0.446000 0.391600 -0.000000
v 0.460000 0.391600 -0.000000
v 0.453000 0.379476 -0.000000
v 0.446000 0.391600 -0.000000
v 0.453000 0.379476 -0.000000
v 0.446000 0.391600 0.450000
v 0.446000 0.391600 0.450000
v 0.453000 0.379476 -0.000000
v 0.453000 0.379476 0.450000
v 0.446000 0.391600 0.450000
v 0.453000 0.379476 0.450000
v 0.460000 0.391600 0.450000
v 0.453000 0.379476 -0.000000
v 0.460000 0.391600 -0.000000
v 0.467000 0.379476 -0.000000
v 0.453000 0.379476 -0.000000
v 0.467000 0.379476 -0.000000
v 0.453000 0.379476 0.450000
v 0.453000 0.379476 0.450000
v 0.467000 0.379476 -0.000000
v 0.467000 0.379476 0.450000
v 0.453000 0.379476 0.450000
v 0.467000 0.379476 0.450000
v 0.460000 0.391600 0.450000
v 0.467000 0.379476 -0.000000
v 0.460000 0.391600 -0.000000
v 0.474000 0.391600 -0.000000
v 0.467000 0.379476 -0.000000
v 0.474000 0.391600 -0.000000
v 0.467000 0.379476 0.450000
v 0.467000 0.379476 0.450000
v 0.474000 0.391600 -0.000000
v 0.474000 0.391600 0.450000
v 0.467000 0.379476 0.450000
v 0.474000 0.391600 0.450000
v 0.460000 0.391600 0.450000
vn -0.0000 -0.0000 -1.0000
vn 0.8660 0.5000 -0.0000
vn -0.0000 -0.0000 1.0000
vn -0.0000 1.0000 -0.0000
vn -0.8660 0.5000 -0.0000
vn -0.8660 -0.5000 -0.0000
vn -0.0000 -1.0000 -0.0000
vn 0.8660 -0.5000 -0.0000
s 1
usemtl material_1
f 961//123 962//123 963//123
f 964//124 965//124 966//124
f 967//124 968//124 969//124
f 970//125 971//125 972//125
f 973//123 974//123 975//123
f 976//126 977//126 978//126
f 979//126 980//126 981//126
f 982//125 983//125 984//125
f 985//123 986//123 987//123
f 988//127 989//127 990//127
f 991//127 992//127 993//127
f 994//125 995//125 996//125
f 997//123 998//123 999//123
f 1000//128 1001//128 1002//128
f 1003//128 1004//128 1005//128
f 1006//125 1007//125 1008//125
f 1009//123 1010//123 1011//123
f 1012//129 1013//129 1014//129
f 1015//129 1016//129 1017//129
f 1018//125 1019//125 1020//125
f 1021//123 1022//123 1023//123
f 1024//130 1025//130 1026//130
f 1027//130 1028//130 1029//130
f 1030//125 1031//125 1032//125
o geometry_27
v 0.474000 0.231000 0.450000
v 0.460000 0.231000 0.450000
v 0.467000 0.243124 0.450000
v 0.474000 0.231000 0.450000
v 0.467000 0.243124 0.450000
v 0.474000 0.231000 0.500000
v 0.474000 0.231000 0.500000
v 0.467000 0.243124 0.450000
v 0.467000 0.243124 0.500000
v 0.474000 0.231000 0.500000
v 0.467000 0.243124 0.500000
v 0.460000 0.231000 0.500000
v 0.467000 0.243124 0.450000
v 0.460000 0.231000 0.450000
v 0.453000 0.243124 0.450000
v 0.467000 0.243124 0.450000
v 0.453000 0.243124 0.450000
v 0.467000 0.243124 0.500000
v 0.467000 0.243124 0.500000
v 0.453000 0.243124 0.450000
v 0.453000 0.243124 0.500000
v 0.467000 0.243124 0.500000
v 0.453000 0.243124 0.500000
v 0.460000 0.231000 0.500000
v 0.453000 0.243124 0.450000
v 0.460000 0.231000 0.450000
v 0.446000 0.231000 0.450000
v 0.453000 0.243124 0.450000
v 0.446000 0.231000 0.450000
v 0.453000 0.243124 0.500000
v 0.453000 0.243124 0.500000
v 0.446000 0.231000 0.450000
v 0.446000 0.231000 0.500000
v 0.453000 0.243124 0.500000
v 0.446000 0.231000 0.500000
v 0.460000 0.231000 0.500000
v 0.446000 0.231000 0.450000
v 0.460000 0.231000 0.450000
v 0.453000 0.218876 0.450000
v 0.446000 0.231000 0.450000
v 0.453000 0.218876 0.450000
v 0.446000 0.231000 0.500000
v 0.446000 0.231000 0.500000
v 0.453000 0.218876 0.450000
v 0.453000 0.218876 0.500000
v 0.446000 0.231000 0.500000
v 0.453000 0.218876 0.500000
v 0.460000 0.231000 0.500000
v 0.453000 0.218876 0.450000
v 0.460000 0.231000 0.450000
v 0.467000 0.218876 0.450000
v 0.453000 0.218876 0.450000
v 0.467000 0.218876 0.450000
v 0.453000 0.218876 0.500000
v 0.453000 0.218876 0.500000
v 0.467000 0.218876 0.450000
v 0.467000 0.218876 0.500000
v 0.453000 0.218876 0.500000
v 0.467000 0.218876 0.500000
v 0.460000 0.231000 0.500000
v 0.467000 0.218876 0.450000
v 0.460000 0.231000 0.450000
v 0.474000 0.231000 0.450000
v 0.467000 0.218876 0.450000
v 0.474000 0.231000 0.450000
v 0.467000 0.218876 0.500000
v 0.467000 0.218876 0.500000
v 0.474000 0.231000 0.450000
v 0.474000 0.231000 0.500000
v 0.467000 0.218876 0.500000
v 0.474000 0.231000 0.500000
v 0.460000 0.231000 0.500000
vn -0.0000 -0.0000 -1.0000
vn 0.8660 0.5000 -0.0000
vn -0.0000 -0.0000 1.0000
vn -0.0000 1.0000 -0.0000
vn -0.8660 0.5000 -0.0000
vn -0.8660 -0.5000 -0.0000
vn -0.0000 -1.0000 -0.0000
vn 0.8660 -0.5000 -0.0000
s 1
usemtl material_1
f 1033//131 1034//131 1035//131
f 1036//132 1037//132 1038//132
f 1039//132 1040//132 1041//132
f 1042//133 1043//133 1044//133
f 1045//131 1046//131 1047//131
f 1048//134 1049//134 1050//134
f 1051//134 1052//134 1053//134
f 1054//133 1055//133 1056//133
f 1057//131 1058//131 1059//131
f 1060//135 1061//135 1062//135
f 1063//135 1064//135 1065//135
f 1066//133 1067//133 1068//133
f 1069//131 1070//131 1071//131
f 1072//136 1073//136 1074//136
f 1075//136 1076//136 1077//136
f 1078//133 1079//133 1080//133
f 1081//131 1082//131 1083//131
f 1084//137 1085//137 1086//137
f 1087//137 1088//137 1089//137
f 1090//133 1091//133 1092//133
f 1093//131 1094//131 1095//131
f 1096//138 1097//138 1098//138
f 1099//138 1100//138 1101//138
f 1102//133 1103//133 1104//133
o geometry_29
v 0.474000 0.411600 0.450000
v 0.460000 0.411600 0.450000
v 0.467000 0.423724 0.450000
v 0.474000 0.411600 0.450000
v 0.467000 0.423724 0.450000
v 0.474000 0.411600 0.500000
v 0.474000 0.411600 0.500000
v 0.467000 0.423724 0.450000
v 0.467000 0.423724 0.500000
v 0.474000 0.411600 0.500000
v 0.467000 0.423724 0.500000
v 0.460000 0.411600 0.500000
v 0.467000 0.423724 0.450000
v 0.460000 0.411600 0.450000
v 0.453000 0.423724 0.450000
v 0.467000 0.423724 0.450000
v 0.453000 0.423724 0.450000
v 0.467000 0.423724 0.500000
v 0.467000 0.423724 0.500000
v 0.453000 0.423724 0.450000
v 0.453000 0.423724 0.500000
v 0.467000 0.423724 0.500000
v 0.453000 0.423724 0.500000
v 0.460000 0.411600 0.500000
v 0.453000 0.423724 0.450000
v 0.460000 0.411600 0.450000
v 0.446000 0.411600 0.450000
v 0.453000 0.423724 0.450000
v 0.446000 0.411600 0.450000
v 0.453000 0.423724 0.500000
v 0.453000 0.423724 0.500000
v 0.446000 0.411600 0.450000
v 0.446000 0.411600 0.500000
v 0.453000 0.423724 0.500000
v 0.446000 0.411600 0.500000
v 0.460000 0.411600 0.500000
v 0.446000 0.411600 0.450000
v 0.460000 0.411600 0.450000
v 0.453000 0.399476 0.450000
v 0.446000 0.411600 0.450000
v 0.453000 0.399476 0.450000
v 0.446000 0.411600 0.500000
v 0.446000 0.411600 0.500000
v 0.453000 0.399476 0.450000
v 0.453000 0.399476 0.500000
v 0.446000 0.411600 0.500000
v 0.453000 0.399476 0.500000
v 0.460000 0.411600 0.500000
v 0.453000 0.399476 0.450000
v 0.460000 0.411600 0.450000
v 0.467000 0.399476 0.450000
v 0.453000 0.399476 0.450000
v 0.467000 0.399476 0.450000
v 0.453000 0.399476 0.500000
v 0.453000 0.399476 0.500000
v 0.467000 0.399476 0.450000
v 0.467000 0.399476 0.500000
v 0.453000 0.399476 0.500000
v 0.467000 0.399476 0.500000
v 0.460000 0.411600 0.500000
v 0.467000 0.399476 0.450000
v 0.460000 0.411600 0.450000
v 0.474000 0.411600 0.450000
v 0.467000 0.399476 0.450000
v 0.474000 0.411600 0.450000
v 0.467000 0.399476 0.500000
v 0.467000 0.399476 0.500000
v 0.474000 0.411600 0.450000
v 0.474000 0.411600 0.500000
v 0.467000 0.399476 0.500000
v 0.474000 0.411600 0.500000
v 0.460000 0.411600 0.500000
vn -0.0000 -0.0000 -1.0000
vn 0.8660 0.5000 -0.0000
vn -0.0000 -0.0000 1.0000
vn -0.0000 1.0000 -0.0000
vn -0.8660 0.5000 -0.0000
vn -0.8660 -0.5000 -0.0000
vn -0.0000 -1.0000 -0.0000
vn 0.8660 -0.5000 -0.0000
s 1
usemtl material_1
f 1105//139 1106//139 1107//139
f 1108//140 1109//140 1110//140
f 1111//140 1112//140 1113//140
f 1114//141 1115//141 1116//141
f 1117//139 1118//139 1119//139
f 1120//142 1121//142 1122//142
f 1123//142 1124//142 1125//142
f 1126//141 1127//141 1128//141
f 1129//139 1130//139 1131//139
f 1132//143 1133//143 1134//143
f 1135//143 1136//143 1137//143
f 1138//141 1139//141 1140//141
f 1141//139 1142//139 1143//139
f 1144//144 1145//144 1146//144
f 1147//144 1148//144 1149//144
f 1150//141 1151//141 1152//141
f 1153//139 1154//139 1155//139
f 1156//145 1157//145 1158//145
f 1159//145 1160//145 1161//145
f 1162//141 1163//141 1164//141
f 1165//139 1166//139 1167//139
f 1168//146 1169//146 1170//146
f 1171//146 1172//146 1173//146
f 1174//141 1175//141 1176//141
o geometry_3
v -0.485000 -0.046068 0.001228
v -0.485000 -0.046068 0.165439
v -0.485000 0.003932 0.001228
v -0.485000 0.003932 0.165439
v 0.485000 -0.046068 0.001228
v 0.485000 -0.046068 0.165439
v 0.485000 0.003932 0.001228
v 0.485000 0.003932 0.165439
vn -1.0000 -0.0000 -0.0000
vn -0.0000 -1.0000 -0.0000
vn -0.0000 -0.0000 -1.0000
vn -0.0000 -0.0000 1.0000
vn -0.0000 1.0000 -0.0000
vn 1.0000 -0.0000 -0.0000
s 1
usemtl material_2
f 1178//147 1180//147 1177//147
f 1181//148 1178//148 1177//148
f 1177//147 1180//147 1179//147
f 1179//149 1181//149 1177//149
f 1178//150 1184//150 1180//150
f 1182//148 1178//148 1181//148
f 1182//150 1184//150 1178//150
f 1180//151 1184//151 1179//151
f 1183//149 1181//149 1179//149
f 1179//151 1184//151 1183//151
f 1183//152 1182//152 1181//152
f 1184//152 1182//152 1183//152
o geometry_4
v -0.485000 -0.049405 0.166749
v -0.485000 -0.049405 0.333251
v -0.485000 0.000595 0.166749
v -0.485000 0.000595 0.333251
v 0.485000 -0.049405 0.166749
v 0.485000 -0.049405 0.333251
v 0.485000 0.000595 0.166749
v 0.485000 0.000595 0.333251
vn -1.0000 -0.0000 -0.0000
vn -0.0000 -1.0000 -0.0000
vn -0.0000 -0.0000 -1.0000
vn -0.0000 -0.0000 1.0000
vn -0.0000 1.0000 -0.0000
vn 1.0000 -0.0000 -0.0000
s 1
usemtl material_3
f 1186//153 1188//153 1185//153
f 1189//154 1186//154 1185//154
f 1185//153 1188//153 1187//153
f 1187//155 1189//155 1185//155
f 1186//156 1192//156 1188//156
f 1190//154 1186//154 1189//154
f 1190//156 1192//156 1186//156
f 1188//157 1192//157 1187//157
f 1191//155 1189//155 1187//155
f 1187//157 1192//157 1191//157
f 1191//158 1190//158 1189//158
f 1192//158 1190//158 1191//158
o geometry_5
v -0.485000 -0.046958 0.334948
v -0.485000 -0.046958 0.498386
v -0.485000 0.003042 0.334948
v -0.485000 0.003042 0.498386
v 0.485000 -0.046958 0.334948
v 0.485000 -0.046958 0.498386
v 0.485000 0.003042 0.334948
v 0.485000 0.003042 0.498386
vn -1.0000 -0.0000 -0.0000
vn -0.0000 -1.0000 -0.0000
vn -0.0000 -0.0000 -1.0000
vn -0.0000 -0.0000 1.0000
vn -0.0000 1.0000 -0.0000
vn 1.0000 -0.0000 -0.0000
s 1
usemtl material_2
f 1194//159 1196//159 1193//159
f 1197//160 1194//160 1193//160
f 1193//159 1196//159 1195//159
f 1195//161 1197//161 1193//161
f 1194//162 1200//162 1196//162
f 1198//160 1194//160 1197//160
f 1198//162 1200//162 1194//162
f 1196//163 1200//163 1195//163
f 1199//161 1197//161 1195//161
f 1195//163 1200//163 1199//163
f 1199//164 1198//164 1197//164
f 1200//164 1198//164 1199//164
o geometry_6
v -0.470000 -0.100000 -0.500000
v -0.470000 -0.100000 0.500000
v -0.470000 -0.050000 -0.500000
v -0.470000 -0.050000 0.500000
v -0.410000 -0.100000 -0.500000
v -0.410000 -0.100000 0.500000
v -0.410000 -0.050000 -0.500000
v -0.410000 -0.050000 0.500000
vn -1.0000 -0.0000 -0.0000
vn -0.0000 -1.0000 -0.0000
vn -0.0000 -0.0000 -1.0000
vn -0.0000 -0.0000 1.0000
vn -0.0000 1.0000 -0.0000
vn 1.0000 -0.0000 -0.0000
s 1
usemtl material_0
f 1202//165 1204//165 1201//165
f 1205//166 1202//166 1201//166
f 1201//165 1204//165 1203//165
f 1203//167 1205//167 1201//167
f 1202//168 1208//168 1204//168
f 1206//166 1202//166 1205//166
f 1206//168 1208//168 1202//168
f 1204//169 1208//169 1203//169
f 1207//167 1205//167 1203//167
f 1203//169 1208//169 1207//169
f 1207//170 1206//170 1205//170
f 1208//170 1206//170 1207//170
o geometry_7
v 0.410000 -0.100000 -0.500000
v 0.410000 -0.100000 0.500000
v 0.410000 -0.050000 -0.500000
v 0.410000 -0.050000 0.500000
v 0.470000 -0.100000 -0.500000
v 0.470000 -0.100000 0.500000
v 0.470000 -0.050000 -0.500000
v 0.470000 -0.050000 0.500000
vn -1.0000 -0.0000 -0.0000
vn -0.0000 -1.0000 -0.0000
vn -0.0000 -0.0000 -1.0000
vn -0.0000 -0.0000 1.0000
vn -0.0000 1.0000 -0.0000
vn 1.0000 -0.0000 -0.0000
s 1
usemtl material_0
f 1210//171 1212//171 1209//171
f 1213//172 1210//172 1209//172
f 1209//171 1212//171 1211//171
f 1211//173 1213//173 1209//173
f 1210//174 1216//174 1212//174
f 1214//172 1210//172 1213//172
f 1214//174 1216//174 1210//174
f 1212//175 1216//175 1211//175
f 1215//173 1213//173 1211//173
f 1211//175 1216//175 1215//175
f 1215//176 1214//176 1213//176
f 1216//176 1214//176 1215//176
o geometry_9
v 0.004532 0.000000 -0.438037
v 0.004843 0.000000 -0.468035
v 0.030667 -0.000000 -0.452767
v 0.004532 0.000000 -0.438037
v 0.030667 -0.000000 -0.452767
v 0.004532 0.420000 -0.438037
v 0.004532 0.420000 -0.438037
v 0.030667 -0.000000 -0.452767
v 0.030667 0.420000 -0.452767
v 0.004532 0.420000 -0.438037
v 0.030667 0.420000 -0.452767
v 0.004843 0.420000 -0.468035
v 0.030667 -0.000000 -0.452767
v 0.004843 0.000000 -0.468035
v 0.030978 -0.000000 -0.482765
v 0.030667 -0.000000 -0.452767
v 0.030978 -0.000000 -0.482765
v 0.030667 0.420000 -0.452767
v 0.030667 0.420000 -0.452767
v 0.030978 -0.000000 -0.482765
v 0.030978 0.420000 -0.482765
v 0.030667 0.420000 -0.452767
v 0.030978 0.420000 -0.482765
v 0.004843 0.420000 -0.468035
v 0.030978 -0.000000 -0.482765
v 0.004843 0.000000 -0.468035
v 0.005153 0.000000 -0.498033
v 0.030978 -0.000000 -0.482765
v 0.005153 0.000000 -0.498033
v 0.030978 0.420000 -0.482765
v 0.030978 0.420000 -0.482765
v 0.005153 0.000000 -0.498033
v 0.005153 0.420000 -0.498033
v 0.030978 0.420000 -0.482765
v 0.005153 0.420000 -0.498033
v 0.004843 0.420000 -0.468035
v 0.005153 0.000000 -0.498033
v 0.004843 0.000000 -0.468035
v -0.020982 0.000000 -0.483303
v 0.005153 0.000000 -0.498033
v -0.020982 0.000000 -0.483303
v 0.005153 0.420000 -0.498033
v 0.005153 0.420000 -0.498033
v -0.020982 0.000000 -0.483303
v -0.020982 0.420000 -0.483303
v 0.005153 0.420000 -0.498033
v -0.020982 0.420000 -0.483303
v 0.004843 0.420000 -0.468035
v -0.020982 0.000000 -0.483303
v 0.004843 0.000000 -0.468035
v -0.021292 0.000000 -0.453305
v -0.020982 0.000000 -0.483303
v -0.021292 0.000000 -0.453305
v -0.020982 0.420000 -0.483303
v -0.020982 0.420000 -0.483303
v -0.021292 0.000000 -0.453305
v -0.021292 0.420000 -0.453305
v -0.020982 0.420000 -0.483303
v -0.021292 0.420000 -0.453305
v 0.004843 0.420000 -0.468035
v -0.021292 0.000000 -0.453305
v 0.004843 0.000000 -0.468035
v 0.004532 0.000000 -0.438037
v -0.021292 0.000000 -0.453305
v 0.004532 0.000000 -0.438037
v -0.021292 0.420000 -0.453305
v -0.021292 0.420000 -0.453305
v 0.004532 0.000000 -0.438037
v 0.004532 0.420000 -0.438037
v -0.021292 0.420000 -0.453305
v 0.004532 0.420000 -0.438037
v 0.004843 0.420000 -0.468035
vn -0.0000 -1.0000 -0.0000
vn 0.4910 -0.0000 0.8712
vn -0.0000 1.0000 -0.0000
vn 0.9999 -0.0000 0.0103
vn 0.5089 -0.0000 -0.8608
vn -0.4910 -0.0000 -0.8712
vn -0.9999 -0.0000 -0.0103
vn -0.5089 -0.0000 0.8608
s 1
usemtl material_0
f 1217//177 1218//177 1219//177
f 1220//178 1221//178 1222//178
f 1223//178 1224//178 1225//178
f 1226//179 1227//179 1228//179
f 1229//177 1230//177 1231//177
f 1232//180 1233//180 1234//180
f 1235//180 1236//180 1237//180
f 1238//179 1239//179 1240//179
f 1241//177 1242//177 1243//177
f 1244//181 1245//181 1246//181
f 1247//181 1248//181 1249//181
f 1250//179 1251//179 1252//179
f 1253//177 1254//177 1255//177
f 1256//182 1257//182 1258//182
f 1259//182 1260//182 1261//182
f 1262//179 1263//179 1264//179
f 1265//177 1266//177 1267//177
f 1268//183 1269//183 1270//183
f 1271//183 1272//183 1273//183
f 1274//179 1275//179 1276//179
f 1277//177 1278//177 1279//177
f 1280//184 1281//184 1282//184
f 1283//184 1284//184 1285//184
f 1286//179 1287//179 1288//179
