# https://github.com/mikedh/trimesh
mtllib bookcase_module.mtl

o geometry_0
usemtl material_0
v -0.25000000 0.00000000 -0.13000000
v -0.25000000 0.00000000 0.13000000
v -0.25000000 1.90000000 -0.13000000
v -0.25000000 1.90000000 0.13000000
v -0.21500000 0.00000000 -0.13000000
v -0.21500000 0.00000000 0.13000000
v -0.21500000 1.90000000 -0.13000000
v -0.21500000 1.90000000 0.13000000
f 2 4 1
f 5 2 1
f 1 4 3
f 3 5 1
f 2 8 4
f 6 2 5
f 6 8 2
f 4 8 3
f 7 5 3
f 3 8 7
f 7 6 5
f 8 6 7

o geometry_1
usemtl material_0
v 0.21500000 0.00000000 -0.13000000
v 0.21500000 0.00000000 0.13000000
v 0.21500000 1.90000000 -0.13000000
v 0.21500000 1.90000000 0.13000000
v 0.25000000 0.00000000 -0.13000000
v 0.25000000 0.00000000 0.13000000
v 0.25000000 1.90000000 -0.13000000
v 0.25000000 1.90000000 0.13000000
f 10 12 9
f 13 10 9
f 9 12 11
f 11 13 9
f 10 16 12
f 14 10 13
f 14 16 10
f 12 16 11
f 15 13 11
f 11 16 15
f 15 14 13
f 16 14 15

o geometry_2
usemtl material_0
v -0.25000000 1.86500000 -0.13000000
v -0.25000000 1.86500000 0.13000000
v -0.25000000 1.90000000 -0.13000000
v -0.25000000 1.90000000 0.13000000
v 0.25000000 1.86500000 -0.13000000
v 0.25000000 1.86500000 0.13000000
v 0.25000000 1.90000000 -0.13000000
v 0.25000000 1.90000000 0.13000000
f 18 20 17
f 21 18 17
f 17 20 19
f 19 21 17
f 18 24 20
f 22 18 21
f 22 24 18
f 20 24 19
f 23 21 19
f 19 24 23
f 23 22 21
f 24 22 23

o geometry_3
usemtl material_0
v -0.25000000 0.00000000 -0.13000000
v -0.25000000 0.00000000 0.13000000
v -0.25000000 0.08000000 -0.13000000
v -0.25000000 0.08000000 0.13000000
v 0.25000000 0.00000000 -0.13000000
v 0.25000000 0.00000000 0.13000000
v 0.25000000 0.08000000 -0.13000000
v 0.25000000 0.08000000 0.13000000
f 26 28 25
f 29 26 25
f 25 28 27
f 27 29 25
f 26 32 28
f 30 26 29
f 30 32 26
f 28 32 27
f 31 29 27
f 27 32 31
f 31 30 29
f 32 30 31

o geometry_4
usemtl material_1
v -0.24125000 0.06000000 -0.12950000
v -0.24125000 0.06000000 -0.11450000
v -0.24125000 1.88000000 -0.12950000
v -0.24125000 1.88000000 -0.11450000
v 0.24125000 0.06000000 -0.12950000
v 0.24125000 0.06000000 -0.11450000
v 0.24125000 1.88000000 -0.12950000
v 0.24125000 1.88000000 -0.11450000
f 34 36 33
f 37 34 33
f 33 36 35
f 35 37 33
f 34 40 36
f 38 34 37
f 38 40 34
f 36 40 35
f 39 37 35
f 35 40 39
f 39 38 37
f 40 38 39

o geometry_5
usemtl material_2
v -0.25000000 1.89950000 -0.13000000
v -0.25000000 1.89950000 0.13000000
v -0.25000000 1.92450000 -0.13000000
v -0.25000000 1.92450000 0.13000000
v 0.25000000 1.89950000 -0.13000000
v 0.25000000 1.89950000 0.13000000
v 0.25000000 1.92450000 -0.13000000
v 0.25000000 1.92450000 0.13000000
f 42 44 41
f 45 42 41
f 41 44 43
f 43 45 41
f 42 48 44
f 46 42 45
f 46 48 42
f 44 48 43
f 47 45 43
f 43 48 47
f 47 46 45
f 48 46 47

o geometry_6
usemtl material_3
v -0.21500000 0.06750000 -0.12000000
v -0.21500000 0.06750000 0.12000000
v -0.21500000 0.09250000 -0.12000000
v -0.21500000 0.09250000 0.12000000
v 0.21500000 0.06750000 -0.12000000
v 0.21500000 0.06750000 0.12000000
v 0.21500000 0.09250000 -0.12000000
v 0.21500000 0.09250000 0.12000000
f 50 52 49
f 53 50 49
f 49 52 51
f 51 53 49
f 50 56 52
f 54 50 53
f 54 56 50
f 52 56 51
f 55 53 51
f 51 56 55
f 55 54 53
f 56 54 55

o geometry_7
usemtl material_3
v -0.21500000 0.41550000 -0.12000000
v -0.21500000 0.41550000 0.12000000
v -0.21500000 0.44050000 -0.12000000
v -0.21500000 0.44050000 0.12000000
v 0.21500000 0.41550000 -0.12000000
v 0.21500000 0.41550000 0.12000000
v 0.21500000 0.44050000 -0.12000000
v 0.21500000 0.44050000 0.12000000
f 58 60 57
f 61 58 57
f 57 60 59
f 59 61 57
f 58 64 60
f 62 58 61
f 62 64 58
f 60 64 59
f 63 61 59
f 59 64 63
f 63 62 61
f 64 62 63

o geometry_8
usemtl material_3
v -0.21500000 0.76350000 -0.12000000
v -0.21500000 0.76350000 0.12000000
v -0.21500000 0.78850000 -0.12000000
v -0.21500000 0.78850000 0.12000000
v 0.21500000 0.76350000 -0.12000000
v 0.21500000 0.76350000 0.12000000
v 0.21500000 0.78850000 -0.12000000
v 0.21500000 0.78850000 0.12000000
f 66 68 65
f 69 66 65
f 65 68 67
f 67 69 65
f 66 72 68
f 70 66 69
f 70 72 66
f 68 72 67
f 71 69 67
f 67 72 71
f 71 70 69
f 72 70 71

o geometry_9
usemtl material_3
v -0.21500000 1.11150000 -0.12000000
v -0.21500000 1.11150000 0.12000000
v -0.21500000 1.13650000 -0.12000000
v -0.21500000 1.13650000 0.12000000
v 0.21500000 1.11150000 -0.12000000
v 0.21500000 1.11150000 0.12000000
v 0.21500000 1.13650000 -0.12000000
v 0.21500000 1.13650000 0.12000000
f 74 76 73
f 77 74 73
f 73 76 75
f 75 77 73
f 74 80 76
f 78 74 77
f 78 80 74
f 76 80 75
f 79 77 75
f 75 80 79
f 79 78 77
f 80 78 79

o geometry_10
usemtl material_3
v -0.21500000 1.45950000 -0.12000000
v -0.21500000 1.45950000 0.12000000
v -0.21500000 1.48450000 -0.12000000
v -0.21500000 1.48450000 0.12000000
v 0.21500000 1.45950000 -0.12000000
v 0.21500000 1.45950000 0.12000000
v 0.21500000 1.48450000 -0.12000000
v 0.21500000 1.48450000 0.12000000
f 82 84 81
f 85 82 81
f 81 84 83
f 83 85 81
f 82 88 84
f 86 82 85
f 86 88 82
f 84 88 83
f 87 85 83
f 83 88 87
f 87 86 85
f 88 86 87

o geometry_11
usemtl material_3
v -0.21500000 1.80750000 -0.12000000
v -0.21500000 1.80750000 0.12000000
v -0.21500000 1.83250000 -0.12000000
v -0.21500000 1.83250000 0.12000000
v 0.21500000 1.80750000 -0.12000000
v 0.21500000 1.80750000 0.12000000
v 0.21500000 1.83250000 -0.12000000
v 0.21500000 1.83250000 0.12000000
f 90 92 89
f 93 90 89
f 89 92 91
f 91 93 89
f 90 96 92
f 94 90 93
f 94 96 90
f 92 96 91
f 95 93 91
f 91 96 95
f 95 94 93
f 96 94 95

o geometry_12
usemtl material_4
v -0.20500000 0.10000000 -0.10500000
v -0.20500000 0.10000000 0.10500000
v -0.20500000 0.38447389 -0.10500000
v -0.20500000 0.38447389 0.10500000
v -0.17589536 0.10000000 -0.10500000
v -0.17589536 0.10000000 0.10500000
v -0.17589536 0.38447389 -0.10500000
v -0.17589536 0.38447389 0.10500000
f 98 100 97
f 101 98 97
f 97 100 99
f 99 101 97
f 98 104 100
f 102 98 101
f 102 104 98
f 100 104 99
f 103 101 99
f 99 104 103
f 103 102 101
f 104 102 103

o geometry_13
usemtl material_5
v -0.19772384 0.28490803 0.10600000
v -0.19772384 0.28490803 0.11600000
v -0.19772384 0.32473437 0.10600000
v -0.19772384 0.32473437 0.11600000
v -0.18317152 0.28490803 0.10600000
v -0.18317152 0.28490803 0.11600000
v -0.18317152 0.32473437 0.10600000
v -0.18317152 0.32473437 0.11600000
f 106 108 105
f 109 106 105
f 105 108 107
f 107 109 105
f 106 112 108
f 110 106 109
f 110 112 106
f 108 112 107
f 111 109 107
f 107 112 111
f 111 110 109
f 112 110 111

o geometry_14
usemtl material_4
v -0.16877615 0.09953239 -0.10500000
v -0.16877615 0.09953239 0.10500000
v -0.18089319 0.36062606 -0.10500000
v -0.18089319 0.36062606 0.10500000
v -0.14256900 0.10074863 -0.10500000
v -0.14256900 0.10074863 0.10500000
v -0.15468604 0.36184230 -0.10500000
v -0.15468604 0.36184230 0.10500000
f 114 116 113
f 117 114 113
f 113 116 115
f 115 117 113
f 114 120 116
f 118 114 117
f 118 120 114
f 116 120 115
f 119 117 115
f 115 120 119
f 119 118 117
f 120 118 119

o geometry_15
usemtl material_5
v -0.16743469 0.26960916 0.10600000
v -0.16743469 0.26960916 0.11600000
v -0.16913107 0.30616227 0.10600000
v -0.16913107 0.30616227 0.11600000
v -0.15433112 0.27021728 0.10600000
v -0.15433112 0.27021728 0.11600000
v -0.15602750 0.30677039 0.10600000
v -0.15602750 0.30677039 0.11600000
f 122 124 121
f 125 122 121
f 121 124 123
f 123 125 121
f 122 128 124
f 126 122 125
f 126 128 122
f 124 128 123
f 127 125 123
f 123 128 127
f 127 126 125
f 128 126 127

o geometry_16
usemtl material_6
v -0.14658608 0.10000000 -0.10500000
v -0.14658608 0.10000000 0.10500000
v -0.14658608 0.34195185 -0.10500000
v -0.14658608 0.34195185 0.10500000
v -0.11875292 0.10000000 -0.10500000
v -0.11875292 0.10000000 0.10500000
v -0.11875292 0.34195185 -0.10500000
v -0.11875292 0.34195185 0.10500000
f 130 132 129
f 133 130 129
f 129 132 131
f 131 133 129
f 130 136 132
f 134 130 133
f 134 136 130
f 132 136 131
f 135 133 131
f 131 136 135
f 135 134 133
f 136 134 135

o geometry_17
usemtl material_5
v -0.13962779 0.25726870 0.10600000
v -0.13962779 0.25726870 0.11600000
v -0.13962779 0.29114196 0.10600000
v -0.13962779 0.29114196 0.11600000
v -0.12571121 0.25726870 0.10600000
v -0.12571121 0.25726870 0.11600000
v -0.12571121 0.29114196 0.10600000
v -0.12571121 0.29114196 0.11600000
f 138 140 137
f 141 138 137
f 137 140 139
f 139 141 137
f 138 144 140
f 142 138 141
f 142 144 138
f 140 144 139
f 143 141 139
f 139 144 143
f 143 142 141
f 144 142 143

o geometry_18
usemtl material_7
v -0.11760069 0.10000000 -0.10500000
v -0.11760069 0.10000000 0.10500000
v -0.11760069 0.40039510 -0.10500000
v -0.11760069 0.40039510 0.10500000
v -0.07745518 0.10000000 -0.10500000
v -0.07745518 0.10000000 0.10500000
v -0.07745518 0.40039510 -0.10500000
v -0.07745518 0.40039510 0.10500000
f 146 148 145
f 149 146 145
f 145 148 147
f 147 149 145
f 146 152 148
f 150 146 149
f 150 152 146
f 148 152 147
f 151 149 147
f 147 152 151
f 151 150 149
f 152 150 151

o geometry_19
usemtl material_5
v -0.10756431 0.29525681 0.10600000
v -0.10756431 0.29525681 0.11600000
v -0.10756431 0.33731213 0.10600000
v -0.10756431 0.33731213 0.11600000
v -0.08749156 0.29525681 0.10600000
v -0.08749156 0.29525681 0.11600000
v -0.08749156 0.33731213 0.10600000
v -0.08749156 0.33731213 0.11600000
f 154 156 153
f 157 154 153
f 153 156 155
f 155 157 153
f 154 160 156
f 158 154 157
f 158 160 154
f 156 160 155
f 159 157 155
f 155 160 159
f 159 158 157
f 160 158 159

o geometry_20
usemtl material_8
v -0.08171690 0.10075223 -0.10500000
v -0.08171690 0.10075223 0.10500000
v -0.06943141 0.40064909 -0.10500000
v -0.06943141 0.40064909 0.10500000
v -0.05113214 0.09949930 -0.10500000
v -0.05113214 0.09949930 0.10500000
v -0.03884665 0.39939616 -0.10500000
v -0.03884665 0.39939616 0.10500000
f 162 164 161
f 165 162 161
f 161 164 163
f 163 165 161
f 162 168 164
f 166 162 165
f 166 168 162
f 164 168 163
f 167 165 163
f 163 168 167
f 167 166 165
f 168 166 167

o geometry_21
usemtl material_5
v -0.06878795 0.29542730 0.10600000
v -0.06878795 0.29542730 0.11600000
v -0.06706798 0.33741286 0.10600000
v -0.06706798 0.33741286 0.11600000
v -0.05349557 0.29480083 0.10600000
v -0.05349557 0.29480083 0.11600000
v -0.05177560 0.33678639 0.10600000
v -0.05177560 0.33678639 0.11600000
f 170 172 169
f 173 170 169
f 169 172 171
f 171 173 169
f 170 176 172
f 174 170 173
f 174 176 170
f 172 176 171
f 175 173 171
f 171 176 175
f 175 174 173
f 176 174 175

o geometry_22
usemtl material_9
v -0.04904713 0.10058594 -0.10500000
v -0.04904713 0.10058594 0.10500000
v -0.04014203 0.33193579 -0.10500000
v -0.04014203 0.33193579 0.10500000
v -0.02305331 0.09958539 -0.10500000
v -0.02305331 0.09958539 0.10500000
v -0.01414821 0.33093524 -0.10500000
v -0.01414821 0.33093524 0.10500000
f 178 180 177
f 181 178 177
f 177 180 179
f 179 181 177
f 178 184 180
f 182 178 181
f 182 184 178
f 180 184 179
f 183 181 179
f 179 184 183
f 183 182 181
f 184 182 183

o geometry_23
usemtl material_5
v -0.03871948 0.25075090 0.10600000
v -0.03871948 0.25075090 0.11600000
v -0.03747277 0.28313988 0.10600000
v -0.03747277 0.28313988 0.11600000
v -0.02572257 0.25025062 0.10600000
v -0.02572257 0.25025062 0.11600000
v -0.02447586 0.28263960 0.10600000
v -0.02447586 0.28263960 0.11600000
f 186 188 185
f 189 186 185
f 185 188 187
f 187 189 185
f 186 192 188
f 190 186 189
f 190 192 186
f 188 192 187
f 191 189 187
f 187 192 191
f 191 190 189
f 192 190 191

o geometry_24
usemtl material_6
v -0.01079712 0.09950106 -0.10500000
v -0.01079712 0.09950106 0.10500000
v -0.02332870 0.33397054 -0.10500000
v -0.02332870 0.33397054 0.10500000
v 0.01413482 0.10083359 -0.10500000
v 0.01413482 0.10083359 0.10500000
v 0.00160324 0.33530306 -0.10500000
v 0.00160324 0.33530306 0.10500000
f 194 196 193
f 197 194 193
f 193 196 195
f 195 197 193
f 194 200 196
f 198 194 197
f 198 200 194
f 196 200 195
f 199 197 195
f 195 200 199
f 199 198 197
f 200 198 199

o geometry_25
usemtl material_5
v -0.00995272 0.25231297 0.10600000
v -0.00995272 0.25231297 0.11600000
v -0.01170714 0.28513870 0.10600000
v -0.01170714 0.28513870 0.11600000
v 0.00251326 0.25297924 0.10600000
v 0.00251326 0.25297924 0.11600000
v 0.00075884 0.28580496 0.10600000
v 0.00075884 0.28580496 0.11600000
f 202 204 201
f 205 202 201
f 201 204 203
f 203 205 201
f 202 208 204
f 206 202 205
f 206 208 202
f 204 208 203
f 207 205 203
f 203 208 207
f 207 206 205
f 208 206 207

o geometry_26
usemtl material_10
v 0.00872309 0.10000000 -0.10500000
v 0.00872309 0.10000000 0.10500000
v 0.00872309 0.40060346 -0.10500000
v 0.00872309 0.40060346 0.10500000
v 0.04254209 0.10000000 -0.10500000
v 0.04254209 0.10000000 0.10500000
v 0.04254209 0.40060346 -0.10500000
v 0.04254209 0.40060346 0.10500000
f 210 212 209
f 213 210 209
f 209 212 211
f 211 213 209
f 210 216 212
f 214 210 213
f 214 216 210
f 212 216 211
f 215 213 211
f 211 216 215
f 215 214 213
f 216 214 215

o geometry_27
usemtl material_5
v 0.01717784 0.29539225 0.10600000
v 0.01717784 0.29539225 0.11600000
v 0.01717784 0.33747673 0.10600000
v 0.01717784 0.33747673 0.11600000
v 0.03408734 0.29539225 0.10600000
v 0.03408734 0.29539225 0.11600000
v 0.03408734 0.33747673 0.10600000
v 0.03408734 0.33747673 0.11600000
f 218 220 217
f 221 218 217
f 217 220 219
f 219 221 217
f 218 224 220
f 222 218 221
f 222 224 218
f 220 224 219
f 223 221 219
f 219 224 223
f 223 222 221
f 224 222 223

o geometry_28
usemtl material_7
v 0.04423653 0.10000000 -0.10500000
v 0.04423653 0.10000000 0.10500000
v 0.04423653 0.33466017 -0.10500000
v 0.04423653 0.33466017 0.10500000
v 0.08007471 0.10000000 -0.10500000
v 0.08007471 0.10000000 0.10500000
v 0.08007471 0.33466017 -0.10500000
v 0.08007471 0.33466017 0.10500000
f 226 228 225
f 229 226 225
f 225 228 227
f 227 229 225
f 226 232 228
f 230 226 229
f 230 232 226
f 228 232 227
f 231 229 227
f 227 232 231
f 231 230 229
f 232 230 231

o geometry_29
usemtl material_5
v 0.05319607 0.25252911 0.10600000
v 0.05319607 0.25252911 0.11600000
v 0.05319607 0.28538153 0.10600000
v 0.05319607 0.28538153 0.11600000
v 0.07111517 0.25252911 0.10600000
v 0.07111517 0.25252911 0.11600000
v 0.07111517 0.28538153 0.10600000
v 0.07111517 0.28538153 0.11600000
f 234 236 233
f 237 234 233
f 233 236 235
f 235 237 233
f 234 240 236
f 238 234 237
f 238 240 234
f 236 240 235
f 239 237 235
f 235 240 239
f 239 238 237
f 240 238 239

o geometry_30
usemtl material_11
v 0.08400631 0.10000000 -0.10500000
v 0.08400631 0.10000000 0.10500000
v 0.08400631 0.37062045 -0.10500000
v 0.08400631 0.37062045 0.10500000
v 0.10913179 0.10000000 -0.10500000
v 0.10913179 0.10000000 0.10500000
v 0.10913179 0.37062045 -0.10500000
v 0.10913179 0.37062045 0.10500000
f 242 244 241
f 245 242 241
f 241 244 243
f 243 245 241
f 242 248 244
f 246 242 245
f 246 248 242
f 244 248 243
f 247 245 243
f 243 248 247
f 247 246 245
f 248 246 247

o geometry_31
usemtl material_5
v 0.09028768 0.27590329 0.10600000
v 0.09028768 0.27590329 0.11600000
v 0.09028768 0.31379016 0.10600000
v 0.09028768 0.31379016 0.11600000
v 0.10285042 0.27590329 0.10600000
v 0.10285042 0.27590329 0.11600000
v 0.10285042 0.31379016 0.10600000
v 0.10285042 0.31379016 0.11600000
f 250 252 249
f 253 250 249
f 249 252 251
f 251 253 249
f 250 256 252
f 254 250 253
f 254 256 250
f 252 256 251
f 255 253 251
f 251 256 255
f 255 254 253
f 256 254 255

o geometry_32
usemtl material_12
v 0.10976916 0.10000000 -0.10500000
v 0.10976916 0.10000000 0.10500000
v 0.10976916 0.35548476 -0.10500000
v 0.10976916 0.35548476 0.10500000
v 0.14901610 0.10000000 -0.10500000
v 0.14901610 0.10000000 0.10500000
v 0.14901610 0.35548476 -0.10500000
v 0.14901610 0.35548476 0.10500000
f 258 260 257
f 261 258 257
f 257 260 259
f 259 261 257
f 258 264 260
f 262 258 261
f 262 264 258
f 260 264 259
f 263 261 259
f 259 264 263
f 263 262 261
f 264 262 263

o geometry_33
usemtl material_5
v 0.11958090 0.26606509 0.10600000
v 0.11958090 0.26606509 0.11600000
v 0.11958090 0.30183296 0.10600000
v 0.11958090 0.30183296 0.11600000
v 0.13920437 0.26606509 0.10600000
v 0.13920437 0.26606509 0.11600000
v 0.13920437 0.30183296 0.10600000
v 0.13920437 0.30183296 0.11600000
f 266 268 265
f 269 266 265
f 265 268 267
f 267 269 265
f 266 272 268
f 270 266 269
f 270 272 266
f 268 272 267
f 271 269 267
f 267 272 271
f 271 270 269
f 272 270 271

o geometry_34
usemtl material_10
v 0.15010899 0.10000000 -0.10500000
v 0.15010899 0.10000000 0.10500000
v 0.15010899 0.39708787 -0.10500000
v 0.15010899 0.39708787 0.10500000
v 0.17928359 0.10000000 -0.10500000
v 0.17928359 0.10000000 0.10500000
v 0.17928359 0.39708787 -0.10500000
v 0.17928359 0.39708787 0.10500000
f 274 276 273
f 277 274 273
f 273 276 275
f 275 277 273
f 274 280 276
f 278 274 277
f 278 280 274
f 276 280 275
f 279 277 275
f 275 280 279
f 279 278 277
f 280 278 279

o geometry_35
usemtl material_5
v 0.15740264 0.29310712 0.10600000
v 0.15740264 0.29310712 0.11600000
v 0.15740264 0.33469942 0.10600000
v 0.15740264 0.33469942 0.11600000
v 0.17198994 0.29310712 0.10600000
v 0.17198994 0.29310712 0.11600000
v 0.17198994 0.33469942 0.10600000
v 0.17198994 0.33469942 0.11600000
f 282 284 281
f 285 282 281
f 281 284 283
f 283 285 281
f 282 288 284
f 286 282 285
f 286 288 282
f 284 288 283
f 287 285 283
f 283 288 287
f 287 286 285
f 288 286 287

o geometry_36
usemtl material_10
v 0.18270393 0.10000000 -0.10500000
v 0.18270393 0.10000000 0.10500000
v 0.18270393 0.35369691 -0.10500000
v 0.18270393 0.35369691 0.10500000
v 0.20500000 0.10000000 -0.10500000
v 0.20500000 0.10000000 0.10500000
v 0.20500000 0.35369691 -0.10500000
v 0.20500000 0.35369691 0.10500000
f 290 292 289
f 293 290 289
f 289 292 291
f 291 293 289
f 290 296 292
f 294 290 293
f 294 296 290
f 292 296 291
f 295 293 291
f 291 296 295
f 295 294 293
f 296 294 295

o geometry_37
usemtl material_5
v 0.18827795 0.26490299 0.10600000
v 0.18827795 0.26490299 0.11600000
v 0.18827795 0.30042056 0.10600000
v 0.18827795 0.30042056 0.11600000
v 0.19942598 0.26490299 0.10600000
v 0.19942598 0.26490299 0.11600000
v 0.19942598 0.30042056 0.10600000
v 0.19942598 0.30042056 0.11600000
f 298 300 297
f 301 298 297
f 297 300 299
f 299 301 297
f 298 304 300
f 302 298 301
f 302 304 298
f 300 304 299
f 303 301 299
f 299 304 303
f 303 302 301
f 304 302 303

o geometry_38
usemtl material_13
v -0.20500000 0.44800000 -0.10500000
v -0.20500000 0.44800000 0.10500000
v -0.20500000 0.69912804 -0.10500000
v -0.20500000 0.69912804 0.10500000
v -0.16472726 0.44800000 -0.10500000
v -0.16472726 0.44800000 0.10500000
v -0.16472726 0.69912804 -0.10500000
v -0.16472726 0.69912804 0.10500000
f 306 308 305
f 309 306 305
f 305 308 307
f 307 309 305
f 306 312 308
f 310 306 309
f 310 312 306
f 308 312 307
f 311 309 307
f 307 312 311
f 311 310 309
f 312 310 311

o geometry_39
usemtl material_5
v -0.19493182 0.61123323 0.10600000
v -0.19493182 0.61123323 0.11600000
v -0.19493182 0.64639115 0.10600000
v -0.19493182 0.64639115 0.11600000
v -0.17479545 0.61123323 0.10600000
v -0.17479545 0.61123323 0.11600000
v -0.17479545 0.64639115 0.10600000
v -0.17479545 0.64639115 0.11600000
f 314 316 313
f 317 314 313
f 313 316 315
f 315 317 313
f 314 320 316
f 318 314 317
f 318 320 314
f 316 320 315
f 319 317 315
f 315 320 319
f 319 318 317
f 320 318 319

o geometry_40
usemtl material_14
v -0.16157977 0.44800000 -0.10500000
v -0.16157977 0.44800000 0.10500000
v -0.16157977 0.73294944 -0.10500000
v -0.16157977 0.73294944 0.10500000
v -0.13194712 0.44800000 -0.10500000
v -0.13194712 0.44800000 0.10500000
v -0.13194712 0.73294944 -0.10500000
v -0.13194712 0.73294944 0.10500000
f 322 324 321
f 325 322 321
f 321 324 323
f 323 325 321
f 322 328 324
f 326 322 325
f 326 328 322
f 324 328 323
f 327 325 323
f 323 328 327
f 327 326 325
f 328 326 327

o geometry_41
usemtl material_5
v -0.15417161 0.63321713 0.10600000
v -0.15417161 0.63321713 0.11600000
v -0.15417161 0.67311006 0.10600000
v -0.15417161 0.67311006 0.11600000
v -0.13935528 0.63321713 0.10600000
v -0.13935528 0.63321713 0.11600000
v -0.13935528 0.67311006 0.10600000
v -0.13935528 0.67311006 0.11600000
f 330 332 329
f 333 330 329
f 329 332 331
f 331 333 329
f 330 336 332
f 334 330 333
f 334 336 330
f 332 336 331
f 335 333 331
f 331 336 335
f 335 334 333
f 336 334 335

o geometry_42
usemtl material_14
v -0.12624823 0.44765144 -0.10500000
v -0.12624823 0.44765144 0.10500000
v -0.13538134 0.71405941 -0.10500000
v -0.13538134 0.71405941 0.10500000
v -0.10134847 0.44850506 -0.10500000
v -0.10134847 0.44850506 0.10500000
v -0.11048157 0.71491303 -0.10500000
v -0.11048157 0.71491303 0.10500000
f 338 340 337
f 341 338 337
f 337 340 339
f 339 341 337
f 338 344 340
f 342 338 341
f 342 344 338
f 340 344 339
f 343 341 339
f 339 344 343
f 343 342 341
f 344 342 343

o geometry_43
usemtl material_5
v -0.12395053 0.62106446 0.10600000
v -0.12395053 0.62106446 0.11600000
v -0.12522916 0.65836157 0.10600000
v -0.12522916 0.65836157 0.11600000
v -0.11150065 0.62149127 0.10600000
v -0.11150065 0.62149127 0.11600000
v -0.11277928 0.65878838 0.10600000
v -0.11277928 0.65878838 0.11600000
f 346 348 345
f 349 346 345
f 345 348 347
f 347 349 345
f 346 352 348
f 350 346 349
f 350 352 346
f 348 352 347
f 351 349 347
f 347 352 351
f 351 350 349
f 352 350 351

o geometry_44
usemtl material_11
v -0.10528499 0.44800000 -0.10500000
v -0.10528499 0.44800000 0.10500000
v -0.10528499 0.70325268 -0.10500000
v -0.10528499 0.70325268 0.10500000
v -0.07578397 0.44800000 -0.10500000
v -0.07578397 0.44800000 0.10500000
v -0.07578397 0.70325268 -0.10500000
v -0.07578397 0.70325268 0.10500000
f 354 356 353
f 357 354 353
f 353 356 355
f 355 357 353
f 354 360 356
f 358 354 357
f 358 360 354
f 356 360 355
f 359 357 355
f 355 360 359
f 359 358 357
f 360 358 359

o geometry_45
usemtl material_5
v -0.09790973 0.61391424 0.10600000
v -0.09790973 0.61391424 0.11600000
v -0.09790973 0.64964962 0.10600000
v -0.09790973 0.64964962 0.11600000
v -0.08315922 0.61391424 0.10600000
v -0.08315922 0.61391424 0.11600000
v -0.08315922 0.64964962 0.10600000
v -0.08315922 0.64964962 0.11600000
f 362 364 361
f 365 362 361
f 361 364 363
f 363 365 361
f 362 368 364
f 366 362 365
f 366 368 362
f 364 368 363
f 367 365 363
f 363 368 367
f 367 366 365
f 368 366 367

o geometry_46
usemtl material_12
v -0.07551666 0.44800000 -0.10500000
v -0.07551666 0.44800000 0.10500000
v -0.07551666 0.69326286 -0.10500000
v -0.07551666 0.69326286 0.10500000
v -0.03504846 0.44800000 -0.10500000
v -0.03504846 0.44800000 0.10500000
v -0.03504846 0.69326286 -0.10500000
v -0.03504846 0.69326286 0.10500000
f 370 372 369
f 373 370 369
f 369 372 371
f 371 373 369
f 370 376 372
f 374 370 373
f 374 376 370
f 372 376 371
f 375 373 371
f 371 376 375
f 375 374 373
f 376 374 375

o geometry_47
usemtl material_5
v -0.06539961 0.60742086 0.10600000
v -0.06539961 0.60742086 0.11600000
v -0.06539961 0.64175766 0.10600000
v -0.06539961 0.64175766 0.11600000
v -0.04516551 0.60742086 0.10600000
v -0.04516551 0.60742086 0.11600000
v -0.04516551 0.64175766 0.10600000
v -0.04516551 0.64175766 0.11600000
f 378 380 377
f 381 378 377
f 377 380 379
f 379 381 377
f 378 384 380
f 382 378 381
f 382 384 378
f 380 384 379
f 383 381 379
f 379 384 383
f 383 382 381
f 384 382 383

o geometry_48
usemtl material_10
v -0.03363857 0.44800000 -0.10500000
v -0.03363857 0.44800000 0.10500000
v -0.03363857 0.70747109 -0.10500000
v -0.03363857 0.70747109 0.10500000
v 0.00319028 0.44800000 -0.10500000
v 0.00319028 0.44800000 0.10500000
v 0.00319028 0.70747109 -0.10500000
v 0.00319028 0.70747109 0.10500000
f 386 388 385
f 389 386 385
f 385 388 387
f 387 389 385
f 386 392 388
f 390 386 389
f 390 392 386
f 388 392 387
f 391 389 387
f 387 392 391
f 391 390 389
f 392 390 391

o geometry_49
usemtl material_5
v -0.02443136 0.61665621 0.10600000
v -0.02443136 0.61665621 0.11600000
v -0.02443136 0.65298216 0.10600000
v -0.02443136 0.65298216 0.11600000
v -0.00601693 0.61665621 0.10600000
v -0.00601693 0.61665621 0.11600000
v -0.00601693 0.65298216 0.10600000
v -0.00601693 0.65298216 0.11600000
f 394 396 393
f 397 394 393
f 393 396 395
f 395 397 393
f 394 400 396
f 398 394 397
f 398 400 394
f 396 400 395
f 399 397 395
f 395 400 399
f 399 398 397
f 400 398 399

o geometry_50
usemtl material_15
v 0.00346999 0.44800000 -0.10500000
v 0.00346999 0.44800000 0.10500000
v 0.00346999 0.74839601 -0.10500000
v 0.00346999 0.74839601 0.10500000
v 0.03451466 0.44800000 -0.10500000
v 0.03451466 0.44800000 0.10500000
v 0.03451466 0.74839601 -0.10500000
v 0.03451466 0.74839601 0.10500000
f 402 404 401
f 405 402 401
f 401 404 403
f 403 405 401
f 402 408 404
f 406 402 405
f 406 408 402
f 404 408 403
f 407 405 403
f 403 408 407
f 407 406 405
f 408 406 407

o geometry_51
usemtl material_5
v 0.01123115 0.64325740 0.10600000
v 0.01123115 0.64325740 0.11600000
v 0.01123115 0.68531284 0.10600000
v 0.01123115 0.68531284 0.11600000
v 0.02675349 0.64325740 0.10600000
v 0.02675349 0.64325740 0.11600000
v 0.02675349 0.68531284 0.10600000
v 0.02675349 0.68531284 0.11600000
f 410 412 409
f 413 410 409
f 409 412 411
f 411 413 409
f 410 416 412
f 414 410 413
f 414 416 410
f 412 416 411
f 415 413 411
f 411 416 415
f 415 414 413
f 416 414 415

o geometry_52
usemtl material_8
v 0.03589664 0.44800000 -0.10500000
v 0.03589664 0.44800000 0.10500000
v 0.03589664 0.74514402 -0.10500000
v 0.03589664 0.74514402 0.10500000
v 0.07112496 0.44800000 -0.10500000
v 0.07112496 0.44800000 0.10500000
v 0.07112496 0.74514402 -0.10500000
v 0.07112496 0.74514402 0.10500000
f 418 420 417
f 421 418 417
f 417 420 419
f 419 421 417
f 418 424 420
f 422 418 421
f 422 424 418
f 420 424 419
f 423 421 419
f 419 424 423
f 423 422 421
f 424 422 423

o geometry_53
usemtl material_5
v 0.04470372 0.64114361 0.10600000
v 0.04470372 0.64114361 0.11600000
v 0.04470372 0.68274378 0.10600000
v 0.04470372 0.68274378 0.11600000
v 0.06231788 0.64114361 0.10600000
v 0.06231788 0.64114361 0.11600000
v 0.06231788 0.68274378 0.10600000
v 0.06231788 0.68274378 0.11600000
f 426 428 425
f 429 426 425
f 425 428 427
f 427 429 425
f 426 432 428
f 430 426 429
f 430 432 426
f 428 432 427
f 431 429 427
f 427 432 431
f 431 430 429
f 432 430 431

o geometry_54
usemtl material_13
v 0.07376808 0.44800000 -0.10500000
v 0.07376808 0.44800000 0.10500000
v 0.07376808 0.73851312 -0.10500000
v 0.07376808 0.73851312 0.10500000
v 0.09815215 0.44800000 -0.10500000
v 0.09815215 0.44800000 0.10500000
v 0.09815215 0.73851312 -0.10500000
v 0.09815215 0.73851312 0.10500000
f 434 436 433
f 437 434 433
f 433 436 435
f 435 437 433
f 434 440 436
f 438 434 437
f 438 440 434
f 436 440 435
f 439 437 435
f 435 440 439
f 439 438 437
f 440 438 439

o geometry_55
usemtl material_5
v 0.07986410 0.63683353 0.10600000
v 0.07986410 0.63683353 0.11600000
v 0.07986410 0.67750536 0.10600000
v 0.07986410 0.67750536 0.11600000
v 0.09205613 0.63683353 0.10600000
v 0.09205613 0.63683353 0.11600000
v 0.09205613 0.67750536 0.10600000
v 0.09205613 0.67750536 0.11600000
f 442 444 441
f 445 442 441
f 441 444 443
f 443 445 441
f 442 448 444
f 446 442 445
f 446 448 442
f 444 448 443
f 447 445 443
f 443 448 447
f 447 446 445
f 448 446 447

o geometry_56
usemtl material_13
v 0.10513940 0.44738177 -0.10500000
v 0.10513940 0.44738177 0.10500000
v 0.09208827 0.68942901 -0.10500000
v 0.09208827 0.68942901 0.10500000
v 0.13459167 0.44896983 -0.10500000
v 0.13459167 0.44896983 0.10500000
v 0.12154054 0.69101707 -0.10500000
v 0.12154054 0.69101707 0.10500000
f 450 452 449
f 453 450 449
f 449 452 451
f 451 453 449
f 450 456 452
f 454 450 453
f 454 456 450
f 452 456 451
f 455 453 451
f 451 456 455
f 455 454 453
f 456 454 455

o geometry_57
usemtl material_5
v 0.10689048 0.60518685 0.10600000
v 0.10689048 0.60518685 0.11600000
v 0.10506332 0.63907346 0.10600000
v 0.10506332 0.63907346 0.11600000
v 0.12161662 0.60598088 0.10600000
v 0.12161662 0.60598088 0.11600000
v 0.11978946 0.63986749 0.10600000
v 0.11978946 0.63986749 0.11600000
f 458 460 457
f 461 458 457
f 457 460 459
f 459 461 457
f 458 464 460
f 462 458 461
f 462 464 458
f 460 464 459
f 463 461 459
f 459 464 463
f 463 462 461
f 464 462 463

o geometry_58
usemtl material_7
v 0.13600350 0.44758221 -0.10500000
v 0.13600350 0.44758221 0.10500000
v 0.12646134 0.73078461 -0.10500000
v 0.12646134 0.73078461 0.10500000
v 0.16557239 0.44857850 -0.10500000
v 0.16557239 0.44857850 0.10500000
v 0.15603023 0.73178090 -0.10500000
v 0.15603023 0.73178090 0.10500000
f 466 468 465
f 469 466 465
f 465 468 467
f 467 469 465
f 466 472 468
f 470 466 469
f 470 472 466
f 468 472 467
f 471 469 467
f 467 472 471
f 471 470 469
f 472 470 471

o geometry_59
usemtl material_5
v 0.13929259 0.63194820 0.10600000
v 0.13929259 0.63194820 0.11600000
v 0.13795669 0.67159654 0.10600000
v 0.13795669 0.67159654 0.11600000
v 0.15407704 0.63244634 0.10600000
v 0.15407704 0.63244634 0.11600000
v 0.15274114 0.67209468 0.10600000
v 0.15274114 0.67209468 0.11600000
f 474 476 473
f 477 474 473
f 473 476 475
f 475 477 473
f 474 480 476
f 478 474 477
f 478 480 474
f 476 480 475
f 479 477 475
f 475 480 479
f 479 478 477
f 480 478 479

o geometry_60
usemtl material_11
v 0.17040019 0.44739580 -0.10500000
v 0.17040019 0.44739580 0.10500000
v 0.15906613 0.74557674 -0.10500000
v 0.15906613 0.74557674 0.10500000
v 0.20785602 0.44881953 -0.10500000
v 0.20785602 0.44881953 0.10500000
v 0.19652196 0.74700046 -0.10500000
v 0.19652196 0.74700046 0.10500000
f 482 484 481
f 485 482 481
f 481 484 483
f 483 485 481
f 482 488 484
f 486 482 485
f 486 488 482
f 484 488 483
f 487 485 483
f 483 488 487
f 487 486 485
f 488 486 487

o geometry_61
usemtl material_5
v 0.17489050 0.64161672 0.10600000
v 0.17489050 0.64161672 0.11600000
v 0.17330373 0.68336205 0.10600000
v 0.17330373 0.68336205 0.11600000
v 0.19361842 0.64232858 0.10600000
v 0.19361842 0.64232858 0.11600000
v 0.19203165 0.68407391 0.10600000
v 0.19203165 0.68407391 0.11600000
f 490 492 489
f 493 490 489
f 489 492 491
f 491 493 489
f 490 496 492
f 494 490 493
f 494 496 490
f 492 496 491
f 495 493 491
f 491 496 495
f 495 494 493
f 496 494 495

o geometry_62
usemtl material_6
v -0.20500000 0.79600000 -0.10500000
v -0.20500000 0.79600000 0.10500000
v -0.20500000 1.07838555 -0.10500000
v -0.20500000 1.07838555 0.10500000
v -0.17444336 0.79600000 -0.10500000
v -0.17444336 0.79600000 0.10500000
v -0.17444336 1.07838555 -0.10500000
v -0.17444336 1.07838555 0.10500000
f 498 500 497
f 501 498 497
f 497 500 499
f 499 501 497
f 498 504 500
f 502 498 501
f 502 504 498
f 500 504 499
f 503 501 499
f 499 504 503
f 503 502 501
f 504 502 503

o geometry_63
usemtl material_5
v -0.19736084 0.97955061 0.10600000
v -0.19736084 0.97955061 0.11600000
v -0.19736084 1.01908458 0.10600000
v -0.19736084 1.01908458 0.11600000
v -0.18208252 0.97955061 0.10600000
v -0.18208252 0.97955061 0.11600000
v -0.18208252 1.01908458 0.10600000
v -0.18208252 1.01908458 0.11600000
f 506 508 505
f 509 506 505
f 505 508 507
f 507 509 505
f 506 512 508
f 510 506 509
f 510 512 506
f 508 512 507
f 511 509 507
f 507 512 511
f 511 510 509
f 512 510 511

o geometry_64
usemtl material_4
v -0.17355401 0.79600000 -0.10500000
v -0.17355401 0.79600000 0.10500000
v -0.17355401 1.09862741 -0.10500000
v -0.17355401 1.09862741 0.10500000
v -0.13399350 0.79600000 -0.10500000
v -0.13399350 0.79600000 0.10500000
v -0.13399350 1.09862741 -0.10500000
v -0.13399350 1.09862741 0.10500000
f 514 516 513
f 517 514 513
f 513 516 515
f 515 517 513
f 514 520 516
f 518 514 517
f 518 520 514
f 516 520 515
f 519 517 515
f 515 520 519
f 519 518 517
f 520 518 519

o geometry_65
usemtl material_5
v -0.16366388 0.99270781 0.10600000
v -0.16366388 0.99270781 0.11600000
v -0.16366388 1.03507565 0.10600000
v -0.16366388 1.03507565 0.11600000
v -0.14388363 0.99270781 0.10600000
v -0.14388363 0.99270781 0.11600000
v -0.14388363 1.03507565 0.10600000
v -0.14388363 1.03507565 0.11600000
f 522 524 521
f 525 522 521
f 521 524 523
f 523 525 521
f 522 528 524
f 526 522 525
f 526 528 522
f 524 528 523
f 527 525 523
f 523 528 527
f 527 526 525
f 528 526 527

o geometry_66
usemtl material_15
v -0.13742230 0.79670172 -0.10500000
v -0.13742230 0.79670172 0.10500000
v -0.12916924 1.06435032 -0.10500000
v -0.12916924 1.06435032 0.10500000
v -0.09603407 0.79542549 -0.10500000
v -0.09603407 0.79542549 0.10500000
v -0.08778101 1.06307410 -0.10500000
v -0.08778101 1.06307410 0.10500000
f 530 532 529
f 533 530 529
f 529 532 531
f 531 533 529
f 530 536 532
f 534 530 533
f 534 536 530
f 532 536 531
f 535 533 531
f 531 536 535
f 535 534 533
f 536 534 535

o geometry_67
usemtl material_5
v -0.12352643 0.97038224 0.10600000
v -0.12352643 0.97038224 0.11600000
v -0.12237100 1.00785305 0.10600000
v -0.12237100 1.00785305 0.11600000
v -0.10283231 0.96974413 0.10600000
v -0.10283231 0.96974413 0.11600000
v -0.10167688 1.00721493 0.10600000
v -0.10167688 1.00721493 0.11600000
f 538 540 537
f 541 538 537
f 537 540 539
f 539 541 537
f 538 544 540
f 542 538 541
f 542 544 538
f 540 544 539
f 543 541 539
f 539 544 543
f 543 542 541
f 544 542 543

o geometry_68
usemtl material_6
v -0.09078629 0.79600000 -0.10500000
v -0.09078629 0.79600000 0.10500000
v -0.09078629 1.08659138 -0.10500000
v -0.09078629 1.08659138 0.10500000
v -0.04889456 0.79600000 -0.10500000
v -0.04889456 0.79600000 0.10500000
v -0.04889456 1.08659138 -0.10500000
v -0.04889456 1.08659138 0.10500000
f 546 548 545
f 549 546 545
f 545 548 547
f 547 549 545
f 546 552 548
f 550 546 549
f 550 552 546
f 548 552 547
f 551 549 547
f 547 552 551
f 551 550 549
f 552 550 551

o geometry_69
usemtl material_5
v -0.08031336 0.98488440 0.10600000
v -0.08031336 0.98488440 0.11600000
v -0.08031336 1.02556719 0.10600000
v -0.08031336 1.02556719 0.11600000
v -0.05936750 0.98488440 0.10600000
v -0.05936750 0.98488440 0.11600000
v -0.05936750 1.02556719 0.10600000
v -0.05936750 1.02556719 0.11600000
f 554 556 553
f 557 554 553
f 553 556 555
f 555 557 553
f 554 560 556
f 558 554 557
f 558 560 554
f 556 560 555
f 559 557 555
f 555 560 559
f 559 558 557
f 560 558 559

o geometry_70
usemtl material_11
v -0.05069417 0.79628679 -0.10500000
v -0.05069417 0.79628679 0.10500000
v -0.04688095 1.08398223 -0.10500000
v -0.04688095 1.08398223 0.10500000
v -0.00932588 0.79573848 -0.10500000
v -0.00932588 0.79573848 0.10500000
v -0.00551266 1.08343392 -0.10500000
v -0.00551266 1.08343392 0.10500000
f 562 564 561
f 565 562 561
f 561 564 563
f 563 565 561
f 562 568 564
f 566 562 565
f 566 568 562
f 564 568 563
f 567 565 563
f 563 568 567
f 567 566 565
f 568 566 567

o geometry_71
usemtl material_5
v -0.03871241 0.98315731 0.10600000
v -0.03871241 0.98315731 0.11600000
v -0.03817856 1.02343467 0.10600000
v -0.03817856 1.02343467 0.11600000
v -0.01802827 0.98288315 0.10600000
v -0.01802827 0.98288315 0.11600000
v -0.01749442 1.02316051 0.10600000
v -0.01749442 1.02316051 0.11600000
f 570 572 569
f 573 570 569
f 569 572 571
f 571 573 569
f 570 576 572
f 574 570 573
f 574 576 570
f 572 576 571
f 575 573 571
f 571 576 575
f 575 574 573
f 576 574 575

o geometry_72
usemtl material_8
v -0.00550662 0.79600000 -0.10500000
v -0.00550662 0.79600000 0.10500000
v -0.00550662 1.09320919 -0.10500000
v -0.00550662 1.09320919 0.10500000
v 0.03033321 0.79600000 -0.10500000
v 0.03033321 0.79600000 0.10500000
v 0.03033321 1.09320919 -0.10500000
v 0.03033321 1.09320919 0.10500000
f 578 580 577
f 581 578 577
f 577 580 579
f 579 581 577
f 578 584 580
f 582 578 581
f 582 584 578
f 580 584 579
f 583 581 579
f 579 584 583
f 583 582 581
f 584 582 583

o geometry_73
usemtl material_5
v 0.00345333 0.98918597 0.10600000
v 0.00345333 0.98918597 0.11600000
v 0.00345333 1.03079526 0.10600000
v 0.00345333 1.03079526 0.11600000
v 0.02137325 0.98918597 0.10600000
v 0.02137325 0.98918597 0.11600000
v 0.02137325 1.03079526 0.10600000
v 0.02137325 1.03079526 0.11600000
f 586 588 585
f 589 586 585
f 585 588 587
f 587 589 585
f 586 592 588
f 590 586 589
f 590 592 586
f 588 592 587
f 591 589 587
f 587 592 591
f 591 590 589
f 592 590 591

o geometry_74
usemtl material_10
v 0.03134112 0.79600000 -0.10500000
v 0.03134112 0.79600000 0.10500000
v 0.03134112 1.09704355 -0.10500000
v 0.03134112 1.09704355 0.10500000
v 0.05763011 0.79600000 -0.10500000
v 0.05763011 0.79600000 0.10500000
v 0.05763011 1.09704355 -0.10500000
v 0.05763011 1.09704355 0.10500000
f 594 596 593
f 597 594 593
f 593 596 595
f 595 597 593
f 594 600 596
f 598 594 597
f 598 600 594
f 596 600 595
f 599 597 595
f 595 600 599
f 599 598 597
f 600 598 599

o geometry_75
usemtl material_5
v 0.03791336 0.99167831 0.10600000
v 0.03791336 0.99167831 0.11600000
v 0.03791336 1.03382441 0.10600000
v 0.03791336 1.03382441 0.11600000
v 0.05105786 0.99167831 0.10600000
v 0.05105786 0.99167831 0.11600000
v 0.05105786 1.03382441 0.10600000
v 0.05105786 1.03382441 0.11600000
f 602 604 601
f 605 602 601
f 601 604 603
f 603 605 601
f 602 608 604
f 606 602 605
f 606 608 602
f 604 608 603
f 607 605 603
f 603 608 607
f 607 606 605
f 608 606 607

o geometry_76
usemtl material_12
v 0.06040773 0.79591493 -0.10500000
v 0.06040773 0.79591493 0.10500000
v 0.05924352 1.05772757 -0.10500000
v 0.05924352 1.05772757 0.10500000
v 0.09925266 0.79608766 -0.10500000
v 0.09925266 0.79608766 0.10500000
v 0.09808846 1.05790031 -0.10500000
v 0.09808846 1.05790031 0.10500000
f 610 612 609
f 613 610 609
f 609 612 611
f 611 613 609
f 610 616 612
f 614 610 613
f 614 616 610
f 612 616 611
f 615 613 611
f 611 616 615
f 615 614 613
f 616 614 615

o geometry_77
usemtl material_5
v 0.06961835 0.96613690 0.10600000
v 0.06961835 0.96613690 0.11600000
v 0.06945536 1.00279067 0.10600000
v 0.06945536 1.00279067 0.11600000
v 0.08904082 0.96622327 0.10600000
v 0.08904082 0.96622327 0.11600000
v 0.08887783 1.00287704 0.10600000
v 0.08887783 1.00287704 0.11600000
f 618 620 617
f 621 618 617
f 617 620 619
f 619 621 617
f 618 624 620
f 622 618 621
f 622 624 618
f 620 624 619
f 623 621 619
f 619 624 623
f 623 622 621
f 624 622 623

o geometry_78
usemtl material_10
v 0.09882269 0.79600000 -0.10500000
v 0.09882269 0.79600000 0.10500000
v 0.09882269 1.07906605 -0.10500000
v 0.09882269 1.07906605 0.10500000
v 0.11500000 0.79600000 -0.10500000
v 0.11500000 0.79600000 0.10500000
v 0.11500000 1.07906605 -0.10500000
v 0.11500000 1.07906605 0.10500000
f 626 628 625
f 629 626 625
f 625 628 627
f 627 629 625
f 626 632 628
f 630 626 629
f 630 632 626
f 628 632 627
f 631 629 627
f 627 632 631
f 631 630 629
f 632 630 631

o geometry_79
usemtl material_5
v 0.10286702 0.97999293 0.10600000
v 0.10286702 0.97999293 0.11600000
v 0.10286702 1.01962218 0.10600000
v 0.10286702 1.01962218 0.11600000
v 0.11095567 0.97999293 0.10600000
v 0.11095567 0.97999293 0.11600000
v 0.11095567 1.01962218 0.10600000
v 0.11095567 1.01962218 0.11600000
f 634 636 633
f 637 634 633
f 633 636 635
f 635 637 633
f 634 640 636
f 638 634 637
f 638 640 634
f 636 640 635
f 639 637 635
f 635 640 639
f 639 638 637
f 640 638 639

o geometry_80
usemtl material_6
v 0.11500000 0.79600000 -0.10000000
v 0.11500000 0.79600000 0.10000000
v 0.11500000 0.83006066 -0.10000000
v 0.11500000 0.83006066 0.10000000
v 0.20500000 0.79600000 -0.10000000
v 0.20500000 0.79600000 0.10000000
v 0.20500000 0.83006066 -0.10000000
v 0.20500000 0.83006066 0.10000000
f 642 644 641
f 645 642 641
f 641 644 643
f 643 645 641
f 642 648 644
f 646 642 645
f 646 648 642
f 644 648 643
f 647 645 643
f 643 648 647
f 647 646 645
f 648 646 647

o geometry_81
usemtl material_16
v 0.11500000 0.83006066 -0.10000000
v 0.11500000 0.83006066 0.10000000
v 0.11500000 0.85708083 -0.10000000
v 0.11500000 0.85708083 0.10000000
v 0.20500000 0.83006066 -0.10000000
v 0.20500000 0.83006066 0.10000000
v 0.20500000 0.85708083 -0.10000000
v 0.20500000 0.85708083 0.10000000
f 650 652 649
f 653 650 649
f 649 652 651
f 651 653 649
f 650 656 652
f 654 650 653
f 654 656 650
f 652 656 651
f 655 653 651
f 651 656 655
f 655 654 653
f 656 654 655

o geometry_82
usemtl material_6
v -0.20500000 1.14400000 -0.10500000
v -0.20500000 1.14400000 0.10500000
v -0.20500000 1.42847956 -0.10500000
v -0.20500000 1.42847956 0.10500000
v -0.17963347 1.14400000 -0.10500000
v -0.17963347 1.14400000 0.10500000
v -0.17963347 1.42847956 -0.10500000
v -0.17963347 1.42847956 0.10500000
f 658 660 657
f 661 658 657
f 657 660 659
f 659 661 657
f 658 664 660
f 662 658 661
f 662 664 658
f 660 664 659
f 663 661 659
f 659 664 663
f 663 662 661
f 664 662 663

o geometry_83
usemtl material_5
v -0.19865837 1.32891172 0.10600000
v -0.19865837 1.32891172 0.11600000
v -0.19865837 1.36873885 0.10600000
v -0.19865837 1.36873885 0.11600000
v -0.18597510 1.32891172 0.10600000
v -0.18597510 1.32891172 0.11600000
v -0.18597510 1.36873885 0.10600000
v -0.18597510 1.36873885 0.11600000
f 666 668 665
f 669 666 665
f 665 668 667
f 667 669 665
f 666 672 668
f 670 666 669
f 670 672 666
f 668 672 667
f 671 669 667
f 667 672 671
f 671 670 669
f 672 670 671

o geometry_84
usemtl material_16
v -0.17725690 1.14400000 -0.10500000
v -0.17725690 1.14400000 0.10500000
v -0.17725690 1.39187907 -0.10500000
v -0.17725690 1.39187907 0.10500000
v -0.14741782 1.14400000 -0.10500000
v -0.14741782 1.14400000 0.10500000
v -0.14741782 1.39187907 -0.10500000
v -0.14741782 1.39187907 0.10500000
f 674 676 673
f 677 674 673
f 673 676 675
f 675 677 673
f 674 680 676
f 678 674 677
f 678 680 674
f 676 680 675
f 679 677 675
f 675 680 679
f 679 678 677
f 680 678 679

o geometry_85
usemtl material_5
v -0.16979713 1.30512139 0.10600000
v -0.16979713 1.30512139 0.11600000
v -0.16979713 1.33982446 0.10600000
v -0.16979713 1.33982446 0.11600000
v -0.15487759 1.30512139 0.10600000
v -0.15487759 1.30512139 0.11600000
v -0.15487759 1.33982446 0.10600000
v -0.15487759 1.33982446 0.11600000
f 682 684 681
f 685 682 681
f 681 684 683
f 683 685 681
f 682 688 684
f 686 682 685
f 686 688 682
f 684 688 683
f 687 685 683
f 683 688 687
f 687 686 685
f 688 686 687

o geometry_86
usemtl material_8
v -0.15081596 1.14450776 -0.10500000
v -0.15081596 1.14450776 0.10500000
v -0.14144898 1.44498238 -0.10500000
v -0.14144898 1.44498238 0.10500000
v -0.12292224 1.14363821 -0.10500000
v -0.12292224 1.14363821 0.10500000
v -0.11355526 1.44411282 -0.10500000
v -0.11355526 1.44411282 0.10500000
f 690 692 689
f 693 690 689
f 689 692 691
f 691 693 689
f 690 696 692
f 694 690 693
f 694 696 690
f 692 696 691
f 695 693 691
f 691 696 695
f 695 694 693
f 696 694 695

o geometry_87
usemtl material_5
v -0.13981473 1.33963099 0.10600000
v -0.13981473 1.33963099 0.11600000
v -0.13850335 1.38169743 0.10600000
v -0.13850335 1.38169743 0.11600000
v -0.12586787 1.33919621 0.10600000
v -0.12586787 1.33919621 0.11600000
v -0.12455649 1.38126266 0.10600000
v -0.12455649 1.38126266 0.11600000
f 698 700 697
f 701 698 697
f 697 700 699
f 699 701 697
f 698 704 700
f 702 698 701
f 702 704 698
f 700 704 699
f 703 701 699
f 699 704 703
f 703 702 701
f 704 702 703

o geometry_88
usemtl material_6
v -0.12041365 1.14442040 -0.10500000
v -0.12041365 1.14442040 0.10500000
v -0.11283120 1.43652644 -0.10500000
v -0.11283120 1.43652644 0.10500000
v -0.09181353 1.14367800 -0.10500000
v -0.09181353 1.14367800 0.10500000
v -0.08423107 1.43578405 -0.10500000
v -0.08423107 1.43578405 0.10500000
f 706 708 705
f 709 706 705
f 705 708 707
f 707 709 705
f 706 712 708
f 710 706 709
f 710 712 706
f 708 712 707
f 711 709 707
f 707 712 711
f 711 710 709
f 712 710 711

o geometry_89
usemtl material_5
v -0.11000317 1.33412537 0.10600000
v -0.11000317 1.33412537 0.11600000
v -0.10894162 1.37502022 0.10600000
v -0.10894162 1.37502022 0.11600000
v -0.09570311 1.33375418 0.10600000
v -0.09570311 1.33375418 0.11600000
v -0.09464156 1.37464902 0.10600000
v -0.09464156 1.37464902 0.11600000
f 714 716 713
f 717 714 713
f 713 716 715
f 715 717 713
f 714 720 716
f 718 714 717
f 718 720 714
f 716 720 715
f 719 717 715
f 715 720 719
f 719 718 717
f 720 718 719

o geometry_90
usemtl material_9
v -0.08607666 1.14400000 -0.10500000
v -0.08607666 1.14400000 0.10500000
v -0.08607666 1.42023667 -0.10500000
v -0.08607666 1.42023667 0.10500000
v -0.05339535 1.14400000 -0.10500000
v -0.05339535 1.14400000 0.10500000
v -0.05339535 1.42023667 -0.10500000
v -0.05339535 1.42023667 0.10500000
f 722 724 721
f 725 722 721
f 721 724 723
f 723 725 721
f 722 728 724
f 726 722 725
f 726 728 722
f 724 728 723
f 727 725 723
f 723 728 727
f 727 726 725
f 728 726 727

o geometry_91
usemtl material_5
v -0.07790634 1.32355383 0.10600000
v -0.07790634 1.32355383 0.11600000
v -0.07790634 1.36222697 0.10600000
v -0.07790634 1.36222697 0.11600000
v -0.06156568 1.32355383 0.10600000
v -0.06156568 1.32355383 0.11600000
v -0.06156568 1.36222697 0.10600000
v -0.06156568 1.36222697 0.11600000
f 730 732 729
f 733 730 729
f 729 732 731
f 731 733 729
f 730 736 732
f 734 730 733
f 734 736 730
f 732 736 731
f 735 733 731
f 731 736 735
f 735 734 733
f 736 734 735

o geometry_92
usemtl material_15
v -0.05865462 1.14501344 -0.10500000
v -0.05865462 1.14501344 0.10500000
v -0.04450236 1.39577546 -0.10500000
v -0.04450236 1.39577546 0.10500000
v -0.02981117 1.14338560 -0.10500000
v -0.02981117 1.14338560 0.10500000
v -0.01565892 1.39414763 -0.10500000
v -0.01565892 1.39414763 0.10500000
f 738 740 737
f 741 738 737
f 737 740 739
f 739 741 737
f 738 744 740
f 742 738 741
f 742 744 738
f 740 744 739
f 743 741 739
f 739 744 743
f 743 742 741
f 744 742 743

o geometry_93
usemtl material_5
v -0.04535829 1.30768958 0.10600000
v -0.04535829 1.30768958 0.11600000
v -0.04337697 1.34279627 0.10600000
v -0.04337697 1.34279627 0.11600000
v -0.03093656 1.30687566 0.10600000
v -0.03093656 1.30687566 0.11600000
v -0.02895525 1.34198235 0.10600000
v -0.02895525 1.34198235 0.11600000
f 746 748 745
f 749 746 745
f 745 748 747
f 747 749 745
f 746 752 748
f 750 746 749
f 750 752 746
f 748 752 747
f 751 749 747
f 747 752 751
f 751 750 749
f 752 750 751

o geometry_94
usemtl material_12
v -0.01905567 1.14400000 -0.10500000
v -0.01905567 1.14400000 0.10500000
v -0.01905567 1.41934171 -0.10500000
v -0.01905567 1.41934171 0.10500000
v 0.01578264 1.14400000 -0.10500000
v 0.01578264 1.14400000 0.10500000
v 0.01578264 1.41934171 -0.10500000
v 0.01578264 1.41934171 0.10500000
f 754 756 753
f 757 754 753
f 753 756 755
f 755 757 753
f 754 760 756
f 758 754 757
f 758 760 754
f 756 760 755
f 759 757 755
f 755 760 759
f 759 758 757
f 760 758 759

o geometry_95
usemtl material_5
v -0.01034609 1.32297211 0.10600000
v -0.01034609 1.32297211 0.11600000
v -0.01034609 1.36151995 0.10600000
v -0.01034609 1.36151995 0.11600000
v 0.00707306 1.32297211 0.10600000
v 0.00707306 1.32297211 0.11600000
v 0.00707306 1.36151995 0.10600000
v 0.00707306 1.36151995 0.11600000
f 762 764 761
f 765 762 761
f 761 764 763
f 763 765 761
f 762 768 764
f 766 762 765
f 766 768 762
f 764 768 763
f 767 765 763
f 763 768 767
f 767 766 765
f 768 766 767

o geometry_96
usemtl material_13
v 0.02458004 1.14360109 -0.10500000
v 0.02458004 1.14360109 0.10500000
v 0.01226890 1.40179158 -0.10500000
v 0.01226890 1.40179158 0.10500000
v 0.04746405 1.14469226 -0.10500000
v 0.04746405 1.14469226 0.10500000
v 0.03515291 1.40288275 -0.10500000
v 0.03515291 1.40288275 0.10500000
f 770 772 769
f 773 770 769
f 769 772 771
f 771 773 769
f 770 776 772
f 774 770 773
f 774 776 770
f 772 776 771
f 775 773 771
f 771 776 775
f 775 774 773
f 776 774 775

o geometry_97
usemtl material_5
v 0.02500725 1.31176224 0.10600000
v 0.02500725 1.31176224 0.11600000
v 0.02328369 1.34790891 0.10600000
v 0.02328369 1.34790891 0.11600000
v 0.03644926 1.31230782 0.10600000
v 0.03644926 1.31230782 0.11600000
v 0.03472570 1.34845449 0.10600000
v 0.03472570 1.34845449 0.11600000
f 778 780 777
f 781 778 777
f 777 780 779
f 779 781 777
f 778 784 780
f 782 778 781
f 782 784 778
f 780 784 779
f 783 781 779
f 779 784 783
f 783 782 781
f 784 782 783

o geometry_98
usemtl material_8
v 0.04156468 1.14400000 -0.10500000
v 0.04156468 1.14400000 0.10500000
v 0.04156468 1.39030826 -0.10500000
v 0.04156468 1.39030826 0.10500000
v 0.07699701 1.14400000 -0.10500000
v 0.07699701 1.14400000 0.10500000
v 0.07699701 1.39030826 -0.10500000
v 0.07699701 1.39030826 0.10500000
f 786 788 785
f 789 786 785
f 785 788 787
f 787 789 785
f 786 792 788
f 790 786 789
f 790 792 786
f 788 792 787
f 791 789 787
f 787 792 791
f 791 790 789
f 792 790 791

o geometry_99
usemtl material_5
v 0.05042277 1.30410037 0.10600000
v 0.05042277 1.30410037 0.11600000
v 0.05042277 1.33858352 0.10600000
v 0.05042277 1.33858352 0.11600000
v 0.06813893 1.30410037 0.10600000
v 0.06813893 1.30410037 0.11600000
v 0.06813893 1.33858352 0.10600000
v 0.06813893 1.33858352 0.11600000
f 794 796 793
f 797 794 793
f 793 796 795
f 795 797 793
f 794 800 796
f 798 794 797
f 798 800 794
f 796 800 795
f 799 797 795
f 795 800 799
f 799 798 797
f 800 798 799

o geometry_100
usemtl material_4
v 0.07834709 1.14400000 -0.10500000
v 0.07834709 1.14400000 0.10500000
v 0.07834709 1.37890540 -0.10500000
v 0.07834709 1.37890540 0.10500000
v 0.10413703 1.14400000 -0.10500000
v 0.10413703 1.14400000 0.10500000
v 0.10413703 1.37890540 -0.10500000
v 0.10413703 1.37890540 0.10500000
f 802 804 801
f 805 802 801
f 801 804 803
f 803 805 801
f 802 808 804
f 806 802 805
f 806 808 802
f 804 808 803
f 807 805 803
f 803 808 807
f 807 806 805
f 808 806 807

o geometry_101
usemtl material_5
v 0.08479458 1.29668851 0.10600000
v 0.08479458 1.29668851 0.11600000
v 0.08479458 1.32957527 0.10600000
v 0.08479458 1.32957527 0.11600000
v 0.09768955 1.29668851 0.10600000
v 0.09768955 1.29668851 0.11600000
v 0.09768955 1.32957527 0.10600000
v 0.09768955 1.32957527 0.11600000
f 810 812 809
f 813 810 809
f 809 812 811
f 811 813 809
f 810 816 812
f 814 810 813
f 814 816 810
f 812 816 811
f 815 813 811
f 811 816 815
f 815 814 813
f 816 814 815

o geometry_102
usemtl material_14
v 0.10988629 1.14361308 -0.10500000
v 0.10988629 1.14361308 0.10500000
v 0.10110905 1.43173740 -0.10500000
v 0.10110905 1.43173740 0.10500000
v 0.13967606 1.14452058 -0.10500000
v 0.13967606 1.14452058 0.10500000
v 0.13089881 1.43264490 -0.10500000
v 0.13089881 1.43264490 0.10500000
f 818 820 817
f 821 818 817
f 817 820 819
f 819 821 817
f 818 824 820
f 822 818 821
f 822 824 818
f 820 824 819
f 823 821 819
f 819 824 823
f 823 822 821
f 824 822 823

o geometry_103
usemtl material_5
v 0.11355952 1.33115017 0.10600000
v 0.11355952 1.33115017 0.11600000
v 0.11233070 1.37148758 0.10600000
v 0.11233070 1.37148758 0.11600000
v 0.12845440 1.33160392 0.10600000
v 0.12845440 1.33160392 0.11600000
v 0.12722559 1.37194132 0.10600000
v 0.12722559 1.37194132 0.11600000
f 826 828 825
f 829 826 825
f 825 828 827
f 827 829 825
f 826 832 828
f 830 826 829
f 830 832 826
f 828 832 827
f 831 829 827
f 827 832 831
f 831 830 829
f 832 830 831

o geometry_104
usemtl material_6
v 0.13817792 1.14400000 -0.10500000
v 0.13817792 1.14400000 0.10500000
v 0.13817792 1.42636054 -0.10500000
v 0.13817792 1.42636054 0.10500000
v 0.16774599 1.14400000 -0.10500000
v 0.16774599 1.14400000 0.10500000
v 0.16774599 1.42636054 -0.10500000
v 0.16774599 1.42636054 0.10500000
f 834 836 833
f 837 834 833
f 833 836 835
f 835 837 833
f 834 840 836
f 838 834 837
f 838 840 834
f 836 840 835
f 839 837 835
f 835 840 839
f 839 838 837
f 840 838 839

o geometry_105
usemtl material_5
v 0.14556994 1.32753435 0.10600000
v 0.14556994 1.32753435 0.11600000
v 0.14556994 1.36706483 0.10600000
v 0.14556994 1.36706483 0.11600000
v 0.16035398 1.32753435 0.10600000
v 0.16035398 1.32753435 0.11600000
v 0.16035398 1.36706483 0.10600000
v 0.16035398 1.36706483 0.11600000
f 842 844 841
f 845 842 841
f 841 844 843
f 843 845 841
f 842 848 844
f 846 842 845
f 846 848 842
f 844 848 843
f 847 845 843
f 843 848 847
f 847 846 845
f 848 846 847

o geometry_106
usemtl material_7
v 0.16791842 1.14400000 -0.10500000
v 0.16791842 1.14400000 0.10500000
v 0.16791842 1.44695727 -0.10500000
v 0.16791842 1.44695727 0.10500000
v 0.19503488 1.14400000 -0.10500000
v 0.19503488 1.14400000 0.10500000
v 0.19503488 1.44695727 -0.10500000
v 0.19503488 1.44695727 0.10500000
f 850 852 849
f 853 850 849
f 849 852 851
f 851 853 849
f 850 856 852
f 854 850 853
f 854 856 850
f 852 856 851
f 855 853 851
f 851 856 855
f 855 854 853
f 856 854 855

o geometry_107
usemtl material_5
v 0.17469754 1.34092223 0.10600000
v 0.17469754 1.34092223 0.11600000
v 0.17469754 1.38333625 0.10600000
v 0.17469754 1.38333625 0.11600000
v 0.18825577 1.34092223 0.10600000
v 0.18825577 1.34092223 0.11600000
v 0.18825577 1.38333625 0.10600000
v 0.18825577 1.38333625 0.11600000
f 858 860 857
f 861 858 857
f 857 860 859
f 859 861 857
f 858 864 860
f 862 858 861
f 862 864 858
f 860 864 859
f 863 861 859
f 859 864 863
f 863 862 861
f 864 862 863

o geometry_108
usemtl material_7
v -0.20500000 1.49200000 -0.10500000
v -0.20500000 1.49200000 0.10500000
v -0.20500000 1.78289507 -0.10500000
v -0.20500000 1.78289507 0.10500000
v -0.16773199 1.49200000 -0.10500000
v -0.16773199 1.49200000 0.10500000
v -0.16773199 1.78289507 -0.10500000
v -0.16773199 1.78289507 0.10500000
f 866 868 865
f 869 866 865
f 865 868 867
f 867 869 865
f 866 872 868
f 870 866 869
f 870 872 866
f 868 872 867
f 871 869 867
f 867 872 871
f 871 870 869
f 872 870 871

o geometry_109
usemtl material_5
v -0.19568300 1.68108179 0.10600000
v -0.19568300 1.68108179 0.11600000
v -0.19568300 1.72180710 0.10600000
v -0.19568300 1.72180710 0.11600000
v -0.17704899 1.68108179 0.10600000
v -0.17704899 1.68108179 0.11600000
v -0.17704899 1.72180710 0.10600000
v -0.17704899 1.72180710 0.11600000
f 874 876 873
f 877 874 873
f 873 876 875
f 875 877 873
f 874 880 876
f 878 874 877
f 878 880 874
f 876 880 875
f 879 877 875
f 875 880 879
f 879 878 877
f 880 878 879

o geometry_110
usemtl material_11
v -0.16647344 1.49200000 -0.10500000
v -0.16647344 1.49200000 0.10500000
v -0.16647344 1.73944583 -0.10500000
v -0.16647344 1.73944583 0.10500000
v -0.13675864 1.49200000 -0.10500000
v -0.13675864 1.49200000 0.10500000
v -0.13675864 1.73944583 -0.10500000
v -0.13675864 1.73944583 0.10500000
f 882 884 881
f 885 882 881
f 881 884 883
f 883 885 881
f 882 888 884
f 886 882 885
f 886 888 882
f 884 888 883
f 887 885 883
f 883 888 887
f 887 886 885
f 888 886 887

o geometry_111
usemtl material_5
v -0.15904474 1.65283979 0.10600000
v -0.15904474 1.65283979 0.11600000
v -0.15904474 1.68748220 0.10600000
v -0.15904474 1.68748220 0.11600000
v -0.14418734 1.65283979 0.10600000
v -0.14418734 1.65283979 0.11600000
v -0.14418734 1.68748220 0.10600000
v -0.14418734 1.68748220 0.11600000
f 890 892 889
f 893 890 889
f 889 892 891
f 891 893 889
f 890 896 892
f 894 890 893
f 894 896 890
f 892 896 891
f 895 893 891
f 891 896 895
f 895 894 893
f 896 894 895

o geometry_112
usemtl material_7
v -0.13482368 1.49200000 -0.10500000
v -0.13482368 1.49200000 0.10500000
v -0.13482368 1.79976048 -0.10500000
v -0.13482368 1.79976048 0.10500000
v -0.09461529 1.49200000 -0.10500000
v -0.09461529 1.49200000 0.10500000
v -0.09461529 1.79976048 -0.10500000
v -0.09461529 1.79976048 0.10500000
f 898 900 897
f 901 898 897
f 897 900 899
f 899 901 897
f 898 904 900
f 902 898 901
f 902 904 898
f 900 904 899
f 903 901 899
f 899 904 903
f 903 902 901
f 904 902 903

o geometry_113
usemtl material_5
v -0.12477158 1.69204431 0.10600000
v -0.12477158 1.69204431 0.11600000
v -0.12477158 1.73513078 0.10600000
v -0.12477158 1.73513078 0.11600000
v -0.10466739 1.69204431 0.10600000
v -0.10466739 1.69204431 0.11600000
v -0.10466739 1.73513078 0.10600000
v -0.10466739 1.73513078 0.11600000
f 906 908 905
f 909 906 905
f 905 908 907
f 907 909 905
f 906 912 908
f 910 906 909
f 910 912 906
f 908 912 907
f 911 909 907
f 907 912 911
f 911 910 909
f 912 910 911

o geometry_114
usemtl material_16
v -0.09159694 1.49200000 -0.10500000
v -0.09159694 1.49200000 0.10500000
v -0.09159694 1.74768557 -0.10500000
v -0.09159694 1.74768557 0.10500000
v -0.05731917 1.49200000 -0.10500000
v -0.05731917 1.49200000 0.10500000
v -0.05731917 1.74768557 -0.10500000
v -0.05731917 1.74768557 0.10500000
f 914 916 913
f 917 914 913
f 913 916 915
f 915 917 913
f 914 920 916
f 918 914 917
f 918 920 914
f 916 920 915
f 919 917 915
f 915 920 919
f 919 918 917
f 920 918 919

o geometry_115
usemtl material_5
v -0.08302749 1.65819562 0.10600000
v -0.08302749 1.65819562 0.11600000
v -0.08302749 1.69399160 0.10600000
v -0.08302749 1.69399160 0.11600000
v -0.06588861 1.65819562 0.10600000
v -0.06588861 1.65819562 0.11600000
v -0.06588861 1.69399160 0.10600000
v -0.06588861 1.69399160 0.11600000
f 922 924 921
f 925 922 921
f 921 924 923
f 923 925 921
f 922 928 924
f 926 922 925
f 926 928 922
f 924 928 923
f 927 925 923
f 923 928 927
f 927 926 925
f 928 926 927

o geometry_116
usemtl material_13
v -0.04910857 1.49131779 -0.10500000
v -0.04910857 1.49131779 0.10500000
v -0.06282320 1.74576611 -0.10500000
v -0.06282320 1.74576611 0.10500000
v -0.01694202 1.49305155 -0.10500000
v -0.01694202 1.49305155 0.10500000
v -0.03065665 1.74749987 -0.10500000
v -0.03065665 1.74749987 0.10500000
f 930 932 929
f 933 930 929
f 929 932 931
f 931 933 929
f 930 936 932
f 934 930 933
f 934 936 930
f 932 936 931
f 935 933 931
f 931 936 935
f 935 934 933
f 936 934 935

o geometry_117
usemtl material_5
v -0.04696422 1.65722389 0.10600000
v -0.04696422 1.65722389 0.11600000
v -0.04888427 1.69284666 0.10600000
v -0.04888427 1.69284666 0.11600000
v -0.03088095 1.65809077 0.10600000
v -0.03088095 1.65809077 0.11600000
v -0.03280100 1.69371354 0.10600000
v -0.03280100 1.69371354 0.11600000
f 938 940 937
f 941 938 937
f 937 940 939
f 939 941 937
f 938 944 940
f 942 938 941
f 942 944 938
f 940 944 939
f 943 941 939
f 939 944 943
f 943 942 941
f 944 942 943

o geometry_118
usemtl material_4
v -0.02350818 1.49200000 -0.10500000
v -0.02350818 1.49200000 0.10500000
v -0.02350818 1.77382646 -0.10500000
v -0.02350818 1.77382646 0.10500000
v 0.00775501 1.49200000 -0.10500000
v 0.00775501 1.49200000 0.10500000
v 0.00775501 1.77382646 -0.10500000
v 0.00775501 1.77382646 0.10500000
f 946 948 945
f 949 946 945
f 945 948 947
f 947 949 945
f 946 952 948
f 950 946 949
f 950 952 946
f 948 952 947
f 951 949 947
f 947 952 951
f 951 950 949
f 952 950 951

o geometry_119
usemtl material_5
v -0.01569239 1.67518720 0.10600000
v -0.01569239 1.67518720 0.11600000
v -0.01569239 1.71464290 0.10600000
v -0.01569239 1.71464290 0.11600000
v -0.00006079 1.67518720 0.10600000
v -0.00006079 1.67518720 0.11600000
v -0.00006079 1.71464290 0.10600000
v -0.00006079 1.71464290 0.11600000
f 954 956 953
f 957 954 953
f 953 956 955
f 955 957 953
f 954 960 956
f 958 954 957
f 958 960 954
f 956 960 955
f 959 957 955
f 955 960 959
f 959 958 957
f 960 958 959

o geometry_120
usemtl material_10
v 0.01113996 1.49200000 -0.10500000
v 0.01113996 1.49200000 0.10500000
v 0.01113996 1.74311868 -0.10500000
v 0.01113996 1.74311868 0.10500000
v 0.04439703 1.49200000 -0.10500000
v 0.04439703 1.49200000 0.10500000
v 0.04439703 1.74311868 -0.10500000
v 0.04439703 1.74311868 0.10500000
f 962 964 961
f 965 962 961
f 961 964 963
f 963 965 961
f 962 968 964
f 966 962 965
f 966 968 962
f 964 968 963
f 967 965 963
f 963 968 967
f 967 966 965
f 968 966 967

o geometry_121
usemtl material_5
v 0.01945423 1.65522714 0.10600000
v 0.01945423 1.65522714 0.11600000
v 0.01945423 1.69038376 0.10600000
v 0.01945423 1.69038376 0.11600000
v 0.03608276 1.65522714 0.10600000
v 0.03608276 1.65522714 0.11600000
v 0.03608276 1.69038376 0.10600000
v 0.03608276 1.69038376 0.11600000
f 970 972 969
f 973 970 969
f 969 972 971
f 971 973 969
f 970 976 972
f 974 970 973
f 974 976 970
f 972 976 971
f 975 973 971
f 971 976 975
f 975 974 973
f 976 974 975

o geometry_122
usemtl material_12
v 0.04517653 1.49200000 -0.10500000
v 0.04517653 1.49200000 0.10500000
v 0.04517653 1.79556464 -0.10500000
v 0.04517653 1.79556464 0.10500000
v 0.06724510 1.49200000 -0.10500000
v 0.06724510 1.49200000 0.10500000
v 0.06724510 1.79556464 -0.10500000
v 0.06724510 1.79556464 0.10500000
f 978 980 977
f 981 978 977
f 977 980 979
f 979 981 977
f 978 984 980
f 982 978 981
f 982 984 978
f 980 984 979
f 983 981 979
f 979 984 983
f 983 982 981
f 984 982 983

o geometry_123
usemtl material_5
v 0.05069367 1.68931701 0.10600000
v 0.05069367 1.68931701 0.11600000
v 0.05069367 1.73181606 0.10600000
v 0.05069367 1.73181606 0.11600000
v 0.06172795 1.68931701 0.10600000
v 0.06172795 1.68931701 0.11600000
v 0.06172795 1.73181606 0.10600000
v 0.06172795 1.73181606 0.11600000
f 986 988 985
f 989 986 985
f 985 988 987
f 987 989 985
f 986 992 988
f 990 986 989
f 990 992 986
f 988 992 987
f 991 989 987
f 987 992 991
f 991 990 989
f 992 990 991

o geometry_124
usemtl material_7
v 0.06975306 1.49200000 -0.10500000
v 0.06975306 1.49200000 0.10500000
v 0.06975306 1.76307596 -0.10500000
v 0.06975306 1.76307596 0.10500000
v 0.09564508 1.49200000 -0.10500000
v 0.09564508 1.49200000 0.10500000
v 0.09564508 1.76307596 -0.10500000
v 0.09564508 1.76307596 0.10500000
f 994 996 993
f 997 994 993
f 993 996 995
f 995 997 993
f 994 1000 996
f 998 994 997
f 998 1000 994
f 996 1000 995
f 999 997 995
f 995 1000 999
f 999 998 997
f 1000 998 999

o geometry_125
usemtl material_5
v 0.07622607 1.66819937 0.10600000
v 0.07622607 1.66819937 0.11600000
v 0.07622607 1.70615001 0.10600000
v 0.07622607 1.70615001 0.11600000
v 0.08917208 1.66819937 0.10600000
v 0.08917208 1.66819937 0.11600000
v 0.08917208 1.70615001 0.10600000
v 0.08917208 1.70615001 0.11600000
f 1002 1004 1001
f 1005 1002 1001
f 1001 1004 1003
f 1003 1005 1001
f 1002 1008 1004
f 1006 1002 1005
f 1006 1008 1002
f 1004 1008 1003
f 1007 1005 1003
f 1003 1008 1007
f 1007 1006 1005
f 1008 1006 1007

o geometry_126
usemtl material_8
v 0.09942054 1.49200000 -0.10500000
v 0.09942054 1.49200000 0.10500000
v 0.09942054 1.75211004 -0.10500000
v 0.09942054 1.75211004 0.10500000
v 0.11500000 1.49200000 -0.10500000
v 0.11500000 1.49200000 0.10500000
v 0.11500000 1.75211004 -0.10500000
v 0.11500000 1.75211004 0.10500000
f 1010 1012 1009
f 1013 1010 1009
f 1009 1012 1011
f 1011 1013 1009
f 1010 1016 1012
f 1014 1010 1013
f 1014 1016 1010
f 1012 1016 1011
f 1015 1013 1011
f 1011 1016 1015
f 1015 1014 1013
f 1016 1014 1015

o geometry_127
usemtl material_5
v 0.10331540 1.66107153 0.10600000
v 0.10331540 1.66107153 0.11600000
v 0.10331540 1.69748693 0.10600000
v 0.10331540 1.69748693 0.11600000
v 0.11110513 1.66107153 0.10600000
v 0.11110513 1.66107153 0.11600000
v 0.11110513 1.69748693 0.10600000
v 0.11110513 1.69748693 0.11600000
f 1018 1020 1017
f 1021 1018 1017
f 1017 1020 1019
f 1019 1021 1017
f 1018 1024 1020
f 1022 1018 1021
f 1022 1024 1018
f 1020 1024 1019
f 1023 1021 1019
f 1019 1024 1023
f 1023 1022 1021
f 1024 1022 1023

o geometry_128
usemtl material_10
v 0.11500000 1.49200000 -0.10000000
v 0.11500000 1.49200000 0.10000000
v 0.11500000 1.52491726 -0.10000000
v 0.11500000 1.52491726 0.10000000
v 0.20500000 1.49200000 -0.10000000
v 0.20500000 1.49200000 0.10000000
v 0.20500000 1.52491726 -0.10000000
v 0.20500000 1.52491726 0.10000000
f 1026 1028 1025
f 1029 1026 1025
f 1025 1028 1027
f 1027 1029 1025
f 1026 1032 1028
f 1030 1026 1029
f 1030 1032 1026
f 1028 1032 1027
f 1031 1029 1027
f 1027 1032 1031
f 1031 1030 1029
f 1032 1030 1031

o geometry_129
usemtl material_16
v 0.11500000 1.52491726 -0.10000000
v 0.11500000 1.52491726 0.10000000
v 0.11500000 1.55662271 -0.10000000
v 0.11500000 1.55662271 0.10000000
v 0.20500000 1.52491726 -0.10000000
v 0.20500000 1.52491726 0.10000000
v 0.20500000 1.55662271 -0.10000000
v 0.20500000 1.55662271 0.10000000
f 1034 1036 1033
f 1037 1034 1033
f 1033 1036 1035
f 1035 1037 1033
f 1034 1040 1036
f 1038 1034 1037
f 1038 1040 1034
f 1036 1040 1035
f 1039 1037 1035
f 1035 1040 1039
f 1039 1038 1037
f 1040 1038 1039

o geometry_130
usemtl material_11
v 0.11500000 1.55662271 -0.10000000
v 0.11500000 1.55662271 0.10000000
v 0.11500000 1.58839322 -0.10000000
v 0.11500000 1.58839322 0.10000000
v 0.20500000 1.55662271 -0.10000000
v 0.20500000 1.55662271 0.10000000
v 0.20500000 1.58839322 -0.10000000
v 0.20500000 1.58839322 0.10000000
f 1042 1044 1041
f 1045 1042 1041
f 1041 1044 1043
f 1043 1045 1041
f 1042 1048 1044
f 1046 1042 1045
f 1046 1048 1042
f 1044 1048 1043
f 1047 1045 1043
f 1043 1048 1047
f 1047 1046 1045
f 1048 1046 1047

