# https://github.com/mikedh/trimesh
mtllib training_dummy.mtl

o geometry_0
usemtl material_0
v 0.00000000 0.00000000 -0.00000000
v 0.34000000 0.00000000 -0.00000000
v 0.34000000 0.16000000 0.00000000
v 0.00000000 0.16000000 0.00000000
v 0.27506578 0.00000000 -0.19984699
v 0.27506578 0.16000000 -0.19984699
v 0.10506578 0.00000000 -0.32335922
v 0.10506578 0.16000000 -0.32335922
v -0.10506578 0.00000000 -0.32335922
v -0.10506578 0.16000000 -0.32335922
v -0.27506578 0.00000000 -0.19984699
v -0.27506578 0.16000000 -0.19984699
v -0.34000000 0.00000000 -0.00000000
v -0.34000000 0.16000000 -0.00000000
v -0.27506578 -0.00000000 0.19984699
v -0.27506578 0.16000000 0.19984699
v -0.10506578 -0.00000000 0.32335922
v -0.10506578 0.16000000 0.32335922
v 0.10506578 -0.00000000 0.32335922
v 0.10506578 0.16000000 0.32335922
v 0.27506578 -0.00000000 0.19984699
v 0.27506578 0.16000000 0.19984699
f 2 1 5
f 2 5 3
f 3 5 6
f 3 6 4
f 5 1 7
f 5 7 6
f 6 7 8
f 6 8 4
f 7 1 9
f 7 9 8
f 8 9 10
f 8 10 4
f 9 1 11
f 9 11 10
f 10 11 12
f 10 12 4
f 11 1 13
f 11 13 12
f 12 13 14
f 12 14 4
f 13 1 15
f 13 15 14
f 14 15 16
f 14 16 4
f 15 1 17
f 15 17 16
f 16 17 18
f 16 18 4
f 17 1 19
f 17 19 18
f 18 19 20
f 18 20 4
f 19 1 21
f 19 21 20
f 20 21 22
f 20 22 4
f 21 1 2
f 21 2 22
f 22 2 3
f 22 3 4

o geometry_1
usemtl material_0
v 0.29810535 0.00000000 0.03366306
v 0.38810535 0.00000000 0.03366306
v 0.38810535 0.10000000 0.03366306
v 0.29810535 0.10000000 0.03366306
v 0.34310535 0.00000000 -0.04427922
v 0.34310535 0.10000000 -0.04427922
v 0.25310535 0.00000000 -0.04427922
v 0.25310535 0.10000000 -0.04427922
v 0.20810535 0.00000000 0.03366306
v 0.20810535 0.10000000 0.03366306
v 0.25310535 -0.00000000 0.11160535
v 0.25310535 0.10000000 0.11160535
v 0.34310535 -0.00000000 0.11160535
v 0.34310535 0.10000000 0.11160535
f 24 23 27
f 24 27 25
f 25 27 28
f 25 28 26
f 27 23 29
f 27 29 28
f 28 29 30
f 28 30 26
f 29 23 31
f 29 31 30
f 30 31 32
f 30 32 26
f 31 23 33
f 31 33 32
f 32 33 34
f 32 34 26
f 33 23 35
f 33 35 34
f 34 35 36
f 34 36 26
f 35 23 24
f 35 24 36
f 36 24 25
f 36 25 26

o geometry_2
usemtl material_0
v 0.13886892 0.00000000 0.26592372
v 0.22886892 0.00000000 0.26592372
v 0.22886892 0.10000000 0.26592372
v 0.13886892 0.10000000 0.26592372
v 0.18386892 0.00000000 0.18798143
v 0.18386892 0.10000000 0.18798143
v 0.09386892 0.00000000 0.18798143
v 0.09386892 0.10000000 0.18798143
v 0.04886892 0.00000000 0.26592372
v 0.04886892 0.10000000 0.26592372
v 0.09386892 -0.00000000 0.34386600
v 0.09386892 0.10000000 0.34386600
v 0.18386892 -0.00000000 0.34386600
v 0.18386892 0.10000000 0.34386600
f 38 37 41
f 38 41 39
f 39 41 42
f 39 42 40
f 41 37 43
f 41 43 42
f 42 43 44
f 42 44 40
f 43 37 45
f 43 45 44
f 44 45 46
f 44 46 40
f 45 37 47
f 45 47 46
f 46 47 48
f 46 48 40
f 47 37 49
f 47 49 48
f 48 49 50
f 48 50 40
f 49 37 38
f 49 38 50
f 50 38 39
f 50 39 40

o geometry_3
usemtl material_0
v -0.17124971 0.00000000 0.24631999
v -0.08124971 0.00000000 0.24631999
v -0.08124971 0.10000000 0.24631999
v -0.17124971 0.10000000 0.24631999
v -0.12624971 0.00000000 0.16837770
v -0.12624971 0.10000000 0.16837770
v -0.21624971 0.00000000 0.16837770
v -0.21624971 0.10000000 0.16837770
v -0.26124971 0.00000000 0.24631999
v -0.26124971 0.10000000 0.24631999
v -0.21624971 -0.00000000 0.32426228
v -0.21624971 0.10000000 0.32426228
v -0.12624971 -0.00000000 0.32426228
v -0.12624971 0.10000000 0.32426228
f 52 51 55
f 52 55 53
f 53 55 56
f 53 56 54
f 55 51 57
f 55 57 56
f 56 57 58
f 56 58 54
f 57 51 59
f 57 59 58
f 58 59 60
f 58 60 54
f 59 51 61
f 59 61 60
f 60 61 62
f 60 62 54
f 61 51 63
f 61 63 62
f 62 63 64
f 62 64 54
f 63 51 52
f 63 52 64
f 64 52 53
f 64 53 54

o geometry_4
usemtl material_0
v -0.29595694 0.00000000 0.04908655
v -0.20595694 0.00000000 0.04908655
v -0.20595694 0.10000000 0.04908655
v -0.29595694 0.10000000 0.04908655
v -0.25095694 0.00000000 -0.02885574
v -0.25095694 0.10000000 -0.02885574
v -0.34095694 0.00000000 -0.02885574
v -0.34095694 0.10000000 -0.02885574
v -0.38595694 0.00000000 0.04908655
v -0.38595694 0.10000000 0.04908655
v -0.34095694 -0.00000000 0.12702884
v -0.34095694 0.10000000 0.12702884
v -0.25095694 -0.00000000 0.12702884
v -0.25095694 0.10000000 0.12702884
f 66 65 69
f 66 69 67
f 67 69 70
f 67 70 68
f 69 65 71
f 69 71 70
f 70 71 72
f 70 72 68
f 71 65 73
f 71 73 72
f 72 73 74
f 72 74 68
f 73 65 75
f 73 75 74
f 74 75 76
f 74 76 68
f 75 65 77
f 75 77 76
f 76 77 78
f 76 78 68
f 77 65 66
f 77 66 78
f 78 66 67
f 78 67 68

o geometry_5
usemtl material_0
v -0.13621696 0.00000000 -0.26729186
v -0.04621696 0.00000000 -0.26729186
v -0.04621696 0.10000000 -0.26729186
v -0.13621696 0.10000000 -0.26729186
v -0.09121696 0.00000000 -0.34523415
v -0.09121696 0.10000000 -0.34523415
v -0.18121696 0.00000000 -0.34523415
v -0.18121696 0.10000000 -0.34523415
v -0.22621696 0.00000000 -0.26729186
v -0.22621696 0.10000000 -0.26729186
v -0.18121696 -0.00000000 -0.18934958
v -0.18121696 0.10000000 -0.18934958
v -0.09121696 -0.00000000 -0.18934958
v -0.09121696 0.10000000 -0.18934958
f 80 79 83
f 80 83 81
f 81 83 84
f 81 84 82
f 83 79 85
f 83 85 84
f 84 85 86
f 84 86 82
f 85 79 87
f 85 87 86
f 86 87 88
f 86 88 82
f 87 79 89
f 87 89 88
f 88 89 90
f 88 90 82
f 89 79 91
f 89 91 90
f 90 91 92
f 90 92 82
f 91 79 80
f 91 80 92
f 92 80 81
f 92 81 82

o geometry_6
usemtl material_0
v 0.19689424 0.00000000 -0.22634632
v 0.28689424 0.00000000 -0.22634632
v 0.28689424 0.10000000 -0.22634632
v 0.19689424 0.10000000 -0.22634632
v 0.24189424 0.00000000 -0.30428861
v 0.24189424 0.10000000 -0.30428861
v 0.15189424 0.00000000 -0.30428861
v 0.15189424 0.10000000 -0.30428861
v 0.10689424 0.00000000 -0.22634632
v 0.10689424 0.10000000 -0.22634632
v 0.15189424 -0.00000000 -0.14840404
v 0.15189424 0.10000000 -0.14840404
v 0.24189424 -0.00000000 -0.14840404
v 0.24189424 0.10000000 -0.14840404
f 94 93 97
f 94 97 95
f 95 97 98
f 95 98 96
f 97 93 99
f 97 99 98
f 98 99 100
f 98 100 96
f 99 93 101
f 99 101 100
f 100 101 102
f 100 102 96
f 101 93 103
f 101 103 102
f 102 103 104
f 102 104 96
f 103 93 105
f 103 105 104
f 104 105 106
f 104 106 96
f 105 93 94
f 105 94 106
f 106 94 95
f 106 95 96

o geometry_7
usemtl material_1
v 0.00000000 0.16000000 -0.00000000
v 0.08500000 0.16000000 -0.00000000
v 0.08500000 1.55000000 0.00000000
v 0.00000000 1.55000000 0.00000000
v 0.06876644 0.16000000 -0.04996175
v 0.06876644 1.55000000 -0.04996175
v 0.02626644 0.16000000 -0.08083980
v 0.02626644 1.55000000 -0.08083980
v -0.02626644 0.16000000 -0.08083980
v -0.02626644 1.55000000 -0.08083980
v -0.06876644 0.16000000 -0.04996175
v -0.06876644 1.55000000 -0.04996175
v -0.08500000 0.16000000 -0.00000000
v -0.08500000 1.55000000 0.00000000
v -0.06876644 0.16000000 0.04996175
v -0.06876644 1.55000000 0.04996175
v -0.02626644 0.16000000 0.08083980
v -0.02626644 1.55000000 0.08083980
v 0.02626644 0.16000000 0.08083980
v 0.02626644 1.55000000 0.08083980
v 0.06876644 0.16000000 0.04996175
v 0.06876644 1.55000000 0.04996175
f 108 107 111
f 108 111 109
f 109 111 112
f 109 112 110
f 111 107 113
f 111 113 112
f 112 113 114
f 112 114 110
f 113 107 115
f 113 115 114
f 114 115 116
f 114 116 110
f 115 107 117
f 115 117 116
f 116 117 118
f 116 118 110
f 117 107 119
f 117 119 118
f 118 119 120
f 118 120 110
f 119 107 121
f 119 121 120
f 120 121 122
f 120 122 110
f 121 107 123
f 121 123 122
f 122 123 124
f 122 124 110
f 123 107 125
f 123 125 124
f 124 125 126
f 124 126 110
f 125 107 127
f 125 127 126
f 126 127 128
f 126 128 110
f 127 107 108
f 127 108 128
f 128 108 109
f 128 109 110

o geometry_8
usemtl material_2
v 0.00000000 0.75000000 -0.00000000
v 0.16500000 0.75000000 -0.00000000
v 0.16500000 1.32000000 0.00000000
v 0.00000000 1.32000000 0.00000000
v 0.14289419 0.75000000 -0.08250000
v 0.14289419 1.32000000 -0.08250000
v 0.08250000 0.75000000 -0.14289419
v 0.08250000 1.32000000 -0.14289419
v 0.00000000 0.75000000 -0.16500000
v 0.00000000 1.32000000 -0.16500000
v -0.08250000 0.75000000 -0.14289419
v -0.08250000 1.32000000 -0.14289419
v -0.14289419 0.75000000 -0.08250000
v -0.14289419 1.32000000 -0.08250000
v -0.16500000 0.75000000 -0.00000000
v -0.16500000 1.32000000 -0.00000000
v -0.14289419 0.75000000 0.08250000
v -0.14289419 1.32000000 0.08250000
v -0.08250000 0.75000000 0.14289419
v -0.08250000 1.32000000 0.14289419
v -0.00000000 0.75000000 0.16500000
v -0.00000000 1.32000000 0.16500000
v 0.08250000 0.75000000 0.14289419
v 0.08250000 1.32000000 0.14289419
v 0.14289419 0.75000000 0.08250000
v 0.14289419 1.32000000 0.08250000
f 130 129 133
f 130 133 131
f 131 133 134
f 131 134 132
f 133 129 135
f 133 135 134
f 134 135 136
f 134 136 132
f 135 129 137
f 135 137 136
f 136 137 138
f 136 138 132
f 137 129 139
f 137 139 138
f 138 139 140
f 138 140 132
f 139 129 141
f 139 141 140
f 140 141 142
f 140 142 132
f 141 129 143
f 141 143 142
f 142 143 144
f 142 144 132
f 143 129 145
f 143 145 144
f 144 145 146
f 144 146 132
f 145 129 147
f 145 147 146
f 146 147 148
f 146 148 132
f 147 129 149
f 147 149 148
f 148 149 150
f 148 150 132
f 149 129 151
f 149 151 150
f 150 151 152
f 150 152 132
f 151 129 153
f 151 153 152
f 152 153 154
f 152 154 132
f 153 129 130
f 153 130 154
f 154 130 131
f 154 131 132

o geometry_9
usemtl material_3
v 0.00000000 1.27000000 -0.00000000
v 0.18500000 1.27000000 -0.00000000
v 0.18500000 1.36000000 0.00000000
v 0.00000000 1.36000000 0.00000000
v 0.16021470 1.27000000 -0.09250000
v 0.16021470 1.36000000 -0.09250000
v 0.09250000 1.27000000 -0.16021470
v 0.09250000 1.36000000 -0.16021470
v 0.00000000 1.27000000 -0.18500000
v 0.00000000 1.36000000 -0.18500000
v -0.09250000 1.27000000 -0.16021470
v -0.09250000 1.36000000 -0.16021470
v -0.16021470 1.27000000 -0.09250000
v -0.16021470 1.36000000 -0.09250000
v -0.18500000 1.27000000 -0.00000000
v -0.18500000 1.36000000 -0.00000000
v -0.16021470 1.27000000 0.09250000
v -0.16021470 1.36000000 0.09250000
v -0.09250000 1.27000000 0.16021470
v -0.09250000 1.36000000 0.16021470
v -0.00000000 1.27000000 0.18500000
v -0.00000000 1.36000000 0.18500000
v 0.09250000 1.27000000 0.16021470
v 0.09250000 1.36000000 0.16021470
v 0.16021470 1.27000000 0.09250000
v 0.16021470 1.36000000 0.09250000
f 156 155 159
f 156 159 157
f 157 159 160
f 157 160 158
f 159 155 161
f 159 161 160
f 160 161 162
f 160 162 158
f 161 155 163
f 161 163 162
f 162 163 164
f 162 164 158
f 163 155 165
f 163 165 164
f 164 165 166
f 164 166 158
f 165 155 167
f 165 167 166
f 166 167 168
f 166 168 158
f 167 155 169
f 167 169 168
f 168 169 170
f 168 170 158
f 169 155 171
f 169 171 170
f 170 171 172
f 170 172 158
f 171 155 173
f 171 173 172
f 172 173 174
f 172 174 158
f 173 155 175
f 173 175 174
f 174 175 176
f 174 176 158
f 175 155 177
f 175 177 176
f 176 177 178
f 176 178 158
f 177 155 179
f 177 179 178
f 178 179 180
f 178 180 158
f 179 155 156
f 179 156 180
f 180 156 157
f 180 157 158

o geometry_10
usemtl material_4
v 0.00000000 0.83000000 -0.00000000
v 0.17200000 0.83000000 -0.00000000
v 0.17200000 0.86500000 0.00000000
v 0.00000000 0.86500000 0.00000000
v 0.14895637 0.83000000 -0.08600000
v 0.14895637 0.86500000 -0.08600000
v 0.08600000 0.83000000 -0.14895637
v 0.08600000 0.86500000 -0.14895637
v 0.00000000 0.83000000 -0.17200000
v 0.00000000 0.86500000 -0.17200000
v -0.08600000 0.83000000 -0.14895637
v -0.08600000 0.86500000 -0.14895637
v -0.14895637 0.83000000 -0.08600000
v -0.14895637 0.86500000 -0.08600000
v -0.17200000 0.83000000 -0.00000000
v -0.17200000 0.86500000 -0.00000000
v -0.14895637 0.83000000 0.08600000
v -0.14895637 0.86500000 0.08600000
v -0.08600000 0.83000000 0.14895637
v -0.08600000 0.86500000 0.14895637
v -0.00000000 0.83000000 0.17200000
v -0.00000000 0.86500000 0.17200000
v 0.08600000 0.83000000 0.14895637
v 0.08600000 0.86500000 0.14895637
v 0.14895637 0.83000000 0.08600000
v 0.14895637 0.86500000 0.08600000
f 182 181 185
f 182 185 183
f 183 185 186
f 183 186 184
f 185 181 187
f 185 187 186
f 186 187 188
f 186 188 184
f 187 181 189
f 187 189 188
f 188 189 190
f 188 190 184
f 189 181 191
f 189 191 190
f 190 191 192
f 190 192 184
f 191 181 193
f 191 193 192
f 192 193 194
f 192 194 184
f 193 181 195
f 193 195 194
f 194 195 196
f 194 196 184
f 195 181 197
f 195 197 196
f 196 197 198
f 196 198 184
f 197 181 199
f 197 199 198
f 198 199 200
f 198 200 184
f 199 181 201
f 199 201 200
f 200 201 202
f 200 202 184
f 201 181 203
f 201 203 202
f 202 203 204
f 202 204 184
f 203 181 205
f 203 205 204
f 204 205 206
f 204 206 184
f 205 181 182
f 205 182 206
f 206 182 183
f 206 183 184

o geometry_11
usemtl material_4
v 0.00000000 1.00000000 -0.00000000
v 0.17200000 1.00000000 -0.00000000
v 0.17200000 1.03500000 0.00000000
v 0.00000000 1.03500000 0.00000000
v 0.14895637 1.00000000 -0.08600000
v 0.14895637 1.03500000 -0.08600000
v 0.08600000 1.00000000 -0.14895637
v 0.08600000 1.03500000 -0.14895637
v 0.00000000 1.00000000 -0.17200000
v 0.00000000 1.03500000 -0.17200000
v -0.08600000 1.00000000 -0.14895637
v -0.08600000 1.03500000 -0.14895637
v -0.14895637 1.00000000 -0.08600000
v -0.14895637 1.03500000 -0.08600000
v -0.17200000 1.00000000 -0.00000000
v -0.17200000 1.03500000 -0.00000000
v -0.14895637 1.00000000 0.08600000
v -0.14895637 1.03500000 0.08600000
v -0.08600000 1.00000000 0.14895637
v -0.08600000 1.03500000 0.14895637
v -0.00000000 1.00000000 0.17200000
v -0.00000000 1.03500000 0.17200000
v 0.08600000 1.00000000 0.14895637
v 0.08600000 1.03500000 0.14895637
v 0.14895637 1.00000000 0.08600000
v 0.14895637 1.03500000 0.08600000
f 208 207 211
f 208 211 209
f 209 211 212
f 209 212 210
f 211 207 213
f 211 213 212
f 212 213 214
f 212 214 210
f 213 207 215
f 213 215 214
f 214 215 216
f 214 216 210
f 215 207 217
f 215 217 216
f 216 217 218
f 216 218 210
f 217 207 219
f 217 219 218
f 218 219 220
f 218 220 210
f 219 207 221
f 219 221 220
f 220 221 222
f 220 222 210
f 221 207 223
f 221 223 222
f 222 223 224
f 222 224 210
f 223 207 225
f 223 225 224
f 224 225 226
f 224 226 210
f 225 207 227
f 225 227 226
f 226 227 228
f 226 228 210
f 227 207 229
f 227 229 228
f 228 229 230
f 228 230 210
f 229 207 231
f 229 231 230
f 230 231 232
f 230 232 210
f 231 207 208
f 231 208 232
f 232 208 209
f 232 209 210

o geometry_12
usemtl material_4
v 0.00000000 1.17000000 -0.00000000
v 0.17200000 1.17000000 -0.00000000
v 0.17200000 1.20500000 0.00000000
v 0.00000000 1.20500000 0.00000000
v 0.14895637 1.17000000 -0.08600000
v 0.14895637 1.20500000 -0.08600000
v 0.08600000 1.17000000 -0.14895637
v 0.08600000 1.20500000 -0.14895637
v 0.00000000 1.17000000 -0.17200000
v 0.00000000 1.20500000 -0.17200000
v -0.08600000 1.17000000 -0.14895637
v -0.08600000 1.20500000 -0.14895637
v -0.14895637 1.17000000 -0.08600000
v -0.14895637 1.20500000 -0.08600000
v -0.17200000 1.17000000 -0.00000000
v -0.17200000 1.20500000 -0.00000000
v -0.14895637 1.17000000 0.08600000
v -0.14895637 1.20500000 0.08600000
v -0.08600000 1.17000000 0.14895637
v -0.08600000 1.20500000 0.14895637
v -0.00000000 1.17000000 0.17200000
v -0.00000000 1.20500000 0.17200000
v 0.08600000 1.17000000 0.14895637
v 0.08600000 1.20500000 0.14895637
v 0.14895637 1.17000000 0.08600000
v 0.14895637 1.20500000 0.08600000
f 234 233 237
f 234 237 235
f 235 237 238
f 235 238 236
f 237 233 239
f 237 239 238
f 238 239 240
f 238 240 236
f 239 233 241
f 239 241 240
f 240 241 242
f 240 242 236
f 241 233 243
f 241 243 242
f 242 243 244
f 242 244 236
f 243 233 245
f 243 245 244
f 244 245 246
f 244 246 236
f 245 233 247
f 245 247 246
f 246 247 248
f 246 248 236
f 247 233 249
f 247 249 248
f 248 249 250
f 248 250 236
f 249 233 251
f 249 251 250
f 250 251 252
f 250 252 236
f 251 233 253
f 251 253 252
f 252 253 254
f 252 254 236
f 253 233 255
f 253 255 254
f 254 255 256
f 254 256 236
f 255 233 257
f 255 257 256
f 256 257 258
f 256 258 236
f 257 233 234
f 257 234 258
f 258 234 235
f 258 235 236

o geometry_13
usemtl material_1
v -0.47500000 1.22000000 -0.00000000
v -0.47500000 1.22000000 -0.05500000
v 0.47500000 1.22000000 -0.05500000
v 0.47500000 1.22000000 0.00000000
v -0.47500000 1.25889087 -0.03889087
v 0.47500000 1.25889087 -0.03889087
v -0.47500000 1.27500000 -0.00000000
v 0.47500000 1.27500000 0.00000000
v -0.47500000 1.25889087 0.03889087
v 0.47500000 1.25889087 0.03889087
v -0.47500000 1.22000000 0.05500000
v 0.47500000 1.22000000 0.05500000
v -0.47500000 1.18110913 0.03889087
v 0.47500000 1.18110913 0.03889087
v -0.47500000 1.16500000 -0.00000000
v 0.47500000 1.16500000 0.00000000
v -0.47500000 1.18110913 -0.03889087
v 0.47500000 1.18110913 -0.03889087
f 260 259 263
f 260 263 261
f 261 263 264
f 261 264 262
f 263 259 265
f 263 265 264
f 264 265 266
f 264 266 262
f 265 259 267
f 265 267 266
f 266 267 268
f 266 268 262
f 267 259 269
f 267 269 268
f 268 269 270
f 268 270 262
f 269 259 271
f 269 271 270
f 270 271 272
f 270 272 262
f 271 259 273
f 271 273 272
f 272 273 274
f 272 274 262
f 273 259 275
f 273 275 274
f 274 275 276
f 274 276 262
f 275 259 260
f 275 260 276
f 276 260 261
f 276 261 262

o geometry_14
usemtl material_4
v 0.00000000 1.17500000 -0.00000000
v 0.10000000 1.17500000 -0.00000000
v 0.10000000 1.26500000 0.00000000
v 0.00000000 1.26500000 0.00000000
v 0.08090170 1.17500000 -0.05877853
v 0.08090170 1.26500000 -0.05877853
v 0.03090170 1.17500000 -0.09510565
v 0.03090170 1.26500000 -0.09510565
v -0.03090170 1.17500000 -0.09510565
v -0.03090170 1.26500000 -0.09510565
v -0.08090170 1.17500000 -0.05877853
v -0.08090170 1.26500000 -0.05877853
v -0.10000000 1.17500000 -0.00000000
v -0.10000000 1.26500000 -0.00000000
v -0.08090170 1.17500000 0.05877853
v -0.08090170 1.26500000 0.05877853
v -0.03090170 1.17500000 0.09510565
v -0.03090170 1.26500000 0.09510565
v 0.03090170 1.17500000 0.09510565
v 0.03090170 1.26500000 0.09510565
v 0.08090170 1.17500000 0.05877853
v 0.08090170 1.26500000 0.05877853
f 278 277 281
f 278 281 279
f 279 281 282
f 279 282 280
f 281 277 283
f 281 283 282
f 282 283 284
f 282 284 280
f 283 277 285
f 283 285 284
f 284 285 286
f 284 286 280
f 285 277 287
f 285 287 286
f 286 287 288
f 286 288 280
f 287 277 289
f 287 289 288
f 288 289 290
f 288 290 280
f 289 277 291
f 289 291 290
f 290 291 292
f 290 292 280
f 291 277 293
f 291 293 292
f 292 293 294
f 292 294 280
f 293 277 295
f 293 295 294
f 294 295 296
f 294 296 280
f 295 277 297
f 295 297 296
f 296 297 298
f 296 298 280
f 297 277 278
f 297 278 298
f 298 278 279
f 298 279 280

o geometry_15
usemtl material_2
v -0.07623101 1.56321192 0.00000000
v 0.07623101 1.56321192 0.00000000
v -0.07623101 1.29678808 0.00000000
v 0.07623101 1.29678808 0.00000000
v 0.00000000 1.34767051 0.12334437
v 0.00000000 1.51232949 0.12334437
v 0.00000000 1.34767051 -0.12334437
v 0.00000000 1.51232949 -0.12334437
v 0.12334437 1.43000000 -0.07623101
v 0.12334437 1.43000000 0.07623101
v -0.12334437 1.43000000 -0.07623101
v -0.12334437 1.43000000 0.07623101
v 0.00000000 1.58660000 0.00000000
v 0.00000000 1.27340000 0.00000000
v -0.04480746 1.30330794 0.07250000
v 0.04480746 1.30330794 0.07250000
v -0.04480746 1.55669206 0.07250000
v 0.04480746 1.55669206 0.07250000
v 0.00000000 1.43000000 0.14500000
v -0.04480746 1.30330794 -0.07250000
v 0.04480746 1.30330794 -0.07250000
v -0.04480746 1.55669206 -0.07250000
v 0.04480746 1.55669206 -0.07250000
v 0.00000000 1.43000000 -0.14500000
v 0.11730746 1.50830000 -0.04480746
v 0.11730746 1.35170000 -0.04480746
v 0.07250000 1.38160794 -0.11730746
v 0.07250000 1.47839206 -0.11730746
v 0.11730746 1.50830000 0.04480746
v 0.11730746 1.35170000 0.04480746
v 0.07250000 1.38160794 0.11730746
v 0.07250000 1.47839206 0.11730746
v 0.14500000 1.43000000 0.00000000
v -0.11730746 1.50830000 -0.04480746
v -0.11730746 1.35170000 -0.04480746
v -0.07250000 1.38160794 -0.11730746
v -0.07250000 1.47839206 -0.11730746
v -0.11730746 1.50830000 0.04480746
v -0.11730746 1.35170000 0.04480746
v -0.07250000 1.38160794 0.11730746
v -0.07250000 1.47839206 0.11730746
v -0.14500000 1.43000000 0.00000000
v -0.03962365 1.58063955 0.00000000
v 0.03962365 1.58063955 0.00000000
v -0.03962365 1.27936045 0.00000000
v 0.03962365 1.27936045 0.00000000
v -0.06291384 1.29490612 0.03768433
v -0.02329020 1.32135398 0.10179673
v -0.02355668 1.28106455 0.03811551
v 0.06291384 1.29490612 0.03768433
v 0.02329020 1.32135398 0.10179673
v 0.02355668 1.28106455 0.03811551
v 0.00000000 1.29678808 0.07623101
v -0.06291384 1.56509388 0.03768433
v -0.02329020 1.53864602 0.10179673
v -0.02355668 1.57893545 0.03811551
v 0.06291384 1.56509388 0.03768433
v 0.02329020 1.53864602 0.10179673
v 0.02355668 1.57893545 0.03811551
v 0.00000000 1.56321192 0.07623101
v 0.00000000 1.38720646 0.13948106
v 0.00000000 1.47279354 0.13948106
v -0.06291384 1.29490612 -0.03768433
v -0.02329020 1.32135398 -0.10179673
v -0.02355668 1.28106455 -0.03811551
v 0.06291384 1.29490612 -0.03768433
v 0.02329020 1.32135398 -0.10179673
v 0.02355668 1.28106455 -0.03811551
v 0.00000000 1.29678808 -0.07623101
v -0.06291384 1.56509388 -0.03768433
v -0.02329020 1.53864602 -0.10179673
v -0.02355668 1.57893545 -0.03811551
v 0.06291384 1.56509388 -0.03768433
v 0.02329020 1.53864602 -0.10179673
v 0.02355668 1.57893545 -0.03811551
v 0.00000000 1.56321192 -0.07623101
v 0.00000000 1.38720646 -0.13948106
v 0.00000000 1.47279354 -0.13948106
v 0.10059817 1.53994047 -0.02329020
v 0.12508693 1.47069907 -0.06291384
v 0.08522886 1.53777070 -0.06167218
v 0.10059817 1.32005953 -0.02329020
v 0.12508693 1.38930093 -0.06291384
v 0.08522886 1.32222930 -0.06167218
v 0.03768433 1.36205305 -0.12508693
v 0.10179673 1.40484659 -0.10059817
v 0.06167218 1.33795283 -0.09978769
v 0.03811551 1.40455879 -0.13790319
v 0.09978769 1.36339404 -0.08522886
v 0.03768433 1.49794695 -0.12508693
v 0.10179673 1.45515341 -0.10059817
v 0.06167218 1.52204717 -0.09978769
v 0.03811551 1.45544121 -0.13790319
v 0.09978769 1.49660596 -0.08522886
v 0.07623101 1.43000000 -0.12334437
v 0.10059817 1.53994047 0.02329020
v 0.12508693 1.47069907 0.06291384
v 0.08522886 1.53777070 0.06167218
v 0.12334437 1.51232949 0.00000000
v 0.10059817 1.32005953 0.02329020
v 0.12508693 1.38930093 0.06291384
v 0.08522886 1.32222930 0.06167218
v 0.12334437 1.34767051 0.00000000
v 0.03768433 1.36205305 0.12508693
v 0.10179673 1.40484659 0.10059817
v 0.06167218 1.33795283 0.09978769
v 0.03811551 1.40455879 0.13790319
v 0.09978769 1.36339404 0.08522886
v 0.03768433 1.49794695 0.12508693
v 0.10179673 1.45515341 0.10059817
v 0.06167218 1.52204717 0.09978769
v 0.03811551 1.45544121 0.13790319
v 0.09978769 1.49660596 0.08522886
v 0.07623101 1.43000000 0.12334437
v 0.13948106 1.43000000 -0.03962365
v 0.13948106 1.43000000 0.03962365
v 0.13790319 1.47116475 -0.02355668
v 0.13790319 1.38883525 -0.02355668
v 0.13790319 1.47116475 0.02355668
v 0.13790319 1.38883525 0.02355668
v -0.10059817 1.53994047 -0.02329020
v -0.12508693 1.47069907 -0.06291384
v -0.08522886 1.53777070 -0.06167218
v -0.10059817 1.32005953 -0.02329020
v -0.12508693 1.38930093 -0.06291384
v -0.08522886 1.32222930 -0.06167218
v -0.03768433 1.36205305 -0.12508693
v -0.10179673 1.40484659 -0.10059817
v -0.06167218 1.33795283 -0.09978769
v -0.03811551 1.40455879 -0.13790319
v -0.09978769 1.36339404 -0.08522886
v -0.03768433 1.49794695 -0.12508693
v -0.10179673 1.45515341 -0.10059817
v -0.06167218 1.52204717 -0.09978769
v -0.03811551 1.45544121 -0.13790319
v -0.09978769 1.49660596 -0.08522886
v -0.07623101 1.43000000 -0.12334437
v -0.10059817 1.53994047 0.02329020
v -0.12508693 1.47069907 0.06291384
v -0.08522886 1.53777070 0.06167218
v -0.12334437 1.51232949 0.00000000
v -0.10059817 1.32005953 0.02329020
v -0.12508693 1.38930093 0.06291384
v -0.08522886 1.32222930 0.06167218
v -0.12334437 1.34767051 0.00000000
v -0.03768433 1.36205305 0.12508693
v -0.10179673 1.40484659 0.10059817
v -0.06167218 1.33795283 0.09978769
v -0.03811551 1.40455879 0.13790319
v -0.09978769 1.36339404 0.08522886
v -0.03768433 1.49794695 0.12508693
v -0.10179673 1.45515341 0.10059817
v -0.06167218 1.52204717 0.09978769
v -0.03811551 1.45544121 0.13790319
v -0.09978769 1.49660596 0.08522886
v -0.07623101 1.43000000 0.12334437
v -0.13948106 1.43000000 -0.03962365
v -0.13948106 1.43000000 0.03962365
v -0.13790319 1.47116475 -0.02355668
v -0.13790319 1.38883525 -0.02355668
v -0.13790319 1.47116475 0.02355668
v -0.13790319 1.38883525 0.02355668
f 299 436 352
f 436 336 438
f 352 438 315
f 436 438 352
f 336 437 453
f 437 310 450
f 453 450 339
f 437 450 453
f 315 451 353
f 451 339 449
f 353 449 304
f 451 449 353
f 336 453 438
f 453 339 451
f 438 451 315
f 453 451 438
f 299 352 341
f 352 315 354
f 341 354 311
f 352 354 341
f 315 353 358
f 353 304 356
f 358 356 316
f 353 356 358
f 311 357 342
f 357 316 355
f 342 355 300
f 357 355 342
f 315 358 354
f 358 316 357
f 354 357 311
f 358 357 354
f 299 341 368
f 341 311 370
f 368 370 320
f 341 370 368
f 311 342 373
f 342 300 371
f 373 371 321
f 342 371 373
f 320 374 369
f 374 321 372
f 369 372 306
f 374 372 369
f 311 373 370
f 373 321 374
f 370 374 320
f 373 374 370
f 299 368 419
f 368 320 421
f 419 421 332
f 368 421 419
f 320 369 432
f 369 306 430
f 432 430 335
f 369 430 432
f 332 434 420
f 434 335 431
f 420 431 309
f 434 431 420
f 320 432 421
f 432 335 434
f 421 434 332
f 432 434 421
f 299 419 436
f 419 332 439
f 436 439 336
f 419 439 436
f 332 420 457
f 420 309 455
f 457 455 340
f 420 455 457
f 336 459 437
f 459 340 456
f 437 456 310
f 459 456 437
f 332 457 439
f 457 340 459
f 439 459 336
f 457 459 439
f 300 355 394
f 355 316 396
f 394 396 327
f 355 396 394
f 316 356 409
f 356 304 407
f 409 407 330
f 356 407 409
f 327 411 395
f 411 330 408
f 395 408 308
f 411 408 395
f 316 409 396
f 409 330 411
f 396 411 327
f 409 411 396
f 304 449 360
f 449 339 452
f 360 452 317
f 449 452 360
f 339 450 454
f 450 310 445
f 454 445 338
f 450 445 454
f 317 447 359
f 447 338 444
f 359 444 303
f 447 444 359
f 339 454 452
f 454 338 447
f 452 447 317
f 454 447 452
f 310 456 441
f 456 340 460
f 441 460 337
f 456 460 441
f 340 455 458
f 455 309 423
f 458 423 333
f 455 423 458
f 337 443 440
f 443 333 422
f 440 422 301
f 443 422 440
f 340 458 460
f 458 333 443
f 460 443 337
f 458 443 460
f 309 431 426
f 431 335 435
f 426 435 334
f 431 435 426
f 335 430 433
f 430 306 376
f 433 376 322
f 430 376 433
f 334 428 425
f 428 322 375
f 425 375 305
f 428 375 425
f 335 433 435
f 433 322 428
f 435 428 334
f 433 428 435
f 306 372 388
f 372 321 390
f 388 390 326
f 372 390 388
f 321 371 379
f 371 300 377
f 379 377 323
f 371 377 379
f 326 392 389
f 392 323 378
f 389 378 307
f 392 378 389
f 321 379 390
f 379 323 392
f 390 392 326
f 379 392 390
f 302 398 348
f 398 328 400
f 348 400 314
f 398 400 348
f 328 399 406
f 399 308 403
f 406 403 329
f 399 403 406
f 314 404 349
f 404 329 402
f 349 402 303
f 404 402 349
f 328 406 400
f 406 329 404
f 400 404 314
f 406 404 400
f 302 348 344
f 348 314 350
f 344 350 312
f 348 350 344
f 314 349 351
f 349 303 346
f 351 346 313
f 349 346 351
f 312 347 343
f 347 313 345
f 343 345 301
f 347 345 343
f 314 351 350
f 351 313 347
f 350 347 312
f 351 347 350
f 302 344 364
f 344 312 366
f 364 366 319
f 344 366 364
f 312 343 363
f 343 301 361
f 363 361 318
f 343 361 363
f 319 367 365
f 367 318 362
f 365 362 305
f 367 362 365
f 312 363 366
f 363 318 367
f 366 367 319
f 363 367 366
f 302 364 380
f 364 319 382
f 380 382 324
f 364 382 380
f 319 365 385
f 365 305 383
f 385 383 325
f 365 383 385
f 324 387 381
f 387 325 384
f 381 384 307
f 387 384 381
f 319 385 382
f 385 325 387
f 382 387 324
f 385 387 382
f 302 380 398
f 380 324 401
f 398 401 328
f 380 401 398
f 324 381 416
f 381 307 413
f 416 413 331
f 381 413 416
f 328 418 399
f 418 331 414
f 399 414 308
f 418 414 399
f 324 416 401
f 416 331 418
f 401 418 328
f 416 418 401
f 303 402 359
f 402 329 405
f 359 405 317
f 402 405 359
f 329 403 412
f 403 308 408
f 412 408 330
f 403 408 412
f 317 410 360
f 410 330 407
f 360 407 304
f 410 407 360
f 329 412 405
f 412 330 410
f 405 410 317
f 412 410 405
f 301 345 440
f 345 313 442
f 440 442 337
f 345 442 440
f 313 346 446
f 346 303 444
f 446 444 338
f 346 444 446
f 337 448 441
f 448 338 445
f 441 445 310
f 448 445 441
f 313 446 442
f 446 338 448
f 442 448 337
f 446 448 442
f 305 362 425
f 362 318 427
f 425 427 334
f 362 427 425
f 318 361 424
f 361 301 422
f 424 422 333
f 361 422 424
f 334 429 426
f 429 333 423
f 426 423 309
f 429 423 426
f 318 424 427
f 424 333 429
f 427 429 334
f 424 429 427
f 307 384 389
f 384 325 393
f 389 393 326
f 384 393 389
f 325 383 386
f 383 305 375
f 386 375 322
f 383 375 386
f 326 391 388
f 391 322 376
f 388 376 306
f 391 376 388
f 325 386 393
f 386 322 391
f 393 391 326
f 386 391 393
f 308 414 395
f 414 331 417
f 395 417 327
f 414 417 395
f 331 413 415
f 413 307 378
f 415 378 323
f 413 378 415
f 327 397 394
f 397 323 377
f 394 377 300
f 397 377 394
f 331 415 417
f 415 323 397
f 417 397 327
f 415 397 417

o geometry_16
usemtl material_4
v 0.00000000 1.34000000 -0.00000000
v 0.10000000 1.34000000 -0.00000000
v 0.10000000 1.37000000 0.00000000
v 0.00000000 1.37000000 0.00000000
v 0.08660254 1.34000000 -0.05000000
v 0.08660254 1.37000000 -0.05000000
v 0.05000000 1.34000000 -0.08660254
v 0.05000000 1.37000000 -0.08660254
v 0.00000000 1.34000000 -0.10000000
v 0.00000000 1.37000000 -0.10000000
v -0.05000000 1.34000000 -0.08660254
v -0.05000000 1.37000000 -0.08660254
v -0.08660254 1.34000000 -0.05000000
v -0.08660254 1.37000000 -0.05000000
v -0.10000000 1.34000000 -0.00000000
v -0.10000000 1.37000000 -0.00000000
v -0.08660254 1.34000000 0.05000000
v -0.08660254 1.37000000 0.05000000
v -0.05000000 1.34000000 0.08660254
v -0.05000000 1.37000000 0.08660254
v -0.00000000 1.34000000 0.10000000
v -0.00000000 1.37000000 0.10000000
v 0.05000000 1.34000000 0.08660254
v 0.05000000 1.37000000 0.08660254
v 0.08660254 1.34000000 0.05000000
v 0.08660254 1.37000000 0.05000000
f 462 461 465
f 462 465 463
f 463 465 466
f 463 466 464
f 465 461 467
f 465 467 466
f 466 467 468
f 466 468 464
f 467 461 469
f 467 469 468
f 468 469 470
f 468 470 464
f 469 461 471
f 469 471 470
f 470 471 472
f 470 472 464
f 471 461 473
f 471 473 472
f 472 473 474
f 472 474 464
f 473 461 475
f 473 475 474
f 474 475 476
f 474 476 464
f 475 461 477
f 475 477 476
f 476 477 478
f 476 478 464
f 477 461 479
f 477 479 478
f 478 479 480
f 478 480 464
f 479 461 481
f 479 481 480
f 480 481 482
f 480 482 464
f 481 461 483
f 481 483 482
f 482 483 484
f 482 484 464
f 483 461 485
f 483 485 484
f 484 485 486
f 484 486 464
f 485 461 462
f 485 462 486
f 486 462 463
f 486 463 464

o geometry_17
usemtl material_0
v -0.06553216 1.38411389 0.14000000
v -0.06553216 1.38411389 0.13200000
v 0.06553216 1.47588611 0.13200000
v 0.06553216 1.47588611 0.14000000
v -0.06950602 1.38978914 0.13600000
v 0.06155831 1.48156137 0.13600000
v -0.06950602 1.38978914 0.14400000
v 0.06155831 1.48156137 0.14400000
v -0.06553216 1.38411389 0.14800000
v 0.06553216 1.47588611 0.14800000
v -0.06155831 1.37843863 0.14400000
v 0.06950602 1.47021086 0.14400000
v -0.06155831 1.37843863 0.13600000
v 0.06950602 1.47021086 0.13600000
f 488 487 491
f 488 491 489
f 489 491 492
f 489 492 490
f 491 487 493
f 491 493 492
f 492 493 494
f 492 494 490
f 493 487 495
f 493 495 494
f 494 495 496
f 494 496 490
f 495 487 497
f 495 497 496
f 496 497 498
f 496 498 490
f 497 487 499
f 497 499 498
f 498 499 500
f 498 500 490
f 499 487 488
f 499 488 500
f 500 488 489
f 500 489 490

o geometry_18
usemtl material_0
v -0.06553216 1.47588611 0.14000000
v -0.06553216 1.47588611 0.13200000
v 0.06553216 1.38411389 0.13200000
v 0.06553216 1.38411389 0.14000000
v -0.06155831 1.48156137 0.13600000
v 0.06950602 1.38978914 0.13600000
v -0.06155831 1.48156137 0.14400000
v 0.06950602 1.38978914 0.14400000
v -0.06553216 1.47588611 0.14800000
v 0.06553216 1.38411389 0.14800000
v -0.06950602 1.47021086 0.14400000
v 0.06155831 1.37843863 0.14400000
v -0.06950602 1.47021086 0.13600000
v 0.06155831 1.37843863 0.13600000
f 502 501 505
f 502 505 503
f 503 505 506
f 503 506 504
f 505 501 507
f 505 507 506
f 506 507 508
f 506 508 504
f 507 501 509
f 507 509 508
f 508 509 510
f 508 510 504
f 509 501 511
f 509 511 510
f 510 511 512
f 510 512 504
f 511 501 513
f 511 513 512
f 512 513 514
f 512 514 504
f 513 501 502
f 513 502 514
f 514 502 503
f 514 503 504

o geometry_19
usemtl material_5
v 0.00000000 1.00000000 0.19900000
v 0.14500000 1.00000000 0.19900000
v 0.14500000 1.00000000 0.21100000
v 0.00000000 1.00000000 0.21100000
v 0.14005924 1.03752876 0.19900000
v 0.14005924 1.03752876 0.21100000
v 0.12557368 1.07250000 0.19900000
v 0.12557368 1.07250000 0.21100000
v 0.10253048 1.10253048 0.19900000
v 0.10253048 1.10253048 0.21100000
v 0.07250000 1.12557368 0.19900000
v 0.07250000 1.12557368 0.21100000
v 0.03752876 1.14005924 0.19900000
v 0.03752876 1.14005924 0.21100000
v 0.00000000 1.14500000 0.19900000
v 0.00000000 1.14500000 0.21100000
v -0.03752876 1.14005924 0.19900000
v -0.03752876 1.14005924 0.21100000
v -0.07250000 1.12557368 0.19900000
v -0.07250000 1.12557368 0.21100000
v -0.10253048 1.10253048 0.19900000
v -0.10253048 1.10253048 0.21100000
v -0.12557368 1.07250000 0.19900000
v -0.12557368 1.07250000 0.21100000
v -0.14005924 1.03752876 0.19900000
v -0.14005924 1.03752876 0.21100000
v -0.14500000 1.00000000 0.19900000
v -0.14500000 1.00000000 0.21100000
v -0.14005924 0.96247124 0.19900000
v -0.14005924 0.96247124 0.21100000
v -0.12557368 0.92750000 0.19900000
v -0.12557368 0.92750000 0.21100000
v -0.10253048 0.89746952 0.19900000
v -0.10253048 0.89746952 0.21100000
v -0.07250000 0.87442632 0.19900000
v -0.07250000 0.87442632 0.21100000
v -0.03752876 0.85994076 0.19900000
v -0.03752876 0.85994076 0.21100000
v -0.00000000 0.85500000 0.19900000
v -0.00000000 0.85500000 0.21100000
v 0.03752876 0.85994076 0.19900000
v 0.03752876 0.85994076 0.21100000
v 0.07250000 0.87442632 0.19900000
v 0.07250000 0.87442632 0.21100000
v 0.10253048 0.89746952 0.19900000
v 0.10253048 0.89746952 0.21100000
v 0.12557368 0.92750000 0.19900000
v 0.12557368 0.92750000 0.21100000
v 0.14005924 0.96247124 0.19900000
v 0.14005924 0.96247124 0.21100000
f 516 515 519
f 516 519 517
f 517 519 520
f 517 520 518
f 519 515 521
f 519 521 520
f 520 521 522
f 520 522 518
f 521 515 523
f 521 523 522
f 522 523 524
f 522 524 518
f 523 515 525
f 523 525 524
f 524 525 526
f 524 526 518
f 525 515 527
f 525 527 526
f 526 527 528
f 526 528 518
f 527 515 529
f 527 529 528
f 528 529 530
f 528 530 518
f 529 515 531
f 529 531 530
f 530 531 532
f 530 532 518
f 531 515 533
f 531 533 532
f 532 533 534
f 532 534 518
f 533 515 535
f 533 535 534
f 534 535 536
f 534 536 518
f 535 515 537
f 535 537 536
f 536 537 538
f 536 538 518
f 537 515 539
f 537 539 538
f 538 539 540
f 538 540 518
f 539 515 541
f 539 541 540
f 540 541 542
f 540 542 518
f 541 515 543
f 541 543 542
f 542 543 544
f 542 544 518
f 543 515 545
f 543 545 544
f 544 545 546
f 544 546 518
f 545 515 547
f 545 547 546
f 546 547 548
f 546 548 518
f 547 515 549
f 547 549 548
f 548 549 550
f 548 550 518
f 549 515 551
f 549 551 550
f 550 551 552
f 550 552 518
f 551 515 553
f 551 553 552
f 552 553 554
f 552 554 518
f 553 515 555
f 553 555 554
f 554 555 556
f 554 556 518
f 555 515 557
f 555 557 556
f 556 557 558
f 556 558 518
f 557 515 559
f 557 559 558
f 558 559 560
f 558 560 518
f 559 515 561
f 559 561 560
f 560 561 562
f 560 562 518
f 561 515 563
f 561 563 562
f 562 563 564
f 562 564 518
f 563 515 516
f 563 516 564
f 564 516 517
f 564 517 518

o geometry_20
usemtl material_6
v 0.00000000 1.00000000 0.20300000
v 0.11500000 1.00000000 0.20300000
v 0.11500000 1.00000000 0.21500000
v 0.00000000 1.00000000 0.21500000
v 0.11108147 1.02976419 0.20300000
v 0.11108147 1.02976419 0.21500000
v 0.09959292 1.05750000 0.20300000
v 0.09959292 1.05750000 0.21500000
v 0.08131728 1.08131728 0.20300000
v 0.08131728 1.08131728 0.21500000
v 0.05750000 1.09959292 0.20300000
v 0.05750000 1.09959292 0.21500000
v 0.02976419 1.11108147 0.20300000
v 0.02976419 1.11108147 0.21500000
v 0.00000000 1.11500000 0.20300000
v 0.00000000 1.11500000 0.21500000
v -0.02976419 1.11108147 0.20300000
v -0.02976419 1.11108147 0.21500000
v -0.05750000 1.09959292 0.20300000
v -0.05750000 1.09959292 0.21500000
v -0.08131728 1.08131728 0.20300000
v -0.08131728 1.08131728 0.21500000
v -0.09959292 1.05750000 0.20300000
v -0.09959292 1.05750000 0.21500000
v -0.11108147 1.02976419 0.20300000
v -0.11108147 1.02976419 0.21500000
v -0.11500000 1.00000000 0.20300000
v -0.11500000 1.00000000 0.21500000
v -0.11108147 0.97023581 0.20300000
v -0.11108147 0.97023581 0.21500000
v -0.09959292 0.94250000 0.20300000
v -0.09959292 0.94250000 0.21500000
v -0.08131728 0.91868272 0.20300000
v -0.08131728 0.91868272 0.21500000
v -0.05750000 0.90040708 0.20300000
v -0.05750000 0.90040708 0.21500000
v -0.02976419 0.88891853 0.20300000
v -0.02976419 0.88891853 0.21500000
v -0.00000000 0.88500000 0.20300000
v -0.00000000 0.88500000 0.21500000
v 0.02976419 0.88891853 0.20300000
v 0.02976419 0.88891853 0.21500000
v 0.05750000 0.90040708 0.20300000
v 0.05750000 0.90040708 0.21500000
v 0.08131728 0.91868272 0.20300000
v 0.08131728 0.91868272 0.21500000
v 0.09959292 0.94250000 0.20300000
v 0.09959292 0.94250000 0.21500000
v 0.11108147 0.97023581 0.20300000
v 0.11108147 0.97023581 0.21500000
f 566 565 569
f 566 569 567
f 567 569 570
f 567 570 568
f 569 565 571
f 569 571 570
f 570 571 572
f 570 572 568
f 571 565 573
f 571 573 572
f 572 573 574
f 572 574 568
f 573 565 575
f 573 575 574
f 574 575 576
f 574 576 568
f 575 565 577
f 575 577 576
f 576 577 578
f 576 578 568
f 577 565 579
f 577 579 578
f 578 579 580
f 578 580 568
f 579 565 581
f 579 581 580
f 580 581 582
f 580 582 568
f 581 565 583
f 581 583 582
f 582 583 584
f 582 584 568
f 583 565 585
f 583 585 584
f 584 585 586
f 584 586 568
f 585 565 587
f 585 587 586
f 586 587 588
f 586 588 568
f 587 565 589
f 587 589 588
f 588 589 590
f 588 590 568
f 589 565 591
f 589 591 590
f 590 591 592
f 590 592 568
f 591 565 593
f 591 593 592
f 592 593 594
f 592 594 568
f 593 565 595
f 593 595 594
f 594 595 596
f 594 596 568
f 595 565 597
f 595 597 596
f 596 597 598
f 596 598 568
f 597 565 599
f 597 599 598
f 598 599 600
f 598 600 568
f 599 565 601
f 599 601 600
f 600 601 602
f 600 602 568
f 601 565 603
f 601 603 602
f 602 603 604
f 602 604 568
f 603 565 605
f 603 605 604
f 604 605 606
f 604 606 568
f 605 565 607
f 605 607 606
f 606 607 608
f 606 608 568
f 607 565 609
f 607 609 608
f 608 609 610
f 608 610 568
f 609 565 611
f 609 611 610
f 610 611 612
f 610 612 568
f 611 565 613
f 611 613 612
f 612 613 614
f 612 614 568
f 613 565 566
f 613 566 614
f 614 566 567
f 614 567 568

o geometry_21
usemtl material_5
v 0.00000000 1.00000000 0.20700000
v 0.08500000 1.00000000 0.20700000
v 0.08500000 1.00000000 0.21900000
v 0.00000000 1.00000000 0.21900000
v 0.08210370 1.02199962 0.20700000
v 0.08210370 1.02199962 0.21900000
v 0.07361216 1.04250000 0.20700000
v 0.07361216 1.04250000 0.21900000
v 0.06010408 1.06010408 0.20700000
v 0.06010408 1.06010408 0.21900000
v 0.04250000 1.07361216 0.20700000
v 0.04250000 1.07361216 0.21900000
v 0.02199962 1.08210370 0.20700000
v 0.02199962 1.08210370 0.21900000
v 0.00000000 1.08500000 0.20700000
v 0.00000000 1.08500000 0.21900000
v -0.02199962 1.08210370 0.20700000
v -0.02199962 1.08210370 0.21900000
v -0.04250000 1.07361216 0.20700000
v -0.04250000 1.07361216 0.21900000
v -0.06010408 1.06010408 0.20700000
v -0.06010408 1.06010408 0.21900000
v -0.07361216 1.04250000 0.20700000
v -0.07361216 1.04250000 0.21900000
v -0.08210370 1.02199962 0.20700000
v -0.08210370 1.02199962 0.21900000
v -0.08500000 1.00000000 0.20700000
v -0.08500000 1.00000000 0.21900000
v -0.08210370 0.97800038 0.20700000
v -0.08210370 0.97800038 0.21900000
v -0.07361216 0.95750000 0.20700000
v -0.07361216 0.95750000 0.21900000
v -0.06010408 0.93989592 0.20700000
v -0.06010408 0.93989592 0.21900000
v -0.04250000 0.92638784 0.20700000
v -0.04250000 0.92638784 0.21900000
v -0.02199962 0.91789630 0.20700000
v -0.02199962 0.91789630 0.21900000
v -0.00000000 0.91500000 0.20700000
v -0.00000000 0.91500000 0.21900000
v 0.02199962 0.91789630 0.20700000
v 0.02199962 0.91789630 0.21900000
v 0.04250000 0.92638784 0.20700000
v 0.04250000 0.92638784 0.21900000
v 0.06010408 0.93989592 0.20700000
v 0.06010408 0.93989592 0.21900000
v 0.07361216 0.95750000 0.20700000
v 0.07361216 0.95750000 0.21900000
v 0.08210370 0.97800038 0.20700000
v 0.08210370 0.97800038 0.21900000
f 616 615 619
f 616 619 617
f 617 619 620
f 617 620 618
f 619 615 621
f 619 621 620
f 620 621 622
f 620 622 618
f 621 615 623
f 621 623 622
f 622 623 624
f 622 624 618
f 623 615 625
f 623 625 624
f 624 625 626
f 624 626 618
f 625 615 627
f 625 627 626
f 626 627 628
f 626 628 618
f 627 615 629
f 627 629 628
f 628 629 630
f 628 630 618
f 629 615 631
f 629 631 630
f 630 631 632
f 630 632 618
f 631 615 633
f 631 633 632
f 632 633 634
f 632 634 618
f 633 615 635
f 633 635 634
f 634 635 636
f 634 636 618
f 635 615 637
f 635 637 636
f 636 637 638
f 636 638 618
f 637 615 639
f 637 639 638
f 638 639 640
f 638 640 618
f 639 615 641
f 639 641 640
f 640 641 642
f 640 642 618
f 641 615 643
f 641 643 642
f 642 643 644
f 642 644 618
f 643 615 645
f 643 645 644
f 644 645 646
f 644 646 618
f 645 615 647
f 645 647 646
f 646 647 648
f 646 648 618
f 647 615 649
f 647 649 648
f 648 649 650
f 648 650 618
f 649 615 651
f 649 651 650
f 650 651 652
f 650 652 618
f 651 615 653
f 651 653 652
f 652 653 654
f 652 654 618
f 653 615 655
f 653 655 654
f 654 655 656
f 654 656 618
f 655 615 657
f 655 657 656
f 656 657 658
f 656 658 618
f 657 615 659
f 657 659 658
f 658 659 660
f 658 660 618
f 659 615 661
f 659 661 660
f 660 661 662
f 660 662 618
f 661 615 663
f 661 663 662
f 662 663 664
f 662 664 618
f 663 615 616
f 663 616 664
f 664 616 617
f 664 617 618

o geometry_22
usemtl material_6
v 0.00000000 1.00000000 0.21100000
v 0.05000000 1.00000000 0.21100000
v 0.05000000 1.00000000 0.22300000
v 0.00000000 1.00000000 0.22300000
v 0.04829629 1.01294095 0.21100000
v 0.04829629 1.01294095 0.22300000
v 0.04330127 1.02500000 0.21100000
v 0.04330127 1.02500000 0.22300000
v 0.03535534 1.03535534 0.21100000
v 0.03535534 1.03535534 0.22300000
v 0.02500000 1.04330127 0.21100000
v 0.02500000 1.04330127 0.22300000
v 0.01294095 1.04829629 0.21100000
v 0.01294095 1.04829629 0.22300000
v 0.00000000 1.05000000 0.21100000
v 0.00000000 1.05000000 0.22300000
v -0.01294095 1.04829629 0.21100000
v -0.01294095 1.04829629 0.22300000
v -0.02500000 1.04330127 0.21100000
v -0.02500000 1.04330127 0.22300000
v -0.03535534 1.03535534 0.21100000
v -0.03535534 1.03535534 0.22300000
v -0.04330127 1.02500000 0.21100000
v -0.04330127 1.02500000 0.22300000
v -0.04829629 1.01294095 0.21100000
v -0.04829629 1.01294095 0.22300000
v -0.05000000 1.00000000 0.21100000
v -0.05000000 1.00000000 0.22300000
v -0.04829629 0.98705905 0.21100000
v -0.04829629 0.98705905 0.22300000
v -0.04330127 0.97500000 0.21100000
v -0.04330127 0.97500000 0.22300000
v -0.03535534 0.96464466 0.21100000
v -0.03535534 0.96464466 0.22300000
v -0.02500000 0.95669873 0.21100000
v -0.02500000 0.95669873 0.22300000
v -0.01294095 0.95170371 0.21100000
v -0.01294095 0.95170371 0.22300000
v -0.00000000 0.95000000 0.21100000
v -0.00000000 0.95000000 0.22300000
v 0.01294095 0.95170371 0.21100000
v 0.01294095 0.95170371 0.22300000
v 0.02500000 0.95669873 0.21100000
v 0.02500000 0.95669873 0.22300000
v 0.03535534 0.96464466 0.21100000
v 0.03535534 0.96464466 0.22300000
v 0.04330127 0.97500000 0.21100000
v 0.04330127 0.97500000 0.22300000
v 0.04829629 0.98705905 0.21100000
v 0.04829629 0.98705905 0.22300000
f 666 665 669
f 666 669 667
f 667 669 670
f 667 670 668
f 669 665 671
f 669 671 670
f 670 671 672
f 670 672 668
f 671 665 673
f 671 673 672
f 672 673 674
f 672 674 668
f 673 665 675
f 673 675 674
f 674 675 676
f 674 676 668
f 675 665 677
f 675 677 676
f 676 677 678
f 676 678 668
f 677 665 679
f 677 679 678
f 678 679 680
f 678 680 668
f 679 665 681
f 679 681 680
f 680 681 682
f 680 682 668
f 681 665 683
f 681 683 682
f 682 683 684
f 682 684 668
f 683 665 685
f 683 685 684
f 684 685 686
f 684 686 668
f 685 665 687
f 685 687 686
f 686 687 688
f 686 688 668
f 687 665 689
f 687 689 688
f 688 689 690
f 688 690 668
f 689 665 691
f 689 691 690
f 690 691 692
f 690 692 668
f 691 665 693
f 691 693 692
f 692 693 694
f 692 694 668
f 693 665 695
f 693 695 694
f 694 695 696
f 694 696 668
f 695 665 697
f 695 697 696
f 696 697 698
f 696 698 668
f 697 665 699
f 697 699 698
f 698 699 700
f 698 700 668
f 699 665 701
f 699 701 700
f 700 701 702
f 700 702 668
f 701 665 703
f 701 703 702
f 702 703 704
f 702 704 668
f 703 665 705
f 703 705 704
f 704 705 706
f 704 706 668
f 705 665 707
f 705 707 706
f 706 707 708
f 706 708 668
f 707 665 709
f 707 709 708
f 708 709 710
f 708 710 668
f 709 665 711
f 709 711 710
f 710 711 712
f 710 712 668
f 711 665 713
f 711 713 712
f 712 713 714
f 712 714 668
f 713 665 666
f 713 666 714
f 714 666 667
f 714 667 668

