# https://github.com/mikedh/trimesh
mtllib throne_centerpiece.mtl

o geometry_0
usemtl material_0
v -0.00000000 0.00000000 -0.00000000
v 2.95641450 0.00000000 -1.22458698
v 2.95641450 0.35000000 -1.22458698
v 0.00000000 0.35000000 0.00000000
v 1.22458698 0.00000000 -2.95641450
v 1.22458698 0.35000000 -2.95641450
v -1.22458698 0.00000000 -2.95641450
v -1.22458698 0.35000000 -2.95641450
v -2.95641450 0.00000000 -1.22458698
v -2.95641450 0.35000000 -1.22458698
v -2.95641450 0.00000000 1.22458698
v -2.95641450 0.35000000 1.22458698
v -1.22458698 -0.00000000 2.95641450
v -1.22458698 0.35000000 2.95641450
v 1.22458698 -0.00000000 2.95641450
v 1.22458698 0.35000000 2.95641450
v 2.95641450 -0.00000000 1.22458698
v 2.95641450 0.35000000 1.22458698
f 2 1 5
f 2 5 3
f 3 5 6
f 3 6 4
f 5 1 7
f 5 7 6
f 6 7 8
f 6 8 4
f 7 1 9
f 7 9 8
f 8 9 10
f 8 10 4
f 9 1 11
f 9 11 10
f 10 11 12
f 10 12 4
f 11 1 13
f 11 13 12
f 12 13 14
f 12 14 4
f 13 1 15
f 13 15 14
f 14 15 16
f 14 16 4
f 15 1 17
f 15 17 16
f 16 17 18
f 16 18 4
f 17 1 2
f 17 2 18
f 18 2 3
f 18 3 4

o geometry_1
usemtl material_1
v -0.00000000 0.35000000 -0.00000000
v 2.40208678 0.35000000 -0.99497692
v 2.40208678 0.70000000 -0.99497692
v 0.00000000 0.70000000 0.00000000
v 0.99497692 0.35000000 -2.40208678
v 0.99497692 0.70000000 -2.40208678
v -0.99497692 0.35000000 -2.40208678
v -0.99497692 0.70000000 -2.40208678
v -2.40208678 0.35000000 -0.99497692
v -2.40208678 0.70000000 -0.99497692
v -2.40208678 0.35000000 0.99497692
v -2.40208678 0.70000000 0.99497692
v -0.99497692 0.35000000 2.40208678
v -0.99497692 0.70000000 2.40208678
v 0.99497692 0.35000000 2.40208678
v 0.99497692 0.70000000 2.40208678
v 2.40208678 0.35000000 0.99497692
v 2.40208678 0.70000000 0.99497692
f 20 19 23
f 20 23 21
f 21 23 24
f 21 24 22
f 23 19 25
f 23 25 24
f 24 25 26
f 24 26 22
f 25 19 27
f 25 27 26
f 26 27 28
f 26 28 22
f 27 19 29
f 27 29 28
f 28 29 30
f 28 30 22
f 29 19 31
f 29 31 30
f 30 31 32
f 30 32 22
f 31 19 33
f 31 33 32
f 32 33 34
f 32 34 22
f 33 19 35
f 33 35 34
f 34 35 36
f 34 36 22
f 35 19 20
f 35 20 36
f 36 20 21
f 36 21 22

o geometry_2
usemtl material_0
v -0.00000000 0.70000000 -0.00000000
v 1.84775907 0.70000000 -0.76536686
v 1.84775907 1.05000000 -0.76536686
v 0.00000000 1.05000000 0.00000000
v 0.76536686 0.70000000 -1.84775907
v 0.76536686 1.05000000 -1.84775907
v -0.76536686 0.70000000 -1.84775907
v -0.76536686 1.05000000 -1.84775907
v -1.84775907 0.70000000 -0.76536686
v -1.84775907 1.05000000 -0.76536686
v -1.84775907 0.70000000 0.76536686
v -1.84775907 1.05000000 0.76536686
v -0.76536686 0.70000000 1.84775907
v -0.76536686 1.05000000 1.84775907
v 0.76536686 0.70000000 1.84775907
v 0.76536686 1.05000000 1.84775907
v 1.84775907 0.70000000 0.76536686
v 1.84775907 1.05000000 0.76536686
f 38 37 41
f 38 41 39
f 39 41 42
f 39 42 40
f 41 37 43
f 41 43 42
f 42 43 44
f 42 44 40
f 43 37 45
f 43 45 44
f 44 45 46
f 44 46 40
f 45 37 47
f 45 47 46
f 46 47 48
f 46 48 40
f 47 37 49
f 47 49 48
f 48 49 50
f 48 50 40
f 49 37 51
f 49 51 50
f 50 51 52
f 50 52 40
f 51 37 53
f 51 53 52
f 52 53 54
f 52 54 40
f 53 37 38
f 53 38 54
f 54 38 39
f 54 39 40

o geometry_3
usemtl material_1
v -0.00000000 1.05000000 -0.00000000
v 1.29343135 1.05000000 -0.53575681
v 1.29343135 1.40000000 -0.53575681
v 0.00000000 1.40000000 0.00000000
v 0.53575681 1.05000000 -1.29343135
v 0.53575681 1.40000000 -1.29343135
v -0.53575681 1.05000000 -1.29343135
v -0.53575681 1.40000000 -1.29343135
v -1.29343135 1.05000000 -0.53575681
v -1.29343135 1.40000000 -0.53575681
v -1.29343135 1.05000000 0.53575681
v -1.29343135 1.40000000 0.53575681
v -0.53575681 1.05000000 1.29343135
v -0.53575681 1.40000000 1.29343135
v 0.53575681 1.05000000 1.29343135
v 0.53575681 1.40000000 1.29343135
v 1.29343135 1.05000000 0.53575681
v 1.29343135 1.40000000 0.53575681
f 56 55 59
f 56 59 57
f 57 59 60
f 57 60 58
f 59 55 61
f 59 61 60
f 60 61 62
f 60 62 58
f 61 55 63
f 61 63 62
f 62 63 64
f 62 64 58
f 63 55 65
f 63 65 64
f 64 65 66
f 64 66 58
f 65 55 67
f 65 67 66
f 66 67 68
f 66 68 58
f 67 55 69
f 67 69 68
f 68 69 70
f 68 70 58
f 69 55 71
f 69 71 70
f 70 71 72
f 70 72 58
f 71 55 56
f 71 56 72
f 72 56 57
f 72 57 58

o geometry_4
usemtl material_0
v -0.00000000 1.40000000 -0.00000000
v 0.83149158 1.40000000 -0.34441509
v 0.83149158 1.75000000 -0.34441509
v 0.00000000 1.75000000 0.00000000
v 0.34441509 1.40000000 -0.83149158
v 0.34441509 1.75000000 -0.83149158
v -0.34441509 1.40000000 -0.83149158
v -0.34441509 1.75000000 -0.83149158
v -0.83149158 1.40000000 -0.34441509
v -0.83149158 1.75000000 -0.34441509
v -0.83149158 1.40000000 0.34441509
v -0.83149158 1.75000000 0.34441509
v -0.34441509 1.40000000 0.83149158
v -0.34441509 1.75000000 0.83149158
v 0.34441509 1.40000000 0.83149158
v 0.34441509 1.75000000 0.83149158
v 0.83149158 1.40000000 0.34441509
v 0.83149158 1.75000000 0.34441509
f 74 73 77
f 74 77 75
f 75 77 78
f 75 78 76
f 77 73 79
f 77 79 78
f 78 79 80
f 78 80 76
f 79 73 81
f 79 81 80
f 80 81 82
f 80 82 76
f 81 73 83
f 81 83 82
f 82 83 84
f 82 84 76
f 83 73 85
f 83 85 84
f 84 85 86
f 84 86 76
f 85 73 87
f 85 87 86
f 86 87 88
f 86 88 76
f 87 73 89
f 87 89 88
f 88 89 90
f 88 90 76
f 89 73 74
f 89 74 90
f 90 74 75
f 90 75 76

o geometry_5
usemtl material_2
v -0.50000000 0.00000000 3.20000000
v -0.50000000 0.00000000 3.23000000
v -0.50000000 0.35000000 3.20000000
v -0.50000000 0.35000000 3.23000000
v 0.50000000 0.00000000 3.20000000
v 0.50000000 0.00000000 3.23000000
v 0.50000000 0.35000000 3.20000000
v 0.50000000 0.35000000 3.23000000
f 92 94 91
f 95 92 91
f 91 94 93
f 93 95 91
f 92 98 94
f 96 92 95
f 96 98 92
f 94 98 93
f 97 95 93
f 93 98 97
f 97 96 95
f 98 96 97

o geometry_6
usemtl material_3
v -0.66000000 0.00000000 3.20000000
v -0.66000000 0.00000000 3.23000000
v -0.66000000 0.35000000 3.20000000
v -0.66000000 0.35000000 3.23000000
v -0.50000000 0.00000000 3.20000000
v -0.50000000 0.00000000 3.23000000
v -0.50000000 0.35000000 3.20000000
v -0.50000000 0.35000000 3.23000000
f 100 102 99
f 103 100 99
f 99 102 101
f 101 103 99
f 100 106 102
f 104 100 103
f 104 106 100
f 102 106 101
f 105 103 101
f 101 106 105
f 105 104 103
f 106 104 105

o geometry_7
usemtl material_3
v 0.50000000 0.00000000 3.20000000
v 0.50000000 0.00000000 3.23000000
v 0.50000000 0.35000000 3.20000000
v 0.50000000 0.35000000 3.23000000
v 0.66000000 0.00000000 3.20000000
v 0.66000000 0.00000000 3.23000000
v 0.66000000 0.35000000 3.20000000
v 0.66000000 0.35000000 3.23000000
f 108 110 107
f 111 108 107
f 107 110 109
f 109 111 107
f 108 114 110
f 112 108 111
f 112 114 108
f 110 114 109
f 113 111 109
f 109 114 113
f 113 112 111
f 114 112 113

o geometry_8
usemtl material_2
v -0.50000000 0.35000000 2.60000000
v -0.50000000 0.35000000 3.20000000
v -0.50000000 0.38000000 2.60000000
v -0.50000000 0.38000000 3.20000000
v 0.50000000 0.35000000 2.60000000
v 0.50000000 0.35000000 3.20000000
v 0.50000000 0.38000000 2.60000000
v 0.50000000 0.38000000 3.20000000
f 116 118 115
f 119 116 115
f 115 118 117
f 117 119 115
f 116 122 118
f 120 116 119
f 120 122 116
f 118 122 117
f 121 119 117
f 117 122 121
f 121 120 119
f 122 120 121

o geometry_9
usemtl material_3
v -0.66000000 0.35000000 2.60000000
v -0.66000000 0.35000000 3.20000000
v -0.66000000 0.38000000 2.60000000
v -0.66000000 0.38000000 3.20000000
v -0.50000000 0.35000000 2.60000000
v -0.50000000 0.35000000 3.20000000
v -0.50000000 0.38000000 2.60000000
v -0.50000000 0.38000000 3.20000000
f 124 126 123
f 127 124 123
f 123 126 125
f 125 127 123
f 124 130 126
f 128 124 127
f 128 130 124
f 126 130 125
f 129 127 125
f 125 130 129
f 129 128 127
f 130 128 129

o geometry_10
usemtl material_3
v 0.50000000 0.35000000 2.60000000
v 0.50000000 0.35000000 3.20000000
v 0.50000000 0.38000000 2.60000000
v 0.50000000 0.38000000 3.20000000
v 0.66000000 0.35000000 2.60000000
v 0.66000000 0.35000000 3.20000000
v 0.66000000 0.38000000 2.60000000
v 0.66000000 0.38000000 3.20000000
f 132 134 131
f 135 132 131
f 131 134 133
f 133 135 131
f 132 138 134
f 136 132 135
f 136 138 132
f 134 138 133
f 137 135 133
f 133 138 137
f 137 136 135
f 138 136 137

o geometry_11
usemtl material_4
v -0.50000000 0.35000000 2.60000000
v -0.50000000 0.35000000 2.63000000
v -0.50000000 0.70000000 2.60000000
v -0.50000000 0.70000000 2.63000000
v 0.50000000 0.35000000 2.60000000
v 0.50000000 0.35000000 2.63000000
v 0.50000000 0.70000000 2.60000000
v 0.50000000 0.70000000 2.63000000
f 140 142 139
f 143 140 139
f 139 142 141
f 141 143 139
f 140 146 142
f 144 140 143
f 144 146 140
f 142 146 141
f 145 143 141
f 141 146 145
f 145 144 143
f 146 144 145

o geometry_12
usemtl material_3
v -0.66000000 0.35000000 2.60000000
v -0.66000000 0.35000000 2.63000000
v -0.66000000 0.70000000 2.60000000
v -0.66000000 0.70000000 2.63000000
v -0.50000000 0.35000000 2.60000000
v -0.50000000 0.35000000 2.63000000
v -0.50000000 0.70000000 2.60000000
v -0.50000000 0.70000000 2.63000000
f 148 150 147
f 151 148 147
f 147 150 149
f 149 151 147
f 148 154 150
f 152 148 151
f 152 154 148
f 150 154 149
f 153 151 149
f 149 154 153
f 153 152 151
f 154 152 153

o geometry_13
usemtl material_3
v 0.50000000 0.35000000 2.60000000
v 0.50000000 0.35000000 2.63000000
v 0.50000000 0.70000000 2.60000000
v 0.50000000 0.70000000 2.63000000
v 0.66000000 0.35000000 2.60000000
v 0.66000000 0.35000000 2.63000000
v 0.66000000 0.70000000 2.60000000
v 0.66000000 0.70000000 2.63000000
f 156 158 155
f 159 156 155
f 155 158 157
f 157 159 155
f 156 162 158
f 160 156 159
f 160 162 156
f 158 162 157
f 161 159 157
f 157 162 161
f 161 160 159
f 162 160 161

o geometry_14
usemtl material_4
v -0.50000000 0.70000000 2.00000000
v -0.50000000 0.70000000 2.60000000
v -0.50000000 0.73000000 2.00000000
v -0.50000000 0.73000000 2.60000000
v 0.50000000 0.70000000 2.00000000
v 0.50000000 0.70000000 2.60000000
v 0.50000000 0.73000000 2.00000000
v 0.50000000 0.73000000 2.60000000
f 164 166 163
f 167 164 163
f 163 166 165
f 165 167 163
f 164 170 166
f 168 164 167
f 168 170 164
f 166 170 165
f 169 167 165
f 165 170 169
f 169 168 167
f 170 168 169

o geometry_15
usemtl material_3
v -0.66000000 0.70000000 2.00000000
v -0.66000000 0.70000000 2.60000000
v -0.66000000 0.73000000 2.00000000
v -0.66000000 0.73000000 2.60000000
v -0.50000000 0.70000000 2.00000000
v -0.50000000 0.70000000 2.60000000
v -0.50000000 0.73000000 2.00000000
v -0.50000000 0.73000000 2.60000000
f 172 174 171
f 175 172 171
f 171 174 173
f 173 175 171
f 172 178 174
f 176 172 175
f 176 178 172
f 174 178 173
f 177 175 173
f 173 178 177
f 177 176 175
f 178 176 177

o geometry_16
usemtl material_3
v 0.50000000 0.70000000 2.00000000
v 0.50000000 0.70000000 2.60000000
v 0.50000000 0.73000000 2.00000000
v 0.50000000 0.73000000 2.60000000
v 0.66000000 0.70000000 2.00000000
v 0.66000000 0.70000000 2.60000000
v 0.66000000 0.73000000 2.00000000
v 0.66000000 0.73000000 2.60000000
f 180 182 179
f 183 180 179
f 179 182 181
f 181 183 179
f 180 186 182
f 184 180 183
f 184 186 180
f 182 186 181
f 185 183 181
f 181 186 185
f 185 184 183
f 186 184 185

o geometry_17
usemtl material_2
v -0.50000000 0.70000000 2.00000000
v -0.50000000 0.70000000 2.03000000
v -0.50000000 1.05000000 2.00000000
v -0.50000000 1.05000000 2.03000000
v 0.50000000 0.70000000 2.00000000
v 0.50000000 0.70000000 2.03000000
v 0.50000000 1.05000000 2.00000000
v 0.50000000 1.05000000 2.03000000
f 188 190 187
f 191 188 187
f 187 190 189
f 189 191 187
f 188 194 190
f 192 188 191
f 192 194 188
f 190 194 189
f 193 191 189
f 189 194 193
f 193 192 191
f 194 192 193

o geometry_18
usemtl material_3
v -0.66000000 0.70000000 2.00000000
v -0.66000000 0.70000000 2.03000000
v -0.66000000 1.05000000 2.00000000
v -0.66000000 1.05000000 2.03000000
v -0.50000000 0.70000000 2.00000000
v -0.50000000 0.70000000 2.03000000
v -0.50000000 1.05000000 2.00000000
v -0.50000000 1.05000000 2.03000000
f 196 198 195
f 199 196 195
f 195 198 197
f 197 199 195
f 196 202 198
f 200 196 199
f 200 202 196
f 198 202 197
f 201 199 197
f 197 202 201
f 201 200 199
f 202 200 201

o geometry_19
usemtl material_3
v 0.50000000 0.70000000 2.00000000
v 0.50000000 0.70000000 2.03000000
v 0.50000000 1.05000000 2.00000000
v 0.50000000 1.05000000 2.03000000
v 0.66000000 0.70000000 2.00000000
v 0.66000000 0.70000000 2.03000000
v 0.66000000 1.05000000 2.00000000
v 0.66000000 1.05000000 2.03000000
f 204 206 203
f 207 204 203
f 203 206 205
f 205 207 203
f 204 210 206
f 208 204 207
f 208 210 204
f 206 210 205
f 209 207 205
f 205 210 209
f 209 208 207
f 210 208 209

o geometry_20
usemtl material_2
v -0.50000000 1.05000000 1.40000000
v -0.50000000 1.05000000 2.00000000
v -0.50000000 1.08000000 1.40000000
v -0.50000000 1.08000000 2.00000000
v 0.50000000 1.05000000 1.40000000
v 0.50000000 1.05000000 2.00000000
v 0.50000000 1.08000000 1.40000000
v 0.50000000 1.08000000 2.00000000
f 212 214 211
f 215 212 211
f 211 214 213
f 213 215 211
f 212 218 214
f 216 212 215
f 216 218 212
f 214 218 213
f 217 215 213
f 213 218 217
f 217 216 215
f 218 216 217

o geometry_21
usemtl material_3
v -0.66000000 1.05000000 1.40000000
v -0.66000000 1.05000000 2.00000000
v -0.66000000 1.08000000 1.40000000
v -0.66000000 1.08000000 2.00000000
v -0.50000000 1.05000000 1.40000000
v -0.50000000 1.05000000 2.00000000
v -0.50000000 1.08000000 1.40000000
v -0.50000000 1.08000000 2.00000000
f 220 222 219
f 223 220 219
f 219 222 221
f 221 223 219
f 220 226 222
f 224 220 223
f 224 226 220
f 222 226 221
f 225 223 221
f 221 226 225
f 225 224 223
f 226 224 225

o geometry_22
usemtl material_3
v 0.50000000 1.05000000 1.40000000
v 0.50000000 1.05000000 2.00000000
v 0.50000000 1.08000000 1.40000000
v 0.50000000 1.08000000 2.00000000
v 0.66000000 1.05000000 1.40000000
v 0.66000000 1.05000000 2.00000000
v 0.66000000 1.08000000 1.40000000
v 0.66000000 1.08000000 2.00000000
f 228 230 227
f 231 228 227
f 227 230 229
f 229 231 227
f 228 234 230
f 232 228 231
f 232 234 228
f 230 234 229
f 233 231 229
f 229 234 233
f 233 232 231
f 234 232 233

o geometry_23
usemtl material_4
v -0.50000000 1.05000000 1.40000000
v -0.50000000 1.05000000 1.43000000
v -0.50000000 1.40000000 1.40000000
v -0.50000000 1.40000000 1.43000000
v 0.50000000 1.05000000 1.40000000
v 0.50000000 1.05000000 1.43000000
v 0.50000000 1.40000000 1.40000000
v 0.50000000 1.40000000 1.43000000
f 236 238 235
f 239 236 235
f 235 238 237
f 237 239 235
f 236 242 238
f 240 236 239
f 240 242 236
f 238 242 237
f 241 239 237
f 237 242 241
f 241 240 239
f 242 240 241

o geometry_24
usemtl material_3
v -0.66000000 1.05000000 1.40000000
v -0.66000000 1.05000000 1.43000000
v -0.66000000 1.40000000 1.40000000
v -0.66000000 1.40000000 1.43000000
v -0.50000000 1.05000000 1.40000000
v -0.50000000 1.05000000 1.43000000
v -0.50000000 1.40000000 1.40000000
v -0.50000000 1.40000000 1.43000000
f 244 246 243
f 247 244 243
f 243 246 245
f 245 247 243
f 244 250 246
f 248 244 247
f 248 250 244
f 246 250 245
f 249 247 245
f 245 250 249
f 249 248 247
f 250 248 249

o geometry_25
usemtl material_3
v 0.50000000 1.05000000 1.40000000
v 0.50000000 1.05000000 1.43000000
v 0.50000000 1.40000000 1.40000000
v 0.50000000 1.40000000 1.43000000
v 0.66000000 1.05000000 1.40000000
v 0.66000000 1.05000000 1.43000000
v 0.66000000 1.40000000 1.40000000
v 0.66000000 1.40000000 1.43000000
f 252 254 251
f 255 252 251
f 251 254 253
f 253 255 251
f 252 258 254
f 256 252 255
f 256 258 252
f 254 258 253
f 257 255 253
f 253 258 257
f 257 256 255
f 258 256 257

o geometry_26
usemtl material_4
v -0.50000000 1.40000000 0.90000000
v -0.50000000 1.40000000 1.40000000
v -0.50000000 1.43000000 0.90000000
v -0.50000000 1.43000000 1.40000000
v 0.50000000 1.40000000 0.90000000
v 0.50000000 1.40000000 1.40000000
v 0.50000000 1.43000000 0.90000000
v 0.50000000 1.43000000 1.40000000
f 260 262 259
f 263 260 259
f 259 262 261
f 261 263 259
f 260 266 262
f 264 260 263
f 264 266 260
f 262 266 261
f 265 263 261
f 261 266 265
f 265 264 263
f 266 264 265

o geometry_27
usemtl material_3
v -0.66000000 1.40000000 0.90000000
v -0.66000000 1.40000000 1.40000000
v -0.66000000 1.43000000 0.90000000
v -0.66000000 1.43000000 1.40000000
v -0.50000000 1.40000000 0.90000000
v -0.50000000 1.40000000 1.40000000
v -0.50000000 1.43000000 0.90000000
v -0.50000000 1.43000000 1.40000000
f 268 270 267
f 271 268 267
f 267 270 269
f 269 271 267
f 268 274 270
f 272 268 271
f 272 274 268
f 270 274 269
f 273 271 269
f 269 274 273
f 273 272 271
f 274 272 273

o geometry_28
usemtl material_3
v 0.50000000 1.40000000 0.90000000
v 0.50000000 1.40000000 1.40000000
v 0.50000000 1.43000000 0.90000000
v 0.50000000 1.43000000 1.40000000
v 0.66000000 1.40000000 0.90000000
v 0.66000000 1.40000000 1.40000000
v 0.66000000 1.43000000 0.90000000
v 0.66000000 1.43000000 1.40000000
f 276 278 275
f 279 276 275
f 275 278 277
f 277 279 275
f 276 282 278
f 280 276 279
f 280 282 276
f 278 282 277
f 281 279 277
f 277 282 281
f 281 280 279
f 282 280 281

o geometry_29
usemtl material_2
v -0.50000000 1.40000000 0.90000000
v -0.50000000 1.40000000 0.93000000
v -0.50000000 1.75000000 0.90000000
v -0.50000000 1.75000000 0.93000000
v 0.50000000 1.40000000 0.90000000
v 0.50000000 1.40000000 0.93000000
v 0.50000000 1.75000000 0.90000000
v 0.50000000 1.75000000 0.93000000
f 284 286 283
f 287 284 283
f 283 286 285
f 285 287 283
f 284 290 286
f 288 284 287
f 288 290 284
f 286 290 285
f 289 287 285
f 285 290 289
f 289 288 287
f 290 288 289

o geometry_30
usemtl material_3
v -0.66000000 1.40000000 0.90000000
v -0.66000000 1.40000000 0.93000000
v -0.66000000 1.75000000 0.90000000
v -0.66000000 1.75000000 0.93000000
v -0.50000000 1.40000000 0.90000000
v -0.50000000 1.40000000 0.93000000
v -0.50000000 1.75000000 0.90000000
v -0.50000000 1.75000000 0.93000000
f 292 294 291
f 295 292 291
f 291 294 293
f 293 295 291
f 292 298 294
f 296 292 295
f 296 298 292
f 294 298 293
f 297 295 293
f 293 298 297
f 297 296 295
f 298 296 297

o geometry_31
usemtl material_3
v 0.50000000 1.40000000 0.90000000
v 0.50000000 1.40000000 0.93000000
v 0.50000000 1.75000000 0.90000000
v 0.50000000 1.75000000 0.93000000
v 0.66000000 1.40000000 0.90000000
v 0.66000000 1.40000000 0.93000000
v 0.66000000 1.75000000 0.90000000
v 0.66000000 1.75000000 0.93000000
f 300 302 299
f 303 300 299
f 299 302 301
f 301 303 299
f 300 306 302
f 304 300 303
f 304 306 300
f 302 306 301
f 305 303 301
f 301 306 305
f 305 304 303
f 306 304 305

o geometry_32
usemtl material_2
v -0.50000000 1.75000000 0.31500000
v -0.50000000 1.75000000 0.90000000
v -0.50000000 1.78000000 0.31500000
v -0.50000000 1.78000000 0.90000000
v 0.50000000 1.75000000 0.31500000
v 0.50000000 1.75000000 0.90000000
v 0.50000000 1.78000000 0.31500000
v 0.50000000 1.78000000 0.90000000
f 308 310 307
f 311 308 307
f 307 310 309
f 309 311 307
f 308 314 310
f 312 308 311
f 312 314 308
f 310 314 309
f 313 311 309
f 309 314 313
f 313 312 311
f 314 312 313

o geometry_33
usemtl material_3
v -0.66000000 1.75000000 0.31500000
v -0.66000000 1.75000000 0.90000000
v -0.66000000 1.78000000 0.31500000
v -0.66000000 1.78000000 0.90000000
v -0.50000000 1.75000000 0.31500000
v -0.50000000 1.75000000 0.90000000
v -0.50000000 1.78000000 0.31500000
v -0.50000000 1.78000000 0.90000000
f 316 318 315
f 319 316 315
f 315 318 317
f 317 319 315
f 316 322 318
f 320 316 319
f 320 322 316
f 318 322 317
f 321 319 317
f 317 322 321
f 321 320 319
f 322 320 321

o geometry_34
usemtl material_3
v 0.50000000 1.75000000 0.31500000
v 0.50000000 1.75000000 0.90000000
v 0.50000000 1.78000000 0.31500000
v 0.50000000 1.78000000 0.90000000
v 0.66000000 1.75000000 0.31500000
v 0.66000000 1.75000000 0.90000000
v 0.66000000 1.78000000 0.31500000
v 0.66000000 1.78000000 0.90000000
f 324 326 323
f 327 324 323
f 323 326 325
f 325 327 323
f 324 330 326
f 328 324 327
f 328 330 324
f 326 330 325
f 329 327 325
f 325 330 329
f 329 328 327
f 330 328 329

o geometry_35
usemtl material_0
v -1.15000000 1.40000000 0.55000000
v -0.97000000 1.40000000 0.55000000
v -0.97000000 2.25000000 0.55000000
v -1.15000000 2.25000000 0.55000000
v -1.06000000 1.40000000 0.39411543
v -1.06000000 2.25000000 0.39411543
v -1.24000000 1.40000000 0.39411543
v -1.24000000 2.25000000 0.39411543
v -1.33000000 1.40000000 0.55000000
v -1.33000000 2.25000000 0.55000000
v -1.24000000 1.40000000 0.70588457
v -1.24000000 2.25000000 0.70588457
v -1.06000000 1.40000000 0.70588457
v -1.06000000 2.25000000 0.70588457
f 332 331 335
f 332 335 333
f 333 335 336
f 333 336 334
f 335 331 337
f 335 337 336
f 336 337 338
f 336 338 334
f 337 331 339
f 337 339 338
f 338 339 340
f 338 340 334
f 339 331 341
f 339 341 340
f 340 341 342
f 340 342 334
f 341 331 343
f 341 343 342
f 342 343 344
f 342 344 334
f 343 331 332
f 343 332 344
f 344 332 333
f 344 333 334

o geometry_36
usemtl material_5
v -1.15000000 2.25000000 0.55000000
v -0.85000000 2.25000000 0.55000000
v -0.85000000 2.41000000 0.55000000
v -1.15000000 2.41000000 0.55000000
v -0.93786797 2.25000000 0.33786797
v -0.93786797 2.41000000 0.33786797
v -1.15000000 2.25000000 0.25000000
v -1.15000000 2.41000000 0.25000000
v -1.36213203 2.25000000 0.33786797
v -1.36213203 2.41000000 0.33786797
v -1.45000000 2.25000000 0.55000000
v -1.45000000 2.41000000 0.55000000
v -1.36213203 2.25000000 0.76213203
v -1.36213203 2.41000000 0.76213203
v -1.15000000 2.25000000 0.85000000
v -1.15000000 2.41000000 0.85000000
v -0.93786797 2.25000000 0.76213203
v -0.93786797 2.41000000 0.76213203
f 346 345 349
f 346 349 347
f 347 349 350
f 347 350 348
f 349 345 351
f 349 351 350
f 350 351 352
f 350 352 348
f 351 345 353
f 351 353 352
f 352 353 354
f 352 354 348
f 353 345 355
f 353 355 354
f 354 355 356
f 354 356 348
f 355 345 357
f 355 357 356
f 356 357 358
f 356 358 348
f 357 345 359
f 357 359 358
f 358 359 360
f 358 360 348
f 359 345 361
f 359 361 360
f 360 361 362
f 360 362 348
f 361 345 346
f 361 346 362
f 362 346 347
f 362 347 348

o geometry_37
usemtl material_6
v -1.15000000 2.41000000 0.55000000
v -0.95000000 2.41000000 0.55000000
v -1.15000000 2.83000000 0.55000000
v -1.05000000 2.41000000 0.37679492
v -1.25000000 2.41000000 0.37679492
v -1.35000000 2.41000000 0.55000000
v -1.25000000 2.41000000 0.72320508
v -1.05000000 2.41000000 0.72320508
f 364 363 366
f 364 366 365
f 366 363 367
f 366 367 365
f 367 363 368
f 367 368 365
f 368 363 369
f 368 369 365
f 369 363 370
f 369 370 365
f 370 363 364
f 370 364 365

o geometry_38
usemtl material_7
v -1.15000000 2.46000000 0.55000000
v -1.05000000 2.46000000 0.55000000
v -1.15000000 2.76000000 0.55000000
v -1.10000000 2.46000000 0.46339746
v -1.20000000 2.46000000 0.46339746
v -1.25000000 2.46000000 0.55000000
v -1.20000000 2.46000000 0.63660254
v -1.10000000 2.46000000 0.63660254
f 372 371 374
f 372 374 373
f 374 371 375
f 374 375 373
f 375 371 376
f 375 376 373
f 376 371 377
f 376 377 373
f 377 371 378
f 377 378 373
f 378 371 372
f 378 372 373

o geometry_39
usemtl material_0
v 1.15000000 1.40000000 0.55000000
v 1.33000000 1.40000000 0.55000000
v 1.33000000 2.25000000 0.55000000
v 1.15000000 2.25000000 0.55000000
v 1.24000000 1.40000000 0.39411543
v 1.24000000 2.25000000 0.39411543
v 1.06000000 1.40000000 0.39411543
v 1.06000000 2.25000000 0.39411543
v 0.97000000 1.40000000 0.55000000
v 0.97000000 2.25000000 0.55000000
v 1.06000000 1.40000000 0.70588457
v 1.06000000 2.25000000 0.70588457
v 1.24000000 1.40000000 0.70588457
v 1.24000000 2.25000000 0.70588457
f 380 379 383
f 380 383 381
f 381 383 384
f 381 384 382
f 383 379 385
f 383 385 384
f 384 385 386
f 384 386 382
f 385 379 387
f 385 387 386
f 386 387 388
f 386 388 382
f 387 379 389
f 387 389 388
f 388 389 390
f 388 390 382
f 389 379 391
f 389 391 390
f 390 391 392
f 390 392 382
f 391 379 380
f 391 380 392
f 392 380 381
f 392 381 382

o geometry_40
usemtl material_5
v 1.15000000 2.25000000 0.55000000
v 1.45000000 2.25000000 0.55000000
v 1.45000000 2.41000000 0.55000000
v 1.15000000 2.41000000 0.55000000
v 1.36213203 2.25000000 0.33786797
v 1.36213203 2.41000000 0.33786797
v 1.15000000 2.25000000 0.25000000
v 1.15000000 2.41000000 0.25000000
v 0.93786797 2.25000000 0.33786797
v 0.93786797 2.41000000 0.33786797
v 0.85000000 2.25000000 0.55000000
v 0.85000000 2.41000000 0.55000000
v 0.93786797 2.25000000 0.76213203
v 0.93786797 2.41000000 0.76213203
v 1.15000000 2.25000000 0.85000000
v 1.15000000 2.41000000 0.85000000
v 1.36213203 2.25000000 0.76213203
v 1.36213203 2.41000000 0.76213203
f 394 393 397
f 394 397 395
f 395 397 398
f 395 398 396
f 397 393 399
f 397 399 398
f 398 399 400
f 398 400 396
f 399 393 401
f 399 401 400
f 400 401 402
f 400 402 396
f 401 393 403
f 401 403 402
f 402 403 404
f 402 404 396
f 403 393 405
f 403 405 404
f 404 405 406
f 404 406 396
f 405 393 407
f 405 407 406
f 406 407 408
f 406 408 396
f 407 393 409
f 407 409 408
f 408 409 410
f 408 410 396
f 409 393 394
f 409 394 410
f 410 394 395
f 410 395 396

o geometry_41
usemtl material_6
v 1.15000000 2.41000000 0.55000000
v 1.35000000 2.41000000 0.55000000
v 1.15000000 2.83000000 0.55000000
v 1.25000000 2.41000000 0.37679492
v 1.05000000 2.41000000 0.37679492
v 0.95000000 2.41000000 0.55000000
v 1.05000000 2.41000000 0.72320508
v 1.25000000 2.41000000 0.72320508
f 412 411 414
f 412 414 413
f 414 411 415
f 414 415 413
f 415 411 416
f 415 416 413
f 416 411 417
f 416 417 413
f 417 411 418
f 417 418 413
f 418 411 412
f 418 412 413

o geometry_42
usemtl material_7
v 1.15000000 2.46000000 0.55000000
v 1.25000000 2.46000000 0.55000000
v 1.15000000 2.76000000 0.55000000
v 1.20000000 2.46000000 0.46339746
v 1.10000000 2.46000000 0.46339746
v 1.05000000 2.46000000 0.55000000
v 1.10000000 2.46000000 0.63660254
v 1.20000000 2.46000000 0.63660254
f 420 419 422
f 420 422 421
f 422 419 423
f 422 423 421
f 423 419 424
f 423 424 421
f 424 419 425
f 424 425 421
f 425 419 426
f 425 426 421
f 426 419 420
f 426 420 421

o geometry_43
usemtl material_2
v -0.50000000 1.75000000 -0.57500000
v -0.50000000 1.75000000 0.27500000
v -0.50000000 2.17000000 -0.57500000
v -0.50000000 2.17000000 0.27500000
v 0.50000000 1.75000000 -0.57500000
v 0.50000000 1.75000000 0.27500000
v 0.50000000 2.17000000 -0.57500000
v 0.50000000 2.17000000 0.27500000
f 428 430 427
f 431 428 427
f 427 430 429
f 429 431 427
f 428 434 430
f 432 428 431
f 432 434 428
f 430 434 429
f 433 431 429
f 429 434 433
f 433 432 431
f 434 432 433

o geometry_44
usemtl material_4
v -0.50000000 2.17000000 -0.57000000
v -0.50000000 2.17000000 -0.41000000
v -0.50000000 3.52000000 -0.57000000
v -0.50000000 3.52000000 -0.41000000
v 0.50000000 2.17000000 -0.57000000
v 0.50000000 2.17000000 -0.41000000
v 0.50000000 3.52000000 -0.57000000
v 0.50000000 3.52000000 -0.41000000
f 436 438 435
f 439 436 435
f 435 438 437
f 437 439 435
f 436 442 438
f 440 436 439
f 440 442 436
f 438 442 437
f 441 439 437
f 437 442 441
f 441 440 439
f 442 440 441

o geometry_45
usemtl material_5
v -0.60000000 2.17000000 -0.57500000
v -0.60000000 2.17000000 0.27500000
v -0.60000000 2.47000000 -0.57500000
v -0.60000000 2.47000000 0.27500000
v -0.46000000 2.17000000 -0.57500000
v -0.46000000 2.17000000 0.27500000
v -0.46000000 2.47000000 -0.57500000
v -0.46000000 2.47000000 0.27500000
f 444 446 443
f 447 444 443
f 443 446 445
f 445 447 443
f 444 450 446
f 448 444 447
f 448 450 444
f 446 450 445
f 449 447 445
f 445 450 449
f 449 448 447
f 450 448 449

o geometry_46
usemtl material_5
v 0.46000000 2.17000000 -0.57500000
v 0.46000000 2.17000000 0.27500000
v 0.46000000 2.47000000 -0.57500000
v 0.46000000 2.47000000 0.27500000
v 0.60000000 2.17000000 -0.57500000
v 0.60000000 2.17000000 0.27500000
v 0.60000000 2.47000000 -0.57500000
v 0.60000000 2.47000000 0.27500000
f 452 454 451
f 455 452 451
f 451 454 453
f 453 455 451
f 452 458 454
f 456 452 455
f 456 458 452
f 454 458 453
f 457 455 453
f 453 458 457
f 457 456 455
f 458 456 457

o geometry_47
usemtl material_8
v 0.95000000 1.75000000 -1.10000000
v 0.95000000 2.85000000 -1.10000000
v 0.93830392 2.99861274 -1.10000000
v 0.90350369 3.14356614 -1.10000000
v 0.84645620 3.28129097 -1.10000000
v 0.76856614 3.40839599 -1.10000000
v 0.67175144 3.52175144 -1.10000000
v 0.55839599 3.61856614 -1.10000000
v 0.43129097 3.69645620 -1.10000000
v 0.29356614 3.75350369 -1.10000000
v 0.14861274 3.78830392 -1.10000000
v 0.00000000 3.80000000 -1.10000000
v -0.14861274 3.78830392 -1.10000000
v -0.29356614 3.75350369 -1.10000000
v -0.43129097 3.69645620 -1.10000000
v -0.55839599 3.61856614 -1.10000000
v -0.67175144 3.52175144 -1.10000000
v -0.76856614 3.40839599 -1.10000000
v -0.84645620 3.28129097 -1.10000000
v -0.90350369 3.14356614 -1.10000000
v -0.93830392 2.99861274 -1.10000000
v -0.95000000 2.85000000 -1.10000000
v -0.95000000 1.75000000 -1.10000000
v -0.77500000 1.75000000 -1.10000000
v -0.77500000 2.80000000 -1.10000000
v -0.76545846 2.92123671 -1.10000000
v -0.73706880 3.03948817 -1.10000000
v -0.69053006 3.15184264 -1.10000000
v -0.62698817 3.25553357 -1.10000000
v -0.54800776 3.34800776 -1.10000000
v -0.45553357 3.42698817 -1.10000000
v -0.35184264 3.49053006 -1.10000000
v -0.23948817 3.53706880 -1.10000000
v -0.12123671 3.56545846 -1.10000000
v 0.00000000 3.57500000 -1.10000000
v 0.12123671 3.56545846 -1.10000000
v 0.23948817 3.53706880 -1.10000000
v 0.35184264 3.49053006 -1.10000000
v 0.45553357 3.42698817 -1.10000000
v 0.54800776 3.34800776 -1.10000000
v 0.62698817 3.25553357 -1.10000000
v 0.69053006 3.15184264 -1.10000000
v 0.73706880 3.03948817 -1.10000000
v 0.76545846 2.92123671 -1.10000000
v 0.77500000 2.80000000 -1.10000000
v 0.77500000 1.75000000 -1.10000000
v 0.95000000 1.75000000 -0.80000000
v 0.95000000 2.85000000 -0.80000000
v 0.93830392 2.99861274 -0.80000000
v 0.90350369 3.14356614 -0.80000000
v 0.84645620 3.28129097 -0.80000000
v 0.76856614 3.40839599 -0.80000000
v 0.67175144 3.52175144 -0.80000000
v 0.55839599 3.61856614 -0.80000000
v 0.43129097 3.69645620 -0.80000000
v 0.29356614 3.75350369 -0.80000000
v 0.14861274 3.78830392 -0.80000000
v 0.00000000 3.80000000 -0.80000000
v -0.14861274 3.78830392 -0.80000000
v -0.29356614 3.75350369 -0.80000000
v -0.43129097 3.69645620 -0.80000000
v -0.55839599 3.61856614 -0.80000000
v -0.67175144 3.52175144 -0.80000000
v -0.76856614 3.40839599 -0.80000000
v -0.84645620 3.28129097 -0.80000000
v -0.90350369 3.14356614 -0.80000000
v -0.93830392 2.99861274 -0.80000000
v -0.95000000 2.85000000 -0.80000000
v -0.95000000 1.75000000 -0.80000000
v -0.77500000 1.75000000 -0.80000000
v -0.77500000 2.80000000 -0.80000000
v -0.76545846 2.92123671 -0.80000000
v -0.73706880 3.03948817 -0.80000000
v -0.69053006 3.15184264 -0.80000000
v -0.62698817 3.25553357 -0.80000000
v -0.54800776 3.34800776 -0.80000000
v -0.45553357 3.42698817 -0.80000000
v -0.35184264 3.49053006 -0.80000000
v -0.23948817 3.53706880 -0.80000000
v -0.12123671 3.56545846 -0.80000000
v 0.00000000 3.57500000 -0.80000000
v 0.12123671 3.56545846 -0.80000000
v 0.23948817 3.53706880 -0.80000000
v 0.35184264 3.49053006 -0.80000000
v 0.45553357 3.42698817 -0.80000000
v 0.54800776 3.34800776 -0.80000000
v 0.62698817 3.25553357 -0.80000000
v 0.69053006 3.15184264 -0.80000000
v 0.73706880 3.03948817 -0.80000000
v 0.76545846 2.92123671 -0.80000000
v 0.77500000 2.80000000 -0.80000000
v 0.77500000 1.75000000 -0.80000000
f 483 482 481
f 459 504 503
f 461 460 459
f 463 462 461
f 465 464 463
f 467 466 465
f 469 468 467
f 471 470 469
f 473 472 471
f 475 474 473
f 477 476 475
f 479 478 477
f 481 480 479
f 484 483 481
f 459 503 502
f 463 461 459
f 467 465 463
f 471 469 467
f 475 473 471
f 479 477 475
f 484 481 479
f 463 459 502
f 471 467 463
f 479 475 471
f 485 484 479
f 463 502 501
f 486 485 479
f 463 501 500
f 487 486 479
f 463 500 499
f 488 487 479
f 463 499 498
f 488 479 471
f 463 498 497
f 489 488 471
f 463 497 496
f 490 489 471
f 471 463 496
f 491 490 471
f 471 496 495
f 492 491 471
f 471 495 494
f 493 492 471
f 471 494 493
f 527 528 529
f 549 550 505
f 505 506 507
f 507 508 509
f 509 510 511
f 511 512 513
f 513 514 515
f 515 516 517
f 517 518 519
f 519 520 521
f 521 522 523
f 523 524 525
f 525 526 527
f 527 529 530
f 548 549 505
f 505 507 509
f 509 511 513
f 513 515 517
f 517 519 521
f 521 523 525
f 525 527 530
f 548 505 509
f 509 513 517
f 517 521 525
f 525 530 531
f 547 548 509
f 525 531 532
f 546 547 509
f 525 532 533
f 545 546 509
f 525 533 534
f 544 545 509
f 517 525 534
f 543 544 509
f 517 534 535
f 542 543 509
f 517 535 536
f 542 509 517
f 517 536 537
f 541 542 517
f 517 537 538
f 540 541 517
f 517 538 539
f 539 540 517
f 506 505 460
f 460 505 459
f 507 506 461
f 461 506 460
f 508 507 462
f 462 507 461
f 509 508 463
f 463 508 462
f 510 509 464
f 464 509 463
f 511 510 465
f 465 510 464
f 512 511 466
f 466 511 465
f 513 512 467
f 467 512 466
f 514 513 468
f 468 513 467
f 515 514 469
f 469 514 468
f 516 515 470
f 470 515 469
f 517 516 471
f 471 516 470
f 518 517 472
f 472 517 471
f 519 518 473
f 473 518 472
f 520 519 474
f 474 519 473
f 521 520 475
f 475 520 474
f 522 521 476
f 476 521 475
f 523 522 477
f 477 522 476
f 524 523 478
f 478 523 477
f 525 524 479
f 479 524 478
f 526 525 480
f 480 525 479
f 527 526 481
f 481 526 480
f 528 527 482
f 482 527 481
f 529 528 483
f 483 528 482
f 530 529 484
f 484 529 483
f 531 530 485
f 485 530 484
f 532 531 486
f 486 531 485
f 533 532 487
f 487 532 486
f 534 533 488
f 488 533 487
f 535 534 489
f 489 534 488
f 536 535 490
f 490 535 489
f 537 536 491
f 491 536 490
f 538 537 492
f 492 537 491
f 539 538 493
f 493 538 492
f 540 539 494
f 494 539 493
f 541 540 495
f 495 540 494
f 542 541 496
f 496 541 495
f 543 542 497
f 497 542 496
f 544 543 498
f 498 543 497
f 545 544 499
f 499 544 498
f 546 545 500
f 500 545 499
f 547 546 501
f 501 546 500
f 548 547 502
f 502 547 501
f 549 548 503
f 503 548 502
f 505 550 459
f 459 550 504
f 550 549 504
f 504 549 503

o geometry_48
usemtl material_3
v -0.32000000 3.30000000 -1.00000000
v -0.20531871 3.21969930 -1.00000000
v -0.00453296 3.75053362 -1.00000000
v -0.26265936 3.25984965 -1.12124356
v -0.37734064 3.34015035 -1.12124356
v -0.43468129 3.38030070 -1.00000000
v -0.37734064 3.34015035 -0.87875644
v -0.26265936 3.25984965 -0.87875644
f 552 551 554
f 552 554 553
f 554 551 555
f 554 555 553
f 555 551 556
f 555 556 553
f 556 551 557
f 556 557 553
f 557 551 558
f 557 558 553
f 558 551 552
f 558 552 553

o geometry_49
usemtl material_3
v 0.32000000 3.30000000 -1.00000000
v 0.43468129 3.38030070 -1.00000000
v 0.00453296 3.75053362 -1.00000000
v 0.37734064 3.34015035 -1.12124356
v 0.26265936 3.25984965 -1.12124356
v 0.20531871 3.21969930 -1.00000000
v 0.26265936 3.25984965 -0.87875644
v 0.37734064 3.34015035 -0.87875644
f 560 559 562
f 560 562 561
f 562 559 563
f 562 563 561
f 563 559 564
f 563 564 561
f 564 559 565
f 564 565 561
f 565 559 566
f 565 566 561
f 566 559 560
f 566 560 561

o geometry_50
usemtl material_3
v -0.17874858 3.36608357 -1.00000000
v 0.17874858 3.36608357 -1.00000000
v -0.17874858 2.83391643 -1.00000000
v 0.17874858 2.83391643 -1.00000000
v 0.00000000 2.93555131 -0.76862298
v 0.00000000 3.26444869 -0.76862298
v 0.00000000 2.93555131 -1.23137702
v 0.00000000 3.26444869 -1.23137702
v 0.28922127 3.10000000 -1.14299886
v 0.28922127 3.10000000 -0.85700114
v -0.28922127 3.10000000 -1.14299886
v -0.28922127 3.10000000 -0.85700114
v 0.00000000 3.41280000 -1.00000000
v 0.00000000 2.78720000 -1.00000000
v -0.10506578 2.84693948 -0.86400000
v 0.10506578 2.84693948 -0.86400000
v -0.10506578 3.35306052 -0.86400000
v 0.10506578 3.35306052 -0.86400000
v 0.00000000 3.10000000 -0.72800000
v -0.10506578 2.84693948 -1.13600000
v 0.10506578 2.84693948 -1.13600000
v -0.10506578 3.35306052 -1.13600000
v 0.10506578 3.35306052 -1.13600000
v 0.00000000 3.10000000 -1.27200000
v 0.27506578 3.25640000 -1.08405262
v 0.27506578 2.94360000 -1.08405262
v 0.17000000 3.00333948 -1.22005262
v 0.17000000 3.19666052 -1.22005262
v 0.27506578 3.25640000 -0.91594738
v 0.27506578 2.94360000 -0.91594738
v 0.17000000 3.00333948 -0.77994738
v 0.17000000 3.19666052 -0.77994738
v 0.34000000 3.10000000 -1.00000000
v -0.27506578 3.25640000 -1.08405262
v -0.27506578 2.94360000 -1.08405262
v -0.17000000 3.00333948 -1.22005262
v -0.17000000 3.19666052 -1.22005262
v -0.27506578 3.25640000 -0.91594738
v -0.27506578 2.94360000 -0.91594738
v -0.17000000 3.00333948 -0.77994738
v -0.17000000 3.19666052 -0.77994738
v -0.34000000 3.10000000 -1.00000000
v -0.09291062 3.40089432 -1.00000000
v 0.09291062 3.40089432 -1.00000000
v -0.09291062 2.79910568 -1.00000000
v 0.09291062 2.79910568 -1.00000000
v -0.14752211 2.83015730 -0.92930940
v -0.05461149 2.88298547 -0.80904337
v -0.05523635 2.80250952 -0.92850057
v 0.14752211 2.83015730 -0.92930940
v 0.05461149 2.88298547 -0.80904337
v 0.05523635 2.80250952 -0.92850057
v 0.00000000 2.83391643 -0.85700114
v -0.14752211 3.36984270 -0.92930940
v -0.05461149 3.31701453 -0.80904337
v -0.05523635 3.39749048 -0.92850057
v 0.14752211 3.36984270 -0.92930940
v 0.05461149 3.31701453 -0.80904337
v 0.05523635 3.39749048 -0.92850057
v 0.00000000 3.36608357 -0.85700114
v 0.00000000 3.01452223 -0.73835277
v 0.00000000 3.18547777 -0.73835277
v -0.14752211 2.83015730 -1.07069060
v -0.05461149 2.88298547 -1.19095663
v -0.05523635 2.80250952 -1.07149943
v 0.14752211 2.83015730 -1.07069060
v 0.05461149 2.88298547 -1.19095663
v 0.05523635 2.80250952 -1.07149943
v 0.00000000 2.83391643 -1.14299886
v -0.14752211 3.36984270 -1.07069060
v -0.05461149 3.31701453 -1.19095663
v -0.05523635 3.39749048 -1.07149943
v 0.14752211 3.36984270 -1.07069060
v 0.05461149 3.31701453 -1.19095663
v 0.05523635 3.39749048 -1.07149943
v 0.00000000 3.36608357 -1.14299886
v 0.00000000 3.01452223 -1.26164723
v 0.00000000 3.18547777 -1.26164723
v 0.23588536 3.31960013 -1.04368919
v 0.29330728 3.18129419 -1.11801769
v 0.19984699 3.31526613 -1.11568851
v 0.23588536 2.88039987 -1.04368919
v 0.29330728 3.01870581 -1.11801769
v 0.19984699 2.88473387 -1.11568851
v 0.08836325 2.96427966 -1.23464583
v 0.23869579 3.04975743 -1.18870829
v 0.14461064 2.91614077 -1.18718794
v 0.08937429 3.04918256 -1.25868737
v 0.23398493 2.96695821 -1.15987759
v 0.08836325 3.23572034 -1.23464583
v 0.23869579 3.15024257 -1.18870829
v 0.14461064 3.28385923 -1.18718794
v 0.08937429 3.15081744 -1.25868737
v 0.23398493 3.23304179 -1.15987759
v 0.17874858 3.10000000 -1.23137702
v 0.23588536 3.31960013 -0.95631081
v 0.29330728 3.18129419 -0.88198231
v 0.19984699 3.31526613 -0.88431149
v 0.28922127 3.26444869 -1.00000000
v 0.23588536 2.88039987 -0.95631081
v 0.29330728 3.01870581 -0.88198231
v 0.19984699 2.88473387 -0.88431149
v 0.28922127 2.93555131 -1.00000000
v 0.08836325 2.96427966 -0.76535417
v 0.23869579 3.04975743 -0.81129171
v 0.14461064 2.91614077 -0.81281206
v 0.08937429 3.04918256 -0.74131263
v 0.23398493 2.96695821 -0.84012241
v 0.08836325 3.23572034 -0.76535417
v 0.23869579 3.15024257 -0.81129171
v 0.14461064 3.28385923 -0.81281206
v 0.08937429 3.15081744 -0.74131263
v 0.23398493 3.23304179 -0.84012241
v 0.17874858 3.10000000 -0.76862298
v 0.32705904 3.10000000 -1.07432850
v 0.32705904 3.10000000 -0.92567150
v 0.32335922 3.18222435 -1.04418908
v 0.32335922 3.01777565 -1.04418908
v 0.32335922 3.18222435 -0.95581092
v 0.32335922 3.01777565 -0.95581092
v -0.23588536 3.31960013 -1.04368919
v -0.29330728 3.18129419 -1.11801769
v -0.19984699 3.31526613 -1.11568851
v -0.23588536 2.88039987 -1.04368919
v -0.29330728 3.01870581 -1.11801769
v -0.19984699 2.88473387 -1.11568851
v -0.08836325 2.96427966 -1.23464583
v -0.23869579 3.04975743 -1.18870829
v -0.14461064 2.91614077 -1.18718794
v -0.08937429 3.04918256 -1.25868737
v -0.23398493 2.96695821 -1.15987759
v -0.08836325 3.23572034 -1.23464583
v -0.23869579 3.15024257 -1.18870829
v -0.14461064 3.28385923 -1.18718794
v -0.08937429 3.15081744 -1.25868737
v -0.23398493 3.23304179 -1.15987759
v -0.17874858 3.10000000 -1.23137702
v -0.23588536 3.31960013 -0.95631081
v -0.29330728 3.18129419 -0.88198231
v -0.19984699 3.31526613 -0.88431149
v -0.28922127 3.26444869 -1.00000000
v -0.23588536 2.88039987 -0.95631081
v -0.29330728 3.01870581 -0.88198231
v -0.19984699 2.88473387 -0.88431149
v -0.28922127 2.93555131 -1.00000000
v -0.08836325 2.96427966 -0.76535417
v -0.23869579 3.04975743 -0.81129171
v -0.14461064 2.91614077 -0.81281206
v -0.08937429 3.04918256 -0.74131263
v -0.23398493 2.96695821 -0.84012241
v -0.08836325 3.23572034 -0.76535417
v -0.23869579 3.15024257 -0.81129171
v -0.14461064 3.28385923 -0.81281206
v -0.08937429 3.15081744 -0.74131263
v -0.23398493 3.23304179 -0.84012241
v -0.17874858 3.10000000 -0.76862298
v -0.32705904 3.10000000 -1.07432850
v -0.32705904 3.10000000 -0.92567150
v -0.32335922 3.18222435 -1.04418908
v -0.32335922 3.01777565 -1.04418908
v -0.32335922 3.18222435 -0.95581092
v -0.32335922 3.01777565 -0.95581092
f 567 704 620
f 704 604 706
f 620 706 583
f 704 706 620
f 604 705 721
f 705 578 718
f 721 718 607
f 705 718 721
f 583 719 621
f 719 607 717
f 621 717 572
f 719 717 621
f 604 721 706
f 721 607 719
f 706 719 583
f 721 719 706
f 567 620 609
f 620 583 622
f 609 622 579
f 620 622 609
f 583 621 626
f 621 572 624
f 626 624 584
f 621 624 626
f 579 625 610
f 625 584 623
f 610 623 568
f 625 623 610
f 583 626 622
f 626 584 625
f 622 625 579
f 626 625 622
f 567 609 636
f 609 579 638
f 636 638 588
f 609 638 636
f 579 610 641
f 610 568 639
f 641 639 589
f 610 639 641
f 588 642 637
f 642 589 640
f 637 640 574
f 642 640 637
f 579 641 638
f 641 589 642
f 638 642 588
f 641 642 638
f 567 636 687
f 636 588 689
f 687 689 600
f 636 689 687
f 588 637 700
f 637 574 698
f 700 698 603
f 637 698 700
f 600 702 688
f 702 603 699
f 688 699 577
f 702 699 688
f 588 700 689
f 700 603 702
f 689 702 600
f 700 702 689
f 567 687 704
f 687 600 707
f 704 707 604
f 687 707 704
f 600 688 725
f 688 577 723
f 725 723 608
f 688 723 725
f 604 727 705
f 727 608 724
f 705 724 578
f 727 724 705
f 600 725 707
f 725 608 727
f 707 727 604
f 725 727 707
f 568 623 662
f 623 584 664
f 662 664 595
f 623 664 662
f 584 624 677
f 624 572 675
f 677 675 598
f 624 675 677
f 595 679 663
f 679 598 676
f 663 676 576
f 679 676 663
f 584 677 664
f 677 598 679
f 664 679 595
f 677 679 664
f 572 717 628
f 717 607 720
f 628 720 585
f 717 720 628
f 607 718 722
f 718 578 713
f 722 713 606
f 718 713 722
f 585 715 627
f 715 606 712
f 627 712 571
f 715 712 627
f 607 722 720
f 722 606 715
f 720 715 585
f 722 715 720
f 578 724 709
f 724 608 728
f 709 728 605
f 724 728 709
f 608 723 726
f 723 577 691
f 726 691 601
f 723 691 726
f 605 711 708
f 711 601 690
f 708 690 569
f 711 690 708
f 608 726 728
f 726 601 711
f 728 711 605
f 726 711 728
f 577 699 694
f 699 603 703
f 694 703 602
f 699 703 694
f 603 698 701
f 698 574 644
f 701 644 590
f 698 644 701
f 602 696 693
f 696 590 643
f 693 643 573
f 696 643 693
f 603 701 703
f 701 590 696
f 703 696 602
f 701 696 703
f 574 640 656
f 640 589 658
f 656 658 594
f 640 658 656
f 589 639 647
f 639 568 645
f 647 645 591
f 639 645 647
f 594 660 657
f 660 591 646
f 657 646 575
f 660 646 657
f 589 647 658
f 647 591 660
f 658 660 594
f 647 660 658
f 570 666 616
f 666 596 668
f 616 668 582
f 666 668 616
f 596 667 674
f 667 576 671
f 674 671 597
f 667 671 674
f 582 672 617
f 672 597 670
f 617 670 571
f 672 670 617
f 596 674 668
f 674 597 672
f 668 672 582
f 674 672 668
f 570 616 612
f 616 582 618
f 612 618 580
f 616 618 612
f 582 617 619
f 617 571 614
f 619 614 581
f 617 614 619
f 580 615 611
f 615 581 613
f 611 613 569
f 615 613 611
f 582 619 618
f 619 581 615
f 618 615 580
f 619 615 618
f 570 612 632
f 612 580 634
f 632 634 587
f 612 634 632
f 580 611 631
f 611 569 629
f 631 629 586
f 611 629 631
f 587 635 633
f 635 586 630
f 633 630 573
f 635 630 633
f 580 631 634
f 631 586 635
f 634 635 587
f 631 635 634
f 570 632 648
f 632 587 650
f 648 650 592
f 632 650 648
f 587 633 653
f 633 573 651
f 653 651 593
f 633 651 653
f 592 655 649
f 655 593 652
f 649 652 575
f 655 652 649
f 587 653 650
f 653 593 655
f 650 655 592
f 653 655 650
f 570 648 666
f 648 592 669
f 666 669 596
f 648 669 666
f 592 649 684
f 649 575 681
f 684 681 599
f 649 681 684
f 596 686 667
f 686 599 682
f 667 682 576
f 686 682 667
f 592 684 669
f 684 599 686
f 669 686 596
f 684 686 669
f 571 670 627
f 670 597 673
f 627 673 585
f 670 673 627
f 597 671 680
f 671 576 676
f 680 676 598
f 671 676 680
f 585 678 628
f 678 598 675
f 628 675 572
f 678 675 628
f 597 680 673
f 680 598 678
f 673 678 585
f 680 678 673
f 569 613 708
f 613 581 710
f 708 710 605
f 613 710 708
f 581 614 714
f 614 571 712
f 714 712 606
f 614 712 714
f 605 716 709
f 716 606 713
f 709 713 578
f 716 713 709
f 581 714 710
f 714 606 716
f 710 716 605
f 714 716 710
f 573 630 693
f 630 586 695
f 693 695 602
f 630 695 693
f 586 629 692
f 629 569 690
f 692 690 601
f 629 690 692
f 602 697 694
f 697 601 691
f 694 691 577
f 697 691 694
f 586 692 695
f 692 601 697
f 695 697 602
f 692 697 695
f 575 652 657
f 652 593 661
f 657 661 594
f 652 661 657
f 593 651 654
f 651 573 643
f 654 643 590
f 651 643 654
f 594 659 656
f 659 590 644
f 656 644 574
f 659 644 656
f 593 654 661
f 654 590 659
f 661 659 594
f 654 659 661
f 576 682 663
f 682 599 685
f 663 685 595
f 682 685 663
f 599 681 683
f 681 575 646
f 683 646 591
f 681 646 683
f 595 665 662
f 665 591 645
f 662 645 568
f 665 645 662
f 599 683 685
f 683 591 665
f 685 665 595
f 683 665 685

o geometry_51
usemtl material_9
v -0.16942983 3.18379881 -0.73000000
v -0.09057017 3.18379881 -0.73000000
v -0.16942983 3.05620119 -0.73000000
v -0.09057017 3.05620119 -0.73000000
v -0.13000000 3.08057017 -0.66620119
v -0.13000000 3.15942983 -0.66620119
v -0.13000000 3.08057017 -0.79379881
v -0.13000000 3.15942983 -0.79379881
v -0.06620119 3.12000000 -0.76942983
v -0.06620119 3.12000000 -0.69057017
v -0.19379881 3.12000000 -0.76942983
v -0.19379881 3.12000000 -0.69057017
v -0.13000000 3.19500000 -0.73000000
v -0.13000000 3.04500000 -0.73000000
v -0.15317627 3.05932373 -0.69250000
v -0.10682373 3.05932373 -0.69250000
v -0.15317627 3.18067627 -0.69250000
v -0.10682373 3.18067627 -0.69250000
v -0.13000000 3.12000000 -0.65500000
v -0.15317627 3.05932373 -0.76750000
v -0.10682373 3.05932373 -0.76750000
v -0.15317627 3.18067627 -0.76750000
v -0.10682373 3.18067627 -0.76750000
v -0.13000000 3.12000000 -0.80500000
v -0.06932373 3.15750000 -0.75317627
v -0.06932373 3.08250000 -0.75317627
v -0.09250000 3.09682373 -0.79067627
v -0.09250000 3.14317627 -0.79067627
v -0.06932373 3.15750000 -0.70682373
v -0.06932373 3.08250000 -0.70682373
v -0.09250000 3.09682373 -0.66932373
v -0.09250000 3.14317627 -0.66932373
v -0.05500000 3.12000000 -0.73000000
v -0.19067627 3.15750000 -0.75317627
v -0.19067627 3.08250000 -0.75317627
v -0.16750000 3.09682373 -0.79067627
v -0.16750000 3.14317627 -0.79067627
v -0.19067627 3.15750000 -0.70682373
v -0.19067627 3.08250000 -0.70682373
v -0.16750000 3.09682373 -0.66932373
v -0.16750000 3.14317627 -0.66932373
v -0.20500000 3.12000000 -0.73000000
f 729 766 745
f 766 740 769
f 745 769 734
f 766 769 745
f 729 745 741
f 745 734 746
f 741 746 730
f 745 746 741
f 729 741 750
f 741 730 751
f 750 751 736
f 741 751 750
f 729 750 762
f 750 736 765
f 762 765 739
f 750 765 762
f 729 762 766
f 762 739 770
f 766 770 740
f 762 770 766
f 730 746 757
f 746 734 760
f 757 760 738
f 746 760 757
f 734 769 747
f 769 740 768
f 747 768 733
f 769 768 747
f 740 770 767
f 770 739 763
f 767 763 731
f 770 763 767
f 739 765 764
f 765 736 752
f 764 752 735
f 765 752 764
f 736 751 756
f 751 730 753
f 756 753 737
f 751 753 756
f 732 758 744
f 758 738 759
f 744 759 733
f 758 759 744
f 732 744 742
f 744 733 743
f 742 743 731
f 744 743 742
f 732 742 749
f 742 731 748
f 749 748 735
f 742 748 749
f 732 749 754
f 749 735 755
f 754 755 737
f 749 755 754
f 732 754 758
f 754 737 761
f 758 761 738
f 754 761 758
f 733 759 747
f 759 738 760
f 747 760 734
f 759 760 747
f 731 743 767
f 743 733 768
f 767 768 740
f 743 768 767
f 735 748 764
f 748 731 763
f 764 763 739
f 748 763 764
f 737 755 756
f 755 735 752
f 756 752 736
f 755 752 756
f 738 761 757
f 761 737 753
f 757 753 730
f 761 753 757

o geometry_52
usemtl material_9
v 0.09057017 3.18379881 -0.73000000
v 0.16942983 3.18379881 -0.73000000
v 0.09057017 3.05620119 -0.73000000
v 0.16942983 3.05620119 -0.73000000
v 0.13000000 3.08057017 -0.66620119
v 0.13000000 3.15942983 -0.66620119
v 0.13000000 3.08057017 -0.79379881
v 0.13000000 3.15942983 -0.79379881
v 0.19379881 3.12000000 -0.76942983
v 0.19379881 3.12000000 -0.69057017
v 0.06620119 3.12000000 -0.76942983
v 0.06620119 3.12000000 -0.69057017
v 0.13000000 3.19500000 -0.73000000
v 0.13000000 3.04500000 -0.73000000
v 0.10682373 3.05932373 -0.69250000
v 0.15317627 3.05932373 -0.69250000
v 0.10682373 3.18067627 -0.69250000
v 0.15317627 3.18067627 -0.69250000
v 0.13000000 3.12000000 -0.65500000
v 0.10682373 3.05932373 -0.76750000
v 0.15317627 3.05932373 -0.76750000
v 0.10682373 3.18067627 -0.76750000
v 0.15317627 3.18067627 -0.76750000
v 0.13000000 3.12000000 -0.80500000
v 0.19067627 3.15750000 -0.75317627
v 0.19067627 3.08250000 -0.75317627
v 0.16750000 3.09682373 -0.79067627
v 0.16750000 3.14317627 -0.79067627
v 0.19067627 3.15750000 -0.70682373
v 0.19067627 3.08250000 -0.70682373
v 0.16750000 3.09682373 -0.66932373
v 0.16750000 3.14317627 -0.66932373
v 0.20500000 3.12000000 -0.73000000
v 0.06932373 3.15750000 -0.75317627
v 0.06932373 3.08250000 -0.75317627
v 0.09250000 3.09682373 -0.79067627
v 0.09250000 3.14317627 -0.79067627
v 0.06932373 3.15750000 -0.70682373
v 0.06932373 3.08250000 -0.70682373
v 0.09250000 3.09682373 -0.66932373
v 0.09250000 3.14317627 -0.66932373
v 0.05500000 3.12000000 -0.73000000
f 771 808 787
f 808 782 811
f 787 811 776
f 808 811 787
f 771 787 783
f 787 776 788
f 783 788 772
f 787 788 783
f 771 783 792
f 783 772 793
f 792 793 778
f 783 793 792
f 771 792 804
f 792 778 807
f 804 807 781
f 792 807 804
f 771 804 808
f 804 781 812
f 808 812 782
f 804 812 808
f 772 788 799
f 788 776 802
f 799 802 780
f 788 802 799
f 776 811 789
f 811 782 810
f 789 810 775
f 811 810 789
f 782 812 809
f 812 781 805
f 809 805 773
f 812 805 809
f 781 807 806
f 807 778 794
f 806 794 777
f 807 794 806
f 778 793 798
f 793 772 795
f 798 795 779
f 793 795 798
f 774 800 786
f 800 780 801
f 786 801 775
f 800 801 786
f 774 786 784
f 786 775 785
f 784 785 773
f 786 785 784
f 774 784 791
f 784 773 790
f 791 790 777
f 784 790 791
f 774 791 796
f 791 777 797
f 796 797 779
f 791 797 796
f 774 796 800
f 796 779 803
f 800 803 780
f 796 803 800
f 775 801 789
f 801 780 802
f 789 802 776
f 801 802 789
f 773 785 809
f 785 775 810
f 809 810 782
f 785 810 809
f 777 790 806
f 790 773 805
f 806 805 781
f 790 805 806
f 779 797 798
f 797 777 794
f 798 794 778
f 797 794 798
f 780 803 799
f 803 779 795
f 799 795 772
f 803 795 799

o geometry_53
usemtl material_5
v -0.07360236 2.94145467 -1.00000000
v 0.07360236 2.94145467 -1.00000000
v -0.07360236 2.79854533 -1.00000000
v 0.07360236 2.79854533 -1.00000000
v 0.00000000 2.82583859 -0.90472711
v 0.00000000 2.91416141 -0.90472711
v 0.00000000 2.82583859 -1.09527289
v 0.00000000 2.91416141 -1.09527289
v 0.11909111 2.87000000 -1.05888188
v 0.11909111 2.87000000 -0.94111812
v -0.11909111 2.87000000 -1.05888188
v -0.11909111 2.87000000 -0.94111812
v 0.00000000 2.95400000 -1.00000000
v 0.00000000 2.78600000 -1.00000000
v -0.04326238 2.80204257 -0.94400000
v 0.04326238 2.80204257 -0.94400000
v -0.04326238 2.93795743 -0.94400000
v 0.04326238 2.93795743 -0.94400000
v 0.00000000 2.87000000 -0.88800000
v -0.04326238 2.80204257 -1.05600000
v 0.04326238 2.80204257 -1.05600000
v -0.04326238 2.93795743 -1.05600000
v 0.04326238 2.93795743 -1.05600000
v 0.00000000 2.87000000 -1.11200000
v 0.11326238 2.91200000 -1.03460990
v 0.11326238 2.82800000 -1.03460990
v 0.07000000 2.84404257 -1.09060990
v 0.07000000 2.89595743 -1.09060990
v 0.11326238 2.91200000 -0.96539010
v 0.11326238 2.82800000 -0.96539010
v 0.07000000 2.84404257 -0.90939010
v 0.07000000 2.89595743 -0.90939010
v 0.14000000 2.87000000 -1.00000000
v -0.11326238 2.91200000 -1.03460990
v -0.11326238 2.82800000 -1.03460990
v -0.07000000 2.84404257 -1.09060990
v -0.07000000 2.89595743 -1.09060990
v -0.11326238 2.91200000 -0.96539010
v -0.11326238 2.82800000 -0.96539010
v -0.07000000 2.84404257 -0.90939010
v -0.07000000 2.89595743 -0.90939010
v -0.14000000 2.87000000 -1.00000000
f 813 850 829
f 850 824 853
f 829 853 818
f 850 853 829
f 813 829 825
f 829 818 830
f 825 830 814
f 829 830 825
f 813 825 834
f 825 814 835
f 834 835 820
f 825 835 834
f 813 834 846
f 834 820 849
f 846 849 823
f 834 849 846
f 813 846 850
f 846 823 854
f 850 854 824
f 846 854 850
f 814 830 841
f 830 818 844
f 841 844 822
f 830 844 841
f 818 853 831
f 853 824 852
f 831 852 817
f 853 852 831
f 824 854 851
f 854 823 847
f 851 847 815
f 854 847 851
f 823 849 848
f 849 820 836
f 848 836 819
f 849 836 848
f 820 835 840
f 835 814 837
f 840 837 821
f 835 837 840
f 816 842 828
f 842 822 843
f 828 843 817
f 842 843 828
f 816 828 826
f 828 817 827
f 826 827 815
f 828 827 826
f 816 826 833
f 826 815 832
f 833 832 819
f 826 832 833
f 816 833 838
f 833 819 839
f 838 839 821
f 833 839 838
f 816 838 842
f 838 821 845
f 842 845 822
f 838 845 842
f 817 843 831
f 843 822 844
f 831 844 818
f 843 844 831
f 815 827 851
f 827 817 852
f 851 852 824
f 827 852 851
f 819 832 848
f 832 815 847
f 848 847 823
f 832 847 848
f 821 839 840
f 839 819 836
f 840 836 820
f 839 836 840
f 822 845 841
f 845 821 837
f 841 837 814
f 845 837 841

