# https://github.com/mikedh/trimesh
mtllib bacon_beacon.mtl

o geometry_0
usemtl material_0
v -0.92500000 0.00000000 -0.92500000
v -0.92500000 0.00000000 0.92500000
v -0.92500000 0.16000000 -0.92500000
v -0.92500000 0.16000000 0.92500000
v 0.92500000 0.00000000 -0.92500000
v 0.92500000 0.00000000 0.92500000
v 0.92500000 0.16000000 -0.92500000
v 0.92500000 0.16000000 0.92500000
f 2 4 1
f 5 2 1
f 1 4 3
f 3 5 1
f 2 8 4
f 6 2 5
f 6 8 2
f 4 8 3
f 7 5 3
f 3 8 7
f 7 6 5
f 8 6 7

o geometry_1
usemtl material_1
v -0.95500000 0.15000000 -0.95500000
v -0.95500000 0.15000000 0.95500000
v -0.95500000 0.18000000 -0.95500000
v -0.95500000 0.18000000 0.95500000
v 0.95500000 0.15000000 -0.95500000
v 0.95500000 0.15000000 0.95500000
v 0.95500000 0.18000000 -0.95500000
v 0.95500000 0.18000000 0.95500000
f 10 12 9
f 13 10 9
f 9 12 11
f 11 13 9
f 10 16 12
f 14 10 13
f 14 16 10
f 12 16 11
f 15 13 11
f 11 16 15
f 15 14 13
f 16 14 15

o geometry_2
usemtl material_2
v -0.78000000 0.18000000 -0.28000000
v -0.73500000 0.18000000 -0.28000000
v -0.73500000 0.63000000 -0.28000000
v -0.78000000 0.63000000 -0.28000000
v -0.74818019 0.18000000 -0.31181981
v -0.74818019 0.63000000 -0.31181981
v -0.78000000 0.18000000 -0.32500000
v -0.78000000 0.63000000 -0.32500000
v -0.81181981 0.18000000 -0.31181981
v -0.81181981 0.63000000 -0.31181981
v -0.82500000 0.18000000 -0.28000000
v -0.82500000 0.63000000 -0.28000000
v -0.81181981 0.18000000 -0.24818019
v -0.81181981 0.63000000 -0.24818019
v -0.78000000 0.18000000 -0.23500000
v -0.78000000 0.63000000 -0.23500000
v -0.74818019 0.18000000 -0.24818019
v -0.74818019 0.63000000 -0.24818019
f 18 17 21
f 18 21 19
f 19 21 22
f 19 22 20
f 21 17 23
f 21 23 22
f 22 23 24
f 22 24 20
f 23 17 25
f 23 25 24
f 24 25 26
f 24 26 20
f 25 17 27
f 25 27 26
f 26 27 28
f 26 28 20
f 27 17 29
f 27 29 28
f 28 29 30
f 28 30 20
f 29 17 31
f 29 31 30
f 30 31 32
f 30 32 20
f 31 17 33
f 31 33 32
f 32 33 34
f 32 34 20
f 33 17 18
f 33 18 34
f 34 18 19
f 34 19 20

o geometry_3
usemtl material_2
v -0.78000000 0.18000000 0.28000000
v -0.73500000 0.18000000 0.28000000
v -0.73500000 0.63000000 0.28000000
v -0.78000000 0.63000000 0.28000000
v -0.74818019 0.18000000 0.24818019
v -0.74818019 0.63000000 0.24818019
v -0.78000000 0.18000000 0.23500000
v -0.78000000 0.63000000 0.23500000
v -0.81181981 0.18000000 0.24818019
v -0.81181981 0.63000000 0.24818019
v -0.82500000 0.18000000 0.28000000
v -0.82500000 0.63000000 0.28000000
v -0.81181981 0.18000000 0.31181981
v -0.81181981 0.63000000 0.31181981
v -0.78000000 0.18000000 0.32500000
v -0.78000000 0.63000000 0.32500000
v -0.74818019 0.18000000 0.31181981
v -0.74818019 0.63000000 0.31181981
f 36 35 39
f 36 39 37
f 37 39 40
f 37 40 38
f 39 35 41
f 39 41 40
f 40 41 42
f 40 42 38
f 41 35 43
f 41 43 42
f 42 43 44
f 42 44 38
f 43 35 45
f 43 45 44
f 44 45 46
f 44 46 38
f 45 35 47
f 45 47 46
f 46 47 48
f 46 48 38
f 47 35 49
f 47 49 48
f 48 49 50
f 48 50 38
f 49 35 51
f 49 51 50
f 50 51 52
f 50 52 38
f 51 35 36
f 51 36 52
f 52 36 37
f 52 37 38

o geometry_4
usemtl material_2
v -0.22000000 0.18000000 -0.28000000
v -0.17500000 0.18000000 -0.28000000
v -0.17500000 0.63000000 -0.28000000
v -0.22000000 0.63000000 -0.28000000
v -0.18818019 0.18000000 -0.31181981
v -0.18818019 0.63000000 -0.31181981
v -0.22000000 0.18000000 -0.32500000
v -0.22000000 0.63000000 -0.32500000
v -0.25181981 0.18000000 -0.31181981
v -0.25181981 0.63000000 -0.31181981
v -0.26500000 0.18000000 -0.28000000
v -0.26500000 0.63000000 -0.28000000
v -0.25181981 0.18000000 -0.24818019
v -0.25181981 0.63000000 -0.24818019
v -0.22000000 0.18000000 -0.23500000
v -0.22000000 0.63000000 -0.23500000
v -0.18818019 0.18000000 -0.24818019
v -0.18818019 0.63000000 -0.24818019
f 54 53 57
f 54 57 55
f 55 57 58
f 55 58 56
f 57 53 59
f 57 59 58
f 58 59 60
f 58 60 56
f 59 53 61
f 59 61 60
f 60 61 62
f 60 62 56
f 61 53 63
f 61 63 62
f 62 63 64
f 62 64 56
f 63 53 65
f 63 65 64
f 64 65 66
f 64 66 56
f 65 53 67
f 65 67 66
f 66 67 68
f 66 68 56
f 67 53 69
f 67 69 68
f 68 69 70
f 68 70 56
f 69 53 54
f 69 54 70
f 70 54 55
f 70 55 56

o geometry_5
usemtl material_2
v -0.22000000 0.18000000 0.28000000
v -0.17500000 0.18000000 0.28000000
v -0.17500000 0.63000000 0.28000000
v -0.22000000 0.63000000 0.28000000
v -0.18818019 0.18000000 0.24818019
v -0.18818019 0.63000000 0.24818019
v -0.22000000 0.18000000 0.23500000
v -0.22000000 0.63000000 0.23500000
v -0.25181981 0.18000000 0.24818019
v -0.25181981 0.63000000 0.24818019
v -0.26500000 0.18000000 0.28000000
v -0.26500000 0.63000000 0.28000000
v -0.25181981 0.18000000 0.31181981
v -0.25181981 0.63000000 0.31181981
v -0.22000000 0.18000000 0.32500000
v -0.22000000 0.63000000 0.32500000
v -0.18818019 0.18000000 0.31181981
v -0.18818019 0.63000000 0.31181981
f 72 71 75
f 72 75 73
f 73 75 76
f 73 76 74
f 75 71 77
f 75 77 76
f 76 77 78
f 76 78 74
f 77 71 79
f 77 79 78
f 78 79 80
f 78 80 74
f 79 71 81
f 79 81 80
f 80 81 82
f 80 82 74
f 81 71 83
f 81 83 82
f 82 83 84
f 82 84 74
f 83 71 85
f 83 85 84
f 84 85 86
f 84 86 74
f 85 71 87
f 85 87 86
f 86 87 88
f 86 88 74
f 87 71 72
f 87 72 88
f 88 72 73
f 88 73 74

o geometry_6
usemtl material_3
v -0.50000000 0.63000000 -0.00000000
v -0.08000000 0.63000000 -0.00000000
v -0.08000000 1.25000000 0.00000000
v -0.50000000 1.25000000 0.00000000
v -0.11197060 0.63000000 -0.16072704
v -0.11197060 1.25000000 -0.16072704
v -0.20301515 0.63000000 -0.29698485
v -0.20301515 1.25000000 -0.29698485
v -0.33927296 0.63000000 -0.38802940
v -0.33927296 1.25000000 -0.38802940
v -0.50000000 0.63000000 -0.42000000
v -0.50000000 1.25000000 -0.42000000
v -0.66072704 0.63000000 -0.38802940
v -0.66072704 1.25000000 -0.38802940
v -0.79698485 0.63000000 -0.29698485
v -0.79698485 1.25000000 -0.29698485
v -0.88802940 0.63000000 -0.16072704
v -0.88802940 1.25000000 -0.16072704
v -0.92000000 0.63000000 -0.00000000
v -0.92000000 1.25000000 -0.00000000
v -0.88802940 0.63000000 0.16072704
v -0.88802940 1.25000000 0.16072704
v -0.79698485 0.63000000 0.29698485
v -0.79698485 1.25000000 0.29698485
v -0.66072704 0.63000000 0.38802940
v -0.66072704 1.25000000 0.38802940
v -0.50000000 0.63000000 0.42000000
v -0.50000000 1.25000000 0.42000000
v -0.33927296 0.63000000 0.38802940
v -0.33927296 1.25000000 0.38802940
v -0.20301515 0.63000000 0.29698485
v -0.20301515 1.25000000 0.29698485
v -0.11197060 0.63000000 0.16072704
v -0.11197060 1.25000000 0.16072704
f 90 89 93
f 90 93 91
f 91 93 94
f 91 94 92
f 93 89 95
f 93 95 94
f 94 95 96
f 94 96 92
f 95 89 97
f 95 97 96
f 96 97 98
f 96 98 92
f 97 89 99
f 97 99 98
f 98 99 100
f 98 100 92
f 99 89 101
f 99 101 100
f 100 101 102
f 100 102 92
f 101 89 103
f 101 103 102
f 102 103 104
f 102 104 92
f 103 89 105
f 103 105 104
f 104 105 106
f 104 106 92
f 105 89 107
f 105 107 106
f 106 107 108
f 106 108 92
f 107 89 109
f 107 109 108
f 108 109 110
f 108 110 92
f 109 89 111
f 109 111 110
f 110 111 112
f 110 112 92
f 111 89 113
f 111 113 112
f 112 113 114
f 112 114 92
f 113 89 115
f 113 115 114
f 114 115 116
f 114 116 92
f 115 89 117
f 115 117 116
f 116 117 118
f 116 118 92
f 117 89 119
f 117 119 118
f 118 119 120
f 118 120 92
f 119 89 121
f 119 121 120
f 120 121 122
f 120 122 92
f 121 89 90
f 121 90 122
f 122 90 91
f 122 91 92

o geometry_7
usemtl material_4
v -0.50000000 0.63000000 -0.00000000
v -0.11000000 0.63000000 -0.00000000
v -0.11000000 0.97100000 0.00000000
v -0.50000000 0.97100000 0.00000000
v -0.13968698 0.63000000 -0.14924654
v -0.13968698 0.97100000 -0.14924654
v -0.22422836 0.63000000 -0.27577164
v -0.22422836 0.97100000 -0.27577164
v -0.35075346 0.63000000 -0.36031302
v -0.35075346 0.97100000 -0.36031302
v -0.50000000 0.63000000 -0.39000000
v -0.50000000 0.97100000 -0.39000000
v -0.64924654 0.63000000 -0.36031302
v -0.64924654 0.97100000 -0.36031302
v -0.77577164 0.63000000 -0.27577164
v -0.77577164 0.97100000 -0.27577164
v -0.86031302 0.63000000 -0.14924654
v -0.86031302 0.97100000 -0.14924654
v -0.89000000 0.63000000 -0.00000000
v -0.89000000 0.97100000 -0.00000000
v -0.86031302 0.63000000 0.14924654
v -0.86031302 0.97100000 0.14924654
v -0.77577164 0.63000000 0.27577164
v -0.77577164 0.97100000 0.27577164
v -0.64924654 0.63000000 0.36031302
v -0.64924654 0.97100000 0.36031302
v -0.50000000 0.63000000 0.39000000
v -0.50000000 0.97100000 0.39000000
v -0.35075346 0.63000000 0.36031302
v -0.35075346 0.97100000 0.36031302
v -0.22422836 0.63000000 0.27577164
v -0.22422836 0.97100000 0.27577164
v -0.13968698 0.63000000 0.14924654
v -0.13968698 0.97100000 0.14924654
f 124 123 127
f 124 127 125
f 125 127 128
f 125 128 126
f 127 123 129
f 127 129 128
f 128 129 130
f 128 130 126
f 129 123 131
f 129 131 130
f 130 131 132
f 130 132 126
f 131 123 133
f 131 133 132
f 132 133 134
f 132 134 126
f 133 123 135
f 133 135 134
f 134 135 136
f 134 136 126
f 135 123 137
f 135 137 136
f 136 137 138
f 136 138 126
f 137 123 139
f 137 139 138
f 138 139 140
f 138 140 126
f 139 123 141
f 139 141 140
f 140 141 142
f 140 142 126
f 141 123 143
f 141 143 142
f 142 143 144
f 142 144 126
f 143 123 145
f 143 145 144
f 144 145 146
f 144 146 126
f 145 123 147
f 145 147 146
f 146 147 148
f 146 148 126
f 147 123 149
f 147 149 148
f 148 149 150
f 148 150 126
f 149 123 151
f 149 151 150
f 150 151 152
f 150 152 126
f 151 123 153
f 151 153 152
f 152 153 154
f 152 154 126
f 153 123 155
f 153 155 154
f 154 155 156
f 154 156 126
f 155 123 124
f 155 124 156
f 156 124 125
f 156 125 126

o geometry_8
usemtl material_2
v -0.50000000 0.60500000 -0.00000000
v -0.06000000 0.60500000 -0.00000000
v -0.06000000 0.65500000 0.00000000
v -0.50000000 0.65500000 0.00000000
v -0.09349301 0.60500000 -0.16838071
v -0.09349301 0.65500000 -0.16838071
v -0.18887302 0.60500000 -0.31112698
v -0.18887302 0.65500000 -0.31112698
v -0.33161929 0.60500000 -0.40650699
v -0.33161929 0.65500000 -0.40650699
v -0.50000000 0.60500000 -0.44000000
v -0.50000000 0.65500000 -0.44000000
v -0.66838071 0.60500000 -0.40650699
v -0.66838071 0.65500000 -0.40650699
v -0.81112698 0.60500000 -0.31112698
v -0.81112698 0.65500000 -0.31112698
v -0.90650699 0.60500000 -0.16838071
v -0.90650699 0.65500000 -0.16838071
v -0.94000000 0.60500000 -0.00000000
v -0.94000000 0.65500000 -0.00000000
v -0.90650699 0.60500000 0.16838071
v -0.90650699 0.65500000 0.16838071
v -0.81112698 0.60500000 0.31112698
v -0.81112698 0.65500000 0.31112698
v -0.66838071 0.60500000 0.40650699
v -0.66838071 0.65500000 0.40650699
v -0.50000000 0.60500000 0.44000000
v -0.50000000 0.65500000 0.44000000
v -0.33161929 0.60500000 0.40650699
v -0.33161929 0.65500000 0.40650699
v -0.18887302 0.60500000 0.31112698
v -0.18887302 0.65500000 0.31112698
v -0.09349301 0.60500000 0.16838071
v -0.09349301 0.65500000 0.16838071
f 158 157 161
f 158 161 159
f 159 161 162
f 159 162 160
f 161 157 163
f 161 163 162
f 162 163 164
f 162 164 160
f 163 157 165
f 163 165 164
f 164 165 166
f 164 166 160
f 165 157 167
f 165 167 166
f 166 167 168
f 166 168 160
f 167 157 169
f 167 169 168
f 168 169 170
f 168 170 160
f 169 157 171
f 169 171 170
f 170 171 172
f 170 172 160
f 171 157 173
f 171 173 172
f 172 173 174
f 172 174 160
f 173 157 175
f 173 175 174
f 174 175 176
f 174 176 160
f 175 157 177
f 175 177 176
f 176 177 178
f 176 178 160
f 177 157 179
f 177 179 178
f 178 179 180
f 178 180 160
f 179 157 181
f 179 181 180
f 180 181 182
f 180 182 160
f 181 157 183
f 181 183 182
f 182 183 184
f 182 184 160
f 183 157 185
f 183 185 184
f 184 185 186
f 184 186 160
f 185 157 187
f 185 187 186
f 186 187 188
f 186 188 160
f 187 157 189
f 187 189 188
f 188 189 190
f 188 190 160
f 189 157 158
f 189 158 190
f 190 158 159
f 190 159 160

o geometry_9
usemtl material_2
v -0.50000000 1.22500000 -0.00000000
v -0.06000000 1.22500000 -0.00000000
v -0.06000000 1.27500000 0.00000000
v -0.50000000 1.27500000 0.00000000
v -0.09349301 1.22500000 -0.16838071
v -0.09349301 1.27500000 -0.16838071
v -0.18887302 1.22500000 -0.31112698
v -0.18887302 1.27500000 -0.31112698
v -0.33161929 1.22500000 -0.40650699
v -0.33161929 1.27500000 -0.40650699
v -0.50000000 1.22500000 -0.44000000
v -0.50000000 1.27500000 -0.44000000
v -0.66838071 1.22500000 -0.40650699
v -0.66838071 1.27500000 -0.40650699
v -0.81112698 1.22500000 -0.31112698
v -0.81112698 1.27500000 -0.31112698
v -0.90650699 1.22500000 -0.16838071
v -0.90650699 1.27500000 -0.16838071
v -0.94000000 1.22500000 -0.00000000
v -0.94000000 1.27500000 -0.00000000
v -0.90650699 1.22500000 0.16838071
v -0.90650699 1.27500000 0.16838071
v -0.81112698 1.22500000 0.31112698
v -0.81112698 1.27500000 0.31112698
v -0.66838071 1.22500000 0.40650699
v -0.66838071 1.27500000 0.40650699
v -0.50000000 1.22500000 0.44000000
v -0.50000000 1.27500000 0.44000000
v -0.33161929 1.22500000 0.40650699
v -0.33161929 1.27500000 0.40650699
v -0.18887302 1.22500000 0.31112698
v -0.18887302 1.27500000 0.31112698
v -0.09349301 1.22500000 0.16838071
v -0.09349301 1.27500000 0.16838071
f 192 191 195
f 192 195 193
f 193 195 196
f 193 196 194
f 195 191 197
f 195 197 196
f 196 197 198
f 196 198 194
f 197 191 199
f 197 199 198
f 198 199 200
f 198 200 194
f 199 191 201
f 199 201 200
f 200 201 202
f 200 202 194
f 201 191 203
f 201 203 202
f 202 203 204
f 202 204 194
f 203 191 205
f 203 205 204
f 204 205 206
f 204 206 194
f 205 191 207
f 205 207 206
f 206 207 208
f 206 208 194
f 207 191 209
f 207 209 208
f 208 209 210
f 208 210 194
f 209 191 211
f 209 211 210
f 210 211 212
f 210 212 194
f 211 191 213
f 211 213 212
f 212 213 214
f 212 214 194
f 213 191 215
f 213 215 214
f 214 215 216
f 214 216 194
f 215 191 217
f 215 217 216
f 216 217 218
f 216 218 194
f 217 191 219
f 217 219 218
f 218 219 220
f 218 220 194
f 219 191 221
f 219 221 220
f 220 221 222
f 220 222 194
f 221 191 223
f 221 223 222
f 222 223 224
f 222 224 194
f 223 191 192
f 223 192 224
f 224 192 193
f 224 193 194

o geometry_10
usemtl material_0
v -0.50000000 1.27000000 -0.00000000
v -0.36000000 1.27000000 -0.00000000
v -0.36000000 1.43000000 0.00000000
v -0.50000000 1.43000000 0.00000000
v -0.38673762 1.27000000 -0.08228994
v -0.38673762 1.43000000 -0.08228994
v -0.45673762 1.27000000 -0.13314791
v -0.45673762 1.43000000 -0.13314791
v -0.54326238 1.27000000 -0.13314791
v -0.54326238 1.43000000 -0.13314791
v -0.61326238 1.27000000 -0.08228994
v -0.61326238 1.43000000 -0.08228994
v -0.64000000 1.27000000 -0.00000000
v -0.64000000 1.43000000 -0.00000000
v -0.61326238 1.27000000 0.08228994
v -0.61326238 1.43000000 0.08228994
v -0.54326238 1.27000000 0.13314791
v -0.54326238 1.43000000 0.13314791
v -0.45673762 1.27000000 0.13314791
v -0.45673762 1.43000000 0.13314791
v -0.38673762 1.27000000 0.08228994
v -0.38673762 1.43000000 0.08228994
f 226 225 229
f 226 229 227
f 227 229 230
f 227 230 228
f 229 225 231
f 229 231 230
f 230 231 232
f 230 232 228
f 231 225 233
f 231 233 232
f 232 233 234
f 232 234 228
f 233 225 235
f 233 235 234
f 234 235 236
f 234 236 228
f 235 225 237
f 235 237 236
f 236 237 238
f 236 238 228
f 237 225 239
f 237 239 238
f 238 239 240
f 238 240 228
f 239 225 241
f 239 241 240
f 240 241 242
f 240 242 228
f 241 225 243
f 241 243 242
f 242 243 244
f 242 244 228
f 243 225 245
f 243 245 244
f 244 245 246
f 244 246 228
f 245 225 226
f 245 226 246
f 246 226 227
f 246 227 228

o geometry_11
usemtl material_5
v -0.50000000 0.72300000 -0.00000000
v -0.47500000 0.72300000 -0.00000000
v -0.47500000 1.15700000 0.00000000
v -0.50000000 1.15700000 0.00000000
v -0.48232233 0.72300000 -0.01767767
v -0.48232233 1.15700000 -0.01767767
v -0.50000000 0.72300000 -0.02500000
v -0.50000000 1.15700000 -0.02500000
v -0.51767767 0.72300000 -0.01767767
v -0.51767767 1.15700000 -0.01767767
v -0.52500000 0.72300000 -0.00000000
v -0.52500000 1.15700000 0.00000000
v -0.51767767 0.72300000 0.01767767
v -0.51767767 1.15700000 0.01767767
v -0.50000000 0.72300000 0.02500000
v -0.50000000 1.15700000 0.02500000
v -0.48232233 0.72300000 0.01767767
v -0.48232233 1.15700000 0.01767767
f 248 247 251
f 248 251 249
f 249 251 252
f 249 252 250
f 251 247 253
f 251 253 252
f 252 253 254
f 252 254 250
f 253 247 255
f 253 255 254
f 254 255 256
f 254 256 250
f 255 247 257
f 255 257 256
f 256 257 258
f 256 258 250
f 257 247 259
f 257 259 258
f 258 259 260
f 258 260 250
f 259 247 261
f 259 261 260
f 260 261 262
f 260 262 250
f 261 247 263
f 261 263 262
f 262 263 264
f 262 264 250
f 263 247 248
f 263 248 264
f 264 248 249
f 264 249 250

o geometry_12
usemtl material_5
v -0.79400000 0.73500000 -0.03000000
v -0.79400000 0.73500000 0.03000000
v -0.79400000 0.76500000 -0.03000000
v -0.79400000 0.76500000 0.03000000
v -0.20600000 0.73500000 -0.03000000
v -0.20600000 0.73500000 0.03000000
v -0.20600000 0.76500000 -0.03000000
v -0.20600000 0.76500000 0.03000000
f 266 268 265
f 269 266 265
f 265 268 267
f 267 269 265
f 266 272 268
f 270 266 269
f 270 272 266
f 268 272 267
f 271 269 267
f 267 272 271
f 271 270 269
f 272 270 271

o geometry_13
usemtl material_5
v -0.53000000 0.73500000 0.29400000
v -0.47000000 0.73500000 0.29400000
v -0.53000000 0.76500000 0.29400000
v -0.47000000 0.76500000 0.29400000
v -0.53000000 0.73500000 -0.29400000
v -0.47000000 0.73500000 -0.29400000
v -0.53000000 0.76500000 -0.29400000
v -0.47000000 0.76500000 -0.29400000
f 274 276 273
f 277 274 273
f 273 276 275
f 275 277 273
f 274 280 276
f 278 274 277
f 278 280 274
f 276 280 275
f 279 277 275
f 275 280 279
f 279 278 277
f 280 278 279

o geometry_14
usemtl material_2
v -0.13000000 0.68000000 0.00000000
v -0.13000000 0.68000000 -0.07000000
v 0.15000000 0.53000000 -0.07000000
v 0.15000000 0.53000000 0.00000000
v -0.11057047 0.71626846 -0.05663119
v 0.16942953 0.56626846 -0.05663119
v -0.09856235 0.73868361 -0.02163119
v 0.18143765 0.58868361 -0.02163119
v -0.09856235 0.73868361 0.02163119
v 0.18143765 0.58868361 0.02163119
v -0.11057047 0.71626846 0.05663119
v 0.16942953 0.56626846 0.05663119
v -0.13000000 0.68000000 0.07000000
v 0.15000000 0.53000000 0.07000000
v -0.14942953 0.64373154 0.05663119
v 0.13057047 0.49373154 0.05663119
v -0.16143765 0.62131639 0.02163119
v 0.11856235 0.47131639 0.02163119
v -0.16143765 0.62131639 -0.02163119
v 0.11856235 0.47131639 -0.02163119
v -0.14942953 0.64373154 -0.05663119
v 0.13057047 0.49373154 -0.05663119
f 282 281 285
f 282 285 283
f 283 285 286
f 283 286 284
f 285 281 287
f 285 287 286
f 286 287 288
f 286 288 284
f 287 281 289
f 287 289 288
f 288 289 290
f 288 290 284
f 289 281 291
f 289 291 290
f 290 291 292
f 290 292 284
f 291 281 293
f 291 293 292
f 292 293 294
f 292 294 284
f 293 281 295
f 293 295 294
f 294 295 296
f 294 296 284
f 295 281 297
f 295 297 296
f 296 297 298
f 296 298 284
f 297 281 299
f 297 299 298
f 298 299 300
f 298 300 284
f 299 281 301
f 299 301 300
f 300 301 302
f 300 302 284
f 301 281 282
f 301 282 302
f 302 282 283
f 302 283 284

o geometry_15
usemtl material_6
v 0.12500000 0.18000000 -0.37500000
v 0.12500000 0.18000000 0.37500000
v 0.12500000 0.80000000 -0.37500000
v 0.12500000 0.80000000 0.37500000
v 0.97500000 0.18000000 -0.37500000
v 0.97500000 0.18000000 0.37500000
v 0.97500000 0.80000000 -0.37500000
v 0.97500000 0.80000000 0.37500000
f 304 306 303
f 307 304 303
f 303 306 305
f 305 307 303
f 304 310 306
f 308 304 307
f 308 310 304
f 306 310 305
f 309 307 305
f 305 310 309
f 309 308 307
f 310 308 309

o geometry_16
usemtl material_7
v 0.12400000 0.32900000 -0.37600000
v 0.12400000 0.32900000 0.37600000
v 0.12400000 0.34100000 -0.37600000
v 0.12400000 0.34100000 0.37600000
v 0.97600000 0.32900000 -0.37600000
v 0.97600000 0.32900000 0.37600000
v 0.97600000 0.34100000 -0.37600000
v 0.97600000 0.34100000 0.37600000
f 312 314 311
f 315 312 311
f 311 314 313
f 313 315 311
f 312 318 314
f 316 312 315
f 316 318 312
f 314 318 313
f 317 315 313
f 313 318 317
f 317 316 315
f 318 316 317

o geometry_17
usemtl material_7
v 0.12400000 0.48400000 -0.37600000
v 0.12400000 0.48400000 0.37600000
v 0.12400000 0.49600000 -0.37600000
v 0.12400000 0.49600000 0.37600000
v 0.97600000 0.48400000 -0.37600000
v 0.97600000 0.48400000 0.37600000
v 0.97600000 0.49600000 -0.37600000
v 0.97600000 0.49600000 0.37600000
f 320 322 319
f 323 320 319
f 319 322 321
f 321 323 319
f 320 326 322
f 324 320 323
f 324 326 320
f 322 326 321
f 325 323 321
f 321 326 325
f 325 324 323
f 326 324 325

o geometry_18
usemtl material_7
v 0.12400000 0.63900000 -0.37600000
v 0.12400000 0.63900000 0.37600000
v 0.12400000 0.65100000 -0.37600000
v 0.12400000 0.65100000 0.37600000
v 0.97600000 0.63900000 -0.37600000
v 0.97600000 0.63900000 0.37600000
v 0.97600000 0.65100000 -0.37600000
v 0.97600000 0.65100000 0.37600000
f 328 330 327
f 331 328 327
f 327 330 329
f 329 331 327
f 328 334 330
f 332 328 331
f 332 334 328
f 330 334 329
f 333 331 329
f 329 334 333
f 333 332 331
f 334 332 333

o geometry_19
usemtl material_8
v 0.37000000 0.29000000 0.37000000
v 0.37000000 0.29000000 0.39000000
v 0.37000000 0.59000000 0.37000000
v 0.37000000 0.59000000 0.39000000
v 0.73000000 0.29000000 0.37000000
v 0.73000000 0.29000000 0.39000000
v 0.73000000 0.59000000 0.37000000
v 0.73000000 0.59000000 0.39000000
f 336 338 335
f 339 336 335
f 335 338 337
f 337 339 335
f 336 342 338
f 340 336 339
f 340 342 336
f 338 342 337
f 341 339 337
f 337 342 341
f 341 340 339
f 342 340 341

o geometry_20
usemtl material_9
v 0.44000000 0.33000000 0.37200000
v 0.44000000 0.33000000 0.40200000
v 0.44000000 0.51000000 0.37200000
v 0.44000000 0.51000000 0.40200000
v 0.66000000 0.33000000 0.37200000
v 0.66000000 0.33000000 0.40200000
v 0.66000000 0.51000000 0.37200000
v 0.66000000 0.51000000 0.40200000
f 344 346 343
f 347 344 343
f 343 346 345
f 345 347 343
f 344 350 346
f 348 344 347
f 348 350 344
f 346 350 345
f 349 347 345
f 345 350 349
f 349 348 347
f 350 348 349

o geometry_21
usemtl material_7
v 0.32000000 0.59000000 0.37000000
v 0.32000000 0.59000000 0.40000000
v 0.32000000 0.65000000 0.37000000
v 0.32000000 0.65000000 0.40000000
v 0.78000000 0.59000000 0.37000000
v 0.78000000 0.59000000 0.40000000
v 0.78000000 0.65000000 0.37000000
v 0.78000000 0.65000000 0.40000000
f 352 354 351
f 355 352 351
f 351 354 353
f 353 355 351
f 352 358 354
f 356 352 355
f 356 358 352
f 354 358 353
f 357 355 353
f 353 358 357
f 357 356 355
f 358 356 357

o geometry_22
usemtl material_0
v 0.77000000 0.80000000 -0.00000000
v 0.88000000 0.80000000 -0.00000000
v 0.88000000 1.35000000 0.00000000
v 0.77000000 1.35000000 0.00000000
v 0.85899187 0.80000000 -0.06465638
v 0.85899187 1.35000000 -0.06465638
v 0.80399187 0.80000000 -0.10461622
v 0.80399187 1.35000000 -0.10461622
v 0.73600813 0.80000000 -0.10461622
v 0.73600813 1.35000000 -0.10461622
v 0.68100813 0.80000000 -0.06465638
v 0.68100813 1.35000000 -0.06465638
v 0.66000000 0.80000000 -0.00000000
v 0.66000000 1.35000000 0.00000000
v 0.68100813 0.80000000 0.06465638
v 0.68100813 1.35000000 0.06465638
v 0.73600813 0.80000000 0.10461622
v 0.73600813 1.35000000 0.10461622
v 0.80399187 0.80000000 0.10461622
v 0.80399187 1.35000000 0.10461622
v 0.85899187 0.80000000 0.06465638
v 0.85899187 1.35000000 0.06465638
f 360 359 363
f 360 363 361
f 361 363 364
f 361 364 362
f 363 359 365
f 363 365 364
f 364 365 366
f 364 366 362
f 365 359 367
f 365 367 366
f 366 367 368
f 366 368 362
f 367 359 369
f 367 369 368
f 368 369 370
f 368 370 362
f 369 359 371
f 369 371 370
f 370 371 372
f 370 372 362
f 371 359 373
f 371 373 372
f 372 373 374
f 372 374 362
f 373 359 375
f 373 375 374
f 374 375 376
f 374 376 362
f 375 359 377
f 375 377 376
f 376 377 378
f 376 378 362
f 377 359 379
f 377 379 378
f 378 379 380
f 378 380 362
f 379 359 360
f 379 360 380
f 380 360 361
f 380 361 362

o geometry_23
usemtl material_2
v 0.77000000 1.35000000 -0.00000000
v 0.92000000 1.35000000 -0.00000000
v 0.92000000 1.40000000 0.00000000
v 0.77000000 1.40000000 0.00000000
v 0.89135255 1.35000000 -0.08816779
v 0.89135255 1.40000000 -0.08816779
v 0.81635255 1.35000000 -0.14265848
v 0.81635255 1.40000000 -0.14265848
v 0.72364745 1.35000000 -0.14265848
v 0.72364745 1.40000000 -0.14265848
v 0.64864745 1.35000000 -0.08816779
v 0.64864745 1.40000000 -0.08816779
v 0.62000000 1.35000000 -0.00000000
v 0.62000000 1.40000000 -0.00000000
v 0.64864745 1.35000000 0.08816779
v 0.64864745 1.40000000 0.08816779
v 0.72364745 1.35000000 0.14265848
v 0.72364745 1.40000000 0.14265848
v 0.81635255 1.35000000 0.14265848
v 0.81635255 1.40000000 0.14265848
v 0.89135255 1.35000000 0.08816779
v 0.89135255 1.40000000 0.08816779
f 382 381 385
f 382 385 383
f 383 385 386
f 383 386 384
f 385 381 387
f 385 387 386
f 386 387 388
f 386 388 384
f 387 381 389
f 387 389 388
f 388 389 390
f 388 390 384
f 389 381 391
f 389 391 390
f 390 391 392
f 390 392 384
f 391 381 393
f 391 393 392
f 392 393 394
f 392 394 384
f 393 381 395
f 393 395 394
f 394 395 396
f 394 396 384
f 395 381 397
f 395 397 396
f 396 397 398
f 396 398 384
f 397 381 399
f 397 399 398
f 398 399 400
f 398 400 384
f 399 381 401
f 399 401 400
f 400 401 402
f 400 402 384
f 401 381 382
f 401 382 402
f 402 382 383
f 402 383 384

o geometry_24
usemtl material_5
v 0.30000000 0.21500000 0.50500000
v 0.30000000 0.21500000 0.80500000
v 0.30000000 0.24500000 0.50500000
v 0.30000000 0.24500000 0.80500000
v 0.80000000 0.21500000 0.50500000
v 0.80000000 0.21500000 0.80500000
v 0.80000000 0.24500000 0.50500000
v 0.80000000 0.24500000 0.80500000
f 404 406 403
f 407 404 403
f 403 406 405
f 405 407 403
f 404 410 406
f 408 404 407
f 408 410 404
f 406 410 405
f 409 407 405
f 405 410 409
f 409 408 407
f 410 408 409

o geometry_25
usemtl material_10
v 0.33349942 0.24600000 0.38755818
v 0.33150317 0.24600000 0.62754988
v 0.33349942 0.26400000 0.38755818
v 0.33150317 0.26400000 0.62754988
v 0.40849683 0.24600000 0.38818201
v 0.40650058 0.24600000 0.62817371
v 0.40849683 0.26400000 0.38818201
v 0.40650058 0.26400000 0.62817371
f 412 414 411
f 415 412 411
f 411 414 413
f 413 415 411
f 412 418 414
f 416 412 415
f 416 418 412
f 414 418 413
f 417 415 413
f 413 418 417
f 417 416 415
f 418 416 417

o geometry_26
usemtl material_11
v 0.33270924 0.26200000 0.42255490
v 0.33229335 0.26200000 0.47255317
v 0.33270924 0.26800000 0.42255490
v 0.33229335 0.26800000 0.47255317
v 0.40770665 0.26200000 0.42317872
v 0.40729076 0.26200000 0.47317699
v 0.40770665 0.26800000 0.42317872
v 0.40729076 0.26800000 0.47317699
f 420 422 419
f 423 420 419
f 419 422 421
f 421 423 419
f 420 426 422
f 424 420 423
f 424 426 420
f 422 426 421
f 425 423 421
f 421 426 425
f 425 424 423
f 426 424 425

o geometry_27
usemtl material_11
v 0.42522227 0.24600000 0.42264466
v 0.41979689 0.24600000 0.66258333
v 0.42522227 0.26400000 0.42264466
v 0.41979689 0.26400000 0.66258333
v 0.50020311 0.24600000 0.42434009
v 0.49477773 0.24600000 0.66427876
v 0.50020311 0.26400000 0.42434009
v 0.49477773 0.26400000 0.66427876
f 428 430 427
f 431 428 427
f 427 430 429
f 429 431 427
f 428 434 430
f 432 428 431
f 432 434 428
f 430 434 429
f 433 431 429
f 429 434 433
f 433 432 431
f 434 432 433

o geometry_28
usemtl material_10
v 0.42307473 0.26200000 0.45762039
v 0.42194444 0.26200000 0.50760761
v 0.42307473 0.26800000 0.45762039
v 0.42194444 0.26800000 0.50760761
v 0.49805556 0.26200000 0.45931582
v 0.49692527 0.26200000 0.50930304
v 0.49805556 0.26800000 0.45931582
v 0.49692527 0.26800000 0.50930304
f 436 438 435
f 439 436 435
f 435 438 437
f 437 439 435
f 436 442 438
f 440 436 439
f 440 442 436
f 438 442 437
f 441 439 437
f 437 442 441
f 441 440 439
f 442 440 441

o geometry_29
usemtl material_10
v 0.51723606 0.24600000 0.42256813
v 0.50782167 0.24600000 0.66238341
v 0.51723606 0.26400000 0.42256813
v 0.50782167 0.26400000 0.66238341
v 0.59217833 0.24600000 0.42551013
v 0.58276394 0.24600000 0.66532541
v 0.59217833 0.26400000 0.42551013
v 0.58276394 0.26400000 0.66532541
f 444 446 443
f 447 444 443
f 443 446 445
f 445 447 443
f 444 450 446
f 448 444 447
f 448 450 444
f 446 450 445
f 449 447 445
f 445 450 449
f 449 448 447
f 450 448 449

o geometry_30
usemtl material_11
v 0.51350953 0.26200000 0.45749501
v 0.51154820 0.26200000 0.50745653
v 0.51350953 0.26800000 0.45749501
v 0.51154820 0.26800000 0.50745653
v 0.58845180 0.26200000 0.46043701
v 0.58649047 0.26200000 0.51039853
v 0.58845180 0.26800000 0.46043701
v 0.58649047 0.26800000 0.51039853
f 452 454 451
f 455 452 451
f 451 454 453
f 453 455 451
f 452 458 454
f 456 452 455
f 456 458 452
f 454 458 453
f 457 455 453
f 453 458 457
f 457 456 455
f 458 456 457

o geometry_31
usemtl material_11
v 0.59845632 0.24600000 0.40252340
v 0.60658673 0.24600000 0.64238565
v 0.59845632 0.26400000 0.40252340
v 0.60658673 0.26400000 0.64238565
v 0.67341327 0.24600000 0.39998265
v 0.68154368 0.24600000 0.63984489
v 0.67341327 0.26400000 0.39998265
v 0.68154368 0.26400000 0.63984489
f 460 462 459
f 463 460 459
f 459 462 461
f 461 463 459
f 460 466 462
f 464 460 463
f 464 466 460
f 462 466 461
f 465 463 461
f 461 466 465
f 465 464 463
f 466 464 465

o geometry_32
usemtl material_10
v 0.60167461 0.26200000 0.43746887
v 0.60336844 0.26200000 0.48744018
v 0.60167461 0.26800000 0.43746887
v 0.60336844 0.26800000 0.48744018
v 0.67663156 0.26200000 0.43492812
v 0.67832539 0.26200000 0.48489942
v 0.67663156 0.26800000 0.43492812
v 0.67832539 0.26800000 0.48489942
f 468 470 467
f 471 468 467
f 467 470 469
f 469 471 467
f 468 474 470
f 472 468 471
f 472 474 468
f 470 474 469
f 473 471 469
f 469 474 473
f 473 472 471
f 474 472 473

o geometry_33
usemtl material_10
v 0.69487526 0.24600000 0.38620327
v 0.69013935 0.24600000 0.62615653
v 0.69487526 0.26400000 0.38620327
v 0.69013935 0.26400000 0.62615653
v 0.76986065 0.24600000 0.38768324
v 0.76512474 0.24600000 0.62763651
v 0.76986065 0.26400000 0.38768324
v 0.76512474 0.26400000 0.62763651
f 476 478 475
f 479 476 475
f 475 478 477
f 477 479 475
f 476 482 478
f 480 476 479
f 480 482 476
f 478 482 477
f 481 479 477
f 477 482 481
f 481 480 479
f 482 480 481

o geometry_34
usemtl material_11
v 0.69300063 0.26200000 0.42118477
v 0.69201398 0.26200000 0.47117503
v 0.69300063 0.26800000 0.42118477
v 0.69201398 0.26800000 0.47117503
v 0.76798602 0.26200000 0.42266474
v 0.76699937 0.26200000 0.47265500
v 0.76798602 0.26800000 0.42266474
v 0.76699937 0.26800000 0.47265500
f 484 486 483
f 487 484 483
f 483 486 485
f 485 487 483
f 484 490 486
f 488 484 487
f 488 490 484
f 486 490 485
f 489 487 485
f 485 490 489
f 489 488 487
f 490 488 489

o geometry_35
usemtl material_12
v -0.25000000 0.70000000 0.86500000
v -0.25000000 0.70000000 0.88500000
v -0.25000000 0.86000000 0.86500000
v -0.25000000 0.86000000 0.88500000
v 0.25000000 0.70000000 0.86500000
v 0.25000000 0.70000000 0.88500000
v 0.25000000 0.86000000 0.86500000
v 0.25000000 0.86000000 0.88500000
f 492 494 491
f 495 492 491
f 491 494 493
f 493 495 491
f 492 498 494
f 496 492 495
f 496 498 492
f 494 498 493
f 497 495 493
f 493 498 497
f 497 496 495
f 498 496 497

